<svg class="poloto" width="800" height="500" viewBox="0 0 800 500" xmlns="http://www.w3.org/2000/svg"><style>.poloto{stroke-linecap:round;stroke-linejoin:round;font-family:Roboto,sans-serif;font-size:16px;}.poloto_background{fill:AliceBlue;}.poloto_scatter{stroke-width:7}.poloto_tick_line{stroke:gray;stroke-width:0.5}.poloto_line{stroke-width:2}.poloto_text{fill: black;}.poloto_axis_lines{stroke: black;stroke-width:3;fill:none;stroke-dasharray:none}.poloto_title{font-size:24px;dominant-baseline:start;text-anchor:middle;}.poloto_xname{font-size:24px;dominant-baseline:start;text-anchor:middle;}.poloto_yname{font-size:24px;dominant-baseline:start;text-anchor:middle;}.poloto_legend_text{font-size:20px;dominant-baseline:middle;text-anchor:start;}.poloto0stroke{stroke:blue;}.poloto1stroke{stroke:red;}.poloto2stroke{stroke:green;}.poloto3stroke{stroke:gold;}.poloto4stroke{stroke:aqua;}.poloto5stroke{stroke:lime;}.poloto6stroke{stroke:orange;}.poloto7stroke{stroke:chocolate;}.poloto0fill{fill:blue;}.poloto1fill{fill:red;}.poloto2fill{fill:green;}.poloto3fill{fill:gold;}.poloto4fill{fill:aqua;}.poloto5fill{fill:lime;}.poloto6fill{fill:orange;}.poloto7fill{fill:chocolate;}</style><circle  r="1e5" class="poloto_background" /><text  class="poloto_text poloto_legend_text" x="675" y="100" >knot</text><line  class="poloto_scatter poloto_legend_icon poloto0stroke poloto0legend" stroke="black" x1="685" x2="685" y1="81.25" y2="81.25" /><path  class="poloto_scatter poloto0stroke" d=" M 250.10 341.54 h 0 M 350.20 341.54 h 0 M 450.30 341.54 h 0 M 550.40 341.54 h 0" /><text  class="poloto_text poloto_legend_text" x="675" y="150" >curve</text><line  class="poloto_line poloto_legend_icon poloto1stroke poloto1legend" stroke="black" x1="680" x2="730" y1="131.25" y2="131.25" /><path  class="poloto_line poloto1stroke" fill="none" stroke="black" d=" M 150.00 400.00 L 150.50 399.43 L 151.00 398.87 L 151.50 398.31 L 152.00 397.76 L 152.50 397.20 L 153.00 396.65 L 153.50 396.10 L 154.00 395.56 L 154.50 395.02 L 155.01 394.48 L 155.51 393.95 L 156.01 393.42 L 156.51 392.89 L 157.01 392.36 L 157.51 391.84 L 158.01 391.32 L 158.51 390.80 L 159.01 390.29 L 159.51 389.78 L 160.01 389.27 L 160.51 388.76 L 161.01 388.26 L 161.51 387.76 L 162.01 387.27 L 162.51 386.77 L 163.01 386.28 L 163.51 385.80 L 164.01 385.31 L 164.51 384.83 L 165.02 384.35 L 165.52 383.88 L 166.02 383.40 L 166.52 382.93 L 167.02 382.47 L 167.52 382.00 L 168.02 381.54 L 168.52 381.08 L 169.02 380.63 L 169.52 380.18 L 170.02 379.73 L 170.52 379.28 L 171.02 378.83 L 171.52 378.39 L 172.02 377.95 L 172.52 377.52 L 173.02 377.08 L 173.52 376.65 L 174.02 376.22 L 174.52 375.80 L 175.03 375.38 L 175.53 374.96 L 176.03 374.54 L 176.53 374.13 L 177.03 373.71 L 177.53 373.30 L 178.03 372.90 L 178.53 372.49 L 179.03 372.09 L 179.53 371.70 L 180.03 371.30 L 180.53 370.91 L 181.03 370.52 L 181.53 370.13 L 182.03 369.74 L 182.53 369.36 L 183.03 368.98 L 183.53 368.60 L 184.03 368.23 L 184.53 367.85 L 185.04 367.48 L 185.54 367.12 L 186.04 366.75 L 186.54 366.39 L 187.04 366.03 L 187.54 365.67 L 188.04 365.32 L 188.54 364.96 L 189.04 364.61 L 189.54 364.27 L 190.04 363.92 L 190.54 363.58 L 191.04 363.24 L 191.54 362.90 L 192.04 362.57 L 192.54 362.23 L 193.04 361.90 L 193.54 361.57 L 194.04 361.25 L 194.54 360.93 L 195.05 360.60 L 195.55 360.29 L 196.05 359.97 L 196.55 359.66 L 197.05 359.34 L 197.55 359.04 L 198.05 358.73 L 198.55 358.42 L 199.05 358.12 L 199.55 357.82 L 200.05 357.52 L 200.55 357.23 L 201.05 356.94 L 201.55 356.64 L 202.05 356.36 L 202.55 356.07 L 203.05 355.78 L 203.55 355.50 L 204.05 355.22 L 204.55 354.95 L 205.06 354.67 L 205.56 354.40 L 206.06 354.13 L 206.56 353.86 L 207.06 353.59 L 207.56 353.33 L 208.06 353.06 L 208.56 352.80 L 209.06 352.55 L 209.56 352.29 L 210.06 352.04 L 210.56 351.78 L 211.06 351.53 L 211.56 351.29 L 212.06 351.04 L 212.56 350.80 L 213.06 350.56 L 213.56 350.32 L 214.06 350.08 L 214.56 349.84 L 215.07 349.61 L 215.57 349.38 L 216.07 349.15 L 216.57 348.92 L 217.07 348.70 L 217.57 348.47 L 218.07 348.25 L 218.57 348.03 L 219.07 347.82 L 219.57 347.60 L 220.07 347.39 L 220.57 347.18 L 221.07 346.97 L 221.57 346.76 L 222.07 346.55 L 222.57 346.35 L 223.07 346.15 L 223.57 345.95 L 224.07 345.75 L 224.57 345.55 L 225.08 345.36 L 225.58 345.16 L 226.08 344.97 L 226.58 344.78 L 227.08 344.60 L 227.58 344.41 L 228.08 344.23 L 228.58 344.04 L 229.08 343.86 L 229.58 343.69 L 230.08 343.51 L 230.58 343.33 L 231.08 343.16 L 231.58 342.99 L 232.08 342.82 L 232.58 342.65 L 233.08 342.49 L 233.58 342.32 L 234.08 342.16 L 234.58 342.00 L 235.09 341.84 L 235.59 341.68 L 236.09 341.52 L 236.59 341.37 L 237.09 341.22 L 237.59 341.07 L 238.09 340.92 L 238.59 340.77 L 239.09 340.62 L 239.59 340.48 L 240.09 340.33 L 240.59 340.19 L 241.09 340.05 L 241.59 339.91 L 242.09 339.78 L 242.59 339.64 L 243.09 339.51 L 243.59 339.38 L 244.09 339.24 L 244.59 339.12 L 245.10 338.99 L 245.60 338.86 L 246.10 338.74 L 246.60 338.61 L 247.10 338.49 L 247.60 338.37 L 248.10 338.25 L 248.60 338.13 L 249.10 338.02 L 249.60 337.90 L 250.10 337.79 L 250.60 337.68 L 251.10 337.57 L 251.60 337.46 L 252.10 337.35 L 252.60 337.24 L 253.10 337.14 L 253.60 337.04 L 254.10 336.93 L 254.60 336.83 L 255.11 336.73 L 255.61 336.64 L 256.11 336.54 L 256.61 336.44 L 257.11 336.35 L 257.61 336.26 L 258.11 336.16 L 258.61 336.07 L 259.11 335.98 L 259.61 335.90 L 260.11 335.81 L 260.61 335.72 L 261.11 335.64 L 261.61 335.56 L 262.11 335.47 L 262.61 335.39 L 263.11 335.31 L 263.61 335.24 L 264.11 335.16 L 264.61 335.08 L 265.12 335.01 L 265.62 334.93 L 266.12 334.86 L 266.62 334.79 L 267.12 334.72 L 267.62 334.65 L 268.12 334.58 L 268.62 334.52 L 269.12 334.45 L 269.62 334.39 L 270.12 334.32 L 270.62 334.26 L 271.12 334.20 L 271.62 334.14 L 272.12 334.08 L 272.62 334.02 L 273.12 333.96 L 273.62 333.90 L 274.12 333.85 L 274.62 333.79 L 275.13 333.74 L 275.63 333.69 L 276.13 333.64 L 276.63 333.59 L 277.13 333.54 L 277.63 333.49 L 278.13 333.44 L 278.63 333.39 L 279.13 333.35 L 279.63 333.30 L 280.13 333.26 L 280.63 333.21 L 281.13 333.17 L 281.63 333.13 L 282.13 333.09 L 282.63 333.05 L 283.13 333.01 L 283.63 332.97 L 284.13 332.94 L 284.63 332.90 L 285.14 332.86 L 285.64 332.83 L 286.14 332.79 L 286.64 332.76 L 287.14 332.73 L 287.64 332.70 L 288.14 332.67 L 288.64 332.63 L 289.14 332.61 L 289.64 332.58 L 290.14 332.55 L 290.64 332.52 L 291.14 332.49 L 291.64 332.47 L 292.14 332.44 L 292.64 332.42 L 293.14 332.39 L 293.64 332.37 L 294.14 332.35 L 294.64 332.33 L 295.15 332.30 L 295.65 332.28 L 296.15 332.26 L 296.65 332.24 L 297.15 332.23 L 297.65 332.21 L 298.15 332.19 L 298.65 332.17 L 299.15 332.16 L 299.65 332.14 L 300.15 332.12 L 300.65 332.11 L 301.15 332.09 L 301.65 332.08 L 302.15 332.07 L 302.65 332.05 L 303.15 332.04 L 303.65 332.03 L 304.15 332.02 L 304.65 332.01 L 305.16 332.00 L 305.66 331.99 L 306.16 331.98 L 306.66 331.97 L 307.16 331.96 L 307.66 331.95 L 308.16 331.94 L 308.66 331.94 L 309.16 331.93 L 309.66 331.92 L 310.16 331.92 L 310.66 331.91 L 311.16 331.90 L 311.66 331.90 L 312.16 331.89 L 312.66 331.89 L 313.16 331.88 L 313.66 331.88 L 314.16 331.88 L 314.66 331.87 L 315.17 331.87 L 315.67 331.87 L 316.17 331.87 L 316.67 331.86 L 317.17 331.86 L 317.67 331.86 L 318.17 331.86 L 318.67 331.86 L 319.17 331.85 L 319.67 331.85 L 320.17 331.85 L 320.67 331.85 L 321.17 331.85 L 321.67 331.85 L 322.17 331.85 L 322.67 331.85 L 323.17 331.85 L 323.67 331.85 L 324.17 331.85 L 324.67 331.85 L 325.18 331.86 L 325.68 331.86 L 326.18 331.86 L 326.68 331.86 L 327.18 331.86 L 327.68 331.86 L 328.18 331.86 L 328.68 331.86 L 329.18 331.87 L 329.68 331.87 L 330.18 331.87 L 330.68 331.87 L 331.18 331.87 L 331.68 331.87 L 332.18 331.87 L 332.68 331.88 L 333.18 331.88 L 333.68 331.88 L 334.18 331.88 L 334.68 331.88 L 335.19 331.88 L 335.69 331.88 L 336.19 331.88 L 336.69 331.89 L 337.19 331.89 L 337.69 331.89 L 338.19 331.89 L 338.69 331.89 L 339.19 331.89 L 339.69 331.89 L 340.19 331.89 L 340.69 331.89 L 341.19 331.89 L 341.69 331.89 L 342.19 331.89 L 342.69 331.89 L 343.19 331.89 L 343.69 331.89 L 344.19 331.89 L 344.69 331.88 L 345.20 331.88 L 345.70 331.88 L 346.20 331.88 L 346.70 331.88 L 347.20 331.87 L 347.70 331.87 L 348.20 331.87 L 348.70 331.86 L 349.20 331.86 L 349.70 331.86 L 350.20 331.85 L 350.70 331.85 L 351.20 331.84 L 351.70 331.84 L 352.20 331.83 L 352.70 331.82 L 353.20 331.82 L 353.70 331.81 L 354.20 331.80 L 354.70 331.80 L 355.21 331.79 L 355.71 331.78 L 356.21 331.77 L 356.71 331.76 L 357.21 331.75 L 357.71 331.75 L 358.21 331.74 L 358.71 331.73 L 359.21 331.72 L 359.71 331.71 L 360.21 331.70 L 360.71 331.69 L 361.21 331.68 L 361.71 331.67 L 362.21 331.65 L 362.71 331.64 L 363.21 331.63 L 363.71 331.62 L 364.21 331.61 L 364.71 331.60 L 365.22 331.58 L 365.72 331.57 L 366.22 331.56 L 366.72 331.55 L 367.22 331.53 L 367.72 331.52 L 368.22 331.51 L 368.72 331.49 L 369.22 331.48 L 369.72 331.46 L 370.22 331.45 L 370.72 331.44 L 371.22 331.42 L 371.72 331.41 L 372.22 331.39 L 372.72 331.38 L 373.22 331.36 L 373.72 331.35 L 374.22 331.33 L 374.72 331.32 L 375.23 331.30 L 375.73 331.29 L 376.23 331.27 L 376.73 331.26 L 377.23 331.24 L 377.73 331.23 L 378.23 331.21 L 378.73 331.19 L 379.23 331.18 L 379.73 331.16 L 380.23 331.15 L 380.73 331.13 L 381.23 331.12 L 381.73 331.10 L 382.23 331.08 L 382.73 331.07 L 383.23 331.05 L 383.73 331.03 L 384.23 331.02 L 384.73 331.00 L 385.24 330.99 L 385.74 330.97 L 386.24 330.95 L 386.74 330.94 L 387.24 330.92 L 387.74 330.91 L 388.24 330.89 L 388.74 330.87 L 389.24 330.86 L 389.74 330.84 L 390.24 330.83 L 390.74 330.81 L 391.24 330.79 L 391.74 330.78 L 392.24 330.76 L 392.74 330.75 L 393.24 330.73 L 393.74 330.72 L 394.24 330.70 L 394.74 330.68 L 395.25 330.67 L 395.75 330.65 L 396.25 330.64 L 396.75 330.62 L 397.25 330.61 L 397.75 330.59 L 398.25 330.58 L 398.75 330.56 L 399.25 330.55 L 399.75 330.54 L 400.25 330.52 L 400.75 330.51 L 401.25 330.49 L 401.75 330.48 L 402.25 330.47 L 402.75 330.45 L 403.25 330.44 L 403.75 330.43 L 404.25 330.41 L 404.75 330.40 L 405.26 330.39 L 405.76 330.38 L 406.26 330.36 L 406.76 330.35 L 407.26 330.34 L 407.76 330.33 L 408.26 330.32 L 408.76 330.31 L 409.26 330.30 L 409.76 330.29 L 410.26 330.28 L 410.76 330.26 L 411.26 330.25 L 411.76 330.25 L 412.26 330.24 L 412.76 330.23 L 413.26 330.22 L 413.76 330.21 L 414.26 330.20 L 414.76 330.19 L 415.27 330.18 L 415.77 330.18 L 416.27 330.17 L 416.77 330.16 L 417.27 330.16 L 417.77 330.15 L 418.27 330.14 L 418.77 330.14 L 419.27 330.13 L 419.77 330.13 L 420.27 330.12 L 420.77 330.12 L 421.27 330.11 L 421.77 330.11 L 422.27 330.11 L 422.77 330.10 L 423.27 330.10 L 423.77 330.10 L 424.27 330.10 L 424.77 330.09 L 425.28 330.09 L 425.78 330.09 L 426.28 330.09 L 426.78 330.09 L 427.28 330.09 L 427.78 330.09 L 428.28 330.09 L 428.78 330.09 L 429.28 330.10 L 429.78 330.10 L 430.28 330.10 L 430.78 330.10 L 431.28 330.11 L 431.78 330.11 L 432.28 330.11 L 432.78 330.12 L 433.28 330.12 L 433.78 330.13 L 434.28 330.14 L 434.78 330.14 L 435.29 330.15 L 435.79 330.16 L 436.29 330.17 L 436.79 330.17 L 437.29 330.18 L 437.79 330.19 L 438.29 330.20 L 438.79 330.21 L 439.29 330.22 L 439.79 330.23 L 440.29 330.25 L 440.79 330.26 L 441.29 330.27 L 441.79 330.29 L 442.29 330.30 L 442.79 330.31 L 443.29 330.33 L 443.79 330.35 L 444.29 330.36 L 444.79 330.38 L 445.30 330.40 L 445.80 330.41 L 446.30 330.43 L 446.80 330.45 L 447.30 330.47 L 447.80 330.49 L 448.30 330.51 L 448.80 330.53 L 449.30 330.55 L 449.80 330.58 L 450.30 330.60 L 450.80 330.62 L 451.30 330.65 L 451.80 330.67 L 452.30 330.70 L 452.80 330.72 L 453.30 330.75 L 453.80 330.78 L 454.30 330.81 L 454.80 330.83 L 455.31 330.86 L 455.81 330.89 L 456.31 330.92 L 456.81 330.95 L 457.31 330.98 L 457.81 331.01 L 458.31 331.04 L 458.81 331.07 L 459.31 331.10 L 459.81 331.13 L 460.31 331.17 L 460.81 331.20 L 461.31 331.23 L 461.81 331.26 L 462.31 331.30 L 462.81 331.33 L 463.31 331.36 L 463.81 331.39 L 464.31 331.43 L 464.81 331.46 L 465.32 331.49 L 465.82 331.53 L 466.32 331.56 L 466.82 331.59 L 467.32 331.63 L 467.82 331.66 L 468.32 331.70 L 468.82 331.73 L 469.32 331.76 L 469.82 331.79 L 470.32 331.83 L 470.82 331.86 L 471.32 331.89 L 471.82 331.93 L 472.32 331.96 L 472.82 331.99 L 473.32 332.02 L 473.82 332.05 L 474.32 332.09 L 474.82 332.12 L 475.33 332.15 L 475.83 332.18 L 476.33 332.21 L 476.83 332.24 L 477.33 332.27 L 477.83 332.30 L 478.33 332.33 L 478.83 332.36 L 479.33 332.38 L 479.83 332.41 L 480.33 332.44 L 480.83 332.46 L 481.33 332.49 L 481.83 332.52 L 482.33 332.54 L 482.83 332.56 L 483.33 332.59 L 483.83 332.61 L 484.33 332.63 L 484.83 332.65 L 485.34 332.68 L 485.84 332.70 L 486.34 332.72 L 486.84 332.74 L 487.34 332.75 L 487.84 332.77 L 488.34 332.79 L 488.84 332.80 L 489.34 332.82 L 489.84 332.83 L 490.34 332.85 L 490.84 332.86 L 491.34 332.87 L 491.84 332.88 L 492.34 332.89 L 492.84 332.90 L 493.34 332.91 L 493.84 332.91 L 494.34 332.92 L 494.84 332.92 L 495.35 332.93 L 495.85 332.93 L 496.35 332.93 L 496.85 332.93 L 497.35 332.93 L 497.85 332.93 L 498.35 332.93 L 498.85 332.92 L 499.35 332.92 L 499.85 332.91 L 500.35 332.91 L 500.85 332.90 L 501.35 332.89 L 501.85 332.88 L 502.35 332.86 L 502.85 332.85 L 503.35 332.83 L 503.85 332.82 L 504.35 332.80 L 504.85 332.78 L 505.36 332.76 L 505.86 332.74 L 506.36 332.71 L 506.86 332.69 L 507.36 332.66 L 507.86 332.63 L 508.36 332.60 L 508.86 332.57 L 509.36 332.54 L 509.86 332.50 L 510.36 332.47 L 510.86 332.43 L 511.36 332.39 L 511.86 332.35 L 512.36 332.31 L 512.86 332.26 L 513.36 332.22 L 513.86 332.17 L 514.36 332.12 L 514.86 332.07 L 515.37 332.02 L 515.87 331.96 L 516.37 331.91 L 516.87 331.85 L 517.37 331.79 L 517.87 331.72 L 518.37 331.66 L 518.87 331.60 L 519.37 331.53 L 519.87 331.46 L 520.37 331.39 L 520.87 331.31 L 521.37 331.24 L 521.87 331.16 L 522.37 331.08 L 522.87 331.00 L 523.37 330.91 L 523.87 330.83 L 524.37 330.74 L 524.87 330.65 L 525.38 330.56 L 525.88 330.46 L 526.38 330.36 L 526.88 330.27 L 527.38 330.16 L 527.88 330.06 L 528.38 329.96 L 528.88 329.85 L 529.38 329.74 L 529.88 329.62 L 530.38 329.51 L 530.88 329.39 L 531.38 329.27 L 531.88 329.15 L 532.38 329.03 L 532.88 328.90 L 533.38 328.77 L 533.88 328.64 L 534.38 328.50 L 534.88 328.37 L 535.39 328.23 L 535.89 328.09 L 536.39 327.94 L 536.89 327.79 L 537.39 327.65 L 537.89 327.49 L 538.39 327.34 L 538.89 327.18 L 539.39 327.02 L 539.89 326.86 L 540.39 326.69 L 540.89 326.52 L 541.39 326.35 L 541.89 326.18 L 542.39 326.00 L 542.89 325.82 L 543.39 325.64 L 543.89 325.46 L 544.39 325.27 L 544.89 325.08 L 545.40 324.88 L 545.90 324.69 L 546.40 324.49 L 546.90 324.29 L 547.40 324.08 L 547.90 323.87 L 548.40 323.66 L 548.90 323.45 L 549.40 323.23 L 549.90 323.01 L 550.40 322.78 L 550.90 322.56 L 551.40 322.33 L 551.90 322.10 L 552.40 321.86 L 552.90 321.62 L 553.40 321.38 L 553.90 321.13 L 554.40 320.88 L 554.90 320.63 L 555.41 320.38 L 555.91 320.12 L 556.41 319.86 L 556.91 319.59 L 557.41 319.32 L 557.91 319.05 L 558.41 318.77 L 558.91 318.50 L 559.41 318.21 L 559.91 317.93 L 560.41 317.64 L 560.91 317.35 L 561.41 317.05 L 561.91 316.75 L 562.41 316.45 L 562.91 316.14 L 563.41 315.83 L 563.91 315.52 L 564.41 315.20 L 564.91 314.88 L 565.42 314.56 L 565.92 314.23 L 566.42 313.90 L 566.92 313.56 L 567.42 313.22 L 567.92 312.88 L 568.42 312.53 L 568.92 312.18 L 569.42 311.83 L 569.92 311.47 L 570.42 311.11 L 570.92 310.74 L 571.42 310.37 L 571.92 310.00 L 572.42 309.62 L 572.92 309.24 L 573.42 308.86 L 573.92 308.47 L 574.42 308.07 L 574.92 307.68 L 575.43 307.28 L 575.93 306.87 L 576.43 306.46 L 576.93 306.05 L 577.43 305.63 L 577.93 305.21 L 578.43 304.79 L 578.93 304.36 L 579.43 303.92 L 579.93 303.48 L 580.43 303.04 L 580.93 302.60 L 581.43 302.15 L 581.93 301.69 L 582.43 301.23 L 582.93 300.77 L 583.43 300.30 L 583.93 299.83 L 584.43 299.35 L 584.93 298.87 L 585.44 298.39 L 585.94 297.90 L 586.44 297.40 L 586.94 296.91 L 587.44 296.40 L 587.94 295.90 L 588.44 295.39 L 588.94 294.87 L 589.44 294.35 L 589.94 293.82 L 590.44 293.29 L 590.94 292.76 L 591.44 292.22 L 591.94 291.68 L 592.44 291.13 L 592.94 290.58 L 593.44 290.02 L 593.94 289.46 L 594.44 288.89 L 594.94 288.32 L 595.45 287.74 L 595.95 287.16 L 596.45 286.58 L 596.95 285.99 L 597.45 285.39 L 597.95 284.79 L 598.45 284.18 L 598.95 283.57 L 599.45 282.96 L 599.95 282.34 L 600.45 281.72 L 600.95 281.09 L 601.45 280.45 L 601.95 279.81 L 602.45 279.17 L 602.95 278.52 L 603.45 277.86 L 603.95 277.20 L 604.45 276.54 L 604.95 275.87 L 605.46 275.19 L 605.96 274.51 L 606.46 273.83 L 606.96 273.14 L 607.46 272.44 L 607.96 271.74 L 608.46 271.03 L 608.96 270.32 L 609.46 269.61 L 609.96 268.88 L 610.46 268.16 L 610.96 267.43 L 611.46 266.69 L 611.96 265.94 L 612.46 265.20 L 612.96 264.44 L 613.46 263.68 L 613.96 262.92 L 614.46 262.15 L 614.96 261.37 L 615.47 260.59 L 615.97 259.80 L 616.47 259.01 L 616.97 258.21 L 617.47 257.41 L 617.97 256.60 L 618.47 255.79 L 618.97 254.97 L 619.47 254.14 L 619.97 253.31 L 620.47 252.47 L 620.97 251.63 L 621.47 250.78 L 621.97 249.93 L 622.47 249.07 L 622.97 248.20 L 623.47 247.33 L 623.97 246.45 L 624.47 245.57 L 624.97 244.68 L 625.48 243.79 L 625.98 242.89 L 626.48 241.98 L 626.98 241.07 L 627.48 240.15 L 627.98 239.22 L 628.48 238.29 L 628.98 237.36 L 629.48 236.42 L 629.98 235.47 L 630.48 234.51 L 630.98 233.55 L 631.48 232.59 L 631.98 231.61 L 632.48 230.64 L 632.98 229.65 L 633.48 228.66 L 633.98 227.66 L 634.48 226.66 L 634.98 225.65 L 635.49 224.63 L 635.99 223.61 L 636.49 222.58 L 636.99 221.55 L 637.49 220.51 L 637.99 219.46 L 638.49 218.41 L 638.99 217.35 L 639.49 216.28 L 639.99 215.21 L 640.49 214.13 L 640.99 213.04 L 641.49 211.95 L 641.99 210.85 L 642.49 209.75 L 642.99 208.64 L 643.49 207.52 L 643.99 206.40 L 644.49 205.26 L 645.00 204.13 L 645.50 202.98 L 646.00 201.83 L 646.50 200.68 L 647.00 199.51 L 647.50 198.34 L 648.00 197.16 L 648.50 195.98 L 649.00 194.79 L 649.50 193.59 L 650.00 192.39" /><text  class="poloto_text poloto_legend_text" x="675" y="200" >derivative 1</text><line  class="poloto_line poloto_legend_icon poloto2stroke poloto2legend" stroke="black" x1="680" x2="730" y1="181.25" y2="181.25" /><path  class="poloto_line poloto2stroke" fill="none" stroke="black" d=" M 150.00 228.06 L 150.50 228.69 L 151.00 229.32 L 151.50 229.94 L 152.00 230.56 L 152.50 231.18 L 153.00 231.80 L 153.50 232.42 L 154.00 233.03 L 154.50 233.65 L 155.01 234.26 L 155.51 234.87 L 156.01 235.48 L 156.51 236.09 L 157.01 236.69 L 157.51 237.29 L 158.01 237.89 L 158.51 238.49 L 159.01 239.09 L 159.51 239.69 L 160.01 240.28 L 160.51 240.88 L 161.01 241.47 L 161.51 242.06 L 162.01 242.64 L 162.51 243.23 L 163.01 243.81 L 163.51 244.40 L 164.01 244.98 L 164.51 245.56 L 165.02 246.13 L 165.52 246.71 L 166.02 247.28 L 166.52 247.85 L 167.02 248.42 L 167.52 248.99 L 168.02 249.56 L 168.52 250.12 L 169.02 250.69 L 169.52 251.25 L 170.02 251.81 L 170.52 252.37 L 171.02 252.92 L 171.52 253.48 L 172.02 254.03 L 172.52 254.58 L 173.02 255.13 L 173.52 255.68 L 174.02 256.23 L 174.52 256.77 L 175.03 257.31 L 175.53 257.85 L 176.03 258.39 L 176.53 258.93 L 177.03 259.46 L 177.53 260.00 L 178.03 260.53 L 178.53 261.06 L 179.03 261.59 L 179.53 262.12 L 180.03 262.64 L 180.53 263.16 L 181.03 263.69 L 181.53 264.21 L 182.03 264.72 L 182.53 265.24 L 183.03 265.76 L 183.53 266.27 L 184.03 266.78 L 184.53 267.29 L 185.04 267.80 L 185.54 268.30 L 186.04 268.81 L 186.54 269.31 L 187.04 269.81 L 187.54 270.31 L 188.04 270.81 L 188.54 271.30 L 189.04 271.80 L 189.54 272.29 L 190.04 272.78 L 190.54 273.27 L 191.04 273.76 L 191.54 274.24 L 192.04 274.72 L 192.54 275.21 L 193.04 275.69 L 193.54 276.16 L 194.04 276.64 L 194.54 277.12 L 195.05 277.59 L 195.55 278.06 L 196.05 278.53 L 196.55 279.00 L 197.05 279.46 L 197.55 279.93 L 198.05 280.39 L 198.55 280.85 L 199.05 281.31 L 199.55 281.77 L 200.05 282.22 L 200.55 282.68 L 201.05 283.13 L 201.55 283.58 L 202.05 284.03 L 202.55 284.48 L 203.05 284.92 L 203.55 285.36 L 204.05 285.81 L 204.55 286.25 L 205.06 286.69 L 205.56 287.12 L 206.06 287.56 L 206.56 287.99 L 207.06 288.42 L 207.56 288.85 L 208.06 289.28 L 208.56 289.71 L 209.06 290.13 L 209.56 290.55 L 210.06 290.97 L 210.56 291.39 L 211.06 291.81 L 211.56 292.23 L 212.06 292.64 L 212.56 293.05 L 213.06 293.46 L 213.56 293.87 L 214.06 294.28 L 214.56 294.68 L 215.07 295.09 L 215.57 295.49 L 216.07 295.89 L 216.57 296.29 L 217.07 296.69 L 217.57 297.08 L 218.07 297.47 L 218.57 297.87 L 219.07 298.26 L 219.57 298.64 L 220.07 299.03 L 220.57 299.41 L 221.07 299.80 L 221.57 300.18 L 222.07 300.56 L 222.57 300.93 L 223.07 301.31 L 223.57 301.69 L 224.07 302.06 L 224.57 302.43 L 225.08 302.80 L 225.58 303.16 L 226.08 303.53 L 226.58 303.89 L 227.08 304.26 L 227.58 304.62 L 228.08 304.97 L 228.58 305.33 L 229.08 305.69 L 229.58 306.04 L 230.08 306.39 L 230.58 306.74 L 231.08 307.09 L 231.58 307.44 L 232.08 307.78 L 232.58 308.12 L 233.08 308.46 L 233.58 308.80 L 234.08 309.14 L 234.58 309.48 L 235.09 309.81 L 235.59 310.14 L 236.09 310.48 L 236.59 310.80 L 237.09 311.13 L 237.59 311.46 L 238.09 311.78 L 238.59 312.10 L 239.09 312.42 L 239.59 312.74 L 240.09 313.06 L 240.59 313.37 L 241.09 313.69 L 241.59 314.00 L 242.09 314.31 L 242.59 314.62 L 243.09 314.92 L 243.59 315.23 L 244.09 315.53 L 244.59 315.83 L 245.10 316.13 L 245.60 316.43 L 246.10 316.73 L 246.60 317.02 L 247.10 317.31 L 247.60 317.61 L 248.10 317.89 L 248.60 318.18 L 249.10 318.47 L 249.60 318.75 L 250.10 319.03 L 250.60 319.31 L 251.10 319.59 L 251.60 319.87 L 252.10 320.14 L 252.60 320.42 L 253.10 320.69 L 253.60 320.96 L 254.10 321.23 L 254.60 321.50 L 255.11 321.76 L 255.61 322.02 L 256.11 322.28 L 256.61 322.54 L 257.11 322.80 L 257.61 323.06 L 258.11 323.31 L 258.61 323.57 L 259.11 323.82 L 259.61 324.07 L 260.11 324.31 L 260.61 324.56 L 261.11 324.80 L 261.61 325.05 L 262.11 325.29 L 262.61 325.53 L 263.11 325.76 L 263.61 326.00 L 264.11 326.23 L 264.61 326.46 L 265.12 326.69 L 265.62 326.92 L 266.12 327.15 L 266.62 327.37 L 267.12 327.60 L 267.62 327.82 L 268.12 328.04 L 268.62 328.26 L 269.12 328.47 L 269.62 328.69 L 270.12 328.90 L 270.62 329.11 L 271.12 329.32 L 271.62 329.53 L 272.12 329.73 L 272.62 329.94 L 273.12 330.14 L 273.62 330.34 L 274.12 330.54 L 274.62 330.74 L 275.13 330.93 L 275.63 331.13 L 276.13 331.32 L 276.63 331.51 L 277.13 331.70 L 277.63 331.88 L 278.13 332.07 L 278.63 332.25 L 279.13 332.43 L 279.63 332.61 L 280.13 332.79 L 280.63 332.97 L 281.13 333.14 L 281.63 333.32 L 282.13 333.49 L 282.63 333.66 L 283.13 333.82 L 283.63 333.99 L 284.13 334.15 L 284.63 334.32 L 285.14 334.48 L 285.64 334.64 L 286.14 334.79 L 286.64 334.95 L 287.14 335.10 L 287.64 335.26 L 288.14 335.41 L 288.64 335.55 L 289.14 335.70 L 289.64 335.85 L 290.14 335.99 L 290.64 336.13 L 291.14 336.27 L 291.64 336.41 L 292.14 336.55 L 292.64 336.68 L 293.14 336.81 L 293.64 336.94 L 294.14 337.07 L 294.64 337.20 L 295.15 337.33 L 295.65 337.45 L 296.15 337.58 L 296.65 337.70 L 297.15 337.82 L 297.65 337.93 L 298.15 338.05 L 298.65 338.16 L 299.15 338.27 L 299.65 338.38 L 300.15 338.49 L 300.65 338.60 L 301.15 338.71 L 301.65 338.81 L 302.15 338.91 L 302.65 339.01 L 303.15 339.11 L 303.65 339.21 L 304.15 339.30 L 304.65 339.39 L 305.16 339.49 L 305.66 339.57 L 306.16 339.66 L 306.66 339.75 L 307.16 339.83 L 307.66 339.92 L 308.16 340.00 L 308.66 340.08 L 309.16 340.15 L 309.66 340.23 L 310.16 340.30 L 310.66 340.38 L 311.16 340.45 L 311.66 340.52 L 312.16 340.58 L 312.66 340.65 L 313.16 340.71 L 313.66 340.77 L 314.16 340.83 L 314.66 340.89 L 315.17 340.95 L 315.67 341.00 L 316.17 341.06 L 316.67 341.11 L 317.17 341.16 L 317.67 341.21 L 318.17 341.25 L 318.67 341.30 L 319.17 341.34 L 319.67 341.38 L 320.17 341.42 L 320.67 341.46 L 321.17 341.49 L 321.67 341.53 L 322.17 341.56 L 322.67 341.59 L 323.17 341.62 L 323.67 341.65 L 324.17 341.67 L 324.67 341.70 L 325.18 341.72 L 325.68 341.74 L 326.18 341.76 L 326.68 341.77 L 327.18 341.79 L 327.68 341.80 L 328.18 341.81 L 328.68 341.82 L 329.18 341.83 L 329.68 341.84 L 330.18 341.84 L 330.68 341.84 L 331.18 341.85 L 331.68 341.85 L 332.18 341.84 L 332.68 341.84 L 333.18 341.83 L 333.68 341.83 L 334.18 341.82 L 334.68 341.81 L 335.19 341.79 L 335.69 341.78 L 336.19 341.76 L 336.69 341.74 L 337.19 341.72 L 337.69 341.70 L 338.19 341.68 L 338.69 341.65 L 339.19 341.63 L 339.69 341.60 L 340.19 341.57 L 340.69 341.54 L 341.19 341.50 L 341.69 341.47 L 342.19 341.43 L 342.69 341.39 L 343.19 341.35 L 343.69 341.31 L 344.19 341.27 L 344.69 341.22 L 345.20 341.17 L 345.70 341.12 L 346.20 341.07 L 346.70 341.02 L 347.20 340.97 L 347.70 340.91 L 348.20 340.85 L 348.70 340.79 L 349.20 340.73 L 349.70 340.67 L 350.20 340.60 L 350.70 340.54 L 351.20 340.47 L 351.70 340.41 L 352.20 340.35 L 352.70 340.29 L 353.20 340.23 L 353.70 340.17 L 354.20 340.11 L 354.70 340.05 L 355.21 339.99 L 355.71 339.94 L 356.21 339.88 L 356.71 339.83 L 357.21 339.78 L 357.71 339.72 L 358.21 339.67 L 358.71 339.62 L 359.21 339.57 L 359.71 339.53 L 360.21 339.48 L 360.71 339.43 L 361.21 339.39 L 361.71 339.34 L 362.21 339.30 L 362.71 339.26 L 363.21 339.21 L 363.71 339.17 L 364.21 339.13 L 364.71 339.09 L 365.22 339.06 L 365.72 339.02 L 366.22 338.98 L 366.72 338.95 L 367.22 338.91 L 367.72 338.88 L 368.22 338.85 L 368.72 338.82 L 369.22 338.79 L 369.72 338.76 L 370.22 338.73 L 370.72 338.70 L 371.22 338.67 L 371.72 338.65 L 372.22 338.62 L 372.72 338.60 L 373.22 338.58 L 373.72 338.55 L 374.22 338.53 L 374.72 338.51 L 375.23 338.49 L 375.73 338.48 L 376.23 338.46 L 376.73 338.44 L 377.23 338.43 L 377.73 338.41 L 378.23 338.40 L 378.73 338.39 L 379.23 338.37 L 379.73 338.36 L 380.23 338.35 L 380.73 338.34 L 381.23 338.34 L 381.73 338.33 L 382.23 338.32 L 382.73 338.32 L 383.23 338.31 L 383.73 338.31 L 384.23 338.31 L 384.73 338.31 L 385.24 338.31 L 385.74 338.31 L 386.24 338.31 L 386.74 338.31 L 387.24 338.31 L 387.74 338.32 L 388.24 338.32 L 388.74 338.33 L 389.24 338.34 L 389.74 338.34 L 390.24 338.35 L 390.74 338.36 L 391.24 338.37 L 391.74 338.39 L 392.24 338.40 L 392.74 338.41 L 393.24 338.43 L 393.74 338.44 L 394.24 338.46 L 394.74 338.48 L 395.25 338.49 L 395.75 338.51 L 396.25 338.53 L 396.75 338.55 L 397.25 338.58 L 397.75 338.60 L 398.25 338.62 L 398.75 338.65 L 399.25 338.67 L 399.75 338.70 L 400.25 338.73 L 400.75 338.76 L 401.25 338.79 L 401.75 338.82 L 402.25 338.85 L 402.75 338.88 L 403.25 338.91 L 403.75 338.95 L 404.25 338.98 L 404.75 339.02 L 405.26 339.06 L 405.76 339.09 L 406.26 339.13 L 406.76 339.17 L 407.26 339.21 L 407.76 339.26 L 408.26 339.30 L 408.76 339.34 L 409.26 339.39 L 409.76 339.43 L 410.26 339.48 L 410.76 339.53 L 411.26 339.57 L 411.76 339.62 L 412.26 339.67 L 412.76 339.72 L 413.26 339.78 L 413.76 339.83 L 414.26 339.88 L 414.76 339.94 L 415.27 339.99 L 415.77 340.05 L 416.27 340.11 L 416.77 340.17 L 417.27 340.23 L 417.77 340.29 L 418.27 340.35 L 418.77 340.41 L 419.27 340.47 L 419.77 340.54 L 420.27 340.60 L 420.77 340.67 L 421.27 340.74 L 421.77 340.80 L 422.27 340.87 L 422.77 340.94 L 423.27 341.01 L 423.77 341.09 L 424.27 341.16 L 424.77 341.23 L 425.28 341.31 L 425.78 341.38 L 426.28 341.46 L 426.78 341.54 L 427.28 341.61 L 427.78 341.69 L 428.28 341.77 L 428.78 341.86 L 429.28 341.94 L 429.78 342.02 L 430.28 342.10 L 430.78 342.19 L 431.28 342.27 L 431.78 342.36 L 432.28 342.45 L 432.78 342.54 L 433.28 342.63 L 433.78 342.72 L 434.28 342.81 L 434.78 342.90 L 435.29 343.00 L 435.79 343.09 L 436.29 343.18 L 436.79 343.28 L 437.29 343.38 L 437.79 343.48 L 438.29 343.57 L 438.79 343.67 L 439.29 343.78 L 439.79 343.88 L 440.29 343.98 L 440.79 344.08 L 441.29 344.19 L 441.79 344.29 L 442.29 344.40 L 442.79 344.51 L 443.29 344.62 L 443.79 344.73 L 444.29 344.84 L 444.79 344.95 L 445.30 345.06 L 445.80 345.17 L 446.30 345.29 L 446.80 345.40 L 447.30 345.52 L 447.80 345.63 L 448.30 345.75 L 448.80 345.87 L 449.30 345.99 L 449.80 346.11 L 450.30 346.23 L 450.80 346.35 L 451.30 346.47 L 451.80 346.58 L 452.30 346.69 L 452.80 346.79 L 453.30 346.90 L 453.80 346.99 L 454.30 347.09 L 454.80 347.18 L 455.31 347.26 L 455.81 347.35 L 456.31 347.43 L 456.81 347.50 L 457.31 347.57 L 457.81 347.64 L 458.31 347.71 L 458.81 347.77 L 459.31 347.83 L 459.81 347.88 L 460.31 347.93 L 460.81 347.97 L 461.31 348.02 L 461.81 348.06 L 462.31 348.09 L 462.81 348.12 L 463.31 348.15 L 463.81 348.17 L 464.31 348.19 L 464.81 348.21 L 465.32 348.22 L 465.82 348.23 L 466.32 348.24 L 466.82 348.24 L 467.32 348.23 L 467.82 348.23 L 468.32 348.22 L 468.82 348.21 L 469.32 348.19 L 469.82 348.17 L 470.32 348.14 L 470.82 348.12 L 471.32 348.08 L 471.82 348.05 L 472.32 348.01 L 472.82 347.97 L 473.32 347.92 L 473.82 347.87 L 474.32 347.82 L 474.82 347.76 L 475.33 347.70 L 475.83 347.63 L 476.33 347.56 L 476.83 347.49 L 477.33 347.41 L 477.83 347.33 L 478.33 347.25 L 478.83 347.16 L 479.33 347.07 L 479.83 346.98 L 480.33 346.88 L 480.83 346.78 L 481.33 346.67 L 481.83 346.56 L 482.33 346.45 L 482.83 346.33 L 483.33 346.21 L 483.83 346.08 L 484.33 345.96 L 484.83 345.82 L 485.34 345.69 L 485.84 345.55 L 486.34 345.41 L 486.84 345.26 L 487.34 345.11 L 487.84 344.96 L 488.34 344.80 L 488.84 344.64 L 489.34 344.47 L 489.84 344.30 L 490.34 344.13 L 490.84 343.95 L 491.34 343.77 L 491.84 343.59 L 492.34 343.40 L 492.84 343.21 L 493.34 343.02 L 493.84 342.82 L 494.34 342.62 L 494.84 342.41 L 495.35 342.20 L 495.85 341.99 L 496.35 341.77 L 496.85 341.55 L 497.35 341.32 L 497.85 341.10 L 498.35 340.86 L 498.85 340.63 L 499.35 340.39 L 499.85 340.15 L 500.35 339.90 L 500.85 339.65 L 501.35 339.40 L 501.85 339.14 L 502.35 338.88 L 502.85 338.61 L 503.35 338.34 L 503.85 338.07 L 504.35 337.79 L 504.85 337.51 L 505.36 337.23 L 505.86 336.94 L 506.36 336.65 L 506.86 336.36 L 507.36 336.06 L 507.86 335.76 L 508.36 335.45 L 508.86 335.14 L 509.36 334.83 L 509.86 334.51 L 510.36 334.19 L 510.86 333.86 L 511.36 333.54 L 511.86 333.20 L 512.36 332.87 L 512.86 332.53 L 513.36 332.19 L 513.86 331.84 L 514.36 331.49 L 514.86 331.14 L 515.37 330.78 L 515.87 330.42 L 516.37 330.05 L 516.87 329.68 L 517.37 329.31 L 517.87 328.93 L 518.37 328.55 L 518.87 328.17 L 519.37 327.78 L 519.87 327.39 L 520.37 327.00 L 520.87 326.60 L 521.37 326.19 L 521.87 325.79 L 522.37 325.38 L 522.87 324.97 L 523.37 324.55 L 523.87 324.13 L 524.37 323.70 L 524.87 323.28 L 525.38 322.84 L 525.88 322.41 L 526.38 321.97 L 526.88 321.53 L 527.38 321.08 L 527.88 320.63 L 528.38 320.17 L 528.88 319.72 L 529.38 319.25 L 529.88 318.79 L 530.38 318.32 L 530.88 317.85 L 531.38 317.37 L 531.88 316.89 L 532.38 316.41 L 532.88 315.92 L 533.38 315.43 L 533.88 314.93 L 534.38 314.44 L 534.88 313.93 L 535.39 313.43 L 535.89 312.92 L 536.39 312.40 L 536.89 311.89 L 537.39 311.37 L 537.89 310.84 L 538.39 310.31 L 538.89 309.78 L 539.39 309.25 L 539.89 308.71 L 540.39 308.16 L 540.89 307.62 L 541.39 307.07 L 541.89 306.51 L 542.39 305.95 L 542.89 305.39 L 543.39 304.83 L 543.89 304.26 L 544.39 303.69 L 544.89 303.11 L 545.40 302.53 L 545.90 301.95 L 546.40 301.36 L 546.90 300.77 L 547.40 300.17 L 547.90 299.57 L 548.40 298.97 L 548.90 298.37 L 549.40 297.76 L 549.90 297.14 L 550.40 296.53 L 550.90 295.90 L 551.40 295.28 L 551.90 294.65 L 552.40 294.02 L 552.90 293.38 L 553.40 292.74 L 553.90 292.10 L 554.40 291.46 L 554.90 290.80 L 555.41 290.15 L 555.91 289.49 L 556.41 288.83 L 556.91 288.17 L 557.41 287.50 L 557.91 286.82 L 558.41 286.15 L 558.91 285.47 L 559.41 284.78 L 559.91 284.10 L 560.41 283.41 L 560.91 282.71 L 561.41 282.01 L 561.91 281.31 L 562.41 280.60 L 562.91 279.89 L 563.41 279.18 L 563.91 278.46 L 564.41 277.74 L 564.91 277.02 L 565.42 276.29 L 565.92 275.56 L 566.42 274.82 L 566.92 274.08 L 567.42 273.34 L 567.92 272.59 L 568.42 271.84 L 568.92 271.09 L 569.42 270.33 L 569.92 269.57 L 570.42 268.80 L 570.92 268.03 L 571.42 267.26 L 571.92 266.48 L 572.42 265.70 L 572.92 264.92 L 573.42 264.13 L 573.92 263.34 L 574.42 262.55 L 574.92 261.75 L 575.43 260.95 L 575.93 260.14 L 576.43 259.33 L 576.93 258.52 L 577.43 257.70 L 577.93 256.88 L 578.43 256.05 L 578.93 255.23 L 579.43 254.39 L 579.93 253.56 L 580.43 252.72 L 580.93 251.88 L 581.43 251.03 L 581.93 250.18 L 582.43 249.32 L 582.93 248.47 L 583.43 247.60 L 583.93 246.74 L 584.43 245.87 L 584.93 245.00 L 585.44 244.12 L 585.94 243.24 L 586.44 242.36 L 586.94 241.47 L 587.44 240.58 L 587.94 239.68 L 588.44 238.79 L 588.94 237.88 L 589.44 236.98 L 589.94 236.07 L 590.44 235.15 L 590.94 234.24 L 591.44 233.32 L 591.94 232.39 L 592.44 231.46 L 592.94 230.53 L 593.44 229.59 L 593.94 228.66 L 594.44 227.71 L 594.94 226.77 L 595.45 225.81 L 595.95 224.86 L 596.45 223.90 L 596.95 222.94 L 597.45 221.98 L 597.95 221.01 L 598.45 220.03 L 598.95 219.06 L 599.45 218.08 L 599.95 217.09 L 600.45 216.11 L 600.95 215.11 L 601.45 214.12 L 601.95 213.12 L 602.45 212.12 L 602.95 211.11 L 603.45 210.10 L 603.95 209.09 L 604.45 208.07 L 604.95 207.05 L 605.46 206.03 L 605.96 205.00 L 606.46 203.97 L 606.96 202.93 L 607.46 201.89 L 607.96 200.85 L 608.46 199.80 L 608.96 198.75 L 609.46 197.70 L 609.96 196.64 L 610.46 195.58 L 610.96 194.51 L 611.46 193.44 L 611.96 192.37 L 612.46 191.29 L 612.96 190.21 L 613.46 189.13 L 613.96 188.04 L 614.46 186.95 L 614.96 185.86 L 615.47 184.76 L 615.97 183.65 L 616.47 182.55 L 616.97 181.44 L 617.47 180.32 L 617.97 179.21 L 618.47 178.09 L 618.97 176.96 L 619.47 175.83 L 619.97 174.70 L 620.47 173.57 L 620.97 172.43 L 621.47 171.28 L 621.97 170.14 L 622.47 168.99 L 622.97 167.83 L 623.47 166.67 L 623.97 165.51 L 624.47 164.35 L 624.97 163.18 L 625.48 162.00 L 625.98 160.83 L 626.48 159.65 L 626.98 158.46 L 627.48 157.28 L 627.98 156.08 L 628.48 154.89 L 628.98 153.69 L 629.48 152.49 L 629.98 151.28 L 630.48 150.07 L 630.98 148.86 L 631.48 147.64 L 631.98 146.42 L 632.48 145.20 L 632.98 143.97 L 633.48 142.74 L 633.98 141.50 L 634.48 140.26 L 634.98 139.02 L 635.49 137.77 L 635.99 136.52 L 636.49 135.27 L 636.99 134.01 L 637.49 132.75 L 637.99 131.48 L 638.49 130.21 L 638.99 128.94 L 639.49 127.66 L 639.99 126.38 L 640.49 125.10 L 640.99 123.81 L 641.49 122.52 L 641.99 121.22 L 642.49 119.93 L 642.99 118.62 L 643.49 117.32 L 643.99 116.01 L 644.49 114.69 L 645.00 113.38 L 645.50 112.06 L 646.00 110.73 L 646.50 109.40 L 647.00 108.07 L 647.50 106.73 L 648.00 105.39 L 648.50 104.05 L 649.00 102.70 L 649.50 101.35 L 650.00 100.00" /><text  class="poloto_labels poloto_text poloto_title" x="400" y="37.5" >bspline example 3 a</text><text  class="poloto_labels poloto_text poloto_xname" x="400" y="481.25" >x</text><text  class="poloto_labels poloto_text poloto_yname" transform="rotate(-90,37.5,250)" x="37.5" y="250" >y</text><text  class="poloto_tick_labels poloto_text" dominant-baseline="middle" text-anchor="start" x="150" y="70" ></text><line  class="poloto_axis_lines" stroke="black" x1="150" x2="144" y1="341.5415396721852" y2="341.5415396721852" /><text  class="poloto_tick_labels poloto_text" dominant-baseline="middle" text-anchor="end" x="135" y="341.5415396721852" >0</text><line  class="poloto_axis_lines" stroke="black" x1="150" x2="144" y1="266.51464177771595" y2="266.51464177771595" /><text  class="poloto_tick_labels poloto_text" dominant-baseline="middle" text-anchor="end" x="135" y="266.51464177771595" >20</text><line  class="poloto_axis_lines" stroke="black" x1="150" x2="144" y1="191.4877438832467" y2="191.4877438832467" /><text  class="poloto_tick_labels poloto_text" dominant-baseline="middle" text-anchor="end" x="135" y="191.4877438832467" >40</text><line  class="poloto_axis_lines" stroke="black" x1="150" x2="144" y1="116.46084598877746" y2="116.46084598877746" /><text  class="poloto_tick_labels poloto_text" dominant-baseline="middle" text-anchor="end" x="135" y="116.46084598877746" >60</text><text  class="poloto_tick_labels poloto_text" dominant-baseline="middle" text-anchor="start" x="440.00000000000006" y="70" ></text><line  class="poloto_axis_lines" stroke="black" x1="150" x2="150" y1="400" y2="405" /><text  class="poloto_tick_labels poloto_text" dominant-baseline="start" text-anchor="middle" x="150" y="430" >0.0</text><line  class="poloto_axis_lines" stroke="black" x1="200.0500511967515" x2="200.0500511967515" y1="400" y2="405" /><text  class="poloto_tick_labels poloto_text" dominant-baseline="start" text-anchor="middle" x="200.0500511967515" y="430" >0.5</text><line  class="poloto_axis_lines" stroke="black" x1="250.10010239350302" x2="250.10010239350302" y1="400" y2="405" /><text  class="poloto_tick_labels poloto_text" dominant-baseline="start" text-anchor="middle" x="250.10010239350302" y="430" >1.0</text><line  class="poloto_axis_lines" stroke="black" x1="300.15015359025455" x2="300.15015359025455" y1="400" y2="405" /><text  class="poloto_tick_labels poloto_text" dominant-baseline="start" text-anchor="middle" x="300.15015359025455" y="430" >1.5</text><line  class="poloto_axis_lines" stroke="black" x1="350.20020478700604" x2="350.20020478700604" y1="400" y2="405" /><text  class="poloto_tick_labels poloto_text" dominant-baseline="start" text-anchor="middle" x="350.20020478700604" y="430" >2.0</text><line  class="poloto_axis_lines" stroke="black" x1="400.25025598375754" x2="400.25025598375754" y1="400" y2="405" /><text  class="poloto_tick_labels poloto_text" dominant-baseline="start" text-anchor="middle" x="400.25025598375754" y="430" >2.5</text><line  class="poloto_axis_lines" stroke="black" x1="450.3003071805091" x2="450.3003071805091" y1="400" y2="405" /><text  class="poloto_tick_labels poloto_text" dominant-baseline="start" text-anchor="middle" x="450.3003071805091" y="430" >3.0</text><line  class="poloto_axis_lines" stroke="black" x1="500.3503583772606" x2="500.3503583772606" y1="400" y2="405" /><text  class="poloto_tick_labels poloto_text" dominant-baseline="start" text-anchor="middle" x="500.3503583772606" y="430" >3.5</text><line  class="poloto_axis_lines" stroke="black" x1="550.4004095740121" x2="550.4004095740121" y1="400" y2="405" /><text  class="poloto_tick_labels poloto_text" dominant-baseline="start" text-anchor="middle" x="550.4004095740121" y="430" >4.0</text><line  class="poloto_axis_lines" stroke="black" x1="600.4504607707636" x2="600.4504607707636" y1="400" y2="405" /><text  class="poloto_tick_labels poloto_text" dominant-baseline="start" text-anchor="middle" x="600.4504607707636" y="430" >4.5</text><path  stroke="black" fill="none" class="poloto_axis_lines" style="stroke-dasharray:5.005005119675151;stroke-dashoffset:-0;" d=" M 150 400 L 650 400" /><path  stroke="black" fill="none" class="poloto_axis_lines" style="stroke-dasharray:9.378362236808655;stroke-dashoffset:-58.4584603278148;" d=" M 150 400 L 150 100" /></svg>