<svg class="poloto" width="800" height="500" viewBox="0 0 800 500" xmlns="http://www.w3.org/2000/svg"><style>.poloto{stroke-linecap:round;stroke-linejoin:round;font-family:Roboto,sans-serif;font-size:16px;}.poloto_background{fill:AliceBlue;}.poloto_scatter{stroke-width:7}.poloto_tick_line{stroke:gray;stroke-width:0.5}.poloto_line{stroke-width:2}.poloto_text{fill: black;}.poloto_axis_lines{stroke: black;stroke-width:3;fill:none;stroke-dasharray:none}.poloto_title{font-size:24px;dominant-baseline:start;text-anchor:middle;}.poloto_xname{font-size:24px;dominant-baseline:start;text-anchor:middle;}.poloto_yname{font-size:24px;dominant-baseline:start;text-anchor:middle;}.poloto_legend_text{font-size:20px;dominant-baseline:middle;text-anchor:start;}.poloto0stroke{stroke:blue;}.poloto1stroke{stroke:red;}.poloto2stroke{stroke:green;}.poloto3stroke{stroke:gold;}.poloto4stroke{stroke:aqua;}.poloto5stroke{stroke:lime;}.poloto6stroke{stroke:orange;}.poloto7stroke{stroke:chocolate;}.poloto0fill{fill:blue;}.poloto1fill{fill:red;}.poloto2fill{fill:green;}.poloto3fill{fill:gold;}.poloto4fill{fill:aqua;}.poloto5fill{fill:lime;}.poloto6fill{fill:orange;}.poloto7fill{fill:chocolate;}</style><circle  r="1e5" class="poloto_background" /><text  class="poloto_text poloto_legend_text" x="675" y="100" >knot</text><line  class="poloto_scatter poloto_legend_icon poloto0stroke poloto0legend" stroke="black" x1="685" x2="685" y1="81.25" y2="81.25" /><path  class="poloto_scatter poloto0stroke" d=" M 250.10 366.61 h 0 M 350.20 366.61 h 0 M 450.30 366.61 h 0 M 550.40 366.61 h 0" /><text  class="poloto_text poloto_legend_text" x="675" y="150" >curve</text><line  class="poloto_line poloto_legend_icon poloto1stroke poloto1legend" stroke="black" x1="680" x2="730" y1="131.25" y2="131.25" /><path  class="poloto_line poloto1stroke" fill="none" stroke="black" d=" M 150.00 400.00 L 150.50 399.67 L 151.00 399.33 L 151.50 399.00 L 152.00 398.66 L 152.50 398.33 L 153.00 398.00 L 153.50 397.66 L 154.00 397.33 L 154.50 396.99 L 155.01 396.66 L 155.51 396.33 L 156.01 395.99 L 156.51 395.66 L 157.01 395.33 L 157.51 394.99 L 158.01 394.66 L 158.51 394.32 L 159.01 393.99 L 159.51 393.66 L 160.01 393.32 L 160.51 392.99 L 161.01 392.65 L 161.51 392.32 L 162.01 391.99 L 162.51 391.65 L 163.01 391.32 L 163.51 390.98 L 164.01 390.65 L 164.51 390.32 L 165.02 389.98 L 165.52 389.65 L 166.02 389.32 L 166.52 388.98 L 167.02 388.65 L 167.52 388.31 L 168.02 387.98 L 168.52 387.65 L 169.02 387.31 L 169.52 386.98 L 170.02 386.64 L 170.52 386.31 L 171.02 385.98 L 171.52 385.64 L 172.02 385.31 L 172.52 384.97 L 173.02 384.64 L 173.52 384.31 L 174.02 383.97 L 174.52 383.64 L 175.03 383.31 L 175.53 382.97 L 176.03 382.64 L 176.53 382.30 L 177.03 381.97 L 177.53 381.64 L 178.03 381.30 L 178.53 380.97 L 179.03 380.63 L 179.53 380.30 L 180.03 379.97 L 180.53 379.63 L 181.03 379.30 L 181.53 378.96 L 182.03 378.63 L 182.53 378.30 L 183.03 377.96 L 183.53 377.63 L 184.03 377.30 L 184.53 376.96 L 185.04 376.63 L 185.54 376.29 L 186.04 375.96 L 186.54 375.63 L 187.04 375.29 L 187.54 374.96 L 188.04 374.62 L 188.54 374.29 L 189.04 373.96 L 189.54 373.62 L 190.04 373.29 L 190.54 372.95 L 191.04 372.62 L 191.54 372.29 L 192.04 371.95 L 192.54 371.62 L 193.04 371.29 L 193.54 370.95 L 194.04 370.62 L 194.54 370.28 L 195.05 369.95 L 195.55 369.62 L 196.05 369.28 L 196.55 368.95 L 197.05 368.61 L 197.55 368.28 L 198.05 367.95 L 198.55 367.61 L 199.05 367.28 L 199.55 366.94 L 200.05 366.61 L 200.55 366.28 L 201.05 365.94 L 201.55 365.61 L 202.05 365.28 L 202.55 364.94 L 203.05 364.61 L 203.55 364.27 L 204.05 363.94 L 204.55 363.61 L 205.06 363.27 L 205.56 362.94 L 206.06 362.60 L 206.56 362.27 L 207.06 361.94 L 207.56 361.60 L 208.06 361.27 L 208.56 360.93 L 209.06 360.60 L 209.56 360.27 L 210.06 359.93 L 210.56 359.60 L 211.06 359.27 L 211.56 358.93 L 212.06 358.60 L 212.56 358.26 L 213.06 357.93 L 213.56 357.60 L 214.06 357.26 L 214.56 356.93 L 215.07 356.59 L 215.57 356.26 L 216.07 355.93 L 216.57 355.59 L 217.07 355.26 L 217.57 354.92 L 218.07 354.59 L 218.57 354.26 L 219.07 353.92 L 219.57 353.59 L 220.07 353.26 L 220.57 352.92 L 221.07 352.59 L 221.57 352.25 L 222.07 351.92 L 222.57 351.59 L 223.07 351.25 L 223.57 350.92 L 224.07 350.58 L 224.57 350.25 L 225.08 349.92 L 225.58 349.58 L 226.08 349.25 L 226.58 348.91 L 227.08 348.58 L 227.58 348.25 L 228.08 347.91 L 228.58 347.58 L 229.08 347.25 L 229.58 346.91 L 230.08 346.58 L 230.58 346.24 L 231.08 345.91 L 231.58 345.58 L 232.08 345.24 L 232.58 344.91 L 233.08 344.57 L 233.58 344.24 L 234.08 343.91 L 234.58 343.57 L 235.09 343.24 L 235.59 342.90 L 236.09 342.57 L 236.59 342.24 L 237.09 341.90 L 237.59 341.57 L 238.09 341.24 L 238.59 340.90 L 239.09 340.57 L 239.59 340.23 L 240.09 339.90 L 240.59 339.57 L 241.09 339.23 L 241.59 338.90 L 242.09 338.56 L 242.59 338.23 L 243.09 337.90 L 243.59 337.56 L 244.09 337.23 L 244.59 336.89 L 245.10 336.56 L 245.60 336.23 L 246.10 335.89 L 246.60 335.56 L 247.10 335.23 L 247.60 334.89 L 248.10 334.56 L 248.60 334.22 L 249.10 333.89 L 249.60 333.56 L 250.10 333.22 L 250.60 332.89 L 251.10 332.55 L 251.60 332.22 L 252.10 331.89 L 252.60 331.55 L 253.10 331.22 L 253.60 330.88 L 254.10 330.55 L 254.60 330.22 L 255.11 329.88 L 255.61 329.55 L 256.11 329.22 L 256.61 328.88 L 257.11 328.55 L 257.61 328.21 L 258.11 327.88 L 258.61 327.55 L 259.11 327.21 L 259.61 326.88 L 260.11 326.54 L 260.61 326.21 L 261.11 325.88 L 261.61 325.54 L 262.11 325.21 L 262.61 324.87 L 263.11 324.54 L 263.61 324.21 L 264.11 323.87 L 264.61 323.54 L 265.12 323.21 L 265.62 322.87 L 266.12 322.54 L 266.62 322.20 L 267.12 321.87 L 267.62 321.54 L 268.12 321.20 L 268.62 320.87 L 269.12 320.53 L 269.62 320.20 L 270.12 319.87 L 270.62 319.53 L 271.12 319.20 L 271.62 318.86 L 272.12 318.53 L 272.62 318.20 L 273.12 317.86 L 273.62 317.53 L 274.12 317.20 L 274.62 316.86 L 275.13 316.53 L 275.63 316.19 L 276.13 315.86 L 276.63 315.53 L 277.13 315.19 L 277.63 314.86 L 278.13 314.52 L 278.63 314.19 L 279.13 313.86 L 279.63 313.52 L 280.13 313.19 L 280.63 312.85 L 281.13 312.52 L 281.63 312.19 L 282.13 311.85 L 282.63 311.52 L 283.13 311.19 L 283.63 310.85 L 284.13 310.52 L 284.63 310.18 L 285.14 309.85 L 285.64 309.52 L 286.14 309.18 L 286.64 308.85 L 287.14 308.51 L 287.64 308.18 L 288.14 307.85 L 288.64 307.51 L 289.14 307.18 L 289.64 306.84 L 290.14 306.51 L 290.64 306.18 L 291.14 305.84 L 291.64 305.51 L 292.14 305.18 L 292.64 304.84 L 293.14 304.51 L 293.64 304.17 L 294.14 303.84 L 294.64 303.51 L 295.15 303.17 L 295.65 302.84 L 296.15 302.50 L 296.65 302.17 L 297.15 301.84 L 297.65 301.50 L 298.15 301.17 L 298.65 300.83 L 299.15 300.50 L 299.65 300.17 L 300.15 299.83 L 300.65 299.50 L 301.15 299.17 L 301.65 298.83 L 302.15 298.50 L 302.65 298.16 L 303.15 297.83 L 303.65 297.50 L 304.15 297.16 L 304.65 296.83 L 305.16 296.49 L 305.66 296.16 L 306.16 295.83 L 306.66 295.49 L 307.16 295.16 L 307.66 294.82 L 308.16 294.49 L 308.66 294.16 L 309.16 293.82 L 309.66 293.49 L 310.16 293.16 L 310.66 292.82 L 311.16 292.49 L 311.66 292.15 L 312.16 291.82 L 312.66 291.49 L 313.16 291.15 L 313.66 290.82 L 314.16 290.48 L 314.66 290.15 L 315.17 289.82 L 315.67 289.48 L 316.17 289.15 L 316.67 288.81 L 317.17 288.48 L 317.67 288.15 L 318.17 287.81 L 318.67 287.48 L 319.17 287.15 L 319.67 286.81 L 320.17 286.48 L 320.67 286.14 L 321.17 285.81 L 321.67 285.48 L 322.17 285.14 L 322.67 284.81 L 323.17 284.47 L 323.67 284.14 L 324.17 283.81 L 324.67 283.47 L 325.18 283.14 L 325.68 282.80 L 326.18 282.47 L 326.68 282.14 L 327.18 281.80 L 327.68 281.47 L 328.18 281.14 L 328.68 280.80 L 329.18 280.47 L 329.68 280.13 L 330.18 279.80 L 330.68 279.47 L 331.18 279.13 L 331.68 278.80 L 332.18 278.46 L 332.68 278.13 L 333.18 277.80 L 333.68 277.46 L 334.18 277.13 L 334.68 276.79 L 335.19 276.46 L 335.69 276.13 L 336.19 275.79 L 336.69 275.46 L 337.19 275.13 L 337.69 274.79 L 338.19 274.46 L 338.69 274.12 L 339.19 273.79 L 339.69 273.46 L 340.19 273.12 L 340.69 272.79 L 341.19 272.45 L 341.69 272.12 L 342.19 271.79 L 342.69 271.45 L 343.19 271.12 L 343.69 270.78 L 344.19 270.45 L 344.69 270.12 L 345.20 269.78 L 345.70 269.45 L 346.20 269.12 L 346.70 268.78 L 347.20 268.45 L 347.70 268.11 L 348.20 267.78 L 348.70 267.45 L 349.20 267.11 L 349.70 266.78 L 350.20 266.44 L 350.70 266.61 L 351.20 266.78 L 351.70 266.94 L 352.20 267.11 L 352.70 267.28 L 353.20 267.45 L 353.70 267.61 L 354.20 267.78 L 354.70 267.95 L 355.21 268.11 L 355.71 268.28 L 356.21 268.45 L 356.71 268.61 L 357.21 268.78 L 357.71 268.95 L 358.21 269.12 L 358.71 269.28 L 359.21 269.45 L 359.71 269.62 L 360.21 269.78 L 360.71 269.95 L 361.21 270.12 L 361.71 270.28 L 362.21 270.45 L 362.71 270.62 L 363.21 270.78 L 363.71 270.95 L 364.21 271.12 L 364.71 271.29 L 365.22 271.45 L 365.72 271.62 L 366.22 271.79 L 366.72 271.95 L 367.22 272.12 L 367.72 272.29 L 368.22 272.45 L 368.72 272.62 L 369.22 272.79 L 369.72 272.95 L 370.22 273.12 L 370.72 273.29 L 371.22 273.46 L 371.72 273.62 L 372.22 273.79 L 372.72 273.96 L 373.22 274.12 L 373.72 274.29 L 374.22 274.46 L 374.72 274.62 L 375.23 274.79 L 375.73 274.96 L 376.23 275.13 L 376.73 275.29 L 377.23 275.46 L 377.73 275.63 L 378.23 275.79 L 378.73 275.96 L 379.23 276.13 L 379.73 276.29 L 380.23 276.46 L 380.73 276.63 L 381.23 276.79 L 381.73 276.96 L 382.23 277.13 L 382.73 277.30 L 383.23 277.46 L 383.73 277.63 L 384.23 277.80 L 384.73 277.96 L 385.24 278.13 L 385.74 278.30 L 386.24 278.46 L 386.74 278.63 L 387.24 278.80 L 387.74 278.96 L 388.24 279.13 L 388.74 279.30 L 389.24 279.47 L 389.74 279.63 L 390.24 279.80 L 390.74 279.97 L 391.24 280.13 L 391.74 280.30 L 392.24 280.47 L 392.74 280.63 L 393.24 280.80 L 393.74 280.97 L 394.24 281.14 L 394.74 281.30 L 395.25 281.47 L 395.75 281.64 L 396.25 281.80 L 396.75 281.97 L 397.25 282.14 L 397.75 282.30 L 398.25 282.47 L 398.75 282.64 L 399.25 282.80 L 399.75 282.97 L 400.25 283.14 L 400.75 283.31 L 401.25 283.47 L 401.75 283.64 L 402.25 283.81 L 402.75 283.97 L 403.25 284.14 L 403.75 284.31 L 404.25 284.47 L 404.75 284.64 L 405.26 284.81 L 405.76 284.97 L 406.26 285.14 L 406.76 285.31 L 407.26 285.48 L 407.76 285.64 L 408.26 285.81 L 408.76 285.98 L 409.26 286.14 L 409.76 286.31 L 410.26 286.48 L 410.76 286.64 L 411.26 286.81 L 411.76 286.98 L 412.26 287.15 L 412.76 287.31 L 413.26 287.48 L 413.76 287.65 L 414.26 287.81 L 414.76 287.98 L 415.27 288.15 L 415.77 288.31 L 416.27 288.48 L 416.77 288.65 L 417.27 288.81 L 417.77 288.98 L 418.27 289.15 L 418.77 289.32 L 419.27 289.48 L 419.77 289.65 L 420.27 289.82 L 420.77 289.98 L 421.27 290.15 L 421.77 290.32 L 422.27 290.48 L 422.77 290.65 L 423.27 290.82 L 423.77 290.98 L 424.27 291.15 L 424.77 291.32 L 425.28 291.49 L 425.78 291.65 L 426.28 291.82 L 426.78 291.99 L 427.28 292.15 L 427.78 292.32 L 428.28 292.49 L 428.78 292.65 L 429.28 292.82 L 429.78 292.99 L 430.28 293.16 L 430.78 293.32 L 431.28 293.49 L 431.78 293.66 L 432.28 293.82 L 432.78 293.99 L 433.28 294.16 L 433.78 294.32 L 434.28 294.49 L 434.78 294.66 L 435.29 294.82 L 435.79 294.99 L 436.29 295.16 L 436.79 295.33 L 437.29 295.49 L 437.79 295.66 L 438.29 295.83 L 438.79 295.99 L 439.29 296.16 L 439.79 296.33 L 440.29 296.49 L 440.79 296.66 L 441.29 296.83 L 441.79 296.99 L 442.29 297.16 L 442.79 297.33 L 443.29 297.50 L 443.79 297.66 L 444.29 297.83 L 444.79 298.00 L 445.30 298.16 L 445.80 298.33 L 446.30 298.50 L 446.80 298.66 L 447.30 298.83 L 447.80 299.00 L 448.30 299.17 L 448.80 299.33 L 449.30 299.50 L 449.80 299.67 L 450.30 299.83 L 450.80 299.33 L 451.30 298.83 L 451.80 298.33 L 452.30 297.83 L 452.80 297.33 L 453.30 296.83 L 453.80 296.33 L 454.30 295.83 L 454.80 295.33 L 455.31 294.82 L 455.81 294.32 L 456.31 293.82 L 456.81 293.32 L 457.31 292.82 L 457.81 292.32 L 458.31 291.82 L 458.81 291.32 L 459.31 290.82 L 459.81 290.32 L 460.31 289.82 L 460.81 289.32 L 461.31 288.81 L 461.81 288.31 L 462.31 287.81 L 462.81 287.31 L 463.31 286.81 L 463.81 286.31 L 464.31 285.81 L 464.81 285.31 L 465.32 284.81 L 465.82 284.31 L 466.32 283.81 L 466.82 283.31 L 467.32 282.80 L 467.82 282.30 L 468.32 281.80 L 468.82 281.30 L 469.32 280.80 L 469.82 280.30 L 470.32 279.80 L 470.82 279.30 L 471.32 278.80 L 471.82 278.30 L 472.32 277.80 L 472.82 277.30 L 473.32 276.79 L 473.82 276.29 L 474.32 275.79 L 474.82 275.29 L 475.33 274.79 L 475.83 274.29 L 476.33 273.79 L 476.83 273.29 L 477.33 272.79 L 477.83 272.29 L 478.33 271.79 L 478.83 271.29 L 479.33 270.78 L 479.83 270.28 L 480.33 269.78 L 480.83 269.28 L 481.33 268.78 L 481.83 268.28 L 482.33 267.78 L 482.83 267.28 L 483.33 266.78 L 483.83 266.28 L 484.33 265.78 L 484.83 265.28 L 485.34 264.77 L 485.84 264.27 L 486.34 263.77 L 486.84 263.27 L 487.34 262.77 L 487.84 262.27 L 488.34 261.77 L 488.84 261.27 L 489.34 260.77 L 489.84 260.27 L 490.34 259.77 L 490.84 259.27 L 491.34 258.76 L 491.84 258.26 L 492.34 257.76 L 492.84 257.26 L 493.34 256.76 L 493.84 256.26 L 494.34 255.76 L 494.84 255.26 L 495.35 254.76 L 495.85 254.26 L 496.35 253.76 L 496.85 253.26 L 497.35 252.75 L 497.85 252.25 L 498.35 251.75 L 498.85 251.25 L 499.35 250.75 L 499.85 250.25 L 500.35 249.75 L 500.85 249.25 L 501.35 248.75 L 501.85 248.25 L 502.35 247.75 L 502.85 247.25 L 503.35 246.74 L 503.85 246.24 L 504.35 245.74 L 504.85 245.24 L 505.36 244.74 L 505.86 244.24 L 506.36 243.74 L 506.86 243.24 L 507.36 242.74 L 507.86 242.24 L 508.36 241.74 L 508.86 241.24 L 509.36 240.73 L 509.86 240.23 L 510.36 239.73 L 510.86 239.23 L 511.36 238.73 L 511.86 238.23 L 512.36 237.73 L 512.86 237.23 L 513.36 236.73 L 513.86 236.23 L 514.36 235.73 L 514.86 235.23 L 515.37 234.72 L 515.87 234.22 L 516.37 233.72 L 516.87 233.22 L 517.37 232.72 L 517.87 232.22 L 518.37 231.72 L 518.87 231.22 L 519.37 230.72 L 519.87 230.22 L 520.37 229.72 L 520.87 229.22 L 521.37 228.71 L 521.87 228.21 L 522.37 227.71 L 522.87 227.21 L 523.37 226.71 L 523.87 226.21 L 524.37 225.71 L 524.87 225.21 L 525.38 224.71 L 525.88 224.21 L 526.38 223.71 L 526.88 223.21 L 527.38 222.70 L 527.88 222.20 L 528.38 221.70 L 528.88 221.20 L 529.38 220.70 L 529.88 220.20 L 530.38 219.70 L 530.88 219.20 L 531.38 218.70 L 531.88 218.20 L 532.38 217.70 L 532.88 217.20 L 533.38 216.69 L 533.88 216.19 L 534.38 215.69 L 534.88 215.19 L 535.39 214.69 L 535.89 214.19 L 536.39 213.69 L 536.89 213.19 L 537.39 212.69 L 537.89 212.19 L 538.39 211.69 L 538.89 211.19 L 539.39 210.68 L 539.89 210.18 L 540.39 209.68 L 540.89 209.18 L 541.39 208.68 L 541.89 208.18 L 542.39 207.68 L 542.89 207.18 L 543.39 206.68 L 543.89 206.18 L 544.39 205.68 L 544.89 205.18 L 545.40 204.67 L 545.90 204.17 L 546.40 203.67 L 546.90 203.17 L 547.40 202.67 L 547.90 202.17 L 548.40 201.67 L 548.90 201.17 L 549.40 200.67 L 549.90 200.17 L 550.40 199.67 L 550.90 199.17 L 551.40 198.66 L 551.90 198.16 L 552.40 197.66 L 552.90 197.16 L 553.40 196.66 L 553.90 196.16 L 554.40 195.66 L 554.90 195.16 L 555.41 194.66 L 555.91 194.16 L 556.41 193.66 L 556.91 193.16 L 557.41 192.65 L 557.91 192.15 L 558.41 191.65 L 558.91 191.15 L 559.41 190.65 L 559.91 190.15 L 560.41 189.65 L 560.91 189.15 L 561.41 188.65 L 561.91 188.15 L 562.41 187.65 L 562.91 187.15 L 563.41 186.64 L 563.91 186.14 L 564.41 185.64 L 564.91 185.14 L 565.42 184.64 L 565.92 184.14 L 566.42 183.64 L 566.92 183.14 L 567.42 182.64 L 567.92 182.14 L 568.42 181.64 L 568.92 181.14 L 569.42 180.63 L 569.92 180.13 L 570.42 179.63 L 570.92 179.13 L 571.42 178.63 L 571.92 178.13 L 572.42 177.63 L 572.92 177.13 L 573.42 176.63 L 573.92 176.13 L 574.42 175.63 L 574.92 175.13 L 575.43 174.62 L 575.93 174.12 L 576.43 173.62 L 576.93 173.12 L 577.43 172.62 L 577.93 172.12 L 578.43 171.62 L 578.93 171.12 L 579.43 170.62 L 579.93 170.12 L 580.43 169.62 L 580.93 169.12 L 581.43 168.61 L 581.93 168.11 L 582.43 167.61 L 582.93 167.11 L 583.43 166.61 L 583.93 166.11 L 584.43 165.61 L 584.93 165.11 L 585.44 164.61 L 585.94 164.11 L 586.44 163.61 L 586.94 163.11 L 587.44 162.60 L 587.94 162.10 L 588.44 161.60 L 588.94 161.10 L 589.44 160.60 L 589.94 160.10 L 590.44 159.60 L 590.94 159.10 L 591.44 158.60 L 591.94 158.10 L 592.44 157.60 L 592.94 157.10 L 593.44 156.59 L 593.94 156.09 L 594.44 155.59 L 594.94 155.09 L 595.45 154.59 L 595.95 154.09 L 596.45 153.59 L 596.95 153.09 L 597.45 152.59 L 597.95 152.09 L 598.45 151.59 L 598.95 151.09 L 599.45 150.58 L 599.95 150.08 L 600.45 149.58 L 600.95 149.08 L 601.45 148.58 L 601.95 148.08 L 602.45 147.58 L 602.95 147.08 L 603.45 146.58 L 603.95 146.08 L 604.45 145.58 L 604.95 145.08 L 605.46 144.57 L 605.96 144.07 L 606.46 143.57 L 606.96 143.07 L 607.46 142.57 L 607.96 142.07 L 608.46 141.57 L 608.96 141.07 L 609.46 140.57 L 609.96 140.07 L 610.46 139.57 L 610.96 139.07 L 611.46 138.56 L 611.96 138.06 L 612.46 137.56 L 612.96 137.06 L 613.46 136.56 L 613.96 136.06 L 614.46 135.56 L 614.96 135.06 L 615.47 134.56 L 615.97 134.06 L 616.47 133.56 L 616.97 133.06 L 617.47 132.55 L 617.97 132.05 L 618.47 131.55 L 618.97 131.05 L 619.47 130.55 L 619.97 130.05 L 620.47 129.55 L 620.97 129.05 L 621.47 128.55 L 621.97 128.05 L 622.47 127.55 L 622.97 127.05 L 623.47 126.54 L 623.97 126.04 L 624.47 125.54 L 624.97 125.04 L 625.48 124.54 L 625.98 124.04 L 626.48 123.54 L 626.98 123.04 L 627.48 122.54 L 627.98 122.04 L 628.48 121.54 L 628.98 121.04 L 629.48 120.53 L 629.98 120.03 L 630.48 119.53 L 630.98 119.03 L 631.48 118.53 L 631.98 118.03 L 632.48 117.53 L 632.98 117.03 L 633.48 116.53 L 633.98 116.03 L 634.48 115.53 L 634.98 115.03 L 635.49 114.52 L 635.99 114.02 L 636.49 113.52 L 636.99 113.02 L 637.49 112.52 L 637.99 112.02 L 638.49 111.52 L 638.99 111.02 L 639.49 110.52 L 639.99 110.02 L 640.49 109.52 L 640.99 109.01 L 641.49 108.51 L 641.99 108.01 L 642.49 107.51 L 642.99 107.01 L 643.49 106.51 L 643.99 106.01 L 644.49 105.51 L 645.00 105.01 L 645.50 104.51 L 646.00 104.01 L 646.50 103.51 L 647.00 103.00 L 647.50 102.50 L 648.00 102.00 L 648.50 101.50 L 649.00 101.00 L 649.50 100.50 L 650.00 100.00" /><text  class="poloto_text poloto_legend_text" x="675" y="200" >derivative 1</text><line  class="poloto_line poloto_legend_icon poloto2stroke poloto2legend" stroke="black" x1="680" x2="730" y1="181.25" y2="181.25" /><path  class="poloto_line poloto2stroke" fill="none" stroke="black" d=" M 150.00 299.83 L 150.50 299.83 L 151.00 299.83 L 151.50 299.83 L 152.00 299.83 L 152.50 299.83 L 153.00 299.83 L 153.50 299.83 L 154.00 299.83 L 154.50 299.83 L 155.01 299.83 L 155.51 299.83 L 156.01 299.83 L 156.51 299.83 L 157.01 299.83 L 157.51 299.83 L 158.01 299.83 L 158.51 299.83 L 159.01 299.83 L 159.51 299.83 L 160.01 299.83 L 160.51 299.83 L 161.01 299.83 L 161.51 299.83 L 162.01 299.83 L 162.51 299.83 L 163.01 299.83 L 163.51 299.83 L 164.01 299.83 L 164.51 299.83 L 165.02 299.83 L 165.52 299.83 L 166.02 299.83 L 166.52 299.83 L 167.02 299.83 L 167.52 299.83 L 168.02 299.83 L 168.52 299.83 L 169.02 299.83 L 169.52 299.83 L 170.02 299.83 L 170.52 299.83 L 171.02 299.83 L 171.52 299.83 L 172.02 299.83 L 172.52 299.83 L 173.02 299.83 L 173.52 299.83 L 174.02 299.83 L 174.52 299.83 L 175.03 299.83 L 175.53 299.83 L 176.03 299.83 L 176.53 299.83 L 177.03 299.83 L 177.53 299.83 L 178.03 299.83 L 178.53 299.83 L 179.03 299.83 L 179.53 299.83 L 180.03 299.83 L 180.53 299.83 L 181.03 299.83 L 181.53 299.83 L 182.03 299.83 L 182.53 299.83 L 183.03 299.83 L 183.53 299.83 L 184.03 299.83 L 184.53 299.83 L 185.04 299.83 L 185.54 299.83 L 186.04 299.83 L 186.54 299.83 L 187.04 299.83 L 187.54 299.83 L 188.04 299.83 L 188.54 299.83 L 189.04 299.83 L 189.54 299.83 L 190.04 299.83 L 190.54 299.83 L 191.04 299.83 L 191.54 299.83 L 192.04 299.83 L 192.54 299.83 L 193.04 299.83 L 193.54 299.83 L 194.04 299.83 L 194.54 299.83 L 195.05 299.83 L 195.55 299.83 L 196.05 299.83 L 196.55 299.83 L 197.05 299.83 L 197.55 299.83 L 198.05 299.83 L 198.55 299.83 L 199.05 299.83 L 199.55 299.83 L 200.05 299.83 L 200.55 299.83 L 201.05 299.83 L 201.55 299.83 L 202.05 299.83 L 202.55 299.83 L 203.05 299.83 L 203.55 299.83 L 204.05 299.83 L 204.55 299.83 L 205.06 299.83 L 205.56 299.83 L 206.06 299.83 L 206.56 299.83 L 207.06 299.83 L 207.56 299.83 L 208.06 299.83 L 208.56 299.83 L 209.06 299.83 L 209.56 299.83 L 210.06 299.83 L 210.56 299.83 L 211.06 299.83 L 211.56 299.83 L 212.06 299.83 L 212.56 299.83 L 213.06 299.83 L 213.56 299.83 L 214.06 299.83 L 214.56 299.83 L 215.07 299.83 L 215.57 299.83 L 216.07 299.83 L 216.57 299.83 L 217.07 299.83 L 217.57 299.83 L 218.07 299.83 L 218.57 299.83 L 219.07 299.83 L 219.57 299.83 L 220.07 299.83 L 220.57 299.83 L 221.07 299.83 L 221.57 299.83 L 222.07 299.83 L 222.57 299.83 L 223.07 299.83 L 223.57 299.83 L 224.07 299.83 L 224.57 299.83 L 225.08 299.83 L 225.58 299.83 L 226.08 299.83 L 226.58 299.83 L 227.08 299.83 L 227.58 299.83 L 228.08 299.83 L 228.58 299.83 L 229.08 299.83 L 229.58 299.83 L 230.08 299.83 L 230.58 299.83 L 231.08 299.83 L 231.58 299.83 L 232.08 299.83 L 232.58 299.83 L 233.08 299.83 L 233.58 299.83 L 234.08 299.83 L 234.58 299.83 L 235.09 299.83 L 235.59 299.83 L 236.09 299.83 L 236.59 299.83 L 237.09 299.83 L 237.59 299.83 L 238.09 299.83 L 238.59 299.83 L 239.09 299.83 L 239.59 299.83 L 240.09 299.83 L 240.59 299.83 L 241.09 299.83 L 241.59 299.83 L 242.09 299.83 L 242.59 299.83 L 243.09 299.83 L 243.59 299.83 L 244.09 299.83 L 244.59 299.83 L 245.10 299.83 L 245.60 299.83 L 246.10 299.83 L 246.60 299.83 L 247.10 299.83 L 247.60 299.83 L 248.10 299.83 L 248.60 299.83 L 249.10 299.83 L 249.60 299.83 L 250.10 299.83 L 250.60 299.83 L 251.10 299.83 L 251.60 299.83 L 252.10 299.83 L 252.60 299.83 L 253.10 299.83 L 253.60 299.83 L 254.10 299.83 L 254.60 299.83 L 255.11 299.83 L 255.61 299.83 L 256.11 299.83 L 256.61 299.83 L 257.11 299.83 L 257.61 299.83 L 258.11 299.83 L 258.61 299.83 L 259.11 299.83 L 259.61 299.83 L 260.11 299.83 L 260.61 299.83 L 261.11 299.83 L 261.61 299.83 L 262.11 299.83 L 262.61 299.83 L 263.11 299.83 L 263.61 299.83 L 264.11 299.83 L 264.61 299.83 L 265.12 299.83 L 265.62 299.83 L 266.12 299.83 L 266.62 299.83 L 267.12 299.83 L 267.62 299.83 L 268.12 299.83 L 268.62 299.83 L 269.12 299.83 L 269.62 299.83 L 270.12 299.83 L 270.62 299.83 L 271.12 299.83 L 271.62 299.83 L 272.12 299.83 L 272.62 299.83 L 273.12 299.83 L 273.62 299.83 L 274.12 299.83 L 274.62 299.83 L 275.13 299.83 L 275.63 299.83 L 276.13 299.83 L 276.63 299.83 L 277.13 299.83 L 277.63 299.83 L 278.13 299.83 L 278.63 299.83 L 279.13 299.83 L 279.63 299.83 L 280.13 299.83 L 280.63 299.83 L 281.13 299.83 L 281.63 299.83 L 282.13 299.83 L 282.63 299.83 L 283.13 299.83 L 283.63 299.83 L 284.13 299.83 L 284.63 299.83 L 285.14 299.83 L 285.64 299.83 L 286.14 299.83 L 286.64 299.83 L 287.14 299.83 L 287.64 299.83 L 288.14 299.83 L 288.64 299.83 L 289.14 299.83 L 289.64 299.83 L 290.14 299.83 L 290.64 299.83 L 291.14 299.83 L 291.64 299.83 L 292.14 299.83 L 292.64 299.83 L 293.14 299.83 L 293.64 299.83 L 294.14 299.83 L 294.64 299.83 L 295.15 299.83 L 295.65 299.83 L 296.15 299.83 L 296.65 299.83 L 297.15 299.83 L 297.65 299.83 L 298.15 299.83 L 298.65 299.83 L 299.15 299.83 L 299.65 299.83 L 300.15 299.83 L 300.65 299.83 L 301.15 299.83 L 301.65 299.83 L 302.15 299.83 L 302.65 299.83 L 303.15 299.83 L 303.65 299.83 L 304.15 299.83 L 304.65 299.83 L 305.16 299.83 L 305.66 299.83 L 306.16 299.83 L 306.66 299.83 L 307.16 299.83 L 307.66 299.83 L 308.16 299.83 L 308.66 299.83 L 309.16 299.83 L 309.66 299.83 L 310.16 299.83 L 310.66 299.83 L 311.16 299.83 L 311.66 299.83 L 312.16 299.83 L 312.66 299.83 L 313.16 299.83 L 313.66 299.83 L 314.16 299.83 L 314.66 299.83 L 315.17 299.83 L 315.67 299.83 L 316.17 299.83 L 316.67 299.83 L 317.17 299.83 L 317.67 299.83 L 318.17 299.83 L 318.67 299.83 L 319.17 299.83 L 319.67 299.83 L 320.17 299.83 L 320.67 299.83 L 321.17 299.83 L 321.67 299.83 L 322.17 299.83 L 322.67 299.83 L 323.17 299.83 L 323.67 299.83 L 324.17 299.83 L 324.67 299.83 L 325.18 299.83 L 325.68 299.83 L 326.18 299.83 L 326.68 299.83 L 327.18 299.83 L 327.68 299.83 L 328.18 299.83 L 328.68 299.83 L 329.18 299.83 L 329.68 299.83 L 330.18 299.83 L 330.68 299.83 L 331.18 299.83 L 331.68 299.83 L 332.18 299.83 L 332.68 299.83 L 333.18 299.83 L 333.68 299.83 L 334.18 299.83 L 334.68 299.83 L 335.19 299.83 L 335.69 299.83 L 336.19 299.83 L 336.69 299.83 L 337.19 299.83 L 337.69 299.83 L 338.19 299.83 L 338.69 299.83 L 339.19 299.83 L 339.69 299.83 L 340.19 299.83 L 340.69 299.83 L 341.19 299.83 L 341.69 299.83 L 342.19 299.83 L 342.69 299.83 L 343.19 299.83 L 343.69 299.83 L 344.19 299.83 L 344.69 299.83 L 345.20 299.83 L 345.70 299.83 L 346.20 299.83 L 346.70 299.83 L 347.20 299.83 L 347.70 299.83 L 348.20 299.83 L 348.70 299.83 L 349.20 299.83 L 349.70 299.83 L 350.20 299.83 L 350.70 400.00 L 351.20 400.00 L 351.70 400.00 L 352.20 400.00 L 352.70 400.00 L 353.20 400.00 L 353.70 400.00 L 354.20 400.00 L 354.70 400.00 L 355.21 400.00 L 355.71 400.00 L 356.21 400.00 L 356.71 400.00 L 357.21 400.00 L 357.71 400.00 L 358.21 400.00 L 358.71 400.00 L 359.21 400.00 L 359.71 400.00 L 360.21 400.00 L 360.71 400.00 L 361.21 400.00 L 361.71 400.00 L 362.21 400.00 L 362.71 400.00 L 363.21 400.00 L 363.71 400.00 L 364.21 400.00 L 364.71 400.00 L 365.22 400.00 L 365.72 400.00 L 366.22 400.00 L 366.72 400.00 L 367.22 400.00 L 367.72 400.00 L 368.22 400.00 L 368.72 400.00 L 369.22 400.00 L 369.72 400.00 L 370.22 400.00 L 370.72 400.00 L 371.22 400.00 L 371.72 400.00 L 372.22 400.00 L 372.72 400.00 L 373.22 400.00 L 373.72 400.00 L 374.22 400.00 L 374.72 400.00 L 375.23 400.00 L 375.73 400.00 L 376.23 400.00 L 376.73 400.00 L 377.23 400.00 L 377.73 400.00 L 378.23 400.00 L 378.73 400.00 L 379.23 400.00 L 379.73 400.00 L 380.23 400.00 L 380.73 400.00 L 381.23 400.00 L 381.73 400.00 L 382.23 400.00 L 382.73 400.00 L 383.23 400.00 L 383.73 400.00 L 384.23 400.00 L 384.73 400.00 L 385.24 400.00 L 385.74 400.00 L 386.24 400.00 L 386.74 400.00 L 387.24 400.00 L 387.74 400.00 L 388.24 400.00 L 388.74 400.00 L 389.24 400.00 L 389.74 400.00 L 390.24 400.00 L 390.74 400.00 L 391.24 400.00 L 391.74 400.00 L 392.24 400.00 L 392.74 400.00 L 393.24 400.00 L 393.74 400.00 L 394.24 400.00 L 394.74 400.00 L 395.25 400.00 L 395.75 400.00 L 396.25 400.00 L 396.75 400.00 L 397.25 400.00 L 397.75 400.00 L 398.25 400.00 L 398.75 400.00 L 399.25 400.00 L 399.75 400.00 L 400.25 400.00 L 400.75 400.00 L 401.25 400.00 L 401.75 400.00 L 402.25 400.00 L 402.75 400.00 L 403.25 400.00 L 403.75 400.00 L 404.25 400.00 L 404.75 400.00 L 405.26 400.00 L 405.76 400.00 L 406.26 400.00 L 406.76 400.00 L 407.26 400.00 L 407.76 400.00 L 408.26 400.00 L 408.76 400.00 L 409.26 400.00 L 409.76 400.00 L 410.26 400.00 L 410.76 400.00 L 411.26 400.00 L 411.76 400.00 L 412.26 400.00 L 412.76 400.00 L 413.26 400.00 L 413.76 400.00 L 414.26 400.00 L 414.76 400.00 L 415.27 400.00 L 415.77 400.00 L 416.27 400.00 L 416.77 400.00 L 417.27 400.00 L 417.77 400.00 L 418.27 400.00 L 418.77 400.00 L 419.27 400.00 L 419.77 400.00 L 420.27 400.00 L 420.77 400.00 L 421.27 400.00 L 421.77 400.00 L 422.27 400.00 L 422.77 400.00 L 423.27 400.00 L 423.77 400.00 L 424.27 400.00 L 424.77 400.00 L 425.28 400.00 L 425.78 400.00 L 426.28 400.00 L 426.78 400.00 L 427.28 400.00 L 427.78 400.00 L 428.28 400.00 L 428.78 400.00 L 429.28 400.00 L 429.78 400.00 L 430.28 400.00 L 430.78 400.00 L 431.28 400.00 L 431.78 400.00 L 432.28 400.00 L 432.78 400.00 L 433.28 400.00 L 433.78 400.00 L 434.28 400.00 L 434.78 400.00 L 435.29 400.00 L 435.79 400.00 L 436.29 400.00 L 436.79 400.00 L 437.29 400.00 L 437.79 400.00 L 438.29 400.00 L 438.79 400.00 L 439.29 400.00 L 439.79 400.00 L 440.29 400.00 L 440.79 400.00 L 441.29 400.00 L 441.79 400.00 L 442.29 400.00 L 442.79 400.00 L 443.29 400.00 L 443.79 400.00 L 444.29 400.00 L 444.79 400.00 L 445.30 400.00 L 445.80 400.00 L 446.30 400.00 L 446.80 400.00 L 447.30 400.00 L 447.80 400.00 L 448.30 400.00 L 448.80 400.00 L 449.30 400.00 L 449.80 400.00 L 450.30 400.00 L 450.80 266.44 L 451.30 266.44 L 451.80 266.44 L 452.30 266.44 L 452.80 266.44 L 453.30 266.44 L 453.80 266.44 L 454.30 266.44 L 454.80 266.44 L 455.31 266.44 L 455.81 266.44 L 456.31 266.44 L 456.81 266.44 L 457.31 266.44 L 457.81 266.44 L 458.31 266.44 L 458.81 266.44 L 459.31 266.44 L 459.81 266.44 L 460.31 266.44 L 460.81 266.44 L 461.31 266.44 L 461.81 266.44 L 462.31 266.44 L 462.81 266.44 L 463.31 266.44 L 463.81 266.44 L 464.31 266.44 L 464.81 266.44 L 465.32 266.44 L 465.82 266.44 L 466.32 266.44 L 466.82 266.44 L 467.32 266.44 L 467.82 266.44 L 468.32 266.44 L 468.82 266.44 L 469.32 266.44 L 469.82 266.44 L 470.32 266.44 L 470.82 266.44 L 471.32 266.44 L 471.82 266.44 L 472.32 266.44 L 472.82 266.44 L 473.32 266.44 L 473.82 266.44 L 474.32 266.44 L 474.82 266.44 L 475.33 266.44 L 475.83 266.44 L 476.33 266.44 L 476.83 266.44 L 477.33 266.44 L 477.83 266.44 L 478.33 266.44 L 478.83 266.44 L 479.33 266.44 L 479.83 266.44 L 480.33 266.44 L 480.83 266.44 L 481.33 266.44 L 481.83 266.44 L 482.33 266.44 L 482.83 266.44 L 483.33 266.44 L 483.83 266.44 L 484.33 266.44 L 484.83 266.44 L 485.34 266.44 L 485.84 266.44 L 486.34 266.44 L 486.84 266.44 L 487.34 266.44 L 487.84 266.44 L 488.34 266.44 L 488.84 266.44 L 489.34 266.44 L 489.84 266.44 L 490.34 266.44 L 490.84 266.44 L 491.34 266.44 L 491.84 266.44 L 492.34 266.44 L 492.84 266.44 L 493.34 266.44 L 493.84 266.44 L 494.34 266.44 L 494.84 266.44 L 495.35 266.44 L 495.85 266.44 L 496.35 266.44 L 496.85 266.44 L 497.35 266.44 L 497.85 266.44 L 498.35 266.44 L 498.85 266.44 L 499.35 266.44 L 499.85 266.44 L 500.35 266.44 L 500.85 266.44 L 501.35 266.44 L 501.85 266.44 L 502.35 266.44 L 502.85 266.44 L 503.35 266.44 L 503.85 266.44 L 504.35 266.44 L 504.85 266.44 L 505.36 266.44 L 505.86 266.44 L 506.36 266.44 L 506.86 266.44 L 507.36 266.44 L 507.86 266.44 L 508.36 266.44 L 508.86 266.44 L 509.36 266.44 L 509.86 266.44 L 510.36 266.44 L 510.86 266.44 L 511.36 266.44 L 511.86 266.44 L 512.36 266.44 L 512.86 266.44 L 513.36 266.44 L 513.86 266.44 L 514.36 266.44 L 514.86 266.44 L 515.37 266.44 L 515.87 266.44 L 516.37 266.44 L 516.87 266.44 L 517.37 266.44 L 517.87 266.44 L 518.37 266.44 L 518.87 266.44 L 519.37 266.44 L 519.87 266.44 L 520.37 266.44 L 520.87 266.44 L 521.37 266.44 L 521.87 266.44 L 522.37 266.44 L 522.87 266.44 L 523.37 266.44 L 523.87 266.44 L 524.37 266.44 L 524.87 266.44 L 525.38 266.44 L 525.88 266.44 L 526.38 266.44 L 526.88 266.44 L 527.38 266.44 L 527.88 266.44 L 528.38 266.44 L 528.88 266.44 L 529.38 266.44 L 529.88 266.44 L 530.38 266.44 L 530.88 266.44 L 531.38 266.44 L 531.88 266.44 L 532.38 266.44 L 532.88 266.44 L 533.38 266.44 L 533.88 266.44 L 534.38 266.44 L 534.88 266.44 L 535.39 266.44 L 535.89 266.44 L 536.39 266.44 L 536.89 266.44 L 537.39 266.44 L 537.89 266.44 L 538.39 266.44 L 538.89 266.44 L 539.39 266.44 L 539.89 266.44 L 540.39 266.44 L 540.89 266.44 L 541.39 266.44 L 541.89 266.44 L 542.39 266.44 L 542.89 266.44 L 543.39 266.44 L 543.89 266.44 L 544.39 266.44 L 544.89 266.44 L 545.40 266.44 L 545.90 266.44 L 546.40 266.44 L 546.90 266.44 L 547.40 266.44 L 547.90 266.44 L 548.40 266.44 L 548.90 266.44 L 549.40 266.44 L 549.90 266.44 L 550.40 266.44 L 550.90 266.44 L 551.40 266.44 L 551.90 266.44 L 552.40 266.44 L 552.90 266.44 L 553.40 266.44 L 553.90 266.44 L 554.40 266.44 L 554.90 266.44 L 555.41 266.44 L 555.91 266.44 L 556.41 266.44 L 556.91 266.44 L 557.41 266.44 L 557.91 266.44 L 558.41 266.44 L 558.91 266.44 L 559.41 266.44 L 559.91 266.44 L 560.41 266.44 L 560.91 266.44 L 561.41 266.44 L 561.91 266.44 L 562.41 266.44 L 562.91 266.44 L 563.41 266.44 L 563.91 266.44 L 564.41 266.44 L 564.91 266.44 L 565.42 266.44 L 565.92 266.44 L 566.42 266.44 L 566.92 266.44 L 567.42 266.44 L 567.92 266.44 L 568.42 266.44 L 568.92 266.44 L 569.42 266.44 L 569.92 266.44 L 570.42 266.44 L 570.92 266.44 L 571.42 266.44 L 571.92 266.44 L 572.42 266.44 L 572.92 266.44 L 573.42 266.44 L 573.92 266.44 L 574.42 266.44 L 574.92 266.44 L 575.43 266.44 L 575.93 266.44 L 576.43 266.44 L 576.93 266.44 L 577.43 266.44 L 577.93 266.44 L 578.43 266.44 L 578.93 266.44 L 579.43 266.44 L 579.93 266.44 L 580.43 266.44 L 580.93 266.44 L 581.43 266.44 L 581.93 266.44 L 582.43 266.44 L 582.93 266.44 L 583.43 266.44 L 583.93 266.44 L 584.43 266.44 L 584.93 266.44 L 585.44 266.44 L 585.94 266.44 L 586.44 266.44 L 586.94 266.44 L 587.44 266.44 L 587.94 266.44 L 588.44 266.44 L 588.94 266.44 L 589.44 266.44 L 589.94 266.44 L 590.44 266.44 L 590.94 266.44 L 591.44 266.44 L 591.94 266.44 L 592.44 266.44 L 592.94 266.44 L 593.44 266.44 L 593.94 266.44 L 594.44 266.44 L 594.94 266.44 L 595.45 266.44 L 595.95 266.44 L 596.45 266.44 L 596.95 266.44 L 597.45 266.44 L 597.95 266.44 L 598.45 266.44 L 598.95 266.44 L 599.45 266.44 L 599.95 266.44 L 600.45 266.44 L 600.95 266.44 L 601.45 266.44 L 601.95 266.44 L 602.45 266.44 L 602.95 266.44 L 603.45 266.44 L 603.95 266.44 L 604.45 266.44 L 604.95 266.44 L 605.46 266.44 L 605.96 266.44 L 606.46 266.44 L 606.96 266.44 L 607.46 266.44 L 607.96 266.44 L 608.46 266.44 L 608.96 266.44 L 609.46 266.44 L 609.96 266.44 L 610.46 266.44 L 610.96 266.44 L 611.46 266.44 L 611.96 266.44 L 612.46 266.44 L 612.96 266.44 L 613.46 266.44 L 613.96 266.44 L 614.46 266.44 L 614.96 266.44 L 615.47 266.44 L 615.97 266.44 L 616.47 266.44 L 616.97 266.44 L 617.47 266.44 L 617.97 266.44 L 618.47 266.44 L 618.97 266.44 L 619.47 266.44 L 619.97 266.44 L 620.47 266.44 L 620.97 266.44 L 621.47 266.44 L 621.97 266.44 L 622.47 266.44 L 622.97 266.44 L 623.47 266.44 L 623.97 266.44 L 624.47 266.44 L 624.97 266.44 L 625.48 266.44 L 625.98 266.44 L 626.48 266.44 L 626.98 266.44 L 627.48 266.44 L 627.98 266.44 L 628.48 266.44 L 628.98 266.44 L 629.48 266.44 L 629.98 266.44 L 630.48 266.44 L 630.98 266.44 L 631.48 266.44 L 631.98 266.44 L 632.48 266.44 L 632.98 266.44 L 633.48 266.44 L 633.98 266.44 L 634.48 266.44 L 634.98 266.44 L 635.49 266.44 L 635.99 266.44 L 636.49 266.44 L 636.99 266.44 L 637.49 266.44 L 637.99 266.44 L 638.49 266.44 L 638.99 266.44 L 639.49 266.44 L 639.99 266.44 L 640.49 266.44 L 640.99 266.44 L 641.49 266.44 L 641.99 266.44 L 642.49 266.44 L 642.99 266.44 L 643.49 266.44 L 643.99 266.44 L 644.49 266.44 L 645.00 266.44 L 645.50 266.44 L 646.00 266.44 L 646.50 266.44 L 647.00 266.44 L 647.50 266.44 L 648.00 266.44 L 648.50 266.44 L 649.00 266.44 L 649.50 266.44 L 650.00 266.44" /><text  class="poloto_text poloto_legend_text" x="675" y="250" >derivative 2</text><line  class="poloto_line poloto_legend_icon poloto3stroke poloto3legend" stroke="black" x1="680" x2="730" y1="231.25" y2="231.25" /><path  class="poloto_line poloto3stroke" fill="none" stroke="black" d=" M 150.00 366.61 L 150.50 366.61 L 151.00 366.61 L 151.50 366.61 L 152.00 366.61 L 152.50 366.61 L 153.00 366.61 L 153.50 366.61 L 154.00 366.61 L 154.50 366.61 L 155.01 366.61 L 155.51 366.61 L 156.01 366.61 L 156.51 366.61 L 157.01 366.61 L 157.51 366.61 L 158.01 366.61 L 158.51 366.61 L 159.01 366.61 L 159.51 366.61 L 160.01 366.61 L 160.51 366.61 L 161.01 366.61 L 161.51 366.61 L 162.01 366.61 L 162.51 366.61 L 163.01 366.61 L 163.51 366.61 L 164.01 366.61 L 164.51 366.61 L 165.02 366.61 L 165.52 366.61 L 166.02 366.61 L 166.52 366.61 L 167.02 366.61 L 167.52 366.61 L 168.02 366.61 L 168.52 366.61 L 169.02 366.61 L 169.52 366.61 L 170.02 366.61 L 170.52 366.61 L 171.02 366.61 L 171.52 366.61 L 172.02 366.61 L 172.52 366.61 L 173.02 366.61 L 173.52 366.61 L 174.02 366.61 L 174.52 366.61 L 175.03 366.61 L 175.53 366.61 L 176.03 366.61 L 176.53 366.61 L 177.03 366.61 L 177.53 366.61 L 178.03 366.61 L 178.53 366.61 L 179.03 366.61 L 179.53 366.61 L 180.03 366.61 L 180.53 366.61 L 181.03 366.61 L 181.53 366.61 L 182.03 366.61 L 182.53 366.61 L 183.03 366.61 L 183.53 366.61 L 184.03 366.61 L 184.53 366.61 L 185.04 366.61 L 185.54 366.61 L 186.04 366.61 L 186.54 366.61 L 187.04 366.61 L 187.54 366.61 L 188.04 366.61 L 188.54 366.61 L 189.04 366.61 L 189.54 366.61 L 190.04 366.61 L 190.54 366.61 L 191.04 366.61 L 191.54 366.61 L 192.04 366.61 L 192.54 366.61 L 193.04 366.61 L 193.54 366.61 L 194.04 366.61 L 194.54 366.61 L 195.05 366.61 L 195.55 366.61 L 196.05 366.61 L 196.55 366.61 L 197.05 366.61 L 197.55 366.61 L 198.05 366.61 L 198.55 366.61 L 199.05 366.61 L 199.55 366.61 L 200.05 366.61 L 200.55 366.61 L 201.05 366.61 L 201.55 366.61 L 202.05 366.61 L 202.55 366.61 L 203.05 366.61 L 203.55 366.61 L 204.05 366.61 L 204.55 366.61 L 205.06 366.61 L 205.56 366.61 L 206.06 366.61 L 206.56 366.61 L 207.06 366.61 L 207.56 366.61 L 208.06 366.61 L 208.56 366.61 L 209.06 366.61 L 209.56 366.61 L 210.06 366.61 L 210.56 366.61 L 211.06 366.61 L 211.56 366.61 L 212.06 366.61 L 212.56 366.61 L 213.06 366.61 L 213.56 366.61 L 214.06 366.61 L 214.56 366.61 L 215.07 366.61 L 215.57 366.61 L 216.07 366.61 L 216.57 366.61 L 217.07 366.61 L 217.57 366.61 L 218.07 366.61 L 218.57 366.61 L 219.07 366.61 L 219.57 366.61 L 220.07 366.61 L 220.57 366.61 L 221.07 366.61 L 221.57 366.61 L 222.07 366.61 L 222.57 366.61 L 223.07 366.61 L 223.57 366.61 L 224.07 366.61 L 224.57 366.61 L 225.08 366.61 L 225.58 366.61 L 226.08 366.61 L 226.58 366.61 L 227.08 366.61 L 227.58 366.61 L 228.08 366.61 L 228.58 366.61 L 229.08 366.61 L 229.58 366.61 L 230.08 366.61 L 230.58 366.61 L 231.08 366.61 L 231.58 366.61 L 232.08 366.61 L 232.58 366.61 L 233.08 366.61 L 233.58 366.61 L 234.08 366.61 L 234.58 366.61 L 235.09 366.61 L 235.59 366.61 L 236.09 366.61 L 236.59 366.61 L 237.09 366.61 L 237.59 366.61 L 238.09 366.61 L 238.59 366.61 L 239.09 366.61 L 239.59 366.61 L 240.09 366.61 L 240.59 366.61 L 241.09 366.61 L 241.59 366.61 L 242.09 366.61 L 242.59 366.61 L 243.09 366.61 L 243.59 366.61 L 244.09 366.61 L 244.59 366.61 L 245.10 366.61 L 245.60 366.61 L 246.10 366.61 L 246.60 366.61 L 247.10 366.61 L 247.60 366.61 L 248.10 366.61 L 248.60 366.61 L 249.10 366.61 L 249.60 366.61 L 250.10 366.61 L 250.60 366.61 L 251.10 366.61 L 251.60 366.61 L 252.10 366.61 L 252.60 366.61 L 253.10 366.61 L 253.60 366.61 L 254.10 366.61 L 254.60 366.61 L 255.11 366.61 L 255.61 366.61 L 256.11 366.61 L 256.61 366.61 L 257.11 366.61 L 257.61 366.61 L 258.11 366.61 L 258.61 366.61 L 259.11 366.61 L 259.61 366.61 L 260.11 366.61 L 260.61 366.61 L 261.11 366.61 L 261.61 366.61 L 262.11 366.61 L 262.61 366.61 L 263.11 366.61 L 263.61 366.61 L 264.11 366.61 L 264.61 366.61 L 265.12 366.61 L 265.62 366.61 L 266.12 366.61 L 266.62 366.61 L 267.12 366.61 L 267.62 366.61 L 268.12 366.61 L 268.62 366.61 L 269.12 366.61 L 269.62 366.61 L 270.12 366.61 L 270.62 366.61 L 271.12 366.61 L 271.62 366.61 L 272.12 366.61 L 272.62 366.61 L 273.12 366.61 L 273.62 366.61 L 274.12 366.61 L 274.62 366.61 L 275.13 366.61 L 275.63 366.61 L 276.13 366.61 L 276.63 366.61 L 277.13 366.61 L 277.63 366.61 L 278.13 366.61 L 278.63 366.61 L 279.13 366.61 L 279.63 366.61 L 280.13 366.61 L 280.63 366.61 L 281.13 366.61 L 281.63 366.61 L 282.13 366.61 L 282.63 366.61 L 283.13 366.61 L 283.63 366.61 L 284.13 366.61 L 284.63 366.61 L 285.14 366.61 L 285.64 366.61 L 286.14 366.61 L 286.64 366.61 L 287.14 366.61 L 287.64 366.61 L 288.14 366.61 L 288.64 366.61 L 289.14 366.61 L 289.64 366.61 L 290.14 366.61 L 290.64 366.61 L 291.14 366.61 L 291.64 366.61 L 292.14 366.61 L 292.64 366.61 L 293.14 366.61 L 293.64 366.61 L 294.14 366.61 L 294.64 366.61 L 295.15 366.61 L 295.65 366.61 L 296.15 366.61 L 296.65 366.61 L 297.15 366.61 L 297.65 366.61 L 298.15 366.61 L 298.65 366.61 L 299.15 366.61 L 299.65 366.61 L 300.15 366.61 L 300.65 366.61 L 301.15 366.61 L 301.65 366.61 L 302.15 366.61 L 302.65 366.61 L 303.15 366.61 L 303.65 366.61 L 304.15 366.61 L 304.65 366.61 L 305.16 366.61 L 305.66 366.61 L 306.16 366.61 L 306.66 366.61 L 307.16 366.61 L 307.66 366.61 L 308.16 366.61 L 308.66 366.61 L 309.16 366.61 L 309.66 366.61 L 310.16 366.61 L 310.66 366.61 L 311.16 366.61 L 311.66 366.61 L 312.16 366.61 L 312.66 366.61 L 313.16 366.61 L 313.66 366.61 L 314.16 366.61 L 314.66 366.61 L 315.17 366.61 L 315.67 366.61 L 316.17 366.61 L 316.67 366.61 L 317.17 366.61 L 317.67 366.61 L 318.17 366.61 L 318.67 366.61 L 319.17 366.61 L 319.67 366.61 L 320.17 366.61 L 320.67 366.61 L 321.17 366.61 L 321.67 366.61 L 322.17 366.61 L 322.67 366.61 L 323.17 366.61 L 323.67 366.61 L 324.17 366.61 L 324.67 366.61 L 325.18 366.61 L 325.68 366.61 L 326.18 366.61 L 326.68 366.61 L 327.18 366.61 L 327.68 366.61 L 328.18 366.61 L 328.68 366.61 L 329.18 366.61 L 329.68 366.61 L 330.18 366.61 L 330.68 366.61 L 331.18 366.61 L 331.68 366.61 L 332.18 366.61 L 332.68 366.61 L 333.18 366.61 L 333.68 366.61 L 334.18 366.61 L 334.68 366.61 L 335.19 366.61 L 335.69 366.61 L 336.19 366.61 L 336.69 366.61 L 337.19 366.61 L 337.69 366.61 L 338.19 366.61 L 338.69 366.61 L 339.19 366.61 L 339.69 366.61 L 340.19 366.61 L 340.69 366.61 L 341.19 366.61 L 341.69 366.61 L 342.19 366.61 L 342.69 366.61 L 343.19 366.61 L 343.69 366.61 L 344.19 366.61 L 344.69 366.61 L 345.20 366.61 L 345.70 366.61 L 346.20 366.61 L 346.70 366.61 L 347.20 366.61 L 347.70 366.61 L 348.20 366.61 L 348.70 366.61 L 349.20 366.61 L 349.70 366.61 L 350.20 366.61 L 350.70 366.61 L 351.20 366.61 L 351.70 366.61 L 352.20 366.61 L 352.70 366.61 L 353.20 366.61 L 353.70 366.61 L 354.20 366.61 L 354.70 366.61 L 355.21 366.61 L 355.71 366.61 L 356.21 366.61 L 356.71 366.61 L 357.21 366.61 L 357.71 366.61 L 358.21 366.61 L 358.71 366.61 L 359.21 366.61 L 359.71 366.61 L 360.21 366.61 L 360.71 366.61 L 361.21 366.61 L 361.71 366.61 L 362.21 366.61 L 362.71 366.61 L 363.21 366.61 L 363.71 366.61 L 364.21 366.61 L 364.71 366.61 L 365.22 366.61 L 365.72 366.61 L 366.22 366.61 L 366.72 366.61 L 367.22 366.61 L 367.72 366.61 L 368.22 366.61 L 368.72 366.61 L 369.22 366.61 L 369.72 366.61 L 370.22 366.61 L 370.72 366.61 L 371.22 366.61 L 371.72 366.61 L 372.22 366.61 L 372.72 366.61 L 373.22 366.61 L 373.72 366.61 L 374.22 366.61 L 374.72 366.61 L 375.23 366.61 L 375.73 366.61 L 376.23 366.61 L 376.73 366.61 L 377.23 366.61 L 377.73 366.61 L 378.23 366.61 L 378.73 366.61 L 379.23 366.61 L 379.73 366.61 L 380.23 366.61 L 380.73 366.61 L 381.23 366.61 L 381.73 366.61 L 382.23 366.61 L 382.73 366.61 L 383.23 366.61 L 383.73 366.61 L 384.23 366.61 L 384.73 366.61 L 385.24 366.61 L 385.74 366.61 L 386.24 366.61 L 386.74 366.61 L 387.24 366.61 L 387.74 366.61 L 388.24 366.61 L 388.74 366.61 L 389.24 366.61 L 389.74 366.61 L 390.24 366.61 L 390.74 366.61 L 391.24 366.61 L 391.74 366.61 L 392.24 366.61 L 392.74 366.61 L 393.24 366.61 L 393.74 366.61 L 394.24 366.61 L 394.74 366.61 L 395.25 366.61 L 395.75 366.61 L 396.25 366.61 L 396.75 366.61 L 397.25 366.61 L 397.75 366.61 L 398.25 366.61 L 398.75 366.61 L 399.25 366.61 L 399.75 366.61 L 400.25 366.61 L 400.75 366.61 L 401.25 366.61 L 401.75 366.61 L 402.25 366.61 L 402.75 366.61 L 403.25 366.61 L 403.75 366.61 L 404.25 366.61 L 404.75 366.61 L 405.26 366.61 L 405.76 366.61 L 406.26 366.61 L 406.76 366.61 L 407.26 366.61 L 407.76 366.61 L 408.26 366.61 L 408.76 366.61 L 409.26 366.61 L 409.76 366.61 L 410.26 366.61 L 410.76 366.61 L 411.26 366.61 L 411.76 366.61 L 412.26 366.61 L 412.76 366.61 L 413.26 366.61 L 413.76 366.61 L 414.26 366.61 L 414.76 366.61 L 415.27 366.61 L 415.77 366.61 L 416.27 366.61 L 416.77 366.61 L 417.27 366.61 L 417.77 366.61 L 418.27 366.61 L 418.77 366.61 L 419.27 366.61 L 419.77 366.61 L 420.27 366.61 L 420.77 366.61 L 421.27 366.61 L 421.77 366.61 L 422.27 366.61 L 422.77 366.61 L 423.27 366.61 L 423.77 366.61 L 424.27 366.61 L 424.77 366.61 L 425.28 366.61 L 425.78 366.61 L 426.28 366.61 L 426.78 366.61 L 427.28 366.61 L 427.78 366.61 L 428.28 366.61 L 428.78 366.61 L 429.28 366.61 L 429.78 366.61 L 430.28 366.61 L 430.78 366.61 L 431.28 366.61 L 431.78 366.61 L 432.28 366.61 L 432.78 366.61 L 433.28 366.61 L 433.78 366.61 L 434.28 366.61 L 434.78 366.61 L 435.29 366.61 L 435.79 366.61 L 436.29 366.61 L 436.79 366.61 L 437.29 366.61 L 437.79 366.61 L 438.29 366.61 L 438.79 366.61 L 439.29 366.61 L 439.79 366.61 L 440.29 366.61 L 440.79 366.61 L 441.29 366.61 L 441.79 366.61 L 442.29 366.61 L 442.79 366.61 L 443.29 366.61 L 443.79 366.61 L 444.29 366.61 L 444.79 366.61 L 445.30 366.61 L 445.80 366.61 L 446.30 366.61 L 446.80 366.61 L 447.30 366.61 L 447.80 366.61 L 448.30 366.61 L 448.80 366.61 L 449.30 366.61 L 449.80 366.61 L 450.30 366.61 L 450.80 366.61 L 451.30 366.61 L 451.80 366.61 L 452.30 366.61 L 452.80 366.61 L 453.30 366.61 L 453.80 366.61 L 454.30 366.61 L 454.80 366.61 L 455.31 366.61 L 455.81 366.61 L 456.31 366.61 L 456.81 366.61 L 457.31 366.61 L 457.81 366.61 L 458.31 366.61 L 458.81 366.61 L 459.31 366.61 L 459.81 366.61 L 460.31 366.61 L 460.81 366.61 L 461.31 366.61 L 461.81 366.61 L 462.31 366.61 L 462.81 366.61 L 463.31 366.61 L 463.81 366.61 L 464.31 366.61 L 464.81 366.61 L 465.32 366.61 L 465.82 366.61 L 466.32 366.61 L 466.82 366.61 L 467.32 366.61 L 467.82 366.61 L 468.32 366.61 L 468.82 366.61 L 469.32 366.61 L 469.82 366.61 L 470.32 366.61 L 470.82 366.61 L 471.32 366.61 L 471.82 366.61 L 472.32 366.61 L 472.82 366.61 L 473.32 366.61 L 473.82 366.61 L 474.32 366.61 L 474.82 366.61 L 475.33 366.61 L 475.83 366.61 L 476.33 366.61 L 476.83 366.61 L 477.33 366.61 L 477.83 366.61 L 478.33 366.61 L 478.83 366.61 L 479.33 366.61 L 479.83 366.61 L 480.33 366.61 L 480.83 366.61 L 481.33 366.61 L 481.83 366.61 L 482.33 366.61 L 482.83 366.61 L 483.33 366.61 L 483.83 366.61 L 484.33 366.61 L 484.83 366.61 L 485.34 366.61 L 485.84 366.61 L 486.34 366.61 L 486.84 366.61 L 487.34 366.61 L 487.84 366.61 L 488.34 366.61 L 488.84 366.61 L 489.34 366.61 L 489.84 366.61 L 490.34 366.61 L 490.84 366.61 L 491.34 366.61 L 491.84 366.61 L 492.34 366.61 L 492.84 366.61 L 493.34 366.61 L 493.84 366.61 L 494.34 366.61 L 494.84 366.61 L 495.35 366.61 L 495.85 366.61 L 496.35 366.61 L 496.85 366.61 L 497.35 366.61 L 497.85 366.61 L 498.35 366.61 L 498.85 366.61 L 499.35 366.61 L 499.85 366.61 L 500.35 366.61 L 500.85 366.61 L 501.35 366.61 L 501.85 366.61 L 502.35 366.61 L 502.85 366.61 L 503.35 366.61 L 503.85 366.61 L 504.35 366.61 L 504.85 366.61 L 505.36 366.61 L 505.86 366.61 L 506.36 366.61 L 506.86 366.61 L 507.36 366.61 L 507.86 366.61 L 508.36 366.61 L 508.86 366.61 L 509.36 366.61 L 509.86 366.61 L 510.36 366.61 L 510.86 366.61 L 511.36 366.61 L 511.86 366.61 L 512.36 366.61 L 512.86 366.61 L 513.36 366.61 L 513.86 366.61 L 514.36 366.61 L 514.86 366.61 L 515.37 366.61 L 515.87 366.61 L 516.37 366.61 L 516.87 366.61 L 517.37 366.61 L 517.87 366.61 L 518.37 366.61 L 518.87 366.61 L 519.37 366.61 L 519.87 366.61 L 520.37 366.61 L 520.87 366.61 L 521.37 366.61 L 521.87 366.61 L 522.37 366.61 L 522.87 366.61 L 523.37 366.61 L 523.87 366.61 L 524.37 366.61 L 524.87 366.61 L 525.38 366.61 L 525.88 366.61 L 526.38 366.61 L 526.88 366.61 L 527.38 366.61 L 527.88 366.61 L 528.38 366.61 L 528.88 366.61 L 529.38 366.61 L 529.88 366.61 L 530.38 366.61 L 530.88 366.61 L 531.38 366.61 L 531.88 366.61 L 532.38 366.61 L 532.88 366.61 L 533.38 366.61 L 533.88 366.61 L 534.38 366.61 L 534.88 366.61 L 535.39 366.61 L 535.89 366.61 L 536.39 366.61 L 536.89 366.61 L 537.39 366.61 L 537.89 366.61 L 538.39 366.61 L 538.89 366.61 L 539.39 366.61 L 539.89 366.61 L 540.39 366.61 L 540.89 366.61 L 541.39 366.61 L 541.89 366.61 L 542.39 366.61 L 542.89 366.61 L 543.39 366.61 L 543.89 366.61 L 544.39 366.61 L 544.89 366.61 L 545.40 366.61 L 545.90 366.61 L 546.40 366.61 L 546.90 366.61 L 547.40 366.61 L 547.90 366.61 L 548.40 366.61 L 548.90 366.61 L 549.40 366.61 L 549.90 366.61 L 550.40 366.61 L 550.90 366.61 L 551.40 366.61 L 551.90 366.61 L 552.40 366.61 L 552.90 366.61 L 553.40 366.61 L 553.90 366.61 L 554.40 366.61 L 554.90 366.61 L 555.41 366.61 L 555.91 366.61 L 556.41 366.61 L 556.91 366.61 L 557.41 366.61 L 557.91 366.61 L 558.41 366.61 L 558.91 366.61 L 559.41 366.61 L 559.91 366.61 L 560.41 366.61 L 560.91 366.61 L 561.41 366.61 L 561.91 366.61 L 562.41 366.61 L 562.91 366.61 L 563.41 366.61 L 563.91 366.61 L 564.41 366.61 L 564.91 366.61 L 565.42 366.61 L 565.92 366.61 L 566.42 366.61 L 566.92 366.61 L 567.42 366.61 L 567.92 366.61 L 568.42 366.61 L 568.92 366.61 L 569.42 366.61 L 569.92 366.61 L 570.42 366.61 L 570.92 366.61 L 571.42 366.61 L 571.92 366.61 L 572.42 366.61 L 572.92 366.61 L 573.42 366.61 L 573.92 366.61 L 574.42 366.61 L 574.92 366.61 L 575.43 366.61 L 575.93 366.61 L 576.43 366.61 L 576.93 366.61 L 577.43 366.61 L 577.93 366.61 L 578.43 366.61 L 578.93 366.61 L 579.43 366.61 L 579.93 366.61 L 580.43 366.61 L 580.93 366.61 L 581.43 366.61 L 581.93 366.61 L 582.43 366.61 L 582.93 366.61 L 583.43 366.61 L 583.93 366.61 L 584.43 366.61 L 584.93 366.61 L 585.44 366.61 L 585.94 366.61 L 586.44 366.61 L 586.94 366.61 L 587.44 366.61 L 587.94 366.61 L 588.44 366.61 L 588.94 366.61 L 589.44 366.61 L 589.94 366.61 L 590.44 366.61 L 590.94 366.61 L 591.44 366.61 L 591.94 366.61 L 592.44 366.61 L 592.94 366.61 L 593.44 366.61 L 593.94 366.61 L 594.44 366.61 L 594.94 366.61 L 595.45 366.61 L 595.95 366.61 L 596.45 366.61 L 596.95 366.61 L 597.45 366.61 L 597.95 366.61 L 598.45 366.61 L 598.95 366.61 L 599.45 366.61 L 599.95 366.61 L 600.45 366.61 L 600.95 366.61 L 601.45 366.61 L 601.95 366.61 L 602.45 366.61 L 602.95 366.61 L 603.45 366.61 L 603.95 366.61 L 604.45 366.61 L 604.95 366.61 L 605.46 366.61 L 605.96 366.61 L 606.46 366.61 L 606.96 366.61 L 607.46 366.61 L 607.96 366.61 L 608.46 366.61 L 608.96 366.61 L 609.46 366.61 L 609.96 366.61 L 610.46 366.61 L 610.96 366.61 L 611.46 366.61 L 611.96 366.61 L 612.46 366.61 L 612.96 366.61 L 613.46 366.61 L 613.96 366.61 L 614.46 366.61 L 614.96 366.61 L 615.47 366.61 L 615.97 366.61 L 616.47 366.61 L 616.97 366.61 L 617.47 366.61 L 617.97 366.61 L 618.47 366.61 L 618.97 366.61 L 619.47 366.61 L 619.97 366.61 L 620.47 366.61 L 620.97 366.61 L 621.47 366.61 L 621.97 366.61 L 622.47 366.61 L 622.97 366.61 L 623.47 366.61 L 623.97 366.61 L 624.47 366.61 L 624.97 366.61 L 625.48 366.61 L 625.98 366.61 L 626.48 366.61 L 626.98 366.61 L 627.48 366.61 L 627.98 366.61 L 628.48 366.61 L 628.98 366.61 L 629.48 366.61 L 629.98 366.61 L 630.48 366.61 L 630.98 366.61 L 631.48 366.61 L 631.98 366.61 L 632.48 366.61 L 632.98 366.61 L 633.48 366.61 L 633.98 366.61 L 634.48 366.61 L 634.98 366.61 L 635.49 366.61 L 635.99 366.61 L 636.49 366.61 L 636.99 366.61 L 637.49 366.61 L 637.99 366.61 L 638.49 366.61 L 638.99 366.61 L 639.49 366.61 L 639.99 366.61 L 640.49 366.61 L 640.99 366.61 L 641.49 366.61 L 641.99 366.61 L 642.49 366.61 L 642.99 366.61 L 643.49 366.61 L 643.99 366.61 L 644.49 366.61 L 645.00 366.61 L 645.50 366.61 L 646.00 366.61 L 646.50 366.61 L 647.00 366.61 L 647.50 366.61 L 648.00 366.61 L 648.50 366.61 L 649.00 366.61 L 649.50 366.61 L 650.00 366.61" /><text  class="poloto_text poloto_legend_text" x="675" y="300" >derivative 3</text><line  class="poloto_line poloto_legend_icon poloto4stroke poloto4legend" stroke="black" x1="680" x2="730" y1="281.25" y2="281.25" /><path  class="poloto_line poloto4stroke" fill="none" stroke="black" d=" M 150.00 366.61 L 150.50 366.61 L 151.00 366.61 L 151.50 366.61 L 152.00 366.61 L 152.50 366.61 L 153.00 366.61 L 153.50 366.61 L 154.00 366.61 L 154.50 366.61 L 155.01 366.61 L 155.51 366.61 L 156.01 366.61 L 156.51 366.61 L 157.01 366.61 L 157.51 366.61 L 158.01 366.61 L 158.51 366.61 L 159.01 366.61 L 159.51 366.61 L 160.01 366.61 L 160.51 366.61 L 161.01 366.61 L 161.51 366.61 L 162.01 366.61 L 162.51 366.61 L 163.01 366.61 L 163.51 366.61 L 164.01 366.61 L 164.51 366.61 L 165.02 366.61 L 165.52 366.61 L 166.02 366.61 L 166.52 366.61 L 167.02 366.61 L 167.52 366.61 L 168.02 366.61 L 168.52 366.61 L 169.02 366.61 L 169.52 366.61 L 170.02 366.61 L 170.52 366.61 L 171.02 366.61 L 171.52 366.61 L 172.02 366.61 L 172.52 366.61 L 173.02 366.61 L 173.52 366.61 L 174.02 366.61 L 174.52 366.61 L 175.03 366.61 L 175.53 366.61 L 176.03 366.61 L 176.53 366.61 L 177.03 366.61 L 177.53 366.61 L 178.03 366.61 L 178.53 366.61 L 179.03 366.61 L 179.53 366.61 L 180.03 366.61 L 180.53 366.61 L 181.03 366.61 L 181.53 366.61 L 182.03 366.61 L 182.53 366.61 L 183.03 366.61 L 183.53 366.61 L 184.03 366.61 L 184.53 366.61 L 185.04 366.61 L 185.54 366.61 L 186.04 366.61 L 186.54 366.61 L 187.04 366.61 L 187.54 366.61 L 188.04 366.61 L 188.54 366.61 L 189.04 366.61 L 189.54 366.61 L 190.04 366.61 L 190.54 366.61 L 191.04 366.61 L 191.54 366.61 L 192.04 366.61 L 192.54 366.61 L 193.04 366.61 L 193.54 366.61 L 194.04 366.61 L 194.54 366.61 L 195.05 366.61 L 195.55 366.61 L 196.05 366.61 L 196.55 366.61 L 197.05 366.61 L 197.55 366.61 L 198.05 366.61 L 198.55 366.61 L 199.05 366.61 L 199.55 366.61 L 200.05 366.61 L 200.55 366.61 L 201.05 366.61 L 201.55 366.61 L 202.05 366.61 L 202.55 366.61 L 203.05 366.61 L 203.55 366.61 L 204.05 366.61 L 204.55 366.61 L 205.06 366.61 L 205.56 366.61 L 206.06 366.61 L 206.56 366.61 L 207.06 366.61 L 207.56 366.61 L 208.06 366.61 L 208.56 366.61 L 209.06 366.61 L 209.56 366.61 L 210.06 366.61 L 210.56 366.61 L 211.06 366.61 L 211.56 366.61 L 212.06 366.61 L 212.56 366.61 L 213.06 366.61 L 213.56 366.61 L 214.06 366.61 L 214.56 366.61 L 215.07 366.61 L 215.57 366.61 L 216.07 366.61 L 216.57 366.61 L 217.07 366.61 L 217.57 366.61 L 218.07 366.61 L 218.57 366.61 L 219.07 366.61 L 219.57 366.61 L 220.07 366.61 L 220.57 366.61 L 221.07 366.61 L 221.57 366.61 L 222.07 366.61 L 222.57 366.61 L 223.07 366.61 L 223.57 366.61 L 224.07 366.61 L 224.57 366.61 L 225.08 366.61 L 225.58 366.61 L 226.08 366.61 L 226.58 366.61 L 227.08 366.61 L 227.58 366.61 L 228.08 366.61 L 228.58 366.61 L 229.08 366.61 L 229.58 366.61 L 230.08 366.61 L 230.58 366.61 L 231.08 366.61 L 231.58 366.61 L 232.08 366.61 L 232.58 366.61 L 233.08 366.61 L 233.58 366.61 L 234.08 366.61 L 234.58 366.61 L 235.09 366.61 L 235.59 366.61 L 236.09 366.61 L 236.59 366.61 L 237.09 366.61 L 237.59 366.61 L 238.09 366.61 L 238.59 366.61 L 239.09 366.61 L 239.59 366.61 L 240.09 366.61 L 240.59 366.61 L 241.09 366.61 L 241.59 366.61 L 242.09 366.61 L 242.59 366.61 L 243.09 366.61 L 243.59 366.61 L 244.09 366.61 L 244.59 366.61 L 245.10 366.61 L 245.60 366.61 L 246.10 366.61 L 246.60 366.61 L 247.10 366.61 L 247.60 366.61 L 248.10 366.61 L 248.60 366.61 L 249.10 366.61 L 249.60 366.61 L 250.10 366.61 L 250.60 366.61 L 251.10 366.61 L 251.60 366.61 L 252.10 366.61 L 252.60 366.61 L 253.10 366.61 L 253.60 366.61 L 254.10 366.61 L 254.60 366.61 L 255.11 366.61 L 255.61 366.61 L 256.11 366.61 L 256.61 366.61 L 257.11 366.61 L 257.61 366.61 L 258.11 366.61 L 258.61 366.61 L 259.11 366.61 L 259.61 366.61 L 260.11 366.61 L 260.61 366.61 L 261.11 366.61 L 261.61 366.61 L 262.11 366.61 L 262.61 366.61 L 263.11 366.61 L 263.61 366.61 L 264.11 366.61 L 264.61 366.61 L 265.12 366.61 L 265.62 366.61 L 266.12 366.61 L 266.62 366.61 L 267.12 366.61 L 267.62 366.61 L 268.12 366.61 L 268.62 366.61 L 269.12 366.61 L 269.62 366.61 L 270.12 366.61 L 270.62 366.61 L 271.12 366.61 L 271.62 366.61 L 272.12 366.61 L 272.62 366.61 L 273.12 366.61 L 273.62 366.61 L 274.12 366.61 L 274.62 366.61 L 275.13 366.61 L 275.63 366.61 L 276.13 366.61 L 276.63 366.61 L 277.13 366.61 L 277.63 366.61 L 278.13 366.61 L 278.63 366.61 L 279.13 366.61 L 279.63 366.61 L 280.13 366.61 L 280.63 366.61 L 281.13 366.61 L 281.63 366.61 L 282.13 366.61 L 282.63 366.61 L 283.13 366.61 L 283.63 366.61 L 284.13 366.61 L 284.63 366.61 L 285.14 366.61 L 285.64 366.61 L 286.14 366.61 L 286.64 366.61 L 287.14 366.61 L 287.64 366.61 L 288.14 366.61 L 288.64 366.61 L 289.14 366.61 L 289.64 366.61 L 290.14 366.61 L 290.64 366.61 L 291.14 366.61 L 291.64 366.61 L 292.14 366.61 L 292.64 366.61 L 293.14 366.61 L 293.64 366.61 L 294.14 366.61 L 294.64 366.61 L 295.15 366.61 L 295.65 366.61 L 296.15 366.61 L 296.65 366.61 L 297.15 366.61 L 297.65 366.61 L 298.15 366.61 L 298.65 366.61 L 299.15 366.61 L 299.65 366.61 L 300.15 366.61 L 300.65 366.61 L 301.15 366.61 L 301.65 366.61 L 302.15 366.61 L 302.65 366.61 L 303.15 366.61 L 303.65 366.61 L 304.15 366.61 L 304.65 366.61 L 305.16 366.61 L 305.66 366.61 L 306.16 366.61 L 306.66 366.61 L 307.16 366.61 L 307.66 366.61 L 308.16 366.61 L 308.66 366.61 L 309.16 366.61 L 309.66 366.61 L 310.16 366.61 L 310.66 366.61 L 311.16 366.61 L 311.66 366.61 L 312.16 366.61 L 312.66 366.61 L 313.16 366.61 L 313.66 366.61 L 314.16 366.61 L 314.66 366.61 L 315.17 366.61 L 315.67 366.61 L 316.17 366.61 L 316.67 366.61 L 317.17 366.61 L 317.67 366.61 L 318.17 366.61 L 318.67 366.61 L 319.17 366.61 L 319.67 366.61 L 320.17 366.61 L 320.67 366.61 L 321.17 366.61 L 321.67 366.61 L 322.17 366.61 L 322.67 366.61 L 323.17 366.61 L 323.67 366.61 L 324.17 366.61 L 324.67 366.61 L 325.18 366.61 L 325.68 366.61 L 326.18 366.61 L 326.68 366.61 L 327.18 366.61 L 327.68 366.61 L 328.18 366.61 L 328.68 366.61 L 329.18 366.61 L 329.68 366.61 L 330.18 366.61 L 330.68 366.61 L 331.18 366.61 L 331.68 366.61 L 332.18 366.61 L 332.68 366.61 L 333.18 366.61 L 333.68 366.61 L 334.18 366.61 L 334.68 366.61 L 335.19 366.61 L 335.69 366.61 L 336.19 366.61 L 336.69 366.61 L 337.19 366.61 L 337.69 366.61 L 338.19 366.61 L 338.69 366.61 L 339.19 366.61 L 339.69 366.61 L 340.19 366.61 L 340.69 366.61 L 341.19 366.61 L 341.69 366.61 L 342.19 366.61 L 342.69 366.61 L 343.19 366.61 L 343.69 366.61 L 344.19 366.61 L 344.69 366.61 L 345.20 366.61 L 345.70 366.61 L 346.20 366.61 L 346.70 366.61 L 347.20 366.61 L 347.70 366.61 L 348.20 366.61 L 348.70 366.61 L 349.20 366.61 L 349.70 366.61 L 350.20 366.61 L 350.70 366.61 L 351.20 366.61 L 351.70 366.61 L 352.20 366.61 L 352.70 366.61 L 353.20 366.61 L 353.70 366.61 L 354.20 366.61 L 354.70 366.61 L 355.21 366.61 L 355.71 366.61 L 356.21 366.61 L 356.71 366.61 L 357.21 366.61 L 357.71 366.61 L 358.21 366.61 L 358.71 366.61 L 359.21 366.61 L 359.71 366.61 L 360.21 366.61 L 360.71 366.61 L 361.21 366.61 L 361.71 366.61 L 362.21 366.61 L 362.71 366.61 L 363.21 366.61 L 363.71 366.61 L 364.21 366.61 L 364.71 366.61 L 365.22 366.61 L 365.72 366.61 L 366.22 366.61 L 366.72 366.61 L 367.22 366.61 L 367.72 366.61 L 368.22 366.61 L 368.72 366.61 L 369.22 366.61 L 369.72 366.61 L 370.22 366.61 L 370.72 366.61 L 371.22 366.61 L 371.72 366.61 L 372.22 366.61 L 372.72 366.61 L 373.22 366.61 L 373.72 366.61 L 374.22 366.61 L 374.72 366.61 L 375.23 366.61 L 375.73 366.61 L 376.23 366.61 L 376.73 366.61 L 377.23 366.61 L 377.73 366.61 L 378.23 366.61 L 378.73 366.61 L 379.23 366.61 L 379.73 366.61 L 380.23 366.61 L 380.73 366.61 L 381.23 366.61 L 381.73 366.61 L 382.23 366.61 L 382.73 366.61 L 383.23 366.61 L 383.73 366.61 L 384.23 366.61 L 384.73 366.61 L 385.24 366.61 L 385.74 366.61 L 386.24 366.61 L 386.74 366.61 L 387.24 366.61 L 387.74 366.61 L 388.24 366.61 L 388.74 366.61 L 389.24 366.61 L 389.74 366.61 L 390.24 366.61 L 390.74 366.61 L 391.24 366.61 L 391.74 366.61 L 392.24 366.61 L 392.74 366.61 L 393.24 366.61 L 393.74 366.61 L 394.24 366.61 L 394.74 366.61 L 395.25 366.61 L 395.75 366.61 L 396.25 366.61 L 396.75 366.61 L 397.25 366.61 L 397.75 366.61 L 398.25 366.61 L 398.75 366.61 L 399.25 366.61 L 399.75 366.61 L 400.25 366.61 L 400.75 366.61 L 401.25 366.61 L 401.75 366.61 L 402.25 366.61 L 402.75 366.61 L 403.25 366.61 L 403.75 366.61 L 404.25 366.61 L 404.75 366.61 L 405.26 366.61 L 405.76 366.61 L 406.26 366.61 L 406.76 366.61 L 407.26 366.61 L 407.76 366.61 L 408.26 366.61 L 408.76 366.61 L 409.26 366.61 L 409.76 366.61 L 410.26 366.61 L 410.76 366.61 L 411.26 366.61 L 411.76 366.61 L 412.26 366.61 L 412.76 366.61 L 413.26 366.61 L 413.76 366.61 L 414.26 366.61 L 414.76 366.61 L 415.27 366.61 L 415.77 366.61 L 416.27 366.61 L 416.77 366.61 L 417.27 366.61 L 417.77 366.61 L 418.27 366.61 L 418.77 366.61 L 419.27 366.61 L 419.77 366.61 L 420.27 366.61 L 420.77 366.61 L 421.27 366.61 L 421.77 366.61 L 422.27 366.61 L 422.77 366.61 L 423.27 366.61 L 423.77 366.61 L 424.27 366.61 L 424.77 366.61 L 425.28 366.61 L 425.78 366.61 L 426.28 366.61 L 426.78 366.61 L 427.28 366.61 L 427.78 366.61 L 428.28 366.61 L 428.78 366.61 L 429.28 366.61 L 429.78 366.61 L 430.28 366.61 L 430.78 366.61 L 431.28 366.61 L 431.78 366.61 L 432.28 366.61 L 432.78 366.61 L 433.28 366.61 L 433.78 366.61 L 434.28 366.61 L 434.78 366.61 L 435.29 366.61 L 435.79 366.61 L 436.29 366.61 L 436.79 366.61 L 437.29 366.61 L 437.79 366.61 L 438.29 366.61 L 438.79 366.61 L 439.29 366.61 L 439.79 366.61 L 440.29 366.61 L 440.79 366.61 L 441.29 366.61 L 441.79 366.61 L 442.29 366.61 L 442.79 366.61 L 443.29 366.61 L 443.79 366.61 L 444.29 366.61 L 444.79 366.61 L 445.30 366.61 L 445.80 366.61 L 446.30 366.61 L 446.80 366.61 L 447.30 366.61 L 447.80 366.61 L 448.30 366.61 L 448.80 366.61 L 449.30 366.61 L 449.80 366.61 L 450.30 366.61 L 450.80 366.61 L 451.30 366.61 L 451.80 366.61 L 452.30 366.61 L 452.80 366.61 L 453.30 366.61 L 453.80 366.61 L 454.30 366.61 L 454.80 366.61 L 455.31 366.61 L 455.81 366.61 L 456.31 366.61 L 456.81 366.61 L 457.31 366.61 L 457.81 366.61 L 458.31 366.61 L 458.81 366.61 L 459.31 366.61 L 459.81 366.61 L 460.31 366.61 L 460.81 366.61 L 461.31 366.61 L 461.81 366.61 L 462.31 366.61 L 462.81 366.61 L 463.31 366.61 L 463.81 366.61 L 464.31 366.61 L 464.81 366.61 L 465.32 366.61 L 465.82 366.61 L 466.32 366.61 L 466.82 366.61 L 467.32 366.61 L 467.82 366.61 L 468.32 366.61 L 468.82 366.61 L 469.32 366.61 L 469.82 366.61 L 470.32 366.61 L 470.82 366.61 L 471.32 366.61 L 471.82 366.61 L 472.32 366.61 L 472.82 366.61 L 473.32 366.61 L 473.82 366.61 L 474.32 366.61 L 474.82 366.61 L 475.33 366.61 L 475.83 366.61 L 476.33 366.61 L 476.83 366.61 L 477.33 366.61 L 477.83 366.61 L 478.33 366.61 L 478.83 366.61 L 479.33 366.61 L 479.83 366.61 L 480.33 366.61 L 480.83 366.61 L 481.33 366.61 L 481.83 366.61 L 482.33 366.61 L 482.83 366.61 L 483.33 366.61 L 483.83 366.61 L 484.33 366.61 L 484.83 366.61 L 485.34 366.61 L 485.84 366.61 L 486.34 366.61 L 486.84 366.61 L 487.34 366.61 L 487.84 366.61 L 488.34 366.61 L 488.84 366.61 L 489.34 366.61 L 489.84 366.61 L 490.34 366.61 L 490.84 366.61 L 491.34 366.61 L 491.84 366.61 L 492.34 366.61 L 492.84 366.61 L 493.34 366.61 L 493.84 366.61 L 494.34 366.61 L 494.84 366.61 L 495.35 366.61 L 495.85 366.61 L 496.35 366.61 L 496.85 366.61 L 497.35 366.61 L 497.85 366.61 L 498.35 366.61 L 498.85 366.61 L 499.35 366.61 L 499.85 366.61 L 500.35 366.61 L 500.85 366.61 L 501.35 366.61 L 501.85 366.61 L 502.35 366.61 L 502.85 366.61 L 503.35 366.61 L 503.85 366.61 L 504.35 366.61 L 504.85 366.61 L 505.36 366.61 L 505.86 366.61 L 506.36 366.61 L 506.86 366.61 L 507.36 366.61 L 507.86 366.61 L 508.36 366.61 L 508.86 366.61 L 509.36 366.61 L 509.86 366.61 L 510.36 366.61 L 510.86 366.61 L 511.36 366.61 L 511.86 366.61 L 512.36 366.61 L 512.86 366.61 L 513.36 366.61 L 513.86 366.61 L 514.36 366.61 L 514.86 366.61 L 515.37 366.61 L 515.87 366.61 L 516.37 366.61 L 516.87 366.61 L 517.37 366.61 L 517.87 366.61 L 518.37 366.61 L 518.87 366.61 L 519.37 366.61 L 519.87 366.61 L 520.37 366.61 L 520.87 366.61 L 521.37 366.61 L 521.87 366.61 L 522.37 366.61 L 522.87 366.61 L 523.37 366.61 L 523.87 366.61 L 524.37 366.61 L 524.87 366.61 L 525.38 366.61 L 525.88 366.61 L 526.38 366.61 L 526.88 366.61 L 527.38 366.61 L 527.88 366.61 L 528.38 366.61 L 528.88 366.61 L 529.38 366.61 L 529.88 366.61 L 530.38 366.61 L 530.88 366.61 L 531.38 366.61 L 531.88 366.61 L 532.38 366.61 L 532.88 366.61 L 533.38 366.61 L 533.88 366.61 L 534.38 366.61 L 534.88 366.61 L 535.39 366.61 L 535.89 366.61 L 536.39 366.61 L 536.89 366.61 L 537.39 366.61 L 537.89 366.61 L 538.39 366.61 L 538.89 366.61 L 539.39 366.61 L 539.89 366.61 L 540.39 366.61 L 540.89 366.61 L 541.39 366.61 L 541.89 366.61 L 542.39 366.61 L 542.89 366.61 L 543.39 366.61 L 543.89 366.61 L 544.39 366.61 L 544.89 366.61 L 545.40 366.61 L 545.90 366.61 L 546.40 366.61 L 546.90 366.61 L 547.40 366.61 L 547.90 366.61 L 548.40 366.61 L 548.90 366.61 L 549.40 366.61 L 549.90 366.61 L 550.40 366.61 L 550.90 366.61 L 551.40 366.61 L 551.90 366.61 L 552.40 366.61 L 552.90 366.61 L 553.40 366.61 L 553.90 366.61 L 554.40 366.61 L 554.90 366.61 L 555.41 366.61 L 555.91 366.61 L 556.41 366.61 L 556.91 366.61 L 557.41 366.61 L 557.91 366.61 L 558.41 366.61 L 558.91 366.61 L 559.41 366.61 L 559.91 366.61 L 560.41 366.61 L 560.91 366.61 L 561.41 366.61 L 561.91 366.61 L 562.41 366.61 L 562.91 366.61 L 563.41 366.61 L 563.91 366.61 L 564.41 366.61 L 564.91 366.61 L 565.42 366.61 L 565.92 366.61 L 566.42 366.61 L 566.92 366.61 L 567.42 366.61 L 567.92 366.61 L 568.42 366.61 L 568.92 366.61 L 569.42 366.61 L 569.92 366.61 L 570.42 366.61 L 570.92 366.61 L 571.42 366.61 L 571.92 366.61 L 572.42 366.61 L 572.92 366.61 L 573.42 366.61 L 573.92 366.61 L 574.42 366.61 L 574.92 366.61 L 575.43 366.61 L 575.93 366.61 L 576.43 366.61 L 576.93 366.61 L 577.43 366.61 L 577.93 366.61 L 578.43 366.61 L 578.93 366.61 L 579.43 366.61 L 579.93 366.61 L 580.43 366.61 L 580.93 366.61 L 581.43 366.61 L 581.93 366.61 L 582.43 366.61 L 582.93 366.61 L 583.43 366.61 L 583.93 366.61 L 584.43 366.61 L 584.93 366.61 L 585.44 366.61 L 585.94 366.61 L 586.44 366.61 L 586.94 366.61 L 587.44 366.61 L 587.94 366.61 L 588.44 366.61 L 588.94 366.61 L 589.44 366.61 L 589.94 366.61 L 590.44 366.61 L 590.94 366.61 L 591.44 366.61 L 591.94 366.61 L 592.44 366.61 L 592.94 366.61 L 593.44 366.61 L 593.94 366.61 L 594.44 366.61 L 594.94 366.61 L 595.45 366.61 L 595.95 366.61 L 596.45 366.61 L 596.95 366.61 L 597.45 366.61 L 597.95 366.61 L 598.45 366.61 L 598.95 366.61 L 599.45 366.61 L 599.95 366.61 L 600.45 366.61 L 600.95 366.61 L 601.45 366.61 L 601.95 366.61 L 602.45 366.61 L 602.95 366.61 L 603.45 366.61 L 603.95 366.61 L 604.45 366.61 L 604.95 366.61 L 605.46 366.61 L 605.96 366.61 L 606.46 366.61 L 606.96 366.61 L 607.46 366.61 L 607.96 366.61 L 608.46 366.61 L 608.96 366.61 L 609.46 366.61 L 609.96 366.61 L 610.46 366.61 L 610.96 366.61 L 611.46 366.61 L 611.96 366.61 L 612.46 366.61 L 612.96 366.61 L 613.46 366.61 L 613.96 366.61 L 614.46 366.61 L 614.96 366.61 L 615.47 366.61 L 615.97 366.61 L 616.47 366.61 L 616.97 366.61 L 617.47 366.61 L 617.97 366.61 L 618.47 366.61 L 618.97 366.61 L 619.47 366.61 L 619.97 366.61 L 620.47 366.61 L 620.97 366.61 L 621.47 366.61 L 621.97 366.61 L 622.47 366.61 L 622.97 366.61 L 623.47 366.61 L 623.97 366.61 L 624.47 366.61 L 624.97 366.61 L 625.48 366.61 L 625.98 366.61 L 626.48 366.61 L 626.98 366.61 L 627.48 366.61 L 627.98 366.61 L 628.48 366.61 L 628.98 366.61 L 629.48 366.61 L 629.98 366.61 L 630.48 366.61 L 630.98 366.61 L 631.48 366.61 L 631.98 366.61 L 632.48 366.61 L 632.98 366.61 L 633.48 366.61 L 633.98 366.61 L 634.48 366.61 L 634.98 366.61 L 635.49 366.61 L 635.99 366.61 L 636.49 366.61 L 636.99 366.61 L 637.49 366.61 L 637.99 366.61 L 638.49 366.61 L 638.99 366.61 L 639.49 366.61 L 639.99 366.61 L 640.49 366.61 L 640.99 366.61 L 641.49 366.61 L 641.99 366.61 L 642.49 366.61 L 642.99 366.61 L 643.49 366.61 L 643.99 366.61 L 644.49 366.61 L 645.00 366.61 L 645.50 366.61 L 646.00 366.61 L 646.50 366.61 L 647.00 366.61 L 647.50 366.61 L 648.00 366.61 L 648.50 366.61 L 649.00 366.61 L 649.50 366.61 L 650.00 366.61" /><text  class="poloto_text poloto_legend_text" x="675" y="350" >derivative 4</text><line  class="poloto_line poloto_legend_icon poloto5stroke poloto5legend" stroke="black" x1="680" x2="730" y1="331.25" y2="331.25" /><path  class="poloto_line poloto5stroke" fill="none" stroke="black" d=" M 150.00 366.61 L 150.50 366.61 L 151.00 366.61 L 151.50 366.61 L 152.00 366.61 L 152.50 366.61 L 153.00 366.61 L 153.50 366.61 L 154.00 366.61 L 154.50 366.61 L 155.01 366.61 L 155.51 366.61 L 156.01 366.61 L 156.51 366.61 L 157.01 366.61 L 157.51 366.61 L 158.01 366.61 L 158.51 366.61 L 159.01 366.61 L 159.51 366.61 L 160.01 366.61 L 160.51 366.61 L 161.01 366.61 L 161.51 366.61 L 162.01 366.61 L 162.51 366.61 L 163.01 366.61 L 163.51 366.61 L 164.01 366.61 L 164.51 366.61 L 165.02 366.61 L 165.52 366.61 L 166.02 366.61 L 166.52 366.61 L 167.02 366.61 L 167.52 366.61 L 168.02 366.61 L 168.52 366.61 L 169.02 366.61 L 169.52 366.61 L 170.02 366.61 L 170.52 366.61 L 171.02 366.61 L 171.52 366.61 L 172.02 366.61 L 172.52 366.61 L 173.02 366.61 L 173.52 366.61 L 174.02 366.61 L 174.52 366.61 L 175.03 366.61 L 175.53 366.61 L 176.03 366.61 L 176.53 366.61 L 177.03 366.61 L 177.53 366.61 L 178.03 366.61 L 178.53 366.61 L 179.03 366.61 L 179.53 366.61 L 180.03 366.61 L 180.53 366.61 L 181.03 366.61 L 181.53 366.61 L 182.03 366.61 L 182.53 366.61 L 183.03 366.61 L 183.53 366.61 L 184.03 366.61 L 184.53 366.61 L 185.04 366.61 L 185.54 366.61 L 186.04 366.61 L 186.54 366.61 L 187.04 366.61 L 187.54 366.61 L 188.04 366.61 L 188.54 366.61 L 189.04 366.61 L 189.54 366.61 L 190.04 366.61 L 190.54 366.61 L 191.04 366.61 L 191.54 366.61 L 192.04 366.61 L 192.54 366.61 L 193.04 366.61 L 193.54 366.61 L 194.04 366.61 L 194.54 366.61 L 195.05 366.61 L 195.55 366.61 L 196.05 366.61 L 196.55 366.61 L 197.05 366.61 L 197.55 366.61 L 198.05 366.61 L 198.55 366.61 L 199.05 366.61 L 199.55 366.61 L 200.05 366.61 L 200.55 366.61 L 201.05 366.61 L 201.55 366.61 L 202.05 366.61 L 202.55 366.61 L 203.05 366.61 L 203.55 366.61 L 204.05 366.61 L 204.55 366.61 L 205.06 366.61 L 205.56 366.61 L 206.06 366.61 L 206.56 366.61 L 207.06 366.61 L 207.56 366.61 L 208.06 366.61 L 208.56 366.61 L 209.06 366.61 L 209.56 366.61 L 210.06 366.61 L 210.56 366.61 L 211.06 366.61 L 211.56 366.61 L 212.06 366.61 L 212.56 366.61 L 213.06 366.61 L 213.56 366.61 L 214.06 366.61 L 214.56 366.61 L 215.07 366.61 L 215.57 366.61 L 216.07 366.61 L 216.57 366.61 L 217.07 366.61 L 217.57 366.61 L 218.07 366.61 L 218.57 366.61 L 219.07 366.61 L 219.57 366.61 L 220.07 366.61 L 220.57 366.61 L 221.07 366.61 L 221.57 366.61 L 222.07 366.61 L 222.57 366.61 L 223.07 366.61 L 223.57 366.61 L 224.07 366.61 L 224.57 366.61 L 225.08 366.61 L 225.58 366.61 L 226.08 366.61 L 226.58 366.61 L 227.08 366.61 L 227.58 366.61 L 228.08 366.61 L 228.58 366.61 L 229.08 366.61 L 229.58 366.61 L 230.08 366.61 L 230.58 366.61 L 231.08 366.61 L 231.58 366.61 L 232.08 366.61 L 232.58 366.61 L 233.08 366.61 L 233.58 366.61 L 234.08 366.61 L 234.58 366.61 L 235.09 366.61 L 235.59 366.61 L 236.09 366.61 L 236.59 366.61 L 237.09 366.61 L 237.59 366.61 L 238.09 366.61 L 238.59 366.61 L 239.09 366.61 L 239.59 366.61 L 240.09 366.61 L 240.59 366.61 L 241.09 366.61 L 241.59 366.61 L 242.09 366.61 L 242.59 366.61 L 243.09 366.61 L 243.59 366.61 L 244.09 366.61 L 244.59 366.61 L 245.10 366.61 L 245.60 366.61 L 246.10 366.61 L 246.60 366.61 L 247.10 366.61 L 247.60 366.61 L 248.10 366.61 L 248.60 366.61 L 249.10 366.61 L 249.60 366.61 L 250.10 366.61 L 250.60 366.61 L 251.10 366.61 L 251.60 366.61 L 252.10 366.61 L 252.60 366.61 L 253.10 366.61 L 253.60 366.61 L 254.10 366.61 L 254.60 366.61 L 255.11 366.61 L 255.61 366.61 L 256.11 366.61 L 256.61 366.61 L 257.11 366.61 L 257.61 366.61 L 258.11 366.61 L 258.61 366.61 L 259.11 366.61 L 259.61 366.61 L 260.11 366.61 L 260.61 366.61 L 261.11 366.61 L 261.61 366.61 L 262.11 366.61 L 262.61 366.61 L 263.11 366.61 L 263.61 366.61 L 264.11 366.61 L 264.61 366.61 L 265.12 366.61 L 265.62 366.61 L 266.12 366.61 L 266.62 366.61 L 267.12 366.61 L 267.62 366.61 L 268.12 366.61 L 268.62 366.61 L 269.12 366.61 L 269.62 366.61 L 270.12 366.61 L 270.62 366.61 L 271.12 366.61 L 271.62 366.61 L 272.12 366.61 L 272.62 366.61 L 273.12 366.61 L 273.62 366.61 L 274.12 366.61 L 274.62 366.61 L 275.13 366.61 L 275.63 366.61 L 276.13 366.61 L 276.63 366.61 L 277.13 366.61 L 277.63 366.61 L 278.13 366.61 L 278.63 366.61 L 279.13 366.61 L 279.63 366.61 L 280.13 366.61 L 280.63 366.61 L 281.13 366.61 L 281.63 366.61 L 282.13 366.61 L 282.63 366.61 L 283.13 366.61 L 283.63 366.61 L 284.13 366.61 L 284.63 366.61 L 285.14 366.61 L 285.64 366.61 L 286.14 366.61 L 286.64 366.61 L 287.14 366.61 L 287.64 366.61 L 288.14 366.61 L 288.64 366.61 L 289.14 366.61 L 289.64 366.61 L 290.14 366.61 L 290.64 366.61 L 291.14 366.61 L 291.64 366.61 L 292.14 366.61 L 292.64 366.61 L 293.14 366.61 L 293.64 366.61 L 294.14 366.61 L 294.64 366.61 L 295.15 366.61 L 295.65 366.61 L 296.15 366.61 L 296.65 366.61 L 297.15 366.61 L 297.65 366.61 L 298.15 366.61 L 298.65 366.61 L 299.15 366.61 L 299.65 366.61 L 300.15 366.61 L 300.65 366.61 L 301.15 366.61 L 301.65 366.61 L 302.15 366.61 L 302.65 366.61 L 303.15 366.61 L 303.65 366.61 L 304.15 366.61 L 304.65 366.61 L 305.16 366.61 L 305.66 366.61 L 306.16 366.61 L 306.66 366.61 L 307.16 366.61 L 307.66 366.61 L 308.16 366.61 L 308.66 366.61 L 309.16 366.61 L 309.66 366.61 L 310.16 366.61 L 310.66 366.61 L 311.16 366.61 L 311.66 366.61 L 312.16 366.61 L 312.66 366.61 L 313.16 366.61 L 313.66 366.61 L 314.16 366.61 L 314.66 366.61 L 315.17 366.61 L 315.67 366.61 L 316.17 366.61 L 316.67 366.61 L 317.17 366.61 L 317.67 366.61 L 318.17 366.61 L 318.67 366.61 L 319.17 366.61 L 319.67 366.61 L 320.17 366.61 L 320.67 366.61 L 321.17 366.61 L 321.67 366.61 L 322.17 366.61 L 322.67 366.61 L 323.17 366.61 L 323.67 366.61 L 324.17 366.61 L 324.67 366.61 L 325.18 366.61 L 325.68 366.61 L 326.18 366.61 L 326.68 366.61 L 327.18 366.61 L 327.68 366.61 L 328.18 366.61 L 328.68 366.61 L 329.18 366.61 L 329.68 366.61 L 330.18 366.61 L 330.68 366.61 L 331.18 366.61 L 331.68 366.61 L 332.18 366.61 L 332.68 366.61 L 333.18 366.61 L 333.68 366.61 L 334.18 366.61 L 334.68 366.61 L 335.19 366.61 L 335.69 366.61 L 336.19 366.61 L 336.69 366.61 L 337.19 366.61 L 337.69 366.61 L 338.19 366.61 L 338.69 366.61 L 339.19 366.61 L 339.69 366.61 L 340.19 366.61 L 340.69 366.61 L 341.19 366.61 L 341.69 366.61 L 342.19 366.61 L 342.69 366.61 L 343.19 366.61 L 343.69 366.61 L 344.19 366.61 L 344.69 366.61 L 345.20 366.61 L 345.70 366.61 L 346.20 366.61 L 346.70 366.61 L 347.20 366.61 L 347.70 366.61 L 348.20 366.61 L 348.70 366.61 L 349.20 366.61 L 349.70 366.61 L 350.20 366.61 L 350.70 366.61 L 351.20 366.61 L 351.70 366.61 L 352.20 366.61 L 352.70 366.61 L 353.20 366.61 L 353.70 366.61 L 354.20 366.61 L 354.70 366.61 L 355.21 366.61 L 355.71 366.61 L 356.21 366.61 L 356.71 366.61 L 357.21 366.61 L 357.71 366.61 L 358.21 366.61 L 358.71 366.61 L 359.21 366.61 L 359.71 366.61 L 360.21 366.61 L 360.71 366.61 L 361.21 366.61 L 361.71 366.61 L 362.21 366.61 L 362.71 366.61 L 363.21 366.61 L 363.71 366.61 L 364.21 366.61 L 364.71 366.61 L 365.22 366.61 L 365.72 366.61 L 366.22 366.61 L 366.72 366.61 L 367.22 366.61 L 367.72 366.61 L 368.22 366.61 L 368.72 366.61 L 369.22 366.61 L 369.72 366.61 L 370.22 366.61 L 370.72 366.61 L 371.22 366.61 L 371.72 366.61 L 372.22 366.61 L 372.72 366.61 L 373.22 366.61 L 373.72 366.61 L 374.22 366.61 L 374.72 366.61 L 375.23 366.61 L 375.73 366.61 L 376.23 366.61 L 376.73 366.61 L 377.23 366.61 L 377.73 366.61 L 378.23 366.61 L 378.73 366.61 L 379.23 366.61 L 379.73 366.61 L 380.23 366.61 L 380.73 366.61 L 381.23 366.61 L 381.73 366.61 L 382.23 366.61 L 382.73 366.61 L 383.23 366.61 L 383.73 366.61 L 384.23 366.61 L 384.73 366.61 L 385.24 366.61 L 385.74 366.61 L 386.24 366.61 L 386.74 366.61 L 387.24 366.61 L 387.74 366.61 L 388.24 366.61 L 388.74 366.61 L 389.24 366.61 L 389.74 366.61 L 390.24 366.61 L 390.74 366.61 L 391.24 366.61 L 391.74 366.61 L 392.24 366.61 L 392.74 366.61 L 393.24 366.61 L 393.74 366.61 L 394.24 366.61 L 394.74 366.61 L 395.25 366.61 L 395.75 366.61 L 396.25 366.61 L 396.75 366.61 L 397.25 366.61 L 397.75 366.61 L 398.25 366.61 L 398.75 366.61 L 399.25 366.61 L 399.75 366.61 L 400.25 366.61 L 400.75 366.61 L 401.25 366.61 L 401.75 366.61 L 402.25 366.61 L 402.75 366.61 L 403.25 366.61 L 403.75 366.61 L 404.25 366.61 L 404.75 366.61 L 405.26 366.61 L 405.76 366.61 L 406.26 366.61 L 406.76 366.61 L 407.26 366.61 L 407.76 366.61 L 408.26 366.61 L 408.76 366.61 L 409.26 366.61 L 409.76 366.61 L 410.26 366.61 L 410.76 366.61 L 411.26 366.61 L 411.76 366.61 L 412.26 366.61 L 412.76 366.61 L 413.26 366.61 L 413.76 366.61 L 414.26 366.61 L 414.76 366.61 L 415.27 366.61 L 415.77 366.61 L 416.27 366.61 L 416.77 366.61 L 417.27 366.61 L 417.77 366.61 L 418.27 366.61 L 418.77 366.61 L 419.27 366.61 L 419.77 366.61 L 420.27 366.61 L 420.77 366.61 L 421.27 366.61 L 421.77 366.61 L 422.27 366.61 L 422.77 366.61 L 423.27 366.61 L 423.77 366.61 L 424.27 366.61 L 424.77 366.61 L 425.28 366.61 L 425.78 366.61 L 426.28 366.61 L 426.78 366.61 L 427.28 366.61 L 427.78 366.61 L 428.28 366.61 L 428.78 366.61 L 429.28 366.61 L 429.78 366.61 L 430.28 366.61 L 430.78 366.61 L 431.28 366.61 L 431.78 366.61 L 432.28 366.61 L 432.78 366.61 L 433.28 366.61 L 433.78 366.61 L 434.28 366.61 L 434.78 366.61 L 435.29 366.61 L 435.79 366.61 L 436.29 366.61 L 436.79 366.61 L 437.29 366.61 L 437.79 366.61 L 438.29 366.61 L 438.79 366.61 L 439.29 366.61 L 439.79 366.61 L 440.29 366.61 L 440.79 366.61 L 441.29 366.61 L 441.79 366.61 L 442.29 366.61 L 442.79 366.61 L 443.29 366.61 L 443.79 366.61 L 444.29 366.61 L 444.79 366.61 L 445.30 366.61 L 445.80 366.61 L 446.30 366.61 L 446.80 366.61 L 447.30 366.61 L 447.80 366.61 L 448.30 366.61 L 448.80 366.61 L 449.30 366.61 L 449.80 366.61 L 450.30 366.61 L 450.80 366.61 L 451.30 366.61 L 451.80 366.61 L 452.30 366.61 L 452.80 366.61 L 453.30 366.61 L 453.80 366.61 L 454.30 366.61 L 454.80 366.61 L 455.31 366.61 L 455.81 366.61 L 456.31 366.61 L 456.81 366.61 L 457.31 366.61 L 457.81 366.61 L 458.31 366.61 L 458.81 366.61 L 459.31 366.61 L 459.81 366.61 L 460.31 366.61 L 460.81 366.61 L 461.31 366.61 L 461.81 366.61 L 462.31 366.61 L 462.81 366.61 L 463.31 366.61 L 463.81 366.61 L 464.31 366.61 L 464.81 366.61 L 465.32 366.61 L 465.82 366.61 L 466.32 366.61 L 466.82 366.61 L 467.32 366.61 L 467.82 366.61 L 468.32 366.61 L 468.82 366.61 L 469.32 366.61 L 469.82 366.61 L 470.32 366.61 L 470.82 366.61 L 471.32 366.61 L 471.82 366.61 L 472.32 366.61 L 472.82 366.61 L 473.32 366.61 L 473.82 366.61 L 474.32 366.61 L 474.82 366.61 L 475.33 366.61 L 475.83 366.61 L 476.33 366.61 L 476.83 366.61 L 477.33 366.61 L 477.83 366.61 L 478.33 366.61 L 478.83 366.61 L 479.33 366.61 L 479.83 366.61 L 480.33 366.61 L 480.83 366.61 L 481.33 366.61 L 481.83 366.61 L 482.33 366.61 L 482.83 366.61 L 483.33 366.61 L 483.83 366.61 L 484.33 366.61 L 484.83 366.61 L 485.34 366.61 L 485.84 366.61 L 486.34 366.61 L 486.84 366.61 L 487.34 366.61 L 487.84 366.61 L 488.34 366.61 L 488.84 366.61 L 489.34 366.61 L 489.84 366.61 L 490.34 366.61 L 490.84 366.61 L 491.34 366.61 L 491.84 366.61 L 492.34 366.61 L 492.84 366.61 L 493.34 366.61 L 493.84 366.61 L 494.34 366.61 L 494.84 366.61 L 495.35 366.61 L 495.85 366.61 L 496.35 366.61 L 496.85 366.61 L 497.35 366.61 L 497.85 366.61 L 498.35 366.61 L 498.85 366.61 L 499.35 366.61 L 499.85 366.61 L 500.35 366.61 L 500.85 366.61 L 501.35 366.61 L 501.85 366.61 L 502.35 366.61 L 502.85 366.61 L 503.35 366.61 L 503.85 366.61 L 504.35 366.61 L 504.85 366.61 L 505.36 366.61 L 505.86 366.61 L 506.36 366.61 L 506.86 366.61 L 507.36 366.61 L 507.86 366.61 L 508.36 366.61 L 508.86 366.61 L 509.36 366.61 L 509.86 366.61 L 510.36 366.61 L 510.86 366.61 L 511.36 366.61 L 511.86 366.61 L 512.36 366.61 L 512.86 366.61 L 513.36 366.61 L 513.86 366.61 L 514.36 366.61 L 514.86 366.61 L 515.37 366.61 L 515.87 366.61 L 516.37 366.61 L 516.87 366.61 L 517.37 366.61 L 517.87 366.61 L 518.37 366.61 L 518.87 366.61 L 519.37 366.61 L 519.87 366.61 L 520.37 366.61 L 520.87 366.61 L 521.37 366.61 L 521.87 366.61 L 522.37 366.61 L 522.87 366.61 L 523.37 366.61 L 523.87 366.61 L 524.37 366.61 L 524.87 366.61 L 525.38 366.61 L 525.88 366.61 L 526.38 366.61 L 526.88 366.61 L 527.38 366.61 L 527.88 366.61 L 528.38 366.61 L 528.88 366.61 L 529.38 366.61 L 529.88 366.61 L 530.38 366.61 L 530.88 366.61 L 531.38 366.61 L 531.88 366.61 L 532.38 366.61 L 532.88 366.61 L 533.38 366.61 L 533.88 366.61 L 534.38 366.61 L 534.88 366.61 L 535.39 366.61 L 535.89 366.61 L 536.39 366.61 L 536.89 366.61 L 537.39 366.61 L 537.89 366.61 L 538.39 366.61 L 538.89 366.61 L 539.39 366.61 L 539.89 366.61 L 540.39 366.61 L 540.89 366.61 L 541.39 366.61 L 541.89 366.61 L 542.39 366.61 L 542.89 366.61 L 543.39 366.61 L 543.89 366.61 L 544.39 366.61 L 544.89 366.61 L 545.40 366.61 L 545.90 366.61 L 546.40 366.61 L 546.90 366.61 L 547.40 366.61 L 547.90 366.61 L 548.40 366.61 L 548.90 366.61 L 549.40 366.61 L 549.90 366.61 L 550.40 366.61 L 550.90 366.61 L 551.40 366.61 L 551.90 366.61 L 552.40 366.61 L 552.90 366.61 L 553.40 366.61 L 553.90 366.61 L 554.40 366.61 L 554.90 366.61 L 555.41 366.61 L 555.91 366.61 L 556.41 366.61 L 556.91 366.61 L 557.41 366.61 L 557.91 366.61 L 558.41 366.61 L 558.91 366.61 L 559.41 366.61 L 559.91 366.61 L 560.41 366.61 L 560.91 366.61 L 561.41 366.61 L 561.91 366.61 L 562.41 366.61 L 562.91 366.61 L 563.41 366.61 L 563.91 366.61 L 564.41 366.61 L 564.91 366.61 L 565.42 366.61 L 565.92 366.61 L 566.42 366.61 L 566.92 366.61 L 567.42 366.61 L 567.92 366.61 L 568.42 366.61 L 568.92 366.61 L 569.42 366.61 L 569.92 366.61 L 570.42 366.61 L 570.92 366.61 L 571.42 366.61 L 571.92 366.61 L 572.42 366.61 L 572.92 366.61 L 573.42 366.61 L 573.92 366.61 L 574.42 366.61 L 574.92 366.61 L 575.43 366.61 L 575.93 366.61 L 576.43 366.61 L 576.93 366.61 L 577.43 366.61 L 577.93 366.61 L 578.43 366.61 L 578.93 366.61 L 579.43 366.61 L 579.93 366.61 L 580.43 366.61 L 580.93 366.61 L 581.43 366.61 L 581.93 366.61 L 582.43 366.61 L 582.93 366.61 L 583.43 366.61 L 583.93 366.61 L 584.43 366.61 L 584.93 366.61 L 585.44 366.61 L 585.94 366.61 L 586.44 366.61 L 586.94 366.61 L 587.44 366.61 L 587.94 366.61 L 588.44 366.61 L 588.94 366.61 L 589.44 366.61 L 589.94 366.61 L 590.44 366.61 L 590.94 366.61 L 591.44 366.61 L 591.94 366.61 L 592.44 366.61 L 592.94 366.61 L 593.44 366.61 L 593.94 366.61 L 594.44 366.61 L 594.94 366.61 L 595.45 366.61 L 595.95 366.61 L 596.45 366.61 L 596.95 366.61 L 597.45 366.61 L 597.95 366.61 L 598.45 366.61 L 598.95 366.61 L 599.45 366.61 L 599.95 366.61 L 600.45 366.61 L 600.95 366.61 L 601.45 366.61 L 601.95 366.61 L 602.45 366.61 L 602.95 366.61 L 603.45 366.61 L 603.95 366.61 L 604.45 366.61 L 604.95 366.61 L 605.46 366.61 L 605.96 366.61 L 606.46 366.61 L 606.96 366.61 L 607.46 366.61 L 607.96 366.61 L 608.46 366.61 L 608.96 366.61 L 609.46 366.61 L 609.96 366.61 L 610.46 366.61 L 610.96 366.61 L 611.46 366.61 L 611.96 366.61 L 612.46 366.61 L 612.96 366.61 L 613.46 366.61 L 613.96 366.61 L 614.46 366.61 L 614.96 366.61 L 615.47 366.61 L 615.97 366.61 L 616.47 366.61 L 616.97 366.61 L 617.47 366.61 L 617.97 366.61 L 618.47 366.61 L 618.97 366.61 L 619.47 366.61 L 619.97 366.61 L 620.47 366.61 L 620.97 366.61 L 621.47 366.61 L 621.97 366.61 L 622.47 366.61 L 622.97 366.61 L 623.47 366.61 L 623.97 366.61 L 624.47 366.61 L 624.97 366.61 L 625.48 366.61 L 625.98 366.61 L 626.48 366.61 L 626.98 366.61 L 627.48 366.61 L 627.98 366.61 L 628.48 366.61 L 628.98 366.61 L 629.48 366.61 L 629.98 366.61 L 630.48 366.61 L 630.98 366.61 L 631.48 366.61 L 631.98 366.61 L 632.48 366.61 L 632.98 366.61 L 633.48 366.61 L 633.98 366.61 L 634.48 366.61 L 634.98 366.61 L 635.49 366.61 L 635.99 366.61 L 636.49 366.61 L 636.99 366.61 L 637.49 366.61 L 637.99 366.61 L 638.49 366.61 L 638.99 366.61 L 639.49 366.61 L 639.99 366.61 L 640.49 366.61 L 640.99 366.61 L 641.49 366.61 L 641.99 366.61 L 642.49 366.61 L 642.99 366.61 L 643.49 366.61 L 643.99 366.61 L 644.49 366.61 L 645.00 366.61 L 645.50 366.61 L 646.00 366.61 L 646.50 366.61 L 647.00 366.61 L 647.50 366.61 L 648.00 366.61 L 648.50 366.61 L 649.00 366.61 L 649.50 366.61 L 650.00 366.61" /><text  class="poloto_labels poloto_text poloto_title" x="400" y="37.5" >bspline example 1 b</text><text  class="poloto_labels poloto_text poloto_xname" x="400" y="481.25" >x</text><text  class="poloto_labels poloto_text poloto_yname" transform="rotate(-90,37.5,250)" x="37.5" y="250" >y</text><text  class="poloto_tick_labels poloto_text" dominant-baseline="middle" text-anchor="start" x="150" y="70" ></text><line  class="poloto_axis_lines" stroke="black" x1="150" x2="144" y1="366.6110170881249" y2="366.6110170881249" /><text  class="poloto_tick_labels poloto_text" dominant-baseline="middle" text-anchor="end" x="135" y="366.6110170881249" >0</text><line  class="poloto_axis_lines" stroke="black" x1="150" x2="144" y1="299.8330512643748" y2="299.8330512643748" /><text  class="poloto_tick_labels poloto_text" dominant-baseline="middle" text-anchor="end" x="135" y="299.8330512643748" >2</text><line  class="poloto_axis_lines" stroke="black" x1="150" x2="144" y1="233.05508544062462" y2="233.05508544062462" /><text  class="poloto_tick_labels poloto_text" dominant-baseline="middle" text-anchor="end" x="135" y="233.05508544062462" >4</text><line  class="poloto_axis_lines" stroke="black" x1="150" x2="144" y1="166.27711961687447" y2="166.27711961687447" /><text  class="poloto_tick_labels poloto_text" dominant-baseline="middle" text-anchor="end" x="135" y="166.27711961687447" >6</text><text  class="poloto_tick_labels poloto_text" dominant-baseline="middle" text-anchor="start" x="440.00000000000006" y="70" ></text><line  class="poloto_axis_lines" stroke="black" x1="150" x2="150" y1="400" y2="405" /><text  class="poloto_tick_labels poloto_text" dominant-baseline="start" text-anchor="middle" x="150" y="430" >0.0</text><line  class="poloto_axis_lines" stroke="black" x1="200.0500511967515" x2="200.0500511967515" y1="400" y2="405" /><text  class="poloto_tick_labels poloto_text" dominant-baseline="start" text-anchor="middle" x="200.0500511967515" y="430" >0.5</text><line  class="poloto_axis_lines" stroke="black" x1="250.10010239350302" x2="250.10010239350302" y1="400" y2="405" /><text  class="poloto_tick_labels poloto_text" dominant-baseline="start" text-anchor="middle" x="250.10010239350302" y="430" >1.0</text><line  class="poloto_axis_lines" stroke="black" x1="300.15015359025455" x2="300.15015359025455" y1="400" y2="405" /><text  class="poloto_tick_labels poloto_text" dominant-baseline="start" text-anchor="middle" x="300.15015359025455" y="430" >1.5</text><line  class="poloto_axis_lines" stroke="black" x1="350.20020478700604" x2="350.20020478700604" y1="400" y2="405" /><text  class="poloto_tick_labels poloto_text" dominant-baseline="start" text-anchor="middle" x="350.20020478700604" y="430" >2.0</text><line  class="poloto_axis_lines" stroke="black" x1="400.25025598375754" x2="400.25025598375754" y1="400" y2="405" /><text  class="poloto_tick_labels poloto_text" dominant-baseline="start" text-anchor="middle" x="400.25025598375754" y="430" >2.5</text><line  class="poloto_axis_lines" stroke="black" x1="450.3003071805091" x2="450.3003071805091" y1="400" y2="405" /><text  class="poloto_tick_labels poloto_text" dominant-baseline="start" text-anchor="middle" x="450.3003071805091" y="430" >3.0</text><line  class="poloto_axis_lines" stroke="black" x1="500.3503583772606" x2="500.3503583772606" y1="400" y2="405" /><text  class="poloto_tick_labels poloto_text" dominant-baseline="start" text-anchor="middle" x="500.3503583772606" y="430" >3.5</text><line  class="poloto_axis_lines" stroke="black" x1="550.4004095740121" x2="550.4004095740121" y1="400" y2="405" /><text  class="poloto_tick_labels poloto_text" dominant-baseline="start" text-anchor="middle" x="550.4004095740121" y="430" >4.0</text><line  class="poloto_axis_lines" stroke="black" x1="600.4504607707636" x2="600.4504607707636" y1="400" y2="405" /><text  class="poloto_tick_labels poloto_text" dominant-baseline="start" text-anchor="middle" x="600.4504607707636" y="430" >4.5</text><path  stroke="black" fill="none" class="poloto_axis_lines" style="stroke-dasharray:5.005005119675151;stroke-dashoffset:-0;" d=" M 150 400 L 650 400" /><path  stroke="black" fill="none" class="poloto_axis_lines" style="stroke-dasharray:8.347245727968769;stroke-dashoffset:-33.388982911875075;" d=" M 150 400 L 150 100" /></svg>