<svg class="poloto" width="800" height="500" viewBox="0 0 800 500" xmlns="http://www.w3.org/2000/svg"><style>.poloto{stroke-linecap:round;stroke-linejoin:round;font-family:Roboto,sans-serif;font-size:16px;}.poloto_background{fill:AliceBlue;}.poloto_scatter{stroke-width:7}.poloto_tick_line{stroke:gray;stroke-width:0.5}.poloto_line{stroke-width:2}.poloto_text{fill: black;}.poloto_axis_lines{stroke: black;stroke-width:3;fill:none;stroke-dasharray:none}.poloto_title{font-size:24px;dominant-baseline:start;text-anchor:middle;}.poloto_xname{font-size:24px;dominant-baseline:start;text-anchor:middle;}.poloto_yname{font-size:24px;dominant-baseline:start;text-anchor:middle;}.poloto_legend_text{font-size:20px;dominant-baseline:middle;text-anchor:start;}.poloto0stroke{stroke:blue;}.poloto1stroke{stroke:red;}.poloto2stroke{stroke:green;}.poloto3stroke{stroke:gold;}.poloto4stroke{stroke:aqua;}.poloto5stroke{stroke:lime;}.poloto6stroke{stroke:orange;}.poloto7stroke{stroke:chocolate;}.poloto0fill{fill:blue;}.poloto1fill{fill:red;}.poloto2fill{fill:green;}.poloto3fill{fill:gold;}.poloto4fill{fill:aqua;}.poloto5fill{fill:lime;}.poloto6fill{fill:orange;}.poloto7fill{fill:chocolate;}</style><circle  r="1e5" class="poloto_background" /><text  class="poloto_text poloto_legend_text" x="675" y="100" >knot</text><line  class="poloto_scatter poloto_legend_icon poloto0stroke poloto0legend" stroke="black" x1="685" x2="685" y1="81.25" y2="81.25" /><path  class="poloto_scatter poloto0stroke" d=" M 275.13 296.64 h 0 M 400.25 296.64 h 0 M 525.38 296.64 h 0" /><text  class="poloto_text poloto_legend_text" x="675" y="150" >curve</text><line  class="poloto_line poloto_legend_icon poloto1stroke poloto1legend" stroke="black" x1="680" x2="730" y1="131.25" y2="131.25" /><path  class="poloto_line poloto1stroke" fill="none" stroke="black" d=" M 150.00 400.00 L 150.50 399.32 L 151.00 398.65 L 151.50 397.98 L 152.00 397.31 L 152.50 396.64 L 153.00 395.97 L 153.50 395.30 L 154.00 394.64 L 154.50 393.97 L 155.01 393.31 L 155.51 392.65 L 156.01 391.99 L 156.51 391.33 L 157.01 390.68 L 157.51 390.02 L 158.01 389.37 L 158.51 388.72 L 159.01 388.07 L 159.51 387.42 L 160.01 386.77 L 160.51 386.12 L 161.01 385.48 L 161.51 384.84 L 162.01 384.20 L 162.51 383.56 L 163.01 382.92 L 163.51 382.28 L 164.01 381.65 L 164.51 381.01 L 165.02 380.38 L 165.52 379.75 L 166.02 379.12 L 166.52 378.49 L 167.02 377.87 L 167.52 377.24 L 168.02 376.62 L 168.52 376.00 L 169.02 375.38 L 169.52 374.76 L 170.02 374.14 L 170.52 373.53 L 171.02 372.91 L 171.52 372.30 L 172.02 371.69 L 172.52 371.08 L 173.02 370.47 L 173.52 369.86 L 174.02 369.26 L 174.52 368.66 L 175.03 368.05 L 175.53 367.45 L 176.03 366.85 L 176.53 366.26 L 177.03 365.66 L 177.53 365.07 L 178.03 364.47 L 178.53 363.88 L 179.03 363.29 L 179.53 362.70 L 180.03 362.11 L 180.53 361.53 L 181.03 360.95 L 181.53 360.36 L 182.03 359.78 L 182.53 359.20 L 183.03 358.62 L 183.53 358.05 L 184.03 357.47 L 184.53 356.90 L 185.04 356.33 L 185.54 355.76 L 186.04 355.19 L 186.54 354.62 L 187.04 354.05 L 187.54 353.49 L 188.04 352.93 L 188.54 352.36 L 189.04 351.80 L 189.54 351.25 L 190.04 350.69 L 190.54 350.13 L 191.04 349.58 L 191.54 349.03 L 192.04 348.48 L 192.54 347.93 L 193.04 347.38 L 193.54 346.83 L 194.04 346.29 L 194.54 345.74 L 195.05 345.20 L 195.55 344.66 L 196.05 344.12 L 196.55 343.58 L 197.05 343.05 L 197.55 342.51 L 198.05 341.98 L 198.55 341.45 L 199.05 340.92 L 199.55 340.39 L 200.05 339.86 L 200.55 339.34 L 201.05 338.82 L 201.55 338.29 L 202.05 337.77 L 202.55 337.25 L 203.05 336.73 L 203.55 336.22 L 204.05 335.70 L 204.55 335.19 L 205.06 334.68 L 205.56 334.17 L 206.06 333.66 L 206.56 333.15 L 207.06 332.65 L 207.56 332.14 L 208.06 331.64 L 208.56 331.14 L 209.06 330.64 L 209.56 330.14 L 210.06 329.64 L 210.56 329.15 L 211.06 328.65 L 211.56 328.16 L 212.06 327.67 L 212.56 327.18 L 213.06 326.69 L 213.56 326.21 L 214.06 325.72 L 214.56 325.24 L 215.07 324.76 L 215.57 324.28 L 216.07 323.80 L 216.57 323.32 L 217.07 322.84 L 217.57 322.37 L 218.07 321.90 L 218.57 321.43 L 219.07 320.96 L 219.57 320.49 L 220.07 320.02 L 220.57 319.55 L 221.07 319.09 L 221.57 318.63 L 222.07 318.17 L 222.57 317.71 L 223.07 317.25 L 223.57 316.79 L 224.07 316.34 L 224.57 315.89 L 225.08 315.43 L 225.58 314.98 L 226.08 314.54 L 226.58 314.09 L 227.08 313.64 L 227.58 313.20 L 228.08 312.76 L 228.58 312.31 L 229.08 311.87 L 229.58 311.44 L 230.08 311.00 L 230.58 310.56 L 231.08 310.13 L 231.58 309.70 L 232.08 309.27 L 232.58 308.84 L 233.08 308.41 L 233.58 307.98 L 234.08 307.56 L 234.58 307.14 L 235.09 306.72 L 235.59 306.30 L 236.09 305.88 L 236.59 305.46 L 237.09 305.04 L 237.59 304.63 L 238.09 304.22 L 238.59 303.81 L 239.09 303.40 L 239.59 302.99 L 240.09 302.58 L 240.59 302.18 L 241.09 301.77 L 241.59 301.37 L 242.09 300.97 L 242.59 300.57 L 243.09 300.17 L 243.59 299.78 L 244.09 299.38 L 244.59 298.99 L 245.10 298.60 L 245.60 298.21 L 246.10 297.82 L 246.60 297.43 L 247.10 297.05 L 247.60 296.66 L 248.10 296.28 L 248.60 295.90 L 249.10 295.52 L 249.60 295.14 L 250.10 294.76 L 250.60 294.39 L 251.10 294.01 L 251.60 293.64 L 252.10 293.27 L 252.60 292.90 L 253.10 292.54 L 253.60 292.17 L 254.10 291.80 L 254.60 291.44 L 255.11 291.08 L 255.61 290.72 L 256.11 290.36 L 256.61 290.00 L 257.11 289.65 L 257.61 289.29 L 258.11 288.94 L 258.61 288.59 L 259.11 288.24 L 259.61 287.89 L 260.11 287.55 L 260.61 287.20 L 261.11 286.86 L 261.61 286.52 L 262.11 286.18 L 262.61 285.84 L 263.11 285.50 L 263.61 285.16 L 264.11 284.83 L 264.61 284.50 L 265.12 284.16 L 265.62 283.83 L 266.12 283.51 L 266.62 283.18 L 267.12 282.85 L 267.62 282.53 L 268.12 282.21 L 268.62 281.89 L 269.12 281.57 L 269.62 281.25 L 270.12 280.93 L 270.62 280.62 L 271.12 280.30 L 271.62 279.99 L 272.12 279.68 L 272.62 279.37 L 273.12 279.07 L 273.62 278.76 L 274.12 278.45 L 274.62 278.15 L 275.13 277.85 L 275.63 277.55 L 276.13 277.25 L 276.63 276.96 L 277.13 276.66 L 277.63 276.37 L 278.13 276.07 L 278.63 275.78 L 279.13 275.49 L 279.63 275.21 L 280.13 274.92 L 280.63 274.63 L 281.13 274.35 L 281.63 274.07 L 282.13 273.79 L 282.63 273.51 L 283.13 273.23 L 283.63 272.96 L 284.13 272.68 L 284.63 272.41 L 285.14 272.14 L 285.64 271.87 L 286.14 271.60 L 286.64 271.33 L 287.14 271.07 L 287.64 270.80 L 288.14 270.54 L 288.64 270.28 L 289.14 270.02 L 289.64 269.76 L 290.14 269.51 L 290.64 269.25 L 291.14 269.00 L 291.64 268.75 L 292.14 268.50 L 292.64 268.25 L 293.14 268.00 L 293.64 267.75 L 294.14 267.51 L 294.64 267.27 L 295.15 267.03 L 295.65 266.79 L 296.15 266.55 L 296.65 266.31 L 297.15 266.08 L 297.65 265.84 L 298.15 265.61 L 298.65 265.38 L 299.15 265.15 L 299.65 264.92 L 300.15 264.70 L 300.65 264.47 L 301.15 264.25 L 301.65 264.03 L 302.15 263.81 L 302.65 263.59 L 303.15 263.37 L 303.65 263.15 L 304.15 262.94 L 304.65 262.73 L 305.16 262.52 L 305.66 262.31 L 306.16 262.10 L 306.66 261.89 L 307.16 261.69 L 307.66 261.48 L 308.16 261.28 L 308.66 261.08 L 309.16 260.88 L 309.66 260.68 L 310.16 260.49 L 310.66 260.29 L 311.16 260.10 L 311.66 259.91 L 312.16 259.72 L 312.66 259.53 L 313.16 259.34 L 313.66 259.16 L 314.16 258.97 L 314.66 258.79 L 315.17 258.61 L 315.67 258.43 L 316.17 258.25 L 316.67 258.07 L 317.17 257.90 L 317.67 257.72 L 318.17 257.55 L 318.67 257.38 L 319.17 257.21 L 319.67 257.04 L 320.17 256.88 L 320.67 256.71 L 321.17 256.55 L 321.67 256.39 L 322.17 256.23 L 322.67 256.07 L 323.17 255.91 L 323.67 255.76 L 324.17 255.60 L 324.67 255.45 L 325.18 255.30 L 325.68 255.15 L 326.18 255.00 L 326.68 254.86 L 327.18 254.71 L 327.68 254.57 L 328.18 254.42 L 328.68 254.28 L 329.18 254.15 L 329.68 254.01 L 330.18 253.87 L 330.68 253.74 L 331.18 253.60 L 331.68 253.47 L 332.18 253.34 L 332.68 253.21 L 333.18 253.09 L 333.68 252.96 L 334.18 252.84 L 334.68 252.71 L 335.19 252.59 L 335.69 252.47 L 336.19 252.36 L 336.69 252.24 L 337.19 252.12 L 337.69 252.01 L 338.19 251.90 L 338.69 251.79 L 339.19 251.68 L 339.69 251.57 L 340.19 251.47 L 340.69 251.36 L 341.19 251.26 L 341.69 251.16 L 342.19 251.06 L 342.69 250.96 L 343.19 250.86 L 343.69 250.77 L 344.19 250.67 L 344.69 250.58 L 345.20 250.49 L 345.70 250.40 L 346.20 250.31 L 346.70 250.23 L 347.20 250.14 L 347.70 250.06 L 348.20 249.97 L 348.70 249.89 L 349.20 249.82 L 349.70 249.74 L 350.20 249.66 L 350.70 249.59 L 351.20 249.51 L 351.70 249.44 L 352.20 249.37 L 352.70 249.31 L 353.20 249.24 L 353.70 249.17 L 354.20 249.11 L 354.70 249.05 L 355.21 248.99 L 355.71 248.93 L 356.21 248.87 L 356.71 248.81 L 357.21 248.76 L 357.71 248.70 L 358.21 248.65 L 358.71 248.60 L 359.21 248.55 L 359.71 248.51 L 360.21 248.46 L 360.71 248.42 L 361.21 248.37 L 361.71 248.33 L 362.21 248.29 L 362.71 248.25 L 363.21 248.22 L 363.71 248.18 L 364.21 248.15 L 364.71 248.11 L 365.22 248.08 L 365.72 248.05 L 366.22 248.03 L 366.72 248.00 L 367.22 247.98 L 367.72 247.95 L 368.22 247.93 L 368.72 247.91 L 369.22 247.89 L 369.72 247.87 L 370.22 247.86 L 370.72 247.84 L 371.22 247.83 L 371.72 247.82 L 372.22 247.81 L 372.72 247.80 L 373.22 247.79 L 373.72 247.79 L 374.22 247.79 L 374.72 247.78 L 375.23 247.78 L 375.73 247.78 L 376.23 247.79 L 376.73 247.79 L 377.23 247.79 L 377.73 247.80 L 378.23 247.81 L 378.73 247.82 L 379.23 247.83 L 379.73 247.84 L 380.23 247.86 L 380.73 247.87 L 381.23 247.89 L 381.73 247.91 L 382.23 247.93 L 382.73 247.95 L 383.23 247.98 L 383.73 248.00 L 384.23 248.03 L 384.73 248.05 L 385.24 248.08 L 385.74 248.11 L 386.24 248.15 L 386.74 248.18 L 387.24 248.22 L 387.74 248.25 L 388.24 248.29 L 388.74 248.33 L 389.24 248.37 L 389.74 248.42 L 390.24 248.46 L 390.74 248.51 L 391.24 248.55 L 391.74 248.60 L 392.24 248.65 L 392.74 248.70 L 393.24 248.76 L 393.74 248.81 L 394.24 248.87 L 394.74 248.93 L 395.25 248.99 L 395.75 249.05 L 396.25 249.11 L 396.75 249.17 L 397.25 249.24 L 397.75 249.31 L 398.25 249.37 L 398.75 249.44 L 399.25 249.51 L 399.75 249.59 L 400.25 249.66 L 400.75 249.74 L 401.25 249.81 L 401.75 249.88 L 402.25 249.95 L 402.75 250.02 L 403.25 250.09 L 403.75 250.15 L 404.25 250.22 L 404.75 250.28 L 405.26 250.34 L 405.76 250.40 L 406.26 250.46 L 406.76 250.51 L 407.26 250.57 L 407.76 250.62 L 408.26 250.67 L 408.76 250.72 L 409.26 250.77 L 409.76 250.82 L 410.26 250.86 L 410.76 250.91 L 411.26 250.95 L 411.76 250.99 L 412.26 251.03 L 412.76 251.07 L 413.26 251.11 L 413.76 251.14 L 414.26 251.18 L 414.76 251.21 L 415.27 251.24 L 415.77 251.27 L 416.27 251.30 L 416.77 251.32 L 417.27 251.35 L 417.77 251.37 L 418.27 251.39 L 418.77 251.41 L 419.27 251.43 L 419.77 251.45 L 420.27 251.47 L 420.77 251.48 L 421.27 251.49 L 421.77 251.50 L 422.27 251.51 L 422.77 251.52 L 423.27 251.53 L 423.77 251.53 L 424.27 251.54 L 424.77 251.54 L 425.28 251.54 L 425.78 251.54 L 426.28 251.54 L 426.78 251.53 L 427.28 251.53 L 427.78 251.52 L 428.28 251.51 L 428.78 251.50 L 429.28 251.49 L 429.78 251.48 L 430.28 251.47 L 430.78 251.45 L 431.28 251.43 L 431.78 251.41 L 432.28 251.39 L 432.78 251.37 L 433.28 251.35 L 433.78 251.32 L 434.28 251.30 L 434.78 251.27 L 435.29 251.24 L 435.79 251.21 L 436.29 251.18 L 436.79 251.14 L 437.29 251.11 L 437.79 251.07 L 438.29 251.03 L 438.79 250.99 L 439.29 250.95 L 439.79 250.91 L 440.29 250.86 L 440.79 250.82 L 441.29 250.77 L 441.79 250.72 L 442.29 250.67 L 442.79 250.62 L 443.29 250.57 L 443.79 250.51 L 444.29 250.46 L 444.79 250.40 L 445.30 250.34 L 445.80 250.28 L 446.30 250.22 L 446.80 250.15 L 447.30 250.09 L 447.80 250.02 L 448.30 249.95 L 448.80 249.88 L 449.30 249.81 L 449.80 249.74 L 450.30 249.66 L 450.80 249.59 L 451.30 249.51 L 451.80 249.43 L 452.30 249.35 L 452.80 249.27 L 453.30 249.18 L 453.80 249.10 L 454.30 249.01 L 454.80 248.92 L 455.31 248.84 L 455.81 248.74 L 456.31 248.65 L 456.81 248.56 L 457.31 248.46 L 457.81 248.37 L 458.31 248.27 L 458.81 248.17 L 459.31 248.07 L 459.81 247.96 L 460.31 247.86 L 460.81 247.75 L 461.31 247.64 L 461.81 247.54 L 462.31 247.43 L 462.81 247.31 L 463.31 247.20 L 463.81 247.08 L 464.31 246.97 L 464.81 246.85 L 465.32 246.73 L 465.82 246.61 L 466.32 246.49 L 466.82 246.36 L 467.32 246.24 L 467.82 246.11 L 468.32 245.98 L 468.82 245.85 L 469.32 245.72 L 469.82 245.59 L 470.32 245.45 L 470.82 245.32 L 471.32 245.18 L 471.82 245.04 L 472.32 244.90 L 472.82 244.76 L 473.32 244.61 L 473.82 244.47 L 474.32 244.32 L 474.82 244.17 L 475.33 244.02 L 475.83 243.87 L 476.33 243.72 L 476.83 243.57 L 477.33 243.41 L 477.83 243.25 L 478.33 243.10 L 478.83 242.94 L 479.33 242.77 L 479.83 242.61 L 480.33 242.45 L 480.83 242.28 L 481.33 242.11 L 481.83 241.94 L 482.33 241.77 L 482.83 241.60 L 483.33 241.43 L 483.83 241.25 L 484.33 241.07 L 484.83 240.90 L 485.34 240.72 L 485.84 240.54 L 486.34 240.35 L 486.84 240.17 L 487.34 239.98 L 487.84 239.80 L 488.34 239.61 L 488.84 239.42 L 489.34 239.23 L 489.84 239.03 L 490.34 238.84 L 490.84 238.64 L 491.34 238.44 L 491.84 238.24 L 492.34 238.04 L 492.84 237.84 L 493.34 237.64 L 493.84 237.43 L 494.34 237.23 L 494.84 237.02 L 495.35 236.81 L 495.85 236.60 L 496.35 236.38 L 496.85 236.17 L 497.35 235.95 L 497.85 235.74 L 498.35 235.52 L 498.85 235.30 L 499.35 235.08 L 499.85 234.85 L 500.35 234.63 L 500.85 234.40 L 501.35 234.17 L 501.85 233.95 L 502.35 233.71 L 502.85 233.48 L 503.35 233.25 L 503.85 233.01 L 504.35 232.78 L 504.85 232.54 L 505.36 232.30 L 505.86 232.06 L 506.36 231.81 L 506.86 231.57 L 507.36 231.32 L 507.86 231.08 L 508.36 230.83 L 508.86 230.58 L 509.36 230.33 L 509.86 230.07 L 510.36 229.82 L 510.86 229.56 L 511.36 229.30 L 511.86 229.04 L 512.36 228.78 L 512.86 228.52 L 513.36 228.26 L 513.86 227.99 L 514.36 227.72 L 514.86 227.46 L 515.37 227.19 L 515.87 226.92 L 516.37 226.64 L 516.87 226.37 L 517.37 226.09 L 517.87 225.81 L 518.37 225.54 L 518.87 225.26 L 519.37 224.97 L 519.87 224.69 L 520.37 224.41 L 520.87 224.12 L 521.37 223.83 L 521.87 223.54 L 522.37 223.25 L 522.87 222.96 L 523.37 222.66 L 523.87 222.37 L 524.37 222.07 L 524.87 221.77 L 525.38 221.47 L 525.88 221.17 L 526.38 220.87 L 526.88 220.56 L 527.38 220.26 L 527.88 219.95 L 528.38 219.64 L 528.88 219.33 L 529.38 219.02 L 529.88 218.71 L 530.38 218.39 L 530.88 218.08 L 531.38 217.76 L 531.88 217.44 L 532.38 217.12 L 532.88 216.79 L 533.38 216.47 L 533.88 216.15 L 534.38 215.82 L 534.88 215.49 L 535.39 215.16 L 535.89 214.83 L 536.39 214.50 L 536.89 214.16 L 537.39 213.82 L 537.89 213.49 L 538.39 213.15 L 538.89 212.81 L 539.39 212.47 L 539.89 212.12 L 540.39 211.78 L 540.89 211.43 L 541.39 211.08 L 541.89 210.73 L 542.39 210.38 L 542.89 210.03 L 543.39 209.68 L 543.89 209.32 L 544.39 208.96 L 544.89 208.60 L 545.40 208.24 L 545.90 207.88 L 546.40 207.52 L 546.90 207.15 L 547.40 206.79 L 547.90 206.42 L 548.40 206.05 L 548.90 205.68 L 549.40 205.31 L 549.90 204.94 L 550.40 204.56 L 550.90 204.18 L 551.40 203.81 L 551.90 203.43 L 552.40 203.05 L 552.90 202.66 L 553.40 202.28 L 553.90 201.89 L 554.40 201.51 L 554.90 201.12 L 555.41 200.73 L 555.91 200.34 L 556.41 199.94 L 556.91 199.55 L 557.41 199.15 L 557.91 198.75 L 558.41 198.35 L 558.91 197.95 L 559.41 197.55 L 559.91 197.15 L 560.41 196.74 L 560.91 196.34 L 561.41 195.93 L 561.91 195.52 L 562.41 195.11 L 562.91 194.69 L 563.41 194.28 L 563.91 193.86 L 564.41 193.45 L 564.91 193.03 L 565.42 192.61 L 565.92 192.19 L 566.42 191.76 L 566.92 191.34 L 567.42 190.91 L 567.92 190.49 L 568.42 190.06 L 568.92 189.63 L 569.42 189.19 L 569.92 188.76 L 570.42 188.32 L 570.92 187.89 L 571.42 187.45 L 571.92 187.01 L 572.42 186.57 L 572.92 186.13 L 573.42 185.68 L 573.92 185.24 L 574.42 184.79 L 574.92 184.34 L 575.43 183.89 L 575.93 183.44 L 576.43 182.98 L 576.93 182.53 L 577.43 182.07 L 577.93 181.62 L 578.43 181.16 L 578.93 180.70 L 579.43 180.23 L 579.93 179.77 L 580.43 179.30 L 580.93 178.84 L 581.43 178.37 L 581.93 177.90 L 582.43 177.43 L 582.93 176.95 L 583.43 176.48 L 583.93 176.00 L 584.43 175.53 L 584.93 175.05 L 585.44 174.57 L 585.94 174.09 L 586.44 173.60 L 586.94 173.12 L 587.44 172.63 L 587.94 172.14 L 588.44 171.65 L 588.94 171.16 L 589.44 170.67 L 589.94 170.18 L 590.44 169.68 L 590.94 169.19 L 591.44 168.69 L 591.94 168.19 L 592.44 167.69 L 592.94 167.18 L 593.44 166.68 L 593.94 166.17 L 594.44 165.67 L 594.94 165.16 L 595.45 164.65 L 595.95 164.13 L 596.45 163.62 L 596.95 163.11 L 597.45 162.59 L 597.95 162.07 L 598.45 161.55 L 598.95 161.03 L 599.45 160.51 L 599.95 159.98 L 600.45 159.46 L 600.95 158.93 L 601.45 158.40 L 601.95 157.87 L 602.45 157.34 L 602.95 156.81 L 603.45 156.28 L 603.95 155.74 L 604.45 155.20 L 604.95 154.66 L 605.46 154.12 L 605.96 153.58 L 606.46 153.04 L 606.96 152.49 L 607.46 151.95 L 607.96 151.40 L 608.46 150.85 L 608.96 150.30 L 609.46 149.74 L 609.96 149.19 L 610.46 148.64 L 610.96 148.08 L 611.46 147.52 L 611.96 146.96 L 612.46 146.40 L 612.96 145.84 L 613.46 145.27 L 613.96 144.70 L 614.46 144.14 L 614.96 143.57 L 615.47 143.00 L 615.97 142.43 L 616.47 141.85 L 616.97 141.28 L 617.47 140.70 L 617.97 140.12 L 618.47 139.54 L 618.97 138.96 L 619.47 138.38 L 619.97 137.79 L 620.47 137.21 L 620.97 136.62 L 621.47 136.03 L 621.97 135.44 L 622.47 134.85 L 622.97 134.26 L 623.47 133.66 L 623.97 133.07 L 624.47 132.47 L 624.97 131.87 L 625.48 131.27 L 625.98 130.67 L 626.48 130.07 L 626.98 129.46 L 627.48 128.85 L 627.98 128.25 L 628.48 127.64 L 628.98 127.02 L 629.48 126.41 L 629.98 125.80 L 630.48 125.18 L 630.98 124.57 L 631.48 123.95 L 631.98 123.33 L 632.48 122.70 L 632.98 122.08 L 633.48 121.46 L 633.98 120.83 L 634.48 120.20 L 634.98 119.57 L 635.49 118.94 L 635.99 118.31 L 636.49 117.68 L 636.99 117.04 L 637.49 116.41 L 637.99 115.77 L 638.49 115.13 L 638.99 114.49 L 639.49 113.84 L 639.99 113.20 L 640.49 112.55 L 640.99 111.91 L 641.49 111.26 L 641.99 110.61 L 642.49 109.96 L 642.99 109.30 L 643.49 108.65 L 643.99 107.99 L 644.49 107.33 L 644.99 106.67 L 645.50 106.01 L 646.00 105.35 L 646.50 104.69 L 647.00 104.02 L 647.50 103.36 L 648.00 102.69 L 648.50 102.02 L 649.00 101.35 L 649.50 100.67 L 650.00 100.00" /><text  class="poloto_text poloto_legend_text" x="675" y="200" >derivative 1</text><line  class="poloto_line poloto_legend_icon poloto2stroke poloto2legend" stroke="black" x1="680" x2="730" y1="181.25" y2="181.25" /><path  class="poloto_line poloto2stroke" fill="none" stroke="black" d=" M 150.00 127.51 L 150.50 127.89 L 151.00 128.26 L 151.50 128.64 L 152.00 129.02 L 152.50 129.39 L 153.00 129.77 L 153.50 130.14 L 154.00 130.52 L 154.50 130.90 L 155.01 131.27 L 155.51 131.65 L 156.01 132.02 L 156.51 132.40 L 157.01 132.77 L 157.51 133.15 L 158.01 133.53 L 158.51 133.90 L 159.01 134.28 L 159.51 134.65 L 160.01 135.03 L 160.51 135.41 L 161.01 135.78 L 161.51 136.16 L 162.01 136.53 L 162.51 136.91 L 163.01 137.28 L 163.51 137.66 L 164.01 138.04 L 164.51 138.41 L 165.02 138.79 L 165.52 139.16 L 166.02 139.54 L 166.52 139.92 L 167.02 140.29 L 167.52 140.67 L 168.02 141.04 L 168.52 141.42 L 169.02 141.79 L 169.52 142.17 L 170.02 142.55 L 170.52 142.92 L 171.02 143.30 L 171.52 143.67 L 172.02 144.05 L 172.52 144.43 L 173.02 144.80 L 173.52 145.18 L 174.02 145.55 L 174.52 145.93 L 175.03 146.30 L 175.53 146.68 L 176.03 147.06 L 176.53 147.43 L 177.03 147.81 L 177.53 148.18 L 178.03 148.56 L 178.53 148.94 L 179.03 149.31 L 179.53 149.69 L 180.03 150.06 L 180.53 150.44 L 181.03 150.81 L 181.53 151.19 L 182.03 151.57 L 182.53 151.94 L 183.03 152.32 L 183.53 152.69 L 184.03 153.07 L 184.53 153.45 L 185.04 153.82 L 185.54 154.20 L 186.04 154.57 L 186.54 154.95 L 187.04 155.33 L 187.54 155.70 L 188.04 156.08 L 188.54 156.45 L 189.04 156.83 L 189.54 157.20 L 190.04 157.58 L 190.54 157.96 L 191.04 158.33 L 191.54 158.71 L 192.04 159.08 L 192.54 159.46 L 193.04 159.84 L 193.54 160.21 L 194.04 160.59 L 194.54 160.96 L 195.05 161.34 L 195.55 161.71 L 196.05 162.09 L 196.55 162.47 L 197.05 162.84 L 197.55 163.22 L 198.05 163.59 L 198.55 163.97 L 199.05 164.35 L 199.55 164.72 L 200.05 165.10 L 200.55 165.47 L 201.05 165.85 L 201.55 166.22 L 202.05 166.60 L 202.55 166.98 L 203.05 167.35 L 203.55 167.73 L 204.05 168.10 L 204.55 168.48 L 205.06 168.86 L 205.56 169.23 L 206.06 169.61 L 206.56 169.98 L 207.06 170.36 L 207.56 170.73 L 208.06 171.11 L 208.56 171.49 L 209.06 171.86 L 209.56 172.24 L 210.06 172.61 L 210.56 172.99 L 211.06 173.37 L 211.56 173.74 L 212.06 174.12 L 212.56 174.49 L 213.06 174.87 L 213.56 175.24 L 214.06 175.62 L 214.56 176.00 L 215.07 176.37 L 215.57 176.75 L 216.07 177.12 L 216.57 177.50 L 217.07 177.88 L 217.57 178.25 L 218.07 178.63 L 218.57 179.00 L 219.07 179.38 L 219.57 179.76 L 220.07 180.13 L 220.57 180.51 L 221.07 180.88 L 221.57 181.26 L 222.07 181.63 L 222.57 182.01 L 223.07 182.39 L 223.57 182.76 L 224.07 183.14 L 224.57 183.51 L 225.08 183.89 L 225.58 184.27 L 226.08 184.64 L 226.58 185.02 L 227.08 185.39 L 227.58 185.77 L 228.08 186.14 L 228.58 186.52 L 229.08 186.90 L 229.58 187.27 L 230.08 187.65 L 230.58 188.02 L 231.08 188.40 L 231.58 188.78 L 232.08 189.15 L 232.58 189.53 L 233.08 189.90 L 233.58 190.28 L 234.08 190.65 L 234.58 191.03 L 235.09 191.41 L 235.59 191.78 L 236.09 192.16 L 236.59 192.53 L 237.09 192.91 L 237.59 193.29 L 238.09 193.66 L 238.59 194.04 L 239.09 194.41 L 239.59 194.79 L 240.09 195.16 L 240.59 195.54 L 241.09 195.92 L 241.59 196.29 L 242.09 196.67 L 242.59 197.04 L 243.09 197.42 L 243.59 197.80 L 244.09 198.17 L 244.59 198.55 L 245.10 198.92 L 245.60 199.30 L 246.10 199.67 L 246.60 200.05 L 247.10 200.43 L 247.60 200.80 L 248.10 201.18 L 248.60 201.55 L 249.10 201.93 L 249.60 202.31 L 250.10 202.68 L 250.60 203.06 L 251.10 203.43 L 251.60 203.81 L 252.10 204.18 L 252.60 204.56 L 253.10 204.94 L 253.60 205.31 L 254.10 205.69 L 254.60 206.06 L 255.11 206.44 L 255.61 206.82 L 256.11 207.19 L 256.61 207.57 L 257.11 207.94 L 257.61 208.32 L 258.11 208.70 L 258.61 209.07 L 259.11 209.45 L 259.61 209.82 L 260.11 210.20 L 260.61 210.57 L 261.11 210.95 L 261.61 211.33 L 262.11 211.70 L 262.61 212.08 L 263.11 212.45 L 263.61 212.83 L 264.11 213.21 L 264.61 213.58 L 265.12 213.96 L 265.62 214.33 L 266.12 214.71 L 266.62 215.08 L 267.12 215.46 L 267.62 215.84 L 268.12 216.21 L 268.62 216.59 L 269.12 216.96 L 269.62 217.34 L 270.12 217.72 L 270.62 218.09 L 271.12 218.47 L 271.62 218.84 L 272.12 219.22 L 272.62 219.59 L 273.12 219.97 L 273.62 220.35 L 274.12 220.72 L 274.62 221.10 L 275.13 221.47 L 275.63 221.85 L 276.13 222.23 L 276.63 222.60 L 277.13 222.98 L 277.63 223.35 L 278.13 223.73 L 278.63 224.10 L 279.13 224.48 L 279.63 224.86 L 280.13 225.23 L 280.63 225.61 L 281.13 225.98 L 281.63 226.36 L 282.13 226.74 L 282.63 227.11 L 283.13 227.49 L 283.63 227.86 L 284.13 228.24 L 284.63 228.61 L 285.14 228.99 L 285.64 229.37 L 286.14 229.74 L 286.64 230.12 L 287.14 230.49 L 287.64 230.87 L 288.14 231.25 L 288.64 231.62 L 289.14 232.00 L 289.64 232.37 L 290.14 232.75 L 290.64 233.12 L 291.14 233.50 L 291.64 233.88 L 292.14 234.25 L 292.64 234.63 L 293.14 235.00 L 293.64 235.38 L 294.14 235.76 L 294.64 236.13 L 295.15 236.51 L 295.65 236.88 L 296.15 237.26 L 296.65 237.64 L 297.15 238.01 L 297.65 238.39 L 298.15 238.76 L 298.65 239.14 L 299.15 239.51 L 299.65 239.89 L 300.15 240.27 L 300.65 240.64 L 301.15 241.02 L 301.65 241.39 L 302.15 241.77 L 302.65 242.15 L 303.15 242.52 L 303.65 242.90 L 304.15 243.27 L 304.65 243.65 L 305.16 244.02 L 305.66 244.40 L 306.16 244.78 L 306.66 245.15 L 307.16 245.53 L 307.66 245.90 L 308.16 246.28 L 308.66 246.66 L 309.16 247.03 L 309.66 247.41 L 310.16 247.78 L 310.66 248.16 L 311.16 248.53 L 311.66 248.91 L 312.16 249.29 L 312.66 249.66 L 313.16 250.04 L 313.66 250.41 L 314.16 250.79 L 314.66 251.17 L 315.17 251.54 L 315.67 251.92 L 316.17 252.29 L 316.67 252.67 L 317.17 253.04 L 317.67 253.42 L 318.17 253.80 L 318.67 254.17 L 319.17 254.55 L 319.67 254.92 L 320.17 255.30 L 320.67 255.68 L 321.17 256.05 L 321.67 256.43 L 322.17 256.80 L 322.67 257.18 L 323.17 257.55 L 323.67 257.93 L 324.17 258.31 L 324.67 258.68 L 325.18 259.06 L 325.68 259.43 L 326.18 259.81 L 326.68 260.19 L 327.18 260.56 L 327.68 260.94 L 328.18 261.31 L 328.68 261.69 L 329.18 262.07 L 329.68 262.44 L 330.18 262.82 L 330.68 263.19 L 331.18 263.57 L 331.68 263.94 L 332.18 264.32 L 332.68 264.70 L 333.18 265.07 L 333.68 265.45 L 334.18 265.82 L 334.68 266.20 L 335.19 266.58 L 335.69 266.95 L 336.19 267.33 L 336.69 267.70 L 337.19 268.08 L 337.69 268.45 L 338.19 268.83 L 338.69 269.21 L 339.19 269.58 L 339.69 269.96 L 340.19 270.33 L 340.69 270.71 L 341.19 271.09 L 341.69 271.46 L 342.19 271.84 L 342.69 272.21 L 343.19 272.59 L 343.69 272.96 L 344.19 273.34 L 344.69 273.72 L 345.20 274.09 L 345.70 274.47 L 346.20 274.84 L 346.70 275.22 L 347.20 275.60 L 347.70 275.97 L 348.20 276.35 L 348.70 276.72 L 349.20 277.10 L 349.70 277.47 L 350.20 277.85 L 350.70 278.23 L 351.20 278.60 L 351.70 278.98 L 352.20 279.35 L 352.70 279.73 L 353.20 280.11 L 353.70 280.48 L 354.20 280.86 L 354.70 281.23 L 355.21 281.61 L 355.71 281.98 L 356.21 282.36 L 356.71 282.74 L 357.21 283.11 L 357.71 283.49 L 358.21 283.86 L 358.71 284.24 L 359.21 284.62 L 359.71 284.99 L 360.21 285.37 L 360.71 285.74 L 361.21 286.12 L 361.71 286.49 L 362.21 286.87 L 362.71 287.25 L 363.21 287.62 L 363.71 288.00 L 364.21 288.37 L 364.71 288.75 L 365.22 289.13 L 365.72 289.50 L 366.22 289.88 L 366.72 290.25 L 367.22 290.63 L 367.72 291.01 L 368.22 291.38 L 368.72 291.76 L 369.22 292.13 L 369.72 292.51 L 370.22 292.88 L 370.72 293.26 L 371.22 293.64 L 371.72 294.01 L 372.22 294.39 L 372.72 294.76 L 373.22 295.14 L 373.72 295.52 L 374.22 295.89 L 374.72 296.27 L 375.23 296.64 L 375.73 297.02 L 376.23 297.39 L 376.73 297.77 L 377.23 298.15 L 377.73 298.52 L 378.23 298.90 L 378.73 299.27 L 379.23 299.65 L 379.73 300.03 L 380.23 300.40 L 380.73 300.78 L 381.23 301.15 L 381.73 301.53 L 382.23 301.90 L 382.73 302.28 L 383.23 302.66 L 383.73 303.03 L 384.23 303.41 L 384.73 303.78 L 385.24 304.16 L 385.74 304.54 L 386.24 304.91 L 386.74 305.29 L 387.24 305.66 L 387.74 306.04 L 388.24 306.41 L 388.74 306.79 L 389.24 307.17 L 389.74 307.54 L 390.24 307.92 L 390.74 308.29 L 391.24 308.67 L 391.74 309.05 L 392.24 309.42 L 392.74 309.80 L 393.24 310.17 L 393.74 310.55 L 394.24 310.92 L 394.74 311.30 L 395.25 311.68 L 395.75 312.05 L 396.25 312.43 L 396.75 312.80 L 397.25 313.18 L 397.75 313.56 L 398.25 313.93 L 398.75 314.31 L 399.25 314.68 L 399.75 315.06 L 400.25 315.43 L 400.75 315.06 L 401.25 314.68 L 401.75 314.31 L 402.25 313.93 L 402.75 313.56 L 403.25 313.18 L 403.75 312.80 L 404.25 312.43 L 404.75 312.05 L 405.26 311.68 L 405.76 311.30 L 406.26 310.92 L 406.76 310.55 L 407.26 310.17 L 407.76 309.80 L 408.26 309.42 L 408.76 309.05 L 409.26 308.67 L 409.76 308.29 L 410.26 307.92 L 410.76 307.54 L 411.26 307.17 L 411.76 306.79 L 412.26 306.41 L 412.76 306.04 L 413.26 305.66 L 413.76 305.29 L 414.26 304.91 L 414.76 304.54 L 415.27 304.16 L 415.77 303.78 L 416.27 303.41 L 416.77 303.03 L 417.27 302.66 L 417.77 302.28 L 418.27 301.90 L 418.77 301.53 L 419.27 301.15 L 419.77 300.78 L 420.27 300.40 L 420.77 300.03 L 421.27 299.65 L 421.77 299.27 L 422.27 298.90 L 422.77 298.52 L 423.27 298.15 L 423.77 297.77 L 424.27 297.39 L 424.77 297.02 L 425.28 296.64 L 425.78 296.27 L 426.28 295.89 L 426.78 295.52 L 427.28 295.14 L 427.78 294.76 L 428.28 294.39 L 428.78 294.01 L 429.28 293.64 L 429.78 293.26 L 430.28 292.88 L 430.78 292.51 L 431.28 292.13 L 431.78 291.76 L 432.28 291.38 L 432.78 291.01 L 433.28 290.63 L 433.78 290.25 L 434.28 289.88 L 434.78 289.50 L 435.29 289.13 L 435.79 288.75 L 436.29 288.37 L 436.79 288.00 L 437.29 287.62 L 437.79 287.25 L 438.29 286.87 L 438.79 286.49 L 439.29 286.12 L 439.79 285.74 L 440.29 285.37 L 440.79 284.99 L 441.29 284.62 L 441.79 284.24 L 442.29 283.86 L 442.79 283.49 L 443.29 283.11 L 443.79 282.74 L 444.29 282.36 L 444.79 281.98 L 445.30 281.61 L 445.80 281.23 L 446.30 280.86 L 446.80 280.48 L 447.30 280.11 L 447.80 279.73 L 448.30 279.35 L 448.80 278.98 L 449.30 278.60 L 449.80 278.23 L 450.30 277.85 L 450.80 277.47 L 451.30 277.10 L 451.80 276.72 L 452.30 276.35 L 452.80 275.97 L 453.30 275.60 L 453.80 275.22 L 454.30 274.84 L 454.80 274.47 L 455.31 274.09 L 455.81 273.72 L 456.31 273.34 L 456.81 272.96 L 457.31 272.59 L 457.81 272.21 L 458.31 271.84 L 458.81 271.46 L 459.31 271.09 L 459.81 270.71 L 460.31 270.33 L 460.81 269.96 L 461.31 269.58 L 461.81 269.21 L 462.31 268.83 L 462.81 268.45 L 463.31 268.08 L 463.81 267.70 L 464.31 267.33 L 464.81 266.95 L 465.32 266.58 L 465.82 266.20 L 466.32 265.82 L 466.82 265.45 L 467.32 265.07 L 467.82 264.70 L 468.32 264.32 L 468.82 263.94 L 469.32 263.57 L 469.82 263.19 L 470.32 262.82 L 470.82 262.44 L 471.32 262.06 L 471.82 261.69 L 472.32 261.31 L 472.82 260.94 L 473.32 260.56 L 473.82 260.19 L 474.32 259.81 L 474.82 259.43 L 475.33 259.06 L 475.83 258.68 L 476.33 258.31 L 476.83 257.93 L 477.33 257.55 L 477.83 257.18 L 478.33 256.80 L 478.83 256.43 L 479.33 256.05 L 479.83 255.68 L 480.33 255.30 L 480.83 254.92 L 481.33 254.55 L 481.83 254.17 L 482.33 253.80 L 482.83 253.42 L 483.33 253.04 L 483.83 252.67 L 484.33 252.29 L 484.83 251.92 L 485.34 251.54 L 485.84 251.17 L 486.34 250.79 L 486.84 250.41 L 487.34 250.04 L 487.84 249.66 L 488.34 249.29 L 488.84 248.91 L 489.34 248.53 L 489.84 248.16 L 490.34 247.78 L 490.84 247.41 L 491.34 247.03 L 491.84 246.66 L 492.34 246.28 L 492.84 245.90 L 493.34 245.53 L 493.84 245.15 L 494.34 244.78 L 494.84 244.40 L 495.35 244.02 L 495.85 243.65 L 496.35 243.27 L 496.85 242.90 L 497.35 242.52 L 497.85 242.15 L 498.35 241.77 L 498.85 241.39 L 499.35 241.02 L 499.85 240.64 L 500.35 240.27 L 500.85 239.89 L 501.35 239.51 L 501.85 239.14 L 502.35 238.76 L 502.85 238.39 L 503.35 238.01 L 503.85 237.64 L 504.35 237.26 L 504.85 236.88 L 505.36 236.51 L 505.86 236.13 L 506.36 235.76 L 506.86 235.38 L 507.36 235.00 L 507.86 234.63 L 508.36 234.25 L 508.86 233.88 L 509.36 233.50 L 509.86 233.12 L 510.36 232.75 L 510.86 232.37 L 511.36 232.00 L 511.86 231.62 L 512.36 231.25 L 512.86 230.87 L 513.36 230.49 L 513.86 230.12 L 514.36 229.74 L 514.86 229.37 L 515.37 228.99 L 515.87 228.61 L 516.37 228.24 L 516.87 227.86 L 517.37 227.49 L 517.87 227.11 L 518.37 226.74 L 518.87 226.36 L 519.37 225.98 L 519.87 225.61 L 520.37 225.23 L 520.87 224.86 L 521.37 224.48 L 521.87 224.10 L 522.37 223.73 L 522.87 223.35 L 523.37 222.98 L 523.87 222.60 L 524.37 222.23 L 524.87 221.85 L 525.38 221.47 L 525.88 221.10 L 526.38 220.72 L 526.88 220.35 L 527.38 219.97 L 527.88 219.59 L 528.38 219.22 L 528.88 218.84 L 529.38 218.47 L 529.88 218.09 L 530.38 217.72 L 530.88 217.34 L 531.38 216.96 L 531.88 216.59 L 532.38 216.21 L 532.88 215.84 L 533.38 215.46 L 533.88 215.08 L 534.38 214.71 L 534.88 214.33 L 535.39 213.96 L 535.89 213.58 L 536.39 213.21 L 536.89 212.83 L 537.39 212.45 L 537.89 212.08 L 538.39 211.70 L 538.89 211.33 L 539.39 210.95 L 539.89 210.57 L 540.39 210.20 L 540.89 209.82 L 541.39 209.45 L 541.89 209.07 L 542.39 208.70 L 542.89 208.32 L 543.39 207.94 L 543.89 207.57 L 544.39 207.19 L 544.89 206.82 L 545.40 206.44 L 545.90 206.06 L 546.40 205.69 L 546.90 205.31 L 547.40 204.94 L 547.90 204.56 L 548.40 204.18 L 548.90 203.81 L 549.40 203.43 L 549.90 203.06 L 550.40 202.68 L 550.90 202.31 L 551.40 201.93 L 551.90 201.55 L 552.40 201.18 L 552.90 200.80 L 553.40 200.43 L 553.90 200.05 L 554.40 199.67 L 554.90 199.30 L 555.41 198.92 L 555.91 198.55 L 556.41 198.17 L 556.91 197.80 L 557.41 197.42 L 557.91 197.04 L 558.41 196.67 L 558.91 196.29 L 559.41 195.92 L 559.91 195.54 L 560.41 195.16 L 560.91 194.79 L 561.41 194.41 L 561.91 194.04 L 562.41 193.66 L 562.91 193.29 L 563.41 192.91 L 563.91 192.53 L 564.41 192.16 L 564.91 191.78 L 565.42 191.41 L 565.92 191.03 L 566.42 190.65 L 566.92 190.28 L 567.42 189.90 L 567.92 189.53 L 568.42 189.15 L 568.92 188.78 L 569.42 188.40 L 569.92 188.02 L 570.42 187.65 L 570.92 187.27 L 571.42 186.90 L 571.92 186.52 L 572.42 186.14 L 572.92 185.77 L 573.42 185.39 L 573.92 185.02 L 574.42 184.64 L 574.92 184.27 L 575.43 183.89 L 575.93 183.51 L 576.43 183.14 L 576.93 182.76 L 577.43 182.39 L 577.93 182.01 L 578.43 181.63 L 578.93 181.26 L 579.43 180.88 L 579.93 180.51 L 580.43 180.13 L 580.93 179.76 L 581.43 179.38 L 581.93 179.00 L 582.43 178.63 L 582.93 178.25 L 583.43 177.88 L 583.93 177.50 L 584.43 177.12 L 584.93 176.75 L 585.44 176.37 L 585.94 176.00 L 586.44 175.62 L 586.94 175.24 L 587.44 174.87 L 587.94 174.49 L 588.44 174.12 L 588.94 173.74 L 589.44 173.37 L 589.94 172.99 L 590.44 172.61 L 590.94 172.24 L 591.44 171.86 L 591.94 171.49 L 592.44 171.11 L 592.94 170.73 L 593.44 170.36 L 593.94 169.98 L 594.44 169.61 L 594.94 169.23 L 595.45 168.86 L 595.95 168.48 L 596.45 168.10 L 596.95 167.73 L 597.45 167.35 L 597.95 166.98 L 598.45 166.60 L 598.95 166.22 L 599.45 165.85 L 599.95 165.47 L 600.45 165.10 L 600.95 164.72 L 601.45 164.35 L 601.95 163.97 L 602.45 163.59 L 602.95 163.22 L 603.45 162.84 L 603.95 162.47 L 604.45 162.09 L 604.95 161.71 L 605.46 161.34 L 605.96 160.96 L 606.46 160.59 L 606.96 160.21 L 607.46 159.84 L 607.96 159.46 L 608.46 159.08 L 608.96 158.71 L 609.46 158.33 L 609.96 157.96 L 610.46 157.58 L 610.96 157.20 L 611.46 156.83 L 611.96 156.45 L 612.46 156.08 L 612.96 155.70 L 613.46 155.33 L 613.96 154.95 L 614.46 154.57 L 614.96 154.20 L 615.47 153.82 L 615.97 153.45 L 616.47 153.07 L 616.97 152.69 L 617.47 152.32 L 617.97 151.94 L 618.47 151.57 L 618.97 151.19 L 619.47 150.81 L 619.97 150.44 L 620.47 150.06 L 620.97 149.69 L 621.47 149.31 L 621.97 148.94 L 622.47 148.56 L 622.97 148.18 L 623.47 147.81 L 623.97 147.43 L 624.47 147.06 L 624.97 146.68 L 625.48 146.30 L 625.98 145.93 L 626.48 145.55 L 626.98 145.18 L 627.48 144.80 L 627.98 144.43 L 628.48 144.05 L 628.98 143.67 L 629.48 143.30 L 629.98 142.92 L 630.48 142.55 L 630.98 142.17 L 631.48 141.79 L 631.98 141.42 L 632.48 141.04 L 632.98 140.67 L 633.48 140.29 L 633.98 139.92 L 634.48 139.54 L 634.98 139.16 L 635.49 138.79 L 635.99 138.41 L 636.49 138.04 L 636.99 137.66 L 637.49 137.28 L 637.99 136.91 L 638.49 136.53 L 638.99 136.16 L 639.49 135.78 L 639.99 135.41 L 640.49 135.03 L 640.99 134.65 L 641.49 134.28 L 641.99 133.90 L 642.49 133.53 L 642.99 133.15 L 643.49 132.77 L 643.99 132.40 L 644.49 132.02 L 644.99 131.65 L 645.50 131.27 L 646.00 130.90 L 646.50 130.52 L 647.00 130.14 L 647.50 129.77 L 648.00 129.39 L 648.50 129.02 L 649.00 128.64 L 649.50 128.26 L 650.00 127.89" /><text  class="poloto_labels poloto_text poloto_title" x="400" y="37.5" >bspline example 2 a</text><text  class="poloto_labels poloto_text poloto_xname" x="400" y="481.25" >x</text><text  class="poloto_labels poloto_text poloto_yname" transform="rotate(-90,37.5,250)" x="37.5" y="250" >y</text><text  class="poloto_tick_labels poloto_text" dominant-baseline="middle" text-anchor="start" x="150" y="70" ></text><line  class="poloto_axis_lines" stroke="black" x1="150" x2="144" y1="390.6038826704007" y2="390.6038826704007" /><text  class="poloto_tick_labels poloto_text" dominant-baseline="middle" text-anchor="end" x="135" y="390.6038826704007" >-5</text><line  class="poloto_axis_lines" stroke="black" x1="150" x2="144" y1="296.64270937440824" y2="296.64270937440824" /><text  class="poloto_tick_labels poloto_text" dominant-baseline="middle" text-anchor="end" x="135" y="296.64270937440824" >0</text><line  class="poloto_axis_lines" stroke="black" x1="150" x2="144" y1="202.68153607841566" y2="202.68153607841566" /><text  class="poloto_tick_labels poloto_text" dominant-baseline="middle" text-anchor="end" x="135" y="202.68153607841566" >5</text><line  class="poloto_axis_lines" stroke="black" x1="150" x2="144" y1="108.7203627824232" y2="108.7203627824232" /><text  class="poloto_tick_labels poloto_text" dominant-baseline="middle" text-anchor="end" x="135" y="108.7203627824232" >10</text><text  class="poloto_tick_labels poloto_text" dominant-baseline="middle" text-anchor="start" x="440.00000000000006" y="70" ></text><line  class="poloto_axis_lines" stroke="black" x1="150" x2="150" y1="400" y2="405" /><text  class="poloto_tick_labels poloto_text" dominant-baseline="start" text-anchor="middle" x="150" y="430" >0.0</text><line  class="poloto_axis_lines" stroke="black" x1="212.56256175628812" x2="212.56256175628812" y1="400" y2="405" /><text  class="poloto_tick_labels poloto_text" dominant-baseline="start" text-anchor="middle" x="212.56256175628812" y="430" >0.5</text><line  class="poloto_axis_lines" stroke="black" x1="275.12512351257624" x2="275.12512351257624" y1="400" y2="405" /><text  class="poloto_tick_labels poloto_text" dominant-baseline="start" text-anchor="middle" x="275.12512351257624" y="430" >1.0</text><line  class="poloto_axis_lines" stroke="black" x1="337.68768526886436" x2="337.68768526886436" y1="400" y2="405" /><text  class="poloto_tick_labels poloto_text" dominant-baseline="start" text-anchor="middle" x="337.68768526886436" y="430" >1.5</text><line  class="poloto_axis_lines" stroke="black" x1="400.2502470251525" x2="400.2502470251525" y1="400" y2="405" /><text  class="poloto_tick_labels poloto_text" dominant-baseline="start" text-anchor="middle" x="400.2502470251525" y="430" >2.0</text><line  class="poloto_axis_lines" stroke="black" x1="462.81280878144065" x2="462.81280878144065" y1="400" y2="405" /><text  class="poloto_tick_labels poloto_text" dominant-baseline="start" text-anchor="middle" x="462.81280878144065" y="430" >2.5</text><line  class="poloto_axis_lines" stroke="black" x1="525.3753705377287" x2="525.3753705377287" y1="400" y2="405" /><text  class="poloto_tick_labels poloto_text" dominant-baseline="start" text-anchor="middle" x="525.3753705377287" y="430" >3.0</text><line  class="poloto_axis_lines" stroke="black" x1="587.937932294017" x2="587.937932294017" y1="400" y2="405" /><text  class="poloto_tick_labels poloto_text" dominant-baseline="start" text-anchor="middle" x="587.937932294017" y="430" >3.5</text><path  stroke="black" fill="none" class="poloto_axis_lines" style="stroke-dasharray:6.256256175628812;stroke-dashoffset:-0;" d=" M 150 400 L 650 400" /><path  stroke="black" fill="none" class="poloto_axis_lines" style="stroke-dasharray:9.396117329599253;stroke-dashoffset:-9.396117329599264;" d=" M 150 400 L 150 100" /></svg>