<svg class="poloto" width="800" height="500" viewBox="0 0 800 500" xmlns="http://www.w3.org/2000/svg"><style>.poloto{stroke-linecap:round;stroke-linejoin:round;font-family:Roboto,sans-serif;font-size:16px;}.poloto_background{fill:AliceBlue;}.poloto_scatter{stroke-width:7}.poloto_tick_line{stroke:gray;stroke-width:0.5}.poloto_line{stroke-width:2}.poloto_text{fill: black;}.poloto_axis_lines{stroke: black;stroke-width:3;fill:none;stroke-dasharray:none}.poloto_title{font-size:24px;dominant-baseline:start;text-anchor:middle;}.poloto_xname{font-size:24px;dominant-baseline:start;text-anchor:middle;}.poloto_yname{font-size:24px;dominant-baseline:start;text-anchor:middle;}.poloto_legend_text{font-size:20px;dominant-baseline:middle;text-anchor:start;}.poloto0stroke{stroke:blue;}.poloto1stroke{stroke:red;}.poloto2stroke{stroke:green;}.poloto3stroke{stroke:gold;}.poloto4stroke{stroke:aqua;}.poloto5stroke{stroke:lime;}.poloto6stroke{stroke:orange;}.poloto7stroke{stroke:chocolate;}.poloto0fill{fill:blue;}.poloto1fill{fill:red;}.poloto2fill{fill:green;}.poloto3fill{fill:gold;}.poloto4fill{fill:aqua;}.poloto5fill{fill:lime;}.poloto6fill{fill:orange;}.poloto7fill{fill:chocolate;}</style><circle  r="1e5" class="poloto_background" /><text  class="poloto_text poloto_legend_text" x="675" y="100" >knot</text><line  class="poloto_scatter poloto_legend_icon poloto0stroke poloto0legend" stroke="black" x1="685" x2="685" y1="81.25" y2="81.25" /><path  class="poloto_scatter poloto0stroke" d=" M 233.42 332.47 h 0 M 316.83 332.47 h 0 M 400.25 332.47 h 0 M 483.67 332.47 h 0 M 567.08 332.47 h 0" /><text  class="poloto_text poloto_legend_text" x="675" y="150" >curve</text><line  class="poloto_line poloto_legend_icon poloto1stroke poloto1legend" stroke="black" x1="680" x2="730" y1="131.25" y2="131.25" /><path  class="poloto_line poloto1stroke" fill="none" stroke="black" d=" M 150.00 400.00 L 150.50 399.34 L 151.00 398.68 L 151.50 398.02 L 152.00 397.37 L 152.50 396.71 L 153.00 396.06 L 153.50 395.41 L 154.00 394.77 L 154.50 394.12 L 155.01 393.48 L 155.51 392.84 L 156.01 392.20 L 156.51 391.57 L 157.01 390.93 L 157.51 390.30 L 158.01 389.67 L 158.51 389.05 L 159.01 388.42 L 159.51 387.80 L 160.01 387.18 L 160.51 386.56 L 161.01 385.95 L 161.51 385.34 L 162.01 384.72 L 162.51 384.12 L 163.01 383.51 L 163.51 382.90 L 164.01 382.30 L 164.51 381.70 L 165.02 381.10 L 165.52 380.51 L 166.02 379.92 L 166.52 379.32 L 167.02 378.74 L 167.52 378.15 L 168.02 377.56 L 168.52 376.98 L 169.02 376.40 L 169.52 375.82 L 170.02 375.25 L 170.52 374.67 L 171.02 374.10 L 171.52 373.53 L 172.02 372.97 L 172.52 372.40 L 173.02 371.84 L 173.52 371.28 L 174.02 370.72 L 174.52 370.17 L 175.03 369.61 L 175.53 369.06 L 176.03 368.51 L 176.53 367.96 L 177.03 367.42 L 177.53 366.88 L 178.03 366.34 L 178.53 365.80 L 179.03 365.26 L 179.53 364.73 L 180.03 364.20 L 180.53 363.67 L 181.03 363.14 L 181.53 362.62 L 182.03 362.09 L 182.53 361.57 L 183.03 361.05 L 183.53 360.54 L 184.03 360.02 L 184.53 359.51 L 185.04 359.00 L 185.54 358.50 L 186.04 357.99 L 186.54 357.49 L 187.04 356.99 L 187.54 356.49 L 188.04 355.99 L 188.54 355.50 L 189.04 355.01 L 189.54 354.52 L 190.04 354.03 L 190.54 353.55 L 191.04 353.06 L 191.54 352.58 L 192.04 352.10 L 192.54 351.63 L 193.04 351.15 L 193.54 350.68 L 194.04 350.21 L 194.54 349.74 L 195.05 349.28 L 195.55 348.82 L 196.05 348.36 L 196.55 347.90 L 197.05 347.44 L 197.55 346.99 L 198.05 346.53 L 198.55 346.09 L 199.05 345.64 L 199.55 345.19 L 200.05 344.75 L 200.55 344.31 L 201.05 343.87 L 201.55 343.43 L 202.05 343.00 L 202.55 342.57 L 203.05 342.14 L 203.55 341.71 L 204.05 341.28 L 204.55 340.86 L 205.06 340.44 L 205.56 340.02 L 206.06 339.60 L 206.56 339.19 L 207.06 338.78 L 207.56 338.37 L 208.06 337.96 L 208.56 337.55 L 209.06 337.15 L 209.56 336.75 L 210.06 336.35 L 210.56 335.95 L 211.06 335.56 L 211.56 335.17 L 212.06 334.78 L 212.56 334.39 L 213.06 334.00 L 213.56 333.62 L 214.06 333.24 L 214.56 332.86 L 215.07 332.48 L 215.57 332.11 L 216.07 331.74 L 216.57 331.37 L 217.07 331.00 L 217.57 330.63 L 218.07 330.27 L 218.57 329.91 L 219.07 329.55 L 219.57 329.19 L 220.07 328.84 L 220.57 328.48 L 221.07 328.13 L 221.57 327.79 L 222.07 327.44 L 222.57 327.10 L 223.07 326.76 L 223.57 326.42 L 224.07 326.08 L 224.57 325.74 L 225.08 325.41 L 225.58 325.08 L 226.08 324.75 L 226.58 324.43 L 227.08 324.10 L 227.58 323.78 L 228.08 323.46 L 228.58 323.14 L 229.08 322.83 L 229.58 322.52 L 230.08 322.21 L 230.58 321.90 L 231.08 321.59 L 231.58 321.29 L 232.08 320.99 L 232.58 320.69 L 233.08 320.39 L 233.58 320.10 L 234.08 319.80 L 234.58 319.51 L 235.09 319.22 L 235.59 318.94 L 236.09 318.65 L 236.59 318.37 L 237.09 318.09 L 237.59 317.81 L 238.09 317.54 L 238.59 317.27 L 239.09 317.00 L 239.59 316.73 L 240.09 316.46 L 240.59 316.20 L 241.09 315.93 L 241.59 315.68 L 242.09 315.42 L 242.59 315.16 L 243.09 314.91 L 243.59 314.66 L 244.09 314.41 L 244.59 314.16 L 245.10 313.92 L 245.60 313.68 L 246.10 313.44 L 246.60 313.20 L 247.10 312.96 L 247.60 312.73 L 248.10 312.50 L 248.60 312.27 L 249.10 312.05 L 249.60 311.82 L 250.10 311.60 L 250.60 311.38 L 251.10 311.16 L 251.60 310.95 L 252.10 310.73 L 252.60 310.52 L 253.10 310.31 L 253.60 310.11 L 254.10 309.90 L 254.60 309.70 L 255.11 309.50 L 255.61 309.30 L 256.11 309.11 L 256.61 308.91 L 257.11 308.72 L 257.61 308.53 L 258.11 308.35 L 258.61 308.16 L 259.11 307.98 L 259.61 307.80 L 260.11 307.62 L 260.61 307.44 L 261.11 307.27 L 261.61 307.10 L 262.11 306.93 L 262.61 306.76 L 263.11 306.60 L 263.61 306.44 L 264.11 306.28 L 264.61 306.12 L 265.12 305.96 L 265.62 305.81 L 266.12 305.66 L 266.62 305.51 L 267.12 305.36 L 267.62 305.22 L 268.12 305.07 L 268.62 304.93 L 269.12 304.80 L 269.62 304.66 L 270.12 304.53 L 270.62 304.39 L 271.12 304.27 L 271.62 304.14 L 272.12 304.01 L 272.62 303.89 L 273.12 303.77 L 273.62 303.65 L 274.12 303.54 L 274.62 303.42 L 275.13 303.31 L 275.63 303.20 L 276.13 303.09 L 276.63 302.99 L 277.13 302.89 L 277.63 302.79 L 278.13 302.69 L 278.63 302.59 L 279.13 302.50 L 279.63 302.41 L 280.13 302.32 L 280.63 302.23 L 281.13 302.14 L 281.63 302.06 L 282.13 301.98 L 282.63 301.90 L 283.13 301.83 L 283.63 301.75 L 284.13 301.68 L 284.63 301.61 L 285.14 301.54 L 285.64 301.48 L 286.14 301.41 L 286.64 301.35 L 287.14 301.30 L 287.64 301.24 L 288.14 301.18 L 288.64 301.13 L 289.14 301.08 L 289.64 301.04 L 290.14 300.99 L 290.64 300.95 L 291.14 300.91 L 291.64 300.87 L 292.14 300.83 L 292.64 300.80 L 293.14 300.76 L 293.64 300.74 L 294.14 300.71 L 294.64 300.68 L 295.15 300.66 L 295.65 300.64 L 296.15 300.62 L 296.65 300.60 L 297.15 300.59 L 297.65 300.58 L 298.15 300.57 L 298.65 300.56 L 299.15 300.55 L 299.65 300.55 L 300.15 300.55 L 300.65 300.55 L 301.15 300.55 L 301.65 300.56 L 302.15 300.57 L 302.65 300.58 L 303.15 300.59 L 303.65 300.60 L 304.15 300.62 L 304.65 300.64 L 305.16 300.66 L 305.66 300.68 L 306.16 300.71 L 306.66 300.74 L 307.16 300.76 L 307.66 300.80 L 308.16 300.83 L 308.66 300.87 L 309.16 300.91 L 309.66 300.95 L 310.16 300.99 L 310.66 301.04 L 311.16 301.08 L 311.66 301.13 L 312.16 301.18 L 312.66 301.24 L 313.16 301.30 L 313.66 301.35 L 314.16 301.41 L 314.66 301.48 L 315.17 301.54 L 315.67 301.61 L 316.17 301.68 L 316.67 301.75 L 317.17 301.83 L 317.67 301.90 L 318.17 301.97 L 318.67 302.04 L 319.17 302.11 L 319.67 302.17 L 320.17 302.24 L 320.67 302.30 L 321.17 302.36 L 321.67 302.43 L 322.17 302.49 L 322.67 302.55 L 323.17 302.60 L 323.67 302.66 L 324.17 302.71 L 324.67 302.77 L 325.18 302.82 L 325.68 302.87 L 326.18 302.92 L 326.68 302.97 L 327.18 303.02 L 327.68 303.06 L 328.18 303.11 L 328.68 303.15 L 329.18 303.19 L 329.68 303.23 L 330.18 303.27 L 330.68 303.31 L 331.18 303.34 L 331.68 303.38 L 332.18 303.41 L 332.68 303.44 L 333.18 303.48 L 333.68 303.50 L 334.18 303.53 L 334.68 303.56 L 335.19 303.59 L 335.69 303.61 L 336.19 303.63 L 336.69 303.66 L 337.19 303.68 L 337.69 303.69 L 338.19 303.71 L 338.69 303.73 L 339.19 303.74 L 339.69 303.76 L 340.19 303.77 L 340.69 303.78 L 341.19 303.79 L 341.69 303.80 L 342.19 303.81 L 342.69 303.81 L 343.19 303.82 L 343.69 303.82 L 344.19 303.82 L 344.69 303.82 L 345.20 303.82 L 345.70 303.82 L 346.20 303.82 L 346.70 303.81 L 347.20 303.81 L 347.70 303.80 L 348.20 303.79 L 348.70 303.78 L 349.20 303.77 L 349.70 303.75 L 350.20 303.74 L 350.70 303.73 L 351.20 303.71 L 351.70 303.69 L 352.20 303.67 L 352.70 303.65 L 353.20 303.63 L 353.70 303.61 L 354.20 303.58 L 354.70 303.55 L 355.21 303.53 L 355.71 303.50 L 356.21 303.47 L 356.71 303.44 L 357.21 303.40 L 357.71 303.37 L 358.21 303.34 L 358.71 303.30 L 359.21 303.26 L 359.71 303.22 L 360.21 303.18 L 360.71 303.14 L 361.21 303.10 L 361.71 303.05 L 362.21 303.01 L 362.71 302.96 L 363.21 302.91 L 363.71 302.86 L 364.21 302.81 L 364.71 302.76 L 365.22 302.70 L 365.72 302.65 L 366.22 302.59 L 366.72 302.53 L 367.22 302.47 L 367.72 302.41 L 368.22 302.35 L 368.72 302.29 L 369.22 302.22 L 369.72 302.16 L 370.22 302.09 L 370.72 302.02 L 371.22 301.95 L 371.72 301.88 L 372.22 301.81 L 372.72 301.74 L 373.22 301.66 L 373.72 301.58 L 374.22 301.51 L 374.72 301.43 L 375.23 301.35 L 375.73 301.26 L 376.23 301.18 L 376.73 301.10 L 377.23 301.01 L 377.73 300.92 L 378.23 300.84 L 378.73 300.75 L 379.23 300.66 L 379.73 300.56 L 380.23 300.47 L 380.73 300.37 L 381.23 300.28 L 381.73 300.18 L 382.23 300.08 L 382.73 299.98 L 383.23 299.88 L 383.73 299.78 L 384.23 299.67 L 384.73 299.57 L 385.24 299.46 L 385.74 299.35 L 386.24 299.24 L 386.74 299.13 L 387.24 299.02 L 387.74 298.91 L 388.24 298.79 L 388.74 298.68 L 389.24 298.56 L 389.74 298.44 L 390.24 298.32 L 390.74 298.20 L 391.24 298.07 L 391.74 297.95 L 392.24 297.82 L 392.74 297.70 L 393.24 297.57 L 393.74 297.44 L 394.24 297.31 L 394.74 297.18 L 395.25 297.04 L 395.75 296.91 L 396.25 296.77 L 396.75 296.64 L 397.25 296.50 L 397.75 296.36 L 398.25 296.22 L 398.75 296.07 L 399.25 295.93 L 399.75 295.78 L 400.25 295.64 L 400.75 295.49 L 401.25 295.35 L 401.75 295.21 L 402.25 295.07 L 402.75 294.93 L 403.25 294.79 L 403.75 294.66 L 404.25 294.53 L 404.75 294.40 L 405.26 294.27 L 405.76 294.15 L 406.26 294.03 L 406.76 293.91 L 407.26 293.79 L 407.76 293.68 L 408.26 293.56 L 408.76 293.45 L 409.26 293.34 L 409.76 293.24 L 410.26 293.13 L 410.76 293.03 L 411.26 292.93 L 411.76 292.83 L 412.26 292.74 L 412.76 292.64 L 413.26 292.55 L 413.76 292.46 L 414.26 292.38 L 414.76 292.29 L 415.27 292.21 L 415.77 292.13 L 416.27 292.05 L 416.77 291.98 L 417.27 291.91 L 417.77 291.83 L 418.27 291.77 L 418.77 291.70 L 419.27 291.63 L 419.77 291.57 L 420.27 291.51 L 420.77 291.45 L 421.27 291.40 L 421.77 291.34 L 422.27 291.29 L 422.77 291.24 L 423.27 291.20 L 423.77 291.15 L 424.27 291.11 L 424.77 291.07 L 425.28 291.03 L 425.78 291.00 L 426.28 290.96 L 426.78 290.93 L 427.28 290.90 L 427.78 290.88 L 428.28 290.85 L 428.78 290.83 L 429.28 290.81 L 429.78 290.79 L 430.28 290.78 L 430.78 290.76 L 431.28 290.75 L 431.78 290.74 L 432.28 290.73 L 432.78 290.73 L 433.28 290.73 L 433.78 290.73 L 434.28 290.73 L 434.78 290.73 L 435.29 290.74 L 435.79 290.75 L 436.29 290.76 L 436.79 290.77 L 437.29 290.79 L 437.79 290.80 L 438.29 290.82 L 438.79 290.84 L 439.29 290.87 L 439.79 290.89 L 440.29 290.92 L 440.79 290.95 L 441.29 290.99 L 441.79 291.02 L 442.29 291.06 L 442.79 291.10 L 443.29 291.14 L 443.79 291.18 L 444.29 291.23 L 444.79 291.28 L 445.30 291.33 L 445.80 291.38 L 446.30 291.44 L 446.80 291.49 L 447.30 291.55 L 447.80 291.61 L 448.30 291.68 L 448.80 291.74 L 449.30 291.81 L 449.80 291.88 L 450.30 291.95 L 450.80 292.03 L 451.30 292.11 L 451.80 292.18 L 452.30 292.27 L 452.80 292.35 L 453.30 292.44 L 453.80 292.52 L 454.30 292.61 L 454.80 292.71 L 455.31 292.80 L 455.81 292.90 L 456.31 293.00 L 456.81 293.10 L 457.31 293.20 L 457.81 293.31 L 458.31 293.42 L 458.81 293.53 L 459.31 293.64 L 459.81 293.75 L 460.31 293.87 L 460.81 293.99 L 461.31 294.11 L 461.81 294.23 L 462.31 294.36 L 462.81 294.49 L 463.31 294.62 L 463.81 294.75 L 464.31 294.88 L 464.81 295.02 L 465.32 295.16 L 465.82 295.30 L 466.32 295.44 L 466.82 295.59 L 467.32 295.74 L 467.82 295.89 L 468.32 296.04 L 468.82 296.19 L 469.32 296.35 L 469.82 296.51 L 470.32 296.67 L 470.82 296.83 L 471.32 297.00 L 471.82 297.16 L 472.32 297.33 L 472.82 297.51 L 473.32 297.68 L 473.82 297.86 L 474.32 298.04 L 474.82 298.22 L 475.33 298.40 L 475.83 298.59 L 476.33 298.77 L 476.83 298.96 L 477.33 299.15 L 477.83 299.35 L 478.33 299.54 L 478.83 299.74 L 479.33 299.94 L 479.83 300.15 L 480.33 300.35 L 480.83 300.56 L 481.33 300.77 L 481.83 300.98 L 482.33 301.19 L 482.83 301.41 L 483.33 301.63 L 483.83 301.85 L 484.33 302.07 L 484.83 302.28 L 485.34 302.49 L 485.84 302.69 L 486.34 302.89 L 486.84 303.08 L 487.34 303.27 L 487.84 303.45 L 488.34 303.63 L 488.84 303.80 L 489.34 303.97 L 489.84 304.13 L 490.34 304.29 L 490.84 304.44 L 491.34 304.59 L 491.84 304.74 L 492.34 304.88 L 492.84 305.01 L 493.34 305.14 L 493.84 305.26 L 494.34 305.38 L 494.84 305.50 L 495.35 305.61 L 495.85 305.71 L 496.35 305.81 L 496.85 305.91 L 497.35 306.00 L 497.85 306.09 L 498.35 306.17 L 498.85 306.24 L 499.35 306.31 L 499.85 306.38 L 500.35 306.44 L 500.85 306.50 L 501.35 306.55 L 501.85 306.60 L 502.35 306.64 L 502.85 306.68 L 503.35 306.71 L 503.85 306.74 L 504.35 306.76 L 504.85 306.78 L 505.36 306.79 L 505.86 306.80 L 506.36 306.80 L 506.86 306.80 L 507.36 306.79 L 507.86 306.78 L 508.36 306.76 L 508.86 306.74 L 509.36 306.72 L 509.86 306.68 L 510.36 306.65 L 510.86 306.61 L 511.36 306.56 L 511.86 306.51 L 512.36 306.46 L 512.86 306.40 L 513.36 306.33 L 513.86 306.26 L 514.36 306.19 L 514.86 306.11 L 515.37 306.02 L 515.87 305.93 L 516.37 305.84 L 516.87 305.74 L 517.37 305.64 L 517.87 305.53 L 518.37 305.41 L 518.87 305.29 L 519.37 305.17 L 519.87 305.04 L 520.37 304.91 L 520.87 304.77 L 521.37 304.63 L 521.87 304.48 L 522.37 304.33 L 522.87 304.17 L 523.37 304.01 L 523.87 303.84 L 524.37 303.67 L 524.87 303.49 L 525.38 303.31 L 525.88 303.12 L 526.38 302.93 L 526.88 302.74 L 527.38 302.54 L 527.88 302.33 L 528.38 302.12 L 528.88 301.90 L 529.38 301.68 L 529.88 301.46 L 530.38 301.23 L 530.88 300.99 L 531.38 300.75 L 531.88 300.51 L 532.38 300.26 L 532.88 300.00 L 533.38 299.74 L 533.88 299.48 L 534.38 299.21 L 534.88 298.93 L 535.39 298.66 L 535.89 298.37 L 536.39 298.08 L 536.89 297.79 L 537.39 297.49 L 537.89 297.19 L 538.39 296.88 L 538.89 296.57 L 539.39 296.25 L 539.89 295.93 L 540.39 295.60 L 540.89 295.27 L 541.39 294.93 L 541.89 294.59 L 542.39 294.24 L 542.89 293.89 L 543.39 293.53 L 543.89 293.17 L 544.39 292.80 L 544.89 292.43 L 545.40 292.05 L 545.90 291.67 L 546.40 291.29 L 546.90 290.90 L 547.40 290.50 L 547.90 290.10 L 548.40 289.70 L 548.90 289.28 L 549.40 288.87 L 549.90 288.45 L 550.40 288.02 L 550.90 287.60 L 551.40 287.16 L 551.90 286.72 L 552.40 286.28 L 552.90 285.83 L 553.40 285.37 L 553.90 284.91 L 554.40 284.45 L 554.90 283.98 L 555.41 283.51 L 555.91 283.03 L 556.41 282.55 L 556.91 282.06 L 557.41 281.57 L 557.91 281.07 L 558.41 280.57 L 558.91 280.06 L 559.41 279.55 L 559.91 279.03 L 560.41 278.51 L 560.91 277.98 L 561.41 277.45 L 561.91 276.91 L 562.41 276.37 L 562.91 275.82 L 563.41 275.27 L 563.91 274.72 L 564.41 274.16 L 564.91 273.59 L 565.42 273.02 L 565.92 272.44 L 566.42 271.86 L 566.92 271.28 L 567.42 270.69 L 567.92 270.09 L 568.42 269.49 L 568.92 268.89 L 569.42 268.28 L 569.92 267.66 L 570.42 267.04 L 570.92 266.42 L 571.42 265.79 L 571.92 265.16 L 572.42 264.52 L 572.92 263.87 L 573.42 263.23 L 573.92 262.57 L 574.42 261.91 L 574.92 261.25 L 575.43 260.58 L 575.93 259.91 L 576.43 259.23 L 576.93 258.55 L 577.43 257.86 L 577.93 257.17 L 578.43 256.47 L 578.93 255.77 L 579.43 255.07 L 579.93 254.35 L 580.43 253.64 L 580.93 252.92 L 581.43 252.19 L 581.93 251.46 L 582.43 250.72 L 582.93 249.98 L 583.43 249.24 L 583.93 248.48 L 584.43 247.73 L 584.93 246.97 L 585.44 246.20 L 585.94 245.43 L 586.44 244.66 L 586.94 243.88 L 587.44 243.09 L 587.94 242.30 L 588.44 241.51 L 588.94 240.71 L 589.44 239.91 L 589.94 239.10 L 590.44 238.28 L 590.94 237.47 L 591.44 236.64 L 591.94 235.81 L 592.44 234.98 L 592.94 234.14 L 593.44 233.30 L 593.94 232.45 L 594.44 231.60 L 594.94 230.74 L 595.45 229.88 L 595.95 229.01 L 596.45 228.14 L 596.95 227.26 L 597.45 226.38 L 597.95 225.49 L 598.45 224.60 L 598.95 223.71 L 599.45 222.80 L 599.95 221.90 L 600.45 220.99 L 600.95 220.07 L 601.45 219.15 L 601.95 218.22 L 602.45 217.29 L 602.95 216.36 L 603.45 215.42 L 603.95 214.47 L 604.45 213.52 L 604.95 212.57 L 605.46 211.61 L 605.96 210.64 L 606.46 209.68 L 606.96 208.70 L 607.46 207.72 L 607.96 206.74 L 608.46 205.75 L 608.96 204.76 L 609.46 203.76 L 609.96 202.75 L 610.46 201.75 L 610.96 200.73 L 611.46 199.71 L 611.96 198.69 L 612.46 197.66 L 612.96 196.63 L 613.46 195.59 L 613.96 194.55 L 614.46 193.50 L 614.96 192.45 L 615.47 191.39 L 615.97 190.33 L 616.47 189.27 L 616.97 188.19 L 617.47 187.12 L 617.97 186.04 L 618.47 184.95 L 618.97 183.86 L 619.47 182.76 L 619.97 181.66 L 620.47 180.56 L 620.97 179.45 L 621.47 178.33 L 621.97 177.21 L 622.47 176.09 L 622.97 174.96 L 623.47 173.82 L 623.97 172.68 L 624.47 171.54 L 624.97 170.39 L 625.48 169.24 L 625.98 168.08 L 626.48 166.91 L 626.98 165.74 L 627.48 164.57 L 627.98 163.39 L 628.48 162.21 L 628.98 161.02 L 629.48 159.83 L 629.98 158.63 L 630.48 157.43 L 630.98 156.22 L 631.48 155.01 L 631.98 153.79 L 632.48 152.57 L 632.98 151.34 L 633.48 150.11 L 633.98 148.87 L 634.48 147.63 L 634.98 146.38 L 635.49 145.13 L 635.99 143.88 L 636.49 142.61 L 636.99 141.35 L 637.49 140.08 L 637.99 138.80 L 638.49 137.52 L 638.99 136.24 L 639.49 134.95 L 639.99 133.65 L 640.49 132.35 L 640.99 131.05 L 641.49 129.74 L 641.99 128.42 L 642.49 127.10 L 642.99 125.78 L 643.49 124.45 L 643.99 123.11 L 644.49 121.77 L 644.99 120.43 L 645.50 119.08 L 646.00 117.73 L 646.50 116.37 L 647.00 115.01 L 647.50 113.64 L 648.00 112.27 L 648.50 110.89 L 649.00 109.51 L 649.50 108.12 L 650.00 106.73" /><text  class="poloto_text poloto_legend_text" x="675" y="200" >derivative 1</text><line  class="poloto_line poloto_legend_icon poloto2stroke poloto2legend" stroke="black" x1="680" x2="730" y1="181.25" y2="181.25" /><path  class="poloto_line poloto2stroke" fill="none" stroke="black" d=" M 150.00 221.97 L 150.50 222.34 L 151.00 222.71 L 151.50 223.07 L 152.00 223.44 L 152.50 223.81 L 153.00 224.18 L 153.50 224.55 L 154.00 224.92 L 154.50 225.28 L 155.01 225.65 L 155.51 226.02 L 156.01 226.39 L 156.51 226.76 L 157.01 227.13 L 157.51 227.49 L 158.01 227.86 L 158.51 228.23 L 159.01 228.60 L 159.51 228.97 L 160.01 229.34 L 160.51 229.70 L 161.01 230.07 L 161.51 230.44 L 162.01 230.81 L 162.51 231.18 L 163.01 231.55 L 163.51 231.91 L 164.01 232.28 L 164.51 232.65 L 165.02 233.02 L 165.52 233.39 L 166.02 233.76 L 166.52 234.12 L 167.02 234.49 L 167.52 234.86 L 168.02 235.23 L 168.52 235.60 L 169.02 235.97 L 169.52 236.33 L 170.02 236.70 L 170.52 237.07 L 171.02 237.44 L 171.52 237.81 L 172.02 238.18 L 172.52 238.54 L 173.02 238.91 L 173.52 239.28 L 174.02 239.65 L 174.52 240.02 L 175.03 240.39 L 175.53 240.75 L 176.03 241.12 L 176.53 241.49 L 177.03 241.86 L 177.53 242.23 L 178.03 242.60 L 178.53 242.96 L 179.03 243.33 L 179.53 243.70 L 180.03 244.07 L 180.53 244.44 L 181.03 244.81 L 181.53 245.17 L 182.03 245.54 L 182.53 245.91 L 183.03 246.28 L 183.53 246.65 L 184.03 247.02 L 184.53 247.38 L 185.04 247.75 L 185.54 248.12 L 186.04 248.49 L 186.54 248.86 L 187.04 249.23 L 187.54 249.59 L 188.04 249.96 L 188.54 250.33 L 189.04 250.70 L 189.54 251.07 L 190.04 251.44 L 190.54 251.80 L 191.04 252.17 L 191.54 252.54 L 192.04 252.91 L 192.54 253.28 L 193.04 253.65 L 193.54 254.01 L 194.04 254.38 L 194.54 254.75 L 195.05 255.12 L 195.55 255.49 L 196.05 255.86 L 196.55 256.22 L 197.05 256.59 L 197.55 256.96 L 198.05 257.33 L 198.55 257.70 L 199.05 258.07 L 199.55 258.43 L 200.05 258.80 L 200.55 259.17 L 201.05 259.54 L 201.55 259.91 L 202.05 260.28 L 202.55 260.65 L 203.05 261.01 L 203.55 261.38 L 204.05 261.75 L 204.55 262.12 L 205.06 262.49 L 205.56 262.86 L 206.06 263.22 L 206.56 263.59 L 207.06 263.96 L 207.56 264.33 L 208.06 264.70 L 208.56 265.07 L 209.06 265.43 L 209.56 265.80 L 210.06 266.17 L 210.56 266.54 L 211.06 266.91 L 211.56 267.28 L 212.06 267.64 L 212.56 268.01 L 213.06 268.38 L 213.56 268.75 L 214.06 269.12 L 214.56 269.49 L 215.07 269.85 L 215.57 270.22 L 216.07 270.59 L 216.57 270.96 L 217.07 271.33 L 217.57 271.70 L 218.07 272.06 L 218.57 272.43 L 219.07 272.80 L 219.57 273.17 L 220.07 273.54 L 220.57 273.91 L 221.07 274.27 L 221.57 274.64 L 222.07 275.01 L 222.57 275.38 L 223.07 275.75 L 223.57 276.12 L 224.07 276.48 L 224.57 276.85 L 225.08 277.22 L 225.58 277.59 L 226.08 277.96 L 226.58 278.33 L 227.08 278.69 L 227.58 279.06 L 228.08 279.43 L 228.58 279.80 L 229.08 280.17 L 229.58 280.54 L 230.08 280.90 L 230.58 281.27 L 231.08 281.64 L 231.58 282.01 L 232.08 282.38 L 232.58 282.75 L 233.08 283.11 L 233.58 283.48 L 234.08 283.85 L 234.58 284.22 L 235.09 284.59 L 235.59 284.96 L 236.09 285.32 L 236.59 285.69 L 237.09 286.06 L 237.59 286.43 L 238.09 286.80 L 238.59 287.17 L 239.09 287.53 L 239.59 287.90 L 240.09 288.27 L 240.59 288.64 L 241.09 289.01 L 241.59 289.38 L 242.09 289.74 L 242.59 290.11 L 243.09 290.48 L 243.59 290.85 L 244.09 291.22 L 244.59 291.59 L 245.10 291.95 L 245.60 292.32 L 246.10 292.69 L 246.60 293.06 L 247.10 293.43 L 247.60 293.80 L 248.10 294.16 L 248.60 294.53 L 249.10 294.90 L 249.60 295.27 L 250.10 295.64 L 250.60 296.01 L 251.10 296.37 L 251.60 296.74 L 252.10 297.11 L 252.60 297.48 L 253.10 297.85 L 253.60 298.22 L 254.10 298.58 L 254.60 298.95 L 255.11 299.32 L 255.61 299.69 L 256.11 300.06 L 256.61 300.43 L 257.11 300.79 L 257.61 301.16 L 258.11 301.53 L 258.61 301.90 L 259.11 302.27 L 259.61 302.64 L 260.11 303.00 L 260.61 303.37 L 261.11 303.74 L 261.61 304.11 L 262.11 304.48 L 262.61 304.85 L 263.11 305.21 L 263.61 305.58 L 264.11 305.95 L 264.61 306.32 L 265.12 306.69 L 265.62 307.06 L 266.12 307.42 L 266.62 307.79 L 267.12 308.16 L 267.62 308.53 L 268.12 308.90 L 268.62 309.27 L 269.12 309.63 L 269.62 310.00 L 270.12 310.37 L 270.62 310.74 L 271.12 311.11 L 271.62 311.48 L 272.12 311.84 L 272.62 312.21 L 273.12 312.58 L 273.62 312.95 L 274.12 313.32 L 274.62 313.69 L 275.13 314.05 L 275.63 314.42 L 276.13 314.79 L 276.63 315.16 L 277.13 315.53 L 277.63 315.90 L 278.13 316.26 L 278.63 316.63 L 279.13 317.00 L 279.63 317.37 L 280.13 317.74 L 280.63 318.11 L 281.13 318.47 L 281.63 318.84 L 282.13 319.21 L 282.63 319.58 L 283.13 319.95 L 283.63 320.32 L 284.13 320.68 L 284.63 321.05 L 285.14 321.42 L 285.64 321.79 L 286.14 322.16 L 286.64 322.53 L 287.14 322.89 L 287.64 323.26 L 288.14 323.63 L 288.64 324.00 L 289.14 324.37 L 289.64 324.74 L 290.14 325.10 L 290.64 325.47 L 291.14 325.84 L 291.64 326.21 L 292.14 326.58 L 292.64 326.95 L 293.14 327.31 L 293.64 327.68 L 294.14 328.05 L 294.64 328.42 L 295.15 328.79 L 295.65 329.16 L 296.15 329.52 L 296.65 329.89 L 297.15 330.26 L 297.65 330.63 L 298.15 331.00 L 298.65 331.37 L 299.15 331.73 L 299.65 332.10 L 300.15 332.47 L 300.65 332.84 L 301.15 333.21 L 301.65 333.58 L 302.15 333.94 L 302.65 334.31 L 303.15 334.68 L 303.65 335.05 L 304.15 335.42 L 304.65 335.79 L 305.16 336.15 L 305.66 336.52 L 306.16 336.89 L 306.66 337.26 L 307.16 337.63 L 307.66 338.00 L 308.16 338.36 L 308.66 338.73 L 309.16 339.10 L 309.66 339.47 L 310.16 339.84 L 310.66 340.21 L 311.16 340.57 L 311.66 340.94 L 312.16 341.31 L 312.66 341.68 L 313.16 342.05 L 313.66 342.42 L 314.16 342.78 L 314.66 343.15 L 315.17 343.52 L 315.67 343.89 L 316.17 344.26 L 316.67 344.63 L 317.17 344.60 L 317.67 344.38 L 318.17 344.16 L 318.67 343.94 L 319.17 343.72 L 319.67 343.50 L 320.17 343.28 L 320.67 343.05 L 321.17 342.83 L 321.67 342.61 L 322.17 342.39 L 322.67 342.17 L 323.17 341.95 L 323.67 341.73 L 324.17 341.51 L 324.67 341.29 L 325.18 341.07 L 325.68 340.84 L 326.18 340.62 L 326.68 340.40 L 327.18 340.18 L 327.68 339.96 L 328.18 339.74 L 328.68 339.52 L 329.18 339.30 L 329.68 339.08 L 330.18 338.86 L 330.68 338.63 L 331.18 338.41 L 331.68 338.19 L 332.18 337.97 L 332.68 337.75 L 333.18 337.53 L 333.68 337.31 L 334.18 337.09 L 334.68 336.87 L 335.19 336.65 L 335.69 336.42 L 336.19 336.20 L 336.69 335.98 L 337.19 335.76 L 337.69 335.54 L 338.19 335.32 L 338.69 335.10 L 339.19 334.88 L 339.69 334.66 L 340.19 334.44 L 340.69 334.21 L 341.19 333.99 L 341.69 333.77 L 342.19 333.55 L 342.69 333.33 L 343.19 333.11 L 343.69 332.89 L 344.19 332.67 L 344.69 332.45 L 345.20 332.23 L 345.70 332.00 L 346.20 331.78 L 346.70 331.56 L 347.20 331.34 L 347.70 331.12 L 348.20 330.90 L 348.70 330.68 L 349.20 330.46 L 349.70 330.24 L 350.20 330.02 L 350.70 329.79 L 351.20 329.57 L 351.70 329.35 L 352.20 329.13 L 352.70 328.91 L 353.20 328.69 L 353.70 328.47 L 354.20 328.25 L 354.70 328.03 L 355.21 327.81 L 355.71 327.58 L 356.21 327.36 L 356.71 327.14 L 357.21 326.92 L 357.71 326.70 L 358.21 326.48 L 358.71 326.26 L 359.21 326.04 L 359.71 325.82 L 360.21 325.60 L 360.71 325.37 L 361.21 325.15 L 361.71 324.93 L 362.21 324.71 L 362.71 324.49 L 363.21 324.27 L 363.71 324.05 L 364.21 323.83 L 364.71 323.61 L 365.22 323.39 L 365.72 323.16 L 366.22 322.94 L 366.72 322.72 L 367.22 322.50 L 367.72 322.28 L 368.22 322.06 L 368.72 321.84 L 369.22 321.62 L 369.72 321.40 L 370.22 321.18 L 370.72 320.95 L 371.22 320.73 L 371.72 320.51 L 372.22 320.29 L 372.72 320.07 L 373.22 319.85 L 373.72 319.63 L 374.22 319.41 L 374.72 319.19 L 375.23 318.97 L 375.73 318.74 L 376.23 318.52 L 376.73 318.30 L 377.23 318.08 L 377.73 317.86 L 378.23 317.64 L 378.73 317.42 L 379.23 317.20 L 379.73 316.98 L 380.23 316.76 L 380.73 316.53 L 381.23 316.31 L 381.73 316.09 L 382.23 315.87 L 382.73 315.65 L 383.23 315.43 L 383.73 315.21 L 384.23 314.99 L 384.73 314.77 L 385.24 314.55 L 385.74 314.32 L 386.24 314.10 L 386.74 313.88 L 387.24 313.66 L 387.74 313.44 L 388.24 313.22 L 388.74 313.00 L 389.24 312.78 L 389.74 312.56 L 390.24 312.34 L 390.74 312.11 L 391.24 311.89 L 391.74 311.67 L 392.24 311.45 L 392.74 311.23 L 393.24 311.01 L 393.74 310.79 L 394.24 310.57 L 394.74 310.35 L 395.25 310.13 L 395.75 309.90 L 396.25 309.68 L 396.75 309.46 L 397.25 309.24 L 397.75 309.02 L 398.25 308.80 L 398.75 308.58 L 399.25 308.36 L 399.75 308.14 L 400.25 307.92 L 400.75 308.28 L 401.25 308.65 L 401.75 309.02 L 402.25 309.39 L 402.75 309.76 L 403.25 310.13 L 403.75 310.49 L 404.25 310.86 L 404.75 311.23 L 405.26 311.60 L 405.76 311.97 L 406.26 312.34 L 406.76 312.70 L 407.26 313.07 L 407.76 313.44 L 408.26 313.81 L 408.76 314.18 L 409.26 314.55 L 409.76 314.91 L 410.26 315.28 L 410.76 315.65 L 411.26 316.02 L 411.76 316.39 L 412.26 316.76 L 412.76 317.12 L 413.26 317.49 L 413.76 317.86 L 414.26 318.23 L 414.76 318.60 L 415.27 318.97 L 415.77 319.33 L 416.27 319.70 L 416.77 320.07 L 417.27 320.44 L 417.77 320.81 L 418.27 321.18 L 418.77 321.54 L 419.27 321.91 L 419.77 322.28 L 420.27 322.65 L 420.77 323.02 L 421.27 323.39 L 421.77 323.75 L 422.27 324.12 L 422.77 324.49 L 423.27 324.86 L 423.77 325.23 L 424.27 325.60 L 424.77 325.96 L 425.28 326.33 L 425.78 326.70 L 426.28 327.07 L 426.78 327.44 L 427.28 327.81 L 427.78 328.17 L 428.28 328.54 L 428.78 328.91 L 429.28 329.28 L 429.78 329.65 L 430.28 330.02 L 430.78 330.38 L 431.28 330.75 L 431.78 331.12 L 432.28 331.49 L 432.78 331.86 L 433.28 332.23 L 433.78 332.59 L 434.28 332.96 L 434.78 333.33 L 435.29 333.70 L 435.79 334.07 L 436.29 334.44 L 436.79 334.80 L 437.29 335.17 L 437.79 335.54 L 438.29 335.91 L 438.79 336.28 L 439.29 336.65 L 439.79 337.01 L 440.29 337.38 L 440.79 337.75 L 441.29 338.12 L 441.79 338.49 L 442.29 338.86 L 442.79 339.22 L 443.29 339.59 L 443.79 339.96 L 444.29 340.33 L 444.79 340.70 L 445.30 341.07 L 445.80 341.43 L 446.30 341.80 L 446.80 342.17 L 447.30 342.54 L 447.80 342.91 L 448.30 343.28 L 448.80 343.64 L 449.30 344.01 L 449.80 344.38 L 450.30 344.75 L 450.80 345.12 L 451.30 345.49 L 451.80 345.85 L 452.30 346.22 L 452.80 346.59 L 453.30 346.96 L 453.80 347.33 L 454.30 347.70 L 454.80 348.06 L 455.31 348.43 L 455.81 348.80 L 456.31 349.17 L 456.81 349.54 L 457.31 349.91 L 457.81 350.27 L 458.31 350.64 L 458.81 351.01 L 459.31 351.38 L 459.81 351.75 L 460.31 352.12 L 460.81 352.48 L 461.31 352.85 L 461.81 353.22 L 462.31 353.59 L 462.81 353.96 L 463.31 354.33 L 463.81 354.69 L 464.31 355.06 L 464.81 355.43 L 465.32 355.80 L 465.82 356.17 L 466.32 356.54 L 466.82 356.90 L 467.32 357.27 L 467.82 357.64 L 468.32 358.01 L 468.82 358.38 L 469.32 358.75 L 469.82 359.11 L 470.32 359.48 L 470.82 359.85 L 471.32 360.22 L 471.82 360.59 L 472.32 360.96 L 472.82 361.32 L 473.32 361.69 L 473.82 362.06 L 474.32 362.43 L 474.82 362.80 L 475.33 363.17 L 475.83 363.53 L 476.33 363.90 L 476.83 364.27 L 477.33 364.64 L 477.83 365.01 L 478.33 365.38 L 478.83 365.74 L 479.33 366.11 L 479.83 366.48 L 480.33 366.85 L 480.83 367.22 L 481.33 367.59 L 481.83 367.95 L 482.33 368.32 L 482.83 368.69 L 483.33 369.06 L 483.83 369.03 L 484.33 368.22 L 484.83 367.41 L 485.34 366.60 L 485.84 365.79 L 486.34 364.98 L 486.84 364.17 L 487.34 363.36 L 487.84 362.55 L 488.34 361.74 L 488.84 360.93 L 489.34 360.12 L 489.84 359.31 L 490.34 358.50 L 490.84 357.69 L 491.34 356.88 L 491.84 356.07 L 492.34 355.26 L 492.84 354.45 L 493.34 353.64 L 493.84 352.83 L 494.34 352.02 L 494.84 351.21 L 495.35 350.40 L 495.85 349.59 L 496.35 348.78 L 496.85 347.97 L 497.35 347.16 L 497.85 346.35 L 498.35 345.53 L 498.85 344.72 L 499.35 343.91 L 499.85 343.10 L 500.35 342.29 L 500.85 341.48 L 501.35 340.67 L 501.85 339.86 L 502.35 339.05 L 502.85 338.24 L 503.35 337.43 L 503.85 336.62 L 504.35 335.81 L 504.85 335.00 L 505.36 334.19 L 505.86 333.38 L 506.36 332.57 L 506.86 331.76 L 507.36 330.95 L 507.86 330.14 L 508.36 329.33 L 508.86 328.52 L 509.36 327.71 L 509.86 326.90 L 510.36 326.09 L 510.86 325.28 L 511.36 324.47 L 511.86 323.66 L 512.36 322.85 L 512.86 322.03 L 513.36 321.22 L 513.86 320.41 L 514.36 319.60 L 514.86 318.79 L 515.37 317.98 L 515.87 317.17 L 516.37 316.36 L 516.87 315.55 L 517.37 314.74 L 517.87 313.93 L 518.37 313.12 L 518.87 312.31 L 519.37 311.50 L 519.87 310.69 L 520.37 309.88 L 520.87 309.07 L 521.37 308.26 L 521.87 307.45 L 522.37 306.64 L 522.87 305.83 L 523.37 305.02 L 523.87 304.21 L 524.37 303.40 L 524.87 302.59 L 525.38 301.78 L 525.88 300.97 L 526.38 300.16 L 526.88 299.35 L 527.38 298.53 L 527.88 297.72 L 528.38 296.91 L 528.88 296.10 L 529.38 295.29 L 529.88 294.48 L 530.38 293.67 L 530.88 292.86 L 531.38 292.05 L 531.88 291.24 L 532.38 290.43 L 532.88 289.62 L 533.38 288.81 L 533.88 288.00 L 534.38 287.19 L 534.88 286.38 L 535.39 285.57 L 535.89 284.76 L 536.39 283.95 L 536.89 283.14 L 537.39 282.33 L 537.89 281.52 L 538.39 280.71 L 538.89 279.90 L 539.39 279.09 L 539.89 278.28 L 540.39 277.47 L 540.89 276.66 L 541.39 275.85 L 541.89 275.03 L 542.39 274.22 L 542.89 273.41 L 543.39 272.60 L 543.89 271.79 L 544.39 270.98 L 544.89 270.17 L 545.40 269.36 L 545.90 268.55 L 546.40 267.74 L 546.90 266.93 L 547.40 266.12 L 547.90 265.31 L 548.40 264.50 L 548.90 263.69 L 549.40 262.88 L 549.90 262.07 L 550.40 261.26 L 550.90 260.45 L 551.40 259.64 L 551.90 258.83 L 552.40 258.02 L 552.90 257.21 L 553.40 256.40 L 553.90 255.59 L 554.40 254.78 L 554.90 253.97 L 555.41 253.16 L 555.91 252.35 L 556.41 251.53 L 556.91 250.72 L 557.41 249.91 L 557.91 249.10 L 558.41 248.29 L 558.91 247.48 L 559.41 246.67 L 559.91 245.86 L 560.41 245.05 L 560.91 244.24 L 561.41 243.43 L 561.91 242.62 L 562.41 241.81 L 562.91 241.00 L 563.41 240.19 L 563.91 239.38 L 564.41 238.57 L 564.91 237.76 L 565.42 236.95 L 565.92 236.14 L 566.42 235.33 L 566.92 234.52 L 567.42 233.71 L 567.92 232.90 L 568.42 232.09 L 568.92 231.28 L 569.42 230.47 L 569.92 229.66 L 570.42 228.85 L 570.92 228.03 L 571.42 227.22 L 571.92 226.41 L 572.42 225.60 L 572.92 224.79 L 573.42 223.98 L 573.92 223.17 L 574.42 222.36 L 574.92 221.55 L 575.43 220.74 L 575.93 219.93 L 576.43 219.12 L 576.93 218.31 L 577.43 217.50 L 577.93 216.69 L 578.43 215.88 L 578.93 215.07 L 579.43 214.26 L 579.93 213.45 L 580.43 212.64 L 580.93 211.83 L 581.43 211.02 L 581.93 210.21 L 582.43 209.40 L 582.93 208.59 L 583.43 207.78 L 583.93 206.97 L 584.43 206.16 L 584.93 205.34 L 585.44 204.53 L 585.94 203.72 L 586.44 202.91 L 586.94 202.10 L 587.44 201.29 L 587.94 200.48 L 588.44 199.67 L 588.94 198.86 L 589.44 198.05 L 589.94 197.24 L 590.44 196.43 L 590.94 195.62 L 591.44 194.81 L 591.94 194.00 L 592.44 193.19 L 592.94 192.38 L 593.44 191.57 L 593.94 190.76 L 594.44 189.95 L 594.94 189.14 L 595.45 188.33 L 595.95 187.52 L 596.45 186.71 L 596.95 185.90 L 597.45 185.09 L 597.95 184.28 L 598.45 183.47 L 598.95 182.66 L 599.45 181.84 L 599.95 181.03 L 600.45 180.22 L 600.95 179.41 L 601.45 178.60 L 601.95 177.79 L 602.45 176.98 L 602.95 176.17 L 603.45 175.36 L 603.95 174.55 L 604.45 173.74 L 604.95 172.93 L 605.46 172.12 L 605.96 171.31 L 606.46 170.50 L 606.96 169.69 L 607.46 168.88 L 607.96 168.07 L 608.46 167.26 L 608.96 166.45 L 609.46 165.64 L 609.96 164.83 L 610.46 164.02 L 610.96 163.21 L 611.46 162.40 L 611.96 161.59 L 612.46 160.78 L 612.96 159.97 L 613.46 159.16 L 613.96 158.34 L 614.46 157.53 L 614.96 156.72 L 615.47 155.91 L 615.97 155.10 L 616.47 154.29 L 616.97 153.48 L 617.47 152.67 L 617.97 151.86 L 618.47 151.05 L 618.97 150.24 L 619.47 149.43 L 619.97 148.62 L 620.47 147.81 L 620.97 147.00 L 621.47 146.19 L 621.97 145.38 L 622.47 144.57 L 622.97 143.76 L 623.47 142.95 L 623.97 142.14 L 624.47 141.33 L 624.97 140.52 L 625.48 139.71 L 625.98 138.90 L 626.48 138.09 L 626.98 137.28 L 627.48 136.47 L 627.98 135.66 L 628.48 134.84 L 628.98 134.03 L 629.48 133.22 L 629.98 132.41 L 630.48 131.60 L 630.98 130.79 L 631.48 129.98 L 631.98 129.17 L 632.48 128.36 L 632.98 127.55 L 633.48 126.74 L 633.98 125.93 L 634.48 125.12 L 634.98 124.31 L 635.49 123.50 L 635.99 122.69 L 636.49 121.88 L 636.99 121.07 L 637.49 120.26 L 637.99 119.45 L 638.49 118.64 L 638.99 117.83 L 639.49 117.02 L 639.99 116.21 L 640.49 115.40 L 640.99 114.59 L 641.49 113.78 L 641.99 112.97 L 642.49 112.16 L 642.99 111.34 L 643.49 110.53 L 643.99 109.72 L 644.49 108.91 L 644.99 108.10 L 645.50 107.29 L 646.00 106.48 L 646.50 105.67 L 647.00 104.86 L 647.50 104.05 L 648.00 103.24 L 648.50 102.43 L 649.00 101.62 L 649.50 100.81 L 650.00 100.00" /><text  class="poloto_text poloto_legend_text" x="675" y="250" >derivative 2</text><line  class="poloto_line poloto_legend_icon poloto3stroke poloto3legend" stroke="black" x1="680" x2="730" y1="231.25" y2="231.25" /><path  class="poloto_line poloto3stroke" fill="none" stroke="black" d=" M 150.00 393.86 L 150.50 393.86 L 151.00 393.86 L 151.50 393.86 L 152.00 393.86 L 152.50 393.86 L 153.00 393.86 L 153.50 393.86 L 154.00 393.86 L 154.50 393.86 L 155.01 393.86 L 155.51 393.86 L 156.01 393.86 L 156.51 393.86 L 157.01 393.86 L 157.51 393.86 L 158.01 393.86 L 158.51 393.86 L 159.01 393.86 L 159.51 393.86 L 160.01 393.86 L 160.51 393.86 L 161.01 393.86 L 161.51 393.86 L 162.01 393.86 L 162.51 393.86 L 163.01 393.86 L 163.51 393.86 L 164.01 393.86 L 164.51 393.86 L 165.02 393.86 L 165.52 393.86 L 166.02 393.86 L 166.52 393.86 L 167.02 393.86 L 167.52 393.86 L 168.02 393.86 L 168.52 393.86 L 169.02 393.86 L 169.52 393.86 L 170.02 393.86 L 170.52 393.86 L 171.02 393.86 L 171.52 393.86 L 172.02 393.86 L 172.52 393.86 L 173.02 393.86 L 173.52 393.86 L 174.02 393.86 L 174.52 393.86 L 175.03 393.86 L 175.53 393.86 L 176.03 393.86 L 176.53 393.86 L 177.03 393.86 L 177.53 393.86 L 178.03 393.86 L 178.53 393.86 L 179.03 393.86 L 179.53 393.86 L 180.03 393.86 L 180.53 393.86 L 181.03 393.86 L 181.53 393.86 L 182.03 393.86 L 182.53 393.86 L 183.03 393.86 L 183.53 393.86 L 184.03 393.86 L 184.53 393.86 L 185.04 393.86 L 185.54 393.86 L 186.04 393.86 L 186.54 393.86 L 187.04 393.86 L 187.54 393.86 L 188.04 393.86 L 188.54 393.86 L 189.04 393.86 L 189.54 393.86 L 190.04 393.86 L 190.54 393.86 L 191.04 393.86 L 191.54 393.86 L 192.04 393.86 L 192.54 393.86 L 193.04 393.86 L 193.54 393.86 L 194.04 393.86 L 194.54 393.86 L 195.05 393.86 L 195.55 393.86 L 196.05 393.86 L 196.55 393.86 L 197.05 393.86 L 197.55 393.86 L 198.05 393.86 L 198.55 393.86 L 199.05 393.86 L 199.55 393.86 L 200.05 393.86 L 200.55 393.86 L 201.05 393.86 L 201.55 393.86 L 202.05 393.86 L 202.55 393.86 L 203.05 393.86 L 203.55 393.86 L 204.05 393.86 L 204.55 393.86 L 205.06 393.86 L 205.56 393.86 L 206.06 393.86 L 206.56 393.86 L 207.06 393.86 L 207.56 393.86 L 208.06 393.86 L 208.56 393.86 L 209.06 393.86 L 209.56 393.86 L 210.06 393.86 L 210.56 393.86 L 211.06 393.86 L 211.56 393.86 L 212.06 393.86 L 212.56 393.86 L 213.06 393.86 L 213.56 393.86 L 214.06 393.86 L 214.56 393.86 L 215.07 393.86 L 215.57 393.86 L 216.07 393.86 L 216.57 393.86 L 217.07 393.86 L 217.57 393.86 L 218.07 393.86 L 218.57 393.86 L 219.07 393.86 L 219.57 393.86 L 220.07 393.86 L 220.57 393.86 L 221.07 393.86 L 221.57 393.86 L 222.07 393.86 L 222.57 393.86 L 223.07 393.86 L 223.57 393.86 L 224.07 393.86 L 224.57 393.86 L 225.08 393.86 L 225.58 393.86 L 226.08 393.86 L 226.58 393.86 L 227.08 393.86 L 227.58 393.86 L 228.08 393.86 L 228.58 393.86 L 229.08 393.86 L 229.58 393.86 L 230.08 393.86 L 230.58 393.86 L 231.08 393.86 L 231.58 393.86 L 232.08 393.86 L 232.58 393.86 L 233.08 393.86 L 233.58 393.86 L 234.08 393.86 L 234.58 393.86 L 235.09 393.86 L 235.59 393.86 L 236.09 393.86 L 236.59 393.86 L 237.09 393.86 L 237.59 393.86 L 238.09 393.86 L 238.59 393.86 L 239.09 393.86 L 239.59 393.86 L 240.09 393.86 L 240.59 393.86 L 241.09 393.86 L 241.59 393.86 L 242.09 393.86 L 242.59 393.86 L 243.09 393.86 L 243.59 393.86 L 244.09 393.86 L 244.59 393.86 L 245.10 393.86 L 245.60 393.86 L 246.10 393.86 L 246.60 393.86 L 247.10 393.86 L 247.60 393.86 L 248.10 393.86 L 248.60 393.86 L 249.10 393.86 L 249.60 393.86 L 250.10 393.86 L 250.60 393.86 L 251.10 393.86 L 251.60 393.86 L 252.10 393.86 L 252.60 393.86 L 253.10 393.86 L 253.60 393.86 L 254.10 393.86 L 254.60 393.86 L 255.11 393.86 L 255.61 393.86 L 256.11 393.86 L 256.61 393.86 L 257.11 393.86 L 257.61 393.86 L 258.11 393.86 L 258.61 393.86 L 259.11 393.86 L 259.61 393.86 L 260.11 393.86 L 260.61 393.86 L 261.11 393.86 L 261.61 393.86 L 262.11 393.86 L 262.61 393.86 L 263.11 393.86 L 263.61 393.86 L 264.11 393.86 L 264.61 393.86 L 265.12 393.86 L 265.62 393.86 L 266.12 393.86 L 266.62 393.86 L 267.12 393.86 L 267.62 393.86 L 268.12 393.86 L 268.62 393.86 L 269.12 393.86 L 269.62 393.86 L 270.12 393.86 L 270.62 393.86 L 271.12 393.86 L 271.62 393.86 L 272.12 393.86 L 272.62 393.86 L 273.12 393.86 L 273.62 393.86 L 274.12 393.86 L 274.62 393.86 L 275.13 393.86 L 275.63 393.86 L 276.13 393.86 L 276.63 393.86 L 277.13 393.86 L 277.63 393.86 L 278.13 393.86 L 278.63 393.86 L 279.13 393.86 L 279.63 393.86 L 280.13 393.86 L 280.63 393.86 L 281.13 393.86 L 281.63 393.86 L 282.13 393.86 L 282.63 393.86 L 283.13 393.86 L 283.63 393.86 L 284.13 393.86 L 284.63 393.86 L 285.14 393.86 L 285.64 393.86 L 286.14 393.86 L 286.64 393.86 L 287.14 393.86 L 287.64 393.86 L 288.14 393.86 L 288.64 393.86 L 289.14 393.86 L 289.64 393.86 L 290.14 393.86 L 290.64 393.86 L 291.14 393.86 L 291.64 393.86 L 292.14 393.86 L 292.64 393.86 L 293.14 393.86 L 293.64 393.86 L 294.14 393.86 L 294.64 393.86 L 295.15 393.86 L 295.65 393.86 L 296.15 393.86 L 296.65 393.86 L 297.15 393.86 L 297.65 393.86 L 298.15 393.86 L 298.65 393.86 L 299.15 393.86 L 299.65 393.86 L 300.15 393.86 L 300.65 393.86 L 301.15 393.86 L 301.65 393.86 L 302.15 393.86 L 302.65 393.86 L 303.15 393.86 L 303.65 393.86 L 304.15 393.86 L 304.65 393.86 L 305.16 393.86 L 305.66 393.86 L 306.16 393.86 L 306.66 393.86 L 307.16 393.86 L 307.66 393.86 L 308.16 393.86 L 308.66 393.86 L 309.16 393.86 L 309.66 393.86 L 310.16 393.86 L 310.66 393.86 L 311.16 393.86 L 311.66 393.86 L 312.16 393.86 L 312.66 393.86 L 313.16 393.86 L 313.66 393.86 L 314.16 393.86 L 314.66 393.86 L 315.17 393.86 L 315.67 393.86 L 316.17 393.86 L 316.67 393.86 L 317.17 295.64 L 317.67 295.64 L 318.17 295.64 L 318.67 295.64 L 319.17 295.64 L 319.67 295.64 L 320.17 295.64 L 320.67 295.64 L 321.17 295.64 L 321.67 295.64 L 322.17 295.64 L 322.67 295.64 L 323.17 295.64 L 323.67 295.64 L 324.17 295.64 L 324.67 295.64 L 325.18 295.64 L 325.68 295.64 L 326.18 295.64 L 326.68 295.64 L 327.18 295.64 L 327.68 295.64 L 328.18 295.64 L 328.68 295.64 L 329.18 295.64 L 329.68 295.64 L 330.18 295.64 L 330.68 295.64 L 331.18 295.64 L 331.68 295.64 L 332.18 295.64 L 332.68 295.64 L 333.18 295.64 L 333.68 295.64 L 334.18 295.64 L 334.68 295.64 L 335.19 295.64 L 335.69 295.64 L 336.19 295.64 L 336.69 295.64 L 337.19 295.64 L 337.69 295.64 L 338.19 295.64 L 338.69 295.64 L 339.19 295.64 L 339.69 295.64 L 340.19 295.64 L 340.69 295.64 L 341.19 295.64 L 341.69 295.64 L 342.19 295.64 L 342.69 295.64 L 343.19 295.64 L 343.69 295.64 L 344.19 295.64 L 344.69 295.64 L 345.20 295.64 L 345.70 295.64 L 346.20 295.64 L 346.70 295.64 L 347.20 295.64 L 347.70 295.64 L 348.20 295.64 L 348.70 295.64 L 349.20 295.64 L 349.70 295.64 L 350.20 295.64 L 350.70 295.64 L 351.20 295.64 L 351.70 295.64 L 352.20 295.64 L 352.70 295.64 L 353.20 295.64 L 353.70 295.64 L 354.20 295.64 L 354.70 295.64 L 355.21 295.64 L 355.71 295.64 L 356.21 295.64 L 356.71 295.64 L 357.21 295.64 L 357.71 295.64 L 358.21 295.64 L 358.71 295.64 L 359.21 295.64 L 359.71 295.64 L 360.21 295.64 L 360.71 295.64 L 361.21 295.64 L 361.71 295.64 L 362.21 295.64 L 362.71 295.64 L 363.21 295.64 L 363.71 295.64 L 364.21 295.64 L 364.71 295.64 L 365.22 295.64 L 365.72 295.64 L 366.22 295.64 L 366.72 295.64 L 367.22 295.64 L 367.72 295.64 L 368.22 295.64 L 368.72 295.64 L 369.22 295.64 L 369.72 295.64 L 370.22 295.64 L 370.72 295.64 L 371.22 295.64 L 371.72 295.64 L 372.22 295.64 L 372.72 295.64 L 373.22 295.64 L 373.72 295.64 L 374.22 295.64 L 374.72 295.64 L 375.23 295.64 L 375.73 295.64 L 376.23 295.64 L 376.73 295.64 L 377.23 295.64 L 377.73 295.64 L 378.23 295.64 L 378.73 295.64 L 379.23 295.64 L 379.73 295.64 L 380.23 295.64 L 380.73 295.64 L 381.23 295.64 L 381.73 295.64 L 382.23 295.64 L 382.73 295.64 L 383.23 295.64 L 383.73 295.64 L 384.23 295.64 L 384.73 295.64 L 385.24 295.64 L 385.74 295.64 L 386.24 295.64 L 386.74 295.64 L 387.24 295.64 L 387.74 295.64 L 388.24 295.64 L 388.74 295.64 L 389.24 295.64 L 389.74 295.64 L 390.24 295.64 L 390.74 295.64 L 391.24 295.64 L 391.74 295.64 L 392.24 295.64 L 392.74 295.64 L 393.24 295.64 L 393.74 295.64 L 394.24 295.64 L 394.74 295.64 L 395.25 295.64 L 395.75 295.64 L 396.25 295.64 L 396.75 295.64 L 397.25 295.64 L 397.75 295.64 L 398.25 295.64 L 398.75 295.64 L 399.25 295.64 L 399.75 295.64 L 400.25 295.64 L 400.75 393.86 L 401.25 393.86 L 401.75 393.86 L 402.25 393.86 L 402.75 393.86 L 403.25 393.86 L 403.75 393.86 L 404.25 393.86 L 404.75 393.86 L 405.26 393.86 L 405.76 393.86 L 406.26 393.86 L 406.76 393.86 L 407.26 393.86 L 407.76 393.86 L 408.26 393.86 L 408.76 393.86 L 409.26 393.86 L 409.76 393.86 L 410.26 393.86 L 410.76 393.86 L 411.26 393.86 L 411.76 393.86 L 412.26 393.86 L 412.76 393.86 L 413.26 393.86 L 413.76 393.86 L 414.26 393.86 L 414.76 393.86 L 415.27 393.86 L 415.77 393.86 L 416.27 393.86 L 416.77 393.86 L 417.27 393.86 L 417.77 393.86 L 418.27 393.86 L 418.77 393.86 L 419.27 393.86 L 419.77 393.86 L 420.27 393.86 L 420.77 393.86 L 421.27 393.86 L 421.77 393.86 L 422.27 393.86 L 422.77 393.86 L 423.27 393.86 L 423.77 393.86 L 424.27 393.86 L 424.77 393.86 L 425.28 393.86 L 425.78 393.86 L 426.28 393.86 L 426.78 393.86 L 427.28 393.86 L 427.78 393.86 L 428.28 393.86 L 428.78 393.86 L 429.28 393.86 L 429.78 393.86 L 430.28 393.86 L 430.78 393.86 L 431.28 393.86 L 431.78 393.86 L 432.28 393.86 L 432.78 393.86 L 433.28 393.86 L 433.78 393.86 L 434.28 393.86 L 434.78 393.86 L 435.29 393.86 L 435.79 393.86 L 436.29 393.86 L 436.79 393.86 L 437.29 393.86 L 437.79 393.86 L 438.29 393.86 L 438.79 393.86 L 439.29 393.86 L 439.79 393.86 L 440.29 393.86 L 440.79 393.86 L 441.29 393.86 L 441.79 393.86 L 442.29 393.86 L 442.79 393.86 L 443.29 393.86 L 443.79 393.86 L 444.29 393.86 L 444.79 393.86 L 445.30 393.86 L 445.80 393.86 L 446.30 393.86 L 446.80 393.86 L 447.30 393.86 L 447.80 393.86 L 448.30 393.86 L 448.80 393.86 L 449.30 393.86 L 449.80 393.86 L 450.30 393.86 L 450.80 393.86 L 451.30 393.86 L 451.80 393.86 L 452.30 393.86 L 452.80 393.86 L 453.30 393.86 L 453.80 393.86 L 454.30 393.86 L 454.80 393.86 L 455.31 393.86 L 455.81 393.86 L 456.31 393.86 L 456.81 393.86 L 457.31 393.86 L 457.81 393.86 L 458.31 393.86 L 458.81 393.86 L 459.31 393.86 L 459.81 393.86 L 460.31 393.86 L 460.81 393.86 L 461.31 393.86 L 461.81 393.86 L 462.31 393.86 L 462.81 393.86 L 463.31 393.86 L 463.81 393.86 L 464.31 393.86 L 464.81 393.86 L 465.32 393.86 L 465.82 393.86 L 466.32 393.86 L 466.82 393.86 L 467.32 393.86 L 467.82 393.86 L 468.32 393.86 L 468.82 393.86 L 469.32 393.86 L 469.82 393.86 L 470.32 393.86 L 470.82 393.86 L 471.32 393.86 L 471.82 393.86 L 472.32 393.86 L 472.82 393.86 L 473.32 393.86 L 473.82 393.86 L 474.32 393.86 L 474.82 393.86 L 475.33 393.86 L 475.83 393.86 L 476.33 393.86 L 476.83 393.86 L 477.33 393.86 L 477.83 393.86 L 478.33 393.86 L 478.83 393.86 L 479.33 393.86 L 479.83 393.86 L 480.33 393.86 L 480.83 393.86 L 481.33 393.86 L 481.83 393.86 L 482.33 393.86 L 482.83 393.86 L 483.33 393.86 L 483.83 197.41 L 484.33 197.41 L 484.83 197.41 L 485.34 197.41 L 485.84 197.41 L 486.34 197.41 L 486.84 197.41 L 487.34 197.41 L 487.84 197.41 L 488.34 197.41 L 488.84 197.41 L 489.34 197.41 L 489.84 197.41 L 490.34 197.41 L 490.84 197.41 L 491.34 197.41 L 491.84 197.41 L 492.34 197.41 L 492.84 197.41 L 493.34 197.41 L 493.84 197.41 L 494.34 197.41 L 494.84 197.41 L 495.35 197.41 L 495.85 197.41 L 496.35 197.41 L 496.85 197.41 L 497.35 197.41 L 497.85 197.41 L 498.35 197.41 L 498.85 197.41 L 499.35 197.41 L 499.85 197.41 L 500.35 197.41 L 500.85 197.41 L 501.35 197.41 L 501.85 197.41 L 502.35 197.41 L 502.85 197.41 L 503.35 197.41 L 503.85 197.41 L 504.35 197.41 L 504.85 197.41 L 505.36 197.41 L 505.86 197.41 L 506.36 197.41 L 506.86 197.41 L 507.36 197.41 L 507.86 197.41 L 508.36 197.41 L 508.86 197.41 L 509.36 197.41 L 509.86 197.41 L 510.36 197.41 L 510.86 197.41 L 511.36 197.41 L 511.86 197.41 L 512.36 197.41 L 512.86 197.41 L 513.36 197.41 L 513.86 197.41 L 514.36 197.41 L 514.86 197.41 L 515.37 197.41 L 515.87 197.41 L 516.37 197.41 L 516.87 197.41 L 517.37 197.41 L 517.87 197.41 L 518.37 197.41 L 518.87 197.41 L 519.37 197.41 L 519.87 197.41 L 520.37 197.41 L 520.87 197.41 L 521.37 197.41 L 521.87 197.41 L 522.37 197.41 L 522.87 197.41 L 523.37 197.41 L 523.87 197.41 L 524.37 197.41 L 524.87 197.41 L 525.38 197.41 L 525.88 197.41 L 526.38 197.41 L 526.88 197.41 L 527.38 197.41 L 527.88 197.41 L 528.38 197.41 L 528.88 197.41 L 529.38 197.41 L 529.88 197.41 L 530.38 197.41 L 530.88 197.41 L 531.38 197.41 L 531.88 197.41 L 532.38 197.41 L 532.88 197.41 L 533.38 197.41 L 533.88 197.41 L 534.38 197.41 L 534.88 197.41 L 535.39 197.41 L 535.89 197.41 L 536.39 197.41 L 536.89 197.41 L 537.39 197.41 L 537.89 197.41 L 538.39 197.41 L 538.89 197.41 L 539.39 197.41 L 539.89 197.41 L 540.39 197.41 L 540.89 197.41 L 541.39 197.41 L 541.89 197.41 L 542.39 197.41 L 542.89 197.41 L 543.39 197.41 L 543.89 197.41 L 544.39 197.41 L 544.89 197.41 L 545.40 197.41 L 545.90 197.41 L 546.40 197.41 L 546.90 197.41 L 547.40 197.41 L 547.90 197.41 L 548.40 197.41 L 548.90 197.41 L 549.40 197.41 L 549.90 197.41 L 550.40 197.41 L 550.90 197.41 L 551.40 197.41 L 551.90 197.41 L 552.40 197.41 L 552.90 197.41 L 553.40 197.41 L 553.90 197.41 L 554.40 197.41 L 554.90 197.41 L 555.41 197.41 L 555.91 197.41 L 556.41 197.41 L 556.91 197.41 L 557.41 197.41 L 557.91 197.41 L 558.41 197.41 L 558.91 197.41 L 559.41 197.41 L 559.91 197.41 L 560.41 197.41 L 560.91 197.41 L 561.41 197.41 L 561.91 197.41 L 562.41 197.41 L 562.91 197.41 L 563.41 197.41 L 563.91 197.41 L 564.41 197.41 L 564.91 197.41 L 565.42 197.41 L 565.92 197.41 L 566.42 197.41 L 566.92 197.41 L 567.42 197.41 L 567.92 197.41 L 568.42 197.41 L 568.92 197.41 L 569.42 197.41 L 569.92 197.41 L 570.42 197.41 L 570.92 197.41 L 571.42 197.41 L 571.92 197.41 L 572.42 197.41 L 572.92 197.41 L 573.42 197.41 L 573.92 197.41 L 574.42 197.41 L 574.92 197.41 L 575.43 197.41 L 575.93 197.41 L 576.43 197.41 L 576.93 197.41 L 577.43 197.41 L 577.93 197.41 L 578.43 197.41 L 578.93 197.41 L 579.43 197.41 L 579.93 197.41 L 580.43 197.41 L 580.93 197.41 L 581.43 197.41 L 581.93 197.41 L 582.43 197.41 L 582.93 197.41 L 583.43 197.41 L 583.93 197.41 L 584.43 197.41 L 584.93 197.41 L 585.44 197.41 L 585.94 197.41 L 586.44 197.41 L 586.94 197.41 L 587.44 197.41 L 587.94 197.41 L 588.44 197.41 L 588.94 197.41 L 589.44 197.41 L 589.94 197.41 L 590.44 197.41 L 590.94 197.41 L 591.44 197.41 L 591.94 197.41 L 592.44 197.41 L 592.94 197.41 L 593.44 197.41 L 593.94 197.41 L 594.44 197.41 L 594.94 197.41 L 595.45 197.41 L 595.95 197.41 L 596.45 197.41 L 596.95 197.41 L 597.45 197.41 L 597.95 197.41 L 598.45 197.41 L 598.95 197.41 L 599.45 197.41 L 599.95 197.41 L 600.45 197.41 L 600.95 197.41 L 601.45 197.41 L 601.95 197.41 L 602.45 197.41 L 602.95 197.41 L 603.45 197.41 L 603.95 197.41 L 604.45 197.41 L 604.95 197.41 L 605.46 197.41 L 605.96 197.41 L 606.46 197.41 L 606.96 197.41 L 607.46 197.41 L 607.96 197.41 L 608.46 197.41 L 608.96 197.41 L 609.46 197.41 L 609.96 197.41 L 610.46 197.41 L 610.96 197.41 L 611.46 197.41 L 611.96 197.41 L 612.46 197.41 L 612.96 197.41 L 613.46 197.41 L 613.96 197.41 L 614.46 197.41 L 614.96 197.41 L 615.47 197.41 L 615.97 197.41 L 616.47 197.41 L 616.97 197.41 L 617.47 197.41 L 617.97 197.41 L 618.47 197.41 L 618.97 197.41 L 619.47 197.41 L 619.97 197.41 L 620.47 197.41 L 620.97 197.41 L 621.47 197.41 L 621.97 197.41 L 622.47 197.41 L 622.97 197.41 L 623.47 197.41 L 623.97 197.41 L 624.47 197.41 L 624.97 197.41 L 625.48 197.41 L 625.98 197.41 L 626.48 197.41 L 626.98 197.41 L 627.48 197.41 L 627.98 197.41 L 628.48 197.41 L 628.98 197.41 L 629.48 197.41 L 629.98 197.41 L 630.48 197.41 L 630.98 197.41 L 631.48 197.41 L 631.98 197.41 L 632.48 197.41 L 632.98 197.41 L 633.48 197.41 L 633.98 197.41 L 634.48 197.41 L 634.98 197.41 L 635.49 197.41 L 635.99 197.41 L 636.49 197.41 L 636.99 197.41 L 637.49 197.41 L 637.99 197.41 L 638.49 197.41 L 638.99 197.41 L 639.49 197.41 L 639.99 197.41 L 640.49 197.41 L 640.99 197.41 L 641.49 197.41 L 641.99 197.41 L 642.49 197.41 L 642.99 197.41 L 643.49 197.41 L 643.99 197.41 L 644.49 197.41 L 644.99 197.41 L 645.50 197.41 L 646.00 197.41 L 646.50 197.41 L 647.00 197.41 L 647.50 197.41 L 648.00 197.41 L 648.50 197.41 L 649.00 197.41 L 649.50 197.41 L 650.00 197.41" /><text  class="poloto_text poloto_legend_text" x="675" y="300" >derivative 3</text><line  class="poloto_line poloto_legend_icon poloto4stroke poloto4legend" stroke="black" x1="680" x2="730" y1="281.25" y2="281.25" /><path  class="poloto_line poloto4stroke" fill="none" stroke="black" d=" M 150.00 332.47 L 150.50 332.47 L 151.00 332.47 L 151.50 332.47 L 152.00 332.47 L 152.50 332.47 L 153.00 332.47 L 153.50 332.47 L 154.00 332.47 L 154.50 332.47 L 155.01 332.47 L 155.51 332.47 L 156.01 332.47 L 156.51 332.47 L 157.01 332.47 L 157.51 332.47 L 158.01 332.47 L 158.51 332.47 L 159.01 332.47 L 159.51 332.47 L 160.01 332.47 L 160.51 332.47 L 161.01 332.47 L 161.51 332.47 L 162.01 332.47 L 162.51 332.47 L 163.01 332.47 L 163.51 332.47 L 164.01 332.47 L 164.51 332.47 L 165.02 332.47 L 165.52 332.47 L 166.02 332.47 L 166.52 332.47 L 167.02 332.47 L 167.52 332.47 L 168.02 332.47 L 168.52 332.47 L 169.02 332.47 L 169.52 332.47 L 170.02 332.47 L 170.52 332.47 L 171.02 332.47 L 171.52 332.47 L 172.02 332.47 L 172.52 332.47 L 173.02 332.47 L 173.52 332.47 L 174.02 332.47 L 174.52 332.47 L 175.03 332.47 L 175.53 332.47 L 176.03 332.47 L 176.53 332.47 L 177.03 332.47 L 177.53 332.47 L 178.03 332.47 L 178.53 332.47 L 179.03 332.47 L 179.53 332.47 L 180.03 332.47 L 180.53 332.47 L 181.03 332.47 L 181.53 332.47 L 182.03 332.47 L 182.53 332.47 L 183.03 332.47 L 183.53 332.47 L 184.03 332.47 L 184.53 332.47 L 185.04 332.47 L 185.54 332.47 L 186.04 332.47 L 186.54 332.47 L 187.04 332.47 L 187.54 332.47 L 188.04 332.47 L 188.54 332.47 L 189.04 332.47 L 189.54 332.47 L 190.04 332.47 L 190.54 332.47 L 191.04 332.47 L 191.54 332.47 L 192.04 332.47 L 192.54 332.47 L 193.04 332.47 L 193.54 332.47 L 194.04 332.47 L 194.54 332.47 L 195.05 332.47 L 195.55 332.47 L 196.05 332.47 L 196.55 332.47 L 197.05 332.47 L 197.55 332.47 L 198.05 332.47 L 198.55 332.47 L 199.05 332.47 L 199.55 332.47 L 200.05 332.47 L 200.55 332.47 L 201.05 332.47 L 201.55 332.47 L 202.05 332.47 L 202.55 332.47 L 203.05 332.47 L 203.55 332.47 L 204.05 332.47 L 204.55 332.47 L 205.06 332.47 L 205.56 332.47 L 206.06 332.47 L 206.56 332.47 L 207.06 332.47 L 207.56 332.47 L 208.06 332.47 L 208.56 332.47 L 209.06 332.47 L 209.56 332.47 L 210.06 332.47 L 210.56 332.47 L 211.06 332.47 L 211.56 332.47 L 212.06 332.47 L 212.56 332.47 L 213.06 332.47 L 213.56 332.47 L 214.06 332.47 L 214.56 332.47 L 215.07 332.47 L 215.57 332.47 L 216.07 332.47 L 216.57 332.47 L 217.07 332.47 L 217.57 332.47 L 218.07 332.47 L 218.57 332.47 L 219.07 332.47 L 219.57 332.47 L 220.07 332.47 L 220.57 332.47 L 221.07 332.47 L 221.57 332.47 L 222.07 332.47 L 222.57 332.47 L 223.07 332.47 L 223.57 332.47 L 224.07 332.47 L 224.57 332.47 L 225.08 332.47 L 225.58 332.47 L 226.08 332.47 L 226.58 332.47 L 227.08 332.47 L 227.58 332.47 L 228.08 332.47 L 228.58 332.47 L 229.08 332.47 L 229.58 332.47 L 230.08 332.47 L 230.58 332.47 L 231.08 332.47 L 231.58 332.47 L 232.08 332.47 L 232.58 332.47 L 233.08 332.47 L 233.58 332.47 L 234.08 332.47 L 234.58 332.47 L 235.09 332.47 L 235.59 332.47 L 236.09 332.47 L 236.59 332.47 L 237.09 332.47 L 237.59 332.47 L 238.09 332.47 L 238.59 332.47 L 239.09 332.47 L 239.59 332.47 L 240.09 332.47 L 240.59 332.47 L 241.09 332.47 L 241.59 332.47 L 242.09 332.47 L 242.59 332.47 L 243.09 332.47 L 243.59 332.47 L 244.09 332.47 L 244.59 332.47 L 245.10 332.47 L 245.60 332.47 L 246.10 332.47 L 246.60 332.47 L 247.10 332.47 L 247.60 332.47 L 248.10 332.47 L 248.60 332.47 L 249.10 332.47 L 249.60 332.47 L 250.10 332.47 L 250.60 332.47 L 251.10 332.47 L 251.60 332.47 L 252.10 332.47 L 252.60 332.47 L 253.10 332.47 L 253.60 332.47 L 254.10 332.47 L 254.60 332.47 L 255.11 332.47 L 255.61 332.47 L 256.11 332.47 L 256.61 332.47 L 257.11 332.47 L 257.61 332.47 L 258.11 332.47 L 258.61 332.47 L 259.11 332.47 L 259.61 332.47 L 260.11 332.47 L 260.61 332.47 L 261.11 332.47 L 261.61 332.47 L 262.11 332.47 L 262.61 332.47 L 263.11 332.47 L 263.61 332.47 L 264.11 332.47 L 264.61 332.47 L 265.12 332.47 L 265.62 332.47 L 266.12 332.47 L 266.62 332.47 L 267.12 332.47 L 267.62 332.47 L 268.12 332.47 L 268.62 332.47 L 269.12 332.47 L 269.62 332.47 L 270.12 332.47 L 270.62 332.47 L 271.12 332.47 L 271.62 332.47 L 272.12 332.47 L 272.62 332.47 L 273.12 332.47 L 273.62 332.47 L 274.12 332.47 L 274.62 332.47 L 275.13 332.47 L 275.63 332.47 L 276.13 332.47 L 276.63 332.47 L 277.13 332.47 L 277.63 332.47 L 278.13 332.47 L 278.63 332.47 L 279.13 332.47 L 279.63 332.47 L 280.13 332.47 L 280.63 332.47 L 281.13 332.47 L 281.63 332.47 L 282.13 332.47 L 282.63 332.47 L 283.13 332.47 L 283.63 332.47 L 284.13 332.47 L 284.63 332.47 L 285.14 332.47 L 285.64 332.47 L 286.14 332.47 L 286.64 332.47 L 287.14 332.47 L 287.64 332.47 L 288.14 332.47 L 288.64 332.47 L 289.14 332.47 L 289.64 332.47 L 290.14 332.47 L 290.64 332.47 L 291.14 332.47 L 291.64 332.47 L 292.14 332.47 L 292.64 332.47 L 293.14 332.47 L 293.64 332.47 L 294.14 332.47 L 294.64 332.47 L 295.15 332.47 L 295.65 332.47 L 296.15 332.47 L 296.65 332.47 L 297.15 332.47 L 297.65 332.47 L 298.15 332.47 L 298.65 332.47 L 299.15 332.47 L 299.65 332.47 L 300.15 332.47 L 300.65 332.47 L 301.15 332.47 L 301.65 332.47 L 302.15 332.47 L 302.65 332.47 L 303.15 332.47 L 303.65 332.47 L 304.15 332.47 L 304.65 332.47 L 305.16 332.47 L 305.66 332.47 L 306.16 332.47 L 306.66 332.47 L 307.16 332.47 L 307.66 332.47 L 308.16 332.47 L 308.66 332.47 L 309.16 332.47 L 309.66 332.47 L 310.16 332.47 L 310.66 332.47 L 311.16 332.47 L 311.66 332.47 L 312.16 332.47 L 312.66 332.47 L 313.16 332.47 L 313.66 332.47 L 314.16 332.47 L 314.66 332.47 L 315.17 332.47 L 315.67 332.47 L 316.17 332.47 L 316.67 332.47 L 317.17 332.47 L 317.67 332.47 L 318.17 332.47 L 318.67 332.47 L 319.17 332.47 L 319.67 332.47 L 320.17 332.47 L 320.67 332.47 L 321.17 332.47 L 321.67 332.47 L 322.17 332.47 L 322.67 332.47 L 323.17 332.47 L 323.67 332.47 L 324.17 332.47 L 324.67 332.47 L 325.18 332.47 L 325.68 332.47 L 326.18 332.47 L 326.68 332.47 L 327.18 332.47 L 327.68 332.47 L 328.18 332.47 L 328.68 332.47 L 329.18 332.47 L 329.68 332.47 L 330.18 332.47 L 330.68 332.47 L 331.18 332.47 L 331.68 332.47 L 332.18 332.47 L 332.68 332.47 L 333.18 332.47 L 333.68 332.47 L 334.18 332.47 L 334.68 332.47 L 335.19 332.47 L 335.69 332.47 L 336.19 332.47 L 336.69 332.47 L 337.19 332.47 L 337.69 332.47 L 338.19 332.47 L 338.69 332.47 L 339.19 332.47 L 339.69 332.47 L 340.19 332.47 L 340.69 332.47 L 341.19 332.47 L 341.69 332.47 L 342.19 332.47 L 342.69 332.47 L 343.19 332.47 L 343.69 332.47 L 344.19 332.47 L 344.69 332.47 L 345.20 332.47 L 345.70 332.47 L 346.20 332.47 L 346.70 332.47 L 347.20 332.47 L 347.70 332.47 L 348.20 332.47 L 348.70 332.47 L 349.20 332.47 L 349.70 332.47 L 350.20 332.47 L 350.70 332.47 L 351.20 332.47 L 351.70 332.47 L 352.20 332.47 L 352.70 332.47 L 353.20 332.47 L 353.70 332.47 L 354.20 332.47 L 354.70 332.47 L 355.21 332.47 L 355.71 332.47 L 356.21 332.47 L 356.71 332.47 L 357.21 332.47 L 357.71 332.47 L 358.21 332.47 L 358.71 332.47 L 359.21 332.47 L 359.71 332.47 L 360.21 332.47 L 360.71 332.47 L 361.21 332.47 L 361.71 332.47 L 362.21 332.47 L 362.71 332.47 L 363.21 332.47 L 363.71 332.47 L 364.21 332.47 L 364.71 332.47 L 365.22 332.47 L 365.72 332.47 L 366.22 332.47 L 366.72 332.47 L 367.22 332.47 L 367.72 332.47 L 368.22 332.47 L 368.72 332.47 L 369.22 332.47 L 369.72 332.47 L 370.22 332.47 L 370.72 332.47 L 371.22 332.47 L 371.72 332.47 L 372.22 332.47 L 372.72 332.47 L 373.22 332.47 L 373.72 332.47 L 374.22 332.47 L 374.72 332.47 L 375.23 332.47 L 375.73 332.47 L 376.23 332.47 L 376.73 332.47 L 377.23 332.47 L 377.73 332.47 L 378.23 332.47 L 378.73 332.47 L 379.23 332.47 L 379.73 332.47 L 380.23 332.47 L 380.73 332.47 L 381.23 332.47 L 381.73 332.47 L 382.23 332.47 L 382.73 332.47 L 383.23 332.47 L 383.73 332.47 L 384.23 332.47 L 384.73 332.47 L 385.24 332.47 L 385.74 332.47 L 386.24 332.47 L 386.74 332.47 L 387.24 332.47 L 387.74 332.47 L 388.24 332.47 L 388.74 332.47 L 389.24 332.47 L 389.74 332.47 L 390.24 332.47 L 390.74 332.47 L 391.24 332.47 L 391.74 332.47 L 392.24 332.47 L 392.74 332.47 L 393.24 332.47 L 393.74 332.47 L 394.24 332.47 L 394.74 332.47 L 395.25 332.47 L 395.75 332.47 L 396.25 332.47 L 396.75 332.47 L 397.25 332.47 L 397.75 332.47 L 398.25 332.47 L 398.75 332.47 L 399.25 332.47 L 399.75 332.47 L 400.25 332.47 L 400.75 332.47 L 401.25 332.47 L 401.75 332.47 L 402.25 332.47 L 402.75 332.47 L 403.25 332.47 L 403.75 332.47 L 404.25 332.47 L 404.75 332.47 L 405.26 332.47 L 405.76 332.47 L 406.26 332.47 L 406.76 332.47 L 407.26 332.47 L 407.76 332.47 L 408.26 332.47 L 408.76 332.47 L 409.26 332.47 L 409.76 332.47 L 410.26 332.47 L 410.76 332.47 L 411.26 332.47 L 411.76 332.47 L 412.26 332.47 L 412.76 332.47 L 413.26 332.47 L 413.76 332.47 L 414.26 332.47 L 414.76 332.47 L 415.27 332.47 L 415.77 332.47 L 416.27 332.47 L 416.77 332.47 L 417.27 332.47 L 417.77 332.47 L 418.27 332.47 L 418.77 332.47 L 419.27 332.47 L 419.77 332.47 L 420.27 332.47 L 420.77 332.47 L 421.27 332.47 L 421.77 332.47 L 422.27 332.47 L 422.77 332.47 L 423.27 332.47 L 423.77 332.47 L 424.27 332.47 L 424.77 332.47 L 425.28 332.47 L 425.78 332.47 L 426.28 332.47 L 426.78 332.47 L 427.28 332.47 L 427.78 332.47 L 428.28 332.47 L 428.78 332.47 L 429.28 332.47 L 429.78 332.47 L 430.28 332.47 L 430.78 332.47 L 431.28 332.47 L 431.78 332.47 L 432.28 332.47 L 432.78 332.47 L 433.28 332.47 L 433.78 332.47 L 434.28 332.47 L 434.78 332.47 L 435.29 332.47 L 435.79 332.47 L 436.29 332.47 L 436.79 332.47 L 437.29 332.47 L 437.79 332.47 L 438.29 332.47 L 438.79 332.47 L 439.29 332.47 L 439.79 332.47 L 440.29 332.47 L 440.79 332.47 L 441.29 332.47 L 441.79 332.47 L 442.29 332.47 L 442.79 332.47 L 443.29 332.47 L 443.79 332.47 L 444.29 332.47 L 444.79 332.47 L 445.30 332.47 L 445.80 332.47 L 446.30 332.47 L 446.80 332.47 L 447.30 332.47 L 447.80 332.47 L 448.30 332.47 L 448.80 332.47 L 449.30 332.47 L 449.80 332.47 L 450.30 332.47 L 450.80 332.47 L 451.30 332.47 L 451.80 332.47 L 452.30 332.47 L 452.80 332.47 L 453.30 332.47 L 453.80 332.47 L 454.30 332.47 L 454.80 332.47 L 455.31 332.47 L 455.81 332.47 L 456.31 332.47 L 456.81 332.47 L 457.31 332.47 L 457.81 332.47 L 458.31 332.47 L 458.81 332.47 L 459.31 332.47 L 459.81 332.47 L 460.31 332.47 L 460.81 332.47 L 461.31 332.47 L 461.81 332.47 L 462.31 332.47 L 462.81 332.47 L 463.31 332.47 L 463.81 332.47 L 464.31 332.47 L 464.81 332.47 L 465.32 332.47 L 465.82 332.47 L 466.32 332.47 L 466.82 332.47 L 467.32 332.47 L 467.82 332.47 L 468.32 332.47 L 468.82 332.47 L 469.32 332.47 L 469.82 332.47 L 470.32 332.47 L 470.82 332.47 L 471.32 332.47 L 471.82 332.47 L 472.32 332.47 L 472.82 332.47 L 473.32 332.47 L 473.82 332.47 L 474.32 332.47 L 474.82 332.47 L 475.33 332.47 L 475.83 332.47 L 476.33 332.47 L 476.83 332.47 L 477.33 332.47 L 477.83 332.47 L 478.33 332.47 L 478.83 332.47 L 479.33 332.47 L 479.83 332.47 L 480.33 332.47 L 480.83 332.47 L 481.33 332.47 L 481.83 332.47 L 482.33 332.47 L 482.83 332.47 L 483.33 332.47 L 483.83 332.47 L 484.33 332.47 L 484.83 332.47 L 485.34 332.47 L 485.84 332.47 L 486.34 332.47 L 486.84 332.47 L 487.34 332.47 L 487.84 332.47 L 488.34 332.47 L 488.84 332.47 L 489.34 332.47 L 489.84 332.47 L 490.34 332.47 L 490.84 332.47 L 491.34 332.47 L 491.84 332.47 L 492.34 332.47 L 492.84 332.47 L 493.34 332.47 L 493.84 332.47 L 494.34 332.47 L 494.84 332.47 L 495.35 332.47 L 495.85 332.47 L 496.35 332.47 L 496.85 332.47 L 497.35 332.47 L 497.85 332.47 L 498.35 332.47 L 498.85 332.47 L 499.35 332.47 L 499.85 332.47 L 500.35 332.47 L 500.85 332.47 L 501.35 332.47 L 501.85 332.47 L 502.35 332.47 L 502.85 332.47 L 503.35 332.47 L 503.85 332.47 L 504.35 332.47 L 504.85 332.47 L 505.36 332.47 L 505.86 332.47 L 506.36 332.47 L 506.86 332.47 L 507.36 332.47 L 507.86 332.47 L 508.36 332.47 L 508.86 332.47 L 509.36 332.47 L 509.86 332.47 L 510.36 332.47 L 510.86 332.47 L 511.36 332.47 L 511.86 332.47 L 512.36 332.47 L 512.86 332.47 L 513.36 332.47 L 513.86 332.47 L 514.36 332.47 L 514.86 332.47 L 515.37 332.47 L 515.87 332.47 L 516.37 332.47 L 516.87 332.47 L 517.37 332.47 L 517.87 332.47 L 518.37 332.47 L 518.87 332.47 L 519.37 332.47 L 519.87 332.47 L 520.37 332.47 L 520.87 332.47 L 521.37 332.47 L 521.87 332.47 L 522.37 332.47 L 522.87 332.47 L 523.37 332.47 L 523.87 332.47 L 524.37 332.47 L 524.87 332.47 L 525.38 332.47 L 525.88 332.47 L 526.38 332.47 L 526.88 332.47 L 527.38 332.47 L 527.88 332.47 L 528.38 332.47 L 528.88 332.47 L 529.38 332.47 L 529.88 332.47 L 530.38 332.47 L 530.88 332.47 L 531.38 332.47 L 531.88 332.47 L 532.38 332.47 L 532.88 332.47 L 533.38 332.47 L 533.88 332.47 L 534.38 332.47 L 534.88 332.47 L 535.39 332.47 L 535.89 332.47 L 536.39 332.47 L 536.89 332.47 L 537.39 332.47 L 537.89 332.47 L 538.39 332.47 L 538.89 332.47 L 539.39 332.47 L 539.89 332.47 L 540.39 332.47 L 540.89 332.47 L 541.39 332.47 L 541.89 332.47 L 542.39 332.47 L 542.89 332.47 L 543.39 332.47 L 543.89 332.47 L 544.39 332.47 L 544.89 332.47 L 545.40 332.47 L 545.90 332.47 L 546.40 332.47 L 546.90 332.47 L 547.40 332.47 L 547.90 332.47 L 548.40 332.47 L 548.90 332.47 L 549.40 332.47 L 549.90 332.47 L 550.40 332.47 L 550.90 332.47 L 551.40 332.47 L 551.90 332.47 L 552.40 332.47 L 552.90 332.47 L 553.40 332.47 L 553.90 332.47 L 554.40 332.47 L 554.90 332.47 L 555.41 332.47 L 555.91 332.47 L 556.41 332.47 L 556.91 332.47 L 557.41 332.47 L 557.91 332.47 L 558.41 332.47 L 558.91 332.47 L 559.41 332.47 L 559.91 332.47 L 560.41 332.47 L 560.91 332.47 L 561.41 332.47 L 561.91 332.47 L 562.41 332.47 L 562.91 332.47 L 563.41 332.47 L 563.91 332.47 L 564.41 332.47 L 564.91 332.47 L 565.42 332.47 L 565.92 332.47 L 566.42 332.47 L 566.92 332.47 L 567.42 332.47 L 567.92 332.47 L 568.42 332.47 L 568.92 332.47 L 569.42 332.47 L 569.92 332.47 L 570.42 332.47 L 570.92 332.47 L 571.42 332.47 L 571.92 332.47 L 572.42 332.47 L 572.92 332.47 L 573.42 332.47 L 573.92 332.47 L 574.42 332.47 L 574.92 332.47 L 575.43 332.47 L 575.93 332.47 L 576.43 332.47 L 576.93 332.47 L 577.43 332.47 L 577.93 332.47 L 578.43 332.47 L 578.93 332.47 L 579.43 332.47 L 579.93 332.47 L 580.43 332.47 L 580.93 332.47 L 581.43 332.47 L 581.93 332.47 L 582.43 332.47 L 582.93 332.47 L 583.43 332.47 L 583.93 332.47 L 584.43 332.47 L 584.93 332.47 L 585.44 332.47 L 585.94 332.47 L 586.44 332.47 L 586.94 332.47 L 587.44 332.47 L 587.94 332.47 L 588.44 332.47 L 588.94 332.47 L 589.44 332.47 L 589.94 332.47 L 590.44 332.47 L 590.94 332.47 L 591.44 332.47 L 591.94 332.47 L 592.44 332.47 L 592.94 332.47 L 593.44 332.47 L 593.94 332.47 L 594.44 332.47 L 594.94 332.47 L 595.45 332.47 L 595.95 332.47 L 596.45 332.47 L 596.95 332.47 L 597.45 332.47 L 597.95 332.47 L 598.45 332.47 L 598.95 332.47 L 599.45 332.47 L 599.95 332.47 L 600.45 332.47 L 600.95 332.47 L 601.45 332.47 L 601.95 332.47 L 602.45 332.47 L 602.95 332.47 L 603.45 332.47 L 603.95 332.47 L 604.45 332.47 L 604.95 332.47 L 605.46 332.47 L 605.96 332.47 L 606.46 332.47 L 606.96 332.47 L 607.46 332.47 L 607.96 332.47 L 608.46 332.47 L 608.96 332.47 L 609.46 332.47 L 609.96 332.47 L 610.46 332.47 L 610.96 332.47 L 611.46 332.47 L 611.96 332.47 L 612.46 332.47 L 612.96 332.47 L 613.46 332.47 L 613.96 332.47 L 614.46 332.47 L 614.96 332.47 L 615.47 332.47 L 615.97 332.47 L 616.47 332.47 L 616.97 332.47 L 617.47 332.47 L 617.97 332.47 L 618.47 332.47 L 618.97 332.47 L 619.47 332.47 L 619.97 332.47 L 620.47 332.47 L 620.97 332.47 L 621.47 332.47 L 621.97 332.47 L 622.47 332.47 L 622.97 332.47 L 623.47 332.47 L 623.97 332.47 L 624.47 332.47 L 624.97 332.47 L 625.48 332.47 L 625.98 332.47 L 626.48 332.47 L 626.98 332.47 L 627.48 332.47 L 627.98 332.47 L 628.48 332.47 L 628.98 332.47 L 629.48 332.47 L 629.98 332.47 L 630.48 332.47 L 630.98 332.47 L 631.48 332.47 L 631.98 332.47 L 632.48 332.47 L 632.98 332.47 L 633.48 332.47 L 633.98 332.47 L 634.48 332.47 L 634.98 332.47 L 635.49 332.47 L 635.99 332.47 L 636.49 332.47 L 636.99 332.47 L 637.49 332.47 L 637.99 332.47 L 638.49 332.47 L 638.99 332.47 L 639.49 332.47 L 639.99 332.47 L 640.49 332.47 L 640.99 332.47 L 641.49 332.47 L 641.99 332.47 L 642.49 332.47 L 642.99 332.47 L 643.49 332.47 L 643.99 332.47 L 644.49 332.47 L 644.99 332.47 L 645.50 332.47 L 646.00 332.47 L 646.50 332.47 L 647.00 332.47 L 647.50 332.47 L 648.00 332.47 L 648.50 332.47 L 649.00 332.47 L 649.50 332.47 L 650.00 332.47" /><text  class="poloto_text poloto_legend_text" x="675" y="350" >derivative 4</text><line  class="poloto_line poloto_legend_icon poloto5stroke poloto5legend" stroke="black" x1="680" x2="730" y1="331.25" y2="331.25" /><path  class="poloto_line poloto5stroke" fill="none" stroke="black" d=" M 150.00 332.47 L 150.50 332.47 L 151.00 332.47 L 151.50 332.47 L 152.00 332.47 L 152.50 332.47 L 153.00 332.47 L 153.50 332.47 L 154.00 332.47 L 154.50 332.47 L 155.01 332.47 L 155.51 332.47 L 156.01 332.47 L 156.51 332.47 L 157.01 332.47 L 157.51 332.47 L 158.01 332.47 L 158.51 332.47 L 159.01 332.47 L 159.51 332.47 L 160.01 332.47 L 160.51 332.47 L 161.01 332.47 L 161.51 332.47 L 162.01 332.47 L 162.51 332.47 L 163.01 332.47 L 163.51 332.47 L 164.01 332.47 L 164.51 332.47 L 165.02 332.47 L 165.52 332.47 L 166.02 332.47 L 166.52 332.47 L 167.02 332.47 L 167.52 332.47 L 168.02 332.47 L 168.52 332.47 L 169.02 332.47 L 169.52 332.47 L 170.02 332.47 L 170.52 332.47 L 171.02 332.47 L 171.52 332.47 L 172.02 332.47 L 172.52 332.47 L 173.02 332.47 L 173.52 332.47 L 174.02 332.47 L 174.52 332.47 L 175.03 332.47 L 175.53 332.47 L 176.03 332.47 L 176.53 332.47 L 177.03 332.47 L 177.53 332.47 L 178.03 332.47 L 178.53 332.47 L 179.03 332.47 L 179.53 332.47 L 180.03 332.47 L 180.53 332.47 L 181.03 332.47 L 181.53 332.47 L 182.03 332.47 L 182.53 332.47 L 183.03 332.47 L 183.53 332.47 L 184.03 332.47 L 184.53 332.47 L 185.04 332.47 L 185.54 332.47 L 186.04 332.47 L 186.54 332.47 L 187.04 332.47 L 187.54 332.47 L 188.04 332.47 L 188.54 332.47 L 189.04 332.47 L 189.54 332.47 L 190.04 332.47 L 190.54 332.47 L 191.04 332.47 L 191.54 332.47 L 192.04 332.47 L 192.54 332.47 L 193.04 332.47 L 193.54 332.47 L 194.04 332.47 L 194.54 332.47 L 195.05 332.47 L 195.55 332.47 L 196.05 332.47 L 196.55 332.47 L 197.05 332.47 L 197.55 332.47 L 198.05 332.47 L 198.55 332.47 L 199.05 332.47 L 199.55 332.47 L 200.05 332.47 L 200.55 332.47 L 201.05 332.47 L 201.55 332.47 L 202.05 332.47 L 202.55 332.47 L 203.05 332.47 L 203.55 332.47 L 204.05 332.47 L 204.55 332.47 L 205.06 332.47 L 205.56 332.47 L 206.06 332.47 L 206.56 332.47 L 207.06 332.47 L 207.56 332.47 L 208.06 332.47 L 208.56 332.47 L 209.06 332.47 L 209.56 332.47 L 210.06 332.47 L 210.56 332.47 L 211.06 332.47 L 211.56 332.47 L 212.06 332.47 L 212.56 332.47 L 213.06 332.47 L 213.56 332.47 L 214.06 332.47 L 214.56 332.47 L 215.07 332.47 L 215.57 332.47 L 216.07 332.47 L 216.57 332.47 L 217.07 332.47 L 217.57 332.47 L 218.07 332.47 L 218.57 332.47 L 219.07 332.47 L 219.57 332.47 L 220.07 332.47 L 220.57 332.47 L 221.07 332.47 L 221.57 332.47 L 222.07 332.47 L 222.57 332.47 L 223.07 332.47 L 223.57 332.47 L 224.07 332.47 L 224.57 332.47 L 225.08 332.47 L 225.58 332.47 L 226.08 332.47 L 226.58 332.47 L 227.08 332.47 L 227.58 332.47 L 228.08 332.47 L 228.58 332.47 L 229.08 332.47 L 229.58 332.47 L 230.08 332.47 L 230.58 332.47 L 231.08 332.47 L 231.58 332.47 L 232.08 332.47 L 232.58 332.47 L 233.08 332.47 L 233.58 332.47 L 234.08 332.47 L 234.58 332.47 L 235.09 332.47 L 235.59 332.47 L 236.09 332.47 L 236.59 332.47 L 237.09 332.47 L 237.59 332.47 L 238.09 332.47 L 238.59 332.47 L 239.09 332.47 L 239.59 332.47 L 240.09 332.47 L 240.59 332.47 L 241.09 332.47 L 241.59 332.47 L 242.09 332.47 L 242.59 332.47 L 243.09 332.47 L 243.59 332.47 L 244.09 332.47 L 244.59 332.47 L 245.10 332.47 L 245.60 332.47 L 246.10 332.47 L 246.60 332.47 L 247.10 332.47 L 247.60 332.47 L 248.10 332.47 L 248.60 332.47 L 249.10 332.47 L 249.60 332.47 L 250.10 332.47 L 250.60 332.47 L 251.10 332.47 L 251.60 332.47 L 252.10 332.47 L 252.60 332.47 L 253.10 332.47 L 253.60 332.47 L 254.10 332.47 L 254.60 332.47 L 255.11 332.47 L 255.61 332.47 L 256.11 332.47 L 256.61 332.47 L 257.11 332.47 L 257.61 332.47 L 258.11 332.47 L 258.61 332.47 L 259.11 332.47 L 259.61 332.47 L 260.11 332.47 L 260.61 332.47 L 261.11 332.47 L 261.61 332.47 L 262.11 332.47 L 262.61 332.47 L 263.11 332.47 L 263.61 332.47 L 264.11 332.47 L 264.61 332.47 L 265.12 332.47 L 265.62 332.47 L 266.12 332.47 L 266.62 332.47 L 267.12 332.47 L 267.62 332.47 L 268.12 332.47 L 268.62 332.47 L 269.12 332.47 L 269.62 332.47 L 270.12 332.47 L 270.62 332.47 L 271.12 332.47 L 271.62 332.47 L 272.12 332.47 L 272.62 332.47 L 273.12 332.47 L 273.62 332.47 L 274.12 332.47 L 274.62 332.47 L 275.13 332.47 L 275.63 332.47 L 276.13 332.47 L 276.63 332.47 L 277.13 332.47 L 277.63 332.47 L 278.13 332.47 L 278.63 332.47 L 279.13 332.47 L 279.63 332.47 L 280.13 332.47 L 280.63 332.47 L 281.13 332.47 L 281.63 332.47 L 282.13 332.47 L 282.63 332.47 L 283.13 332.47 L 283.63 332.47 L 284.13 332.47 L 284.63 332.47 L 285.14 332.47 L 285.64 332.47 L 286.14 332.47 L 286.64 332.47 L 287.14 332.47 L 287.64 332.47 L 288.14 332.47 L 288.64 332.47 L 289.14 332.47 L 289.64 332.47 L 290.14 332.47 L 290.64 332.47 L 291.14 332.47 L 291.64 332.47 L 292.14 332.47 L 292.64 332.47 L 293.14 332.47 L 293.64 332.47 L 294.14 332.47 L 294.64 332.47 L 295.15 332.47 L 295.65 332.47 L 296.15 332.47 L 296.65 332.47 L 297.15 332.47 L 297.65 332.47 L 298.15 332.47 L 298.65 332.47 L 299.15 332.47 L 299.65 332.47 L 300.15 332.47 L 300.65 332.47 L 301.15 332.47 L 301.65 332.47 L 302.15 332.47 L 302.65 332.47 L 303.15 332.47 L 303.65 332.47 L 304.15 332.47 L 304.65 332.47 L 305.16 332.47 L 305.66 332.47 L 306.16 332.47 L 306.66 332.47 L 307.16 332.47 L 307.66 332.47 L 308.16 332.47 L 308.66 332.47 L 309.16 332.47 L 309.66 332.47 L 310.16 332.47 L 310.66 332.47 L 311.16 332.47 L 311.66 332.47 L 312.16 332.47 L 312.66 332.47 L 313.16 332.47 L 313.66 332.47 L 314.16 332.47 L 314.66 332.47 L 315.17 332.47 L 315.67 332.47 L 316.17 332.47 L 316.67 332.47 L 317.17 332.47 L 317.67 332.47 L 318.17 332.47 L 318.67 332.47 L 319.17 332.47 L 319.67 332.47 L 320.17 332.47 L 320.67 332.47 L 321.17 332.47 L 321.67 332.47 L 322.17 332.47 L 322.67 332.47 L 323.17 332.47 L 323.67 332.47 L 324.17 332.47 L 324.67 332.47 L 325.18 332.47 L 325.68 332.47 L 326.18 332.47 L 326.68 332.47 L 327.18 332.47 L 327.68 332.47 L 328.18 332.47 L 328.68 332.47 L 329.18 332.47 L 329.68 332.47 L 330.18 332.47 L 330.68 332.47 L 331.18 332.47 L 331.68 332.47 L 332.18 332.47 L 332.68 332.47 L 333.18 332.47 L 333.68 332.47 L 334.18 332.47 L 334.68 332.47 L 335.19 332.47 L 335.69 332.47 L 336.19 332.47 L 336.69 332.47 L 337.19 332.47 L 337.69 332.47 L 338.19 332.47 L 338.69 332.47 L 339.19 332.47 L 339.69 332.47 L 340.19 332.47 L 340.69 332.47 L 341.19 332.47 L 341.69 332.47 L 342.19 332.47 L 342.69 332.47 L 343.19 332.47 L 343.69 332.47 L 344.19 332.47 L 344.69 332.47 L 345.20 332.47 L 345.70 332.47 L 346.20 332.47 L 346.70 332.47 L 347.20 332.47 L 347.70 332.47 L 348.20 332.47 L 348.70 332.47 L 349.20 332.47 L 349.70 332.47 L 350.20 332.47 L 350.70 332.47 L 351.20 332.47 L 351.70 332.47 L 352.20 332.47 L 352.70 332.47 L 353.20 332.47 L 353.70 332.47 L 354.20 332.47 L 354.70 332.47 L 355.21 332.47 L 355.71 332.47 L 356.21 332.47 L 356.71 332.47 L 357.21 332.47 L 357.71 332.47 L 358.21 332.47 L 358.71 332.47 L 359.21 332.47 L 359.71 332.47 L 360.21 332.47 L 360.71 332.47 L 361.21 332.47 L 361.71 332.47 L 362.21 332.47 L 362.71 332.47 L 363.21 332.47 L 363.71 332.47 L 364.21 332.47 L 364.71 332.47 L 365.22 332.47 L 365.72 332.47 L 366.22 332.47 L 366.72 332.47 L 367.22 332.47 L 367.72 332.47 L 368.22 332.47 L 368.72 332.47 L 369.22 332.47 L 369.72 332.47 L 370.22 332.47 L 370.72 332.47 L 371.22 332.47 L 371.72 332.47 L 372.22 332.47 L 372.72 332.47 L 373.22 332.47 L 373.72 332.47 L 374.22 332.47 L 374.72 332.47 L 375.23 332.47 L 375.73 332.47 L 376.23 332.47 L 376.73 332.47 L 377.23 332.47 L 377.73 332.47 L 378.23 332.47 L 378.73 332.47 L 379.23 332.47 L 379.73 332.47 L 380.23 332.47 L 380.73 332.47 L 381.23 332.47 L 381.73 332.47 L 382.23 332.47 L 382.73 332.47 L 383.23 332.47 L 383.73 332.47 L 384.23 332.47 L 384.73 332.47 L 385.24 332.47 L 385.74 332.47 L 386.24 332.47 L 386.74 332.47 L 387.24 332.47 L 387.74 332.47 L 388.24 332.47 L 388.74 332.47 L 389.24 332.47 L 389.74 332.47 L 390.24 332.47 L 390.74 332.47 L 391.24 332.47 L 391.74 332.47 L 392.24 332.47 L 392.74 332.47 L 393.24 332.47 L 393.74 332.47 L 394.24 332.47 L 394.74 332.47 L 395.25 332.47 L 395.75 332.47 L 396.25 332.47 L 396.75 332.47 L 397.25 332.47 L 397.75 332.47 L 398.25 332.47 L 398.75 332.47 L 399.25 332.47 L 399.75 332.47 L 400.25 332.47 L 400.75 332.47 L 401.25 332.47 L 401.75 332.47 L 402.25 332.47 L 402.75 332.47 L 403.25 332.47 L 403.75 332.47 L 404.25 332.47 L 404.75 332.47 L 405.26 332.47 L 405.76 332.47 L 406.26 332.47 L 406.76 332.47 L 407.26 332.47 L 407.76 332.47 L 408.26 332.47 L 408.76 332.47 L 409.26 332.47 L 409.76 332.47 L 410.26 332.47 L 410.76 332.47 L 411.26 332.47 L 411.76 332.47 L 412.26 332.47 L 412.76 332.47 L 413.26 332.47 L 413.76 332.47 L 414.26 332.47 L 414.76 332.47 L 415.27 332.47 L 415.77 332.47 L 416.27 332.47 L 416.77 332.47 L 417.27 332.47 L 417.77 332.47 L 418.27 332.47 L 418.77 332.47 L 419.27 332.47 L 419.77 332.47 L 420.27 332.47 L 420.77 332.47 L 421.27 332.47 L 421.77 332.47 L 422.27 332.47 L 422.77 332.47 L 423.27 332.47 L 423.77 332.47 L 424.27 332.47 L 424.77 332.47 L 425.28 332.47 L 425.78 332.47 L 426.28 332.47 L 426.78 332.47 L 427.28 332.47 L 427.78 332.47 L 428.28 332.47 L 428.78 332.47 L 429.28 332.47 L 429.78 332.47 L 430.28 332.47 L 430.78 332.47 L 431.28 332.47 L 431.78 332.47 L 432.28 332.47 L 432.78 332.47 L 433.28 332.47 L 433.78 332.47 L 434.28 332.47 L 434.78 332.47 L 435.29 332.47 L 435.79 332.47 L 436.29 332.47 L 436.79 332.47 L 437.29 332.47 L 437.79 332.47 L 438.29 332.47 L 438.79 332.47 L 439.29 332.47 L 439.79 332.47 L 440.29 332.47 L 440.79 332.47 L 441.29 332.47 L 441.79 332.47 L 442.29 332.47 L 442.79 332.47 L 443.29 332.47 L 443.79 332.47 L 444.29 332.47 L 444.79 332.47 L 445.30 332.47 L 445.80 332.47 L 446.30 332.47 L 446.80 332.47 L 447.30 332.47 L 447.80 332.47 L 448.30 332.47 L 448.80 332.47 L 449.30 332.47 L 449.80 332.47 L 450.30 332.47 L 450.80 332.47 L 451.30 332.47 L 451.80 332.47 L 452.30 332.47 L 452.80 332.47 L 453.30 332.47 L 453.80 332.47 L 454.30 332.47 L 454.80 332.47 L 455.31 332.47 L 455.81 332.47 L 456.31 332.47 L 456.81 332.47 L 457.31 332.47 L 457.81 332.47 L 458.31 332.47 L 458.81 332.47 L 459.31 332.47 L 459.81 332.47 L 460.31 332.47 L 460.81 332.47 L 461.31 332.47 L 461.81 332.47 L 462.31 332.47 L 462.81 332.47 L 463.31 332.47 L 463.81 332.47 L 464.31 332.47 L 464.81 332.47 L 465.32 332.47 L 465.82 332.47 L 466.32 332.47 L 466.82 332.47 L 467.32 332.47 L 467.82 332.47 L 468.32 332.47 L 468.82 332.47 L 469.32 332.47 L 469.82 332.47 L 470.32 332.47 L 470.82 332.47 L 471.32 332.47 L 471.82 332.47 L 472.32 332.47 L 472.82 332.47 L 473.32 332.47 L 473.82 332.47 L 474.32 332.47 L 474.82 332.47 L 475.33 332.47 L 475.83 332.47 L 476.33 332.47 L 476.83 332.47 L 477.33 332.47 L 477.83 332.47 L 478.33 332.47 L 478.83 332.47 L 479.33 332.47 L 479.83 332.47 L 480.33 332.47 L 480.83 332.47 L 481.33 332.47 L 481.83 332.47 L 482.33 332.47 L 482.83 332.47 L 483.33 332.47 L 483.83 332.47 L 484.33 332.47 L 484.83 332.47 L 485.34 332.47 L 485.84 332.47 L 486.34 332.47 L 486.84 332.47 L 487.34 332.47 L 487.84 332.47 L 488.34 332.47 L 488.84 332.47 L 489.34 332.47 L 489.84 332.47 L 490.34 332.47 L 490.84 332.47 L 491.34 332.47 L 491.84 332.47 L 492.34 332.47 L 492.84 332.47 L 493.34 332.47 L 493.84 332.47 L 494.34 332.47 L 494.84 332.47 L 495.35 332.47 L 495.85 332.47 L 496.35 332.47 L 496.85 332.47 L 497.35 332.47 L 497.85 332.47 L 498.35 332.47 L 498.85 332.47 L 499.35 332.47 L 499.85 332.47 L 500.35 332.47 L 500.85 332.47 L 501.35 332.47 L 501.85 332.47 L 502.35 332.47 L 502.85 332.47 L 503.35 332.47 L 503.85 332.47 L 504.35 332.47 L 504.85 332.47 L 505.36 332.47 L 505.86 332.47 L 506.36 332.47 L 506.86 332.47 L 507.36 332.47 L 507.86 332.47 L 508.36 332.47 L 508.86 332.47 L 509.36 332.47 L 509.86 332.47 L 510.36 332.47 L 510.86 332.47 L 511.36 332.47 L 511.86 332.47 L 512.36 332.47 L 512.86 332.47 L 513.36 332.47 L 513.86 332.47 L 514.36 332.47 L 514.86 332.47 L 515.37 332.47 L 515.87 332.47 L 516.37 332.47 L 516.87 332.47 L 517.37 332.47 L 517.87 332.47 L 518.37 332.47 L 518.87 332.47 L 519.37 332.47 L 519.87 332.47 L 520.37 332.47 L 520.87 332.47 L 521.37 332.47 L 521.87 332.47 L 522.37 332.47 L 522.87 332.47 L 523.37 332.47 L 523.87 332.47 L 524.37 332.47 L 524.87 332.47 L 525.38 332.47 L 525.88 332.47 L 526.38 332.47 L 526.88 332.47 L 527.38 332.47 L 527.88 332.47 L 528.38 332.47 L 528.88 332.47 L 529.38 332.47 L 529.88 332.47 L 530.38 332.47 L 530.88 332.47 L 531.38 332.47 L 531.88 332.47 L 532.38 332.47 L 532.88 332.47 L 533.38 332.47 L 533.88 332.47 L 534.38 332.47 L 534.88 332.47 L 535.39 332.47 L 535.89 332.47 L 536.39 332.47 L 536.89 332.47 L 537.39 332.47 L 537.89 332.47 L 538.39 332.47 L 538.89 332.47 L 539.39 332.47 L 539.89 332.47 L 540.39 332.47 L 540.89 332.47 L 541.39 332.47 L 541.89 332.47 L 542.39 332.47 L 542.89 332.47 L 543.39 332.47 L 543.89 332.47 L 544.39 332.47 L 544.89 332.47 L 545.40 332.47 L 545.90 332.47 L 546.40 332.47 L 546.90 332.47 L 547.40 332.47 L 547.90 332.47 L 548.40 332.47 L 548.90 332.47 L 549.40 332.47 L 549.90 332.47 L 550.40 332.47 L 550.90 332.47 L 551.40 332.47 L 551.90 332.47 L 552.40 332.47 L 552.90 332.47 L 553.40 332.47 L 553.90 332.47 L 554.40 332.47 L 554.90 332.47 L 555.41 332.47 L 555.91 332.47 L 556.41 332.47 L 556.91 332.47 L 557.41 332.47 L 557.91 332.47 L 558.41 332.47 L 558.91 332.47 L 559.41 332.47 L 559.91 332.47 L 560.41 332.47 L 560.91 332.47 L 561.41 332.47 L 561.91 332.47 L 562.41 332.47 L 562.91 332.47 L 563.41 332.47 L 563.91 332.47 L 564.41 332.47 L 564.91 332.47 L 565.42 332.47 L 565.92 332.47 L 566.42 332.47 L 566.92 332.47 L 567.42 332.47 L 567.92 332.47 L 568.42 332.47 L 568.92 332.47 L 569.42 332.47 L 569.92 332.47 L 570.42 332.47 L 570.92 332.47 L 571.42 332.47 L 571.92 332.47 L 572.42 332.47 L 572.92 332.47 L 573.42 332.47 L 573.92 332.47 L 574.42 332.47 L 574.92 332.47 L 575.43 332.47 L 575.93 332.47 L 576.43 332.47 L 576.93 332.47 L 577.43 332.47 L 577.93 332.47 L 578.43 332.47 L 578.93 332.47 L 579.43 332.47 L 579.93 332.47 L 580.43 332.47 L 580.93 332.47 L 581.43 332.47 L 581.93 332.47 L 582.43 332.47 L 582.93 332.47 L 583.43 332.47 L 583.93 332.47 L 584.43 332.47 L 584.93 332.47 L 585.44 332.47 L 585.94 332.47 L 586.44 332.47 L 586.94 332.47 L 587.44 332.47 L 587.94 332.47 L 588.44 332.47 L 588.94 332.47 L 589.44 332.47 L 589.94 332.47 L 590.44 332.47 L 590.94 332.47 L 591.44 332.47 L 591.94 332.47 L 592.44 332.47 L 592.94 332.47 L 593.44 332.47 L 593.94 332.47 L 594.44 332.47 L 594.94 332.47 L 595.45 332.47 L 595.95 332.47 L 596.45 332.47 L 596.95 332.47 L 597.45 332.47 L 597.95 332.47 L 598.45 332.47 L 598.95 332.47 L 599.45 332.47 L 599.95 332.47 L 600.45 332.47 L 600.95 332.47 L 601.45 332.47 L 601.95 332.47 L 602.45 332.47 L 602.95 332.47 L 603.45 332.47 L 603.95 332.47 L 604.45 332.47 L 604.95 332.47 L 605.46 332.47 L 605.96 332.47 L 606.46 332.47 L 606.96 332.47 L 607.46 332.47 L 607.96 332.47 L 608.46 332.47 L 608.96 332.47 L 609.46 332.47 L 609.96 332.47 L 610.46 332.47 L 610.96 332.47 L 611.46 332.47 L 611.96 332.47 L 612.46 332.47 L 612.96 332.47 L 613.46 332.47 L 613.96 332.47 L 614.46 332.47 L 614.96 332.47 L 615.47 332.47 L 615.97 332.47 L 616.47 332.47 L 616.97 332.47 L 617.47 332.47 L 617.97 332.47 L 618.47 332.47 L 618.97 332.47 L 619.47 332.47 L 619.97 332.47 L 620.47 332.47 L 620.97 332.47 L 621.47 332.47 L 621.97 332.47 L 622.47 332.47 L 622.97 332.47 L 623.47 332.47 L 623.97 332.47 L 624.47 332.47 L 624.97 332.47 L 625.48 332.47 L 625.98 332.47 L 626.48 332.47 L 626.98 332.47 L 627.48 332.47 L 627.98 332.47 L 628.48 332.47 L 628.98 332.47 L 629.48 332.47 L 629.98 332.47 L 630.48 332.47 L 630.98 332.47 L 631.48 332.47 L 631.98 332.47 L 632.48 332.47 L 632.98 332.47 L 633.48 332.47 L 633.98 332.47 L 634.48 332.47 L 634.98 332.47 L 635.49 332.47 L 635.99 332.47 L 636.49 332.47 L 636.99 332.47 L 637.49 332.47 L 637.99 332.47 L 638.49 332.47 L 638.99 332.47 L 639.49 332.47 L 639.99 332.47 L 640.49 332.47 L 640.99 332.47 L 641.49 332.47 L 641.99 332.47 L 642.49 332.47 L 642.99 332.47 L 643.49 332.47 L 643.99 332.47 L 644.49 332.47 L 644.99 332.47 L 645.50 332.47 L 646.00 332.47 L 646.50 332.47 L 647.00 332.47 L 647.50 332.47 L 648.00 332.47 L 648.50 332.47 L 649.00 332.47 L 649.50 332.47 L 650.00 332.47" /><text  class="poloto_labels poloto_text poloto_title" x="400" y="37.5" >bspline example 2 b</text><text  class="poloto_labels poloto_text poloto_xname" x="400" y="481.25" >x</text><text  class="poloto_labels poloto_text poloto_yname" transform="rotate(-90,37.5,250)" x="37.5" y="250" >y</text><text  class="poloto_tick_labels poloto_text" dominant-baseline="middle" text-anchor="start" x="150" y="70" ></text><line  class="poloto_axis_lines" stroke="black" x1="150" x2="144" y1="393.8610133458981" y2="393.8610133458981" /><text  class="poloto_tick_labels poloto_text" dominant-baseline="middle" text-anchor="end" x="135" y="393.8610133458981" >-5</text><line  class="poloto_axis_lines" stroke="black" x1="150" x2="144" y1="332.4711468048788" y2="332.4711468048788" /><text  class="poloto_tick_labels poloto_text" dominant-baseline="middle" text-anchor="end" x="135" y="332.4711468048788" >0</text><line  class="poloto_axis_lines" stroke="black" x1="150" x2="144" y1="271.0812802638595" y2="271.0812802638595" /><text  class="poloto_tick_labels poloto_text" dominant-baseline="middle" text-anchor="end" x="135" y="271.0812802638595" >5</text><line  class="poloto_axis_lines" stroke="black" x1="150" x2="144" y1="209.69141372284025" y2="209.69141372284025" /><text  class="poloto_tick_labels poloto_text" dominant-baseline="middle" text-anchor="end" x="135" y="209.69141372284025" >10</text><line  class="poloto_axis_lines" stroke="black" x1="150" x2="144" y1="148.30154718182098" y2="148.30154718182098" /><text  class="poloto_tick_labels poloto_text" dominant-baseline="middle" text-anchor="end" x="135" y="148.30154718182098" >15</text><text  class="poloto_tick_labels poloto_text" dominant-baseline="middle" text-anchor="start" x="440.00000000000006" y="70" ></text><line  class="poloto_axis_lines" stroke="black" x1="150" x2="150" y1="400" y2="405" /><text  class="poloto_tick_labels poloto_text" dominant-baseline="start" text-anchor="middle" x="150" y="430" >0</text><line  class="poloto_axis_lines" stroke="black" x1="233.4167506673851" x2="233.4167506673851" y1="400" y2="405" /><text  class="poloto_tick_labels poloto_text" dominant-baseline="start" text-anchor="middle" x="233.4167506673851" y="430" >1</text><line  class="poloto_axis_lines" stroke="black" x1="316.8335013347702" x2="316.8335013347702" y1="400" y2="405" /><text  class="poloto_tick_labels poloto_text" dominant-baseline="start" text-anchor="middle" x="316.8335013347702" y="430" >2</text><line  class="poloto_axis_lines" stroke="black" x1="400.2502520021552" x2="400.2502520021552" y1="400" y2="405" /><text  class="poloto_tick_labels poloto_text" dominant-baseline="start" text-anchor="middle" x="400.2502520021552" y="430" >3</text><line  class="poloto_axis_lines" stroke="black" x1="483.6670026695403" x2="483.6670026695403" y1="400" y2="405" /><text  class="poloto_tick_labels poloto_text" dominant-baseline="start" text-anchor="middle" x="483.6670026695403" y="430" >4</text><line  class="poloto_axis_lines" stroke="black" x1="567.0837533369254" x2="567.0837533369254" y1="400" y2="405" /><text  class="poloto_tick_labels poloto_text" dominant-baseline="start" text-anchor="middle" x="567.0837533369254" y="430" >5</text><path  stroke="black" fill="none" class="poloto_axis_lines" style="stroke-dasharray:8.341675066738507;stroke-dashoffset:-0;" d=" M 150 400 L 650 400" /><path  stroke="black" fill="none" class="poloto_axis_lines" style="stroke-dasharray:6.138986654101927;stroke-dashoffset:-6.138986654101927;" d=" M 150 400 L 150 100" /></svg>