<svg class="poloto" width="800" height="500" viewBox="0 0 800 500" xmlns="http://www.w3.org/2000/svg"><style>.poloto{stroke-linecap:round;stroke-linejoin:round;font-family:Roboto,sans-serif;font-size:16px;}.poloto_background{fill:AliceBlue;}.poloto_scatter{stroke-width:7}.poloto_tick_line{stroke:gray;stroke-width:0.5}.poloto_line{stroke-width:2}.poloto_text{fill: black;}.poloto_axis_lines{stroke: black;stroke-width:3;fill:none;stroke-dasharray:none}.poloto_title{font-size:24px;dominant-baseline:start;text-anchor:middle;}.poloto_xname{font-size:24px;dominant-baseline:start;text-anchor:middle;}.poloto_yname{font-size:24px;dominant-baseline:start;text-anchor:middle;}.poloto_legend_text{font-size:20px;dominant-baseline:middle;text-anchor:start;}.poloto0stroke{stroke:blue;}.poloto1stroke{stroke:red;}.poloto2stroke{stroke:green;}.poloto3stroke{stroke:gold;}.poloto4stroke{stroke:aqua;}.poloto5stroke{stroke:lime;}.poloto6stroke{stroke:orange;}.poloto7stroke{stroke:chocolate;}.poloto0fill{fill:blue;}.poloto1fill{fill:red;}.poloto2fill{fill:green;}.poloto3fill{fill:gold;}.poloto4fill{fill:aqua;}.poloto5fill{fill:lime;}.poloto6fill{fill:orange;}.poloto7fill{fill:chocolate;}</style><circle  r="1e5" class="poloto_background" /><text  class="poloto_text poloto_legend_text" x="675" y="100" >knot</text><line  class="poloto_scatter poloto_legend_icon poloto0stroke poloto0legend" stroke="black" x1="685" x2="685" y1="81.25" y2="81.25" /><path  class="poloto_scatter poloto0stroke" d=" M 221.50 260.10 h 0 M 293.00 260.10 h 0 M 364.50 260.10 h 0 M 436.00 260.10 h 0 M 507.50 260.10 h 0 M 579.00 260.10 h 0" /><text  class="poloto_text poloto_legend_text" x="675" y="150" >curve</text><line  class="poloto_line poloto_legend_icon poloto1stroke poloto1legend" stroke="black" x1="680" x2="730" y1="131.25" y2="131.25" /><path  class="poloto_line poloto1stroke" fill="none" stroke="black" d=" M 150.00 325.18 L 150.50 324.30 L 151.00 323.42 L 151.50 322.55 L 152.00 321.69 L 152.50 320.84 L 153.00 319.99 L 153.50 319.15 L 154.00 318.32 L 154.50 317.49 L 155.01 316.67 L 155.51 315.86 L 156.01 315.05 L 156.51 314.25 L 157.01 313.46 L 157.51 312.67 L 158.01 311.89 L 158.51 311.11 L 159.01 310.34 L 159.51 309.58 L 160.01 308.83 L 160.51 308.08 L 161.01 307.33 L 161.51 306.60 L 162.01 305.87 L 162.51 305.14 L 163.01 304.42 L 163.51 303.71 L 164.01 303.01 L 164.51 302.31 L 165.02 301.61 L 165.52 300.92 L 166.02 300.24 L 166.52 299.57 L 167.02 298.90 L 167.52 298.23 L 168.02 297.58 L 168.52 296.93 L 169.02 296.28 L 169.52 295.64 L 170.02 295.01 L 170.52 294.38 L 171.02 293.75 L 171.52 293.14 L 172.02 292.53 L 172.52 291.92 L 173.02 291.32 L 173.52 290.73 L 174.02 290.14 L 174.52 289.56 L 175.03 288.98 L 175.53 288.41 L 176.03 287.84 L 176.53 287.28 L 177.03 286.72 L 177.53 286.17 L 178.03 285.63 L 178.53 285.09 L 179.03 284.55 L 179.53 284.03 L 180.03 283.50 L 180.53 282.98 L 181.03 282.47 L 181.53 281.96 L 182.03 281.46 L 182.53 280.96 L 183.03 280.47 L 183.53 279.99 L 184.03 279.50 L 184.53 279.03 L 185.04 278.55 L 185.54 278.09 L 186.04 277.63 L 186.54 277.17 L 187.04 276.72 L 187.54 276.27 L 188.04 275.83 L 188.54 275.39 L 189.04 274.96 L 189.54 274.53 L 190.04 274.11 L 190.54 273.69 L 191.04 273.27 L 191.54 272.87 L 192.04 272.46 L 192.54 272.06 L 193.04 271.67 L 193.54 271.28 L 194.04 270.89 L 194.54 270.51 L 195.05 270.13 L 195.55 269.76 L 196.05 269.39 L 196.55 269.03 L 197.05 268.67 L 197.55 268.31 L 198.05 267.96 L 198.55 267.62 L 199.05 267.28 L 199.55 266.94 L 200.05 266.60 L 200.55 266.28 L 201.05 265.95 L 201.55 265.63 L 202.05 265.31 L 202.55 265.00 L 203.05 264.69 L 203.55 264.39 L 204.05 264.09 L 204.55 263.79 L 205.06 263.50 L 205.56 263.21 L 206.06 262.92 L 206.56 262.64 L 207.06 262.37 L 207.56 262.09 L 208.06 261.82 L 208.56 261.56 L 209.06 261.30 L 209.56 261.04 L 210.06 260.78 L 210.56 260.53 L 211.06 260.29 L 211.56 260.04 L 212.06 259.80 L 212.56 259.57 L 213.06 259.33 L 213.56 259.11 L 214.06 258.88 L 214.56 258.66 L 215.07 258.44 L 215.57 258.22 L 216.07 258.01 L 216.57 257.80 L 217.07 257.60 L 217.57 257.40 L 218.07 257.20 L 218.57 257.00 L 219.07 256.81 L 219.57 256.62 L 220.07 256.43 L 220.57 256.25 L 221.07 256.07 L 221.57 255.90 L 222.07 255.72 L 222.57 255.55 L 223.07 255.38 L 223.57 255.22 L 224.07 255.06 L 224.57 254.90 L 225.08 254.74 L 225.58 254.59 L 226.08 254.44 L 226.58 254.30 L 227.08 254.15 L 227.58 254.01 L 228.08 253.87 L 228.58 253.73 L 229.08 253.60 L 229.58 253.47 L 230.08 253.34 L 230.58 253.22 L 231.08 253.09 L 231.58 252.97 L 232.08 252.86 L 232.58 252.74 L 233.08 252.63 L 233.58 252.52 L 234.08 252.41 L 234.58 252.31 L 235.09 252.20 L 235.59 252.10 L 236.09 252.00 L 236.59 251.91 L 237.09 251.81 L 237.59 251.72 L 238.09 251.63 L 238.59 251.55 L 239.09 251.46 L 239.59 251.38 L 240.09 251.30 L 240.59 251.22 L 241.09 251.14 L 241.59 251.07 L 242.09 250.99 L 242.59 250.92 L 243.09 250.86 L 243.59 250.79 L 244.09 250.72 L 244.59 250.66 L 245.10 250.60 L 245.60 250.54 L 246.10 250.48 L 246.60 250.43 L 247.10 250.37 L 247.60 250.32 L 248.10 250.27 L 248.60 250.22 L 249.10 250.17 L 249.60 250.13 L 250.10 250.09 L 250.60 250.04 L 251.10 250.00 L 251.60 249.96 L 252.10 249.92 L 252.60 249.89 L 253.10 249.85 L 253.60 249.82 L 254.10 249.79 L 254.60 249.76 L 255.11 249.73 L 255.61 249.70 L 256.11 249.67 L 256.61 249.64 L 257.11 249.62 L 257.61 249.60 L 258.11 249.57 L 258.61 249.55 L 259.11 249.53 L 259.61 249.51 L 260.11 249.50 L 260.61 249.48 L 261.11 249.46 L 261.61 249.45 L 262.11 249.43 L 262.61 249.42 L 263.11 249.41 L 263.61 249.40 L 264.11 249.39 L 264.61 249.38 L 265.12 249.37 L 265.62 249.36 L 266.12 249.35 L 266.62 249.35 L 267.12 249.34 L 267.62 249.33 L 268.12 249.33 L 268.62 249.33 L 269.12 249.32 L 269.62 249.32 L 270.12 249.32 L 270.62 249.31 L 271.12 249.31 L 271.62 249.31 L 272.12 249.31 L 272.62 249.31 L 273.12 249.31 L 273.62 249.31 L 274.12 249.31 L 274.62 249.31 L 275.13 249.31 L 275.63 249.32 L 276.13 249.32 L 276.63 249.32 L 277.13 249.32 L 277.63 249.32 L 278.13 249.33 L 278.63 249.33 L 279.13 249.33 L 279.63 249.33 L 280.13 249.33 L 280.63 249.34 L 281.13 249.34 L 281.63 249.34 L 282.13 249.34 L 282.63 249.35 L 283.13 249.35 L 283.63 249.35 L 284.13 249.35 L 284.63 249.35 L 285.14 249.35 L 285.64 249.35 L 286.14 249.35 L 286.64 249.35 L 287.14 249.35 L 287.64 249.35 L 288.14 249.35 L 288.64 249.35 L 289.14 249.35 L 289.64 249.34 L 290.14 249.34 L 290.64 249.34 L 291.14 249.33 L 291.64 249.33 L 292.14 249.32 L 292.64 249.31 L 293.14 249.31 L 293.64 249.30 L 294.14 249.29 L 294.64 249.28 L 295.15 249.27 L 295.65 249.26 L 296.15 249.25 L 296.65 249.24 L 297.15 249.22 L 297.65 249.21 L 298.15 249.20 L 298.65 249.18 L 299.15 249.17 L 299.65 249.15 L 300.15 249.14 L 300.65 249.12 L 301.15 249.10 L 301.65 249.09 L 302.15 249.07 L 302.65 249.05 L 303.15 249.03 L 303.65 249.01 L 304.15 248.99 L 304.65 248.97 L 305.16 248.95 L 305.66 248.93 L 306.16 248.91 L 306.66 248.88 L 307.16 248.86 L 307.66 248.84 L 308.16 248.82 L 308.66 248.79 L 309.16 248.77 L 309.66 248.74 L 310.16 248.72 L 310.66 248.69 L 311.16 248.67 L 311.66 248.64 L 312.16 248.62 L 312.66 248.59 L 313.16 248.57 L 313.66 248.54 L 314.16 248.51 L 314.66 248.49 L 315.17 248.46 L 315.67 248.43 L 316.17 248.40 L 316.67 248.38 L 317.17 248.35 L 317.67 248.32 L 318.17 248.29 L 318.67 248.27 L 319.17 248.24 L 319.67 248.21 L 320.17 248.18 L 320.67 248.15 L 321.17 248.12 L 321.67 248.10 L 322.17 248.07 L 322.67 248.04 L 323.17 248.01 L 323.67 247.98 L 324.17 247.95 L 324.67 247.93 L 325.18 247.90 L 325.68 247.87 L 326.18 247.84 L 326.68 247.81 L 327.18 247.79 L 327.68 247.76 L 328.18 247.73 L 328.68 247.70 L 329.18 247.68 L 329.68 247.65 L 330.18 247.62 L 330.68 247.59 L 331.18 247.57 L 331.68 247.54 L 332.18 247.52 L 332.68 247.49 L 333.18 247.46 L 333.68 247.44 L 334.18 247.41 L 334.68 247.39 L 335.19 247.36 L 335.69 247.34 L 336.19 247.32 L 336.69 247.29 L 337.19 247.27 L 337.69 247.25 L 338.19 247.22 L 338.69 247.20 L 339.19 247.18 L 339.69 247.16 L 340.19 247.14 L 340.69 247.12 L 341.19 247.10 L 341.69 247.08 L 342.19 247.06 L 342.69 247.04 L 343.19 247.02 L 343.69 247.00 L 344.19 246.99 L 344.69 246.97 L 345.20 246.95 L 345.70 246.94 L 346.20 246.92 L 346.70 246.91 L 347.20 246.89 L 347.70 246.88 L 348.20 246.87 L 348.70 246.86 L 349.20 246.85 L 349.70 246.84 L 350.20 246.83 L 350.70 246.82 L 351.20 246.81 L 351.70 246.80 L 352.20 246.79 L 352.70 246.79 L 353.20 246.78 L 353.70 246.77 L 354.20 246.77 L 354.70 246.77 L 355.21 246.76 L 355.71 246.76 L 356.21 246.76 L 356.71 246.76 L 357.21 246.76 L 357.71 246.76 L 358.21 246.77 L 358.71 246.77 L 359.21 246.77 L 359.71 246.78 L 360.21 246.78 L 360.71 246.79 L 361.21 246.80 L 361.71 246.81 L 362.21 246.82 L 362.71 246.83 L 363.21 246.84 L 363.71 246.85 L 364.21 246.86 L 364.71 246.88 L 365.22 246.89 L 365.72 246.91 L 366.22 246.93 L 366.72 246.95 L 367.22 246.97 L 367.72 246.99 L 368.22 247.01 L 368.72 247.03 L 369.22 247.05 L 369.72 247.08 L 370.22 247.10 L 370.72 247.13 L 371.22 247.15 L 371.72 247.18 L 372.22 247.21 L 372.72 247.24 L 373.22 247.27 L 373.72 247.30 L 374.22 247.33 L 374.72 247.36 L 375.23 247.39 L 375.73 247.43 L 376.23 247.46 L 376.73 247.49 L 377.23 247.53 L 377.73 247.56 L 378.23 247.60 L 378.73 247.64 L 379.23 247.67 L 379.73 247.71 L 380.23 247.75 L 380.73 247.79 L 381.23 247.83 L 381.73 247.87 L 382.23 247.90 L 382.73 247.95 L 383.23 247.99 L 383.73 248.03 L 384.23 248.07 L 384.73 248.11 L 385.24 248.15 L 385.74 248.19 L 386.24 248.24 L 386.74 248.28 L 387.24 248.32 L 387.74 248.37 L 388.24 248.41 L 388.74 248.45 L 389.24 248.50 L 389.74 248.54 L 390.24 248.59 L 390.74 248.63 L 391.24 248.68 L 391.74 248.72 L 392.24 248.77 L 392.74 248.81 L 393.24 248.86 L 393.74 248.90 L 394.24 248.95 L 394.74 248.99 L 395.25 249.04 L 395.75 249.08 L 396.25 249.13 L 396.75 249.17 L 397.25 249.22 L 397.75 249.26 L 398.25 249.31 L 398.75 249.35 L 399.25 249.39 L 399.75 249.44 L 400.25 249.48 L 400.75 249.53 L 401.25 249.57 L 401.75 249.61 L 402.25 249.66 L 402.75 249.70 L 403.25 249.74 L 403.75 249.78 L 404.25 249.83 L 404.75 249.87 L 405.26 249.91 L 405.76 249.95 L 406.26 249.99 L 406.76 250.03 L 407.26 250.07 L 407.76 250.11 L 408.26 250.15 L 408.76 250.18 L 409.26 250.22 L 409.76 250.26 L 410.26 250.30 L 410.76 250.33 L 411.26 250.37 L 411.76 250.40 L 412.26 250.44 L 412.76 250.47 L 413.26 250.50 L 413.76 250.54 L 414.26 250.57 L 414.76 250.60 L 415.27 250.63 L 415.77 250.66 L 416.27 250.69 L 416.77 250.72 L 417.27 250.74 L 417.77 250.77 L 418.27 250.79 L 418.77 250.82 L 419.27 250.84 L 419.77 250.87 L 420.27 250.89 L 420.77 250.91 L 421.27 250.93 L 421.77 250.95 L 422.27 250.97 L 422.77 250.99 L 423.27 251.00 L 423.77 251.02 L 424.27 251.03 L 424.77 251.05 L 425.28 251.06 L 425.78 251.07 L 426.28 251.08 L 426.78 251.09 L 427.28 251.10 L 427.78 251.11 L 428.28 251.11 L 428.78 251.12 L 429.28 251.12 L 429.78 251.13 L 430.28 251.13 L 430.78 251.13 L 431.28 251.13 L 431.78 251.12 L 432.28 251.12 L 432.78 251.11 L 433.28 251.11 L 433.78 251.10 L 434.28 251.09 L 434.78 251.08 L 435.29 251.07 L 435.79 251.05 L 436.29 251.04 L 436.79 251.02 L 437.29 251.01 L 437.79 250.99 L 438.29 250.97 L 438.79 250.95 L 439.29 250.92 L 439.79 250.90 L 440.29 250.87 L 440.79 250.85 L 441.29 250.82 L 441.79 250.79 L 442.29 250.76 L 442.79 250.73 L 443.29 250.69 L 443.79 250.66 L 444.29 250.63 L 444.79 250.59 L 445.30 250.55 L 445.80 250.52 L 446.30 250.48 L 446.80 250.44 L 447.30 250.40 L 447.80 250.35 L 448.30 250.31 L 448.80 250.27 L 449.30 250.22 L 449.80 250.18 L 450.30 250.13 L 450.80 250.09 L 451.30 250.04 L 451.80 249.99 L 452.30 249.94 L 452.80 249.89 L 453.30 249.84 L 453.80 249.79 L 454.30 249.74 L 454.80 249.68 L 455.31 249.63 L 455.81 249.58 L 456.31 249.52 L 456.81 249.47 L 457.31 249.41 L 457.81 249.36 L 458.31 249.30 L 458.81 249.25 L 459.31 249.19 L 459.81 249.13 L 460.31 249.07 L 460.81 249.01 L 461.31 248.96 L 461.81 248.90 L 462.31 248.84 L 462.81 248.78 L 463.31 248.72 L 463.81 248.66 L 464.31 248.60 L 464.81 248.54 L 465.32 248.48 L 465.82 248.42 L 466.32 248.36 L 466.82 248.30 L 467.32 248.24 L 467.82 248.18 L 468.32 248.11 L 468.82 248.05 L 469.32 247.99 L 469.82 247.93 L 470.32 247.87 L 470.82 247.81 L 471.32 247.75 L 471.82 247.69 L 472.32 247.63 L 472.82 247.57 L 473.32 247.51 L 473.82 247.45 L 474.32 247.39 L 474.82 247.33 L 475.33 247.27 L 475.83 247.22 L 476.33 247.16 L 476.83 247.10 L 477.33 247.04 L 477.83 246.98 L 478.33 246.93 L 478.83 246.87 L 479.33 246.82 L 479.83 246.76 L 480.33 246.71 L 480.83 246.65 L 481.33 246.60 L 481.83 246.55 L 482.33 246.49 L 482.83 246.44 L 483.33 246.39 L 483.83 246.34 L 484.33 246.29 L 484.83 246.24 L 485.34 246.19 L 485.84 246.15 L 486.34 246.10 L 486.84 246.05 L 487.34 246.01 L 487.84 245.96 L 488.34 245.92 L 488.84 245.88 L 489.34 245.84 L 489.84 245.79 L 490.34 245.75 L 490.84 245.72 L 491.34 245.68 L 491.84 245.64 L 492.34 245.61 L 492.84 245.57 L 493.34 245.54 L 493.84 245.51 L 494.34 245.47 L 494.84 245.44 L 495.35 245.41 L 495.85 245.39 L 496.35 245.36 L 496.85 245.34 L 497.35 245.31 L 497.85 245.29 L 498.35 245.27 L 498.85 245.25 L 499.35 245.23 L 499.85 245.21 L 500.35 245.19 L 500.85 245.18 L 501.35 245.17 L 501.85 245.16 L 502.35 245.15 L 502.85 245.14 L 503.35 245.13 L 503.85 245.12 L 504.35 245.12 L 504.85 245.12 L 505.36 245.12 L 505.86 245.12 L 506.36 245.12 L 506.86 245.12 L 507.36 245.13 L 507.86 245.14 L 508.36 245.15 L 508.86 245.16 L 509.36 245.17 L 509.86 245.19 L 510.36 245.20 L 510.86 245.22 L 511.36 245.24 L 511.86 245.26 L 512.36 245.28 L 512.86 245.30 L 513.36 245.33 L 513.86 245.35 L 514.36 245.38 L 514.86 245.41 L 515.37 245.44 L 515.87 245.47 L 516.37 245.50 L 516.87 245.54 L 517.37 245.57 L 517.87 245.61 L 518.37 245.64 L 518.87 245.68 L 519.37 245.72 L 519.87 245.76 L 520.37 245.80 L 520.87 245.84 L 521.37 245.88 L 521.87 245.93 L 522.37 245.97 L 522.87 246.01 L 523.37 246.06 L 523.87 246.11 L 524.37 246.15 L 524.87 246.20 L 525.38 246.25 L 525.88 246.30 L 526.38 246.34 L 526.88 246.39 L 527.38 246.44 L 527.88 246.49 L 528.38 246.54 L 528.88 246.59 L 529.38 246.65 L 529.88 246.70 L 530.38 246.75 L 530.88 246.80 L 531.38 246.85 L 531.88 246.90 L 532.38 246.96 L 532.88 247.01 L 533.38 247.06 L 533.88 247.11 L 534.38 247.16 L 534.88 247.22 L 535.39 247.27 L 535.89 247.32 L 536.39 247.37 L 536.89 247.42 L 537.39 247.48 L 537.89 247.53 L 538.39 247.58 L 538.89 247.63 L 539.39 247.68 L 539.89 247.73 L 540.39 247.78 L 540.89 247.82 L 541.39 247.87 L 541.89 247.92 L 542.39 247.97 L 542.89 248.01 L 543.39 248.06 L 543.89 248.11 L 544.39 248.15 L 544.89 248.19 L 545.40 248.24 L 545.90 248.28 L 546.40 248.32 L 546.90 248.36 L 547.40 248.40 L 547.90 248.44 L 548.40 248.48 L 548.90 248.51 L 549.40 248.55 L 549.90 248.58 L 550.40 248.62 L 550.90 248.65 L 551.40 248.68 L 551.90 248.71 L 552.40 248.74 L 552.90 248.76 L 553.40 248.79 L 553.90 248.81 L 554.40 248.84 L 554.90 248.86 L 555.41 248.88 L 555.91 248.90 L 556.41 248.92 L 556.91 248.93 L 557.41 248.95 L 557.91 248.96 L 558.41 248.97 L 558.91 248.98 L 559.41 248.99 L 559.91 248.99 L 560.41 249.00 L 560.91 249.00 L 561.41 249.00 L 561.91 249.00 L 562.41 248.99 L 562.91 248.99 L 563.41 248.98 L 563.91 248.97 L 564.41 248.96 L 564.91 248.95 L 565.42 248.93 L 565.92 248.91 L 566.42 248.89 L 566.92 248.87 L 567.42 248.85 L 567.92 248.82 L 568.42 248.79 L 568.92 248.76 L 569.42 248.72 L 569.92 248.69 L 570.42 248.65 L 570.92 248.61 L 571.42 248.56 L 571.92 248.52 L 572.42 248.47 L 572.92 248.42 L 573.42 248.36 L 573.92 248.31 L 574.42 248.25 L 574.92 248.18 L 575.43 248.12 L 575.93 248.05 L 576.43 247.98 L 576.93 247.91 L 577.43 247.83 L 577.93 247.75 L 578.43 247.67 L 578.93 247.58 L 579.43 247.49 L 579.93 247.40 L 580.43 247.31 L 580.93 247.21 L 581.43 247.11 L 581.93 247.00 L 582.43 246.89 L 582.93 246.78 L 583.43 246.67 L 583.93 246.55 L 584.43 246.43 L 584.93 246.30 L 585.44 246.18 L 585.94 246.04 L 586.44 245.91 L 586.94 245.77 L 587.44 245.63 L 587.94 245.48 L 588.44 245.33 L 588.94 245.18 L 589.44 245.02 L 589.94 244.86 L 590.44 244.70 L 590.94 244.53 L 591.44 244.35 L 591.94 244.18 L 592.44 244.00 L 592.94 243.81 L 593.44 243.62 L 593.94 243.43 L 594.44 243.24 L 594.94 243.04 L 595.45 242.83 L 595.95 242.62 L 596.45 242.41 L 596.95 242.19 L 597.45 241.97 L 597.95 241.74 L 598.45 241.51 L 598.95 241.28 L 599.45 241.04 L 599.95 240.80 L 600.45 240.55 L 600.95 240.30 L 601.45 240.04 L 601.95 239.78 L 602.45 239.51 L 602.95 239.24 L 603.45 238.97 L 603.95 238.69 L 604.45 238.40 L 604.95 238.11 L 605.46 237.82 L 605.96 237.52 L 606.46 237.21 L 606.96 236.90 L 607.46 236.59 L 607.96 236.27 L 608.46 235.95 L 608.96 235.62 L 609.46 235.28 L 609.96 234.94 L 610.46 234.60 L 610.96 234.25 L 611.46 233.89 L 611.96 233.53 L 612.46 233.17 L 612.96 232.80 L 613.46 232.42 L 613.96 232.04 L 614.46 231.65 L 614.96 231.26 L 615.47 230.86 L 615.97 230.46 L 616.47 230.05 L 616.97 229.64 L 617.47 229.22 L 617.97 228.79 L 618.47 228.36 L 618.97 227.92 L 619.47 227.48 L 619.97 227.03 L 620.47 226.57 L 620.97 226.11 L 621.47 225.65 L 621.97 225.17 L 622.47 224.70 L 622.97 224.21 L 623.47 223.72 L 623.97 223.23 L 624.47 222.72 L 624.97 222.21 L 625.48 221.70 L 625.98 221.18 L 626.48 220.65 L 626.98 220.12 L 627.48 219.58 L 627.98 219.03 L 628.48 218.48 L 628.98 217.92 L 629.48 217.36 L 629.98 216.78 L 630.48 216.21 L 630.98 215.62 L 631.48 215.03 L 631.98 214.43 L 632.48 213.83 L 632.98 213.22 L 633.48 212.60 L 633.98 211.97 L 634.48 211.34 L 634.98 210.70 L 635.49 210.06 L 635.99 209.41 L 636.49 208.75 L 636.99 208.08 L 637.49 207.41 L 637.99 206.73 L 638.49 206.04 L 638.99 205.35 L 639.49 204.65 L 639.99 203.94 L 640.49 203.22 L 640.99 202.50 L 641.49 201.77 L 641.99 201.04 L 642.49 200.29 L 642.99 199.54 L 643.49 198.78 L 643.99 198.01 L 644.49 197.24 L 644.99 196.46 L 645.50 195.67 L 646.00 194.87 L 646.50 194.07 L 647.00 193.26 L 647.50 192.44 L 648.00 191.61 L 648.50 190.78 L 649.00 189.94 L 649.50 189.09 L 650.00 188.23" /><text  class="poloto_text poloto_legend_text" x="675" y="200" >derivative 1</text><line  class="poloto_line poloto_legend_icon poloto2stroke poloto2legend" stroke="black" x1="680" x2="730" y1="181.25" y2="181.25" /><path  class="poloto_line poloto2stroke" fill="none" stroke="black" d=" M 150.00 133.77 L 150.50 134.74 L 151.00 135.72 L 151.50 136.69 L 152.00 137.65 L 152.50 138.62 L 153.00 139.57 L 153.50 140.53 L 154.00 141.48 L 154.50 142.43 L 155.01 143.37 L 155.51 144.31 L 156.01 145.25 L 156.51 146.18 L 157.01 147.11 L 157.51 148.03 L 158.01 148.95 L 158.51 149.87 L 159.01 150.78 L 159.51 151.69 L 160.01 152.60 L 160.51 153.50 L 161.01 154.40 L 161.51 155.29 L 162.01 156.18 L 162.51 157.07 L 163.01 157.95 L 163.51 158.83 L 164.01 159.70 L 164.51 160.58 L 165.02 161.44 L 165.52 162.31 L 166.02 163.17 L 166.52 164.02 L 167.02 164.88 L 167.52 165.72 L 168.02 166.57 L 168.52 167.41 L 169.02 168.25 L 169.52 169.08 L 170.02 169.91 L 170.52 170.74 L 171.02 171.56 L 171.52 172.38 L 172.02 173.19 L 172.52 174.00 L 173.02 174.81 L 173.52 175.61 L 174.02 176.41 L 174.52 177.21 L 175.03 178.00 L 175.53 178.79 L 176.03 179.57 L 176.53 180.35 L 177.03 181.13 L 177.53 181.90 L 178.03 182.67 L 178.53 183.44 L 179.03 184.20 L 179.53 184.96 L 180.03 185.71 L 180.53 186.46 L 181.03 187.21 L 181.53 187.95 L 182.03 188.69 L 182.53 189.43 L 183.03 190.16 L 183.53 190.88 L 184.03 191.61 L 184.53 192.33 L 185.04 193.04 L 185.54 193.76 L 186.04 194.47 L 186.54 195.17 L 187.04 195.87 L 187.54 196.57 L 188.04 197.26 L 188.54 197.95 L 189.04 198.64 L 189.54 199.32 L 190.04 200.00 L 190.54 200.67 L 191.04 201.34 L 191.54 202.01 L 192.04 202.67 L 192.54 203.33 L 193.04 203.99 L 193.54 204.64 L 194.04 205.29 L 194.54 205.93 L 195.05 206.57 L 195.55 207.21 L 196.05 207.84 L 196.55 208.47 L 197.05 209.10 L 197.55 209.72 L 198.05 210.34 L 198.55 210.95 L 199.05 211.56 L 199.55 212.17 L 200.05 212.77 L 200.55 213.37 L 201.05 213.96 L 201.55 214.56 L 202.05 215.14 L 202.55 215.73 L 203.05 216.31 L 203.55 216.88 L 204.05 217.45 L 204.55 218.02 L 205.06 218.59 L 205.56 219.15 L 206.06 219.71 L 206.56 220.26 L 207.06 220.81 L 207.56 221.36 L 208.06 221.90 L 208.56 222.44 L 209.06 222.97 L 209.56 223.50 L 210.06 224.03 L 210.56 224.55 L 211.06 225.07 L 211.56 225.59 L 212.06 226.10 L 212.56 226.61 L 213.06 227.11 L 213.56 227.61 L 214.06 228.11 L 214.56 228.60 L 215.07 229.09 L 215.57 229.57 L 216.07 230.06 L 216.57 230.53 L 217.07 231.01 L 217.57 231.48 L 218.07 231.94 L 218.57 232.41 L 219.07 232.87 L 219.57 233.32 L 220.07 233.77 L 220.57 234.22 L 221.07 234.66 L 221.57 235.10 L 222.07 235.54 L 222.57 235.97 L 223.07 236.40 L 223.57 236.82 L 224.07 237.24 L 224.57 237.66 L 225.08 238.08 L 225.58 238.48 L 226.08 238.89 L 226.58 239.29 L 227.08 239.69 L 227.58 240.09 L 228.08 240.48 L 228.58 240.86 L 229.08 241.25 L 229.58 241.63 L 230.08 242.00 L 230.58 242.37 L 231.08 242.74 L 231.58 243.10 L 232.08 243.46 L 232.58 243.82 L 233.08 244.17 L 233.58 244.52 L 234.08 244.87 L 234.58 245.21 L 235.09 245.55 L 235.59 245.88 L 236.09 246.21 L 236.59 246.54 L 237.09 246.86 L 237.59 247.18 L 238.09 247.49 L 238.59 247.80 L 239.09 248.11 L 239.59 248.42 L 240.09 248.72 L 240.59 249.01 L 241.09 249.30 L 241.59 249.59 L 242.09 249.88 L 242.59 250.16 L 243.09 250.43 L 243.59 250.71 L 244.09 250.98 L 244.59 251.24 L 245.10 251.51 L 245.60 251.76 L 246.10 252.02 L 246.60 252.27 L 247.10 252.52 L 247.60 252.76 L 248.10 253.00 L 248.60 253.23 L 249.10 253.46 L 249.60 253.69 L 250.10 253.92 L 250.60 254.14 L 251.10 254.35 L 251.60 254.57 L 252.10 254.77 L 252.60 254.98 L 253.10 255.18 L 253.60 255.38 L 254.10 255.57 L 254.60 255.76 L 255.11 255.95 L 255.61 256.13 L 256.11 256.31 L 256.61 256.48 L 257.11 256.66 L 257.61 256.82 L 258.11 256.99 L 258.61 257.15 L 259.11 257.30 L 259.61 257.45 L 260.11 257.60 L 260.61 257.75 L 261.11 257.89 L 261.61 258.02 L 262.11 258.16 L 262.61 258.29 L 263.11 258.41 L 263.61 258.54 L 264.11 258.65 L 264.61 258.77 L 265.12 258.88 L 265.62 258.98 L 266.12 259.09 L 266.62 259.19 L 267.12 259.28 L 267.62 259.37 L 268.12 259.46 L 268.62 259.55 L 269.12 259.63 L 269.62 259.70 L 270.12 259.77 L 270.62 259.84 L 271.12 259.91 L 271.62 259.97 L 272.12 260.03 L 272.62 260.08 L 273.12 260.13 L 273.62 260.18 L 274.12 260.22 L 274.62 260.26 L 275.13 260.29 L 275.63 260.32 L 276.13 260.35 L 276.63 260.37 L 277.13 260.39 L 277.63 260.41 L 278.13 260.42 L 278.63 260.43 L 279.13 260.43 L 279.63 260.44 L 280.13 260.43 L 280.63 260.43 L 281.13 260.41 L 281.63 260.40 L 282.13 260.38 L 282.63 260.36 L 283.13 260.33 L 283.63 260.30 L 284.13 260.27 L 284.63 260.23 L 285.14 260.19 L 285.64 260.15 L 286.14 260.10 L 286.64 260.05 L 287.14 259.99 L 287.64 259.93 L 288.14 259.87 L 288.64 259.80 L 289.14 259.73 L 289.64 259.65 L 290.14 259.58 L 290.64 259.49 L 291.14 259.41 L 291.64 259.32 L 292.14 259.22 L 292.64 259.13 L 293.14 259.02 L 293.64 258.92 L 294.14 258.82 L 294.64 258.73 L 295.15 258.63 L 295.65 258.54 L 296.15 258.44 L 296.65 258.35 L 297.15 258.26 L 297.65 258.18 L 298.15 258.09 L 298.65 258.01 L 299.15 257.93 L 299.65 257.85 L 300.15 257.77 L 300.65 257.69 L 301.15 257.62 L 301.65 257.54 L 302.15 257.47 L 302.65 257.40 L 303.15 257.34 L 303.65 257.27 L 304.15 257.20 L 304.65 257.14 L 305.16 257.08 L 305.66 257.02 L 306.16 256.96 L 306.66 256.91 L 307.16 256.85 L 307.66 256.80 L 308.16 256.75 L 308.66 256.70 L 309.16 256.66 L 309.66 256.61 L 310.16 256.57 L 310.66 256.53 L 311.16 256.49 L 311.66 256.45 L 312.16 256.41 L 312.66 256.38 L 313.16 256.34 L 313.66 256.31 L 314.16 256.28 L 314.66 256.25 L 315.17 256.23 L 315.67 256.20 L 316.17 256.18 L 316.67 256.16 L 317.17 256.14 L 317.67 256.12 L 318.17 256.11 L 318.67 256.09 L 319.17 256.08 L 319.67 256.07 L 320.17 256.06 L 320.67 256.05 L 321.17 256.05 L 321.67 256.05 L 322.17 256.04 L 322.67 256.04 L 323.17 256.05 L 323.67 256.05 L 324.17 256.05 L 324.67 256.06 L 325.18 256.07 L 325.68 256.08 L 326.18 256.09 L 326.68 256.11 L 327.18 256.12 L 327.68 256.14 L 328.18 256.16 L 328.68 256.18 L 329.18 256.20 L 329.68 256.23 L 330.18 256.25 L 330.68 256.28 L 331.18 256.31 L 331.68 256.34 L 332.18 256.37 L 332.68 256.41 L 333.18 256.44 L 333.68 256.48 L 334.18 256.52 L 334.68 256.56 L 335.19 256.61 L 335.69 256.65 L 336.19 256.70 L 336.69 256.75 L 337.19 256.80 L 337.69 256.85 L 338.19 256.90 L 338.69 256.96 L 339.19 257.02 L 339.69 257.08 L 340.19 257.14 L 340.69 257.20 L 341.19 257.26 L 341.69 257.33 L 342.19 257.40 L 342.69 257.47 L 343.19 257.54 L 343.69 257.61 L 344.19 257.69 L 344.69 257.76 L 345.20 257.84 L 345.70 257.92 L 346.20 258.00 L 346.70 258.09 L 347.20 258.17 L 347.70 258.26 L 348.20 258.35 L 348.70 258.44 L 349.20 258.53 L 349.70 258.62 L 350.20 258.72 L 350.70 258.82 L 351.20 258.92 L 351.70 259.02 L 352.20 259.12 L 352.70 259.22 L 353.20 259.33 L 353.70 259.44 L 354.20 259.55 L 354.70 259.66 L 355.21 259.77 L 355.71 259.89 L 356.21 260.00 L 356.71 260.12 L 357.21 260.24 L 357.71 260.36 L 358.21 260.49 L 358.71 260.61 L 359.21 260.74 L 359.71 260.87 L 360.21 261.00 L 360.71 261.13 L 361.21 261.26 L 361.71 261.40 L 362.21 261.54 L 362.71 261.67 L 363.21 261.82 L 363.71 261.96 L 364.21 262.10 L 364.71 262.25 L 365.22 262.39 L 365.72 262.53 L 366.22 262.67 L 366.72 262.81 L 367.22 262.94 L 367.72 263.07 L 368.22 263.20 L 368.72 263.33 L 369.22 263.45 L 369.72 263.58 L 370.22 263.70 L 370.72 263.81 L 371.22 263.93 L 371.72 264.04 L 372.22 264.15 L 372.72 264.26 L 373.22 264.36 L 373.72 264.46 L 374.22 264.56 L 374.72 264.66 L 375.23 264.75 L 375.73 264.85 L 376.23 264.94 L 376.73 265.02 L 377.23 265.11 L 377.73 265.19 L 378.23 265.27 L 378.73 265.35 L 379.23 265.42 L 379.73 265.50 L 380.23 265.57 L 380.73 265.63 L 381.23 265.70 L 381.73 265.76 L 382.23 265.82 L 382.73 265.88 L 383.23 265.94 L 383.73 265.99 L 384.23 266.04 L 384.73 266.09 L 385.24 266.13 L 385.74 266.18 L 386.24 266.22 L 386.74 266.26 L 387.24 266.29 L 387.74 266.32 L 388.24 266.36 L 388.74 266.38 L 389.24 266.41 L 389.74 266.43 L 390.24 266.45 L 390.74 266.47 L 391.24 266.49 L 391.74 266.50 L 392.24 266.51 L 392.74 266.52 L 393.24 266.53 L 393.74 266.53 L 394.24 266.54 L 394.74 266.53 L 395.25 266.53 L 395.75 266.52 L 396.25 266.52 L 396.75 266.51 L 397.25 266.49 L 397.75 266.48 L 398.25 266.46 L 398.75 266.44 L 399.25 266.41 L 399.75 266.39 L 400.25 266.36 L 400.75 266.33 L 401.25 266.30 L 401.75 266.26 L 402.25 266.22 L 402.75 266.18 L 403.25 266.14 L 403.75 266.10 L 404.25 266.05 L 404.75 266.00 L 405.26 265.95 L 405.76 265.89 L 406.26 265.83 L 406.76 265.77 L 407.26 265.71 L 407.76 265.65 L 408.26 265.58 L 408.76 265.51 L 409.26 265.44 L 409.76 265.36 L 410.26 265.29 L 410.76 265.21 L 411.26 265.12 L 411.76 265.04 L 412.26 264.95 L 412.76 264.86 L 413.26 264.77 L 413.76 264.68 L 414.26 264.58 L 414.76 264.48 L 415.27 264.38 L 415.77 264.28 L 416.27 264.17 L 416.77 264.06 L 417.27 263.95 L 417.77 263.83 L 418.27 263.72 L 418.77 263.60 L 419.27 263.48 L 419.77 263.35 L 420.27 263.23 L 420.77 263.10 L 421.27 262.97 L 421.77 262.83 L 422.27 262.70 L 422.77 262.56 L 423.27 262.42 L 423.77 262.28 L 424.27 262.13 L 424.77 261.98 L 425.28 261.83 L 425.78 261.68 L 426.28 261.52 L 426.78 261.36 L 427.28 261.20 L 427.78 261.04 L 428.28 260.87 L 428.78 260.71 L 429.28 260.54 L 429.78 260.36 L 430.28 260.19 L 430.78 260.01 L 431.28 259.83 L 431.78 259.65 L 432.28 259.46 L 432.78 259.27 L 433.28 259.08 L 433.78 258.89 L 434.28 258.70 L 434.78 258.50 L 435.29 258.30 L 435.79 258.10 L 436.29 257.89 L 436.79 257.69 L 437.29 257.49 L 437.79 257.30 L 438.29 257.11 L 438.79 256.92 L 439.29 256.73 L 439.79 256.55 L 440.29 256.37 L 440.79 256.20 L 441.29 256.02 L 441.79 255.85 L 442.29 255.69 L 442.79 255.52 L 443.29 255.36 L 443.79 255.21 L 444.29 255.05 L 444.79 254.90 L 445.30 254.76 L 445.80 254.61 L 446.30 254.47 L 446.80 254.33 L 447.30 254.20 L 447.80 254.07 L 448.30 253.94 L 448.80 253.81 L 449.30 253.69 L 449.80 253.57 L 450.30 253.46 L 450.80 253.34 L 451.30 253.24 L 451.80 253.13 L 452.30 253.03 L 452.80 252.93 L 453.30 252.83 L 453.80 252.74 L 454.30 252.65 L 454.80 252.56 L 455.31 252.48 L 455.81 252.39 L 456.31 252.32 L 456.81 252.24 L 457.31 252.17 L 457.81 252.10 L 458.31 252.04 L 458.81 251.98 L 459.31 251.92 L 459.81 251.86 L 460.31 251.81 L 460.81 251.76 L 461.31 251.72 L 461.81 251.67 L 462.31 251.63 L 462.81 251.60 L 463.31 251.56 L 463.81 251.53 L 464.31 251.51 L 464.81 251.48 L 465.32 251.46 L 465.82 251.45 L 466.32 251.43 L 466.82 251.42 L 467.32 251.41 L 467.82 251.41 L 468.32 251.41 L 468.82 251.41 L 469.32 251.41 L 469.82 251.42 L 470.32 251.43 L 470.82 251.45 L 471.32 251.47 L 471.82 251.49 L 472.32 251.51 L 472.82 251.54 L 473.32 251.57 L 473.82 251.60 L 474.32 251.64 L 474.82 251.68 L 475.33 251.72 L 475.83 251.77 L 476.33 251.82 L 476.83 251.87 L 477.33 251.92 L 477.83 251.98 L 478.33 252.05 L 478.83 252.11 L 479.33 252.18 L 479.83 252.25 L 480.33 252.33 L 480.83 252.40 L 481.33 252.48 L 481.83 252.57 L 482.33 252.66 L 482.83 252.75 L 483.33 252.84 L 483.83 252.94 L 484.33 253.04 L 484.83 253.14 L 485.34 253.25 L 485.84 253.36 L 486.34 253.47 L 486.84 253.59 L 487.34 253.70 L 487.84 253.83 L 488.34 253.95 L 488.84 254.08 L 489.34 254.21 L 489.84 254.35 L 490.34 254.49 L 490.84 254.63 L 491.34 254.77 L 491.84 254.92 L 492.34 255.07 L 492.84 255.22 L 493.34 255.38 L 493.84 255.54 L 494.34 255.71 L 494.84 255.87 L 495.35 256.04 L 495.85 256.21 L 496.35 256.39 L 496.85 256.57 L 497.35 256.75 L 497.85 256.94 L 498.35 257.13 L 498.85 257.32 L 499.35 257.51 L 499.85 257.71 L 500.35 257.91 L 500.85 258.12 L 501.35 258.33 L 501.85 258.54 L 502.35 258.75 L 502.85 258.97 L 503.35 259.19 L 503.85 259.41 L 504.35 259.64 L 504.85 259.87 L 505.36 260.11 L 505.86 260.34 L 506.36 260.58 L 506.86 260.82 L 507.36 261.07 L 507.86 261.32 L 508.36 261.56 L 508.86 261.80 L 509.36 262.03 L 509.86 262.26 L 510.36 262.48 L 510.86 262.70 L 511.36 262.91 L 511.86 263.12 L 512.36 263.33 L 512.86 263.53 L 513.36 263.72 L 513.86 263.91 L 514.36 264.10 L 514.86 264.28 L 515.37 264.45 L 515.87 264.62 L 516.37 264.79 L 516.87 264.95 L 517.37 265.11 L 517.87 265.26 L 518.37 265.40 L 518.87 265.54 L 519.37 265.68 L 519.87 265.81 L 520.37 265.94 L 520.87 266.06 L 521.37 266.18 L 521.87 266.29 L 522.37 266.40 L 522.87 266.50 L 523.37 266.60 L 523.87 266.70 L 524.37 266.79 L 524.87 266.87 L 525.38 266.95 L 525.88 267.02 L 526.38 267.09 L 526.88 267.16 L 527.38 267.22 L 527.88 267.27 L 528.38 267.32 L 528.88 267.37 L 529.38 267.41 L 529.88 267.44 L 530.38 267.48 L 530.88 267.50 L 531.38 267.52 L 531.88 267.54 L 532.38 267.55 L 532.88 267.56 L 533.38 267.56 L 533.88 267.56 L 534.38 267.55 L 534.88 267.54 L 535.39 267.52 L 535.89 267.50 L 536.39 267.47 L 536.89 267.44 L 537.39 267.41 L 537.89 267.36 L 538.39 267.32 L 538.89 267.27 L 539.39 267.21 L 539.89 267.15 L 540.39 267.09 L 540.89 267.02 L 541.39 266.94 L 541.89 266.86 L 542.39 266.78 L 542.89 266.69 L 543.39 266.60 L 543.89 266.50 L 544.39 266.39 L 544.89 266.28 L 545.40 266.17 L 545.90 266.05 L 546.40 265.93 L 546.90 265.80 L 547.40 265.67 L 547.90 265.53 L 548.40 265.39 L 548.90 265.24 L 549.40 265.09 L 549.90 264.94 L 550.40 264.77 L 550.90 264.61 L 551.40 264.44 L 551.90 264.26 L 552.40 264.08 L 552.90 263.90 L 553.40 263.71 L 553.90 263.51 L 554.40 263.31 L 554.90 263.11 L 555.41 262.90 L 555.91 262.68 L 556.41 262.46 L 556.91 262.24 L 557.41 262.01 L 557.91 261.78 L 558.41 261.54 L 558.91 261.30 L 559.41 261.05 L 559.91 260.80 L 560.41 260.54 L 560.91 260.28 L 561.41 260.01 L 561.91 259.74 L 562.41 259.46 L 562.91 259.18 L 563.41 258.89 L 563.91 258.60 L 564.41 258.31 L 564.91 258.00 L 565.42 257.70 L 565.92 257.39 L 566.42 257.07 L 566.92 256.75 L 567.42 256.43 L 567.92 256.10 L 568.42 255.76 L 568.92 255.43 L 569.42 255.08 L 569.92 254.73 L 570.42 254.38 L 570.92 254.02 L 571.42 253.66 L 571.92 253.29 L 572.42 252.92 L 572.92 252.54 L 573.42 252.16 L 573.92 251.77 L 574.42 251.38 L 574.92 250.98 L 575.43 250.58 L 575.93 250.17 L 576.43 249.76 L 576.93 249.34 L 577.43 248.92 L 577.93 248.50 L 578.43 248.07 L 578.93 247.63 L 579.43 247.19 L 579.93 246.75 L 580.43 246.30 L 580.93 245.84 L 581.43 245.38 L 581.93 244.92 L 582.43 244.45 L 582.93 243.97 L 583.43 243.50 L 583.93 243.01 L 584.43 242.52 L 584.93 242.03 L 585.44 241.53 L 585.94 241.03 L 586.44 240.52 L 586.94 240.01 L 587.44 239.49 L 587.94 238.97 L 588.44 238.44 L 588.94 237.91 L 589.44 237.38 L 589.94 236.84 L 590.44 236.29 L 590.94 235.74 L 591.44 235.18 L 591.94 234.62 L 592.44 234.06 L 592.94 233.49 L 593.44 232.91 L 593.94 232.33 L 594.44 231.75 L 594.94 231.16 L 595.45 230.56 L 595.95 229.97 L 596.45 229.36 L 596.95 228.75 L 597.45 228.14 L 597.95 227.52 L 598.45 226.90 L 598.95 226.27 L 599.45 225.64 L 599.95 225.00 L 600.45 224.36 L 600.95 223.71 L 601.45 223.06 L 601.95 222.40 L 602.45 221.74 L 602.95 221.08 L 603.45 220.40 L 603.95 219.73 L 604.45 219.05 L 604.95 218.36 L 605.46 217.67 L 605.96 216.98 L 606.46 216.28 L 606.96 215.57 L 607.46 214.86 L 607.96 214.15 L 608.46 213.43 L 608.96 212.71 L 609.46 211.98 L 609.96 211.24 L 610.46 210.51 L 610.96 209.76 L 611.46 209.01 L 611.96 208.26 L 612.46 207.50 L 612.96 206.74 L 613.46 205.97 L 613.96 205.20 L 614.46 204.43 L 614.96 203.64 L 615.47 202.86 L 615.97 202.07 L 616.47 201.27 L 616.97 200.47 L 617.47 199.66 L 617.97 198.85 L 618.47 198.04 L 618.97 197.22 L 619.47 196.39 L 619.97 195.56 L 620.47 194.73 L 620.97 193.89 L 621.47 193.04 L 621.97 192.20 L 622.47 191.34 L 622.97 190.48 L 623.47 189.62 L 623.97 188.75 L 624.47 187.88 L 624.97 187.00 L 625.48 186.12 L 625.98 185.23 L 626.48 184.34 L 626.98 183.44 L 627.48 182.54 L 627.98 181.63 L 628.48 180.72 L 628.98 179.81 L 629.48 178.88 L 629.98 177.96 L 630.48 177.03 L 630.98 176.09 L 631.48 175.15 L 631.98 174.21 L 632.48 173.26 L 632.98 172.30 L 633.48 171.34 L 633.98 170.38 L 634.48 169.41 L 634.98 168.43 L 635.49 167.46 L 635.99 166.47 L 636.49 165.48 L 636.99 164.49 L 637.49 163.49 L 637.99 162.49 L 638.49 161.48 L 638.99 160.47 L 639.49 159.45 L 639.99 158.43 L 640.49 157.40 L 640.99 156.37 L 641.49 155.33 L 641.99 154.29 L 642.49 153.25 L 642.99 152.20 L 643.49 151.14 L 643.99 150.08 L 644.49 149.01 L 644.99 147.94 L 645.50 146.87 L 646.00 145.79 L 646.50 144.70 L 647.00 143.62 L 647.50 142.52 L 648.00 141.42 L 648.50 140.32 L 649.00 139.21 L 649.50 138.10 L 650.00 136.98" /><text  class="poloto_text poloto_legend_text" x="675" y="250" >derivative 2</text><line  class="poloto_line poloto_legend_icon poloto3stroke poloto3legend" stroke="black" x1="680" x2="730" y1="231.25" y2="231.25" /><path  class="poloto_line poloto3stroke" fill="none" stroke="black" d=" M 150.00 400.00 L 150.50 399.46 L 151.00 398.92 L 151.50 398.38 L 152.00 397.84 L 152.50 397.30 L 153.00 396.76 L 153.50 396.21 L 154.00 395.67 L 154.50 395.13 L 155.01 394.59 L 155.51 394.05 L 156.01 393.51 L 156.51 392.97 L 157.01 392.43 L 157.51 391.89 L 158.01 391.35 L 158.51 390.81 L 159.01 390.27 L 159.51 389.72 L 160.01 389.18 L 160.51 388.64 L 161.01 388.10 L 161.51 387.56 L 162.01 387.02 L 162.51 386.48 L 163.01 385.94 L 163.51 385.40 L 164.01 384.86 L 164.51 384.32 L 165.02 383.78 L 165.52 383.23 L 166.02 382.69 L 166.52 382.15 L 167.02 381.61 L 167.52 381.07 L 168.02 380.53 L 168.52 379.99 L 169.02 379.45 L 169.52 378.91 L 170.02 378.37 L 170.52 377.83 L 171.02 377.29 L 171.52 376.74 L 172.02 376.20 L 172.52 375.66 L 173.02 375.12 L 173.52 374.58 L 174.02 374.04 L 174.52 373.50 L 175.03 372.96 L 175.53 372.42 L 176.03 371.88 L 176.53 371.34 L 177.03 370.80 L 177.53 370.25 L 178.03 369.71 L 178.53 369.17 L 179.03 368.63 L 179.53 368.09 L 180.03 367.55 L 180.53 367.01 L 181.03 366.47 L 181.53 365.93 L 182.03 365.39 L 182.53 364.85 L 183.03 364.31 L 183.53 363.77 L 184.03 363.22 L 184.53 362.68 L 185.04 362.14 L 185.54 361.60 L 186.04 361.06 L 186.54 360.52 L 187.04 359.98 L 187.54 359.44 L 188.04 358.90 L 188.54 358.36 L 189.04 357.82 L 189.54 357.28 L 190.04 356.73 L 190.54 356.19 L 191.04 355.65 L 191.54 355.11 L 192.04 354.57 L 192.54 354.03 L 193.04 353.49 L 193.54 352.95 L 194.04 352.41 L 194.54 351.87 L 195.05 351.33 L 195.55 350.79 L 196.05 350.24 L 196.55 349.70 L 197.05 349.16 L 197.55 348.62 L 198.05 348.08 L 198.55 347.54 L 199.05 347.00 L 199.55 346.46 L 200.05 345.92 L 200.55 345.38 L 201.05 344.84 L 201.55 344.30 L 202.05 343.75 L 202.55 343.21 L 203.05 342.67 L 203.55 342.13 L 204.05 341.59 L 204.55 341.05 L 205.06 340.51 L 205.56 339.97 L 206.06 339.43 L 206.56 338.89 L 207.06 338.35 L 207.56 337.81 L 208.06 337.27 L 208.56 336.72 L 209.06 336.18 L 209.56 335.64 L 210.06 335.10 L 210.56 334.56 L 211.06 334.02 L 211.56 333.48 L 212.06 332.94 L 212.56 332.40 L 213.06 331.86 L 213.56 331.32 L 214.06 330.78 L 214.56 330.23 L 215.07 329.69 L 215.57 329.15 L 216.07 328.61 L 216.57 328.07 L 217.07 327.53 L 217.57 326.99 L 218.07 326.45 L 218.57 325.91 L 219.07 325.37 L 219.57 324.83 L 220.07 324.29 L 220.57 323.74 L 221.07 323.20 L 221.57 322.66 L 222.07 322.12 L 222.57 321.58 L 223.07 321.04 L 223.57 320.50 L 224.07 319.96 L 224.57 319.42 L 225.08 318.88 L 225.58 318.34 L 226.08 317.80 L 226.58 317.25 L 227.08 316.71 L 227.58 316.17 L 228.08 315.63 L 228.58 315.09 L 229.08 314.55 L 229.58 314.01 L 230.08 313.47 L 230.58 312.93 L 231.08 312.39 L 231.58 311.85 L 232.08 311.31 L 232.58 310.76 L 233.08 310.22 L 233.58 309.68 L 234.08 309.14 L 234.58 308.60 L 235.09 308.06 L 235.59 307.52 L 236.09 306.98 L 236.59 306.44 L 237.09 305.90 L 237.59 305.36 L 238.09 304.82 L 238.59 304.28 L 239.09 303.73 L 239.59 303.19 L 240.09 302.65 L 240.59 302.11 L 241.09 301.57 L 241.59 301.03 L 242.09 300.49 L 242.59 299.95 L 243.09 299.41 L 243.59 298.87 L 244.09 298.33 L 244.59 297.79 L 245.10 297.24 L 245.60 296.70 L 246.10 296.16 L 246.60 295.62 L 247.10 295.08 L 247.60 294.54 L 248.10 294.00 L 248.60 293.46 L 249.10 292.92 L 249.60 292.38 L 250.10 291.84 L 250.60 291.30 L 251.10 290.75 L 251.60 290.21 L 252.10 289.67 L 252.60 289.13 L 253.10 288.59 L 253.60 288.05 L 254.10 287.51 L 254.60 286.97 L 255.11 286.43 L 255.61 285.89 L 256.11 285.35 L 256.61 284.81 L 257.11 284.26 L 257.61 283.72 L 258.11 283.18 L 258.61 282.64 L 259.11 282.10 L 259.61 281.56 L 260.11 281.02 L 260.61 280.48 L 261.11 279.94 L 261.61 279.40 L 262.11 278.86 L 262.61 278.32 L 263.11 277.77 L 263.61 277.23 L 264.11 276.69 L 264.61 276.15 L 265.12 275.61 L 265.62 275.07 L 266.12 274.53 L 266.62 273.99 L 267.12 273.45 L 267.62 272.91 L 268.12 272.37 L 268.62 271.83 L 269.12 271.29 L 269.62 270.74 L 270.12 270.20 L 270.62 269.66 L 271.12 269.12 L 271.62 268.58 L 272.12 268.04 L 272.62 267.50 L 273.12 266.96 L 273.62 266.42 L 274.12 265.88 L 274.62 265.34 L 275.13 264.80 L 275.63 264.25 L 276.13 263.71 L 276.63 263.17 L 277.13 262.63 L 277.63 262.09 L 278.13 261.55 L 278.63 261.01 L 279.13 260.47 L 279.63 259.93 L 280.13 259.39 L 280.63 258.85 L 281.13 258.31 L 281.63 257.76 L 282.13 257.22 L 282.63 256.68 L 283.13 256.14 L 283.63 255.60 L 284.13 255.06 L 284.63 254.52 L 285.14 253.98 L 285.64 253.44 L 286.14 252.90 L 286.64 252.36 L 287.14 251.82 L 287.64 251.27 L 288.14 250.73 L 288.64 250.19 L 289.14 249.65 L 289.64 249.11 L 290.14 248.57 L 290.64 248.03 L 291.14 247.49 L 291.64 246.95 L 292.14 246.41 L 292.64 245.87 L 293.14 245.55 L 293.64 245.80 L 294.14 246.05 L 294.64 246.30 L 295.15 246.55 L 295.65 246.79 L 296.15 247.04 L 296.65 247.29 L 297.15 247.54 L 297.65 247.79 L 298.15 248.04 L 298.65 248.28 L 299.15 248.53 L 299.65 248.78 L 300.15 249.03 L 300.65 249.28 L 301.15 249.53 L 301.65 249.78 L 302.15 250.02 L 302.65 250.27 L 303.15 250.52 L 303.65 250.77 L 304.15 251.02 L 304.65 251.27 L 305.16 251.51 L 305.66 251.76 L 306.16 252.01 L 306.66 252.26 L 307.16 252.51 L 307.66 252.76 L 308.16 253.01 L 308.66 253.25 L 309.16 253.50 L 309.66 253.75 L 310.16 254.00 L 310.66 254.25 L 311.16 254.50 L 311.66 254.75 L 312.16 254.99 L 312.66 255.24 L 313.16 255.49 L 313.66 255.74 L 314.16 255.99 L 314.66 256.24 L 315.17 256.48 L 315.67 256.73 L 316.17 256.98 L 316.67 257.23 L 317.17 257.48 L 317.67 257.73 L 318.17 257.98 L 318.67 258.22 L 319.17 258.47 L 319.67 258.72 L 320.17 258.97 L 320.67 259.22 L 321.17 259.47 L 321.67 259.71 L 322.17 259.96 L 322.67 260.21 L 323.17 260.46 L 323.67 260.71 L 324.17 260.96 L 324.67 261.21 L 325.18 261.45 L 325.68 261.70 L 326.18 261.95 L 326.68 262.20 L 327.18 262.45 L 327.68 262.70 L 328.18 262.95 L 328.68 263.19 L 329.18 263.44 L 329.68 263.69 L 330.18 263.94 L 330.68 264.19 L 331.18 264.44 L 331.68 264.68 L 332.18 264.93 L 332.68 265.18 L 333.18 265.43 L 333.68 265.68 L 334.18 265.93 L 334.68 266.18 L 335.19 266.42 L 335.69 266.67 L 336.19 266.92 L 336.69 267.17 L 337.19 267.42 L 337.69 267.67 L 338.19 267.91 L 338.69 268.16 L 339.19 268.41 L 339.69 268.66 L 340.19 268.91 L 340.69 269.16 L 341.19 269.41 L 341.69 269.65 L 342.19 269.90 L 342.69 270.15 L 343.19 270.40 L 343.69 270.65 L 344.19 270.90 L 344.69 271.15 L 345.20 271.39 L 345.70 271.64 L 346.20 271.89 L 346.70 272.14 L 347.20 272.39 L 347.70 272.64 L 348.20 272.88 L 348.70 273.13 L 349.20 273.38 L 349.70 273.63 L 350.20 273.88 L 350.70 274.13 L 351.20 274.38 L 351.70 274.62 L 352.20 274.87 L 352.70 275.12 L 353.20 275.37 L 353.70 275.62 L 354.20 275.87 L 354.70 276.11 L 355.21 276.36 L 355.71 276.61 L 356.21 276.86 L 356.71 277.11 L 357.21 277.36 L 357.71 277.61 L 358.21 277.85 L 358.71 278.10 L 359.21 278.35 L 359.71 278.60 L 360.21 278.85 L 360.71 279.10 L 361.21 279.35 L 361.71 279.59 L 362.21 279.84 L 362.71 280.09 L 363.21 280.34 L 363.71 280.59 L 364.21 280.84 L 364.71 280.83 L 365.22 280.48 L 365.72 280.13 L 366.22 279.78 L 366.72 279.42 L 367.22 279.07 L 367.72 278.72 L 368.22 278.37 L 368.72 278.02 L 369.22 277.67 L 369.72 277.32 L 370.22 276.97 L 370.72 276.62 L 371.22 276.27 L 371.72 275.92 L 372.22 275.57 L 372.72 275.21 L 373.22 274.86 L 373.72 274.51 L 374.22 274.16 L 374.72 273.81 L 375.23 273.46 L 375.73 273.11 L 376.23 272.76 L 376.73 272.41 L 377.23 272.06 L 377.73 271.71 L 378.23 271.36 L 378.73 271.01 L 379.23 270.65 L 379.73 270.30 L 380.23 269.95 L 380.73 269.60 L 381.23 269.25 L 381.73 268.90 L 382.23 268.55 L 382.73 268.20 L 383.23 267.85 L 383.73 267.50 L 384.23 267.15 L 384.73 266.80 L 385.24 266.44 L 385.74 266.09 L 386.24 265.74 L 386.74 265.39 L 387.24 265.04 L 387.74 264.69 L 388.24 264.34 L 388.74 263.99 L 389.24 263.64 L 389.74 263.29 L 390.24 262.94 L 390.74 262.59 L 391.24 262.24 L 391.74 261.88 L 392.24 261.53 L 392.74 261.18 L 393.24 260.83 L 393.74 260.48 L 394.24 260.13 L 394.74 259.78 L 395.25 259.43 L 395.75 259.08 L 396.25 258.73 L 396.75 258.38 L 397.25 258.03 L 397.75 257.67 L 398.25 257.32 L 398.75 256.97 L 399.25 256.62 L 399.75 256.27 L 400.25 255.92 L 400.75 255.57 L 401.25 255.22 L 401.75 254.87 L 402.25 254.52 L 402.75 254.17 L 403.25 253.82 L 403.75 253.47 L 404.25 253.11 L 404.75 252.76 L 405.26 252.41 L 405.76 252.06 L 406.26 251.71 L 406.76 251.36 L 407.26 251.01 L 407.76 250.66 L 408.26 250.31 L 408.76 249.96 L 409.26 249.61 L 409.76 249.26 L 410.26 248.90 L 410.76 248.55 L 411.26 248.20 L 411.76 247.85 L 412.26 247.50 L 412.76 247.15 L 413.26 246.80 L 413.76 246.45 L 414.26 246.10 L 414.76 245.75 L 415.27 245.40 L 415.77 245.05 L 416.27 244.70 L 416.77 244.34 L 417.27 243.99 L 417.77 243.64 L 418.27 243.29 L 418.77 242.94 L 419.27 242.59 L 419.77 242.24 L 420.27 241.89 L 420.77 241.54 L 421.27 241.19 L 421.77 240.84 L 422.27 240.49 L 422.77 240.13 L 423.27 239.78 L 423.77 239.43 L 424.27 239.08 L 424.77 238.73 L 425.28 238.38 L 425.78 238.03 L 426.28 237.68 L 426.78 237.33 L 427.28 236.98 L 427.78 236.63 L 428.28 236.28 L 428.78 235.93 L 429.28 235.57 L 429.78 235.22 L 430.28 234.87 L 430.78 234.52 L 431.28 234.17 L 431.78 233.82 L 432.28 233.47 L 432.78 233.12 L 433.28 232.77 L 433.78 232.42 L 434.28 232.07 L 434.78 231.72 L 435.29 231.36 L 435.79 231.01 L 436.29 231.12 L 436.79 231.58 L 437.29 232.03 L 437.79 232.48 L 438.29 232.93 L 438.79 233.39 L 439.29 233.84 L 439.79 234.29 L 440.29 234.75 L 440.79 235.20 L 441.29 235.65 L 441.79 236.11 L 442.29 236.56 L 442.79 237.01 L 443.29 237.47 L 443.79 237.92 L 444.29 238.37 L 444.79 238.83 L 445.30 239.28 L 445.80 239.73 L 446.30 240.18 L 446.80 240.64 L 447.30 241.09 L 447.80 241.54 L 448.30 242.00 L 448.80 242.45 L 449.30 242.90 L 449.80 243.36 L 450.30 243.81 L 450.80 244.26 L 451.30 244.72 L 451.80 245.17 L 452.30 245.62 L 452.80 246.08 L 453.30 246.53 L 453.80 246.98 L 454.30 247.43 L 454.80 247.89 L 455.31 248.34 L 455.81 248.79 L 456.31 249.25 L 456.81 249.70 L 457.31 250.15 L 457.81 250.61 L 458.31 251.06 L 458.81 251.51 L 459.31 251.97 L 459.81 252.42 L 460.31 252.87 L 460.81 253.33 L 461.31 253.78 L 461.81 254.23 L 462.31 254.68 L 462.81 255.14 L 463.31 255.59 L 463.81 256.04 L 464.31 256.50 L 464.81 256.95 L 465.32 257.40 L 465.82 257.86 L 466.32 258.31 L 466.82 258.76 L 467.32 259.22 L 467.82 259.67 L 468.32 260.12 L 468.82 260.58 L 469.32 261.03 L 469.82 261.48 L 470.32 261.93 L 470.82 262.39 L 471.32 262.84 L 471.82 263.29 L 472.32 263.75 L 472.82 264.20 L 473.32 264.65 L 473.82 265.11 L 474.32 265.56 L 474.82 266.01 L 475.33 266.47 L 475.83 266.92 L 476.33 267.37 L 476.83 267.83 L 477.33 268.28 L 477.83 268.73 L 478.33 269.18 L 478.83 269.64 L 479.33 270.09 L 479.83 270.54 L 480.33 271.00 L 480.83 271.45 L 481.33 271.90 L 481.83 272.36 L 482.33 272.81 L 482.83 273.26 L 483.33 273.72 L 483.83 274.17 L 484.33 274.62 L 484.83 275.08 L 485.34 275.53 L 485.84 275.98 L 486.34 276.43 L 486.84 276.89 L 487.34 277.34 L 487.84 277.79 L 488.34 278.25 L 488.84 278.70 L 489.34 279.15 L 489.84 279.61 L 490.34 280.06 L 490.84 280.51 L 491.34 280.97 L 491.84 281.42 L 492.34 281.87 L 492.84 282.32 L 493.34 282.78 L 493.84 283.23 L 494.34 283.68 L 494.84 284.14 L 495.35 284.59 L 495.85 285.04 L 496.35 285.50 L 496.85 285.95 L 497.35 286.40 L 497.85 286.86 L 498.35 287.31 L 498.85 287.76 L 499.35 288.22 L 499.85 288.67 L 500.35 289.12 L 500.85 289.57 L 501.35 290.03 L 501.85 290.48 L 502.35 290.93 L 502.85 291.39 L 503.35 291.84 L 503.85 292.29 L 504.35 292.75 L 504.85 293.20 L 505.36 293.65 L 505.86 294.11 L 506.36 294.56 L 506.86 295.01 L 507.36 295.47 L 507.86 295.10 L 508.36 294.42 L 508.86 293.73 L 509.36 293.04 L 509.86 292.36 L 510.36 291.67 L 510.86 290.98 L 511.36 290.30 L 511.86 289.61 L 512.36 288.92 L 512.86 288.23 L 513.36 287.55 L 513.86 286.86 L 514.36 286.17 L 514.86 285.49 L 515.37 284.80 L 515.87 284.11 L 516.37 283.43 L 516.87 282.74 L 517.37 282.05 L 517.87 281.36 L 518.37 280.68 L 518.87 279.99 L 519.37 279.30 L 519.87 278.62 L 520.37 277.93 L 520.87 277.24 L 521.37 276.56 L 521.87 275.87 L 522.37 275.18 L 522.87 274.49 L 523.37 273.81 L 523.87 273.12 L 524.37 272.43 L 524.87 271.75 L 525.38 271.06 L 525.88 270.37 L 526.38 269.69 L 526.88 269.00 L 527.38 268.31 L 527.88 267.62 L 528.38 266.94 L 528.88 266.25 L 529.38 265.56 L 529.88 264.88 L 530.38 264.19 L 530.88 263.50 L 531.38 262.82 L 531.88 262.13 L 532.38 261.44 L 532.88 260.75 L 533.38 260.07 L 533.88 259.38 L 534.38 258.69 L 534.88 258.01 L 535.39 257.32 L 535.89 256.63 L 536.39 255.95 L 536.89 255.26 L 537.39 254.57 L 537.89 253.88 L 538.39 253.20 L 538.89 252.51 L 539.39 251.82 L 539.89 251.14 L 540.39 250.45 L 540.89 249.76 L 541.39 249.08 L 541.89 248.39 L 542.39 247.70 L 542.89 247.02 L 543.39 246.33 L 543.89 245.64 L 544.39 244.95 L 544.89 244.27 L 545.40 243.58 L 545.90 242.89 L 546.40 242.21 L 546.90 241.52 L 547.40 240.83 L 547.90 240.15 L 548.40 239.46 L 548.90 238.77 L 549.40 238.08 L 549.90 237.40 L 550.40 236.71 L 550.90 236.02 L 551.40 235.34 L 551.90 234.65 L 552.40 233.96 L 552.90 233.28 L 553.40 232.59 L 553.90 231.90 L 554.40 231.21 L 554.90 230.53 L 555.41 229.84 L 555.91 229.15 L 556.41 228.47 L 556.91 227.78 L 557.41 227.09 L 557.91 226.41 L 558.41 225.72 L 558.91 225.03 L 559.41 224.34 L 559.91 223.66 L 560.41 222.97 L 560.91 222.28 L 561.41 221.60 L 561.91 220.91 L 562.41 220.22 L 562.91 219.54 L 563.41 218.85 L 563.91 218.16 L 564.41 217.47 L 564.91 216.79 L 565.42 216.10 L 565.92 215.41 L 566.42 214.73 L 566.92 214.04 L 567.42 213.35 L 567.92 212.67 L 568.42 211.98 L 568.92 211.29 L 569.42 210.60 L 569.92 209.92 L 570.42 209.23 L 570.92 208.54 L 571.42 207.86 L 571.92 207.17 L 572.42 206.48 L 572.92 205.80 L 573.42 205.11 L 573.92 204.42 L 574.42 203.73 L 574.92 203.05 L 575.43 202.36 L 575.93 201.67 L 576.43 200.99 L 576.93 200.30 L 577.43 199.61 L 577.93 198.93 L 578.43 198.24 L 578.93 197.55 L 579.43 196.87 L 579.93 196.18 L 580.43 195.49 L 580.93 194.80 L 581.43 194.12 L 581.93 193.43 L 582.43 192.74 L 582.93 192.06 L 583.43 191.37 L 583.93 190.68 L 584.43 190.00 L 584.93 189.31 L 585.44 188.62 L 585.94 187.93 L 586.44 187.25 L 586.94 186.56 L 587.44 185.87 L 587.94 185.19 L 588.44 184.50 L 588.94 183.81 L 589.44 183.13 L 589.94 182.44 L 590.44 181.75 L 590.94 181.06 L 591.44 180.38 L 591.94 179.69 L 592.44 179.00 L 592.94 178.32 L 593.44 177.63 L 593.94 176.94 L 594.44 176.26 L 594.94 175.57 L 595.45 174.88 L 595.95 174.19 L 596.45 173.51 L 596.95 172.82 L 597.45 172.13 L 597.95 171.45 L 598.45 170.76 L 598.95 170.07 L 599.45 169.39 L 599.95 168.70 L 600.45 168.01 L 600.95 167.32 L 601.45 166.64 L 601.95 165.95 L 602.45 165.26 L 602.95 164.58 L 603.45 163.89 L 603.95 163.20 L 604.45 162.52 L 604.95 161.83 L 605.46 161.14 L 605.96 160.45 L 606.46 159.77 L 606.96 159.08 L 607.46 158.39 L 607.96 157.71 L 608.46 157.02 L 608.96 156.33 L 609.46 155.65 L 609.96 154.96 L 610.46 154.27 L 610.96 153.58 L 611.46 152.90 L 611.96 152.21 L 612.46 151.52 L 612.96 150.84 L 613.46 150.15 L 613.96 149.46 L 614.46 148.78 L 614.96 148.09 L 615.47 147.40 L 615.97 146.72 L 616.47 146.03 L 616.97 145.34 L 617.47 144.65 L 617.97 143.97 L 618.47 143.28 L 618.97 142.59 L 619.47 141.91 L 619.97 141.22 L 620.47 140.53 L 620.97 139.85 L 621.47 139.16 L 621.97 138.47 L 622.47 137.78 L 622.97 137.10 L 623.47 136.41 L 623.97 135.72 L 624.47 135.04 L 624.97 134.35 L 625.48 133.66 L 625.98 132.98 L 626.48 132.29 L 626.98 131.60 L 627.48 130.91 L 627.98 130.23 L 628.48 129.54 L 628.98 128.85 L 629.48 128.17 L 629.98 127.48 L 630.48 126.79 L 630.98 126.11 L 631.48 125.42 L 631.98 124.73 L 632.48 124.04 L 632.98 123.36 L 633.48 122.67 L 633.98 121.98 L 634.48 121.30 L 634.98 120.61 L 635.49 119.92 L 635.99 119.24 L 636.49 118.55 L 636.99 117.86 L 637.49 117.17 L 637.99 116.49 L 638.49 115.80 L 638.99 115.11 L 639.49 114.43 L 639.99 113.74 L 640.49 113.05 L 640.99 112.37 L 641.49 111.68 L 641.99 110.99 L 642.49 110.30 L 642.99 109.62 L 643.49 108.93 L 643.99 108.24 L 644.49 107.56 L 644.99 106.87 L 645.50 106.18 L 646.00 105.50 L 646.50 104.81 L 647.00 104.12 L 647.50 103.43 L 648.00 102.75 L 648.50 102.06 L 649.00 101.37 L 649.50 100.69 L 650.00 100.00" /><text  class="poloto_text poloto_legend_text" x="675" y="300" >derivative 3</text><line  class="poloto_line poloto_legend_icon poloto4stroke poloto4legend" stroke="black" x1="680" x2="730" y1="281.25" y2="281.25" /><path  class="poloto_line poloto4stroke" fill="none" stroke="black" d=" M 150.00 182.84 L 150.50 182.84 L 151.00 182.84 L 151.50 182.84 L 152.00 182.84 L 152.50 182.84 L 153.00 182.84 L 153.50 182.84 L 154.00 182.84 L 154.50 182.84 L 155.01 182.84 L 155.51 182.84 L 156.01 182.84 L 156.51 182.84 L 157.01 182.84 L 157.51 182.84 L 158.01 182.84 L 158.51 182.84 L 159.01 182.84 L 159.51 182.84 L 160.01 182.84 L 160.51 182.84 L 161.01 182.84 L 161.51 182.84 L 162.01 182.84 L 162.51 182.84 L 163.01 182.84 L 163.51 182.84 L 164.01 182.84 L 164.51 182.84 L 165.02 182.84 L 165.52 182.84 L 166.02 182.84 L 166.52 182.84 L 167.02 182.84 L 167.52 182.84 L 168.02 182.84 L 168.52 182.84 L 169.02 182.84 L 169.52 182.84 L 170.02 182.84 L 170.52 182.84 L 171.02 182.84 L 171.52 182.84 L 172.02 182.84 L 172.52 182.84 L 173.02 182.84 L 173.52 182.84 L 174.02 182.84 L 174.52 182.84 L 175.03 182.84 L 175.53 182.84 L 176.03 182.84 L 176.53 182.84 L 177.03 182.84 L 177.53 182.84 L 178.03 182.84 L 178.53 182.84 L 179.03 182.84 L 179.53 182.84 L 180.03 182.84 L 180.53 182.84 L 181.03 182.84 L 181.53 182.84 L 182.03 182.84 L 182.53 182.84 L 183.03 182.84 L 183.53 182.84 L 184.03 182.84 L 184.53 182.84 L 185.04 182.84 L 185.54 182.84 L 186.04 182.84 L 186.54 182.84 L 187.04 182.84 L 187.54 182.84 L 188.04 182.84 L 188.54 182.84 L 189.04 182.84 L 189.54 182.84 L 190.04 182.84 L 190.54 182.84 L 191.04 182.84 L 191.54 182.84 L 192.04 182.84 L 192.54 182.84 L 193.04 182.84 L 193.54 182.84 L 194.04 182.84 L 194.54 182.84 L 195.05 182.84 L 195.55 182.84 L 196.05 182.84 L 196.55 182.84 L 197.05 182.84 L 197.55 182.84 L 198.05 182.84 L 198.55 182.84 L 199.05 182.84 L 199.55 182.84 L 200.05 182.84 L 200.55 182.84 L 201.05 182.84 L 201.55 182.84 L 202.05 182.84 L 202.55 182.84 L 203.05 182.84 L 203.55 182.84 L 204.05 182.84 L 204.55 182.84 L 205.06 182.84 L 205.56 182.84 L 206.06 182.84 L 206.56 182.84 L 207.06 182.84 L 207.56 182.84 L 208.06 182.84 L 208.56 182.84 L 209.06 182.84 L 209.56 182.84 L 210.06 182.84 L 210.56 182.84 L 211.06 182.84 L 211.56 182.84 L 212.06 182.84 L 212.56 182.84 L 213.06 182.84 L 213.56 182.84 L 214.06 182.84 L 214.56 182.84 L 215.07 182.84 L 215.57 182.84 L 216.07 182.84 L 216.57 182.84 L 217.07 182.84 L 217.57 182.84 L 218.07 182.84 L 218.57 182.84 L 219.07 182.84 L 219.57 182.84 L 220.07 182.84 L 220.57 182.84 L 221.07 182.84 L 221.57 182.84 L 222.07 182.84 L 222.57 182.84 L 223.07 182.84 L 223.57 182.84 L 224.07 182.84 L 224.57 182.84 L 225.08 182.84 L 225.58 182.84 L 226.08 182.84 L 226.58 182.84 L 227.08 182.84 L 227.58 182.84 L 228.08 182.84 L 228.58 182.84 L 229.08 182.84 L 229.58 182.84 L 230.08 182.84 L 230.58 182.84 L 231.08 182.84 L 231.58 182.84 L 232.08 182.84 L 232.58 182.84 L 233.08 182.84 L 233.58 182.84 L 234.08 182.84 L 234.58 182.84 L 235.09 182.84 L 235.59 182.84 L 236.09 182.84 L 236.59 182.84 L 237.09 182.84 L 237.59 182.84 L 238.09 182.84 L 238.59 182.84 L 239.09 182.84 L 239.59 182.84 L 240.09 182.84 L 240.59 182.84 L 241.09 182.84 L 241.59 182.84 L 242.09 182.84 L 242.59 182.84 L 243.09 182.84 L 243.59 182.84 L 244.09 182.84 L 244.59 182.84 L 245.10 182.84 L 245.60 182.84 L 246.10 182.84 L 246.60 182.84 L 247.10 182.84 L 247.60 182.84 L 248.10 182.84 L 248.60 182.84 L 249.10 182.84 L 249.60 182.84 L 250.10 182.84 L 250.60 182.84 L 251.10 182.84 L 251.60 182.84 L 252.10 182.84 L 252.60 182.84 L 253.10 182.84 L 253.60 182.84 L 254.10 182.84 L 254.60 182.84 L 255.11 182.84 L 255.61 182.84 L 256.11 182.84 L 256.61 182.84 L 257.11 182.84 L 257.61 182.84 L 258.11 182.84 L 258.61 182.84 L 259.11 182.84 L 259.61 182.84 L 260.11 182.84 L 260.61 182.84 L 261.11 182.84 L 261.61 182.84 L 262.11 182.84 L 262.61 182.84 L 263.11 182.84 L 263.61 182.84 L 264.11 182.84 L 264.61 182.84 L 265.12 182.84 L 265.62 182.84 L 266.12 182.84 L 266.62 182.84 L 267.12 182.84 L 267.62 182.84 L 268.12 182.84 L 268.62 182.84 L 269.12 182.84 L 269.62 182.84 L 270.12 182.84 L 270.62 182.84 L 271.12 182.84 L 271.62 182.84 L 272.12 182.84 L 272.62 182.84 L 273.12 182.84 L 273.62 182.84 L 274.12 182.84 L 274.62 182.84 L 275.13 182.84 L 275.63 182.84 L 276.13 182.84 L 276.63 182.84 L 277.13 182.84 L 277.63 182.84 L 278.13 182.84 L 278.63 182.84 L 279.13 182.84 L 279.63 182.84 L 280.13 182.84 L 280.63 182.84 L 281.13 182.84 L 281.63 182.84 L 282.13 182.84 L 282.63 182.84 L 283.13 182.84 L 283.63 182.84 L 284.13 182.84 L 284.63 182.84 L 285.14 182.84 L 285.64 182.84 L 286.14 182.84 L 286.64 182.84 L 287.14 182.84 L 287.64 182.84 L 288.14 182.84 L 288.64 182.84 L 289.14 182.84 L 289.64 182.84 L 290.14 182.84 L 290.64 182.84 L 291.14 182.84 L 291.64 182.84 L 292.14 182.84 L 292.64 182.84 L 293.14 295.59 L 293.64 295.59 L 294.14 295.59 L 294.64 295.59 L 295.15 295.59 L 295.65 295.59 L 296.15 295.59 L 296.65 295.59 L 297.15 295.59 L 297.65 295.59 L 298.15 295.59 L 298.65 295.59 L 299.15 295.59 L 299.65 295.59 L 300.15 295.59 L 300.65 295.59 L 301.15 295.59 L 301.65 295.59 L 302.15 295.59 L 302.65 295.59 L 303.15 295.59 L 303.65 295.59 L 304.15 295.59 L 304.65 295.59 L 305.16 295.59 L 305.66 295.59 L 306.16 295.59 L 306.66 295.59 L 307.16 295.59 L 307.66 295.59 L 308.16 295.59 L 308.66 295.59 L 309.16 295.59 L 309.66 295.59 L 310.16 295.59 L 310.66 295.59 L 311.16 295.59 L 311.66 295.59 L 312.16 295.59 L 312.66 295.59 L 313.16 295.59 L 313.66 295.59 L 314.16 295.59 L 314.66 295.59 L 315.17 295.59 L 315.67 295.59 L 316.17 295.59 L 316.67 295.59 L 317.17 295.59 L 317.67 295.59 L 318.17 295.59 L 318.67 295.59 L 319.17 295.59 L 319.67 295.59 L 320.17 295.59 L 320.67 295.59 L 321.17 295.59 L 321.67 295.59 L 322.17 295.59 L 322.67 295.59 L 323.17 295.59 L 323.67 295.59 L 324.17 295.59 L 324.67 295.59 L 325.18 295.59 L 325.68 295.59 L 326.18 295.59 L 326.68 295.59 L 327.18 295.59 L 327.68 295.59 L 328.18 295.59 L 328.68 295.59 L 329.18 295.59 L 329.68 295.59 L 330.18 295.59 L 330.68 295.59 L 331.18 295.59 L 331.68 295.59 L 332.18 295.59 L 332.68 295.59 L 333.18 295.59 L 333.68 295.59 L 334.18 295.59 L 334.68 295.59 L 335.19 295.59 L 335.69 295.59 L 336.19 295.59 L 336.69 295.59 L 337.19 295.59 L 337.69 295.59 L 338.19 295.59 L 338.69 295.59 L 339.19 295.59 L 339.69 295.59 L 340.19 295.59 L 340.69 295.59 L 341.19 295.59 L 341.69 295.59 L 342.19 295.59 L 342.69 295.59 L 343.19 295.59 L 343.69 295.59 L 344.19 295.59 L 344.69 295.59 L 345.20 295.59 L 345.70 295.59 L 346.20 295.59 L 346.70 295.59 L 347.20 295.59 L 347.70 295.59 L 348.20 295.59 L 348.70 295.59 L 349.20 295.59 L 349.70 295.59 L 350.20 295.59 L 350.70 295.59 L 351.20 295.59 L 351.70 295.59 L 352.20 295.59 L 352.70 295.59 L 353.20 295.59 L 353.70 295.59 L 354.20 295.59 L 354.70 295.59 L 355.21 295.59 L 355.71 295.59 L 356.21 295.59 L 356.71 295.59 L 357.21 295.59 L 357.71 295.59 L 358.21 295.59 L 358.71 295.59 L 359.21 295.59 L 359.71 295.59 L 360.21 295.59 L 360.71 295.59 L 361.21 295.59 L 361.71 295.59 L 362.21 295.59 L 362.71 295.59 L 363.21 295.59 L 363.71 295.59 L 364.21 295.59 L 364.71 209.98 L 365.22 209.98 L 365.72 209.98 L 366.22 209.98 L 366.72 209.98 L 367.22 209.98 L 367.72 209.98 L 368.22 209.98 L 368.72 209.98 L 369.22 209.98 L 369.72 209.98 L 370.22 209.98 L 370.72 209.98 L 371.22 209.98 L 371.72 209.98 L 372.22 209.98 L 372.72 209.98 L 373.22 209.98 L 373.72 209.98 L 374.22 209.98 L 374.72 209.98 L 375.23 209.98 L 375.73 209.98 L 376.23 209.98 L 376.73 209.98 L 377.23 209.98 L 377.73 209.98 L 378.23 209.98 L 378.73 209.98 L 379.23 209.98 L 379.73 209.98 L 380.23 209.98 L 380.73 209.98 L 381.23 209.98 L 381.73 209.98 L 382.23 209.98 L 382.73 209.98 L 383.23 209.98 L 383.73 209.98 L 384.23 209.98 L 384.73 209.98 L 385.24 209.98 L 385.74 209.98 L 386.24 209.98 L 386.74 209.98 L 387.24 209.98 L 387.74 209.98 L 388.24 209.98 L 388.74 209.98 L 389.24 209.98 L 389.74 209.98 L 390.24 209.98 L 390.74 209.98 L 391.24 209.98 L 391.74 209.98 L 392.24 209.98 L 392.74 209.98 L 393.24 209.98 L 393.74 209.98 L 394.24 209.98 L 394.74 209.98 L 395.25 209.98 L 395.75 209.98 L 396.25 209.98 L 396.75 209.98 L 397.25 209.98 L 397.75 209.98 L 398.25 209.98 L 398.75 209.98 L 399.25 209.98 L 399.75 209.98 L 400.25 209.98 L 400.75 209.98 L 401.25 209.98 L 401.75 209.98 L 402.25 209.98 L 402.75 209.98 L 403.25 209.98 L 403.75 209.98 L 404.25 209.98 L 404.75 209.98 L 405.26 209.98 L 405.76 209.98 L 406.26 209.98 L 406.76 209.98 L 407.26 209.98 L 407.76 209.98 L 408.26 209.98 L 408.76 209.98 L 409.26 209.98 L 409.76 209.98 L 410.26 209.98 L 410.76 209.98 L 411.26 209.98 L 411.76 209.98 L 412.26 209.98 L 412.76 209.98 L 413.26 209.98 L 413.76 209.98 L 414.26 209.98 L 414.76 209.98 L 415.27 209.98 L 415.77 209.98 L 416.27 209.98 L 416.77 209.98 L 417.27 209.98 L 417.77 209.98 L 418.27 209.98 L 418.77 209.98 L 419.27 209.98 L 419.77 209.98 L 420.27 209.98 L 420.77 209.98 L 421.27 209.98 L 421.77 209.98 L 422.27 209.98 L 422.77 209.98 L 423.27 209.98 L 423.77 209.98 L 424.27 209.98 L 424.77 209.98 L 425.28 209.98 L 425.78 209.98 L 426.28 209.98 L 426.78 209.98 L 427.28 209.98 L 427.78 209.98 L 428.28 209.98 L 428.78 209.98 L 429.28 209.98 L 429.78 209.98 L 430.28 209.98 L 430.78 209.98 L 431.28 209.98 L 431.78 209.98 L 432.28 209.98 L 432.78 209.98 L 433.28 209.98 L 433.78 209.98 L 434.28 209.98 L 434.78 209.98 L 435.29 209.98 L 435.79 209.98 L 436.29 324.83 L 436.79 324.83 L 437.29 324.83 L 437.79 324.83 L 438.29 324.83 L 438.79 324.83 L 439.29 324.83 L 439.79 324.83 L 440.29 324.83 L 440.79 324.83 L 441.29 324.83 L 441.79 324.83 L 442.29 324.83 L 442.79 324.83 L 443.29 324.83 L 443.79 324.83 L 444.29 324.83 L 444.79 324.83 L 445.30 324.83 L 445.80 324.83 L 446.30 324.83 L 446.80 324.83 L 447.30 324.83 L 447.80 324.83 L 448.30 324.83 L 448.80 324.83 L 449.30 324.83 L 449.80 324.83 L 450.30 324.83 L 450.80 324.83 L 451.30 324.83 L 451.80 324.83 L 452.30 324.83 L 452.80 324.83 L 453.30 324.83 L 453.80 324.83 L 454.30 324.83 L 454.80 324.83 L 455.31 324.83 L 455.81 324.83 L 456.31 324.83 L 456.81 324.83 L 457.31 324.83 L 457.81 324.83 L 458.31 324.83 L 458.81 324.83 L 459.31 324.83 L 459.81 324.83 L 460.31 324.83 L 460.81 324.83 L 461.31 324.83 L 461.81 324.83 L 462.31 324.83 L 462.81 324.83 L 463.31 324.83 L 463.81 324.83 L 464.31 324.83 L 464.81 324.83 L 465.32 324.83 L 465.82 324.83 L 466.32 324.83 L 466.82 324.83 L 467.32 324.83 L 467.82 324.83 L 468.32 324.83 L 468.82 324.83 L 469.32 324.83 L 469.82 324.83 L 470.32 324.83 L 470.82 324.83 L 471.32 324.83 L 471.82 324.83 L 472.32 324.83 L 472.82 324.83 L 473.32 324.83 L 473.82 324.83 L 474.32 324.83 L 474.82 324.83 L 475.33 324.83 L 475.83 324.83 L 476.33 324.83 L 476.83 324.83 L 477.33 324.83 L 477.83 324.83 L 478.33 324.83 L 478.83 324.83 L 479.33 324.83 L 479.83 324.83 L 480.33 324.83 L 480.83 324.83 L 481.33 324.83 L 481.83 324.83 L 482.33 324.83 L 482.83 324.83 L 483.33 324.83 L 483.83 324.83 L 484.33 324.83 L 484.83 324.83 L 485.34 324.83 L 485.84 324.83 L 486.34 324.83 L 486.84 324.83 L 487.34 324.83 L 487.84 324.83 L 488.34 324.83 L 488.84 324.83 L 489.34 324.83 L 489.84 324.83 L 490.34 324.83 L 490.84 324.83 L 491.34 324.83 L 491.84 324.83 L 492.34 324.83 L 492.84 324.83 L 493.34 324.83 L 493.84 324.83 L 494.34 324.83 L 494.84 324.83 L 495.35 324.83 L 495.85 324.83 L 496.35 324.83 L 496.85 324.83 L 497.35 324.83 L 497.85 324.83 L 498.35 324.83 L 498.85 324.83 L 499.35 324.83 L 499.85 324.83 L 500.35 324.83 L 500.85 324.83 L 501.35 324.83 L 501.85 324.83 L 502.35 324.83 L 502.85 324.83 L 503.35 324.83 L 503.85 324.83 L 504.35 324.83 L 504.85 324.83 L 505.36 324.83 L 505.86 324.83 L 506.36 324.83 L 506.86 324.83 L 507.36 324.83 L 507.86 161.96 L 508.36 161.96 L 508.86 161.96 L 509.36 161.96 L 509.86 161.96 L 510.36 161.96 L 510.86 161.96 L 511.36 161.96 L 511.86 161.96 L 512.36 161.96 L 512.86 161.96 L 513.36 161.96 L 513.86 161.96 L 514.36 161.96 L 514.86 161.96 L 515.37 161.96 L 515.87 161.96 L 516.37 161.96 L 516.87 161.96 L 517.37 161.96 L 517.87 161.96 L 518.37 161.96 L 518.87 161.96 L 519.37 161.96 L 519.87 161.96 L 520.37 161.96 L 520.87 161.96 L 521.37 161.96 L 521.87 161.96 L 522.37 161.96 L 522.87 161.96 L 523.37 161.96 L 523.87 161.96 L 524.37 161.96 L 524.87 161.96 L 525.38 161.96 L 525.88 161.96 L 526.38 161.96 L 526.88 161.96 L 527.38 161.96 L 527.88 161.96 L 528.38 161.96 L 528.88 161.96 L 529.38 161.96 L 529.88 161.96 L 530.38 161.96 L 530.88 161.96 L 531.38 161.96 L 531.88 161.96 L 532.38 161.96 L 532.88 161.96 L 533.38 161.96 L 533.88 161.96 L 534.38 161.96 L 534.88 161.96 L 535.39 161.96 L 535.89 161.96 L 536.39 161.96 L 536.89 161.96 L 537.39 161.96 L 537.89 161.96 L 538.39 161.96 L 538.89 161.96 L 539.39 161.96 L 539.89 161.96 L 540.39 161.96 L 540.89 161.96 L 541.39 161.96 L 541.89 161.96 L 542.39 161.96 L 542.89 161.96 L 543.39 161.96 L 543.89 161.96 L 544.39 161.96 L 544.89 161.96 L 545.40 161.96 L 545.90 161.96 L 546.40 161.96 L 546.90 161.96 L 547.40 161.96 L 547.90 161.96 L 548.40 161.96 L 548.90 161.96 L 549.40 161.96 L 549.90 161.96 L 550.40 161.96 L 550.90 161.96 L 551.40 161.96 L 551.90 161.96 L 552.40 161.96 L 552.90 161.96 L 553.40 161.96 L 553.90 161.96 L 554.40 161.96 L 554.90 161.96 L 555.41 161.96 L 555.91 161.96 L 556.41 161.96 L 556.91 161.96 L 557.41 161.96 L 557.91 161.96 L 558.41 161.96 L 558.91 161.96 L 559.41 161.96 L 559.91 161.96 L 560.41 161.96 L 560.91 161.96 L 561.41 161.96 L 561.91 161.96 L 562.41 161.96 L 562.91 161.96 L 563.41 161.96 L 563.91 161.96 L 564.41 161.96 L 564.91 161.96 L 565.42 161.96 L 565.92 161.96 L 566.42 161.96 L 566.92 161.96 L 567.42 161.96 L 567.92 161.96 L 568.42 161.96 L 568.92 161.96 L 569.42 161.96 L 569.92 161.96 L 570.42 161.96 L 570.92 161.96 L 571.42 161.96 L 571.92 161.96 L 572.42 161.96 L 572.92 161.96 L 573.42 161.96 L 573.92 161.96 L 574.42 161.96 L 574.92 161.96 L 575.43 161.96 L 575.93 161.96 L 576.43 161.96 L 576.93 161.96 L 577.43 161.96 L 577.93 161.96 L 578.43 161.96 L 578.93 161.96 L 579.43 161.96 L 579.93 161.96 L 580.43 161.96 L 580.93 161.96 L 581.43 161.96 L 581.93 161.96 L 582.43 161.96 L 582.93 161.96 L 583.43 161.96 L 583.93 161.96 L 584.43 161.96 L 584.93 161.96 L 585.44 161.96 L 585.94 161.96 L 586.44 161.96 L 586.94 161.96 L 587.44 161.96 L 587.94 161.96 L 588.44 161.96 L 588.94 161.96 L 589.44 161.96 L 589.94 161.96 L 590.44 161.96 L 590.94 161.96 L 591.44 161.96 L 591.94 161.96 L 592.44 161.96 L 592.94 161.96 L 593.44 161.96 L 593.94 161.96 L 594.44 161.96 L 594.94 161.96 L 595.45 161.96 L 595.95 161.96 L 596.45 161.96 L 596.95 161.96 L 597.45 161.96 L 597.95 161.96 L 598.45 161.96 L 598.95 161.96 L 599.45 161.96 L 599.95 161.96 L 600.45 161.96 L 600.95 161.96 L 601.45 161.96 L 601.95 161.96 L 602.45 161.96 L 602.95 161.96 L 603.45 161.96 L 603.95 161.96 L 604.45 161.96 L 604.95 161.96 L 605.46 161.96 L 605.96 161.96 L 606.46 161.96 L 606.96 161.96 L 607.46 161.96 L 607.96 161.96 L 608.46 161.96 L 608.96 161.96 L 609.46 161.96 L 609.96 161.96 L 610.46 161.96 L 610.96 161.96 L 611.46 161.96 L 611.96 161.96 L 612.46 161.96 L 612.96 161.96 L 613.46 161.96 L 613.96 161.96 L 614.46 161.96 L 614.96 161.96 L 615.47 161.96 L 615.97 161.96 L 616.47 161.96 L 616.97 161.96 L 617.47 161.96 L 617.97 161.96 L 618.47 161.96 L 618.97 161.96 L 619.47 161.96 L 619.97 161.96 L 620.47 161.96 L 620.97 161.96 L 621.47 161.96 L 621.97 161.96 L 622.47 161.96 L 622.97 161.96 L 623.47 161.96 L 623.97 161.96 L 624.47 161.96 L 624.97 161.96 L 625.48 161.96 L 625.98 161.96 L 626.48 161.96 L 626.98 161.96 L 627.48 161.96 L 627.98 161.96 L 628.48 161.96 L 628.98 161.96 L 629.48 161.96 L 629.98 161.96 L 630.48 161.96 L 630.98 161.96 L 631.48 161.96 L 631.98 161.96 L 632.48 161.96 L 632.98 161.96 L 633.48 161.96 L 633.98 161.96 L 634.48 161.96 L 634.98 161.96 L 635.49 161.96 L 635.99 161.96 L 636.49 161.96 L 636.99 161.96 L 637.49 161.96 L 637.99 161.96 L 638.49 161.96 L 638.99 161.96 L 639.49 161.96 L 639.99 161.96 L 640.49 161.96 L 640.99 161.96 L 641.49 161.96 L 641.99 161.96 L 642.49 161.96 L 642.99 161.96 L 643.49 161.96 L 643.99 161.96 L 644.49 161.96 L 644.99 161.96 L 645.50 161.96 L 646.00 161.96 L 646.50 161.96 L 647.00 161.96 L 647.50 161.96 L 648.00 161.96 L 648.50 161.96 L 649.00 161.96 L 649.50 161.96 L 650.00 161.96" /><text  class="poloto_text poloto_legend_text" x="675" y="350" >derivative 4</text><line  class="poloto_line poloto_legend_icon poloto5stroke poloto5legend" stroke="black" x1="680" x2="730" y1="331.25" y2="331.25" /><path  class="poloto_line poloto5stroke" fill="none" stroke="black" d=" M 150.00 260.10 L 150.50 260.10 L 151.00 260.10 L 151.50 260.10 L 152.00 260.10 L 152.50 260.10 L 153.00 260.10 L 153.50 260.10 L 154.00 260.10 L 154.50 260.10 L 155.01 260.10 L 155.51 260.10 L 156.01 260.10 L 156.51 260.10 L 157.01 260.10 L 157.51 260.10 L 158.01 260.10 L 158.51 260.10 L 159.01 260.10 L 159.51 260.10 L 160.01 260.10 L 160.51 260.10 L 161.01 260.10 L 161.51 260.10 L 162.01 260.10 L 162.51 260.10 L 163.01 260.10 L 163.51 260.10 L 164.01 260.10 L 164.51 260.10 L 165.02 260.10 L 165.52 260.10 L 166.02 260.10 L 166.52 260.10 L 167.02 260.10 L 167.52 260.10 L 168.02 260.10 L 168.52 260.10 L 169.02 260.10 L 169.52 260.10 L 170.02 260.10 L 170.52 260.10 L 171.02 260.10 L 171.52 260.10 L 172.02 260.10 L 172.52 260.10 L 173.02 260.10 L 173.52 260.10 L 174.02 260.10 L 174.52 260.10 L 175.03 260.10 L 175.53 260.10 L 176.03 260.10 L 176.53 260.10 L 177.03 260.10 L 177.53 260.10 L 178.03 260.10 L 178.53 260.10 L 179.03 260.10 L 179.53 260.10 L 180.03 260.10 L 180.53 260.10 L 181.03 260.10 L 181.53 260.10 L 182.03 260.10 L 182.53 260.10 L 183.03 260.10 L 183.53 260.10 L 184.03 260.10 L 184.53 260.10 L 185.04 260.10 L 185.54 260.10 L 186.04 260.10 L 186.54 260.10 L 187.04 260.10 L 187.54 260.10 L 188.04 260.10 L 188.54 260.10 L 189.04 260.10 L 189.54 260.10 L 190.04 260.10 L 190.54 260.10 L 191.04 260.10 L 191.54 260.10 L 192.04 260.10 L 192.54 260.10 L 193.04 260.10 L 193.54 260.10 L 194.04 260.10 L 194.54 260.10 L 195.05 260.10 L 195.55 260.10 L 196.05 260.10 L 196.55 260.10 L 197.05 260.10 L 197.55 260.10 L 198.05 260.10 L 198.55 260.10 L 199.05 260.10 L 199.55 260.10 L 200.05 260.10 L 200.55 260.10 L 201.05 260.10 L 201.55 260.10 L 202.05 260.10 L 202.55 260.10 L 203.05 260.10 L 203.55 260.10 L 204.05 260.10 L 204.55 260.10 L 205.06 260.10 L 205.56 260.10 L 206.06 260.10 L 206.56 260.10 L 207.06 260.10 L 207.56 260.10 L 208.06 260.10 L 208.56 260.10 L 209.06 260.10 L 209.56 260.10 L 210.06 260.10 L 210.56 260.10 L 211.06 260.10 L 211.56 260.10 L 212.06 260.10 L 212.56 260.10 L 213.06 260.10 L 213.56 260.10 L 214.06 260.10 L 214.56 260.10 L 215.07 260.10 L 215.57 260.10 L 216.07 260.10 L 216.57 260.10 L 217.07 260.10 L 217.57 260.10 L 218.07 260.10 L 218.57 260.10 L 219.07 260.10 L 219.57 260.10 L 220.07 260.10 L 220.57 260.10 L 221.07 260.10 L 221.57 260.10 L 222.07 260.10 L 222.57 260.10 L 223.07 260.10 L 223.57 260.10 L 224.07 260.10 L 224.57 260.10 L 225.08 260.10 L 225.58 260.10 L 226.08 260.10 L 226.58 260.10 L 227.08 260.10 L 227.58 260.10 L 228.08 260.10 L 228.58 260.10 L 229.08 260.10 L 229.58 260.10 L 230.08 260.10 L 230.58 260.10 L 231.08 260.10 L 231.58 260.10 L 232.08 260.10 L 232.58 260.10 L 233.08 260.10 L 233.58 260.10 L 234.08 260.10 L 234.58 260.10 L 235.09 260.10 L 235.59 260.10 L 236.09 260.10 L 236.59 260.10 L 237.09 260.10 L 237.59 260.10 L 238.09 260.10 L 238.59 260.10 L 239.09 260.10 L 239.59 260.10 L 240.09 260.10 L 240.59 260.10 L 241.09 260.10 L 241.59 260.10 L 242.09 260.10 L 242.59 260.10 L 243.09 260.10 L 243.59 260.10 L 244.09 260.10 L 244.59 260.10 L 245.10 260.10 L 245.60 260.10 L 246.10 260.10 L 246.60 260.10 L 247.10 260.10 L 247.60 260.10 L 248.10 260.10 L 248.60 260.10 L 249.10 260.10 L 249.60 260.10 L 250.10 260.10 L 250.60 260.10 L 251.10 260.10 L 251.60 260.10 L 252.10 260.10 L 252.60 260.10 L 253.10 260.10 L 253.60 260.10 L 254.10 260.10 L 254.60 260.10 L 255.11 260.10 L 255.61 260.10 L 256.11 260.10 L 256.61 260.10 L 257.11 260.10 L 257.61 260.10 L 258.11 260.10 L 258.61 260.10 L 259.11 260.10 L 259.61 260.10 L 260.11 260.10 L 260.61 260.10 L 261.11 260.10 L 261.61 260.10 L 262.11 260.10 L 262.61 260.10 L 263.11 260.10 L 263.61 260.10 L 264.11 260.10 L 264.61 260.10 L 265.12 260.10 L 265.62 260.10 L 266.12 260.10 L 266.62 260.10 L 267.12 260.10 L 267.62 260.10 L 268.12 260.10 L 268.62 260.10 L 269.12 260.10 L 269.62 260.10 L 270.12 260.10 L 270.62 260.10 L 271.12 260.10 L 271.62 260.10 L 272.12 260.10 L 272.62 260.10 L 273.12 260.10 L 273.62 260.10 L 274.12 260.10 L 274.62 260.10 L 275.13 260.10 L 275.63 260.10 L 276.13 260.10 L 276.63 260.10 L 277.13 260.10 L 277.63 260.10 L 278.13 260.10 L 278.63 260.10 L 279.13 260.10 L 279.63 260.10 L 280.13 260.10 L 280.63 260.10 L 281.13 260.10 L 281.63 260.10 L 282.13 260.10 L 282.63 260.10 L 283.13 260.10 L 283.63 260.10 L 284.13 260.10 L 284.63 260.10 L 285.14 260.10 L 285.64 260.10 L 286.14 260.10 L 286.64 260.10 L 287.14 260.10 L 287.64 260.10 L 288.14 260.10 L 288.64 260.10 L 289.14 260.10 L 289.64 260.10 L 290.14 260.10 L 290.64 260.10 L 291.14 260.10 L 291.64 260.10 L 292.14 260.10 L 292.64 260.10 L 293.14 260.10 L 293.64 260.10 L 294.14 260.10 L 294.64 260.10 L 295.15 260.10 L 295.65 260.10 L 296.15 260.10 L 296.65 260.10 L 297.15 260.10 L 297.65 260.10 L 298.15 260.10 L 298.65 260.10 L 299.15 260.10 L 299.65 260.10 L 300.15 260.10 L 300.65 260.10 L 301.15 260.10 L 301.65 260.10 L 302.15 260.10 L 302.65 260.10 L 303.15 260.10 L 303.65 260.10 L 304.15 260.10 L 304.65 260.10 L 305.16 260.10 L 305.66 260.10 L 306.16 260.10 L 306.66 260.10 L 307.16 260.10 L 307.66 260.10 L 308.16 260.10 L 308.66 260.10 L 309.16 260.10 L 309.66 260.10 L 310.16 260.10 L 310.66 260.10 L 311.16 260.10 L 311.66 260.10 L 312.16 260.10 L 312.66 260.10 L 313.16 260.10 L 313.66 260.10 L 314.16 260.10 L 314.66 260.10 L 315.17 260.10 L 315.67 260.10 L 316.17 260.10 L 316.67 260.10 L 317.17 260.10 L 317.67 260.10 L 318.17 260.10 L 318.67 260.10 L 319.17 260.10 L 319.67 260.10 L 320.17 260.10 L 320.67 260.10 L 321.17 260.10 L 321.67 260.10 L 322.17 260.10 L 322.67 260.10 L 323.17 260.10 L 323.67 260.10 L 324.17 260.10 L 324.67 260.10 L 325.18 260.10 L 325.68 260.10 L 326.18 260.10 L 326.68 260.10 L 327.18 260.10 L 327.68 260.10 L 328.18 260.10 L 328.68 260.10 L 329.18 260.10 L 329.68 260.10 L 330.18 260.10 L 330.68 260.10 L 331.18 260.10 L 331.68 260.10 L 332.18 260.10 L 332.68 260.10 L 333.18 260.10 L 333.68 260.10 L 334.18 260.10 L 334.68 260.10 L 335.19 260.10 L 335.69 260.10 L 336.19 260.10 L 336.69 260.10 L 337.19 260.10 L 337.69 260.10 L 338.19 260.10 L 338.69 260.10 L 339.19 260.10 L 339.69 260.10 L 340.19 260.10 L 340.69 260.10 L 341.19 260.10 L 341.69 260.10 L 342.19 260.10 L 342.69 260.10 L 343.19 260.10 L 343.69 260.10 L 344.19 260.10 L 344.69 260.10 L 345.20 260.10 L 345.70 260.10 L 346.20 260.10 L 346.70 260.10 L 347.20 260.10 L 347.70 260.10 L 348.20 260.10 L 348.70 260.10 L 349.20 260.10 L 349.70 260.10 L 350.20 260.10 L 350.70 260.10 L 351.20 260.10 L 351.70 260.10 L 352.20 260.10 L 352.70 260.10 L 353.20 260.10 L 353.70 260.10 L 354.20 260.10 L 354.70 260.10 L 355.21 260.10 L 355.71 260.10 L 356.21 260.10 L 356.71 260.10 L 357.21 260.10 L 357.71 260.10 L 358.21 260.10 L 358.71 260.10 L 359.21 260.10 L 359.71 260.10 L 360.21 260.10 L 360.71 260.10 L 361.21 260.10 L 361.71 260.10 L 362.21 260.10 L 362.71 260.10 L 363.21 260.10 L 363.71 260.10 L 364.21 260.10 L 364.71 260.10 L 365.22 260.10 L 365.72 260.10 L 366.22 260.10 L 366.72 260.10 L 367.22 260.10 L 367.72 260.10 L 368.22 260.10 L 368.72 260.10 L 369.22 260.10 L 369.72 260.10 L 370.22 260.10 L 370.72 260.10 L 371.22 260.10 L 371.72 260.10 L 372.22 260.10 L 372.72 260.10 L 373.22 260.10 L 373.72 260.10 L 374.22 260.10 L 374.72 260.10 L 375.23 260.10 L 375.73 260.10 L 376.23 260.10 L 376.73 260.10 L 377.23 260.10 L 377.73 260.10 L 378.23 260.10 L 378.73 260.10 L 379.23 260.10 L 379.73 260.10 L 380.23 260.10 L 380.73 260.10 L 381.23 260.10 L 381.73 260.10 L 382.23 260.10 L 382.73 260.10 L 383.23 260.10 L 383.73 260.10 L 384.23 260.10 L 384.73 260.10 L 385.24 260.10 L 385.74 260.10 L 386.24 260.10 L 386.74 260.10 L 387.24 260.10 L 387.74 260.10 L 388.24 260.10 L 388.74 260.10 L 389.24 260.10 L 389.74 260.10 L 390.24 260.10 L 390.74 260.10 L 391.24 260.10 L 391.74 260.10 L 392.24 260.10 L 392.74 260.10 L 393.24 260.10 L 393.74 260.10 L 394.24 260.10 L 394.74 260.10 L 395.25 260.10 L 395.75 260.10 L 396.25 260.10 L 396.75 260.10 L 397.25 260.10 L 397.75 260.10 L 398.25 260.10 L 398.75 260.10 L 399.25 260.10 L 399.75 260.10 L 400.25 260.10 L 400.75 260.10 L 401.25 260.10 L 401.75 260.10 L 402.25 260.10 L 402.75 260.10 L 403.25 260.10 L 403.75 260.10 L 404.25 260.10 L 404.75 260.10 L 405.26 260.10 L 405.76 260.10 L 406.26 260.10 L 406.76 260.10 L 407.26 260.10 L 407.76 260.10 L 408.26 260.10 L 408.76 260.10 L 409.26 260.10 L 409.76 260.10 L 410.26 260.10 L 410.76 260.10 L 411.26 260.10 L 411.76 260.10 L 412.26 260.10 L 412.76 260.10 L 413.26 260.10 L 413.76 260.10 L 414.26 260.10 L 414.76 260.10 L 415.27 260.10 L 415.77 260.10 L 416.27 260.10 L 416.77 260.10 L 417.27 260.10 L 417.77 260.10 L 418.27 260.10 L 418.77 260.10 L 419.27 260.10 L 419.77 260.10 L 420.27 260.10 L 420.77 260.10 L 421.27 260.10 L 421.77 260.10 L 422.27 260.10 L 422.77 260.10 L 423.27 260.10 L 423.77 260.10 L 424.27 260.10 L 424.77 260.10 L 425.28 260.10 L 425.78 260.10 L 426.28 260.10 L 426.78 260.10 L 427.28 260.10 L 427.78 260.10 L 428.28 260.10 L 428.78 260.10 L 429.28 260.10 L 429.78 260.10 L 430.28 260.10 L 430.78 260.10 L 431.28 260.10 L 431.78 260.10 L 432.28 260.10 L 432.78 260.10 L 433.28 260.10 L 433.78 260.10 L 434.28 260.10 L 434.78 260.10 L 435.29 260.10 L 435.79 260.10 L 436.29 260.10 L 436.79 260.10 L 437.29 260.10 L 437.79 260.10 L 438.29 260.10 L 438.79 260.10 L 439.29 260.10 L 439.79 260.10 L 440.29 260.10 L 440.79 260.10 L 441.29 260.10 L 441.79 260.10 L 442.29 260.10 L 442.79 260.10 L 443.29 260.10 L 443.79 260.10 L 444.29 260.10 L 444.79 260.10 L 445.30 260.10 L 445.80 260.10 L 446.30 260.10 L 446.80 260.10 L 447.30 260.10 L 447.80 260.10 L 448.30 260.10 L 448.80 260.10 L 449.30 260.10 L 449.80 260.10 L 450.30 260.10 L 450.80 260.10 L 451.30 260.10 L 451.80 260.10 L 452.30 260.10 L 452.80 260.10 L 453.30 260.10 L 453.80 260.10 L 454.30 260.10 L 454.80 260.10 L 455.31 260.10 L 455.81 260.10 L 456.31 260.10 L 456.81 260.10 L 457.31 260.10 L 457.81 260.10 L 458.31 260.10 L 458.81 260.10 L 459.31 260.10 L 459.81 260.10 L 460.31 260.10 L 460.81 260.10 L 461.31 260.10 L 461.81 260.10 L 462.31 260.10 L 462.81 260.10 L 463.31 260.10 L 463.81 260.10 L 464.31 260.10 L 464.81 260.10 L 465.32 260.10 L 465.82 260.10 L 466.32 260.10 L 466.82 260.10 L 467.32 260.10 L 467.82 260.10 L 468.32 260.10 L 468.82 260.10 L 469.32 260.10 L 469.82 260.10 L 470.32 260.10 L 470.82 260.10 L 471.32 260.10 L 471.82 260.10 L 472.32 260.10 L 472.82 260.10 L 473.32 260.10 L 473.82 260.10 L 474.32 260.10 L 474.82 260.10 L 475.33 260.10 L 475.83 260.10 L 476.33 260.10 L 476.83 260.10 L 477.33 260.10 L 477.83 260.10 L 478.33 260.10 L 478.83 260.10 L 479.33 260.10 L 479.83 260.10 L 480.33 260.10 L 480.83 260.10 L 481.33 260.10 L 481.83 260.10 L 482.33 260.10 L 482.83 260.10 L 483.33 260.10 L 483.83 260.10 L 484.33 260.10 L 484.83 260.10 L 485.34 260.10 L 485.84 260.10 L 486.34 260.10 L 486.84 260.10 L 487.34 260.10 L 487.84 260.10 L 488.34 260.10 L 488.84 260.10 L 489.34 260.10 L 489.84 260.10 L 490.34 260.10 L 490.84 260.10 L 491.34 260.10 L 491.84 260.10 L 492.34 260.10 L 492.84 260.10 L 493.34 260.10 L 493.84 260.10 L 494.34 260.10 L 494.84 260.10 L 495.35 260.10 L 495.85 260.10 L 496.35 260.10 L 496.85 260.10 L 497.35 260.10 L 497.85 260.10 L 498.35 260.10 L 498.85 260.10 L 499.35 260.10 L 499.85 260.10 L 500.35 260.10 L 500.85 260.10 L 501.35 260.10 L 501.85 260.10 L 502.35 260.10 L 502.85 260.10 L 503.35 260.10 L 503.85 260.10 L 504.35 260.10 L 504.85 260.10 L 505.36 260.10 L 505.86 260.10 L 506.36 260.10 L 506.86 260.10 L 507.36 260.10 L 507.86 260.10 L 508.36 260.10 L 508.86 260.10 L 509.36 260.10 L 509.86 260.10 L 510.36 260.10 L 510.86 260.10 L 511.36 260.10 L 511.86 260.10 L 512.36 260.10 L 512.86 260.10 L 513.36 260.10 L 513.86 260.10 L 514.36 260.10 L 514.86 260.10 L 515.37 260.10 L 515.87 260.10 L 516.37 260.10 L 516.87 260.10 L 517.37 260.10 L 517.87 260.10 L 518.37 260.10 L 518.87 260.10 L 519.37 260.10 L 519.87 260.10 L 520.37 260.10 L 520.87 260.10 L 521.37 260.10 L 521.87 260.10 L 522.37 260.10 L 522.87 260.10 L 523.37 260.10 L 523.87 260.10 L 524.37 260.10 L 524.87 260.10 L 525.38 260.10 L 525.88 260.10 L 526.38 260.10 L 526.88 260.10 L 527.38 260.10 L 527.88 260.10 L 528.38 260.10 L 528.88 260.10 L 529.38 260.10 L 529.88 260.10 L 530.38 260.10 L 530.88 260.10 L 531.38 260.10 L 531.88 260.10 L 532.38 260.10 L 532.88 260.10 L 533.38 260.10 L 533.88 260.10 L 534.38 260.10 L 534.88 260.10 L 535.39 260.10 L 535.89 260.10 L 536.39 260.10 L 536.89 260.10 L 537.39 260.10 L 537.89 260.10 L 538.39 260.10 L 538.89 260.10 L 539.39 260.10 L 539.89 260.10 L 540.39 260.10 L 540.89 260.10 L 541.39 260.10 L 541.89 260.10 L 542.39 260.10 L 542.89 260.10 L 543.39 260.10 L 543.89 260.10 L 544.39 260.10 L 544.89 260.10 L 545.40 260.10 L 545.90 260.10 L 546.40 260.10 L 546.90 260.10 L 547.40 260.10 L 547.90 260.10 L 548.40 260.10 L 548.90 260.10 L 549.40 260.10 L 549.90 260.10 L 550.40 260.10 L 550.90 260.10 L 551.40 260.10 L 551.90 260.10 L 552.40 260.10 L 552.90 260.10 L 553.40 260.10 L 553.90 260.10 L 554.40 260.10 L 554.90 260.10 L 555.41 260.10 L 555.91 260.10 L 556.41 260.10 L 556.91 260.10 L 557.41 260.10 L 557.91 260.10 L 558.41 260.10 L 558.91 260.10 L 559.41 260.10 L 559.91 260.10 L 560.41 260.10 L 560.91 260.10 L 561.41 260.10 L 561.91 260.10 L 562.41 260.10 L 562.91 260.10 L 563.41 260.10 L 563.91 260.10 L 564.41 260.10 L 564.91 260.10 L 565.42 260.10 L 565.92 260.10 L 566.42 260.10 L 566.92 260.10 L 567.42 260.10 L 567.92 260.10 L 568.42 260.10 L 568.92 260.10 L 569.42 260.10 L 569.92 260.10 L 570.42 260.10 L 570.92 260.10 L 571.42 260.10 L 571.92 260.10 L 572.42 260.10 L 572.92 260.10 L 573.42 260.10 L 573.92 260.10 L 574.42 260.10 L 574.92 260.10 L 575.43 260.10 L 575.93 260.10 L 576.43 260.10 L 576.93 260.10 L 577.43 260.10 L 577.93 260.10 L 578.43 260.10 L 578.93 260.10 L 579.43 260.10 L 579.93 260.10 L 580.43 260.10 L 580.93 260.10 L 581.43 260.10 L 581.93 260.10 L 582.43 260.10 L 582.93 260.10 L 583.43 260.10 L 583.93 260.10 L 584.43 260.10 L 584.93 260.10 L 585.44 260.10 L 585.94 260.10 L 586.44 260.10 L 586.94 260.10 L 587.44 260.10 L 587.94 260.10 L 588.44 260.10 L 588.94 260.10 L 589.44 260.10 L 589.94 260.10 L 590.44 260.10 L 590.94 260.10 L 591.44 260.10 L 591.94 260.10 L 592.44 260.10 L 592.94 260.10 L 593.44 260.10 L 593.94 260.10 L 594.44 260.10 L 594.94 260.10 L 595.45 260.10 L 595.95 260.10 L 596.45 260.10 L 596.95 260.10 L 597.45 260.10 L 597.95 260.10 L 598.45 260.10 L 598.95 260.10 L 599.45 260.10 L 599.95 260.10 L 600.45 260.10 L 600.95 260.10 L 601.45 260.10 L 601.95 260.10 L 602.45 260.10 L 602.95 260.10 L 603.45 260.10 L 603.95 260.10 L 604.45 260.10 L 604.95 260.10 L 605.46 260.10 L 605.96 260.10 L 606.46 260.10 L 606.96 260.10 L 607.46 260.10 L 607.96 260.10 L 608.46 260.10 L 608.96 260.10 L 609.46 260.10 L 609.96 260.10 L 610.46 260.10 L 610.96 260.10 L 611.46 260.10 L 611.96 260.10 L 612.46 260.10 L 612.96 260.10 L 613.46 260.10 L 613.96 260.10 L 614.46 260.10 L 614.96 260.10 L 615.47 260.10 L 615.97 260.10 L 616.47 260.10 L 616.97 260.10 L 617.47 260.10 L 617.97 260.10 L 618.47 260.10 L 618.97 260.10 L 619.47 260.10 L 619.97 260.10 L 620.47 260.10 L 620.97 260.10 L 621.47 260.10 L 621.97 260.10 L 622.47 260.10 L 622.97 260.10 L 623.47 260.10 L 623.97 260.10 L 624.47 260.10 L 624.97 260.10 L 625.48 260.10 L 625.98 260.10 L 626.48 260.10 L 626.98 260.10 L 627.48 260.10 L 627.98 260.10 L 628.48 260.10 L 628.98 260.10 L 629.48 260.10 L 629.98 260.10 L 630.48 260.10 L 630.98 260.10 L 631.48 260.10 L 631.98 260.10 L 632.48 260.10 L 632.98 260.10 L 633.48 260.10 L 633.98 260.10 L 634.48 260.10 L 634.98 260.10 L 635.49 260.10 L 635.99 260.10 L 636.49 260.10 L 636.99 260.10 L 637.49 260.10 L 637.99 260.10 L 638.49 260.10 L 638.99 260.10 L 639.49 260.10 L 639.99 260.10 L 640.49 260.10 L 640.99 260.10 L 641.49 260.10 L 641.99 260.10 L 642.49 260.10 L 642.99 260.10 L 643.49 260.10 L 643.99 260.10 L 644.49 260.10 L 644.99 260.10 L 645.50 260.10 L 646.00 260.10 L 646.50 260.10 L 647.00 260.10 L 647.50 260.10 L 648.00 260.10 L 648.50 260.10 L 649.00 260.10 L 649.50 260.10 L 650.00 260.10" /><text  class="poloto_labels poloto_text poloto_title" x="400" y="37.5" >bspline example 3 b</text><text  class="poloto_labels poloto_text poloto_xname" x="400" y="481.25" >x</text><text  class="poloto_labels poloto_text poloto_yname" transform="rotate(-90,37.5,250)" x="37.5" y="250" >y</text><text  class="poloto_tick_labels poloto_text" dominant-baseline="middle" text-anchor="start" x="150" y="70" ></text><line  class="poloto_axis_lines" stroke="black" x1="150" x2="144" y1="385.3832720362742" y2="385.3832720362742" /><text  class="poloto_tick_labels poloto_text" dominant-baseline="middle" text-anchor="end" x="135" y="385.3832720362742" >-30</text><line  class="poloto_axis_lines" stroke="black" x1="150" x2="144" y1="343.6211921399147" y2="343.6211921399147" /><text  class="poloto_tick_labels poloto_text" dominant-baseline="middle" text-anchor="end" x="135" y="343.6211921399147" >-20</text><line  class="poloto_axis_lines" stroke="black" x1="150" x2="144" y1="301.8591122435552" y2="301.8591122435552" /><text  class="poloto_tick_labels poloto_text" dominant-baseline="middle" text-anchor="end" x="135" y="301.8591122435552" >-10</text><line  class="poloto_axis_lines" stroke="black" x1="150" x2="144" y1="260.09703234719575" y2="260.09703234719575" /><text  class="poloto_tick_labels poloto_text" dominant-baseline="middle" text-anchor="end" x="135" y="260.09703234719575" >0</text><line  class="poloto_axis_lines" stroke="black" x1="150" x2="144" y1="218.33495245083623" y2="218.33495245083623" /><text  class="poloto_tick_labels poloto_text" dominant-baseline="middle" text-anchor="end" x="135" y="218.33495245083623" >10</text><line  class="poloto_axis_lines" stroke="black" x1="150" x2="144" y1="176.57287255447676" y2="176.57287255447676" /><text  class="poloto_tick_labels poloto_text" dominant-baseline="middle" text-anchor="end" x="135" y="176.57287255447676" >20</text><line  class="poloto_axis_lines" stroke="black" x1="150" x2="144" y1="134.81079265811724" y2="134.81079265811724" /><text  class="poloto_tick_labels poloto_text" dominant-baseline="middle" text-anchor="end" x="135" y="134.81079265811724" >30</text><text  class="poloto_tick_labels poloto_text" dominant-baseline="middle" text-anchor="start" x="440.00000000000006" y="70" ></text><line  class="poloto_axis_lines" stroke="black" x1="150" x2="150" y1="400" y2="405" /><text  class="poloto_tick_labels poloto_text" dominant-baseline="start" text-anchor="middle" x="150" y="430" >0</text><line  class="poloto_axis_lines" stroke="black" x1="221.5000711880439" x2="221.5000711880439" y1="400" y2="405" /><text  class="poloto_tick_labels poloto_text" dominant-baseline="start" text-anchor="middle" x="221.5000711880439" y="430" >1</text><line  class="poloto_axis_lines" stroke="black" x1="293.0001423760878" x2="293.0001423760878" y1="400" y2="405" /><text  class="poloto_tick_labels poloto_text" dominant-baseline="start" text-anchor="middle" x="293.0001423760878" y="430" >2</text><line  class="poloto_axis_lines" stroke="black" x1="364.50021356413174" x2="364.50021356413174" y1="400" y2="405" /><text  class="poloto_tick_labels poloto_text" dominant-baseline="start" text-anchor="middle" x="364.50021356413174" y="430" >3</text><line  class="poloto_axis_lines" stroke="black" x1="436.0002847521756" x2="436.0002847521756" y1="400" y2="405" /><text  class="poloto_tick_labels poloto_text" dominant-baseline="start" text-anchor="middle" x="436.0002847521756" y="430" >4</text><line  class="poloto_axis_lines" stroke="black" x1="507.5003559402195" x2="507.5003559402195" y1="400" y2="405" /><text  class="poloto_tick_labels poloto_text" dominant-baseline="start" text-anchor="middle" x="507.5003559402195" y="430" >5</text><line  class="poloto_axis_lines" stroke="black" x1="579.0004271282635" x2="579.0004271282635" y1="400" y2="405" /><text  class="poloto_tick_labels poloto_text" dominant-baseline="start" text-anchor="middle" x="579.0004271282635" y="430" >6</text><path  stroke="black" fill="none" class="poloto_axis_lines" style="stroke-dasharray:7.150007118804391;stroke-dashoffset:-0;" d=" M 150 400 L 650 400" /><path  stroke="black" fill="none" class="poloto_axis_lines" style="stroke-dasharray:10.440519974089872;stroke-dashoffset:-14.616727963725808;" d=" M 150 400 L 150 100" /></svg>