<svg class="poloto" width="800" height="500" viewBox="0 0 800 500" xmlns="http://www.w3.org/2000/svg"><style>.poloto{stroke-linecap:round;stroke-linejoin:round;font-family:Roboto,sans-serif;font-size:16px;}.poloto_background{fill:AliceBlue;}.poloto_scatter{stroke-width:7}.poloto_tick_line{stroke:gray;stroke-width:0.5}.poloto_line{stroke-width:2}.poloto_text{fill: black;}.poloto_axis_lines{stroke: black;stroke-width:3;fill:none;stroke-dasharray:none}.poloto_title{font-size:24px;dominant-baseline:start;text-anchor:middle;}.poloto_xname{font-size:24px;dominant-baseline:start;text-anchor:middle;}.poloto_yname{font-size:24px;dominant-baseline:start;text-anchor:middle;}.poloto_legend_text{font-size:20px;dominant-baseline:middle;text-anchor:start;}.poloto0stroke{stroke:blue;}.poloto1stroke{stroke:red;}.poloto2stroke{stroke:green;}.poloto3stroke{stroke:gold;}.poloto4stroke{stroke:aqua;}.poloto5stroke{stroke:lime;}.poloto6stroke{stroke:orange;}.poloto7stroke{stroke:chocolate;}.poloto0fill{fill:blue;}.poloto1fill{fill:red;}.poloto2fill{fill:green;}.poloto3fill{fill:gold;}.poloto4fill{fill:aqua;}.poloto5fill{fill:lime;}.poloto6fill{fill:orange;}.poloto7fill{fill:chocolate;}</style><circle  r="1e5" class="poloto_background" /><text  class="poloto_text poloto_legend_text" x="675" y="100" >knot</text><line  class="poloto_scatter poloto_legend_icon poloto0stroke poloto0legend" stroke="black" x1="685" x2="685" y1="81.25" y2="81.25" /><path  class="poloto_scatter poloto0stroke" d=" M 316.83 349.95 h 0 M 483.67 349.95 h 0" /><text  class="poloto_text poloto_legend_text" x="675" y="150" >curve</text><line  class="poloto_line poloto_legend_icon poloto1stroke poloto1legend" stroke="black" x1="680" x2="730" y1="131.25" y2="131.25" /><path  class="poloto_line poloto1stroke" fill="none" stroke="black" d=" M 150.00 400.00 L 150.50 399.70 L 151.00 399.40 L 151.50 399.10 L 152.00 398.80 L 152.50 398.50 L 153.00 398.20 L 153.50 397.90 L 154.00 397.60 L 154.50 397.30 L 155.01 397.00 L 155.51 396.70 L 156.01 396.40 L 156.51 396.10 L 157.01 395.80 L 157.51 395.50 L 158.01 395.20 L 158.51 394.89 L 159.01 394.59 L 159.51 394.29 L 160.01 393.99 L 160.51 393.69 L 161.01 393.39 L 161.51 393.09 L 162.01 392.79 L 162.51 392.49 L 163.01 392.19 L 163.51 391.89 L 164.01 391.59 L 164.51 391.29 L 165.02 390.99 L 165.52 390.69 L 166.02 390.39 L 166.52 390.09 L 167.02 389.79 L 167.52 389.49 L 168.02 389.19 L 168.52 388.89 L 169.02 388.59 L 169.52 388.29 L 170.02 387.99 L 170.52 387.69 L 171.02 387.39 L 171.52 387.09 L 172.02 386.79 L 172.52 386.49 L 173.02 386.19 L 173.52 385.89 L 174.02 385.59 L 174.52 385.29 L 175.03 384.98 L 175.53 384.68 L 176.03 384.38 L 176.53 384.08 L 177.03 383.78 L 177.53 383.48 L 178.03 383.18 L 178.53 382.88 L 179.03 382.58 L 179.53 382.28 L 180.03 381.98 L 180.53 381.68 L 181.03 381.38 L 181.53 381.08 L 182.03 380.78 L 182.53 380.48 L 183.03 380.18 L 183.53 379.88 L 184.03 379.58 L 184.53 379.28 L 185.04 378.98 L 185.54 378.68 L 186.04 378.38 L 186.54 378.08 L 187.04 377.78 L 187.54 377.48 L 188.04 377.18 L 188.54 376.88 L 189.04 376.58 L 189.54 376.28 L 190.04 375.98 L 190.54 375.68 L 191.04 375.38 L 191.54 375.08 L 192.04 374.77 L 192.54 374.47 L 193.04 374.17 L 193.54 373.87 L 194.04 373.57 L 194.54 373.27 L 195.05 372.97 L 195.55 372.67 L 196.05 372.37 L 196.55 372.07 L 197.05 371.77 L 197.55 371.47 L 198.05 371.17 L 198.55 370.87 L 199.05 370.57 L 199.55 370.27 L 200.05 369.97 L 200.55 369.67 L 201.05 369.37 L 201.55 369.07 L 202.05 368.77 L 202.55 368.47 L 203.05 368.17 L 203.55 367.87 L 204.05 367.57 L 204.55 367.27 L 205.06 366.97 L 205.56 366.67 L 206.06 366.37 L 206.56 366.07 L 207.06 365.77 L 207.56 365.47 L 208.06 365.17 L 208.56 364.86 L 209.06 364.56 L 209.56 364.26 L 210.06 363.96 L 210.56 363.66 L 211.06 363.36 L 211.56 363.06 L 212.06 362.76 L 212.56 362.46 L 213.06 362.16 L 213.56 361.86 L 214.06 361.56 L 214.56 361.26 L 215.07 360.96 L 215.57 360.66 L 216.07 360.36 L 216.57 360.06 L 217.07 359.76 L 217.57 359.46 L 218.07 359.16 L 218.57 358.86 L 219.07 358.56 L 219.57 358.26 L 220.07 357.96 L 220.57 357.66 L 221.07 357.36 L 221.57 357.06 L 222.07 356.76 L 222.57 356.46 L 223.07 356.16 L 223.57 355.86 L 224.07 355.56 L 224.57 355.26 L 225.08 354.95 L 225.58 354.65 L 226.08 354.35 L 226.58 354.05 L 227.08 353.75 L 227.58 353.45 L 228.08 353.15 L 228.58 352.85 L 229.08 352.55 L 229.58 352.25 L 230.08 351.95 L 230.58 351.65 L 231.08 351.35 L 231.58 351.05 L 232.08 350.75 L 232.58 350.45 L 233.08 350.15 L 233.58 349.85 L 234.08 349.55 L 234.58 349.25 L 235.09 348.95 L 235.59 348.65 L 236.09 348.35 L 236.59 348.05 L 237.09 347.75 L 237.59 347.45 L 238.09 347.15 L 238.59 346.85 L 239.09 346.55 L 239.59 346.25 L 240.09 345.95 L 240.59 345.65 L 241.09 345.35 L 241.59 345.05 L 242.09 344.74 L 242.59 344.44 L 243.09 344.14 L 243.59 343.84 L 244.09 343.54 L 244.59 343.24 L 245.10 342.94 L 245.60 342.64 L 246.10 342.34 L 246.60 342.04 L 247.10 341.74 L 247.60 341.44 L 248.10 341.14 L 248.60 340.84 L 249.10 340.54 L 249.60 340.24 L 250.10 339.94 L 250.60 339.64 L 251.10 339.34 L 251.60 339.04 L 252.10 338.74 L 252.60 338.44 L 253.10 338.14 L 253.60 337.84 L 254.10 337.54 L 254.60 337.24 L 255.11 336.94 L 255.61 336.64 L 256.11 336.34 L 256.61 336.04 L 257.11 335.74 L 257.61 335.44 L 258.11 335.14 L 258.61 334.83 L 259.11 334.53 L 259.61 334.23 L 260.11 333.93 L 260.61 333.63 L 261.11 333.33 L 261.61 333.03 L 262.11 332.73 L 262.61 332.43 L 263.11 332.13 L 263.61 331.83 L 264.11 331.53 L 264.61 331.23 L 265.12 330.93 L 265.62 330.63 L 266.12 330.33 L 266.62 330.03 L 267.12 329.73 L 267.62 329.43 L 268.12 329.13 L 268.62 328.83 L 269.12 328.53 L 269.62 328.23 L 270.12 327.93 L 270.62 327.63 L 271.12 327.33 L 271.62 327.03 L 272.12 326.73 L 272.62 326.43 L 273.12 326.13 L 273.62 325.83 L 274.12 325.53 L 274.62 325.23 L 275.13 324.92 L 275.63 324.62 L 276.13 324.32 L 276.63 324.02 L 277.13 323.72 L 277.63 323.42 L 278.13 323.12 L 278.63 322.82 L 279.13 322.52 L 279.63 322.22 L 280.13 321.92 L 280.63 321.62 L 281.13 321.32 L 281.63 321.02 L 282.13 320.72 L 282.63 320.42 L 283.13 320.12 L 283.63 319.82 L 284.13 319.52 L 284.63 319.22 L 285.14 318.92 L 285.64 318.62 L 286.14 318.32 L 286.64 318.02 L 287.14 317.72 L 287.64 317.42 L 288.14 317.12 L 288.64 316.82 L 289.14 316.52 L 289.64 316.22 L 290.14 315.92 L 290.64 315.62 L 291.14 315.32 L 291.64 315.02 L 292.14 314.71 L 292.64 314.41 L 293.14 314.11 L 293.64 313.81 L 294.14 313.51 L 294.64 313.21 L 295.15 312.91 L 295.65 312.61 L 296.15 312.31 L 296.65 312.01 L 297.15 311.71 L 297.65 311.41 L 298.15 311.11 L 298.65 310.81 L 299.15 310.51 L 299.65 310.21 L 300.15 309.91 L 300.65 309.61 L 301.15 309.31 L 301.65 309.01 L 302.15 308.71 L 302.65 308.41 L 303.15 308.11 L 303.65 307.81 L 304.15 307.51 L 304.65 307.21 L 305.16 306.91 L 305.66 306.61 L 306.16 306.31 L 306.66 306.01 L 307.16 305.71 L 307.66 305.41 L 308.16 305.11 L 308.66 304.80 L 309.16 304.50 L 309.66 304.20 L 310.16 303.90 L 310.66 303.60 L 311.16 303.30 L 311.66 303.00 L 312.16 302.70 L 312.66 302.40 L 313.16 302.10 L 313.66 301.80 L 314.16 301.50 L 314.66 301.20 L 315.17 300.90 L 315.67 300.60 L 316.17 300.30 L 316.67 300.00 L 317.17 299.70 L 317.67 299.40 L 318.17 299.10 L 318.67 298.80 L 319.17 298.50 L 319.67 298.20 L 320.17 297.90 L 320.67 297.60 L 321.17 297.30 L 321.67 297.00 L 322.17 296.70 L 322.67 296.40 L 323.17 296.10 L 323.67 295.80 L 324.17 295.50 L 324.67 295.20 L 325.18 294.89 L 325.68 294.59 L 326.18 294.29 L 326.68 293.99 L 327.18 293.69 L 327.68 293.39 L 328.18 293.09 L 328.68 292.79 L 329.18 292.49 L 329.68 292.19 L 330.18 291.89 L 330.68 291.59 L 331.18 291.29 L 331.68 290.99 L 332.18 290.69 L 332.68 290.39 L 333.18 290.09 L 333.68 289.79 L 334.18 289.49 L 334.68 289.19 L 335.19 288.89 L 335.69 288.59 L 336.19 288.29 L 336.69 287.99 L 337.19 287.69 L 337.69 287.39 L 338.19 287.09 L 338.69 286.79 L 339.19 286.49 L 339.69 286.19 L 340.19 285.89 L 340.69 285.59 L 341.19 285.29 L 341.69 284.98 L 342.19 284.68 L 342.69 284.38 L 343.19 284.08 L 343.69 283.78 L 344.19 283.48 L 344.69 283.18 L 345.20 282.88 L 345.70 282.58 L 346.20 282.28 L 346.70 281.98 L 347.20 281.68 L 347.70 281.38 L 348.20 281.08 L 348.70 280.78 L 349.20 280.48 L 349.70 280.18 L 350.20 279.88 L 350.70 279.58 L 351.20 279.28 L 351.70 278.98 L 352.20 278.68 L 352.70 278.38 L 353.20 278.08 L 353.70 277.78 L 354.20 277.48 L 354.70 277.18 L 355.21 276.88 L 355.71 276.58 L 356.21 276.28 L 356.71 275.98 L 357.21 275.68 L 357.71 275.38 L 358.21 275.08 L 358.71 274.77 L 359.21 274.47 L 359.71 274.17 L 360.21 273.87 L 360.71 273.57 L 361.21 273.27 L 361.71 272.97 L 362.21 272.67 L 362.71 272.37 L 363.21 272.07 L 363.71 271.77 L 364.21 271.47 L 364.71 271.17 L 365.22 270.87 L 365.72 270.57 L 366.22 270.27 L 366.72 269.97 L 367.22 269.67 L 367.72 269.37 L 368.22 269.07 L 368.72 268.77 L 369.22 268.47 L 369.72 268.17 L 370.22 267.87 L 370.72 267.57 L 371.22 267.27 L 371.72 266.97 L 372.22 266.67 L 372.72 266.37 L 373.22 266.07 L 373.72 265.77 L 374.22 265.47 L 374.72 265.17 L 375.23 264.86 L 375.73 264.56 L 376.23 264.26 L 376.73 263.96 L 377.23 263.66 L 377.73 263.36 L 378.23 263.06 L 378.73 262.76 L 379.23 262.46 L 379.73 262.16 L 380.23 261.86 L 380.73 261.56 L 381.23 261.26 L 381.73 260.96 L 382.23 260.66 L 382.73 260.36 L 383.23 260.06 L 383.73 259.76 L 384.23 259.46 L 384.73 259.16 L 385.24 258.86 L 385.74 258.56 L 386.24 258.26 L 386.74 257.96 L 387.24 257.66 L 387.74 257.36 L 388.24 257.06 L 388.74 256.76 L 389.24 256.46 L 389.74 256.16 L 390.24 255.86 L 390.74 255.56 L 391.24 255.26 L 391.74 254.95 L 392.24 254.65 L 392.74 254.35 L 393.24 254.05 L 393.74 253.75 L 394.24 253.45 L 394.74 253.15 L 395.25 252.85 L 395.75 252.55 L 396.25 252.25 L 396.75 251.95 L 397.25 251.65 L 397.75 251.35 L 398.25 251.05 L 398.75 250.75 L 399.25 250.45 L 399.75 250.15 L 400.25 249.85 L 400.75 249.55 L 401.25 249.25 L 401.75 248.95 L 402.25 248.65 L 402.75 248.35 L 403.25 248.05 L 403.75 247.75 L 404.25 247.45 L 404.75 247.15 L 405.26 246.85 L 405.76 246.55 L 406.26 246.25 L 406.76 245.95 L 407.26 245.65 L 407.76 245.35 L 408.26 245.05 L 408.76 244.74 L 409.26 244.44 L 409.76 244.14 L 410.26 243.84 L 410.76 243.54 L 411.26 243.24 L 411.76 242.94 L 412.26 242.64 L 412.76 242.34 L 413.26 242.04 L 413.76 241.74 L 414.26 241.44 L 414.76 241.14 L 415.27 240.84 L 415.77 240.54 L 416.27 240.24 L 416.77 239.94 L 417.27 239.64 L 417.77 239.34 L 418.27 239.04 L 418.77 238.74 L 419.27 238.44 L 419.77 238.14 L 420.27 237.84 L 420.77 237.54 L 421.27 237.24 L 421.77 236.94 L 422.27 236.64 L 422.77 236.34 L 423.27 236.04 L 423.77 235.74 L 424.27 235.44 L 424.77 235.14 L 425.28 234.83 L 425.78 234.53 L 426.28 234.23 L 426.78 233.93 L 427.28 233.63 L 427.78 233.33 L 428.28 233.03 L 428.78 232.73 L 429.28 232.43 L 429.78 232.13 L 430.28 231.83 L 430.78 231.53 L 431.28 231.23 L 431.78 230.93 L 432.28 230.63 L 432.78 230.33 L 433.28 230.03 L 433.78 229.73 L 434.28 229.43 L 434.78 229.13 L 435.29 228.83 L 435.79 228.53 L 436.29 228.23 L 436.79 227.93 L 437.29 227.63 L 437.79 227.33 L 438.29 227.03 L 438.79 226.73 L 439.29 226.43 L 439.79 226.13 L 440.29 225.83 L 440.79 225.53 L 441.29 225.23 L 441.79 224.92 L 442.29 224.62 L 442.79 224.32 L 443.29 224.02 L 443.79 223.72 L 444.29 223.42 L 444.79 223.12 L 445.30 222.82 L 445.80 222.52 L 446.30 222.22 L 446.80 221.92 L 447.30 221.62 L 447.80 221.32 L 448.30 221.02 L 448.80 220.72 L 449.30 220.42 L 449.80 220.12 L 450.30 219.82 L 450.80 219.52 L 451.30 219.22 L 451.80 218.92 L 452.30 218.62 L 452.80 218.32 L 453.30 218.02 L 453.80 217.72 L 454.30 217.42 L 454.80 217.12 L 455.31 216.82 L 455.81 216.52 L 456.31 216.22 L 456.81 215.92 L 457.31 215.62 L 457.81 215.32 L 458.31 215.02 L 458.81 214.71 L 459.31 214.41 L 459.81 214.11 L 460.31 213.81 L 460.81 213.51 L 461.31 213.21 L 461.81 212.91 L 462.31 212.61 L 462.81 212.31 L 463.31 212.01 L 463.81 211.71 L 464.31 211.41 L 464.81 211.11 L 465.32 210.81 L 465.82 210.51 L 466.32 210.21 L 466.82 209.91 L 467.32 209.61 L 467.82 209.31 L 468.32 209.01 L 468.82 208.71 L 469.32 208.41 L 469.82 208.11 L 470.32 207.81 L 470.82 207.51 L 471.32 207.21 L 471.82 206.91 L 472.32 206.61 L 472.82 206.31 L 473.32 206.01 L 473.82 205.71 L 474.32 205.41 L 474.82 205.11 L 475.33 204.80 L 475.83 204.50 L 476.33 204.20 L 476.83 203.90 L 477.33 203.60 L 477.83 203.30 L 478.33 203.00 L 478.83 202.70 L 479.33 202.40 L 479.83 202.10 L 480.33 201.80 L 480.83 201.50 L 481.33 201.20 L 481.83 200.90 L 482.33 200.60 L 482.83 200.30 L 483.33 200.00 L 483.83 199.70 L 484.33 199.40 L 484.83 199.10 L 485.34 198.80 L 485.84 198.50 L 486.34 198.20 L 486.84 197.90 L 487.34 197.60 L 487.84 197.30 L 488.34 197.00 L 488.84 196.70 L 489.34 196.40 L 489.84 196.10 L 490.34 195.80 L 490.84 195.50 L 491.34 195.20 L 491.84 194.89 L 492.34 194.59 L 492.84 194.29 L 493.34 193.99 L 493.84 193.69 L 494.34 193.39 L 494.84 193.09 L 495.35 192.79 L 495.85 192.49 L 496.35 192.19 L 496.85 191.89 L 497.35 191.59 L 497.85 191.29 L 498.35 190.99 L 498.85 190.69 L 499.35 190.39 L 499.85 190.09 L 500.35 189.79 L 500.85 189.49 L 501.35 189.19 L 501.85 188.89 L 502.35 188.59 L 502.85 188.29 L 503.35 187.99 L 503.85 187.69 L 504.35 187.39 L 504.85 187.09 L 505.36 186.79 L 505.86 186.49 L 506.36 186.19 L 506.86 185.89 L 507.36 185.59 L 507.86 185.29 L 508.36 184.99 L 508.86 184.68 L 509.36 184.38 L 509.86 184.08 L 510.36 183.78 L 510.86 183.48 L 511.36 183.18 L 511.86 182.88 L 512.36 182.58 L 512.86 182.28 L 513.36 181.98 L 513.86 181.68 L 514.36 181.38 L 514.86 181.08 L 515.37 180.78 L 515.87 180.48 L 516.37 180.18 L 516.87 179.88 L 517.37 179.58 L 517.87 179.28 L 518.37 178.98 L 518.87 178.68 L 519.37 178.38 L 519.87 178.08 L 520.37 177.78 L 520.87 177.48 L 521.37 177.18 L 521.87 176.88 L 522.37 176.58 L 522.87 176.28 L 523.37 175.98 L 523.87 175.68 L 524.37 175.38 L 524.87 175.08 L 525.38 174.77 L 525.88 174.47 L 526.38 174.17 L 526.88 173.87 L 527.38 173.57 L 527.88 173.27 L 528.38 172.97 L 528.88 172.67 L 529.38 172.37 L 529.88 172.07 L 530.38 171.77 L 530.88 171.47 L 531.38 171.17 L 531.88 170.87 L 532.38 170.57 L 532.88 170.27 L 533.38 169.97 L 533.88 169.67 L 534.38 169.37 L 534.88 169.07 L 535.39 168.77 L 535.89 168.47 L 536.39 168.17 L 536.89 167.87 L 537.39 167.57 L 537.89 167.27 L 538.39 166.97 L 538.89 166.67 L 539.39 166.37 L 539.89 166.07 L 540.39 165.77 L 540.89 165.47 L 541.39 165.17 L 541.89 164.86 L 542.39 164.56 L 542.89 164.26 L 543.39 163.96 L 543.89 163.66 L 544.39 163.36 L 544.89 163.06 L 545.40 162.76 L 545.90 162.46 L 546.40 162.16 L 546.90 161.86 L 547.40 161.56 L 547.90 161.26 L 548.40 160.96 L 548.90 160.66 L 549.40 160.36 L 549.90 160.06 L 550.40 159.76 L 550.90 159.46 L 551.40 159.16 L 551.90 158.86 L 552.40 158.56 L 552.90 158.26 L 553.40 157.96 L 553.90 157.66 L 554.40 157.36 L 554.90 157.06 L 555.41 156.76 L 555.91 156.46 L 556.41 156.16 L 556.91 155.86 L 557.41 155.56 L 557.91 155.26 L 558.41 154.95 L 558.91 154.65 L 559.41 154.35 L 559.91 154.05 L 560.41 153.75 L 560.91 153.45 L 561.41 153.15 L 561.91 152.85 L 562.41 152.55 L 562.91 152.25 L 563.41 151.95 L 563.91 151.65 L 564.41 151.35 L 564.91 151.05 L 565.42 150.75 L 565.92 150.45 L 566.42 150.15 L 566.92 149.85 L 567.42 149.55 L 567.92 149.25 L 568.42 148.95 L 568.92 148.65 L 569.42 148.35 L 569.92 148.05 L 570.42 147.75 L 570.92 147.45 L 571.42 147.15 L 571.92 146.85 L 572.42 146.55 L 572.92 146.25 L 573.42 145.95 L 573.92 145.65 L 574.42 145.35 L 574.92 145.05 L 575.43 144.74 L 575.93 144.44 L 576.43 144.14 L 576.93 143.84 L 577.43 143.54 L 577.93 143.24 L 578.43 142.94 L 578.93 142.64 L 579.43 142.34 L 579.93 142.04 L 580.43 141.74 L 580.93 141.44 L 581.43 141.14 L 581.93 140.84 L 582.43 140.54 L 582.93 140.24 L 583.43 139.94 L 583.93 139.64 L 584.43 139.34 L 584.93 139.04 L 585.44 138.74 L 585.94 138.44 L 586.44 138.14 L 586.94 137.84 L 587.44 137.54 L 587.94 137.24 L 588.44 136.94 L 588.94 136.64 L 589.44 136.34 L 589.94 136.04 L 590.44 135.74 L 590.94 135.44 L 591.44 135.14 L 591.94 134.83 L 592.44 134.53 L 592.94 134.23 L 593.44 133.93 L 593.94 133.63 L 594.44 133.33 L 594.94 133.03 L 595.45 132.73 L 595.95 132.43 L 596.45 132.13 L 596.95 131.83 L 597.45 131.53 L 597.95 131.23 L 598.45 130.93 L 598.95 130.63 L 599.45 130.33 L 599.95 130.03 L 600.45 129.73 L 600.95 129.43 L 601.45 129.13 L 601.95 128.83 L 602.45 128.53 L 602.95 128.23 L 603.45 127.93 L 603.95 127.63 L 604.45 127.33 L 604.95 127.03 L 605.46 126.73 L 605.96 126.43 L 606.46 126.13 L 606.96 125.83 L 607.46 125.53 L 607.96 125.23 L 608.46 124.92 L 608.96 124.62 L 609.46 124.32 L 609.96 124.02 L 610.46 123.72 L 610.96 123.42 L 611.46 123.12 L 611.96 122.82 L 612.46 122.52 L 612.96 122.22 L 613.46 121.92 L 613.96 121.62 L 614.46 121.32 L 614.96 121.02 L 615.47 120.72 L 615.97 120.42 L 616.47 120.12 L 616.97 119.82 L 617.47 119.52 L 617.97 119.22 L 618.47 118.92 L 618.97 118.62 L 619.47 118.32 L 619.97 118.02 L 620.47 117.72 L 620.97 117.42 L 621.47 117.12 L 621.97 116.82 L 622.47 116.52 L 622.97 116.22 L 623.47 115.92 L 623.97 115.62 L 624.47 115.32 L 624.97 115.02 L 625.48 114.71 L 625.98 114.41 L 626.48 114.11 L 626.98 113.81 L 627.48 113.51 L 627.98 113.21 L 628.48 112.91 L 628.98 112.61 L 629.48 112.31 L 629.98 112.01 L 630.48 111.71 L 630.98 111.41 L 631.48 111.11 L 631.98 110.81 L 632.48 110.51 L 632.98 110.21 L 633.48 109.91 L 633.98 109.61 L 634.48 109.31 L 634.98 109.01 L 635.49 108.71 L 635.99 108.41 L 636.49 108.11 L 636.99 107.81 L 637.49 107.51 L 637.99 107.21 L 638.49 106.91 L 638.99 106.61 L 639.49 106.31 L 639.99 106.01 L 640.49 105.71 L 640.99 105.41 L 641.49 105.11 L 641.99 104.80 L 642.49 104.50 L 642.99 104.20 L 643.49 103.90 L 643.99 103.60 L 644.49 103.30 L 644.99 103.00 L 645.50 102.70 L 646.00 102.40 L 646.50 102.10 L 647.00 101.80 L 647.50 101.50 L 648.00 101.20 L 648.50 100.90 L 649.00 100.60 L 649.50 100.30 L 650.00 100.00" /><text  class="poloto_text poloto_legend_text" x="675" y="200" >derivative 1</text><line  class="poloto_line poloto_legend_icon poloto2stroke poloto2legend" stroke="black" x1="680" x2="730" y1="181.25" y2="181.25" /><path  class="poloto_line poloto2stroke" fill="none" stroke="black" d=" M 150.00 249.85 L 150.50 249.85 L 151.00 249.85 L 151.50 249.85 L 152.00 249.85 L 152.50 249.85 L 153.00 249.85 L 153.50 249.85 L 154.00 249.85 L 154.50 249.85 L 155.01 249.85 L 155.51 249.85 L 156.01 249.85 L 156.51 249.85 L 157.01 249.85 L 157.51 249.85 L 158.01 249.85 L 158.51 249.85 L 159.01 249.85 L 159.51 249.85 L 160.01 249.85 L 160.51 249.85 L 161.01 249.85 L 161.51 249.85 L 162.01 249.85 L 162.51 249.85 L 163.01 249.85 L 163.51 249.85 L 164.01 249.85 L 164.51 249.85 L 165.02 249.85 L 165.52 249.85 L 166.02 249.85 L 166.52 249.85 L 167.02 249.85 L 167.52 249.85 L 168.02 249.85 L 168.52 249.85 L 169.02 249.85 L 169.52 249.85 L 170.02 249.85 L 170.52 249.85 L 171.02 249.85 L 171.52 249.85 L 172.02 249.85 L 172.52 249.85 L 173.02 249.85 L 173.52 249.85 L 174.02 249.85 L 174.52 249.85 L 175.03 249.85 L 175.53 249.85 L 176.03 249.85 L 176.53 249.85 L 177.03 249.85 L 177.53 249.85 L 178.03 249.85 L 178.53 249.85 L 179.03 249.85 L 179.53 249.85 L 180.03 249.85 L 180.53 249.85 L 181.03 249.85 L 181.53 249.85 L 182.03 249.85 L 182.53 249.85 L 183.03 249.85 L 183.53 249.85 L 184.03 249.85 L 184.53 249.85 L 185.04 249.85 L 185.54 249.85 L 186.04 249.85 L 186.54 249.85 L 187.04 249.85 L 187.54 249.85 L 188.04 249.85 L 188.54 249.85 L 189.04 249.85 L 189.54 249.85 L 190.04 249.85 L 190.54 249.85 L 191.04 249.85 L 191.54 249.85 L 192.04 249.85 L 192.54 249.85 L 193.04 249.85 L 193.54 249.85 L 194.04 249.85 L 194.54 249.85 L 195.05 249.85 L 195.55 249.85 L 196.05 249.85 L 196.55 249.85 L 197.05 249.85 L 197.55 249.85 L 198.05 249.85 L 198.55 249.85 L 199.05 249.85 L 199.55 249.85 L 200.05 249.85 L 200.55 249.85 L 201.05 249.85 L 201.55 249.85 L 202.05 249.85 L 202.55 249.85 L 203.05 249.85 L 203.55 249.85 L 204.05 249.85 L 204.55 249.85 L 205.06 249.85 L 205.56 249.85 L 206.06 249.85 L 206.56 249.85 L 207.06 249.85 L 207.56 249.85 L 208.06 249.85 L 208.56 249.85 L 209.06 249.85 L 209.56 249.85 L 210.06 249.85 L 210.56 249.85 L 211.06 249.85 L 211.56 249.85 L 212.06 249.85 L 212.56 249.85 L 213.06 249.85 L 213.56 249.85 L 214.06 249.85 L 214.56 249.85 L 215.07 249.85 L 215.57 249.85 L 216.07 249.85 L 216.57 249.85 L 217.07 249.85 L 217.57 249.85 L 218.07 249.85 L 218.57 249.85 L 219.07 249.85 L 219.57 249.85 L 220.07 249.85 L 220.57 249.85 L 221.07 249.85 L 221.57 249.85 L 222.07 249.85 L 222.57 249.85 L 223.07 249.85 L 223.57 249.85 L 224.07 249.85 L 224.57 249.85 L 225.08 249.85 L 225.58 249.85 L 226.08 249.85 L 226.58 249.85 L 227.08 249.85 L 227.58 249.85 L 228.08 249.85 L 228.58 249.85 L 229.08 249.85 L 229.58 249.85 L 230.08 249.85 L 230.58 249.85 L 231.08 249.85 L 231.58 249.85 L 232.08 249.85 L 232.58 249.85 L 233.08 249.85 L 233.58 249.85 L 234.08 249.85 L 234.58 249.85 L 235.09 249.85 L 235.59 249.85 L 236.09 249.85 L 236.59 249.85 L 237.09 249.85 L 237.59 249.85 L 238.09 249.85 L 238.59 249.85 L 239.09 249.85 L 239.59 249.85 L 240.09 249.85 L 240.59 249.85 L 241.09 249.85 L 241.59 249.85 L 242.09 249.85 L 242.59 249.85 L 243.09 249.85 L 243.59 249.85 L 244.09 249.85 L 244.59 249.85 L 245.10 249.85 L 245.60 249.85 L 246.10 249.85 L 246.60 249.85 L 247.10 249.85 L 247.60 249.85 L 248.10 249.85 L 248.60 249.85 L 249.10 249.85 L 249.60 249.85 L 250.10 249.85 L 250.60 249.85 L 251.10 249.85 L 251.60 249.85 L 252.10 249.85 L 252.60 249.85 L 253.10 249.85 L 253.60 249.85 L 254.10 249.85 L 254.60 249.85 L 255.11 249.85 L 255.61 249.85 L 256.11 249.85 L 256.61 249.85 L 257.11 249.85 L 257.61 249.85 L 258.11 249.85 L 258.61 249.85 L 259.11 249.85 L 259.61 249.85 L 260.11 249.85 L 260.61 249.85 L 261.11 249.85 L 261.61 249.85 L 262.11 249.85 L 262.61 249.85 L 263.11 249.85 L 263.61 249.85 L 264.11 249.85 L 264.61 249.85 L 265.12 249.85 L 265.62 249.85 L 266.12 249.85 L 266.62 249.85 L 267.12 249.85 L 267.62 249.85 L 268.12 249.85 L 268.62 249.85 L 269.12 249.85 L 269.62 249.85 L 270.12 249.85 L 270.62 249.85 L 271.12 249.85 L 271.62 249.85 L 272.12 249.85 L 272.62 249.85 L 273.12 249.85 L 273.62 249.85 L 274.12 249.85 L 274.62 249.85 L 275.13 249.85 L 275.63 249.85 L 276.13 249.85 L 276.63 249.85 L 277.13 249.85 L 277.63 249.85 L 278.13 249.85 L 278.63 249.85 L 279.13 249.85 L 279.63 249.85 L 280.13 249.85 L 280.63 249.85 L 281.13 249.85 L 281.63 249.85 L 282.13 249.85 L 282.63 249.85 L 283.13 249.85 L 283.63 249.85 L 284.13 249.85 L 284.63 249.85 L 285.14 249.85 L 285.64 249.85 L 286.14 249.85 L 286.64 249.85 L 287.14 249.85 L 287.64 249.85 L 288.14 249.85 L 288.64 249.85 L 289.14 249.85 L 289.64 249.85 L 290.14 249.85 L 290.64 249.85 L 291.14 249.85 L 291.64 249.85 L 292.14 249.85 L 292.64 249.85 L 293.14 249.85 L 293.64 249.85 L 294.14 249.85 L 294.64 249.85 L 295.15 249.85 L 295.65 249.85 L 296.15 249.85 L 296.65 249.85 L 297.15 249.85 L 297.65 249.85 L 298.15 249.85 L 298.65 249.85 L 299.15 249.85 L 299.65 249.85 L 300.15 249.85 L 300.65 249.85 L 301.15 249.85 L 301.65 249.85 L 302.15 249.85 L 302.65 249.85 L 303.15 249.85 L 303.65 249.85 L 304.15 249.85 L 304.65 249.85 L 305.16 249.85 L 305.66 249.85 L 306.16 249.85 L 306.66 249.85 L 307.16 249.85 L 307.66 249.85 L 308.16 249.85 L 308.66 249.85 L 309.16 249.85 L 309.66 249.85 L 310.16 249.85 L 310.66 249.85 L 311.16 249.85 L 311.66 249.85 L 312.16 249.85 L 312.66 249.85 L 313.16 249.85 L 313.66 249.85 L 314.16 249.85 L 314.66 249.85 L 315.17 249.85 L 315.67 249.85 L 316.17 249.85 L 316.67 249.85 L 317.17 249.85 L 317.67 249.85 L 318.17 249.85 L 318.67 249.85 L 319.17 249.85 L 319.67 249.85 L 320.17 249.85 L 320.67 249.85 L 321.17 249.85 L 321.67 249.85 L 322.17 249.85 L 322.67 249.85 L 323.17 249.85 L 323.67 249.85 L 324.17 249.85 L 324.67 249.85 L 325.18 249.85 L 325.68 249.85 L 326.18 249.85 L 326.68 249.85 L 327.18 249.85 L 327.68 249.85 L 328.18 249.85 L 328.68 249.85 L 329.18 249.85 L 329.68 249.85 L 330.18 249.85 L 330.68 249.85 L 331.18 249.85 L 331.68 249.85 L 332.18 249.85 L 332.68 249.85 L 333.18 249.85 L 333.68 249.85 L 334.18 249.85 L 334.68 249.85 L 335.19 249.85 L 335.69 249.85 L 336.19 249.85 L 336.69 249.85 L 337.19 249.85 L 337.69 249.85 L 338.19 249.85 L 338.69 249.85 L 339.19 249.85 L 339.69 249.85 L 340.19 249.85 L 340.69 249.85 L 341.19 249.85 L 341.69 249.85 L 342.19 249.85 L 342.69 249.85 L 343.19 249.85 L 343.69 249.85 L 344.19 249.85 L 344.69 249.85 L 345.20 249.85 L 345.70 249.85 L 346.20 249.85 L 346.70 249.85 L 347.20 249.85 L 347.70 249.85 L 348.20 249.85 L 348.70 249.85 L 349.20 249.85 L 349.70 249.85 L 350.20 249.85 L 350.70 249.85 L 351.20 249.85 L 351.70 249.85 L 352.20 249.85 L 352.70 249.85 L 353.20 249.85 L 353.70 249.85 L 354.20 249.85 L 354.70 249.85 L 355.21 249.85 L 355.71 249.85 L 356.21 249.85 L 356.71 249.85 L 357.21 249.85 L 357.71 249.85 L 358.21 249.85 L 358.71 249.85 L 359.21 249.85 L 359.71 249.85 L 360.21 249.85 L 360.71 249.85 L 361.21 249.85 L 361.71 249.85 L 362.21 249.85 L 362.71 249.85 L 363.21 249.85 L 363.71 249.85 L 364.21 249.85 L 364.71 249.85 L 365.22 249.85 L 365.72 249.85 L 366.22 249.85 L 366.72 249.85 L 367.22 249.85 L 367.72 249.85 L 368.22 249.85 L 368.72 249.85 L 369.22 249.85 L 369.72 249.85 L 370.22 249.85 L 370.72 249.85 L 371.22 249.85 L 371.72 249.85 L 372.22 249.85 L 372.72 249.85 L 373.22 249.85 L 373.72 249.85 L 374.22 249.85 L 374.72 249.85 L 375.23 249.85 L 375.73 249.85 L 376.23 249.85 L 376.73 249.85 L 377.23 249.85 L 377.73 249.85 L 378.23 249.85 L 378.73 249.85 L 379.23 249.85 L 379.73 249.85 L 380.23 249.85 L 380.73 249.85 L 381.23 249.85 L 381.73 249.85 L 382.23 249.85 L 382.73 249.85 L 383.23 249.85 L 383.73 249.85 L 384.23 249.85 L 384.73 249.85 L 385.24 249.85 L 385.74 249.85 L 386.24 249.85 L 386.74 249.85 L 387.24 249.85 L 387.74 249.85 L 388.24 249.85 L 388.74 249.85 L 389.24 249.85 L 389.74 249.85 L 390.24 249.85 L 390.74 249.85 L 391.24 249.85 L 391.74 249.85 L 392.24 249.85 L 392.74 249.85 L 393.24 249.85 L 393.74 249.85 L 394.24 249.85 L 394.74 249.85 L 395.25 249.85 L 395.75 249.85 L 396.25 249.85 L 396.75 249.85 L 397.25 249.85 L 397.75 249.85 L 398.25 249.85 L 398.75 249.85 L 399.25 249.85 L 399.75 249.85 L 400.25 249.85 L 400.75 249.85 L 401.25 249.85 L 401.75 249.85 L 402.25 249.85 L 402.75 249.85 L 403.25 249.85 L 403.75 249.85 L 404.25 249.85 L 404.75 249.85 L 405.26 249.85 L 405.76 249.85 L 406.26 249.85 L 406.76 249.85 L 407.26 249.85 L 407.76 249.85 L 408.26 249.85 L 408.76 249.85 L 409.26 249.85 L 409.76 249.85 L 410.26 249.85 L 410.76 249.85 L 411.26 249.85 L 411.76 249.85 L 412.26 249.85 L 412.76 249.85 L 413.26 249.85 L 413.76 249.85 L 414.26 249.85 L 414.76 249.85 L 415.27 249.85 L 415.77 249.85 L 416.27 249.85 L 416.77 249.85 L 417.27 249.85 L 417.77 249.85 L 418.27 249.85 L 418.77 249.85 L 419.27 249.85 L 419.77 249.85 L 420.27 249.85 L 420.77 249.85 L 421.27 249.85 L 421.77 249.85 L 422.27 249.85 L 422.77 249.85 L 423.27 249.85 L 423.77 249.85 L 424.27 249.85 L 424.77 249.85 L 425.28 249.85 L 425.78 249.85 L 426.28 249.85 L 426.78 249.85 L 427.28 249.85 L 427.78 249.85 L 428.28 249.85 L 428.78 249.85 L 429.28 249.85 L 429.78 249.85 L 430.28 249.85 L 430.78 249.85 L 431.28 249.85 L 431.78 249.85 L 432.28 249.85 L 432.78 249.85 L 433.28 249.85 L 433.78 249.85 L 434.28 249.85 L 434.78 249.85 L 435.29 249.85 L 435.79 249.85 L 436.29 249.85 L 436.79 249.85 L 437.29 249.85 L 437.79 249.85 L 438.29 249.85 L 438.79 249.85 L 439.29 249.85 L 439.79 249.85 L 440.29 249.85 L 440.79 249.85 L 441.29 249.85 L 441.79 249.85 L 442.29 249.85 L 442.79 249.85 L 443.29 249.85 L 443.79 249.85 L 444.29 249.85 L 444.79 249.85 L 445.30 249.85 L 445.80 249.85 L 446.30 249.85 L 446.80 249.85 L 447.30 249.85 L 447.80 249.85 L 448.30 249.85 L 448.80 249.85 L 449.30 249.85 L 449.80 249.85 L 450.30 249.85 L 450.80 249.85 L 451.30 249.85 L 451.80 249.85 L 452.30 249.85 L 452.80 249.85 L 453.30 249.85 L 453.80 249.85 L 454.30 249.85 L 454.80 249.85 L 455.31 249.85 L 455.81 249.85 L 456.31 249.85 L 456.81 249.85 L 457.31 249.85 L 457.81 249.85 L 458.31 249.85 L 458.81 249.85 L 459.31 249.85 L 459.81 249.85 L 460.31 249.85 L 460.81 249.85 L 461.31 249.85 L 461.81 249.85 L 462.31 249.85 L 462.81 249.85 L 463.31 249.85 L 463.81 249.85 L 464.31 249.85 L 464.81 249.85 L 465.32 249.85 L 465.82 249.85 L 466.32 249.85 L 466.82 249.85 L 467.32 249.85 L 467.82 249.85 L 468.32 249.85 L 468.82 249.85 L 469.32 249.85 L 469.82 249.85 L 470.32 249.85 L 470.82 249.85 L 471.32 249.85 L 471.82 249.85 L 472.32 249.85 L 472.82 249.85 L 473.32 249.85 L 473.82 249.85 L 474.32 249.85 L 474.82 249.85 L 475.33 249.85 L 475.83 249.85 L 476.33 249.85 L 476.83 249.85 L 477.33 249.85 L 477.83 249.85 L 478.33 249.85 L 478.83 249.85 L 479.33 249.85 L 479.83 249.85 L 480.33 249.85 L 480.83 249.85 L 481.33 249.85 L 481.83 249.85 L 482.33 249.85 L 482.83 249.85 L 483.33 249.85 L 483.83 249.85 L 484.33 249.85 L 484.83 249.85 L 485.34 249.85 L 485.84 249.85 L 486.34 249.85 L 486.84 249.85 L 487.34 249.85 L 487.84 249.85 L 488.34 249.85 L 488.84 249.85 L 489.34 249.85 L 489.84 249.85 L 490.34 249.85 L 490.84 249.85 L 491.34 249.85 L 491.84 249.85 L 492.34 249.85 L 492.84 249.85 L 493.34 249.85 L 493.84 249.85 L 494.34 249.85 L 494.84 249.85 L 495.35 249.85 L 495.85 249.85 L 496.35 249.85 L 496.85 249.85 L 497.35 249.85 L 497.85 249.85 L 498.35 249.85 L 498.85 249.85 L 499.35 249.85 L 499.85 249.85 L 500.35 249.85 L 500.85 249.85 L 501.35 249.85 L 501.85 249.85 L 502.35 249.85 L 502.85 249.85 L 503.35 249.85 L 503.85 249.85 L 504.35 249.85 L 504.85 249.85 L 505.36 249.85 L 505.86 249.85 L 506.36 249.85 L 506.86 249.85 L 507.36 249.85 L 507.86 249.85 L 508.36 249.85 L 508.86 249.85 L 509.36 249.85 L 509.86 249.85 L 510.36 249.85 L 510.86 249.85 L 511.36 249.85 L 511.86 249.85 L 512.36 249.85 L 512.86 249.85 L 513.36 249.85 L 513.86 249.85 L 514.36 249.85 L 514.86 249.85 L 515.37 249.85 L 515.87 249.85 L 516.37 249.85 L 516.87 249.85 L 517.37 249.85 L 517.87 249.85 L 518.37 249.85 L 518.87 249.85 L 519.37 249.85 L 519.87 249.85 L 520.37 249.85 L 520.87 249.85 L 521.37 249.85 L 521.87 249.85 L 522.37 249.85 L 522.87 249.85 L 523.37 249.85 L 523.87 249.85 L 524.37 249.85 L 524.87 249.85 L 525.38 249.85 L 525.88 249.85 L 526.38 249.85 L 526.88 249.85 L 527.38 249.85 L 527.88 249.85 L 528.38 249.85 L 528.88 249.85 L 529.38 249.85 L 529.88 249.85 L 530.38 249.85 L 530.88 249.85 L 531.38 249.85 L 531.88 249.85 L 532.38 249.85 L 532.88 249.85 L 533.38 249.85 L 533.88 249.85 L 534.38 249.85 L 534.88 249.85 L 535.39 249.85 L 535.89 249.85 L 536.39 249.85 L 536.89 249.85 L 537.39 249.85 L 537.89 249.85 L 538.39 249.85 L 538.89 249.85 L 539.39 249.85 L 539.89 249.85 L 540.39 249.85 L 540.89 249.85 L 541.39 249.85 L 541.89 249.85 L 542.39 249.85 L 542.89 249.85 L 543.39 249.85 L 543.89 249.85 L 544.39 249.85 L 544.89 249.85 L 545.40 249.85 L 545.90 249.85 L 546.40 249.85 L 546.90 249.85 L 547.40 249.85 L 547.90 249.85 L 548.40 249.85 L 548.90 249.85 L 549.40 249.85 L 549.90 249.85 L 550.40 249.85 L 550.90 249.85 L 551.40 249.85 L 551.90 249.85 L 552.40 249.85 L 552.90 249.85 L 553.40 249.85 L 553.90 249.85 L 554.40 249.85 L 554.90 249.85 L 555.41 249.85 L 555.91 249.85 L 556.41 249.85 L 556.91 249.85 L 557.41 249.85 L 557.91 249.85 L 558.41 249.85 L 558.91 249.85 L 559.41 249.85 L 559.91 249.85 L 560.41 249.85 L 560.91 249.85 L 561.41 249.85 L 561.91 249.85 L 562.41 249.85 L 562.91 249.85 L 563.41 249.85 L 563.91 249.85 L 564.41 249.85 L 564.91 249.85 L 565.42 249.85 L 565.92 249.85 L 566.42 249.85 L 566.92 249.85 L 567.42 249.85 L 567.92 249.85 L 568.42 249.85 L 568.92 249.85 L 569.42 249.85 L 569.92 249.85 L 570.42 249.85 L 570.92 249.85 L 571.42 249.85 L 571.92 249.85 L 572.42 249.85 L 572.92 249.85 L 573.42 249.85 L 573.92 249.85 L 574.42 249.85 L 574.92 249.85 L 575.43 249.85 L 575.93 249.85 L 576.43 249.85 L 576.93 249.85 L 577.43 249.85 L 577.93 249.85 L 578.43 249.85 L 578.93 249.85 L 579.43 249.85 L 579.93 249.85 L 580.43 249.85 L 580.93 249.85 L 581.43 249.85 L 581.93 249.85 L 582.43 249.85 L 582.93 249.85 L 583.43 249.85 L 583.93 249.85 L 584.43 249.85 L 584.93 249.85 L 585.44 249.85 L 585.94 249.85 L 586.44 249.85 L 586.94 249.85 L 587.44 249.85 L 587.94 249.85 L 588.44 249.85 L 588.94 249.85 L 589.44 249.85 L 589.94 249.85 L 590.44 249.85 L 590.94 249.85 L 591.44 249.85 L 591.94 249.85 L 592.44 249.85 L 592.94 249.85 L 593.44 249.85 L 593.94 249.85 L 594.44 249.85 L 594.94 249.85 L 595.45 249.85 L 595.95 249.85 L 596.45 249.85 L 596.95 249.85 L 597.45 249.85 L 597.95 249.85 L 598.45 249.85 L 598.95 249.85 L 599.45 249.85 L 599.95 249.85 L 600.45 249.85 L 600.95 249.85 L 601.45 249.85 L 601.95 249.85 L 602.45 249.85 L 602.95 249.85 L 603.45 249.85 L 603.95 249.85 L 604.45 249.85 L 604.95 249.85 L 605.46 249.85 L 605.96 249.85 L 606.46 249.85 L 606.96 249.85 L 607.46 249.85 L 607.96 249.85 L 608.46 249.85 L 608.96 249.85 L 609.46 249.85 L 609.96 249.85 L 610.46 249.85 L 610.96 249.85 L 611.46 249.85 L 611.96 249.85 L 612.46 249.85 L 612.96 249.85 L 613.46 249.85 L 613.96 249.85 L 614.46 249.85 L 614.96 249.85 L 615.47 249.85 L 615.97 249.85 L 616.47 249.85 L 616.97 249.85 L 617.47 249.85 L 617.97 249.85 L 618.47 249.85 L 618.97 249.85 L 619.47 249.85 L 619.97 249.85 L 620.47 249.85 L 620.97 249.85 L 621.47 249.85 L 621.97 249.85 L 622.47 249.85 L 622.97 249.85 L 623.47 249.85 L 623.97 249.85 L 624.47 249.85 L 624.97 249.85 L 625.48 249.85 L 625.98 249.85 L 626.48 249.85 L 626.98 249.85 L 627.48 249.85 L 627.98 249.85 L 628.48 249.85 L 628.98 249.85 L 629.48 249.85 L 629.98 249.85 L 630.48 249.85 L 630.98 249.85 L 631.48 249.85 L 631.98 249.85 L 632.48 249.85 L 632.98 249.85 L 633.48 249.85 L 633.98 249.85 L 634.48 249.85 L 634.98 249.85 L 635.49 249.85 L 635.99 249.85 L 636.49 249.85 L 636.99 249.85 L 637.49 249.85 L 637.99 249.85 L 638.49 249.85 L 638.99 249.85 L 639.49 249.85 L 639.99 249.85 L 640.49 249.85 L 640.99 249.85 L 641.49 249.85 L 641.99 249.85 L 642.49 249.85 L 642.99 249.85 L 643.49 249.85 L 643.99 249.85 L 644.49 249.85 L 644.99 249.85 L 645.50 249.85 L 646.00 249.85 L 646.50 249.85 L 647.00 249.85 L 647.50 249.85 L 648.00 249.85 L 648.50 249.85 L 649.00 249.85 L 649.50 249.85 L 650.00 249.85" /><text  class="poloto_text poloto_legend_text" x="675" y="250" >derivative 2</text><line  class="poloto_line poloto_legend_icon poloto3stroke poloto3legend" stroke="black" x1="680" x2="730" y1="231.25" y2="231.25" /><path  class="poloto_line poloto3stroke" fill="none" stroke="black" d=" M 150.00 349.95 L 150.50 349.95 L 151.00 349.95 L 151.50 349.95 L 152.00 349.95 L 152.50 349.95 L 153.00 349.95 L 153.50 349.95 L 154.00 349.95 L 154.50 349.95 L 155.01 349.95 L 155.51 349.95 L 156.01 349.95 L 156.51 349.95 L 157.01 349.95 L 157.51 349.95 L 158.01 349.95 L 158.51 349.95 L 159.01 349.95 L 159.51 349.95 L 160.01 349.95 L 160.51 349.95 L 161.01 349.95 L 161.51 349.95 L 162.01 349.95 L 162.51 349.95 L 163.01 349.95 L 163.51 349.95 L 164.01 349.95 L 164.51 349.95 L 165.02 349.95 L 165.52 349.95 L 166.02 349.95 L 166.52 349.95 L 167.02 349.95 L 167.52 349.95 L 168.02 349.95 L 168.52 349.95 L 169.02 349.95 L 169.52 349.95 L 170.02 349.95 L 170.52 349.95 L 171.02 349.95 L 171.52 349.95 L 172.02 349.95 L 172.52 349.95 L 173.02 349.95 L 173.52 349.95 L 174.02 349.95 L 174.52 349.95 L 175.03 349.95 L 175.53 349.95 L 176.03 349.95 L 176.53 349.95 L 177.03 349.95 L 177.53 349.95 L 178.03 349.95 L 178.53 349.95 L 179.03 349.95 L 179.53 349.95 L 180.03 349.95 L 180.53 349.95 L 181.03 349.95 L 181.53 349.95 L 182.03 349.95 L 182.53 349.95 L 183.03 349.95 L 183.53 349.95 L 184.03 349.95 L 184.53 349.95 L 185.04 349.95 L 185.54 349.95 L 186.04 349.95 L 186.54 349.95 L 187.04 349.95 L 187.54 349.95 L 188.04 349.95 L 188.54 349.95 L 189.04 349.95 L 189.54 349.95 L 190.04 349.95 L 190.54 349.95 L 191.04 349.95 L 191.54 349.95 L 192.04 349.95 L 192.54 349.95 L 193.04 349.95 L 193.54 349.95 L 194.04 349.95 L 194.54 349.95 L 195.05 349.95 L 195.55 349.95 L 196.05 349.95 L 196.55 349.95 L 197.05 349.95 L 197.55 349.95 L 198.05 349.95 L 198.55 349.95 L 199.05 349.95 L 199.55 349.95 L 200.05 349.95 L 200.55 349.95 L 201.05 349.95 L 201.55 349.95 L 202.05 349.95 L 202.55 349.95 L 203.05 349.95 L 203.55 349.95 L 204.05 349.95 L 204.55 349.95 L 205.06 349.95 L 205.56 349.95 L 206.06 349.95 L 206.56 349.95 L 207.06 349.95 L 207.56 349.95 L 208.06 349.95 L 208.56 349.95 L 209.06 349.95 L 209.56 349.95 L 210.06 349.95 L 210.56 349.95 L 211.06 349.95 L 211.56 349.95 L 212.06 349.95 L 212.56 349.95 L 213.06 349.95 L 213.56 349.95 L 214.06 349.95 L 214.56 349.95 L 215.07 349.95 L 215.57 349.95 L 216.07 349.95 L 216.57 349.95 L 217.07 349.95 L 217.57 349.95 L 218.07 349.95 L 218.57 349.95 L 219.07 349.95 L 219.57 349.95 L 220.07 349.95 L 220.57 349.95 L 221.07 349.95 L 221.57 349.95 L 222.07 349.95 L 222.57 349.95 L 223.07 349.95 L 223.57 349.95 L 224.07 349.95 L 224.57 349.95 L 225.08 349.95 L 225.58 349.95 L 226.08 349.95 L 226.58 349.95 L 227.08 349.95 L 227.58 349.95 L 228.08 349.95 L 228.58 349.95 L 229.08 349.95 L 229.58 349.95 L 230.08 349.95 L 230.58 349.95 L 231.08 349.95 L 231.58 349.95 L 232.08 349.95 L 232.58 349.95 L 233.08 349.95 L 233.58 349.95 L 234.08 349.95 L 234.58 349.95 L 235.09 349.95 L 235.59 349.95 L 236.09 349.95 L 236.59 349.95 L 237.09 349.95 L 237.59 349.95 L 238.09 349.95 L 238.59 349.95 L 239.09 349.95 L 239.59 349.95 L 240.09 349.95 L 240.59 349.95 L 241.09 349.95 L 241.59 349.95 L 242.09 349.95 L 242.59 349.95 L 243.09 349.95 L 243.59 349.95 L 244.09 349.95 L 244.59 349.95 L 245.10 349.95 L 245.60 349.95 L 246.10 349.95 L 246.60 349.95 L 247.10 349.95 L 247.60 349.95 L 248.10 349.95 L 248.60 349.95 L 249.10 349.95 L 249.60 349.95 L 250.10 349.95 L 250.60 349.95 L 251.10 349.95 L 251.60 349.95 L 252.10 349.95 L 252.60 349.95 L 253.10 349.95 L 253.60 349.95 L 254.10 349.95 L 254.60 349.95 L 255.11 349.95 L 255.61 349.95 L 256.11 349.95 L 256.61 349.95 L 257.11 349.95 L 257.61 349.95 L 258.11 349.95 L 258.61 349.95 L 259.11 349.95 L 259.61 349.95 L 260.11 349.95 L 260.61 349.95 L 261.11 349.95 L 261.61 349.95 L 262.11 349.95 L 262.61 349.95 L 263.11 349.95 L 263.61 349.95 L 264.11 349.95 L 264.61 349.95 L 265.12 349.95 L 265.62 349.95 L 266.12 349.95 L 266.62 349.95 L 267.12 349.95 L 267.62 349.95 L 268.12 349.95 L 268.62 349.95 L 269.12 349.95 L 269.62 349.95 L 270.12 349.95 L 270.62 349.95 L 271.12 349.95 L 271.62 349.95 L 272.12 349.95 L 272.62 349.95 L 273.12 349.95 L 273.62 349.95 L 274.12 349.95 L 274.62 349.95 L 275.13 349.95 L 275.63 349.95 L 276.13 349.95 L 276.63 349.95 L 277.13 349.95 L 277.63 349.95 L 278.13 349.95 L 278.63 349.95 L 279.13 349.95 L 279.63 349.95 L 280.13 349.95 L 280.63 349.95 L 281.13 349.95 L 281.63 349.95 L 282.13 349.95 L 282.63 349.95 L 283.13 349.95 L 283.63 349.95 L 284.13 349.95 L 284.63 349.95 L 285.14 349.95 L 285.64 349.95 L 286.14 349.95 L 286.64 349.95 L 287.14 349.95 L 287.64 349.95 L 288.14 349.95 L 288.64 349.95 L 289.14 349.95 L 289.64 349.95 L 290.14 349.95 L 290.64 349.95 L 291.14 349.95 L 291.64 349.95 L 292.14 349.95 L 292.64 349.95 L 293.14 349.95 L 293.64 349.95 L 294.14 349.95 L 294.64 349.95 L 295.15 349.95 L 295.65 349.95 L 296.15 349.95 L 296.65 349.95 L 297.15 349.95 L 297.65 349.95 L 298.15 349.95 L 298.65 349.95 L 299.15 349.95 L 299.65 349.95 L 300.15 349.95 L 300.65 349.95 L 301.15 349.95 L 301.65 349.95 L 302.15 349.95 L 302.65 349.95 L 303.15 349.95 L 303.65 349.95 L 304.15 349.95 L 304.65 349.95 L 305.16 349.95 L 305.66 349.95 L 306.16 349.95 L 306.66 349.95 L 307.16 349.95 L 307.66 349.95 L 308.16 349.95 L 308.66 349.95 L 309.16 349.95 L 309.66 349.95 L 310.16 349.95 L 310.66 349.95 L 311.16 349.95 L 311.66 349.95 L 312.16 349.95 L 312.66 349.95 L 313.16 349.95 L 313.66 349.95 L 314.16 349.95 L 314.66 349.95 L 315.17 349.95 L 315.67 349.95 L 316.17 349.95 L 316.67 349.95 L 317.17 349.95 L 317.67 349.95 L 318.17 349.95 L 318.67 349.95 L 319.17 349.95 L 319.67 349.95 L 320.17 349.95 L 320.67 349.95 L 321.17 349.95 L 321.67 349.95 L 322.17 349.95 L 322.67 349.95 L 323.17 349.95 L 323.67 349.95 L 324.17 349.95 L 324.67 349.95 L 325.18 349.95 L 325.68 349.95 L 326.18 349.95 L 326.68 349.95 L 327.18 349.95 L 327.68 349.95 L 328.18 349.95 L 328.68 349.95 L 329.18 349.95 L 329.68 349.95 L 330.18 349.95 L 330.68 349.95 L 331.18 349.95 L 331.68 349.95 L 332.18 349.95 L 332.68 349.95 L 333.18 349.95 L 333.68 349.95 L 334.18 349.95 L 334.68 349.95 L 335.19 349.95 L 335.69 349.95 L 336.19 349.95 L 336.69 349.95 L 337.19 349.95 L 337.69 349.95 L 338.19 349.95 L 338.69 349.95 L 339.19 349.95 L 339.69 349.95 L 340.19 349.95 L 340.69 349.95 L 341.19 349.95 L 341.69 349.95 L 342.19 349.95 L 342.69 349.95 L 343.19 349.95 L 343.69 349.95 L 344.19 349.95 L 344.69 349.95 L 345.20 349.95 L 345.70 349.95 L 346.20 349.95 L 346.70 349.95 L 347.20 349.95 L 347.70 349.95 L 348.20 349.95 L 348.70 349.95 L 349.20 349.95 L 349.70 349.95 L 350.20 349.95 L 350.70 349.95 L 351.20 349.95 L 351.70 349.95 L 352.20 349.95 L 352.70 349.95 L 353.20 349.95 L 353.70 349.95 L 354.20 349.95 L 354.70 349.95 L 355.21 349.95 L 355.71 349.95 L 356.21 349.95 L 356.71 349.95 L 357.21 349.95 L 357.71 349.95 L 358.21 349.95 L 358.71 349.95 L 359.21 349.95 L 359.71 349.95 L 360.21 349.95 L 360.71 349.95 L 361.21 349.95 L 361.71 349.95 L 362.21 349.95 L 362.71 349.95 L 363.21 349.95 L 363.71 349.95 L 364.21 349.95 L 364.71 349.95 L 365.22 349.95 L 365.72 349.95 L 366.22 349.95 L 366.72 349.95 L 367.22 349.95 L 367.72 349.95 L 368.22 349.95 L 368.72 349.95 L 369.22 349.95 L 369.72 349.95 L 370.22 349.95 L 370.72 349.95 L 371.22 349.95 L 371.72 349.95 L 372.22 349.95 L 372.72 349.95 L 373.22 349.95 L 373.72 349.95 L 374.22 349.95 L 374.72 349.95 L 375.23 349.95 L 375.73 349.95 L 376.23 349.95 L 376.73 349.95 L 377.23 349.95 L 377.73 349.95 L 378.23 349.95 L 378.73 349.95 L 379.23 349.95 L 379.73 349.95 L 380.23 349.95 L 380.73 349.95 L 381.23 349.95 L 381.73 349.95 L 382.23 349.95 L 382.73 349.95 L 383.23 349.95 L 383.73 349.95 L 384.23 349.95 L 384.73 349.95 L 385.24 349.95 L 385.74 349.95 L 386.24 349.95 L 386.74 349.95 L 387.24 349.95 L 387.74 349.95 L 388.24 349.95 L 388.74 349.95 L 389.24 349.95 L 389.74 349.95 L 390.24 349.95 L 390.74 349.95 L 391.24 349.95 L 391.74 349.95 L 392.24 349.95 L 392.74 349.95 L 393.24 349.95 L 393.74 349.95 L 394.24 349.95 L 394.74 349.95 L 395.25 349.95 L 395.75 349.95 L 396.25 349.95 L 396.75 349.95 L 397.25 349.95 L 397.75 349.95 L 398.25 349.95 L 398.75 349.95 L 399.25 349.95 L 399.75 349.95 L 400.25 349.95 L 400.75 349.95 L 401.25 349.95 L 401.75 349.95 L 402.25 349.95 L 402.75 349.95 L 403.25 349.95 L 403.75 349.95 L 404.25 349.95 L 404.75 349.95 L 405.26 349.95 L 405.76 349.95 L 406.26 349.95 L 406.76 349.95 L 407.26 349.95 L 407.76 349.95 L 408.26 349.95 L 408.76 349.95 L 409.26 349.95 L 409.76 349.95 L 410.26 349.95 L 410.76 349.95 L 411.26 349.95 L 411.76 349.95 L 412.26 349.95 L 412.76 349.95 L 413.26 349.95 L 413.76 349.95 L 414.26 349.95 L 414.76 349.95 L 415.27 349.95 L 415.77 349.95 L 416.27 349.95 L 416.77 349.95 L 417.27 349.95 L 417.77 349.95 L 418.27 349.95 L 418.77 349.95 L 419.27 349.95 L 419.77 349.95 L 420.27 349.95 L 420.77 349.95 L 421.27 349.95 L 421.77 349.95 L 422.27 349.95 L 422.77 349.95 L 423.27 349.95 L 423.77 349.95 L 424.27 349.95 L 424.77 349.95 L 425.28 349.95 L 425.78 349.95 L 426.28 349.95 L 426.78 349.95 L 427.28 349.95 L 427.78 349.95 L 428.28 349.95 L 428.78 349.95 L 429.28 349.95 L 429.78 349.95 L 430.28 349.95 L 430.78 349.95 L 431.28 349.95 L 431.78 349.95 L 432.28 349.95 L 432.78 349.95 L 433.28 349.95 L 433.78 349.95 L 434.28 349.95 L 434.78 349.95 L 435.29 349.95 L 435.79 349.95 L 436.29 349.95 L 436.79 349.95 L 437.29 349.95 L 437.79 349.95 L 438.29 349.95 L 438.79 349.95 L 439.29 349.95 L 439.79 349.95 L 440.29 349.95 L 440.79 349.95 L 441.29 349.95 L 441.79 349.95 L 442.29 349.95 L 442.79 349.95 L 443.29 349.95 L 443.79 349.95 L 444.29 349.95 L 444.79 349.95 L 445.30 349.95 L 445.80 349.95 L 446.30 349.95 L 446.80 349.95 L 447.30 349.95 L 447.80 349.95 L 448.30 349.95 L 448.80 349.95 L 449.30 349.95 L 449.80 349.95 L 450.30 349.95 L 450.80 349.95 L 451.30 349.95 L 451.80 349.95 L 452.30 349.95 L 452.80 349.95 L 453.30 349.95 L 453.80 349.95 L 454.30 349.95 L 454.80 349.95 L 455.31 349.95 L 455.81 349.95 L 456.31 349.95 L 456.81 349.95 L 457.31 349.95 L 457.81 349.95 L 458.31 349.95 L 458.81 349.95 L 459.31 349.95 L 459.81 349.95 L 460.31 349.95 L 460.81 349.95 L 461.31 349.95 L 461.81 349.95 L 462.31 349.95 L 462.81 349.95 L 463.31 349.95 L 463.81 349.95 L 464.31 349.95 L 464.81 349.95 L 465.32 349.95 L 465.82 349.95 L 466.32 349.95 L 466.82 349.95 L 467.32 349.95 L 467.82 349.95 L 468.32 349.95 L 468.82 349.95 L 469.32 349.95 L 469.82 349.95 L 470.32 349.95 L 470.82 349.95 L 471.32 349.95 L 471.82 349.95 L 472.32 349.95 L 472.82 349.95 L 473.32 349.95 L 473.82 349.95 L 474.32 349.95 L 474.82 349.95 L 475.33 349.95 L 475.83 349.95 L 476.33 349.95 L 476.83 349.95 L 477.33 349.95 L 477.83 349.95 L 478.33 349.95 L 478.83 349.95 L 479.33 349.95 L 479.83 349.95 L 480.33 349.95 L 480.83 349.95 L 481.33 349.95 L 481.83 349.95 L 482.33 349.95 L 482.83 349.95 L 483.33 349.95 L 483.83 349.95 L 484.33 349.95 L 484.83 349.95 L 485.34 349.95 L 485.84 349.95 L 486.34 349.95 L 486.84 349.95 L 487.34 349.95 L 487.84 349.95 L 488.34 349.95 L 488.84 349.95 L 489.34 349.95 L 489.84 349.95 L 490.34 349.95 L 490.84 349.95 L 491.34 349.95 L 491.84 349.95 L 492.34 349.95 L 492.84 349.95 L 493.34 349.95 L 493.84 349.95 L 494.34 349.95 L 494.84 349.95 L 495.35 349.95 L 495.85 349.95 L 496.35 349.95 L 496.85 349.95 L 497.35 349.95 L 497.85 349.95 L 498.35 349.95 L 498.85 349.95 L 499.35 349.95 L 499.85 349.95 L 500.35 349.95 L 500.85 349.95 L 501.35 349.95 L 501.85 349.95 L 502.35 349.95 L 502.85 349.95 L 503.35 349.95 L 503.85 349.95 L 504.35 349.95 L 504.85 349.95 L 505.36 349.95 L 505.86 349.95 L 506.36 349.95 L 506.86 349.95 L 507.36 349.95 L 507.86 349.95 L 508.36 349.95 L 508.86 349.95 L 509.36 349.95 L 509.86 349.95 L 510.36 349.95 L 510.86 349.95 L 511.36 349.95 L 511.86 349.95 L 512.36 349.95 L 512.86 349.95 L 513.36 349.95 L 513.86 349.95 L 514.36 349.95 L 514.86 349.95 L 515.37 349.95 L 515.87 349.95 L 516.37 349.95 L 516.87 349.95 L 517.37 349.95 L 517.87 349.95 L 518.37 349.95 L 518.87 349.95 L 519.37 349.95 L 519.87 349.95 L 520.37 349.95 L 520.87 349.95 L 521.37 349.95 L 521.87 349.95 L 522.37 349.95 L 522.87 349.95 L 523.37 349.95 L 523.87 349.95 L 524.37 349.95 L 524.87 349.95 L 525.38 349.95 L 525.88 349.95 L 526.38 349.95 L 526.88 349.95 L 527.38 349.95 L 527.88 349.95 L 528.38 349.95 L 528.88 349.95 L 529.38 349.95 L 529.88 349.95 L 530.38 349.95 L 530.88 349.95 L 531.38 349.95 L 531.88 349.95 L 532.38 349.95 L 532.88 349.95 L 533.38 349.95 L 533.88 349.95 L 534.38 349.95 L 534.88 349.95 L 535.39 349.95 L 535.89 349.95 L 536.39 349.95 L 536.89 349.95 L 537.39 349.95 L 537.89 349.95 L 538.39 349.95 L 538.89 349.95 L 539.39 349.95 L 539.89 349.95 L 540.39 349.95 L 540.89 349.95 L 541.39 349.95 L 541.89 349.95 L 542.39 349.95 L 542.89 349.95 L 543.39 349.95 L 543.89 349.95 L 544.39 349.95 L 544.89 349.95 L 545.40 349.95 L 545.90 349.95 L 546.40 349.95 L 546.90 349.95 L 547.40 349.95 L 547.90 349.95 L 548.40 349.95 L 548.90 349.95 L 549.40 349.95 L 549.90 349.95 L 550.40 349.95 L 550.90 349.95 L 551.40 349.95 L 551.90 349.95 L 552.40 349.95 L 552.90 349.95 L 553.40 349.95 L 553.90 349.95 L 554.40 349.95 L 554.90 349.95 L 555.41 349.95 L 555.91 349.95 L 556.41 349.95 L 556.91 349.95 L 557.41 349.95 L 557.91 349.95 L 558.41 349.95 L 558.91 349.95 L 559.41 349.95 L 559.91 349.95 L 560.41 349.95 L 560.91 349.95 L 561.41 349.95 L 561.91 349.95 L 562.41 349.95 L 562.91 349.95 L 563.41 349.95 L 563.91 349.95 L 564.41 349.95 L 564.91 349.95 L 565.42 349.95 L 565.92 349.95 L 566.42 349.95 L 566.92 349.95 L 567.42 349.95 L 567.92 349.95 L 568.42 349.95 L 568.92 349.95 L 569.42 349.95 L 569.92 349.95 L 570.42 349.95 L 570.92 349.95 L 571.42 349.95 L 571.92 349.95 L 572.42 349.95 L 572.92 349.95 L 573.42 349.95 L 573.92 349.95 L 574.42 349.95 L 574.92 349.95 L 575.43 349.95 L 575.93 349.95 L 576.43 349.95 L 576.93 349.95 L 577.43 349.95 L 577.93 349.95 L 578.43 349.95 L 578.93 349.95 L 579.43 349.95 L 579.93 349.95 L 580.43 349.95 L 580.93 349.95 L 581.43 349.95 L 581.93 349.95 L 582.43 349.95 L 582.93 349.95 L 583.43 349.95 L 583.93 349.95 L 584.43 349.95 L 584.93 349.95 L 585.44 349.95 L 585.94 349.95 L 586.44 349.95 L 586.94 349.95 L 587.44 349.95 L 587.94 349.95 L 588.44 349.95 L 588.94 349.95 L 589.44 349.95 L 589.94 349.95 L 590.44 349.95 L 590.94 349.95 L 591.44 349.95 L 591.94 349.95 L 592.44 349.95 L 592.94 349.95 L 593.44 349.95 L 593.94 349.95 L 594.44 349.95 L 594.94 349.95 L 595.45 349.95 L 595.95 349.95 L 596.45 349.95 L 596.95 349.95 L 597.45 349.95 L 597.95 349.95 L 598.45 349.95 L 598.95 349.95 L 599.45 349.95 L 599.95 349.95 L 600.45 349.95 L 600.95 349.95 L 601.45 349.95 L 601.95 349.95 L 602.45 349.95 L 602.95 349.95 L 603.45 349.95 L 603.95 349.95 L 604.45 349.95 L 604.95 349.95 L 605.46 349.95 L 605.96 349.95 L 606.46 349.95 L 606.96 349.95 L 607.46 349.95 L 607.96 349.95 L 608.46 349.95 L 608.96 349.95 L 609.46 349.95 L 609.96 349.95 L 610.46 349.95 L 610.96 349.95 L 611.46 349.95 L 611.96 349.95 L 612.46 349.95 L 612.96 349.95 L 613.46 349.95 L 613.96 349.95 L 614.46 349.95 L 614.96 349.95 L 615.47 349.95 L 615.97 349.95 L 616.47 349.95 L 616.97 349.95 L 617.47 349.95 L 617.97 349.95 L 618.47 349.95 L 618.97 349.95 L 619.47 349.95 L 619.97 349.95 L 620.47 349.95 L 620.97 349.95 L 621.47 349.95 L 621.97 349.95 L 622.47 349.95 L 622.97 349.95 L 623.47 349.95 L 623.97 349.95 L 624.47 349.95 L 624.97 349.95 L 625.48 349.95 L 625.98 349.95 L 626.48 349.95 L 626.98 349.95 L 627.48 349.95 L 627.98 349.95 L 628.48 349.95 L 628.98 349.95 L 629.48 349.95 L 629.98 349.95 L 630.48 349.95 L 630.98 349.95 L 631.48 349.95 L 631.98 349.95 L 632.48 349.95 L 632.98 349.95 L 633.48 349.95 L 633.98 349.95 L 634.48 349.95 L 634.98 349.95 L 635.49 349.95 L 635.99 349.95 L 636.49 349.95 L 636.99 349.95 L 637.49 349.95 L 637.99 349.95 L 638.49 349.95 L 638.99 349.95 L 639.49 349.95 L 639.99 349.95 L 640.49 349.95 L 640.99 349.95 L 641.49 349.95 L 641.99 349.95 L 642.49 349.95 L 642.99 349.95 L 643.49 349.95 L 643.99 349.95 L 644.49 349.95 L 644.99 349.95 L 645.50 349.95 L 646.00 349.95 L 646.50 349.95 L 647.00 349.95 L 647.50 349.95 L 648.00 349.95 L 648.50 349.95 L 649.00 349.95 L 649.50 349.95 L 650.00 349.95" /><text  class="poloto_text poloto_legend_text" x="675" y="300" >derivative 3</text><line  class="poloto_line poloto_legend_icon poloto4stroke poloto4legend" stroke="black" x1="680" x2="730" y1="281.25" y2="281.25" /><path  class="poloto_line poloto4stroke" fill="none" stroke="black" d=" M 150.00 349.95 L 150.50 349.95 L 151.00 349.95 L 151.50 349.95 L 152.00 349.95 L 152.50 349.95 L 153.00 349.95 L 153.50 349.95 L 154.00 349.95 L 154.50 349.95 L 155.01 349.95 L 155.51 349.95 L 156.01 349.95 L 156.51 349.95 L 157.01 349.95 L 157.51 349.95 L 158.01 349.95 L 158.51 349.95 L 159.01 349.95 L 159.51 349.95 L 160.01 349.95 L 160.51 349.95 L 161.01 349.95 L 161.51 349.95 L 162.01 349.95 L 162.51 349.95 L 163.01 349.95 L 163.51 349.95 L 164.01 349.95 L 164.51 349.95 L 165.02 349.95 L 165.52 349.95 L 166.02 349.95 L 166.52 349.95 L 167.02 349.95 L 167.52 349.95 L 168.02 349.95 L 168.52 349.95 L 169.02 349.95 L 169.52 349.95 L 170.02 349.95 L 170.52 349.95 L 171.02 349.95 L 171.52 349.95 L 172.02 349.95 L 172.52 349.95 L 173.02 349.95 L 173.52 349.95 L 174.02 349.95 L 174.52 349.95 L 175.03 349.95 L 175.53 349.95 L 176.03 349.95 L 176.53 349.95 L 177.03 349.95 L 177.53 349.95 L 178.03 349.95 L 178.53 349.95 L 179.03 349.95 L 179.53 349.95 L 180.03 349.95 L 180.53 349.95 L 181.03 349.95 L 181.53 349.95 L 182.03 349.95 L 182.53 349.95 L 183.03 349.95 L 183.53 349.95 L 184.03 349.95 L 184.53 349.95 L 185.04 349.95 L 185.54 349.95 L 186.04 349.95 L 186.54 349.95 L 187.04 349.95 L 187.54 349.95 L 188.04 349.95 L 188.54 349.95 L 189.04 349.95 L 189.54 349.95 L 190.04 349.95 L 190.54 349.95 L 191.04 349.95 L 191.54 349.95 L 192.04 349.95 L 192.54 349.95 L 193.04 349.95 L 193.54 349.95 L 194.04 349.95 L 194.54 349.95 L 195.05 349.95 L 195.55 349.95 L 196.05 349.95 L 196.55 349.95 L 197.05 349.95 L 197.55 349.95 L 198.05 349.95 L 198.55 349.95 L 199.05 349.95 L 199.55 349.95 L 200.05 349.95 L 200.55 349.95 L 201.05 349.95 L 201.55 349.95 L 202.05 349.95 L 202.55 349.95 L 203.05 349.95 L 203.55 349.95 L 204.05 349.95 L 204.55 349.95 L 205.06 349.95 L 205.56 349.95 L 206.06 349.95 L 206.56 349.95 L 207.06 349.95 L 207.56 349.95 L 208.06 349.95 L 208.56 349.95 L 209.06 349.95 L 209.56 349.95 L 210.06 349.95 L 210.56 349.95 L 211.06 349.95 L 211.56 349.95 L 212.06 349.95 L 212.56 349.95 L 213.06 349.95 L 213.56 349.95 L 214.06 349.95 L 214.56 349.95 L 215.07 349.95 L 215.57 349.95 L 216.07 349.95 L 216.57 349.95 L 217.07 349.95 L 217.57 349.95 L 218.07 349.95 L 218.57 349.95 L 219.07 349.95 L 219.57 349.95 L 220.07 349.95 L 220.57 349.95 L 221.07 349.95 L 221.57 349.95 L 222.07 349.95 L 222.57 349.95 L 223.07 349.95 L 223.57 349.95 L 224.07 349.95 L 224.57 349.95 L 225.08 349.95 L 225.58 349.95 L 226.08 349.95 L 226.58 349.95 L 227.08 349.95 L 227.58 349.95 L 228.08 349.95 L 228.58 349.95 L 229.08 349.95 L 229.58 349.95 L 230.08 349.95 L 230.58 349.95 L 231.08 349.95 L 231.58 349.95 L 232.08 349.95 L 232.58 349.95 L 233.08 349.95 L 233.58 349.95 L 234.08 349.95 L 234.58 349.95 L 235.09 349.95 L 235.59 349.95 L 236.09 349.95 L 236.59 349.95 L 237.09 349.95 L 237.59 349.95 L 238.09 349.95 L 238.59 349.95 L 239.09 349.95 L 239.59 349.95 L 240.09 349.95 L 240.59 349.95 L 241.09 349.95 L 241.59 349.95 L 242.09 349.95 L 242.59 349.95 L 243.09 349.95 L 243.59 349.95 L 244.09 349.95 L 244.59 349.95 L 245.10 349.95 L 245.60 349.95 L 246.10 349.95 L 246.60 349.95 L 247.10 349.95 L 247.60 349.95 L 248.10 349.95 L 248.60 349.95 L 249.10 349.95 L 249.60 349.95 L 250.10 349.95 L 250.60 349.95 L 251.10 349.95 L 251.60 349.95 L 252.10 349.95 L 252.60 349.95 L 253.10 349.95 L 253.60 349.95 L 254.10 349.95 L 254.60 349.95 L 255.11 349.95 L 255.61 349.95 L 256.11 349.95 L 256.61 349.95 L 257.11 349.95 L 257.61 349.95 L 258.11 349.95 L 258.61 349.95 L 259.11 349.95 L 259.61 349.95 L 260.11 349.95 L 260.61 349.95 L 261.11 349.95 L 261.61 349.95 L 262.11 349.95 L 262.61 349.95 L 263.11 349.95 L 263.61 349.95 L 264.11 349.95 L 264.61 349.95 L 265.12 349.95 L 265.62 349.95 L 266.12 349.95 L 266.62 349.95 L 267.12 349.95 L 267.62 349.95 L 268.12 349.95 L 268.62 349.95 L 269.12 349.95 L 269.62 349.95 L 270.12 349.95 L 270.62 349.95 L 271.12 349.95 L 271.62 349.95 L 272.12 349.95 L 272.62 349.95 L 273.12 349.95 L 273.62 349.95 L 274.12 349.95 L 274.62 349.95 L 275.13 349.95 L 275.63 349.95 L 276.13 349.95 L 276.63 349.95 L 277.13 349.95 L 277.63 349.95 L 278.13 349.95 L 278.63 349.95 L 279.13 349.95 L 279.63 349.95 L 280.13 349.95 L 280.63 349.95 L 281.13 349.95 L 281.63 349.95 L 282.13 349.95 L 282.63 349.95 L 283.13 349.95 L 283.63 349.95 L 284.13 349.95 L 284.63 349.95 L 285.14 349.95 L 285.64 349.95 L 286.14 349.95 L 286.64 349.95 L 287.14 349.95 L 287.64 349.95 L 288.14 349.95 L 288.64 349.95 L 289.14 349.95 L 289.64 349.95 L 290.14 349.95 L 290.64 349.95 L 291.14 349.95 L 291.64 349.95 L 292.14 349.95 L 292.64 349.95 L 293.14 349.95 L 293.64 349.95 L 294.14 349.95 L 294.64 349.95 L 295.15 349.95 L 295.65 349.95 L 296.15 349.95 L 296.65 349.95 L 297.15 349.95 L 297.65 349.95 L 298.15 349.95 L 298.65 349.95 L 299.15 349.95 L 299.65 349.95 L 300.15 349.95 L 300.65 349.95 L 301.15 349.95 L 301.65 349.95 L 302.15 349.95 L 302.65 349.95 L 303.15 349.95 L 303.65 349.95 L 304.15 349.95 L 304.65 349.95 L 305.16 349.95 L 305.66 349.95 L 306.16 349.95 L 306.66 349.95 L 307.16 349.95 L 307.66 349.95 L 308.16 349.95 L 308.66 349.95 L 309.16 349.95 L 309.66 349.95 L 310.16 349.95 L 310.66 349.95 L 311.16 349.95 L 311.66 349.95 L 312.16 349.95 L 312.66 349.95 L 313.16 349.95 L 313.66 349.95 L 314.16 349.95 L 314.66 349.95 L 315.17 349.95 L 315.67 349.95 L 316.17 349.95 L 316.67 349.95 L 317.17 349.95 L 317.67 349.95 L 318.17 349.95 L 318.67 349.95 L 319.17 349.95 L 319.67 349.95 L 320.17 349.95 L 320.67 349.95 L 321.17 349.95 L 321.67 349.95 L 322.17 349.95 L 322.67 349.95 L 323.17 349.95 L 323.67 349.95 L 324.17 349.95 L 324.67 349.95 L 325.18 349.95 L 325.68 349.95 L 326.18 349.95 L 326.68 349.95 L 327.18 349.95 L 327.68 349.95 L 328.18 349.95 L 328.68 349.95 L 329.18 349.95 L 329.68 349.95 L 330.18 349.95 L 330.68 349.95 L 331.18 349.95 L 331.68 349.95 L 332.18 349.95 L 332.68 349.95 L 333.18 349.95 L 333.68 349.95 L 334.18 349.95 L 334.68 349.95 L 335.19 349.95 L 335.69 349.95 L 336.19 349.95 L 336.69 349.95 L 337.19 349.95 L 337.69 349.95 L 338.19 349.95 L 338.69 349.95 L 339.19 349.95 L 339.69 349.95 L 340.19 349.95 L 340.69 349.95 L 341.19 349.95 L 341.69 349.95 L 342.19 349.95 L 342.69 349.95 L 343.19 349.95 L 343.69 349.95 L 344.19 349.95 L 344.69 349.95 L 345.20 349.95 L 345.70 349.95 L 346.20 349.95 L 346.70 349.95 L 347.20 349.95 L 347.70 349.95 L 348.20 349.95 L 348.70 349.95 L 349.20 349.95 L 349.70 349.95 L 350.20 349.95 L 350.70 349.95 L 351.20 349.95 L 351.70 349.95 L 352.20 349.95 L 352.70 349.95 L 353.20 349.95 L 353.70 349.95 L 354.20 349.95 L 354.70 349.95 L 355.21 349.95 L 355.71 349.95 L 356.21 349.95 L 356.71 349.95 L 357.21 349.95 L 357.71 349.95 L 358.21 349.95 L 358.71 349.95 L 359.21 349.95 L 359.71 349.95 L 360.21 349.95 L 360.71 349.95 L 361.21 349.95 L 361.71 349.95 L 362.21 349.95 L 362.71 349.95 L 363.21 349.95 L 363.71 349.95 L 364.21 349.95 L 364.71 349.95 L 365.22 349.95 L 365.72 349.95 L 366.22 349.95 L 366.72 349.95 L 367.22 349.95 L 367.72 349.95 L 368.22 349.95 L 368.72 349.95 L 369.22 349.95 L 369.72 349.95 L 370.22 349.95 L 370.72 349.95 L 371.22 349.95 L 371.72 349.95 L 372.22 349.95 L 372.72 349.95 L 373.22 349.95 L 373.72 349.95 L 374.22 349.95 L 374.72 349.95 L 375.23 349.95 L 375.73 349.95 L 376.23 349.95 L 376.73 349.95 L 377.23 349.95 L 377.73 349.95 L 378.23 349.95 L 378.73 349.95 L 379.23 349.95 L 379.73 349.95 L 380.23 349.95 L 380.73 349.95 L 381.23 349.95 L 381.73 349.95 L 382.23 349.95 L 382.73 349.95 L 383.23 349.95 L 383.73 349.95 L 384.23 349.95 L 384.73 349.95 L 385.24 349.95 L 385.74 349.95 L 386.24 349.95 L 386.74 349.95 L 387.24 349.95 L 387.74 349.95 L 388.24 349.95 L 388.74 349.95 L 389.24 349.95 L 389.74 349.95 L 390.24 349.95 L 390.74 349.95 L 391.24 349.95 L 391.74 349.95 L 392.24 349.95 L 392.74 349.95 L 393.24 349.95 L 393.74 349.95 L 394.24 349.95 L 394.74 349.95 L 395.25 349.95 L 395.75 349.95 L 396.25 349.95 L 396.75 349.95 L 397.25 349.95 L 397.75 349.95 L 398.25 349.95 L 398.75 349.95 L 399.25 349.95 L 399.75 349.95 L 400.25 349.95 L 400.75 349.95 L 401.25 349.95 L 401.75 349.95 L 402.25 349.95 L 402.75 349.95 L 403.25 349.95 L 403.75 349.95 L 404.25 349.95 L 404.75 349.95 L 405.26 349.95 L 405.76 349.95 L 406.26 349.95 L 406.76 349.95 L 407.26 349.95 L 407.76 349.95 L 408.26 349.95 L 408.76 349.95 L 409.26 349.95 L 409.76 349.95 L 410.26 349.95 L 410.76 349.95 L 411.26 349.95 L 411.76 349.95 L 412.26 349.95 L 412.76 349.95 L 413.26 349.95 L 413.76 349.95 L 414.26 349.95 L 414.76 349.95 L 415.27 349.95 L 415.77 349.95 L 416.27 349.95 L 416.77 349.95 L 417.27 349.95 L 417.77 349.95 L 418.27 349.95 L 418.77 349.95 L 419.27 349.95 L 419.77 349.95 L 420.27 349.95 L 420.77 349.95 L 421.27 349.95 L 421.77 349.95 L 422.27 349.95 L 422.77 349.95 L 423.27 349.95 L 423.77 349.95 L 424.27 349.95 L 424.77 349.95 L 425.28 349.95 L 425.78 349.95 L 426.28 349.95 L 426.78 349.95 L 427.28 349.95 L 427.78 349.95 L 428.28 349.95 L 428.78 349.95 L 429.28 349.95 L 429.78 349.95 L 430.28 349.95 L 430.78 349.95 L 431.28 349.95 L 431.78 349.95 L 432.28 349.95 L 432.78 349.95 L 433.28 349.95 L 433.78 349.95 L 434.28 349.95 L 434.78 349.95 L 435.29 349.95 L 435.79 349.95 L 436.29 349.95 L 436.79 349.95 L 437.29 349.95 L 437.79 349.95 L 438.29 349.95 L 438.79 349.95 L 439.29 349.95 L 439.79 349.95 L 440.29 349.95 L 440.79 349.95 L 441.29 349.95 L 441.79 349.95 L 442.29 349.95 L 442.79 349.95 L 443.29 349.95 L 443.79 349.95 L 444.29 349.95 L 444.79 349.95 L 445.30 349.95 L 445.80 349.95 L 446.30 349.95 L 446.80 349.95 L 447.30 349.95 L 447.80 349.95 L 448.30 349.95 L 448.80 349.95 L 449.30 349.95 L 449.80 349.95 L 450.30 349.95 L 450.80 349.95 L 451.30 349.95 L 451.80 349.95 L 452.30 349.95 L 452.80 349.95 L 453.30 349.95 L 453.80 349.95 L 454.30 349.95 L 454.80 349.95 L 455.31 349.95 L 455.81 349.95 L 456.31 349.95 L 456.81 349.95 L 457.31 349.95 L 457.81 349.95 L 458.31 349.95 L 458.81 349.95 L 459.31 349.95 L 459.81 349.95 L 460.31 349.95 L 460.81 349.95 L 461.31 349.95 L 461.81 349.95 L 462.31 349.95 L 462.81 349.95 L 463.31 349.95 L 463.81 349.95 L 464.31 349.95 L 464.81 349.95 L 465.32 349.95 L 465.82 349.95 L 466.32 349.95 L 466.82 349.95 L 467.32 349.95 L 467.82 349.95 L 468.32 349.95 L 468.82 349.95 L 469.32 349.95 L 469.82 349.95 L 470.32 349.95 L 470.82 349.95 L 471.32 349.95 L 471.82 349.95 L 472.32 349.95 L 472.82 349.95 L 473.32 349.95 L 473.82 349.95 L 474.32 349.95 L 474.82 349.95 L 475.33 349.95 L 475.83 349.95 L 476.33 349.95 L 476.83 349.95 L 477.33 349.95 L 477.83 349.95 L 478.33 349.95 L 478.83 349.95 L 479.33 349.95 L 479.83 349.95 L 480.33 349.95 L 480.83 349.95 L 481.33 349.95 L 481.83 349.95 L 482.33 349.95 L 482.83 349.95 L 483.33 349.95 L 483.83 349.95 L 484.33 349.95 L 484.83 349.95 L 485.34 349.95 L 485.84 349.95 L 486.34 349.95 L 486.84 349.95 L 487.34 349.95 L 487.84 349.95 L 488.34 349.95 L 488.84 349.95 L 489.34 349.95 L 489.84 349.95 L 490.34 349.95 L 490.84 349.95 L 491.34 349.95 L 491.84 349.95 L 492.34 349.95 L 492.84 349.95 L 493.34 349.95 L 493.84 349.95 L 494.34 349.95 L 494.84 349.95 L 495.35 349.95 L 495.85 349.95 L 496.35 349.95 L 496.85 349.95 L 497.35 349.95 L 497.85 349.95 L 498.35 349.95 L 498.85 349.95 L 499.35 349.95 L 499.85 349.95 L 500.35 349.95 L 500.85 349.95 L 501.35 349.95 L 501.85 349.95 L 502.35 349.95 L 502.85 349.95 L 503.35 349.95 L 503.85 349.95 L 504.35 349.95 L 504.85 349.95 L 505.36 349.95 L 505.86 349.95 L 506.36 349.95 L 506.86 349.95 L 507.36 349.95 L 507.86 349.95 L 508.36 349.95 L 508.86 349.95 L 509.36 349.95 L 509.86 349.95 L 510.36 349.95 L 510.86 349.95 L 511.36 349.95 L 511.86 349.95 L 512.36 349.95 L 512.86 349.95 L 513.36 349.95 L 513.86 349.95 L 514.36 349.95 L 514.86 349.95 L 515.37 349.95 L 515.87 349.95 L 516.37 349.95 L 516.87 349.95 L 517.37 349.95 L 517.87 349.95 L 518.37 349.95 L 518.87 349.95 L 519.37 349.95 L 519.87 349.95 L 520.37 349.95 L 520.87 349.95 L 521.37 349.95 L 521.87 349.95 L 522.37 349.95 L 522.87 349.95 L 523.37 349.95 L 523.87 349.95 L 524.37 349.95 L 524.87 349.95 L 525.38 349.95 L 525.88 349.95 L 526.38 349.95 L 526.88 349.95 L 527.38 349.95 L 527.88 349.95 L 528.38 349.95 L 528.88 349.95 L 529.38 349.95 L 529.88 349.95 L 530.38 349.95 L 530.88 349.95 L 531.38 349.95 L 531.88 349.95 L 532.38 349.95 L 532.88 349.95 L 533.38 349.95 L 533.88 349.95 L 534.38 349.95 L 534.88 349.95 L 535.39 349.95 L 535.89 349.95 L 536.39 349.95 L 536.89 349.95 L 537.39 349.95 L 537.89 349.95 L 538.39 349.95 L 538.89 349.95 L 539.39 349.95 L 539.89 349.95 L 540.39 349.95 L 540.89 349.95 L 541.39 349.95 L 541.89 349.95 L 542.39 349.95 L 542.89 349.95 L 543.39 349.95 L 543.89 349.95 L 544.39 349.95 L 544.89 349.95 L 545.40 349.95 L 545.90 349.95 L 546.40 349.95 L 546.90 349.95 L 547.40 349.95 L 547.90 349.95 L 548.40 349.95 L 548.90 349.95 L 549.40 349.95 L 549.90 349.95 L 550.40 349.95 L 550.90 349.95 L 551.40 349.95 L 551.90 349.95 L 552.40 349.95 L 552.90 349.95 L 553.40 349.95 L 553.90 349.95 L 554.40 349.95 L 554.90 349.95 L 555.41 349.95 L 555.91 349.95 L 556.41 349.95 L 556.91 349.95 L 557.41 349.95 L 557.91 349.95 L 558.41 349.95 L 558.91 349.95 L 559.41 349.95 L 559.91 349.95 L 560.41 349.95 L 560.91 349.95 L 561.41 349.95 L 561.91 349.95 L 562.41 349.95 L 562.91 349.95 L 563.41 349.95 L 563.91 349.95 L 564.41 349.95 L 564.91 349.95 L 565.42 349.95 L 565.92 349.95 L 566.42 349.95 L 566.92 349.95 L 567.42 349.95 L 567.92 349.95 L 568.42 349.95 L 568.92 349.95 L 569.42 349.95 L 569.92 349.95 L 570.42 349.95 L 570.92 349.95 L 571.42 349.95 L 571.92 349.95 L 572.42 349.95 L 572.92 349.95 L 573.42 349.95 L 573.92 349.95 L 574.42 349.95 L 574.92 349.95 L 575.43 349.95 L 575.93 349.95 L 576.43 349.95 L 576.93 349.95 L 577.43 349.95 L 577.93 349.95 L 578.43 349.95 L 578.93 349.95 L 579.43 349.95 L 579.93 349.95 L 580.43 349.95 L 580.93 349.95 L 581.43 349.95 L 581.93 349.95 L 582.43 349.95 L 582.93 349.95 L 583.43 349.95 L 583.93 349.95 L 584.43 349.95 L 584.93 349.95 L 585.44 349.95 L 585.94 349.95 L 586.44 349.95 L 586.94 349.95 L 587.44 349.95 L 587.94 349.95 L 588.44 349.95 L 588.94 349.95 L 589.44 349.95 L 589.94 349.95 L 590.44 349.95 L 590.94 349.95 L 591.44 349.95 L 591.94 349.95 L 592.44 349.95 L 592.94 349.95 L 593.44 349.95 L 593.94 349.95 L 594.44 349.95 L 594.94 349.95 L 595.45 349.95 L 595.95 349.95 L 596.45 349.95 L 596.95 349.95 L 597.45 349.95 L 597.95 349.95 L 598.45 349.95 L 598.95 349.95 L 599.45 349.95 L 599.95 349.95 L 600.45 349.95 L 600.95 349.95 L 601.45 349.95 L 601.95 349.95 L 602.45 349.95 L 602.95 349.95 L 603.45 349.95 L 603.95 349.95 L 604.45 349.95 L 604.95 349.95 L 605.46 349.95 L 605.96 349.95 L 606.46 349.95 L 606.96 349.95 L 607.46 349.95 L 607.96 349.95 L 608.46 349.95 L 608.96 349.95 L 609.46 349.95 L 609.96 349.95 L 610.46 349.95 L 610.96 349.95 L 611.46 349.95 L 611.96 349.95 L 612.46 349.95 L 612.96 349.95 L 613.46 349.95 L 613.96 349.95 L 614.46 349.95 L 614.96 349.95 L 615.47 349.95 L 615.97 349.95 L 616.47 349.95 L 616.97 349.95 L 617.47 349.95 L 617.97 349.95 L 618.47 349.95 L 618.97 349.95 L 619.47 349.95 L 619.97 349.95 L 620.47 349.95 L 620.97 349.95 L 621.47 349.95 L 621.97 349.95 L 622.47 349.95 L 622.97 349.95 L 623.47 349.95 L 623.97 349.95 L 624.47 349.95 L 624.97 349.95 L 625.48 349.95 L 625.98 349.95 L 626.48 349.95 L 626.98 349.95 L 627.48 349.95 L 627.98 349.95 L 628.48 349.95 L 628.98 349.95 L 629.48 349.95 L 629.98 349.95 L 630.48 349.95 L 630.98 349.95 L 631.48 349.95 L 631.98 349.95 L 632.48 349.95 L 632.98 349.95 L 633.48 349.95 L 633.98 349.95 L 634.48 349.95 L 634.98 349.95 L 635.49 349.95 L 635.99 349.95 L 636.49 349.95 L 636.99 349.95 L 637.49 349.95 L 637.99 349.95 L 638.49 349.95 L 638.99 349.95 L 639.49 349.95 L 639.99 349.95 L 640.49 349.95 L 640.99 349.95 L 641.49 349.95 L 641.99 349.95 L 642.49 349.95 L 642.99 349.95 L 643.49 349.95 L 643.99 349.95 L 644.49 349.95 L 644.99 349.95 L 645.50 349.95 L 646.00 349.95 L 646.50 349.95 L 647.00 349.95 L 647.50 349.95 L 648.00 349.95 L 648.50 349.95 L 649.00 349.95 L 649.50 349.95 L 650.00 349.95" /><text  class="poloto_text poloto_legend_text" x="675" y="350" >derivative 4</text><line  class="poloto_line poloto_legend_icon poloto5stroke poloto5legend" stroke="black" x1="680" x2="730" y1="331.25" y2="331.25" /><path  class="poloto_line poloto5stroke" fill="none" stroke="black" d=" M 150.00 349.95 L 150.50 349.95 L 151.00 349.95 L 151.50 349.95 L 152.00 349.95 L 152.50 349.95 L 153.00 349.95 L 153.50 349.95 L 154.00 349.95 L 154.50 349.95 L 155.01 349.95 L 155.51 349.95 L 156.01 349.95 L 156.51 349.95 L 157.01 349.95 L 157.51 349.95 L 158.01 349.95 L 158.51 349.95 L 159.01 349.95 L 159.51 349.95 L 160.01 349.95 L 160.51 349.95 L 161.01 349.95 L 161.51 349.95 L 162.01 349.95 L 162.51 349.95 L 163.01 349.95 L 163.51 349.95 L 164.01 349.95 L 164.51 349.95 L 165.02 349.95 L 165.52 349.95 L 166.02 349.95 L 166.52 349.95 L 167.02 349.95 L 167.52 349.95 L 168.02 349.95 L 168.52 349.95 L 169.02 349.95 L 169.52 349.95 L 170.02 349.95 L 170.52 349.95 L 171.02 349.95 L 171.52 349.95 L 172.02 349.95 L 172.52 349.95 L 173.02 349.95 L 173.52 349.95 L 174.02 349.95 L 174.52 349.95 L 175.03 349.95 L 175.53 349.95 L 176.03 349.95 L 176.53 349.95 L 177.03 349.95 L 177.53 349.95 L 178.03 349.95 L 178.53 349.95 L 179.03 349.95 L 179.53 349.95 L 180.03 349.95 L 180.53 349.95 L 181.03 349.95 L 181.53 349.95 L 182.03 349.95 L 182.53 349.95 L 183.03 349.95 L 183.53 349.95 L 184.03 349.95 L 184.53 349.95 L 185.04 349.95 L 185.54 349.95 L 186.04 349.95 L 186.54 349.95 L 187.04 349.95 L 187.54 349.95 L 188.04 349.95 L 188.54 349.95 L 189.04 349.95 L 189.54 349.95 L 190.04 349.95 L 190.54 349.95 L 191.04 349.95 L 191.54 349.95 L 192.04 349.95 L 192.54 349.95 L 193.04 349.95 L 193.54 349.95 L 194.04 349.95 L 194.54 349.95 L 195.05 349.95 L 195.55 349.95 L 196.05 349.95 L 196.55 349.95 L 197.05 349.95 L 197.55 349.95 L 198.05 349.95 L 198.55 349.95 L 199.05 349.95 L 199.55 349.95 L 200.05 349.95 L 200.55 349.95 L 201.05 349.95 L 201.55 349.95 L 202.05 349.95 L 202.55 349.95 L 203.05 349.95 L 203.55 349.95 L 204.05 349.95 L 204.55 349.95 L 205.06 349.95 L 205.56 349.95 L 206.06 349.95 L 206.56 349.95 L 207.06 349.95 L 207.56 349.95 L 208.06 349.95 L 208.56 349.95 L 209.06 349.95 L 209.56 349.95 L 210.06 349.95 L 210.56 349.95 L 211.06 349.95 L 211.56 349.95 L 212.06 349.95 L 212.56 349.95 L 213.06 349.95 L 213.56 349.95 L 214.06 349.95 L 214.56 349.95 L 215.07 349.95 L 215.57 349.95 L 216.07 349.95 L 216.57 349.95 L 217.07 349.95 L 217.57 349.95 L 218.07 349.95 L 218.57 349.95 L 219.07 349.95 L 219.57 349.95 L 220.07 349.95 L 220.57 349.95 L 221.07 349.95 L 221.57 349.95 L 222.07 349.95 L 222.57 349.95 L 223.07 349.95 L 223.57 349.95 L 224.07 349.95 L 224.57 349.95 L 225.08 349.95 L 225.58 349.95 L 226.08 349.95 L 226.58 349.95 L 227.08 349.95 L 227.58 349.95 L 228.08 349.95 L 228.58 349.95 L 229.08 349.95 L 229.58 349.95 L 230.08 349.95 L 230.58 349.95 L 231.08 349.95 L 231.58 349.95 L 232.08 349.95 L 232.58 349.95 L 233.08 349.95 L 233.58 349.95 L 234.08 349.95 L 234.58 349.95 L 235.09 349.95 L 235.59 349.95 L 236.09 349.95 L 236.59 349.95 L 237.09 349.95 L 237.59 349.95 L 238.09 349.95 L 238.59 349.95 L 239.09 349.95 L 239.59 349.95 L 240.09 349.95 L 240.59 349.95 L 241.09 349.95 L 241.59 349.95 L 242.09 349.95 L 242.59 349.95 L 243.09 349.95 L 243.59 349.95 L 244.09 349.95 L 244.59 349.95 L 245.10 349.95 L 245.60 349.95 L 246.10 349.95 L 246.60 349.95 L 247.10 349.95 L 247.60 349.95 L 248.10 349.95 L 248.60 349.95 L 249.10 349.95 L 249.60 349.95 L 250.10 349.95 L 250.60 349.95 L 251.10 349.95 L 251.60 349.95 L 252.10 349.95 L 252.60 349.95 L 253.10 349.95 L 253.60 349.95 L 254.10 349.95 L 254.60 349.95 L 255.11 349.95 L 255.61 349.95 L 256.11 349.95 L 256.61 349.95 L 257.11 349.95 L 257.61 349.95 L 258.11 349.95 L 258.61 349.95 L 259.11 349.95 L 259.61 349.95 L 260.11 349.95 L 260.61 349.95 L 261.11 349.95 L 261.61 349.95 L 262.11 349.95 L 262.61 349.95 L 263.11 349.95 L 263.61 349.95 L 264.11 349.95 L 264.61 349.95 L 265.12 349.95 L 265.62 349.95 L 266.12 349.95 L 266.62 349.95 L 267.12 349.95 L 267.62 349.95 L 268.12 349.95 L 268.62 349.95 L 269.12 349.95 L 269.62 349.95 L 270.12 349.95 L 270.62 349.95 L 271.12 349.95 L 271.62 349.95 L 272.12 349.95 L 272.62 349.95 L 273.12 349.95 L 273.62 349.95 L 274.12 349.95 L 274.62 349.95 L 275.13 349.95 L 275.63 349.95 L 276.13 349.95 L 276.63 349.95 L 277.13 349.95 L 277.63 349.95 L 278.13 349.95 L 278.63 349.95 L 279.13 349.95 L 279.63 349.95 L 280.13 349.95 L 280.63 349.95 L 281.13 349.95 L 281.63 349.95 L 282.13 349.95 L 282.63 349.95 L 283.13 349.95 L 283.63 349.95 L 284.13 349.95 L 284.63 349.95 L 285.14 349.95 L 285.64 349.95 L 286.14 349.95 L 286.64 349.95 L 287.14 349.95 L 287.64 349.95 L 288.14 349.95 L 288.64 349.95 L 289.14 349.95 L 289.64 349.95 L 290.14 349.95 L 290.64 349.95 L 291.14 349.95 L 291.64 349.95 L 292.14 349.95 L 292.64 349.95 L 293.14 349.95 L 293.64 349.95 L 294.14 349.95 L 294.64 349.95 L 295.15 349.95 L 295.65 349.95 L 296.15 349.95 L 296.65 349.95 L 297.15 349.95 L 297.65 349.95 L 298.15 349.95 L 298.65 349.95 L 299.15 349.95 L 299.65 349.95 L 300.15 349.95 L 300.65 349.95 L 301.15 349.95 L 301.65 349.95 L 302.15 349.95 L 302.65 349.95 L 303.15 349.95 L 303.65 349.95 L 304.15 349.95 L 304.65 349.95 L 305.16 349.95 L 305.66 349.95 L 306.16 349.95 L 306.66 349.95 L 307.16 349.95 L 307.66 349.95 L 308.16 349.95 L 308.66 349.95 L 309.16 349.95 L 309.66 349.95 L 310.16 349.95 L 310.66 349.95 L 311.16 349.95 L 311.66 349.95 L 312.16 349.95 L 312.66 349.95 L 313.16 349.95 L 313.66 349.95 L 314.16 349.95 L 314.66 349.95 L 315.17 349.95 L 315.67 349.95 L 316.17 349.95 L 316.67 349.95 L 317.17 349.95 L 317.67 349.95 L 318.17 349.95 L 318.67 349.95 L 319.17 349.95 L 319.67 349.95 L 320.17 349.95 L 320.67 349.95 L 321.17 349.95 L 321.67 349.95 L 322.17 349.95 L 322.67 349.95 L 323.17 349.95 L 323.67 349.95 L 324.17 349.95 L 324.67 349.95 L 325.18 349.95 L 325.68 349.95 L 326.18 349.95 L 326.68 349.95 L 327.18 349.95 L 327.68 349.95 L 328.18 349.95 L 328.68 349.95 L 329.18 349.95 L 329.68 349.95 L 330.18 349.95 L 330.68 349.95 L 331.18 349.95 L 331.68 349.95 L 332.18 349.95 L 332.68 349.95 L 333.18 349.95 L 333.68 349.95 L 334.18 349.95 L 334.68 349.95 L 335.19 349.95 L 335.69 349.95 L 336.19 349.95 L 336.69 349.95 L 337.19 349.95 L 337.69 349.95 L 338.19 349.95 L 338.69 349.95 L 339.19 349.95 L 339.69 349.95 L 340.19 349.95 L 340.69 349.95 L 341.19 349.95 L 341.69 349.95 L 342.19 349.95 L 342.69 349.95 L 343.19 349.95 L 343.69 349.95 L 344.19 349.95 L 344.69 349.95 L 345.20 349.95 L 345.70 349.95 L 346.20 349.95 L 346.70 349.95 L 347.20 349.95 L 347.70 349.95 L 348.20 349.95 L 348.70 349.95 L 349.20 349.95 L 349.70 349.95 L 350.20 349.95 L 350.70 349.95 L 351.20 349.95 L 351.70 349.95 L 352.20 349.95 L 352.70 349.95 L 353.20 349.95 L 353.70 349.95 L 354.20 349.95 L 354.70 349.95 L 355.21 349.95 L 355.71 349.95 L 356.21 349.95 L 356.71 349.95 L 357.21 349.95 L 357.71 349.95 L 358.21 349.95 L 358.71 349.95 L 359.21 349.95 L 359.71 349.95 L 360.21 349.95 L 360.71 349.95 L 361.21 349.95 L 361.71 349.95 L 362.21 349.95 L 362.71 349.95 L 363.21 349.95 L 363.71 349.95 L 364.21 349.95 L 364.71 349.95 L 365.22 349.95 L 365.72 349.95 L 366.22 349.95 L 366.72 349.95 L 367.22 349.95 L 367.72 349.95 L 368.22 349.95 L 368.72 349.95 L 369.22 349.95 L 369.72 349.95 L 370.22 349.95 L 370.72 349.95 L 371.22 349.95 L 371.72 349.95 L 372.22 349.95 L 372.72 349.95 L 373.22 349.95 L 373.72 349.95 L 374.22 349.95 L 374.72 349.95 L 375.23 349.95 L 375.73 349.95 L 376.23 349.95 L 376.73 349.95 L 377.23 349.95 L 377.73 349.95 L 378.23 349.95 L 378.73 349.95 L 379.23 349.95 L 379.73 349.95 L 380.23 349.95 L 380.73 349.95 L 381.23 349.95 L 381.73 349.95 L 382.23 349.95 L 382.73 349.95 L 383.23 349.95 L 383.73 349.95 L 384.23 349.95 L 384.73 349.95 L 385.24 349.95 L 385.74 349.95 L 386.24 349.95 L 386.74 349.95 L 387.24 349.95 L 387.74 349.95 L 388.24 349.95 L 388.74 349.95 L 389.24 349.95 L 389.74 349.95 L 390.24 349.95 L 390.74 349.95 L 391.24 349.95 L 391.74 349.95 L 392.24 349.95 L 392.74 349.95 L 393.24 349.95 L 393.74 349.95 L 394.24 349.95 L 394.74 349.95 L 395.25 349.95 L 395.75 349.95 L 396.25 349.95 L 396.75 349.95 L 397.25 349.95 L 397.75 349.95 L 398.25 349.95 L 398.75 349.95 L 399.25 349.95 L 399.75 349.95 L 400.25 349.95 L 400.75 349.95 L 401.25 349.95 L 401.75 349.95 L 402.25 349.95 L 402.75 349.95 L 403.25 349.95 L 403.75 349.95 L 404.25 349.95 L 404.75 349.95 L 405.26 349.95 L 405.76 349.95 L 406.26 349.95 L 406.76 349.95 L 407.26 349.95 L 407.76 349.95 L 408.26 349.95 L 408.76 349.95 L 409.26 349.95 L 409.76 349.95 L 410.26 349.95 L 410.76 349.95 L 411.26 349.95 L 411.76 349.95 L 412.26 349.95 L 412.76 349.95 L 413.26 349.95 L 413.76 349.95 L 414.26 349.95 L 414.76 349.95 L 415.27 349.95 L 415.77 349.95 L 416.27 349.95 L 416.77 349.95 L 417.27 349.95 L 417.77 349.95 L 418.27 349.95 L 418.77 349.95 L 419.27 349.95 L 419.77 349.95 L 420.27 349.95 L 420.77 349.95 L 421.27 349.95 L 421.77 349.95 L 422.27 349.95 L 422.77 349.95 L 423.27 349.95 L 423.77 349.95 L 424.27 349.95 L 424.77 349.95 L 425.28 349.95 L 425.78 349.95 L 426.28 349.95 L 426.78 349.95 L 427.28 349.95 L 427.78 349.95 L 428.28 349.95 L 428.78 349.95 L 429.28 349.95 L 429.78 349.95 L 430.28 349.95 L 430.78 349.95 L 431.28 349.95 L 431.78 349.95 L 432.28 349.95 L 432.78 349.95 L 433.28 349.95 L 433.78 349.95 L 434.28 349.95 L 434.78 349.95 L 435.29 349.95 L 435.79 349.95 L 436.29 349.95 L 436.79 349.95 L 437.29 349.95 L 437.79 349.95 L 438.29 349.95 L 438.79 349.95 L 439.29 349.95 L 439.79 349.95 L 440.29 349.95 L 440.79 349.95 L 441.29 349.95 L 441.79 349.95 L 442.29 349.95 L 442.79 349.95 L 443.29 349.95 L 443.79 349.95 L 444.29 349.95 L 444.79 349.95 L 445.30 349.95 L 445.80 349.95 L 446.30 349.95 L 446.80 349.95 L 447.30 349.95 L 447.80 349.95 L 448.30 349.95 L 448.80 349.95 L 449.30 349.95 L 449.80 349.95 L 450.30 349.95 L 450.80 349.95 L 451.30 349.95 L 451.80 349.95 L 452.30 349.95 L 452.80 349.95 L 453.30 349.95 L 453.80 349.95 L 454.30 349.95 L 454.80 349.95 L 455.31 349.95 L 455.81 349.95 L 456.31 349.95 L 456.81 349.95 L 457.31 349.95 L 457.81 349.95 L 458.31 349.95 L 458.81 349.95 L 459.31 349.95 L 459.81 349.95 L 460.31 349.95 L 460.81 349.95 L 461.31 349.95 L 461.81 349.95 L 462.31 349.95 L 462.81 349.95 L 463.31 349.95 L 463.81 349.95 L 464.31 349.95 L 464.81 349.95 L 465.32 349.95 L 465.82 349.95 L 466.32 349.95 L 466.82 349.95 L 467.32 349.95 L 467.82 349.95 L 468.32 349.95 L 468.82 349.95 L 469.32 349.95 L 469.82 349.95 L 470.32 349.95 L 470.82 349.95 L 471.32 349.95 L 471.82 349.95 L 472.32 349.95 L 472.82 349.95 L 473.32 349.95 L 473.82 349.95 L 474.32 349.95 L 474.82 349.95 L 475.33 349.95 L 475.83 349.95 L 476.33 349.95 L 476.83 349.95 L 477.33 349.95 L 477.83 349.95 L 478.33 349.95 L 478.83 349.95 L 479.33 349.95 L 479.83 349.95 L 480.33 349.95 L 480.83 349.95 L 481.33 349.95 L 481.83 349.95 L 482.33 349.95 L 482.83 349.95 L 483.33 349.95 L 483.83 349.95 L 484.33 349.95 L 484.83 349.95 L 485.34 349.95 L 485.84 349.95 L 486.34 349.95 L 486.84 349.95 L 487.34 349.95 L 487.84 349.95 L 488.34 349.95 L 488.84 349.95 L 489.34 349.95 L 489.84 349.95 L 490.34 349.95 L 490.84 349.95 L 491.34 349.95 L 491.84 349.95 L 492.34 349.95 L 492.84 349.95 L 493.34 349.95 L 493.84 349.95 L 494.34 349.95 L 494.84 349.95 L 495.35 349.95 L 495.85 349.95 L 496.35 349.95 L 496.85 349.95 L 497.35 349.95 L 497.85 349.95 L 498.35 349.95 L 498.85 349.95 L 499.35 349.95 L 499.85 349.95 L 500.35 349.95 L 500.85 349.95 L 501.35 349.95 L 501.85 349.95 L 502.35 349.95 L 502.85 349.95 L 503.35 349.95 L 503.85 349.95 L 504.35 349.95 L 504.85 349.95 L 505.36 349.95 L 505.86 349.95 L 506.36 349.95 L 506.86 349.95 L 507.36 349.95 L 507.86 349.95 L 508.36 349.95 L 508.86 349.95 L 509.36 349.95 L 509.86 349.95 L 510.36 349.95 L 510.86 349.95 L 511.36 349.95 L 511.86 349.95 L 512.36 349.95 L 512.86 349.95 L 513.36 349.95 L 513.86 349.95 L 514.36 349.95 L 514.86 349.95 L 515.37 349.95 L 515.87 349.95 L 516.37 349.95 L 516.87 349.95 L 517.37 349.95 L 517.87 349.95 L 518.37 349.95 L 518.87 349.95 L 519.37 349.95 L 519.87 349.95 L 520.37 349.95 L 520.87 349.95 L 521.37 349.95 L 521.87 349.95 L 522.37 349.95 L 522.87 349.95 L 523.37 349.95 L 523.87 349.95 L 524.37 349.95 L 524.87 349.95 L 525.38 349.95 L 525.88 349.95 L 526.38 349.95 L 526.88 349.95 L 527.38 349.95 L 527.88 349.95 L 528.38 349.95 L 528.88 349.95 L 529.38 349.95 L 529.88 349.95 L 530.38 349.95 L 530.88 349.95 L 531.38 349.95 L 531.88 349.95 L 532.38 349.95 L 532.88 349.95 L 533.38 349.95 L 533.88 349.95 L 534.38 349.95 L 534.88 349.95 L 535.39 349.95 L 535.89 349.95 L 536.39 349.95 L 536.89 349.95 L 537.39 349.95 L 537.89 349.95 L 538.39 349.95 L 538.89 349.95 L 539.39 349.95 L 539.89 349.95 L 540.39 349.95 L 540.89 349.95 L 541.39 349.95 L 541.89 349.95 L 542.39 349.95 L 542.89 349.95 L 543.39 349.95 L 543.89 349.95 L 544.39 349.95 L 544.89 349.95 L 545.40 349.95 L 545.90 349.95 L 546.40 349.95 L 546.90 349.95 L 547.40 349.95 L 547.90 349.95 L 548.40 349.95 L 548.90 349.95 L 549.40 349.95 L 549.90 349.95 L 550.40 349.95 L 550.90 349.95 L 551.40 349.95 L 551.90 349.95 L 552.40 349.95 L 552.90 349.95 L 553.40 349.95 L 553.90 349.95 L 554.40 349.95 L 554.90 349.95 L 555.41 349.95 L 555.91 349.95 L 556.41 349.95 L 556.91 349.95 L 557.41 349.95 L 557.91 349.95 L 558.41 349.95 L 558.91 349.95 L 559.41 349.95 L 559.91 349.95 L 560.41 349.95 L 560.91 349.95 L 561.41 349.95 L 561.91 349.95 L 562.41 349.95 L 562.91 349.95 L 563.41 349.95 L 563.91 349.95 L 564.41 349.95 L 564.91 349.95 L 565.42 349.95 L 565.92 349.95 L 566.42 349.95 L 566.92 349.95 L 567.42 349.95 L 567.92 349.95 L 568.42 349.95 L 568.92 349.95 L 569.42 349.95 L 569.92 349.95 L 570.42 349.95 L 570.92 349.95 L 571.42 349.95 L 571.92 349.95 L 572.42 349.95 L 572.92 349.95 L 573.42 349.95 L 573.92 349.95 L 574.42 349.95 L 574.92 349.95 L 575.43 349.95 L 575.93 349.95 L 576.43 349.95 L 576.93 349.95 L 577.43 349.95 L 577.93 349.95 L 578.43 349.95 L 578.93 349.95 L 579.43 349.95 L 579.93 349.95 L 580.43 349.95 L 580.93 349.95 L 581.43 349.95 L 581.93 349.95 L 582.43 349.95 L 582.93 349.95 L 583.43 349.95 L 583.93 349.95 L 584.43 349.95 L 584.93 349.95 L 585.44 349.95 L 585.94 349.95 L 586.44 349.95 L 586.94 349.95 L 587.44 349.95 L 587.94 349.95 L 588.44 349.95 L 588.94 349.95 L 589.44 349.95 L 589.94 349.95 L 590.44 349.95 L 590.94 349.95 L 591.44 349.95 L 591.94 349.95 L 592.44 349.95 L 592.94 349.95 L 593.44 349.95 L 593.94 349.95 L 594.44 349.95 L 594.94 349.95 L 595.45 349.95 L 595.95 349.95 L 596.45 349.95 L 596.95 349.95 L 597.45 349.95 L 597.95 349.95 L 598.45 349.95 L 598.95 349.95 L 599.45 349.95 L 599.95 349.95 L 600.45 349.95 L 600.95 349.95 L 601.45 349.95 L 601.95 349.95 L 602.45 349.95 L 602.95 349.95 L 603.45 349.95 L 603.95 349.95 L 604.45 349.95 L 604.95 349.95 L 605.46 349.95 L 605.96 349.95 L 606.46 349.95 L 606.96 349.95 L 607.46 349.95 L 607.96 349.95 L 608.46 349.95 L 608.96 349.95 L 609.46 349.95 L 609.96 349.95 L 610.46 349.95 L 610.96 349.95 L 611.46 349.95 L 611.96 349.95 L 612.46 349.95 L 612.96 349.95 L 613.46 349.95 L 613.96 349.95 L 614.46 349.95 L 614.96 349.95 L 615.47 349.95 L 615.97 349.95 L 616.47 349.95 L 616.97 349.95 L 617.47 349.95 L 617.97 349.95 L 618.47 349.95 L 618.97 349.95 L 619.47 349.95 L 619.97 349.95 L 620.47 349.95 L 620.97 349.95 L 621.47 349.95 L 621.97 349.95 L 622.47 349.95 L 622.97 349.95 L 623.47 349.95 L 623.97 349.95 L 624.47 349.95 L 624.97 349.95 L 625.48 349.95 L 625.98 349.95 L 626.48 349.95 L 626.98 349.95 L 627.48 349.95 L 627.98 349.95 L 628.48 349.95 L 628.98 349.95 L 629.48 349.95 L 629.98 349.95 L 630.48 349.95 L 630.98 349.95 L 631.48 349.95 L 631.98 349.95 L 632.48 349.95 L 632.98 349.95 L 633.48 349.95 L 633.98 349.95 L 634.48 349.95 L 634.98 349.95 L 635.49 349.95 L 635.99 349.95 L 636.49 349.95 L 636.99 349.95 L 637.49 349.95 L 637.99 349.95 L 638.49 349.95 L 638.99 349.95 L 639.49 349.95 L 639.99 349.95 L 640.49 349.95 L 640.99 349.95 L 641.49 349.95 L 641.99 349.95 L 642.49 349.95 L 642.99 349.95 L 643.49 349.95 L 643.99 349.95 L 644.49 349.95 L 644.99 349.95 L 645.50 349.95 L 646.00 349.95 L 646.50 349.95 L 647.00 349.95 L 647.50 349.95 L 648.00 349.95 L 648.50 349.95 L 649.00 349.95 L 649.50 349.95 L 650.00 349.95" /><text  class="poloto_labels poloto_text poloto_title" x="400" y="37.5" >bspline example 1 a</text><text  class="poloto_labels poloto_text poloto_xname" x="400" y="481.25" >x</text><text  class="poloto_labels poloto_text poloto_yname" transform="rotate(-90,37.5,250)" x="37.5" y="250" >y</text><text  class="poloto_tick_labels poloto_text" dominant-baseline="middle" text-anchor="start" x="150" y="70" ></text><line  class="poloto_axis_lines" stroke="black" x1="150" x2="144" y1="400" y2="400" /><text  class="poloto_tick_labels poloto_text" dominant-baseline="middle" text-anchor="end" x="135" y="400" >-1</text><line  class="poloto_axis_lines" stroke="black" x1="150" x2="144" y1="349.9499535811709" y2="349.9499535811709" /><text  class="poloto_tick_labels poloto_text" dominant-baseline="middle" text-anchor="end" x="135" y="349.9499535811709" >0</text><line  class="poloto_axis_lines" stroke="black" x1="150" x2="144" y1="299.89990716234183" y2="299.89990716234183" /><text  class="poloto_tick_labels poloto_text" dominant-baseline="middle" text-anchor="end" x="135" y="299.89990716234183" >1</text><line  class="poloto_axis_lines" stroke="black" x1="150" x2="144" y1="249.8498607435127" y2="249.8498607435127" /><text  class="poloto_tick_labels poloto_text" dominant-baseline="middle" text-anchor="end" x="135" y="249.8498607435127" >2</text><line  class="poloto_axis_lines" stroke="black" x1="150" x2="144" y1="199.7998143246836" y2="199.7998143246836" /><text  class="poloto_tick_labels poloto_text" dominant-baseline="middle" text-anchor="end" x="135" y="199.7998143246836" >3</text><line  class="poloto_axis_lines" stroke="black" x1="150" x2="144" y1="149.74976790585453" y2="149.74976790585453" /><text  class="poloto_tick_labels poloto_text" dominant-baseline="middle" text-anchor="end" x="135" y="149.74976790585453" >4</text><text  class="poloto_tick_labels poloto_text" dominant-baseline="middle" text-anchor="start" x="440.00000000000006" y="70" ></text><line  class="poloto_axis_lines" stroke="black" x1="150" x2="150" y1="400" y2="405" /><text  class="poloto_tick_labels poloto_text" dominant-baseline="start" text-anchor="middle" x="150" y="430" >0.0</text><line  class="poloto_axis_lines" stroke="black" x1="233.4167506673851" x2="233.4167506673851" y1="400" y2="405" /><text  class="poloto_tick_labels poloto_text" dominant-baseline="start" text-anchor="middle" x="233.4167506673851" y="430" >0.5</text><line  class="poloto_axis_lines" stroke="black" x1="316.8335013347702" x2="316.8335013347702" y1="400" y2="405" /><text  class="poloto_tick_labels poloto_text" dominant-baseline="start" text-anchor="middle" x="316.8335013347702" y="430" >1.0</text><line  class="poloto_axis_lines" stroke="black" x1="400.2502520021552" x2="400.2502520021552" y1="400" y2="405" /><text  class="poloto_tick_labels poloto_text" dominant-baseline="start" text-anchor="middle" x="400.2502520021552" y="430" >1.5</text><line  class="poloto_axis_lines" stroke="black" x1="483.6670026695403" x2="483.6670026695403" y1="400" y2="405" /><text  class="poloto_tick_labels poloto_text" dominant-baseline="start" text-anchor="middle" x="483.6670026695403" y="430" >2.0</text><line  class="poloto_axis_lines" stroke="black" x1="567.0837533369254" x2="567.0837533369254" y1="400" y2="405" /><text  class="poloto_tick_labels poloto_text" dominant-baseline="start" text-anchor="middle" x="567.0837533369254" y="430" >2.5</text><path  stroke="black" fill="none" class="poloto_axis_lines" style="stroke-dasharray:8.341675066738507;stroke-dashoffset:-0;" d=" M 150 400 L 650 400" /><path  stroke="black" fill="none" class="poloto_axis_lines" style="stroke-dasharray:12.512511604707274;stroke-dashoffset:-0;" d=" M 150 400 L 150 100" /></svg>