<svg class="poloto" width="800" height="500" viewBox="0 0 800 500" xmlns="http://www.w3.org/2000/svg"><style>.poloto{stroke-linecap:round;stroke-linejoin:round;font-family:Roboto,sans-serif;font-size:16px;}.poloto_background{fill:AliceBlue;}.poloto_scatter{stroke-width:7}.poloto_tick_line{stroke:gray;stroke-width:0.5}.poloto_line{stroke-width:2}.poloto_text{fill: black;}.poloto_axis_lines{stroke: black;stroke-width:3;fill:none;stroke-dasharray:none}.poloto_title{font-size:24px;dominant-baseline:start;text-anchor:middle;}.poloto_xname{font-size:24px;dominant-baseline:start;text-anchor:middle;}.poloto_yname{font-size:24px;dominant-baseline:start;text-anchor:middle;}.poloto_legend_text{font-size:20px;dominant-baseline:middle;text-anchor:start;}.poloto0stroke{stroke:blue;}.poloto1stroke{stroke:red;}.poloto2stroke{stroke:green;}.poloto3stroke{stroke:gold;}.poloto4stroke{stroke:aqua;}.poloto5stroke{stroke:lime;}.poloto6stroke{stroke:orange;}.poloto7stroke{stroke:chocolate;}.poloto0fill{fill:blue;}.poloto1fill{fill:red;}.poloto2fill{fill:green;}.poloto3fill{fill:gold;}.poloto4fill{fill:aqua;}.poloto5fill{fill:lime;}.poloto6fill{fill:orange;}.poloto7fill{fill:chocolate;}</style><circle  r="1e5" class="poloto_background" /><text  class="poloto_text poloto_legend_text" x="675" y="100" >knot</text><line  class="poloto_scatter poloto_legend_icon poloto0stroke poloto0legend" stroke="black" x1="685" x2="685" y1="81.25" y2="81.25" /><path  class="poloto_scatter poloto0stroke" d=" M 400.25 400.00 h 0" /><text  class="poloto_text poloto_legend_text" x="675" y="150" >curve</text><line  class="poloto_line poloto_legend_icon poloto1stroke poloto1legend" stroke="black" x1="680" x2="730" y1="131.25" y2="131.25" /><path  class="poloto_line poloto1stroke" fill="none" stroke="black" d=" M 150.00 100.00 L 150.50 100.00 L 151.00 100.00 L 151.50 100.00 L 152.00 100.00 L 152.50 100.00 L 153.00 100.00 L 153.50 100.00 L 154.00 100.00 L 154.50 100.00 L 155.01 100.00 L 155.51 100.00 L 156.01 100.00 L 156.51 100.00 L 157.01 100.00 L 157.51 100.00 L 158.01 100.00 L 158.51 100.00 L 159.01 100.00 L 159.51 100.00 L 160.01 100.00 L 160.51 100.00 L 161.01 100.00 L 161.51 100.00 L 162.01 100.00 L 162.51 100.00 L 163.01 100.00 L 163.51 100.00 L 164.01 100.00 L 164.51 100.00 L 165.02 100.00 L 165.52 100.00 L 166.02 100.00 L 166.52 100.00 L 167.02 100.00 L 167.52 100.00 L 168.02 100.00 L 168.52 100.00 L 169.02 100.00 L 169.52 100.00 L 170.02 100.00 L 170.52 100.00 L 171.02 100.00 L 171.52 100.00 L 172.02 100.00 L 172.52 100.00 L 173.02 100.00 L 173.52 100.00 L 174.02 100.00 L 174.52 100.00 L 175.03 100.00 L 175.53 100.00 L 176.03 100.00 L 176.53 100.00 L 177.03 100.00 L 177.53 100.00 L 178.03 100.00 L 178.53 100.00 L 179.03 100.00 L 179.53 100.00 L 180.03 100.00 L 180.53 100.00 L 181.03 100.00 L 181.53 100.00 L 182.03 100.00 L 182.53 100.00 L 183.03 100.00 L 183.53 100.00 L 184.03 100.00 L 184.53 100.00 L 185.04 100.00 L 185.54 100.00 L 186.04 100.00 L 186.54 100.00 L 187.04 100.00 L 187.54 100.00 L 188.04 100.00 L 188.54 100.00 L 189.04 100.00 L 189.54 100.00 L 190.04 100.00 L 190.54 100.00 L 191.04 100.00 L 191.54 100.00 L 192.04 100.00 L 192.54 100.00 L 193.04 100.00 L 193.54 100.00 L 194.04 100.00 L 194.54 100.00 L 195.05 100.00 L 195.55 100.00 L 196.05 100.00 L 196.55 100.00 L 197.05 100.00 L 197.55 100.00 L 198.05 100.00 L 198.55 100.00 L 199.05 100.00 L 199.55 100.00 L 200.05 100.00 L 200.55 100.00 L 201.05 100.00 L 201.55 100.00 L 202.05 100.00 L 202.55 100.00 L 203.05 100.00 L 203.55 100.00 L 204.05 100.00 L 204.55 100.00 L 205.06 100.00 L 205.56 100.00 L 206.06 100.00 L 206.56 100.00 L 207.06 100.00 L 207.56 100.00 L 208.06 100.00 L 208.56 100.00 L 209.06 100.00 L 209.56 100.00 L 210.06 100.00 L 210.56 100.00 L 211.06 100.00 L 211.56 100.00 L 212.06 100.00 L 212.56 100.00 L 213.06 100.00 L 213.56 100.00 L 214.06 100.00 L 214.56 100.00 L 215.07 100.00 L 215.57 100.00 L 216.07 100.00 L 216.57 100.00 L 217.07 100.00 L 217.57 100.00 L 218.07 100.00 L 218.57 100.00 L 219.07 100.00 L 219.57 100.00 L 220.07 100.00 L 220.57 100.00 L 221.07 100.00 L 221.57 100.00 L 222.07 100.00 L 222.57 100.00 L 223.07 100.00 L 223.57 100.00 L 224.07 100.00 L 224.57 100.00 L 225.08 100.00 L 225.58 100.00 L 226.08 100.00 L 226.58 100.00 L 227.08 100.00 L 227.58 100.00 L 228.08 100.00 L 228.58 100.00 L 229.08 100.00 L 229.58 100.00 L 230.08 100.00 L 230.58 100.00 L 231.08 100.00 L 231.58 100.00 L 232.08 100.00 L 232.58 100.00 L 233.08 100.00 L 233.58 100.00 L 234.08 100.00 L 234.58 100.00 L 235.09 100.00 L 235.59 100.00 L 236.09 100.00 L 236.59 100.00 L 237.09 100.00 L 237.59 100.00 L 238.09 100.00 L 238.59 100.00 L 239.09 100.00 L 239.59 100.00 L 240.09 100.00 L 240.59 100.00 L 241.09 100.00 L 241.59 100.00 L 242.09 100.00 L 242.59 100.00 L 243.09 100.00 L 243.59 100.00 L 244.09 100.00 L 244.59 100.00 L 245.10 100.00 L 245.60 100.00 L 246.10 100.00 L 246.60 100.00 L 247.10 100.00 L 247.60 100.00 L 248.10 100.00 L 248.60 100.00 L 249.10 100.00 L 249.60 100.00 L 250.10 100.00 L 250.60 100.00 L 251.10 100.00 L 251.60 100.00 L 252.10 100.00 L 252.60 100.00 L 253.10 100.00 L 253.60 100.00 L 254.10 100.00 L 254.60 100.00 L 255.11 100.00 L 255.61 100.00 L 256.11 100.00 L 256.61 100.00 L 257.11 100.00 L 257.61 100.00 L 258.11 100.00 L 258.61 100.00 L 259.11 100.00 L 259.61 100.00 L 260.11 100.00 L 260.61 100.00 L 261.11 100.00 L 261.61 100.00 L 262.11 100.00 L 262.61 100.00 L 263.11 100.00 L 263.61 100.00 L 264.11 100.00 L 264.61 100.00 L 265.12 100.00 L 265.62 100.00 L 266.12 100.00 L 266.62 100.00 L 267.12 100.00 L 267.62 100.00 L 268.12 100.00 L 268.62 100.00 L 269.12 100.00 L 269.62 100.00 L 270.12 100.00 L 270.62 100.00 L 271.12 100.00 L 271.62 100.00 L 272.12 100.00 L 272.62 100.00 L 273.12 100.00 L 273.62 100.00 L 274.12 100.00 L 274.62 100.00 L 275.13 100.00 L 275.63 100.00 L 276.13 100.00 L 276.63 100.00 L 277.13 100.00 L 277.63 100.00 L 278.13 100.00 L 278.63 100.00 L 279.13 100.00 L 279.63 100.00 L 280.13 100.00 L 280.63 100.00 L 281.13 100.00 L 281.63 100.00 L 282.13 100.00 L 282.63 100.00 L 283.13 100.00 L 283.63 100.00 L 284.13 100.00 L 284.63 100.00 L 285.14 100.00 L 285.64 100.00 L 286.14 100.00 L 286.64 100.00 L 287.14 100.00 L 287.64 100.00 L 288.14 100.00 L 288.64 100.00 L 289.14 100.00 L 289.64 100.00 L 290.14 100.00 L 290.64 100.00 L 291.14 100.00 L 291.64 100.00 L 292.14 100.00 L 292.64 100.00 L 293.14 100.00 L 293.64 100.00 L 294.14 100.00 L 294.64 100.00 L 295.15 100.00 L 295.65 100.00 L 296.15 100.00 L 296.65 100.00 L 297.15 100.00 L 297.65 100.00 L 298.15 100.00 L 298.65 100.00 L 299.15 100.00 L 299.65 100.00 L 300.15 100.00 L 300.65 100.00 L 301.15 100.00 L 301.65 100.00 L 302.15 100.00 L 302.65 100.00 L 303.15 100.00 L 303.65 100.00 L 304.15 100.00 L 304.65 100.00 L 305.16 100.00 L 305.66 100.00 L 306.16 100.00 L 306.66 100.00 L 307.16 100.00 L 307.66 100.00 L 308.16 100.00 L 308.66 100.00 L 309.16 100.00 L 309.66 100.00 L 310.16 100.00 L 310.66 100.00 L 311.16 100.00 L 311.66 100.00 L 312.16 100.00 L 312.66 100.00 L 313.16 100.00 L 313.66 100.00 L 314.16 100.00 L 314.66 100.00 L 315.17 100.00 L 315.67 100.00 L 316.17 100.00 L 316.67 100.00 L 317.17 100.00 L 317.67 100.00 L 318.17 100.00 L 318.67 100.00 L 319.17 100.00 L 319.67 100.00 L 320.17 100.00 L 320.67 100.00 L 321.17 100.00 L 321.67 100.00 L 322.17 100.00 L 322.67 100.00 L 323.17 100.00 L 323.67 100.00 L 324.17 100.00 L 324.67 100.00 L 325.18 100.00 L 325.68 100.00 L 326.18 100.00 L 326.68 100.00 L 327.18 100.00 L 327.68 100.00 L 328.18 100.00 L 328.68 100.00 L 329.18 100.00 L 329.68 100.00 L 330.18 100.00 L 330.68 100.00 L 331.18 100.00 L 331.68 100.00 L 332.18 100.00 L 332.68 100.00 L 333.18 100.00 L 333.68 100.00 L 334.18 100.00 L 334.68 100.00 L 335.19 100.00 L 335.69 100.00 L 336.19 100.00 L 336.69 100.00 L 337.19 100.00 L 337.69 100.00 L 338.19 100.00 L 338.69 100.00 L 339.19 100.00 L 339.69 100.00 L 340.19 100.00 L 340.69 100.00 L 341.19 100.00 L 341.69 100.00 L 342.19 100.00 L 342.69 100.00 L 343.19 100.00 L 343.69 100.00 L 344.19 100.00 L 344.69 100.00 L 345.20 100.00 L 345.70 100.00 L 346.20 100.00 L 346.70 100.00 L 347.20 100.00 L 347.70 100.00 L 348.20 100.00 L 348.70 100.00 L 349.20 100.00 L 349.70 100.00 L 350.20 100.00 L 350.70 100.00 L 351.20 100.00 L 351.70 100.00 L 352.20 100.00 L 352.70 100.00 L 353.20 100.00 L 353.70 100.00 L 354.20 100.00 L 354.70 100.00 L 355.21 100.00 L 355.71 100.00 L 356.21 100.00 L 356.71 100.00 L 357.21 100.00 L 357.71 100.00 L 358.21 100.00 L 358.71 100.00 L 359.21 100.00 L 359.71 100.00 L 360.21 100.00 L 360.71 100.00 L 361.21 100.00 L 361.71 100.00 L 362.21 100.00 L 362.71 100.00 L 363.21 100.00 L 363.71 100.00 L 364.21 100.00 L 364.71 100.00 L 365.22 100.00 L 365.72 100.00 L 366.22 100.00 L 366.72 100.00 L 367.22 100.00 L 367.72 100.00 L 368.22 100.00 L 368.72 100.00 L 369.22 100.00 L 369.72 100.00 L 370.22 100.00 L 370.72 100.00 L 371.22 100.00 L 371.72 100.00 L 372.22 100.00 L 372.72 100.00 L 373.22 100.00 L 373.72 100.00 L 374.22 100.00 L 374.72 100.00 L 375.23 100.00 L 375.73 100.00 L 376.23 100.00 L 376.73 100.00 L 377.23 100.00 L 377.73 100.00 L 378.23 100.00 L 378.73 100.00 L 379.23 100.00 L 379.73 100.00 L 380.23 100.00 L 380.73 100.00 L 381.23 100.00 L 381.73 100.00 L 382.23 100.00 L 382.73 100.00 L 383.23 100.00 L 383.73 100.00 L 384.23 100.00 L 384.73 100.00 L 385.24 100.00 L 385.74 100.00 L 386.24 100.00 L 386.74 100.00 L 387.24 100.00 L 387.74 100.00 L 388.24 100.00 L 388.74 100.00 L 389.24 100.00 L 389.74 100.00 L 390.24 100.00 L 390.74 100.00 L 391.24 100.00 L 391.74 100.00 L 392.24 100.00 L 392.74 100.00 L 393.24 100.00 L 393.74 100.00 L 394.24 100.00 L 394.74 100.00 L 395.25 100.00 L 395.75 100.00 L 396.25 100.00 L 396.75 100.00 L 397.25 100.00 L 397.75 100.00 L 398.25 100.00 L 398.75 100.00 L 399.25 100.00 L 399.75 100.00 L 400.25 100.00 L 400.75 100.00 L 401.25 100.00 L 401.75 100.00 L 402.25 100.00 L 402.75 100.00 L 403.25 100.00 L 403.75 100.00 L 404.25 100.00 L 404.75 100.00 L 405.26 100.00 L 405.76 100.00 L 406.26 100.00 L 406.76 100.00 L 407.26 100.00 L 407.76 100.00 L 408.26 100.00 L 408.76 100.00 L 409.26 100.00 L 409.76 100.00 L 410.26 100.00 L 410.76 100.00 L 411.26 100.00 L 411.76 100.00 L 412.26 100.00 L 412.76 100.00 L 413.26 100.00 L 413.76 100.00 L 414.26 100.00 L 414.76 100.00 L 415.27 100.00 L 415.77 100.00 L 416.27 100.00 L 416.77 100.00 L 417.27 100.00 L 417.77 100.00 L 418.27 100.00 L 418.77 100.00 L 419.27 100.00 L 419.77 100.00 L 420.27 100.00 L 420.77 100.00 L 421.27 100.00 L 421.77 100.00 L 422.27 100.00 L 422.77 100.00 L 423.27 100.00 L 423.77 100.00 L 424.27 100.00 L 424.77 100.00 L 425.28 100.00 L 425.78 100.00 L 426.28 100.00 L 426.78 100.00 L 427.28 100.00 L 427.78 100.00 L 428.28 100.00 L 428.78 100.00 L 429.28 100.00 L 429.78 100.00 L 430.28 100.00 L 430.78 100.00 L 431.28 100.00 L 431.78 100.00 L 432.28 100.00 L 432.78 100.00 L 433.28 100.00 L 433.78 100.00 L 434.28 100.00 L 434.78 100.00 L 435.29 100.00 L 435.79 100.00 L 436.29 100.00 L 436.79 100.00 L 437.29 100.00 L 437.79 100.00 L 438.29 100.00 L 438.79 100.00 L 439.29 100.00 L 439.79 100.00 L 440.29 100.00 L 440.79 100.00 L 441.29 100.00 L 441.79 100.00 L 442.29 100.00 L 442.79 100.00 L 443.29 100.00 L 443.79 100.00 L 444.29 100.00 L 444.79 100.00 L 445.30 100.00 L 445.80 100.00 L 446.30 100.00 L 446.80 100.00 L 447.30 100.00 L 447.80 100.00 L 448.30 100.00 L 448.80 100.00 L 449.30 100.00 L 449.80 100.00 L 450.30 100.00 L 450.80 100.00 L 451.30 100.00 L 451.80 100.00 L 452.30 100.00 L 452.80 100.00 L 453.30 100.00 L 453.80 100.00 L 454.30 100.00 L 454.80 100.00 L 455.31 100.00 L 455.81 100.00 L 456.31 100.00 L 456.81 100.00 L 457.31 100.00 L 457.81 100.00 L 458.31 100.00 L 458.81 100.00 L 459.31 100.00 L 459.81 100.00 L 460.31 100.00 L 460.81 100.00 L 461.31 100.00 L 461.81 100.00 L 462.31 100.00 L 462.81 100.00 L 463.31 100.00 L 463.81 100.00 L 464.31 100.00 L 464.81 100.00 L 465.32 100.00 L 465.82 100.00 L 466.32 100.00 L 466.82 100.00 L 467.32 100.00 L 467.82 100.00 L 468.32 100.00 L 468.82 100.00 L 469.32 100.00 L 469.82 100.00 L 470.32 100.00 L 470.82 100.00 L 471.32 100.00 L 471.82 100.00 L 472.32 100.00 L 472.82 100.00 L 473.32 100.00 L 473.82 100.00 L 474.32 100.00 L 474.82 100.00 L 475.33 100.00 L 475.83 100.00 L 476.33 100.00 L 476.83 100.00 L 477.33 100.00 L 477.83 100.00 L 478.33 100.00 L 478.83 100.00 L 479.33 100.00 L 479.83 100.00 L 480.33 100.00 L 480.83 100.00 L 481.33 100.00 L 481.83 100.00 L 482.33 100.00 L 482.83 100.00 L 483.33 100.00 L 483.83 100.00 L 484.33 100.00 L 484.83 100.00 L 485.34 100.00 L 485.84 100.00 L 486.34 100.00 L 486.84 100.00 L 487.34 100.00 L 487.84 100.00 L 488.34 100.00 L 488.84 100.00 L 489.34 100.00 L 489.84 100.00 L 490.34 100.00 L 490.84 100.00 L 491.34 100.00 L 491.84 100.00 L 492.34 100.00 L 492.84 100.00 L 493.34 100.00 L 493.84 100.00 L 494.34 100.00 L 494.84 100.00 L 495.35 100.00 L 495.85 100.00 L 496.35 100.00 L 496.85 100.00 L 497.35 100.00 L 497.85 100.00 L 498.35 100.00 L 498.85 100.00 L 499.35 100.00 L 499.85 100.00 L 500.35 100.00 L 500.85 100.00 L 501.35 100.00 L 501.85 100.00 L 502.35 100.00 L 502.85 100.00 L 503.35 100.00 L 503.85 100.00 L 504.35 100.00 L 504.85 100.00 L 505.36 100.00 L 505.86 100.00 L 506.36 100.00 L 506.86 100.00 L 507.36 100.00 L 507.86 100.00 L 508.36 100.00 L 508.86 100.00 L 509.36 100.00 L 509.86 100.00 L 510.36 100.00 L 510.86 100.00 L 511.36 100.00 L 511.86 100.00 L 512.36 100.00 L 512.86 100.00 L 513.36 100.00 L 513.86 100.00 L 514.36 100.00 L 514.86 100.00 L 515.37 100.00 L 515.87 100.00 L 516.37 100.00 L 516.87 100.00 L 517.37 100.00 L 517.87 100.00 L 518.37 100.00 L 518.87 100.00 L 519.37 100.00 L 519.87 100.00 L 520.37 100.00 L 520.87 100.00 L 521.37 100.00 L 521.87 100.00 L 522.37 100.00 L 522.87 100.00 L 523.37 100.00 L 523.87 100.00 L 524.37 100.00 L 524.87 100.00 L 525.38 100.00 L 525.88 100.00 L 526.38 100.00 L 526.88 100.00 L 527.38 100.00 L 527.88 100.00 L 528.38 100.00 L 528.88 100.00 L 529.38 100.00 L 529.88 100.00 L 530.38 100.00 L 530.88 100.00 L 531.38 100.00 L 531.88 100.00 L 532.38 100.00 L 532.88 100.00 L 533.38 100.00 L 533.88 100.00 L 534.38 100.00 L 534.88 100.00 L 535.39 100.00 L 535.89 100.00 L 536.39 100.00 L 536.89 100.00 L 537.39 100.00 L 537.89 100.00 L 538.39 100.00 L 538.89 100.00 L 539.39 100.00 L 539.89 100.00 L 540.39 100.00 L 540.89 100.00 L 541.39 100.00 L 541.89 100.00 L 542.39 100.00 L 542.89 100.00 L 543.39 100.00 L 543.89 100.00 L 544.39 100.00 L 544.89 100.00 L 545.40 100.00 L 545.90 100.00 L 546.40 100.00 L 546.90 100.00 L 547.40 100.00 L 547.90 100.00 L 548.40 100.00 L 548.90 100.00 L 549.40 100.00 L 549.90 100.00 L 550.40 100.00 L 550.90 100.00 L 551.40 100.00 L 551.90 100.00 L 552.40 100.00 L 552.90 100.00 L 553.40 100.00 L 553.90 100.00 L 554.40 100.00 L 554.90 100.00 L 555.41 100.00 L 555.91 100.00 L 556.41 100.00 L 556.91 100.00 L 557.41 100.00 L 557.91 100.00 L 558.41 100.00 L 558.91 100.00 L 559.41 100.00 L 559.91 100.00 L 560.41 100.00 L 560.91 100.00 L 561.41 100.00 L 561.91 100.00 L 562.41 100.00 L 562.91 100.00 L 563.41 100.00 L 563.91 100.00 L 564.41 100.00 L 564.91 100.00 L 565.42 100.00 L 565.92 100.00 L 566.42 100.00 L 566.92 100.00 L 567.42 100.00 L 567.92 100.00 L 568.42 100.00 L 568.92 100.00 L 569.42 100.00 L 569.92 100.00 L 570.42 100.00 L 570.92 100.00 L 571.42 100.00 L 571.92 100.00 L 572.42 100.00 L 572.92 100.00 L 573.42 100.00 L 573.92 100.00 L 574.42 100.00 L 574.92 100.00 L 575.43 100.00 L 575.93 100.00 L 576.43 100.00 L 576.93 100.00 L 577.43 100.00 L 577.93 100.00 L 578.43 100.00 L 578.93 100.00 L 579.43 100.00 L 579.93 100.00 L 580.43 100.00 L 580.93 100.00 L 581.43 100.00 L 581.93 100.00 L 582.43 100.00 L 582.93 100.00 L 583.43 100.00 L 583.93 100.00 L 584.43 100.00 L 584.93 100.00 L 585.44 100.00 L 585.94 100.00 L 586.44 100.00 L 586.94 100.00 L 587.44 100.00 L 587.94 100.00 L 588.44 100.00 L 588.94 100.00 L 589.44 100.00 L 589.94 100.00 L 590.44 100.00 L 590.94 100.00 L 591.44 100.00 L 591.94 100.00 L 592.44 100.00 L 592.94 100.00 L 593.44 100.00 L 593.94 100.00 L 594.44 100.00 L 594.94 100.00 L 595.45 100.00 L 595.95 100.00 L 596.45 100.00 L 596.95 100.00 L 597.45 100.00 L 597.95 100.00 L 598.45 100.00 L 598.95 100.00 L 599.45 100.00 L 599.95 100.00 L 600.45 100.00 L 600.95 100.00 L 601.45 100.00 L 601.95 100.00 L 602.45 100.00 L 602.95 100.00 L 603.45 100.00 L 603.95 100.00 L 604.45 100.00 L 604.95 100.00 L 605.46 100.00 L 605.96 100.00 L 606.46 100.00 L 606.96 100.00 L 607.46 100.00 L 607.96 100.00 L 608.46 100.00 L 608.96 100.00 L 609.46 100.00 L 609.96 100.00 L 610.46 100.00 L 610.96 100.00 L 611.46 100.00 L 611.96 100.00 L 612.46 100.00 L 612.96 100.00 L 613.46 100.00 L 613.96 100.00 L 614.46 100.00 L 614.96 100.00 L 615.47 100.00 L 615.97 100.00 L 616.47 100.00 L 616.97 100.00 L 617.47 100.00 L 617.97 100.00 L 618.47 100.00 L 618.97 100.00 L 619.47 100.00 L 619.97 100.00 L 620.47 100.00 L 620.97 100.00 L 621.47 100.00 L 621.97 100.00 L 622.47 100.00 L 622.97 100.00 L 623.47 100.00 L 623.97 100.00 L 624.47 100.00 L 624.97 100.00 L 625.48 100.00 L 625.98 100.00 L 626.48 100.00 L 626.98 100.00 L 627.48 100.00 L 627.98 100.00 L 628.48 100.00 L 628.98 100.00 L 629.48 100.00 L 629.98 100.00 L 630.48 100.00 L 630.98 100.00 L 631.48 100.00 L 631.98 100.00 L 632.48 100.00 L 632.98 100.00 L 633.48 100.00 L 633.98 100.00 L 634.48 100.00 L 634.98 100.00 L 635.49 100.00 L 635.99 100.00 L 636.49 100.00 L 636.99 100.00 L 637.49 100.00 L 637.99 100.00 L 638.49 100.00 L 638.99 100.00 L 639.49 100.00 L 639.99 100.00 L 640.49 100.00 L 640.99 100.00 L 641.49 100.00 L 641.99 100.00 L 642.49 100.00 L 642.99 100.00 L 643.49 100.00 L 643.99 100.00 L 644.49 100.00 L 644.99 100.00 L 645.50 100.00 L 646.00 100.00 L 646.50 100.00 L 647.00 100.00 L 647.50 100.00 L 648.00 100.00 L 648.50 100.00 L 649.00 100.00 L 649.50 100.00 L 650.00 100.00" /><text  class="poloto_text poloto_legend_text" x="675" y="200" >derivative 1</text><line  class="poloto_line poloto_legend_icon poloto2stroke poloto2legend" stroke="black" x1="680" x2="730" y1="181.25" y2="181.25" /><path  class="poloto_line poloto2stroke" fill="none" stroke="black" d=" M 150.00 400.00 L 150.50 400.00 L 151.00 400.00 L 151.50 400.00 L 152.00 400.00 L 152.50 400.00 L 153.00 400.00 L 153.50 400.00 L 154.00 400.00 L 154.50 400.00 L 155.01 400.00 L 155.51 400.00 L 156.01 400.00 L 156.51 400.00 L 157.01 400.00 L 157.51 400.00 L 158.01 400.00 L 158.51 400.00 L 159.01 400.00 L 159.51 400.00 L 160.01 400.00 L 160.51 400.00 L 161.01 400.00 L 161.51 400.00 L 162.01 400.00 L 162.51 400.00 L 163.01 400.00 L 163.51 400.00 L 164.01 400.00 L 164.51 400.00 L 165.02 400.00 L 165.52 400.00 L 166.02 400.00 L 166.52 400.00 L 167.02 400.00 L 167.52 400.00 L 168.02 400.00 L 168.52 400.00 L 169.02 400.00 L 169.52 400.00 L 170.02 400.00 L 170.52 400.00 L 171.02 400.00 L 171.52 400.00 L 172.02 400.00 L 172.52 400.00 L 173.02 400.00 L 173.52 400.00 L 174.02 400.00 L 174.52 400.00 L 175.03 400.00 L 175.53 400.00 L 176.03 400.00 L 176.53 400.00 L 177.03 400.00 L 177.53 400.00 L 178.03 400.00 L 178.53 400.00 L 179.03 400.00 L 179.53 400.00 L 180.03 400.00 L 180.53 400.00 L 181.03 400.00 L 181.53 400.00 L 182.03 400.00 L 182.53 400.00 L 183.03 400.00 L 183.53 400.00 L 184.03 400.00 L 184.53 400.00 L 185.04 400.00 L 185.54 400.00 L 186.04 400.00 L 186.54 400.00 L 187.04 400.00 L 187.54 400.00 L 188.04 400.00 L 188.54 400.00 L 189.04 400.00 L 189.54 400.00 L 190.04 400.00 L 190.54 400.00 L 191.04 400.00 L 191.54 400.00 L 192.04 400.00 L 192.54 400.00 L 193.04 400.00 L 193.54 400.00 L 194.04 400.00 L 194.54 400.00 L 195.05 400.00 L 195.55 400.00 L 196.05 400.00 L 196.55 400.00 L 197.05 400.00 L 197.55 400.00 L 198.05 400.00 L 198.55 400.00 L 199.05 400.00 L 199.55 400.00 L 200.05 400.00 L 200.55 400.00 L 201.05 400.00 L 201.55 400.00 L 202.05 400.00 L 202.55 400.00 L 203.05 400.00 L 203.55 400.00 L 204.05 400.00 L 204.55 400.00 L 205.06 400.00 L 205.56 400.00 L 206.06 400.00 L 206.56 400.00 L 207.06 400.00 L 207.56 400.00 L 208.06 400.00 L 208.56 400.00 L 209.06 400.00 L 209.56 400.00 L 210.06 400.00 L 210.56 400.00 L 211.06 400.00 L 211.56 400.00 L 212.06 400.00 L 212.56 400.00 L 213.06 400.00 L 213.56 400.00 L 214.06 400.00 L 214.56 400.00 L 215.07 400.00 L 215.57 400.00 L 216.07 400.00 L 216.57 400.00 L 217.07 400.00 L 217.57 400.00 L 218.07 400.00 L 218.57 400.00 L 219.07 400.00 L 219.57 400.00 L 220.07 400.00 L 220.57 400.00 L 221.07 400.00 L 221.57 400.00 L 222.07 400.00 L 222.57 400.00 L 223.07 400.00 L 223.57 400.00 L 224.07 400.00 L 224.57 400.00 L 225.08 400.00 L 225.58 400.00 L 226.08 400.00 L 226.58 400.00 L 227.08 400.00 L 227.58 400.00 L 228.08 400.00 L 228.58 400.00 L 229.08 400.00 L 229.58 400.00 L 230.08 400.00 L 230.58 400.00 L 231.08 400.00 L 231.58 400.00 L 232.08 400.00 L 232.58 400.00 L 233.08 400.00 L 233.58 400.00 L 234.08 400.00 L 234.58 400.00 L 235.09 400.00 L 235.59 400.00 L 236.09 400.00 L 236.59 400.00 L 237.09 400.00 L 237.59 400.00 L 238.09 400.00 L 238.59 400.00 L 239.09 400.00 L 239.59 400.00 L 240.09 400.00 L 240.59 400.00 L 241.09 400.00 L 241.59 400.00 L 242.09 400.00 L 242.59 400.00 L 243.09 400.00 L 243.59 400.00 L 244.09 400.00 L 244.59 400.00 L 245.10 400.00 L 245.60 400.00 L 246.10 400.00 L 246.60 400.00 L 247.10 400.00 L 247.60 400.00 L 248.10 400.00 L 248.60 400.00 L 249.10 400.00 L 249.60 400.00 L 250.10 400.00 L 250.60 400.00 L 251.10 400.00 L 251.60 400.00 L 252.10 400.00 L 252.60 400.00 L 253.10 400.00 L 253.60 400.00 L 254.10 400.00 L 254.60 400.00 L 255.11 400.00 L 255.61 400.00 L 256.11 400.00 L 256.61 400.00 L 257.11 400.00 L 257.61 400.00 L 258.11 400.00 L 258.61 400.00 L 259.11 400.00 L 259.61 400.00 L 260.11 400.00 L 260.61 400.00 L 261.11 400.00 L 261.61 400.00 L 262.11 400.00 L 262.61 400.00 L 263.11 400.00 L 263.61 400.00 L 264.11 400.00 L 264.61 400.00 L 265.12 400.00 L 265.62 400.00 L 266.12 400.00 L 266.62 400.00 L 267.12 400.00 L 267.62 400.00 L 268.12 400.00 L 268.62 400.00 L 269.12 400.00 L 269.62 400.00 L 270.12 400.00 L 270.62 400.00 L 271.12 400.00 L 271.62 400.00 L 272.12 400.00 L 272.62 400.00 L 273.12 400.00 L 273.62 400.00 L 274.12 400.00 L 274.62 400.00 L 275.13 400.00 L 275.63 400.00 L 276.13 400.00 L 276.63 400.00 L 277.13 400.00 L 277.63 400.00 L 278.13 400.00 L 278.63 400.00 L 279.13 400.00 L 279.63 400.00 L 280.13 400.00 L 280.63 400.00 L 281.13 400.00 L 281.63 400.00 L 282.13 400.00 L 282.63 400.00 L 283.13 400.00 L 283.63 400.00 L 284.13 400.00 L 284.63 400.00 L 285.14 400.00 L 285.64 400.00 L 286.14 400.00 L 286.64 400.00 L 287.14 400.00 L 287.64 400.00 L 288.14 400.00 L 288.64 400.00 L 289.14 400.00 L 289.64 400.00 L 290.14 400.00 L 290.64 400.00 L 291.14 400.00 L 291.64 400.00 L 292.14 400.00 L 292.64 400.00 L 293.14 400.00 L 293.64 400.00 L 294.14 400.00 L 294.64 400.00 L 295.15 400.00 L 295.65 400.00 L 296.15 400.00 L 296.65 400.00 L 297.15 400.00 L 297.65 400.00 L 298.15 400.00 L 298.65 400.00 L 299.15 400.00 L 299.65 400.00 L 300.15 400.00 L 300.65 400.00 L 301.15 400.00 L 301.65 400.00 L 302.15 400.00 L 302.65 400.00 L 303.15 400.00 L 303.65 400.00 L 304.15 400.00 L 304.65 400.00 L 305.16 400.00 L 305.66 400.00 L 306.16 400.00 L 306.66 400.00 L 307.16 400.00 L 307.66 400.00 L 308.16 400.00 L 308.66 400.00 L 309.16 400.00 L 309.66 400.00 L 310.16 400.00 L 310.66 400.00 L 311.16 400.00 L 311.66 400.00 L 312.16 400.00 L 312.66 400.00 L 313.16 400.00 L 313.66 400.00 L 314.16 400.00 L 314.66 400.00 L 315.17 400.00 L 315.67 400.00 L 316.17 400.00 L 316.67 400.00 L 317.17 400.00 L 317.67 400.00 L 318.17 400.00 L 318.67 400.00 L 319.17 400.00 L 319.67 400.00 L 320.17 400.00 L 320.67 400.00 L 321.17 400.00 L 321.67 400.00 L 322.17 400.00 L 322.67 400.00 L 323.17 400.00 L 323.67 400.00 L 324.17 400.00 L 324.67 400.00 L 325.18 400.00 L 325.68 400.00 L 326.18 400.00 L 326.68 400.00 L 327.18 400.00 L 327.68 400.00 L 328.18 400.00 L 328.68 400.00 L 329.18 400.00 L 329.68 400.00 L 330.18 400.00 L 330.68 400.00 L 331.18 400.00 L 331.68 400.00 L 332.18 400.00 L 332.68 400.00 L 333.18 400.00 L 333.68 400.00 L 334.18 400.00 L 334.68 400.00 L 335.19 400.00 L 335.69 400.00 L 336.19 400.00 L 336.69 400.00 L 337.19 400.00 L 337.69 400.00 L 338.19 400.00 L 338.69 400.00 L 339.19 400.00 L 339.69 400.00 L 340.19 400.00 L 340.69 400.00 L 341.19 400.00 L 341.69 400.00 L 342.19 400.00 L 342.69 400.00 L 343.19 400.00 L 343.69 400.00 L 344.19 400.00 L 344.69 400.00 L 345.20 400.00 L 345.70 400.00 L 346.20 400.00 L 346.70 400.00 L 347.20 400.00 L 347.70 400.00 L 348.20 400.00 L 348.70 400.00 L 349.20 400.00 L 349.70 400.00 L 350.20 400.00 L 350.70 400.00 L 351.20 400.00 L 351.70 400.00 L 352.20 400.00 L 352.70 400.00 L 353.20 400.00 L 353.70 400.00 L 354.20 400.00 L 354.70 400.00 L 355.21 400.00 L 355.71 400.00 L 356.21 400.00 L 356.71 400.00 L 357.21 400.00 L 357.71 400.00 L 358.21 400.00 L 358.71 400.00 L 359.21 400.00 L 359.71 400.00 L 360.21 400.00 L 360.71 400.00 L 361.21 400.00 L 361.71 400.00 L 362.21 400.00 L 362.71 400.00 L 363.21 400.00 L 363.71 400.00 L 364.21 400.00 L 364.71 400.00 L 365.22 400.00 L 365.72 400.00 L 366.22 400.00 L 366.72 400.00 L 367.22 400.00 L 367.72 400.00 L 368.22 400.00 L 368.72 400.00 L 369.22 400.00 L 369.72 400.00 L 370.22 400.00 L 370.72 400.00 L 371.22 400.00 L 371.72 400.00 L 372.22 400.00 L 372.72 400.00 L 373.22 400.00 L 373.72 400.00 L 374.22 400.00 L 374.72 400.00 L 375.23 400.00 L 375.73 400.00 L 376.23 400.00 L 376.73 400.00 L 377.23 400.00 L 377.73 400.00 L 378.23 400.00 L 378.73 400.00 L 379.23 400.00 L 379.73 400.00 L 380.23 400.00 L 380.73 400.00 L 381.23 400.00 L 381.73 400.00 L 382.23 400.00 L 382.73 400.00 L 383.23 400.00 L 383.73 400.00 L 384.23 400.00 L 384.73 400.00 L 385.24 400.00 L 385.74 400.00 L 386.24 400.00 L 386.74 400.00 L 387.24 400.00 L 387.74 400.00 L 388.24 400.00 L 388.74 400.00 L 389.24 400.00 L 389.74 400.00 L 390.24 400.00 L 390.74 400.00 L 391.24 400.00 L 391.74 400.00 L 392.24 400.00 L 392.74 400.00 L 393.24 400.00 L 393.74 400.00 L 394.24 400.00 L 394.74 400.00 L 395.25 400.00 L 395.75 400.00 L 396.25 400.00 L 396.75 400.00 L 397.25 400.00 L 397.75 400.00 L 398.25 400.00 L 398.75 400.00 L 399.25 400.00 L 399.75 400.00 L 400.25 400.00 L 400.75 400.00 L 401.25 400.00 L 401.75 400.00 L 402.25 400.00 L 402.75 400.00 L 403.25 400.00 L 403.75 400.00 L 404.25 400.00 L 404.75 400.00 L 405.26 400.00 L 405.76 400.00 L 406.26 400.00 L 406.76 400.00 L 407.26 400.00 L 407.76 400.00 L 408.26 400.00 L 408.76 400.00 L 409.26 400.00 L 409.76 400.00 L 410.26 400.00 L 410.76 400.00 L 411.26 400.00 L 411.76 400.00 L 412.26 400.00 L 412.76 400.00 L 413.26 400.00 L 413.76 400.00 L 414.26 400.00 L 414.76 400.00 L 415.27 400.00 L 415.77 400.00 L 416.27 400.00 L 416.77 400.00 L 417.27 400.00 L 417.77 400.00 L 418.27 400.00 L 418.77 400.00 L 419.27 400.00 L 419.77 400.00 L 420.27 400.00 L 420.77 400.00 L 421.27 400.00 L 421.77 400.00 L 422.27 400.00 L 422.77 400.00 L 423.27 400.00 L 423.77 400.00 L 424.27 400.00 L 424.77 400.00 L 425.28 400.00 L 425.78 400.00 L 426.28 400.00 L 426.78 400.00 L 427.28 400.00 L 427.78 400.00 L 428.28 400.00 L 428.78 400.00 L 429.28 400.00 L 429.78 400.00 L 430.28 400.00 L 430.78 400.00 L 431.28 400.00 L 431.78 400.00 L 432.28 400.00 L 432.78 400.00 L 433.28 400.00 L 433.78 400.00 L 434.28 400.00 L 434.78 400.00 L 435.29 400.00 L 435.79 400.00 L 436.29 400.00 L 436.79 400.00 L 437.29 400.00 L 437.79 400.00 L 438.29 400.00 L 438.79 400.00 L 439.29 400.00 L 439.79 400.00 L 440.29 400.00 L 440.79 400.00 L 441.29 400.00 L 441.79 400.00 L 442.29 400.00 L 442.79 400.00 L 443.29 400.00 L 443.79 400.00 L 444.29 400.00 L 444.79 400.00 L 445.30 400.00 L 445.80 400.00 L 446.30 400.00 L 446.80 400.00 L 447.30 400.00 L 447.80 400.00 L 448.30 400.00 L 448.80 400.00 L 449.30 400.00 L 449.80 400.00 L 450.30 400.00 L 450.80 400.00 L 451.30 400.00 L 451.80 400.00 L 452.30 400.00 L 452.80 400.00 L 453.30 400.00 L 453.80 400.00 L 454.30 400.00 L 454.80 400.00 L 455.31 400.00 L 455.81 400.00 L 456.31 400.00 L 456.81 400.00 L 457.31 400.00 L 457.81 400.00 L 458.31 400.00 L 458.81 400.00 L 459.31 400.00 L 459.81 400.00 L 460.31 400.00 L 460.81 400.00 L 461.31 400.00 L 461.81 400.00 L 462.31 400.00 L 462.81 400.00 L 463.31 400.00 L 463.81 400.00 L 464.31 400.00 L 464.81 400.00 L 465.32 400.00 L 465.82 400.00 L 466.32 400.00 L 466.82 400.00 L 467.32 400.00 L 467.82 400.00 L 468.32 400.00 L 468.82 400.00 L 469.32 400.00 L 469.82 400.00 L 470.32 400.00 L 470.82 400.00 L 471.32 400.00 L 471.82 400.00 L 472.32 400.00 L 472.82 400.00 L 473.32 400.00 L 473.82 400.00 L 474.32 400.00 L 474.82 400.00 L 475.33 400.00 L 475.83 400.00 L 476.33 400.00 L 476.83 400.00 L 477.33 400.00 L 477.83 400.00 L 478.33 400.00 L 478.83 400.00 L 479.33 400.00 L 479.83 400.00 L 480.33 400.00 L 480.83 400.00 L 481.33 400.00 L 481.83 400.00 L 482.33 400.00 L 482.83 400.00 L 483.33 400.00 L 483.83 400.00 L 484.33 400.00 L 484.83 400.00 L 485.34 400.00 L 485.84 400.00 L 486.34 400.00 L 486.84 400.00 L 487.34 400.00 L 487.84 400.00 L 488.34 400.00 L 488.84 400.00 L 489.34 400.00 L 489.84 400.00 L 490.34 400.00 L 490.84 400.00 L 491.34 400.00 L 491.84 400.00 L 492.34 400.00 L 492.84 400.00 L 493.34 400.00 L 493.84 400.00 L 494.34 400.00 L 494.84 400.00 L 495.35 400.00 L 495.85 400.00 L 496.35 400.00 L 496.85 400.00 L 497.35 400.00 L 497.85 400.00 L 498.35 400.00 L 498.85 400.00 L 499.35 400.00 L 499.85 400.00 L 500.35 400.00 L 500.85 400.00 L 501.35 400.00 L 501.85 400.00 L 502.35 400.00 L 502.85 400.00 L 503.35 400.00 L 503.85 400.00 L 504.35 400.00 L 504.85 400.00 L 505.36 400.00 L 505.86 400.00 L 506.36 400.00 L 506.86 400.00 L 507.36 400.00 L 507.86 400.00 L 508.36 400.00 L 508.86 400.00 L 509.36 400.00 L 509.86 400.00 L 510.36 400.00 L 510.86 400.00 L 511.36 400.00 L 511.86 400.00 L 512.36 400.00 L 512.86 400.00 L 513.36 400.00 L 513.86 400.00 L 514.36 400.00 L 514.86 400.00 L 515.37 400.00 L 515.87 400.00 L 516.37 400.00 L 516.87 400.00 L 517.37 400.00 L 517.87 400.00 L 518.37 400.00 L 518.87 400.00 L 519.37 400.00 L 519.87 400.00 L 520.37 400.00 L 520.87 400.00 L 521.37 400.00 L 521.87 400.00 L 522.37 400.00 L 522.87 400.00 L 523.37 400.00 L 523.87 400.00 L 524.37 400.00 L 524.87 400.00 L 525.38 400.00 L 525.88 400.00 L 526.38 400.00 L 526.88 400.00 L 527.38 400.00 L 527.88 400.00 L 528.38 400.00 L 528.88 400.00 L 529.38 400.00 L 529.88 400.00 L 530.38 400.00 L 530.88 400.00 L 531.38 400.00 L 531.88 400.00 L 532.38 400.00 L 532.88 400.00 L 533.38 400.00 L 533.88 400.00 L 534.38 400.00 L 534.88 400.00 L 535.39 400.00 L 535.89 400.00 L 536.39 400.00 L 536.89 400.00 L 537.39 400.00 L 537.89 400.00 L 538.39 400.00 L 538.89 400.00 L 539.39 400.00 L 539.89 400.00 L 540.39 400.00 L 540.89 400.00 L 541.39 400.00 L 541.89 400.00 L 542.39 400.00 L 542.89 400.00 L 543.39 400.00 L 543.89 400.00 L 544.39 400.00 L 544.89 400.00 L 545.40 400.00 L 545.90 400.00 L 546.40 400.00 L 546.90 400.00 L 547.40 400.00 L 547.90 400.00 L 548.40 400.00 L 548.90 400.00 L 549.40 400.00 L 549.90 400.00 L 550.40 400.00 L 550.90 400.00 L 551.40 400.00 L 551.90 400.00 L 552.40 400.00 L 552.90 400.00 L 553.40 400.00 L 553.90 400.00 L 554.40 400.00 L 554.90 400.00 L 555.41 400.00 L 555.91 400.00 L 556.41 400.00 L 556.91 400.00 L 557.41 400.00 L 557.91 400.00 L 558.41 400.00 L 558.91 400.00 L 559.41 400.00 L 559.91 400.00 L 560.41 400.00 L 560.91 400.00 L 561.41 400.00 L 561.91 400.00 L 562.41 400.00 L 562.91 400.00 L 563.41 400.00 L 563.91 400.00 L 564.41 400.00 L 564.91 400.00 L 565.42 400.00 L 565.92 400.00 L 566.42 400.00 L 566.92 400.00 L 567.42 400.00 L 567.92 400.00 L 568.42 400.00 L 568.92 400.00 L 569.42 400.00 L 569.92 400.00 L 570.42 400.00 L 570.92 400.00 L 571.42 400.00 L 571.92 400.00 L 572.42 400.00 L 572.92 400.00 L 573.42 400.00 L 573.92 400.00 L 574.42 400.00 L 574.92 400.00 L 575.43 400.00 L 575.93 400.00 L 576.43 400.00 L 576.93 400.00 L 577.43 400.00 L 577.93 400.00 L 578.43 400.00 L 578.93 400.00 L 579.43 400.00 L 579.93 400.00 L 580.43 400.00 L 580.93 400.00 L 581.43 400.00 L 581.93 400.00 L 582.43 400.00 L 582.93 400.00 L 583.43 400.00 L 583.93 400.00 L 584.43 400.00 L 584.93 400.00 L 585.44 400.00 L 585.94 400.00 L 586.44 400.00 L 586.94 400.00 L 587.44 400.00 L 587.94 400.00 L 588.44 400.00 L 588.94 400.00 L 589.44 400.00 L 589.94 400.00 L 590.44 400.00 L 590.94 400.00 L 591.44 400.00 L 591.94 400.00 L 592.44 400.00 L 592.94 400.00 L 593.44 400.00 L 593.94 400.00 L 594.44 400.00 L 594.94 400.00 L 595.45 400.00 L 595.95 400.00 L 596.45 400.00 L 596.95 400.00 L 597.45 400.00 L 597.95 400.00 L 598.45 400.00 L 598.95 400.00 L 599.45 400.00 L 599.95 400.00 L 600.45 400.00 L 600.95 400.00 L 601.45 400.00 L 601.95 400.00 L 602.45 400.00 L 602.95 400.00 L 603.45 400.00 L 603.95 400.00 L 604.45 400.00 L 604.95 400.00 L 605.46 400.00 L 605.96 400.00 L 606.46 400.00 L 606.96 400.00 L 607.46 400.00 L 607.96 400.00 L 608.46 400.00 L 608.96 400.00 L 609.46 400.00 L 609.96 400.00 L 610.46 400.00 L 610.96 400.00 L 611.46 400.00 L 611.96 400.00 L 612.46 400.00 L 612.96 400.00 L 613.46 400.00 L 613.96 400.00 L 614.46 400.00 L 614.96 400.00 L 615.47 400.00 L 615.97 400.00 L 616.47 400.00 L 616.97 400.00 L 617.47 400.00 L 617.97 400.00 L 618.47 400.00 L 618.97 400.00 L 619.47 400.00 L 619.97 400.00 L 620.47 400.00 L 620.97 400.00 L 621.47 400.00 L 621.97 400.00 L 622.47 400.00 L 622.97 400.00 L 623.47 400.00 L 623.97 400.00 L 624.47 400.00 L 624.97 400.00 L 625.48 400.00 L 625.98 400.00 L 626.48 400.00 L 626.98 400.00 L 627.48 400.00 L 627.98 400.00 L 628.48 400.00 L 628.98 400.00 L 629.48 400.00 L 629.98 400.00 L 630.48 400.00 L 630.98 400.00 L 631.48 400.00 L 631.98 400.00 L 632.48 400.00 L 632.98 400.00 L 633.48 400.00 L 633.98 400.00 L 634.48 400.00 L 634.98 400.00 L 635.49 400.00 L 635.99 400.00 L 636.49 400.00 L 636.99 400.00 L 637.49 400.00 L 637.99 400.00 L 638.49 400.00 L 638.99 400.00 L 639.49 400.00 L 639.99 400.00 L 640.49 400.00 L 640.99 400.00 L 641.49 400.00 L 641.99 400.00 L 642.49 400.00 L 642.99 400.00 L 643.49 400.00 L 643.99 400.00 L 644.49 400.00 L 644.99 400.00 L 645.50 400.00 L 646.00 400.00 L 646.50 400.00 L 647.00 400.00 L 647.50 400.00 L 648.00 400.00 L 648.50 400.00 L 649.00 400.00 L 649.50 400.00 L 650.00 400.00" /><text  class="poloto_labels poloto_text poloto_title" x="400" y="37.5" >bspline example 0 a</text><text  class="poloto_labels poloto_text poloto_xname" x="400" y="481.25" >x</text><text  class="poloto_labels poloto_text poloto_yname" transform="rotate(-90,37.5,250)" x="37.5" y="250" >y</text><text  class="poloto_tick_labels poloto_text" dominant-baseline="middle" text-anchor="start" x="150" y="70" ></text><line  class="poloto_axis_lines" stroke="black" x1="150" x2="144" y1="400" y2="400" /><text  class="poloto_tick_labels poloto_text" dominant-baseline="middle" text-anchor="end" x="135" y="400" >0.0</text><line  class="poloto_axis_lines" stroke="black" x1="150" x2="144" y1="325" y2="325" /><text  class="poloto_tick_labels poloto_text" dominant-baseline="middle" text-anchor="end" x="135" y="325" >0.5</text><line  class="poloto_axis_lines" stroke="black" x1="150" x2="144" y1="250" y2="250" /><text  class="poloto_tick_labels poloto_text" dominant-baseline="middle" text-anchor="end" x="135" y="250" >1.0</text><line  class="poloto_axis_lines" stroke="black" x1="150" x2="144" y1="175" y2="175" /><text  class="poloto_tick_labels poloto_text" dominant-baseline="middle" text-anchor="end" x="135" y="175" >1.5</text><line  class="poloto_axis_lines" stroke="black" x1="150" x2="144" y1="100" y2="100" /><text  class="poloto_tick_labels poloto_text" dominant-baseline="middle" text-anchor="end" x="135" y="100" >2.0</text><text  class="poloto_tick_labels poloto_text" dominant-baseline="middle" text-anchor="start" x="440.00000000000006" y="70" ></text><line  class="poloto_axis_lines" stroke="black" x1="150" x2="150" y1="400" y2="405" /><text  class="poloto_tick_labels poloto_text" dominant-baseline="start" text-anchor="middle" x="150" y="430" >0.0</text><line  class="poloto_axis_lines" stroke="black" x1="275.12512351257624" x2="275.12512351257624" y1="400" y2="405" /><text  class="poloto_tick_labels poloto_text" dominant-baseline="start" text-anchor="middle" x="275.12512351257624" y="430" >0.5</text><line  class="poloto_axis_lines" stroke="black" x1="400.2502470251525" x2="400.2502470251525" y1="400" y2="405" /><text  class="poloto_tick_labels poloto_text" dominant-baseline="start" text-anchor="middle" x="400.2502470251525" y="430" >1.0</text><line  class="poloto_axis_lines" stroke="black" x1="525.3753705377287" x2="525.3753705377287" y1="400" y2="405" /><text  class="poloto_tick_labels poloto_text" dominant-baseline="start" text-anchor="middle" x="525.3753705377287" y="430" >1.5</text><path  stroke="black" fill="none" class="poloto_axis_lines" style="stroke-dasharray:12.512512351257625;stroke-dashoffset:-0;" d=" M 150 400 L 650 400" /><path  stroke="black" fill="none" class="poloto_axis_lines" style="stroke-dasharray:7.5;stroke-dashoffset:-0;" d=" M 150 400 L 150 100" /></svg>