<svg class="poloto" width="800" height="500" viewBox="0 0 800 500" xmlns="http://www.w3.org/2000/svg"><style>.poloto{stroke-linecap:round;stroke-linejoin:round;font-family:Roboto,sans-serif;font-size:16px;}.poloto_background{fill:AliceBlue;}.poloto_scatter{stroke-width:7}.poloto_tick_line{stroke:gray;stroke-width:0.5}.poloto_line{stroke-width:2}.poloto_text{fill: black;}.poloto_axis_lines{stroke: black;stroke-width:3;fill:none;stroke-dasharray:none}.poloto_title{font-size:24px;dominant-baseline:start;text-anchor:middle;}.poloto_xname{font-size:24px;dominant-baseline:start;text-anchor:middle;}.poloto_yname{font-size:24px;dominant-baseline:start;text-anchor:middle;}.poloto_legend_text{font-size:20px;dominant-baseline:middle;text-anchor:start;}.poloto0stroke{stroke:blue;}.poloto1stroke{stroke:red;}.poloto2stroke{stroke:green;}.poloto3stroke{stroke:gold;}.poloto4stroke{stroke:aqua;}.poloto5stroke{stroke:lime;}.poloto6stroke{stroke:orange;}.poloto7stroke{stroke:chocolate;}.poloto0fill{fill:blue;}.poloto1fill{fill:red;}.poloto2fill{fill:green;}.poloto3fill{fill:gold;}.poloto4fill{fill:aqua;}.poloto5fill{fill:lime;}.poloto6fill{fill:orange;}.poloto7fill{fill:chocolate;}</style><circle  r="1e5" class="poloto_background" /><text  class="poloto_text poloto_legend_text" x="675" y="100" >knot</text><line  class="poloto_scatter poloto_legend_icon poloto0stroke poloto0legend" stroke="black" x1="685" x2="685" y1="81.25" y2="81.25" /><path  class="poloto_scatter poloto0stroke" d=" M 221.50 298.00 h 0 M 293.00 298.00 h 0 M 364.50 298.00 h 0 M 436.00 298.00 h 0 M 507.50 298.00 h 0 M 579.00 298.00 h 0" /><text  class="poloto_text poloto_legend_text" x="675" y="150" >curve</text><line  class="poloto_line poloto_legend_icon poloto1stroke poloto1legend" stroke="black" x1="680" x2="730" y1="131.25" y2="131.25" /><path  class="poloto_line poloto1stroke" fill="none" stroke="black" d=" M 150.00 400.00 L 150.50 398.62 L 151.00 397.25 L 151.50 395.89 L 152.00 394.54 L 152.50 393.20 L 153.00 391.88 L 153.50 390.56 L 154.00 389.25 L 154.50 387.96 L 155.01 386.67 L 155.51 385.39 L 156.01 384.13 L 156.51 382.87 L 157.01 381.63 L 157.51 380.40 L 158.01 379.17 L 158.51 377.96 L 159.01 376.75 L 159.51 375.56 L 160.01 374.37 L 160.51 373.20 L 161.01 372.03 L 161.51 370.88 L 162.01 369.73 L 162.51 368.60 L 163.01 367.47 L 163.51 366.36 L 164.01 365.25 L 164.51 364.16 L 165.02 363.07 L 165.52 361.99 L 166.02 360.92 L 166.52 359.86 L 167.02 358.81 L 167.52 357.77 L 168.02 356.74 L 168.52 355.72 L 169.02 354.71 L 169.52 353.71 L 170.02 352.71 L 170.52 351.73 L 171.02 350.75 L 171.52 349.78 L 172.02 348.83 L 172.52 347.88 L 173.02 346.94 L 173.52 346.01 L 174.02 345.08 L 174.52 344.17 L 175.03 343.27 L 175.53 342.37 L 176.03 341.48 L 176.53 340.60 L 177.03 339.73 L 177.53 338.87 L 178.03 338.02 L 178.53 337.17 L 179.03 336.33 L 179.53 335.50 L 180.03 334.68 L 180.53 333.87 L 181.03 333.07 L 181.53 332.27 L 182.03 331.49 L 182.53 330.71 L 183.03 329.94 L 183.53 329.17 L 184.03 328.42 L 184.53 327.67 L 185.04 326.93 L 185.54 326.20 L 186.04 325.47 L 186.54 324.76 L 187.04 324.05 L 187.54 323.35 L 188.04 322.65 L 188.54 321.97 L 189.04 321.29 L 189.54 320.62 L 190.04 319.96 L 190.54 319.30 L 191.04 318.65 L 191.54 318.01 L 192.04 317.38 L 192.54 316.75 L 193.04 316.13 L 193.54 315.52 L 194.04 314.92 L 194.54 314.32 L 195.05 313.73 L 195.55 313.14 L 196.05 312.57 L 196.55 312.00 L 197.05 311.43 L 197.55 310.88 L 198.05 310.33 L 198.55 309.79 L 199.05 309.25 L 199.55 308.72 L 200.05 308.20 L 200.55 307.68 L 201.05 307.17 L 201.55 306.67 L 202.05 306.17 L 202.55 305.68 L 203.05 305.20 L 203.55 304.72 L 204.05 304.25 L 204.55 303.79 L 205.06 303.33 L 205.56 302.88 L 206.06 302.43 L 206.56 301.99 L 207.06 301.56 L 207.56 301.13 L 208.06 300.71 L 208.56 300.29 L 209.06 299.88 L 209.56 299.48 L 210.06 299.08 L 210.56 298.68 L 211.06 298.30 L 211.56 297.92 L 212.06 297.54 L 212.56 297.17 L 213.06 296.81 L 213.56 296.45 L 214.06 296.09 L 214.56 295.74 L 215.07 295.40 L 215.57 295.06 L 216.07 294.73 L 216.57 294.40 L 217.07 294.08 L 217.57 293.77 L 218.07 293.45 L 218.57 293.15 L 219.07 292.85 L 219.57 292.55 L 220.07 292.26 L 220.57 291.97 L 221.07 291.69 L 221.57 291.42 L 222.07 291.14 L 222.57 290.88 L 223.07 290.61 L 223.57 290.36 L 224.07 290.10 L 224.57 289.85 L 225.08 289.61 L 225.58 289.37 L 226.08 289.14 L 226.58 288.91 L 227.08 288.68 L 227.58 288.46 L 228.08 288.24 L 228.58 288.03 L 229.08 287.82 L 229.58 287.61 L 230.08 287.41 L 230.58 287.22 L 231.08 287.02 L 231.58 286.84 L 232.08 286.65 L 232.58 286.47 L 233.08 286.29 L 233.58 286.12 L 234.08 285.95 L 234.58 285.79 L 235.09 285.63 L 235.59 285.47 L 236.09 285.31 L 236.59 285.16 L 237.09 285.02 L 237.59 284.87 L 238.09 284.73 L 238.59 284.60 L 239.09 284.46 L 239.59 284.33 L 240.09 284.21 L 240.59 284.08 L 241.09 283.96 L 241.59 283.85 L 242.09 283.73 L 242.59 283.62 L 243.09 283.52 L 243.59 283.41 L 244.09 283.31 L 244.59 283.21 L 245.10 283.12 L 245.60 283.02 L 246.10 282.93 L 246.60 282.85 L 247.10 282.76 L 247.60 282.68 L 248.10 282.60 L 248.60 282.52 L 249.10 282.45 L 249.60 282.38 L 250.10 282.31 L 250.60 282.24 L 251.10 282.18 L 251.60 282.12 L 252.10 282.06 L 252.60 282.00 L 253.10 281.94 L 253.60 281.89 L 254.10 281.84 L 254.60 281.79 L 255.11 281.75 L 255.61 281.70 L 256.11 281.66 L 256.61 281.62 L 257.11 281.58 L 257.61 281.54 L 258.11 281.51 L 258.61 281.47 L 259.11 281.44 L 259.61 281.41 L 260.11 281.38 L 260.61 281.36 L 261.11 281.33 L 261.61 281.31 L 262.11 281.29 L 262.61 281.27 L 263.11 281.25 L 263.61 281.23 L 264.11 281.21 L 264.61 281.20 L 265.12 281.18 L 265.62 281.17 L 266.12 281.16 L 266.62 281.15 L 267.12 281.14 L 267.62 281.13 L 268.12 281.12 L 268.62 281.12 L 269.12 281.11 L 269.62 281.11 L 270.12 281.10 L 270.62 281.10 L 271.12 281.10 L 271.62 281.10 L 272.12 281.09 L 272.62 281.09 L 273.12 281.09 L 273.62 281.09 L 274.12 281.10 L 274.62 281.10 L 275.13 281.10 L 275.63 281.10 L 276.13 281.10 L 276.63 281.11 L 277.13 281.11 L 277.63 281.11 L 278.13 281.12 L 278.63 281.12 L 279.13 281.12 L 279.63 281.13 L 280.13 281.13 L 280.63 281.14 L 281.13 281.14 L 281.63 281.14 L 282.13 281.15 L 282.63 281.15 L 283.13 281.15 L 283.63 281.15 L 284.13 281.16 L 284.63 281.16 L 285.14 281.16 L 285.64 281.16 L 286.14 281.16 L 286.64 281.16 L 287.14 281.16 L 287.64 281.16 L 288.14 281.16 L 288.64 281.15 L 289.14 281.15 L 289.64 281.14 L 290.14 281.14 L 290.64 281.13 L 291.14 281.13 L 291.64 281.12 L 292.14 281.11 L 292.64 281.10 L 293.14 281.09 L 293.64 281.08 L 294.14 281.06 L 294.64 281.05 L 295.15 281.03 L 295.65 281.02 L 296.15 281.00 L 296.65 280.98 L 297.15 280.96 L 297.65 280.94 L 298.15 280.92 L 298.65 280.89 L 299.15 280.87 L 299.65 280.85 L 300.15 280.82 L 300.65 280.80 L 301.15 280.77 L 301.65 280.74 L 302.15 280.71 L 302.65 280.68 L 303.15 280.65 L 303.65 280.62 L 304.15 280.59 L 304.65 280.56 L 305.16 280.53 L 305.66 280.49 L 306.16 280.46 L 306.66 280.43 L 307.16 280.39 L 307.66 280.35 L 308.16 280.32 L 308.66 280.28 L 309.16 280.24 L 309.66 280.21 L 310.16 280.17 L 310.66 280.13 L 311.16 280.09 L 311.66 280.05 L 312.16 280.01 L 312.66 279.97 L 313.16 279.93 L 313.66 279.89 L 314.16 279.84 L 314.66 279.80 L 315.17 279.76 L 315.67 279.72 L 316.17 279.67 L 316.67 279.63 L 317.17 279.59 L 317.67 279.54 L 318.17 279.50 L 318.67 279.46 L 319.17 279.41 L 319.67 279.37 L 320.17 279.32 L 320.67 279.28 L 321.17 279.24 L 321.67 279.19 L 322.17 279.15 L 322.67 279.10 L 323.17 279.06 L 323.67 279.01 L 324.17 278.97 L 324.67 278.92 L 325.18 278.88 L 325.68 278.84 L 326.18 278.79 L 326.68 278.75 L 327.18 278.70 L 327.68 278.66 L 328.18 278.62 L 328.68 278.57 L 329.18 278.53 L 329.68 278.49 L 330.18 278.45 L 330.68 278.40 L 331.18 278.36 L 331.68 278.32 L 332.18 278.28 L 332.68 278.24 L 333.18 278.20 L 333.68 278.16 L 334.18 278.12 L 334.68 278.08 L 335.19 278.04 L 335.69 278.00 L 336.19 277.97 L 336.69 277.93 L 337.19 277.89 L 337.69 277.86 L 338.19 277.82 L 338.69 277.79 L 339.19 277.75 L 339.69 277.72 L 340.19 277.69 L 340.69 277.66 L 341.19 277.62 L 341.69 277.59 L 342.19 277.56 L 342.69 277.53 L 343.19 277.51 L 343.69 277.48 L 344.19 277.45 L 344.69 277.42 L 345.20 277.40 L 345.70 277.38 L 346.20 277.35 L 346.70 277.33 L 347.20 277.31 L 347.70 277.29 L 348.20 277.27 L 348.70 277.25 L 349.20 277.23 L 349.70 277.21 L 350.20 277.20 L 350.70 277.18 L 351.20 277.17 L 351.70 277.16 L 352.20 277.15 L 352.70 277.14 L 353.20 277.13 L 353.70 277.12 L 354.20 277.11 L 354.70 277.11 L 355.21 277.10 L 355.71 277.10 L 356.21 277.10 L 356.71 277.10 L 357.21 277.10 L 357.71 277.10 L 358.21 277.11 L 358.71 277.11 L 359.21 277.12 L 359.71 277.12 L 360.21 277.13 L 360.71 277.14 L 361.21 277.16 L 361.71 277.17 L 362.21 277.18 L 362.71 277.20 L 363.21 277.22 L 363.71 277.24 L 364.21 277.26 L 364.71 277.28 L 365.22 277.31 L 365.72 277.33 L 366.22 277.36 L 366.72 277.39 L 367.22 277.42 L 367.72 277.45 L 368.22 277.49 L 368.72 277.52 L 369.22 277.56 L 369.72 277.59 L 370.22 277.63 L 370.72 277.67 L 371.22 277.71 L 371.72 277.76 L 372.22 277.80 L 372.72 277.85 L 373.22 277.89 L 373.72 277.94 L 374.22 277.99 L 374.72 278.04 L 375.23 278.09 L 375.73 278.14 L 376.23 278.19 L 376.73 278.25 L 377.23 278.30 L 377.73 278.36 L 378.23 278.41 L 378.73 278.47 L 379.23 278.53 L 379.73 278.59 L 380.23 278.65 L 380.73 278.71 L 381.23 278.77 L 381.73 278.83 L 382.23 278.89 L 382.73 278.95 L 383.23 279.02 L 383.73 279.08 L 384.23 279.15 L 384.73 279.21 L 385.24 279.28 L 385.74 279.35 L 386.24 279.41 L 386.74 279.48 L 387.24 279.55 L 387.74 279.62 L 388.24 279.68 L 388.74 279.75 L 389.24 279.82 L 389.74 279.89 L 390.24 279.96 L 390.74 280.03 L 391.24 280.10 L 391.74 280.17 L 392.24 280.24 L 392.74 280.31 L 393.24 280.38 L 393.74 280.45 L 394.24 280.52 L 394.74 280.59 L 395.25 280.66 L 395.75 280.74 L 396.25 280.81 L 396.75 280.88 L 397.25 280.95 L 397.75 281.02 L 398.25 281.09 L 398.75 281.16 L 399.25 281.23 L 399.75 281.29 L 400.25 281.36 L 400.75 281.43 L 401.25 281.50 L 401.75 281.57 L 402.25 281.64 L 402.75 281.70 L 403.25 281.77 L 403.75 281.84 L 404.25 281.90 L 404.75 281.97 L 405.26 282.03 L 405.76 282.09 L 406.26 282.16 L 406.76 282.22 L 407.26 282.28 L 407.76 282.34 L 408.26 282.40 L 408.76 282.46 L 409.26 282.52 L 409.76 282.58 L 410.26 282.64 L 410.76 282.69 L 411.26 282.75 L 411.76 282.80 L 412.26 282.86 L 412.76 282.91 L 413.26 282.96 L 413.76 283.01 L 414.26 283.06 L 414.76 283.11 L 415.27 283.16 L 415.77 283.21 L 416.27 283.25 L 416.77 283.30 L 417.27 283.34 L 417.77 283.38 L 418.27 283.42 L 418.77 283.46 L 419.27 283.50 L 419.77 283.53 L 420.27 283.57 L 420.77 283.60 L 421.27 283.63 L 421.77 283.67 L 422.27 283.69 L 422.77 283.72 L 423.27 283.75 L 423.77 283.77 L 424.27 283.80 L 424.77 283.82 L 425.28 283.84 L 425.78 283.86 L 426.28 283.87 L 426.78 283.89 L 427.28 283.90 L 427.78 283.91 L 428.28 283.92 L 428.78 283.93 L 429.28 283.93 L 429.78 283.94 L 430.28 283.94 L 430.78 283.94 L 431.28 283.94 L 431.78 283.93 L 432.28 283.93 L 432.78 283.92 L 433.28 283.91 L 433.78 283.90 L 434.28 283.88 L 434.78 283.87 L 435.29 283.85 L 435.79 283.83 L 436.29 283.80 L 436.79 283.78 L 437.29 283.75 L 437.79 283.72 L 438.29 283.69 L 438.79 283.66 L 439.29 283.62 L 439.79 283.58 L 440.29 283.54 L 440.79 283.50 L 441.29 283.46 L 441.79 283.41 L 442.29 283.36 L 442.79 283.32 L 443.29 283.26 L 443.79 283.21 L 444.29 283.16 L 444.79 283.10 L 445.30 283.04 L 445.80 282.98 L 446.30 282.92 L 446.80 282.86 L 447.30 282.80 L 447.80 282.73 L 448.30 282.66 L 448.80 282.60 L 449.30 282.53 L 449.80 282.45 L 450.30 282.38 L 450.80 282.31 L 451.30 282.23 L 451.80 282.16 L 452.30 282.08 L 452.80 282.00 L 453.30 281.92 L 453.80 281.84 L 454.30 281.76 L 454.80 281.68 L 455.31 281.60 L 455.81 281.51 L 456.31 281.43 L 456.81 281.34 L 457.31 281.26 L 457.81 281.17 L 458.31 281.08 L 458.81 280.99 L 459.31 280.90 L 459.81 280.81 L 460.31 280.72 L 460.81 280.63 L 461.31 280.54 L 461.81 280.45 L 462.31 280.35 L 462.81 280.26 L 463.31 280.17 L 463.81 280.07 L 464.31 279.98 L 464.81 279.89 L 465.32 279.79 L 465.82 279.70 L 466.32 279.60 L 466.82 279.51 L 467.32 279.41 L 467.82 279.32 L 468.32 279.22 L 468.82 279.12 L 469.32 279.03 L 469.82 278.93 L 470.32 278.84 L 470.82 278.74 L 471.32 278.65 L 471.82 278.55 L 472.32 278.46 L 472.82 278.37 L 473.32 278.27 L 473.82 278.18 L 474.32 278.09 L 474.82 277.99 L 475.33 277.90 L 475.83 277.81 L 476.33 277.72 L 476.83 277.63 L 477.33 277.54 L 477.83 277.45 L 478.33 277.36 L 478.83 277.27 L 479.33 277.18 L 479.83 277.10 L 480.33 277.01 L 480.83 276.93 L 481.33 276.84 L 481.83 276.76 L 482.33 276.68 L 482.83 276.60 L 483.33 276.52 L 483.83 276.44 L 484.33 276.36 L 484.83 276.28 L 485.34 276.21 L 485.84 276.13 L 486.34 276.06 L 486.84 275.99 L 487.34 275.92 L 487.84 275.85 L 488.34 275.78 L 488.84 275.71 L 489.34 275.65 L 489.84 275.58 L 490.34 275.52 L 490.84 275.46 L 491.34 275.40 L 491.84 275.34 L 492.34 275.29 L 492.84 275.23 L 493.34 275.18 L 493.84 275.13 L 494.34 275.08 L 494.84 275.03 L 495.35 274.99 L 495.85 274.94 L 496.35 274.90 L 496.85 274.86 L 497.35 274.83 L 497.85 274.79 L 498.35 274.76 L 498.85 274.72 L 499.35 274.70 L 499.85 274.67 L 500.35 274.64 L 500.85 274.62 L 501.35 274.60 L 501.85 274.58 L 502.35 274.57 L 502.85 274.55 L 503.35 274.54 L 503.85 274.53 L 504.35 274.53 L 504.85 274.52 L 505.36 274.52 L 505.86 274.52 L 506.36 274.53 L 506.86 274.53 L 507.36 274.54 L 507.86 274.55 L 508.36 274.57 L 508.86 274.59 L 509.36 274.61 L 509.86 274.63 L 510.36 274.65 L 510.86 274.68 L 511.36 274.71 L 511.86 274.74 L 512.36 274.78 L 512.86 274.81 L 513.36 274.85 L 513.86 274.89 L 514.36 274.94 L 514.86 274.98 L 515.37 275.03 L 515.87 275.08 L 516.37 275.13 L 516.87 275.18 L 517.37 275.23 L 517.87 275.29 L 518.37 275.35 L 518.87 275.41 L 519.37 275.47 L 519.87 275.53 L 520.37 275.59 L 520.87 275.66 L 521.37 275.72 L 521.87 275.79 L 522.37 275.86 L 522.87 275.93 L 523.37 276.00 L 523.87 276.07 L 524.37 276.14 L 524.87 276.22 L 525.38 276.29 L 525.88 276.37 L 526.38 276.44 L 526.88 276.52 L 527.38 276.60 L 527.88 276.68 L 528.38 276.76 L 528.88 276.84 L 529.38 276.92 L 529.88 277.00 L 530.38 277.08 L 530.88 277.16 L 531.38 277.24 L 531.88 277.32 L 532.38 277.40 L 532.88 277.49 L 533.38 277.57 L 533.88 277.65 L 534.38 277.73 L 534.88 277.81 L 535.39 277.89 L 535.89 277.98 L 536.39 278.06 L 536.89 278.14 L 537.39 278.22 L 537.89 278.30 L 538.39 278.38 L 538.89 278.46 L 539.39 278.53 L 539.89 278.61 L 540.39 278.69 L 540.89 278.77 L 541.39 278.84 L 541.89 278.92 L 542.39 278.99 L 542.89 279.06 L 543.39 279.13 L 543.89 279.20 L 544.39 279.27 L 544.89 279.34 L 545.40 279.41 L 545.90 279.48 L 546.40 279.54 L 546.90 279.60 L 547.40 279.67 L 547.90 279.73 L 548.40 279.79 L 548.90 279.84 L 549.40 279.90 L 549.90 279.95 L 550.40 280.00 L 550.90 280.05 L 551.40 280.10 L 551.90 280.15 L 552.40 280.19 L 552.90 280.24 L 553.40 280.28 L 553.90 280.32 L 554.40 280.35 L 554.90 280.39 L 555.41 280.42 L 555.91 280.45 L 556.41 280.48 L 556.91 280.50 L 557.41 280.52 L 557.91 280.54 L 558.41 280.56 L 558.91 280.57 L 559.41 280.59 L 559.91 280.59 L 560.41 280.60 L 560.91 280.60 L 561.41 280.61 L 561.91 280.60 L 562.41 280.60 L 562.91 280.59 L 563.41 280.58 L 563.91 280.56 L 564.41 280.54 L 564.91 280.52 L 565.42 280.50 L 565.92 280.47 L 566.42 280.44 L 566.92 280.40 L 567.42 280.37 L 567.92 280.32 L 568.42 280.28 L 568.92 280.23 L 569.42 280.18 L 569.92 280.12 L 570.42 280.06 L 570.92 279.99 L 571.42 279.92 L 571.92 279.85 L 572.42 279.77 L 572.92 279.69 L 573.42 279.61 L 573.92 279.52 L 574.42 279.43 L 574.92 279.33 L 575.43 279.23 L 575.93 279.12 L 576.43 279.01 L 576.93 278.89 L 577.43 278.77 L 577.93 278.65 L 578.43 278.52 L 578.93 278.38 L 579.43 278.24 L 579.93 278.10 L 580.43 277.95 L 580.93 277.80 L 581.43 277.64 L 581.93 277.47 L 582.43 277.31 L 582.93 277.13 L 583.43 276.95 L 583.93 276.77 L 584.43 276.58 L 584.93 276.38 L 585.44 276.18 L 585.94 275.97 L 586.44 275.76 L 586.94 275.54 L 587.44 275.32 L 587.94 275.09 L 588.44 274.86 L 588.94 274.62 L 589.44 274.37 L 589.94 274.12 L 590.44 273.86 L 590.94 273.60 L 591.44 273.33 L 591.94 273.05 L 592.44 272.77 L 592.94 272.48 L 593.44 272.18 L 593.94 271.88 L 594.44 271.57 L 594.94 271.26 L 595.45 270.94 L 595.95 270.61 L 596.45 270.28 L 596.95 269.94 L 597.45 269.59 L 597.95 269.24 L 598.45 268.87 L 598.95 268.51 L 599.45 268.13 L 599.95 267.75 L 600.45 267.36 L 600.95 266.97 L 601.45 266.56 L 601.95 266.15 L 602.45 265.74 L 602.95 265.31 L 603.45 264.88 L 603.95 264.44 L 604.45 263.99 L 604.95 263.54 L 605.46 263.08 L 605.96 262.61 L 606.46 262.13 L 606.96 261.65 L 607.46 261.16 L 607.96 260.66 L 608.46 260.15 L 608.96 259.63 L 609.46 259.11 L 609.96 258.58 L 610.46 258.04 L 610.96 257.49 L 611.46 256.93 L 611.96 256.37 L 612.46 255.79 L 612.96 255.21 L 613.46 254.62 L 613.96 254.03 L 614.46 253.42 L 614.96 252.80 L 615.47 252.18 L 615.97 251.55 L 616.47 250.91 L 616.97 250.26 L 617.47 249.60 L 617.97 248.93 L 618.47 248.25 L 618.97 247.57 L 619.47 246.87 L 619.97 246.17 L 620.47 245.46 L 620.97 244.74 L 621.47 244.01 L 621.97 243.27 L 622.47 242.52 L 622.97 241.76 L 623.47 240.99 L 623.97 240.21 L 624.47 239.42 L 624.97 238.63 L 625.48 237.82 L 625.98 237.00 L 626.48 236.18 L 626.98 235.34 L 627.48 234.49 L 627.98 233.64 L 628.48 232.77 L 628.98 231.90 L 629.48 231.01 L 629.98 230.11 L 630.48 229.21 L 630.98 228.29 L 631.48 227.36 L 631.98 226.43 L 632.48 225.48 L 632.98 224.52 L 633.48 223.55 L 633.98 222.57 L 634.48 221.58 L 634.98 220.58 L 635.49 219.57 L 635.99 218.55 L 636.49 217.52 L 636.99 216.48 L 637.49 215.42 L 637.99 214.36 L 638.49 213.28 L 638.99 212.19 L 639.49 211.09 L 639.99 209.98 L 640.49 208.86 L 640.99 207.73 L 641.49 206.59 L 641.99 205.43 L 642.49 204.26 L 642.99 203.09 L 643.49 201.90 L 643.99 200.70 L 644.49 199.48 L 644.99 198.26 L 645.50 197.02 L 646.00 195.77 L 646.50 194.51 L 647.00 193.24 L 647.50 191.96 L 648.00 190.66 L 648.50 189.35 L 649.00 188.03 L 649.50 186.70 L 650.00 185.36" /><text  class="poloto_text poloto_legend_text" x="675" y="200" >derivative 1</text><line  class="poloto_line poloto_legend_icon poloto2stroke poloto2legend" stroke="black" x1="680" x2="730" y1="181.25" y2="181.25" /><path  class="poloto_line poloto2stroke" fill="none" stroke="black" d=" M 150.00 100.00 L 150.50 101.53 L 151.00 103.06 L 151.50 104.58 L 152.00 106.09 L 152.50 107.60 L 153.00 109.10 L 153.50 110.60 L 154.00 112.09 L 154.50 113.57 L 155.01 115.05 L 155.51 116.53 L 156.01 117.99 L 156.51 119.45 L 157.01 120.91 L 157.51 122.36 L 158.01 123.80 L 158.51 125.24 L 159.01 126.67 L 159.51 128.09 L 160.01 129.51 L 160.51 130.92 L 161.01 132.33 L 161.51 133.73 L 162.01 135.13 L 162.51 136.52 L 163.01 137.90 L 163.51 139.28 L 164.01 140.65 L 164.51 142.02 L 165.02 143.38 L 165.52 144.73 L 166.02 146.08 L 166.52 147.42 L 167.02 148.76 L 167.52 150.09 L 168.02 151.41 L 168.52 152.73 L 169.02 154.04 L 169.52 155.35 L 170.02 156.65 L 170.52 157.94 L 171.02 159.23 L 171.52 160.52 L 172.02 161.79 L 172.52 163.06 L 173.02 164.33 L 173.52 165.59 L 174.02 166.84 L 174.52 168.09 L 175.03 169.33 L 175.53 170.56 L 176.03 171.79 L 176.53 173.02 L 177.03 174.23 L 177.53 175.45 L 178.03 176.65 L 178.53 177.85 L 179.03 179.04 L 179.53 180.23 L 180.03 181.41 L 180.53 182.59 L 181.03 183.76 L 181.53 184.92 L 182.03 186.08 L 182.53 187.23 L 183.03 188.38 L 183.53 189.52 L 184.03 190.66 L 184.53 191.78 L 185.04 192.91 L 185.54 194.02 L 186.04 195.13 L 186.54 196.24 L 187.04 197.34 L 187.54 198.43 L 188.04 199.52 L 188.54 200.60 L 189.04 201.67 L 189.54 202.74 L 190.04 203.81 L 190.54 204.86 L 191.04 205.91 L 191.54 206.96 L 192.04 208.00 L 192.54 209.03 L 193.04 210.06 L 193.54 211.08 L 194.04 212.10 L 194.54 213.11 L 195.05 214.11 L 195.55 215.11 L 196.05 216.10 L 196.55 217.09 L 197.05 218.07 L 197.55 219.04 L 198.05 220.01 L 198.55 220.97 L 199.05 221.93 L 199.55 222.88 L 200.05 223.82 L 200.55 224.76 L 201.05 225.69 L 201.55 226.62 L 202.05 227.54 L 202.55 228.46 L 203.05 229.37 L 203.55 230.27 L 204.05 231.17 L 204.55 232.06 L 205.06 232.94 L 205.56 233.82 L 206.06 234.70 L 206.56 235.56 L 207.06 236.42 L 207.56 237.28 L 208.06 238.13 L 208.56 238.97 L 209.06 239.81 L 209.56 240.64 L 210.06 241.47 L 210.56 242.29 L 211.06 243.10 L 211.56 243.91 L 212.06 244.71 L 212.56 245.51 L 213.06 246.30 L 213.56 247.08 L 214.06 247.86 L 214.56 248.63 L 215.07 249.40 L 215.57 250.16 L 216.07 250.92 L 216.57 251.66 L 217.07 252.41 L 217.57 253.14 L 218.07 253.88 L 218.57 254.60 L 219.07 255.32 L 219.57 256.03 L 220.07 256.74 L 220.57 257.44 L 221.07 258.14 L 221.57 258.83 L 222.07 259.51 L 222.57 260.19 L 223.07 260.86 L 223.57 261.52 L 224.07 262.18 L 224.57 262.84 L 225.08 263.48 L 225.58 264.13 L 226.08 264.76 L 226.58 265.39 L 227.08 266.02 L 227.58 266.64 L 228.08 267.25 L 228.58 267.85 L 229.08 268.45 L 229.58 269.05 L 230.08 269.64 L 230.58 270.22 L 231.08 270.80 L 231.58 271.37 L 232.08 271.93 L 232.58 272.49 L 233.08 273.04 L 233.58 273.59 L 234.08 274.13 L 234.58 274.67 L 235.09 275.20 L 235.59 275.72 L 236.09 276.24 L 236.59 276.75 L 237.09 277.25 L 237.59 277.75 L 238.09 278.25 L 238.59 278.73 L 239.09 279.22 L 239.59 279.69 L 240.09 280.16 L 240.59 280.63 L 241.09 281.08 L 241.59 281.54 L 242.09 281.98 L 242.59 282.42 L 243.09 282.86 L 243.59 283.28 L 244.09 283.71 L 244.59 284.12 L 245.10 284.53 L 245.60 284.94 L 246.10 285.34 L 246.60 285.73 L 247.10 286.12 L 247.60 286.50 L 248.10 286.87 L 248.60 287.24 L 249.10 287.60 L 249.60 287.96 L 250.10 288.31 L 250.60 288.66 L 251.10 289.00 L 251.60 289.33 L 252.10 289.66 L 252.60 289.98 L 253.10 290.30 L 253.60 290.60 L 254.10 290.91 L 254.60 291.21 L 255.11 291.50 L 255.61 291.78 L 256.11 292.06 L 256.61 292.34 L 257.11 292.61 L 257.61 292.87 L 258.11 293.12 L 258.61 293.38 L 259.11 293.62 L 259.61 293.86 L 260.11 294.09 L 260.61 294.32 L 261.11 294.54 L 261.61 294.75 L 262.11 294.96 L 262.61 295.16 L 263.11 295.36 L 263.61 295.55 L 264.11 295.74 L 264.61 295.92 L 265.12 296.09 L 265.62 296.26 L 266.12 296.42 L 266.62 296.57 L 267.12 296.72 L 267.62 296.87 L 268.12 297.00 L 268.62 297.14 L 269.12 297.26 L 269.62 297.38 L 270.12 297.49 L 270.62 297.60 L 271.12 297.70 L 271.62 297.80 L 272.12 297.89 L 272.62 297.97 L 273.12 298.05 L 273.62 298.13 L 274.12 298.19 L 274.62 298.25 L 275.13 298.31 L 275.63 298.36 L 276.13 298.40 L 276.63 298.43 L 277.13 298.47 L 277.63 298.49 L 278.13 298.51 L 278.63 298.52 L 279.13 298.53 L 279.63 298.53 L 280.13 298.53 L 280.63 298.51 L 281.13 298.50 L 281.63 298.48 L 282.13 298.45 L 282.63 298.41 L 283.13 298.37 L 283.63 298.33 L 284.13 298.27 L 284.63 298.22 L 285.14 298.15 L 285.64 298.08 L 286.14 298.00 L 286.64 297.92 L 287.14 297.84 L 287.64 297.74 L 288.14 297.64 L 288.64 297.54 L 289.14 297.42 L 289.64 297.31 L 290.14 297.18 L 290.64 297.05 L 291.14 296.92 L 291.64 296.78 L 292.14 296.63 L 292.64 296.48 L 293.14 296.32 L 293.64 296.16 L 294.14 296.00 L 294.64 295.85 L 295.15 295.70 L 295.65 295.55 L 296.15 295.41 L 296.65 295.27 L 297.15 295.13 L 297.65 294.99 L 298.15 294.86 L 298.65 294.73 L 299.15 294.60 L 299.65 294.47 L 300.15 294.35 L 300.65 294.23 L 301.15 294.11 L 301.65 294.00 L 302.15 293.89 L 302.65 293.78 L 303.15 293.67 L 303.65 293.57 L 304.15 293.47 L 304.65 293.37 L 305.16 293.27 L 305.66 293.18 L 306.16 293.09 L 306.66 293.00 L 307.16 292.92 L 307.66 292.84 L 308.16 292.76 L 308.66 292.68 L 309.16 292.61 L 309.66 292.54 L 310.16 292.47 L 310.66 292.40 L 311.16 292.34 L 311.66 292.28 L 312.16 292.22 L 312.66 292.17 L 313.16 292.12 L 313.66 292.07 L 314.16 292.02 L 314.66 291.98 L 315.17 291.94 L 315.67 291.90 L 316.17 291.86 L 316.67 291.83 L 317.17 291.80 L 317.67 291.77 L 318.17 291.75 L 318.67 291.72 L 319.17 291.71 L 319.67 291.69 L 320.17 291.68 L 320.67 291.66 L 321.17 291.66 L 321.67 291.65 L 322.17 291.65 L 322.67 291.65 L 323.17 291.65 L 323.67 291.66 L 324.17 291.66 L 324.67 291.67 L 325.18 291.69 L 325.68 291.70 L 326.18 291.72 L 326.68 291.74 L 327.18 291.77 L 327.68 291.80 L 328.18 291.83 L 328.68 291.86 L 329.18 291.89 L 329.68 291.93 L 330.18 291.97 L 330.68 292.02 L 331.18 292.06 L 331.68 292.11 L 332.18 292.16 L 332.68 292.22 L 333.18 292.27 L 333.68 292.33 L 334.18 292.40 L 334.68 292.46 L 335.19 292.53 L 335.69 292.60 L 336.19 292.68 L 336.69 292.75 L 337.19 292.83 L 337.69 292.91 L 338.19 293.00 L 338.69 293.08 L 339.19 293.17 L 339.69 293.27 L 340.19 293.36 L 340.69 293.46 L 341.19 293.56 L 341.69 293.66 L 342.19 293.77 L 342.69 293.88 L 343.19 293.99 L 343.69 294.10 L 344.19 294.22 L 344.69 294.34 L 345.20 294.46 L 345.70 294.59 L 346.20 294.72 L 346.70 294.85 L 347.20 294.98 L 347.70 295.12 L 348.20 295.26 L 348.70 295.40 L 349.20 295.54 L 349.70 295.69 L 350.20 295.84 L 350.70 295.99 L 351.20 296.15 L 351.70 296.31 L 352.20 296.47 L 352.70 296.63 L 353.20 296.80 L 353.70 296.97 L 354.20 297.14 L 354.70 297.31 L 355.21 297.49 L 355.71 297.67 L 356.21 297.85 L 356.71 298.04 L 357.21 298.22 L 357.71 298.41 L 358.21 298.61 L 358.71 298.80 L 359.21 299.00 L 359.71 299.20 L 360.21 299.41 L 360.71 299.62 L 361.21 299.83 L 361.71 300.04 L 362.21 300.25 L 362.71 300.47 L 363.21 300.69 L 363.71 300.92 L 364.21 301.14 L 364.71 301.37 L 365.22 301.60 L 365.72 301.82 L 366.22 302.04 L 366.72 302.25 L 367.22 302.46 L 367.72 302.67 L 368.22 302.87 L 368.72 303.07 L 369.22 303.26 L 369.72 303.45 L 370.22 303.64 L 370.72 303.82 L 371.22 304.00 L 371.72 304.18 L 372.22 304.35 L 372.72 304.52 L 373.22 304.68 L 373.72 304.84 L 374.22 305.00 L 374.72 305.15 L 375.23 305.30 L 375.73 305.44 L 376.23 305.58 L 376.73 305.72 L 377.23 305.85 L 377.73 305.98 L 378.23 306.11 L 378.73 306.23 L 379.23 306.35 L 379.73 306.46 L 380.23 306.57 L 380.73 306.68 L 381.23 306.78 L 381.73 306.88 L 382.23 306.97 L 382.73 307.06 L 383.23 307.15 L 383.73 307.23 L 384.23 307.31 L 384.73 307.39 L 385.24 307.46 L 385.74 307.53 L 386.24 307.59 L 386.74 307.65 L 387.24 307.71 L 387.74 307.76 L 388.24 307.81 L 388.74 307.85 L 389.24 307.89 L 389.74 307.93 L 390.24 307.96 L 390.74 307.99 L 391.24 308.02 L 391.74 308.04 L 392.24 308.06 L 392.74 308.07 L 393.24 308.08 L 393.74 308.09 L 394.24 308.09 L 394.74 308.09 L 395.25 308.08 L 395.75 308.07 L 396.25 308.06 L 396.75 308.04 L 397.25 308.02 L 397.75 308.00 L 398.25 307.97 L 398.75 307.94 L 399.25 307.90 L 399.75 307.86 L 400.25 307.82 L 400.75 307.77 L 401.25 307.72 L 401.75 307.66 L 402.25 307.60 L 402.75 307.54 L 403.25 307.47 L 403.75 307.40 L 404.25 307.33 L 404.75 307.25 L 405.26 307.17 L 405.76 307.08 L 406.26 306.99 L 406.76 306.90 L 407.26 306.80 L 407.76 306.70 L 408.26 306.59 L 408.76 306.48 L 409.26 306.37 L 409.76 306.25 L 410.26 306.13 L 410.76 306.01 L 411.26 305.88 L 411.76 305.75 L 412.26 305.61 L 412.76 305.47 L 413.26 305.33 L 413.76 305.18 L 414.26 305.03 L 414.76 304.87 L 415.27 304.71 L 415.77 304.55 L 416.27 304.38 L 416.77 304.21 L 417.27 304.04 L 417.77 303.86 L 418.27 303.67 L 418.77 303.49 L 419.27 303.30 L 419.77 303.10 L 420.27 302.91 L 420.77 302.70 L 421.27 302.50 L 421.77 302.29 L 422.27 302.08 L 422.77 301.86 L 423.27 301.64 L 423.77 301.41 L 424.27 301.19 L 424.77 300.95 L 425.28 300.72 L 425.78 300.48 L 426.28 300.23 L 426.78 299.98 L 427.28 299.73 L 427.78 299.48 L 428.28 299.22 L 428.78 298.95 L 429.28 298.69 L 429.78 298.42 L 430.28 298.14 L 430.78 297.86 L 431.28 297.58 L 431.78 297.29 L 432.28 297.00 L 432.78 296.71 L 433.28 296.41 L 433.78 296.11 L 434.28 295.80 L 434.78 295.49 L 435.29 295.18 L 435.79 294.86 L 436.29 294.54 L 436.79 294.23 L 437.29 293.92 L 437.79 293.61 L 438.29 293.31 L 438.79 293.02 L 439.29 292.73 L 439.79 292.44 L 440.29 292.16 L 440.79 291.89 L 441.29 291.61 L 441.79 291.35 L 442.29 291.09 L 442.79 290.83 L 443.29 290.58 L 443.79 290.34 L 444.29 290.09 L 444.79 289.86 L 445.30 289.63 L 445.80 289.40 L 446.30 289.18 L 446.80 288.97 L 447.30 288.75 L 447.80 288.55 L 448.30 288.35 L 448.80 288.15 L 449.30 287.96 L 449.80 287.77 L 450.30 287.59 L 450.80 287.42 L 451.30 287.25 L 451.80 287.08 L 452.30 286.92 L 452.80 286.76 L 453.30 286.61 L 453.80 286.46 L 454.30 286.32 L 454.80 286.19 L 455.31 286.05 L 455.81 285.93 L 456.31 285.81 L 456.81 285.69 L 457.31 285.58 L 457.81 285.47 L 458.31 285.37 L 458.81 285.27 L 459.31 285.18 L 459.81 285.09 L 460.31 285.01 L 460.81 284.94 L 461.31 284.86 L 461.81 284.80 L 462.31 284.74 L 462.81 284.68 L 463.31 284.63 L 463.81 284.58 L 464.31 284.54 L 464.81 284.50 L 465.32 284.47 L 465.82 284.44 L 466.32 284.42 L 466.82 284.40 L 467.32 284.39 L 467.82 284.38 L 468.32 284.38 L 468.82 284.38 L 469.32 284.39 L 469.82 284.40 L 470.32 284.42 L 470.82 284.44 L 471.32 284.47 L 471.82 284.50 L 472.32 284.54 L 472.82 284.59 L 473.32 284.63 L 473.82 284.69 L 474.32 284.74 L 474.82 284.80 L 475.33 284.87 L 475.83 284.94 L 476.33 285.02 L 476.83 285.10 L 477.33 285.19 L 477.83 285.28 L 478.33 285.38 L 478.83 285.48 L 479.33 285.59 L 479.83 285.70 L 480.33 285.82 L 480.83 285.94 L 481.33 286.07 L 481.83 286.20 L 482.33 286.34 L 482.83 286.48 L 483.33 286.63 L 483.83 286.78 L 484.33 286.94 L 484.83 287.10 L 485.34 287.26 L 485.84 287.44 L 486.34 287.61 L 486.84 287.79 L 487.34 287.98 L 487.84 288.17 L 488.34 288.37 L 488.84 288.57 L 489.34 288.78 L 489.84 288.99 L 490.34 289.21 L 490.84 289.43 L 491.34 289.65 L 491.84 289.88 L 492.34 290.12 L 492.84 290.36 L 493.34 290.61 L 493.84 290.86 L 494.34 291.12 L 494.84 291.38 L 495.35 291.64 L 495.85 291.92 L 496.35 292.19 L 496.85 292.47 L 497.35 292.76 L 497.85 293.05 L 498.35 293.35 L 498.85 293.65 L 499.35 293.95 L 499.85 294.26 L 500.35 294.58 L 500.85 294.90 L 501.35 295.23 L 501.85 295.56 L 502.35 295.89 L 502.85 296.23 L 503.35 296.58 L 503.85 296.93 L 504.35 297.29 L 504.85 297.65 L 505.36 298.01 L 505.86 298.38 L 506.36 298.76 L 506.86 299.14 L 507.36 299.53 L 507.86 299.91 L 508.36 300.29 L 508.86 300.67 L 509.36 301.03 L 509.86 301.39 L 510.36 301.74 L 510.86 302.08 L 511.36 302.42 L 511.86 302.74 L 512.36 303.06 L 512.86 303.38 L 513.36 303.68 L 513.86 303.98 L 514.36 304.27 L 514.86 304.55 L 515.37 304.83 L 515.87 305.09 L 516.37 305.35 L 516.87 305.60 L 517.37 305.85 L 517.87 306.09 L 518.37 306.32 L 518.87 306.54 L 519.37 306.75 L 519.87 306.96 L 520.37 307.16 L 520.87 307.35 L 521.37 307.54 L 521.87 307.71 L 522.37 307.88 L 522.87 308.04 L 523.37 308.20 L 523.87 308.34 L 524.37 308.48 L 524.87 308.61 L 525.38 308.74 L 525.88 308.86 L 526.38 308.96 L 526.88 309.07 L 527.38 309.16 L 527.88 309.25 L 528.38 309.32 L 528.88 309.40 L 529.38 309.46 L 529.88 309.52 L 530.38 309.56 L 530.88 309.61 L 531.38 309.64 L 531.88 309.67 L 532.38 309.68 L 532.88 309.69 L 533.38 309.70 L 533.88 309.69 L 534.38 309.68 L 534.88 309.66 L 535.39 309.64 L 535.89 309.60 L 536.39 309.56 L 536.89 309.51 L 537.39 309.45 L 537.89 309.39 L 538.39 309.32 L 538.89 309.24 L 539.39 309.15 L 539.89 309.06 L 540.39 308.96 L 540.89 308.85 L 541.39 308.73 L 541.89 308.60 L 542.39 308.47 L 542.89 308.33 L 543.39 308.18 L 543.89 308.03 L 544.39 307.87 L 544.89 307.70 L 545.40 307.52 L 545.90 307.33 L 546.40 307.14 L 546.90 306.94 L 547.40 306.73 L 547.90 306.52 L 548.40 306.30 L 548.90 306.07 L 549.40 305.83 L 549.90 305.58 L 550.40 305.33 L 550.90 305.07 L 551.40 304.80 L 551.90 304.53 L 552.40 304.24 L 552.90 303.95 L 553.40 303.66 L 553.90 303.35 L 554.40 303.04 L 554.90 302.72 L 555.41 302.39 L 555.91 302.05 L 556.41 301.71 L 556.91 301.36 L 557.41 301.00 L 557.91 300.63 L 558.41 300.26 L 558.91 299.88 L 559.41 299.49 L 559.91 299.10 L 560.41 298.69 L 560.91 298.28 L 561.41 297.86 L 561.91 297.44 L 562.41 297.00 L 562.91 296.56 L 563.41 296.11 L 563.91 295.66 L 564.41 295.19 L 564.91 294.72 L 565.42 294.24 L 565.92 293.76 L 566.42 293.26 L 566.92 292.76 L 567.42 292.25 L 567.92 291.73 L 568.42 291.21 L 568.92 290.68 L 569.42 290.14 L 569.92 289.59 L 570.42 289.04 L 570.92 288.48 L 571.42 287.91 L 571.92 287.33 L 572.42 286.75 L 572.92 286.15 L 573.42 285.55 L 573.92 284.95 L 574.42 284.33 L 574.92 283.71 L 575.43 283.08 L 575.93 282.44 L 576.43 281.80 L 576.93 281.15 L 577.43 280.49 L 577.93 279.82 L 578.43 279.14 L 578.93 278.46 L 579.43 277.77 L 579.93 277.07 L 580.43 276.37 L 580.93 275.66 L 581.43 274.94 L 581.93 274.21 L 582.43 273.47 L 582.93 272.73 L 583.43 271.98 L 583.93 271.22 L 584.43 270.46 L 584.93 269.68 L 585.44 268.90 L 585.94 268.12 L 586.44 267.32 L 586.94 266.52 L 587.44 265.71 L 587.94 264.89 L 588.44 264.06 L 588.94 263.23 L 589.44 262.39 L 589.94 261.54 L 590.44 260.69 L 590.94 259.82 L 591.44 258.95 L 591.94 258.07 L 592.44 257.19 L 592.94 256.29 L 593.44 255.39 L 593.94 254.48 L 594.44 253.57 L 594.94 252.64 L 595.45 251.71 L 595.95 250.77 L 596.45 249.83 L 596.95 248.87 L 597.45 247.91 L 597.95 246.94 L 598.45 245.97 L 598.95 244.98 L 599.45 243.99 L 599.95 242.99 L 600.45 241.99 L 600.95 240.97 L 601.45 239.95 L 601.95 238.92 L 602.45 237.89 L 602.95 236.84 L 603.45 235.79 L 603.95 234.73 L 604.45 233.66 L 604.95 232.59 L 605.46 231.51 L 605.96 230.42 L 606.46 229.32 L 606.96 228.22 L 607.46 227.10 L 607.96 225.98 L 608.46 224.86 L 608.96 223.72 L 609.46 222.58 L 609.96 221.43 L 610.46 220.27 L 610.96 219.11 L 611.46 217.94 L 611.96 216.76 L 612.46 215.57 L 612.96 214.37 L 613.46 213.17 L 613.96 211.96 L 614.46 210.74 L 614.96 209.52 L 615.47 208.29 L 615.97 207.05 L 616.47 205.80 L 616.97 204.54 L 617.47 203.28 L 617.97 202.01 L 618.47 200.73 L 618.97 199.45 L 619.47 198.15 L 619.97 196.85 L 620.47 195.55 L 620.97 194.23 L 621.47 192.91 L 621.97 191.58 L 622.47 190.24 L 622.97 188.89 L 623.47 187.54 L 623.97 186.18 L 624.47 184.81 L 624.97 183.43 L 625.48 182.05 L 625.98 180.66 L 626.48 179.26 L 626.98 177.86 L 627.48 176.44 L 627.98 175.02 L 628.48 173.59 L 628.98 172.16 L 629.48 170.71 L 629.98 169.26 L 630.48 167.80 L 630.98 166.34 L 631.48 164.86 L 631.98 163.38 L 632.48 161.89 L 632.98 160.40 L 633.48 158.89 L 633.98 157.38 L 634.48 155.86 L 634.98 154.34 L 635.49 152.80 L 635.99 151.26 L 636.49 149.71 L 636.99 148.15 L 637.49 146.59 L 637.99 145.02 L 638.49 143.44 L 638.99 141.85 L 639.49 140.26 L 639.99 138.65 L 640.49 137.05 L 640.99 135.43 L 641.49 133.80 L 641.99 132.17 L 642.49 130.53 L 642.99 128.88 L 643.49 127.23 L 643.99 125.57 L 644.49 123.90 L 644.99 122.22 L 645.50 120.54 L 646.00 118.84 L 646.50 117.14 L 647.00 115.44 L 647.50 113.72 L 648.00 112.00 L 648.50 110.27 L 649.00 108.53 L 649.50 106.79 L 650.00 105.03" /><text  class="poloto_labels poloto_text poloto_title" x="400" y="37.5" >bspline example 3 b</text><text  class="poloto_labels poloto_text poloto_xname" x="400" y="481.25" >x</text><text  class="poloto_labels poloto_text poloto_yname" transform="rotate(-90,37.5,250)" x="37.5" y="250" >y</text><text  class="poloto_tick_labels poloto_text" dominant-baseline="middle" text-anchor="start" x="150" y="70" ></text><line  class="poloto_axis_lines" stroke="black" x1="150" x2="144" y1="363.45454180000246" y2="363.45454180000246" /><text  class="poloto_tick_labels poloto_text" dominant-baseline="middle" text-anchor="end" x="135" y="363.45454180000246" >-10</text><line  class="poloto_axis_lines" stroke="black" x1="150" x2="144" y1="297.99999725341803" y2="297.99999725341803" /><text  class="poloto_tick_labels poloto_text" dominant-baseline="middle" text-anchor="end" x="135" y="297.99999725341803" >0</text><line  class="poloto_axis_lines" stroke="black" x1="150" x2="144" y1="232.54545270683354" y2="232.54545270683354" /><text  class="poloto_tick_labels poloto_text" dominant-baseline="middle" text-anchor="end" x="135" y="232.54545270683354" >10</text><line  class="poloto_axis_lines" stroke="black" x1="150" x2="144" y1="167.0909081602491" y2="167.0909081602491" /><text  class="poloto_tick_labels poloto_text" dominant-baseline="middle" text-anchor="end" x="135" y="167.0909081602491" >20</text><line  class="poloto_axis_lines" stroke="black" x1="150" x2="144" y1="101.63636361366463" y2="101.63636361366463" /><text  class="poloto_tick_labels poloto_text" dominant-baseline="middle" text-anchor="end" x="135" y="101.63636361366463" >30</text><text  class="poloto_tick_labels poloto_text" dominant-baseline="middle" text-anchor="start" x="440.00000000000006" y="70" ></text><line  class="poloto_axis_lines" stroke="black" x1="150" x2="150" y1="400" y2="405" /><text  class="poloto_tick_labels poloto_text" dominant-baseline="start" text-anchor="middle" x="150" y="430" >0</text><line  class="poloto_axis_lines" stroke="black" x1="221.5000711880439" x2="221.5000711880439" y1="400" y2="405" /><text  class="poloto_tick_labels poloto_text" dominant-baseline="start" text-anchor="middle" x="221.5000711880439" y="430" >1</text><line  class="poloto_axis_lines" stroke="black" x1="293.0001423760878" x2="293.0001423760878" y1="400" y2="405" /><text  class="poloto_tick_labels poloto_text" dominant-baseline="start" text-anchor="middle" x="293.0001423760878" y="430" >2</text><line  class="poloto_axis_lines" stroke="black" x1="364.50021356413174" x2="364.50021356413174" y1="400" y2="405" /><text  class="poloto_tick_labels poloto_text" dominant-baseline="start" text-anchor="middle" x="364.50021356413174" y="430" >3</text><line  class="poloto_axis_lines" stroke="black" x1="436.0002847521756" x2="436.0002847521756" y1="400" y2="405" /><text  class="poloto_tick_labels poloto_text" dominant-baseline="start" text-anchor="middle" x="436.0002847521756" y="430" >4</text><line  class="poloto_axis_lines" stroke="black" x1="507.5003559402195" x2="507.5003559402195" y1="400" y2="405" /><text  class="poloto_tick_labels poloto_text" dominant-baseline="start" text-anchor="middle" x="507.5003559402195" y="430" >5</text><line  class="poloto_axis_lines" stroke="black" x1="579.0004271282635" x2="579.0004271282635" y1="400" y2="405" /><text  class="poloto_tick_labels poloto_text" dominant-baseline="start" text-anchor="middle" x="579.0004271282635" y="430" >6</text><path  stroke="black" fill="none" class="poloto_axis_lines" style="stroke-dasharray:7.150007118804391;stroke-dashoffset:-0;" d=" M 150 400 L 650 400" /><path  stroke="black" fill="none" class="poloto_axis_lines" style="stroke-dasharray:6.545454454658445;stroke-dashoffset:-36.545458199997526;" d=" M 150 400 L 150 100" /></svg>