<svg class="poloto" width="800" height="500" viewBox="0 0 800 500" xmlns="http://www.w3.org/2000/svg"><style>.poloto{stroke-linecap:round;stroke-linejoin:round;font-family:Roboto,sans-serif;font-size:16px;}.poloto_background{fill:AliceBlue;}.poloto_scatter{stroke-width:7}.poloto_tick_line{stroke:gray;stroke-width:0.5}.poloto_line{stroke-width:2}.poloto_text{fill: black;}.poloto_axis_lines{stroke: black;stroke-width:3;fill:none;stroke-dasharray:none}.poloto_title{font-size:24px;dominant-baseline:start;text-anchor:middle;}.poloto_xname{font-size:24px;dominant-baseline:start;text-anchor:middle;}.poloto_yname{font-size:24px;dominant-baseline:start;text-anchor:middle;}.poloto_legend_text{font-size:20px;dominant-baseline:middle;text-anchor:start;}.poloto0stroke{stroke:blue;}.poloto1stroke{stroke:red;}.poloto2stroke{stroke:green;}.poloto3stroke{stroke:gold;}.poloto4stroke{stroke:aqua;}.poloto5stroke{stroke:lime;}.poloto6stroke{stroke:orange;}.poloto7stroke{stroke:chocolate;}.poloto0fill{fill:blue;}.poloto1fill{fill:red;}.poloto2fill{fill:green;}.poloto3fill{fill:gold;}.poloto4fill{fill:aqua;}.poloto5fill{fill:lime;}.poloto6fill{fill:orange;}.poloto7fill{fill:chocolate;}</style><circle  r="1e5" class="poloto_background" /><text  class="poloto_text poloto_legend_text" x="675" y="100" >knot</text><line  class="poloto_scatter poloto_legend_icon poloto0stroke poloto0legend" stroke="black" x1="685" x2="685" y1="81.25" y2="81.25" /><path  class="poloto_scatter poloto0stroke" d=" M 250.10 305.01 h 0 M 350.20 305.01 h 0 M 450.30 305.01 h 0 M 550.40 305.01 h 0" /><text  class="poloto_text poloto_legend_text" x="675" y="150" >curve</text><line  class="poloto_line poloto_legend_icon poloto1stroke poloto1legend" stroke="black" x1="680" x2="730" y1="131.25" y2="131.25" /><path  class="poloto_line poloto1stroke" fill="none" stroke="black" d=" M 150.00 349.20 L 150.50 348.77 L 151.00 348.34 L 151.50 347.92 L 152.00 347.50 L 152.50 347.08 L 153.00 346.67 L 153.50 346.25 L 154.00 345.84 L 154.50 345.43 L 155.01 345.03 L 155.51 344.62 L 156.01 344.22 L 156.51 343.82 L 157.01 343.42 L 157.51 343.03 L 158.01 342.64 L 158.51 342.24 L 159.01 341.86 L 159.51 341.47 L 160.01 341.09 L 160.51 340.71 L 161.01 340.33 L 161.51 339.95 L 162.01 339.57 L 162.51 339.20 L 163.01 338.83 L 163.51 338.46 L 164.01 338.10 L 164.51 337.73 L 165.02 337.37 L 165.52 337.01 L 166.02 336.65 L 166.52 336.30 L 167.02 335.95 L 167.52 335.60 L 168.02 335.25 L 168.52 334.90 L 169.02 334.56 L 169.52 334.21 L 170.02 333.87 L 170.52 333.53 L 171.02 333.20 L 171.52 332.87 L 172.02 332.53 L 172.52 332.20 L 173.02 331.88 L 173.52 331.55 L 174.02 331.23 L 174.52 330.91 L 175.03 330.59 L 175.53 330.27 L 176.03 329.95 L 176.53 329.64 L 177.03 329.33 L 177.53 329.02 L 178.03 328.71 L 178.53 328.41 L 179.03 328.10 L 179.53 327.80 L 180.03 327.50 L 180.53 327.21 L 181.03 326.91 L 181.53 326.62 L 182.03 326.33 L 182.53 326.04 L 183.03 325.75 L 183.53 325.47 L 184.03 325.18 L 184.53 324.90 L 185.04 324.62 L 185.54 324.34 L 186.04 324.07 L 186.54 323.79 L 187.04 323.52 L 187.54 323.25 L 188.04 322.98 L 188.54 322.72 L 189.04 322.45 L 189.54 322.19 L 190.04 321.93 L 190.54 321.67 L 191.04 321.41 L 191.54 321.16 L 192.04 320.90 L 192.54 320.65 L 193.04 320.40 L 193.54 320.15 L 194.04 319.91 L 194.54 319.66 L 195.05 319.42 L 195.55 319.18 L 196.05 318.94 L 196.55 318.70 L 197.05 318.47 L 197.55 318.23 L 198.05 318.00 L 198.55 317.77 L 199.05 317.54 L 199.55 317.32 L 200.05 317.09 L 200.55 316.87 L 201.05 316.65 L 201.55 316.43 L 202.05 316.21 L 202.55 315.99 L 203.05 315.78 L 203.55 315.56 L 204.05 315.35 L 204.55 315.14 L 205.06 314.94 L 205.56 314.73 L 206.06 314.52 L 206.56 314.32 L 207.06 314.12 L 207.56 313.92 L 208.06 313.72 L 208.56 313.52 L 209.06 313.33 L 209.56 313.14 L 210.06 312.94 L 210.56 312.75 L 211.06 312.56 L 211.56 312.38 L 212.06 312.19 L 212.56 312.01 L 213.06 311.83 L 213.56 311.64 L 214.06 311.46 L 214.56 311.29 L 215.07 311.11 L 215.57 310.94 L 216.07 310.76 L 216.57 310.59 L 217.07 310.42 L 217.57 310.25 L 218.07 310.08 L 218.57 309.92 L 219.07 309.75 L 219.57 309.59 L 220.07 309.43 L 220.57 309.27 L 221.07 309.11 L 221.57 308.95 L 222.07 308.80 L 222.57 308.64 L 223.07 308.49 L 223.57 308.34 L 224.07 308.19 L 224.57 308.04 L 225.08 307.90 L 225.58 307.75 L 226.08 307.61 L 226.58 307.46 L 227.08 307.32 L 227.58 307.18 L 228.08 307.04 L 228.58 306.90 L 229.08 306.77 L 229.58 306.63 L 230.08 306.50 L 230.58 306.37 L 231.08 306.24 L 231.58 306.11 L 232.08 305.98 L 232.58 305.85 L 233.08 305.73 L 233.58 305.60 L 234.08 305.48 L 234.58 305.36 L 235.09 305.24 L 235.59 305.12 L 236.09 305.00 L 236.59 304.88 L 237.09 304.77 L 237.59 304.65 L 238.09 304.54 L 238.59 304.43 L 239.09 304.32 L 239.59 304.21 L 240.09 304.10 L 240.59 303.99 L 241.09 303.89 L 241.59 303.78 L 242.09 303.68 L 242.59 303.58 L 243.09 303.47 L 243.59 303.37 L 244.09 303.28 L 244.59 303.18 L 245.10 303.08 L 245.60 302.99 L 246.10 302.89 L 246.60 302.80 L 247.10 302.71 L 247.60 302.61 L 248.10 302.53 L 248.60 302.44 L 249.10 302.35 L 249.60 302.26 L 250.10 302.18 L 250.60 302.09 L 251.10 302.01 L 251.60 301.93 L 252.10 301.84 L 252.60 301.76 L 253.10 301.68 L 253.60 301.61 L 254.10 301.53 L 254.60 301.45 L 255.11 301.38 L 255.61 301.30 L 256.11 301.23 L 256.61 301.16 L 257.11 301.09 L 257.61 301.02 L 258.11 300.95 L 258.61 300.88 L 259.11 300.81 L 259.61 300.74 L 260.11 300.68 L 260.61 300.61 L 261.11 300.55 L 261.61 300.49 L 262.11 300.43 L 262.61 300.36 L 263.11 300.30 L 263.61 300.25 L 264.11 300.19 L 264.61 300.13 L 265.12 300.07 L 265.62 300.02 L 266.12 299.96 L 266.62 299.91 L 267.12 299.86 L 267.62 299.80 L 268.12 299.75 L 268.62 299.70 L 269.12 299.65 L 269.62 299.60 L 270.12 299.55 L 270.62 299.51 L 271.12 299.46 L 271.62 299.41 L 272.12 299.37 L 272.62 299.33 L 273.12 299.28 L 273.62 299.24 L 274.12 299.20 L 274.62 299.16 L 275.13 299.12 L 275.63 299.08 L 276.13 299.04 L 276.63 299.00 L 277.13 298.96 L 277.63 298.92 L 278.13 298.89 L 278.63 298.85 L 279.13 298.82 L 279.63 298.78 L 280.13 298.75 L 280.63 298.72 L 281.13 298.69 L 281.63 298.65 L 282.13 298.62 L 282.63 298.59 L 283.13 298.56 L 283.63 298.53 L 284.13 298.51 L 284.63 298.48 L 285.14 298.45 L 285.64 298.43 L 286.14 298.40 L 286.64 298.37 L 287.14 298.35 L 287.64 298.33 L 288.14 298.30 L 288.64 298.28 L 289.14 298.26 L 289.64 298.24 L 290.14 298.21 L 290.64 298.19 L 291.14 298.17 L 291.64 298.15 L 292.14 298.13 L 292.64 298.12 L 293.14 298.10 L 293.64 298.08 L 294.14 298.06 L 294.64 298.05 L 295.15 298.03 L 295.65 298.01 L 296.15 298.00 L 296.65 297.98 L 297.15 297.97 L 297.65 297.96 L 298.15 297.94 L 298.65 297.93 L 299.15 297.92 L 299.65 297.91 L 300.15 297.89 L 300.65 297.88 L 301.15 297.87 L 301.65 297.86 L 302.15 297.85 L 302.65 297.84 L 303.15 297.83 L 303.65 297.82 L 304.15 297.81 L 304.65 297.81 L 305.16 297.80 L 305.66 297.79 L 306.16 297.78 L 306.66 297.78 L 307.16 297.77 L 307.66 297.76 L 308.16 297.76 L 308.66 297.75 L 309.16 297.75 L 309.66 297.74 L 310.16 297.74 L 310.66 297.73 L 311.16 297.73 L 311.66 297.72 L 312.16 297.72 L 312.66 297.72 L 313.16 297.71 L 313.66 297.71 L 314.16 297.71 L 314.66 297.70 L 315.17 297.70 L 315.67 297.70 L 316.17 297.70 L 316.67 297.70 L 317.17 297.69 L 317.67 297.69 L 318.17 297.69 L 318.67 297.69 L 319.17 297.69 L 319.67 297.69 L 320.17 297.69 L 320.67 297.69 L 321.17 297.69 L 321.67 297.69 L 322.17 297.69 L 322.67 297.69 L 323.17 297.69 L 323.67 297.69 L 324.17 297.69 L 324.67 297.69 L 325.18 297.69 L 325.68 297.69 L 326.18 297.69 L 326.68 297.69 L 327.18 297.69 L 327.68 297.69 L 328.18 297.70 L 328.68 297.70 L 329.18 297.70 L 329.68 297.70 L 330.18 297.70 L 330.68 297.70 L 331.18 297.70 L 331.68 297.70 L 332.18 297.70 L 332.68 297.71 L 333.18 297.71 L 333.68 297.71 L 334.18 297.71 L 334.68 297.71 L 335.19 297.71 L 335.69 297.71 L 336.19 297.71 L 336.69 297.71 L 337.19 297.71 L 337.69 297.71 L 338.19 297.72 L 338.69 297.72 L 339.19 297.72 L 339.69 297.72 L 340.19 297.72 L 340.69 297.72 L 341.19 297.72 L 341.69 297.72 L 342.19 297.72 L 342.69 297.72 L 343.19 297.72 L 343.69 297.71 L 344.19 297.71 L 344.69 297.71 L 345.20 297.71 L 345.70 297.71 L 346.20 297.71 L 346.70 297.71 L 347.20 297.70 L 347.70 297.70 L 348.20 297.70 L 348.70 297.70 L 349.20 297.69 L 349.70 297.69 L 350.20 297.69 L 350.70 297.68 L 351.20 297.68 L 351.70 297.67 L 352.20 297.67 L 352.70 297.67 L 353.20 297.66 L 353.70 297.66 L 354.20 297.65 L 354.70 297.65 L 355.21 297.64 L 355.71 297.63 L 356.21 297.63 L 356.71 297.62 L 357.21 297.61 L 357.71 297.61 L 358.21 297.60 L 358.71 297.59 L 359.21 297.59 L 359.71 297.58 L 360.21 297.57 L 360.71 297.56 L 361.21 297.55 L 361.71 297.55 L 362.21 297.54 L 362.71 297.53 L 363.21 297.52 L 363.71 297.51 L 364.21 297.50 L 364.71 297.49 L 365.22 297.48 L 365.72 297.48 L 366.22 297.47 L 366.72 297.46 L 367.22 297.45 L 367.72 297.44 L 368.22 297.43 L 368.72 297.42 L 369.22 297.41 L 369.72 297.39 L 370.22 297.38 L 370.72 297.37 L 371.22 297.36 L 371.72 297.35 L 372.22 297.34 L 372.72 297.33 L 373.22 297.32 L 373.72 297.31 L 374.22 297.30 L 374.72 297.28 L 375.23 297.27 L 375.73 297.26 L 376.23 297.25 L 376.73 297.24 L 377.23 297.23 L 377.73 297.21 L 378.23 297.20 L 378.73 297.19 L 379.23 297.18 L 379.73 297.17 L 380.23 297.16 L 380.73 297.14 L 381.23 297.13 L 381.73 297.12 L 382.23 297.11 L 382.73 297.09 L 383.23 297.08 L 383.73 297.07 L 384.23 297.06 L 384.73 297.05 L 385.24 297.03 L 385.74 297.02 L 386.24 297.01 L 386.74 297.00 L 387.24 296.98 L 387.74 296.97 L 388.24 296.96 L 388.74 296.95 L 389.24 296.94 L 389.74 296.92 L 390.24 296.91 L 390.74 296.90 L 391.24 296.89 L 391.74 296.88 L 392.24 296.86 L 392.74 296.85 L 393.24 296.84 L 393.74 296.83 L 394.24 296.82 L 394.74 296.81 L 395.25 296.79 L 395.75 296.78 L 396.25 296.77 L 396.75 296.76 L 397.25 296.75 L 397.75 296.74 L 398.25 296.73 L 398.75 296.71 L 399.25 296.70 L 399.75 296.69 L 400.25 296.68 L 400.75 296.67 L 401.25 296.66 L 401.75 296.65 L 402.25 296.64 L 402.75 296.63 L 403.25 296.62 L 403.75 296.61 L 404.25 296.60 L 404.75 296.59 L 405.26 296.58 L 405.76 296.57 L 406.26 296.56 L 406.76 296.55 L 407.26 296.55 L 407.76 296.54 L 408.26 296.53 L 408.76 296.52 L 409.26 296.51 L 409.76 296.50 L 410.26 296.50 L 410.76 296.49 L 411.26 296.48 L 411.76 296.47 L 412.26 296.47 L 412.76 296.46 L 413.26 296.45 L 413.76 296.45 L 414.26 296.44 L 414.76 296.43 L 415.27 296.43 L 415.77 296.42 L 416.27 296.42 L 416.77 296.41 L 417.27 296.41 L 417.77 296.40 L 418.27 296.40 L 418.77 296.39 L 419.27 296.39 L 419.77 296.38 L 420.27 296.38 L 420.77 296.38 L 421.27 296.37 L 421.77 296.37 L 422.27 296.37 L 422.77 296.37 L 423.27 296.36 L 423.77 296.36 L 424.27 296.36 L 424.77 296.36 L 425.28 296.36 L 425.78 296.36 L 426.28 296.36 L 426.78 296.36 L 427.28 296.36 L 427.78 296.36 L 428.28 296.36 L 428.78 296.36 L 429.28 296.36 L 429.78 296.36 L 430.28 296.36 L 430.78 296.37 L 431.28 296.37 L 431.78 296.37 L 432.28 296.37 L 432.78 296.38 L 433.28 296.38 L 433.78 296.39 L 434.28 296.39 L 434.78 296.40 L 435.29 296.40 L 435.79 296.41 L 436.29 296.41 L 436.79 296.42 L 437.29 296.43 L 437.79 296.43 L 438.29 296.44 L 438.79 296.45 L 439.29 296.46 L 439.79 296.47 L 440.29 296.47 L 440.79 296.48 L 441.29 296.49 L 441.79 296.50 L 442.29 296.51 L 442.79 296.53 L 443.29 296.54 L 443.79 296.55 L 444.29 296.56 L 444.79 296.57 L 445.30 296.59 L 445.80 296.60 L 446.30 296.61 L 446.80 296.63 L 447.30 296.64 L 447.80 296.66 L 448.30 296.67 L 448.80 296.69 L 449.30 296.71 L 449.80 296.72 L 450.30 296.74 L 450.80 296.76 L 451.30 296.78 L 451.80 296.80 L 452.30 296.82 L 452.80 296.84 L 453.30 296.86 L 453.80 296.88 L 454.30 296.90 L 454.80 296.92 L 455.31 296.94 L 455.81 296.96 L 456.31 296.98 L 456.81 297.01 L 457.31 297.03 L 457.81 297.05 L 458.31 297.07 L 458.81 297.10 L 459.31 297.12 L 459.81 297.15 L 460.31 297.17 L 460.81 297.19 L 461.31 297.22 L 461.81 297.24 L 462.31 297.27 L 462.81 297.29 L 463.31 297.32 L 463.81 297.34 L 464.31 297.37 L 464.81 297.39 L 465.32 297.42 L 465.82 297.44 L 466.32 297.47 L 466.82 297.49 L 467.32 297.52 L 467.82 297.54 L 468.32 297.57 L 468.82 297.59 L 469.32 297.62 L 469.82 297.64 L 470.32 297.67 L 470.82 297.69 L 471.32 297.72 L 471.82 297.74 L 472.32 297.77 L 472.82 297.79 L 473.32 297.82 L 473.82 297.84 L 474.32 297.86 L 474.82 297.89 L 475.33 297.91 L 475.83 297.94 L 476.33 297.96 L 476.83 297.98 L 477.33 298.00 L 477.83 298.02 L 478.33 298.05 L 478.83 298.07 L 479.33 298.09 L 479.83 298.11 L 480.33 298.13 L 480.83 298.15 L 481.33 298.17 L 481.83 298.19 L 482.33 298.21 L 482.83 298.23 L 483.33 298.24 L 483.83 298.26 L 484.33 298.28 L 484.83 298.29 L 485.34 298.31 L 485.84 298.33 L 486.34 298.34 L 486.84 298.36 L 487.34 298.37 L 487.84 298.38 L 488.34 298.39 L 488.84 298.41 L 489.34 298.42 L 489.84 298.43 L 490.34 298.44 L 490.84 298.45 L 491.34 298.46 L 491.84 298.47 L 492.34 298.47 L 492.84 298.48 L 493.34 298.49 L 493.84 298.49 L 494.34 298.50 L 494.84 298.50 L 495.35 298.50 L 495.85 298.50 L 496.35 298.50 L 496.85 298.51 L 497.35 298.51 L 497.85 298.50 L 498.35 298.50 L 498.85 298.50 L 499.35 298.49 L 499.85 298.49 L 500.35 298.48 L 500.85 298.48 L 501.35 298.47 L 501.85 298.46 L 502.35 298.45 L 502.85 298.44 L 503.35 298.43 L 503.85 298.42 L 504.35 298.40 L 504.85 298.39 L 505.36 298.37 L 505.86 298.36 L 506.36 298.34 L 506.86 298.32 L 507.36 298.30 L 507.86 298.28 L 508.36 298.26 L 508.86 298.23 L 509.36 298.21 L 509.86 298.18 L 510.36 298.15 L 510.86 298.13 L 511.36 298.10 L 511.86 298.06 L 512.36 298.03 L 512.86 298.00 L 513.36 297.96 L 513.86 297.93 L 514.36 297.89 L 514.86 297.85 L 515.37 297.81 L 515.87 297.77 L 516.37 297.73 L 516.87 297.68 L 517.37 297.64 L 517.87 297.59 L 518.37 297.54 L 518.87 297.49 L 519.37 297.44 L 519.87 297.39 L 520.37 297.34 L 520.87 297.28 L 521.37 297.22 L 521.87 297.16 L 522.37 297.10 L 522.87 297.04 L 523.37 296.98 L 523.87 296.91 L 524.37 296.85 L 524.87 296.78 L 525.38 296.71 L 525.88 296.64 L 526.38 296.56 L 526.88 296.49 L 527.38 296.41 L 527.88 296.33 L 528.38 296.25 L 528.88 296.17 L 529.38 296.09 L 529.88 296.00 L 530.38 295.92 L 530.88 295.83 L 531.38 295.74 L 531.88 295.65 L 532.38 295.55 L 532.88 295.46 L 533.38 295.36 L 533.88 295.26 L 534.38 295.16 L 534.88 295.05 L 535.39 294.95 L 535.89 294.84 L 536.39 294.73 L 536.89 294.62 L 537.39 294.51 L 537.89 294.39 L 538.39 294.28 L 538.89 294.16 L 539.39 294.04 L 539.89 293.91 L 540.39 293.79 L 540.89 293.66 L 541.39 293.53 L 541.89 293.40 L 542.39 293.27 L 542.89 293.13 L 543.39 292.99 L 543.89 292.85 L 544.39 292.71 L 544.89 292.57 L 545.40 292.42 L 545.90 292.27 L 546.40 292.12 L 546.90 291.97 L 547.40 291.81 L 547.90 291.66 L 548.40 291.50 L 548.90 291.33 L 549.40 291.17 L 549.90 291.00 L 550.40 290.83 L 550.90 290.66 L 551.40 290.49 L 551.90 290.31 L 552.40 290.13 L 552.90 289.95 L 553.40 289.77 L 553.90 289.59 L 554.40 289.40 L 554.90 289.21 L 555.41 289.01 L 555.91 288.82 L 556.41 288.62 L 556.91 288.42 L 557.41 288.22 L 557.91 288.01 L 558.41 287.80 L 558.91 287.59 L 559.41 287.38 L 559.91 287.16 L 560.41 286.95 L 560.91 286.72 L 561.41 286.50 L 561.91 286.27 L 562.41 286.05 L 562.91 285.81 L 563.41 285.58 L 563.91 285.34 L 564.41 285.10 L 564.91 284.86 L 565.42 284.61 L 565.92 284.37 L 566.42 284.12 L 566.92 283.86 L 567.42 283.61 L 567.92 283.35 L 568.42 283.09 L 568.92 282.82 L 569.42 282.55 L 569.92 282.28 L 570.42 282.01 L 570.92 281.73 L 571.42 281.45 L 571.92 281.17 L 572.42 280.89 L 572.92 280.60 L 573.42 280.31 L 573.92 280.01 L 574.42 279.72 L 574.92 279.42 L 575.43 279.11 L 575.93 278.81 L 576.43 278.50 L 576.93 278.18 L 577.43 277.87 L 577.93 277.55 L 578.43 277.23 L 578.93 276.90 L 579.43 276.58 L 579.93 276.25 L 580.43 275.91 L 580.93 275.57 L 581.43 275.23 L 581.93 274.89 L 582.43 274.54 L 582.93 274.19 L 583.43 273.84 L 583.93 273.48 L 584.43 273.12 L 584.93 272.76 L 585.44 272.39 L 585.94 272.02 L 586.44 271.65 L 586.94 271.27 L 587.44 270.89 L 587.94 270.51 L 588.44 270.12 L 588.94 269.73 L 589.44 269.34 L 589.94 268.94 L 590.44 268.54 L 590.94 268.14 L 591.44 267.73 L 591.94 267.32 L 592.44 266.91 L 592.94 266.49 L 593.44 266.07 L 593.94 265.64 L 594.44 265.22 L 594.94 264.78 L 595.45 264.35 L 595.95 263.91 L 596.45 263.47 L 596.95 263.02 L 597.45 262.57 L 597.95 262.12 L 598.45 261.66 L 598.95 261.20 L 599.45 260.73 L 599.95 260.26 L 600.45 259.79 L 600.95 259.32 L 601.45 258.84 L 601.95 258.35 L 602.45 257.87 L 602.95 257.37 L 603.45 256.88 L 603.95 256.38 L 604.45 255.88 L 604.95 255.37 L 605.46 254.86 L 605.96 254.35 L 606.46 253.83 L 606.96 253.31 L 607.46 252.78 L 607.96 252.25 L 608.46 251.72 L 608.96 251.18 L 609.46 250.64 L 609.96 250.09 L 610.46 249.54 L 610.96 248.99 L 611.46 248.43 L 611.96 247.87 L 612.46 247.31 L 612.96 246.74 L 613.46 246.16 L 613.96 245.58 L 614.46 245.00 L 614.96 244.41 L 615.47 243.82 L 615.97 243.23 L 616.47 242.63 L 616.97 242.03 L 617.47 241.42 L 617.97 240.81 L 618.47 240.19 L 618.97 239.57 L 619.47 238.95 L 619.97 238.32 L 620.47 237.69 L 620.97 237.05 L 621.47 236.41 L 621.97 235.76 L 622.47 235.12 L 622.97 234.46 L 623.47 233.80 L 623.97 233.14 L 624.47 232.47 L 624.97 231.80 L 625.48 231.12 L 625.98 230.44 L 626.48 229.76 L 626.98 229.07 L 627.48 228.37 L 627.98 227.67 L 628.48 226.97 L 628.98 226.26 L 629.48 225.55 L 629.98 224.84 L 630.48 224.11 L 630.98 223.39 L 631.48 222.66 L 631.98 221.92 L 632.48 221.18 L 632.98 220.44 L 633.48 219.69 L 633.98 218.94 L 634.48 218.18 L 634.98 217.41 L 635.49 216.65 L 635.99 215.87 L 636.49 215.10 L 636.99 214.31 L 637.49 213.53 L 637.99 212.74 L 638.49 211.94 L 638.99 211.14 L 639.49 210.33 L 639.99 209.52 L 640.49 208.71 L 640.99 207.89 L 641.49 207.06 L 641.99 206.23 L 642.49 205.40 L 642.99 204.56 L 643.49 203.71 L 643.99 202.86 L 644.49 202.01 L 645.00 201.15 L 645.50 200.28 L 646.00 199.41 L 646.50 198.54 L 647.00 197.66 L 647.50 196.77 L 648.00 195.88 L 648.50 194.99 L 649.00 194.09 L 649.50 193.18 L 650.00 192.27" /><text  class="poloto_text poloto_legend_text" x="675" y="200" >derivative 1</text><line  class="poloto_line poloto_legend_icon poloto2stroke poloto2legend" stroke="black" x1="680" x2="730" y1="181.25" y2="181.25" /><path  class="poloto_line poloto2stroke" fill="none" stroke="black" d=" M 150.00 219.24 L 150.50 219.71 L 151.00 220.19 L 151.50 220.66 L 152.00 221.13 L 152.50 221.60 L 153.00 222.06 L 153.50 222.53 L 154.00 223.00 L 154.50 223.46 L 155.01 223.92 L 155.51 224.38 L 156.01 224.84 L 156.51 225.30 L 157.01 225.76 L 157.51 226.22 L 158.01 226.67 L 158.51 227.12 L 159.01 227.58 L 159.51 228.03 L 160.01 228.48 L 160.51 228.92 L 161.01 229.37 L 161.51 229.82 L 162.01 230.26 L 162.51 230.70 L 163.01 231.14 L 163.51 231.58 L 164.01 232.02 L 164.51 232.46 L 165.02 232.90 L 165.52 233.33 L 166.02 233.77 L 166.52 234.20 L 167.02 234.63 L 167.52 235.06 L 168.02 235.49 L 168.52 235.91 L 169.02 236.34 L 169.52 236.76 L 170.02 237.19 L 170.52 237.61 L 171.02 238.03 L 171.52 238.45 L 172.02 238.87 L 172.52 239.28 L 173.02 239.70 L 173.52 240.11 L 174.02 240.53 L 174.52 240.94 L 175.03 241.35 L 175.53 241.76 L 176.03 242.16 L 176.53 242.57 L 177.03 242.97 L 177.53 243.38 L 178.03 243.78 L 178.53 244.18 L 179.03 244.58 L 179.53 244.98 L 180.03 245.37 L 180.53 245.77 L 181.03 246.16 L 181.53 246.56 L 182.03 246.95 L 182.53 247.34 L 183.03 247.73 L 183.53 248.12 L 184.03 248.50 L 184.53 248.89 L 185.04 249.27 L 185.54 249.65 L 186.04 250.04 L 186.54 250.42 L 187.04 250.79 L 187.54 251.17 L 188.04 251.55 L 188.54 251.92 L 189.04 252.29 L 189.54 252.67 L 190.04 253.04 L 190.54 253.41 L 191.04 253.77 L 191.54 254.14 L 192.04 254.51 L 192.54 254.87 L 193.04 255.23 L 193.54 255.60 L 194.04 255.96 L 194.54 256.31 L 195.05 256.67 L 195.55 257.03 L 196.05 257.38 L 196.55 257.74 L 197.05 258.09 L 197.55 258.44 L 198.05 258.79 L 198.55 259.14 L 199.05 259.49 L 199.55 259.83 L 200.05 260.18 L 200.55 260.52 L 201.05 260.86 L 201.55 261.20 L 202.05 261.54 L 202.55 261.88 L 203.05 262.21 L 203.55 262.55 L 204.05 262.88 L 204.55 263.22 L 205.06 263.55 L 205.56 263.88 L 206.06 264.21 L 206.56 264.53 L 207.06 264.86 L 207.56 265.19 L 208.06 265.51 L 208.56 265.83 L 209.06 266.15 L 209.56 266.47 L 210.06 266.79 L 210.56 267.11 L 211.06 267.42 L 211.56 267.74 L 212.06 268.05 L 212.56 268.36 L 213.06 268.67 L 213.56 268.98 L 214.06 269.29 L 214.56 269.59 L 215.07 269.90 L 215.57 270.20 L 216.07 270.51 L 216.57 270.81 L 217.07 271.11 L 217.57 271.41 L 218.07 271.70 L 218.57 272.00 L 219.07 272.29 L 219.57 272.59 L 220.07 272.88 L 220.57 273.17 L 221.07 273.46 L 221.57 273.75 L 222.07 274.03 L 222.57 274.32 L 223.07 274.60 L 223.57 274.89 L 224.07 275.17 L 224.57 275.45 L 225.08 275.73 L 225.58 276.00 L 226.08 276.28 L 226.58 276.56 L 227.08 276.83 L 227.58 277.10 L 228.08 277.37 L 228.58 277.64 L 229.08 277.91 L 229.58 278.18 L 230.08 278.44 L 230.58 278.71 L 231.08 278.97 L 231.58 279.23 L 232.08 279.49 L 232.58 279.75 L 233.08 280.01 L 233.58 280.27 L 234.08 280.52 L 234.58 280.78 L 235.09 281.03 L 235.59 281.28 L 236.09 281.53 L 236.59 281.78 L 237.09 282.03 L 237.59 282.27 L 238.09 282.52 L 238.59 282.76 L 239.09 283.00 L 239.59 283.24 L 240.09 283.48 L 240.59 283.72 L 241.09 283.96 L 241.59 284.19 L 242.09 284.43 L 242.59 284.66 L 243.09 284.89 L 243.59 285.12 L 244.09 285.35 L 244.59 285.58 L 245.10 285.81 L 245.60 286.03 L 246.10 286.26 L 246.60 286.48 L 247.10 286.70 L 247.60 286.92 L 248.10 287.14 L 248.60 287.35 L 249.10 287.57 L 249.60 287.79 L 250.10 288.00 L 250.60 288.21 L 251.10 288.42 L 251.60 288.63 L 252.10 288.84 L 252.60 289.05 L 253.10 289.25 L 253.60 289.46 L 254.10 289.66 L 254.60 289.86 L 255.11 290.06 L 255.61 290.26 L 256.11 290.46 L 256.61 290.65 L 257.11 290.85 L 257.61 291.04 L 258.11 291.23 L 258.61 291.42 L 259.11 291.61 L 259.61 291.80 L 260.11 291.99 L 260.61 292.18 L 261.11 292.36 L 261.61 292.54 L 262.11 292.73 L 262.61 292.91 L 263.11 293.08 L 263.61 293.26 L 264.11 293.44 L 264.61 293.61 L 265.12 293.79 L 265.62 293.96 L 266.12 294.13 L 266.62 294.30 L 267.12 294.47 L 267.62 294.64 L 268.12 294.80 L 268.62 294.97 L 269.12 295.13 L 269.62 295.30 L 270.12 295.46 L 270.62 295.62 L 271.12 295.77 L 271.62 295.93 L 272.12 296.09 L 272.62 296.24 L 273.12 296.39 L 273.62 296.55 L 274.12 296.70 L 274.62 296.84 L 275.13 296.99 L 275.63 297.14 L 276.13 297.28 L 276.63 297.43 L 277.13 297.57 L 277.63 297.71 L 278.13 297.85 L 278.63 297.99 L 279.13 298.13 L 279.63 298.26 L 280.13 298.40 L 280.63 298.53 L 281.13 298.66 L 281.63 298.79 L 282.13 298.92 L 282.63 299.05 L 283.13 299.18 L 283.63 299.30 L 284.13 299.43 L 284.63 299.55 L 285.14 299.67 L 285.64 299.79 L 286.14 299.91 L 286.64 300.03 L 287.14 300.15 L 287.64 300.26 L 288.14 300.37 L 288.64 300.49 L 289.14 300.60 L 289.64 300.71 L 290.14 300.82 L 290.64 300.92 L 291.14 301.03 L 291.64 301.13 L 292.14 301.24 L 292.64 301.34 L 293.14 301.44 L 293.64 301.54 L 294.14 301.64 L 294.64 301.73 L 295.15 301.83 L 295.65 301.92 L 296.15 302.01 L 296.65 302.11 L 297.15 302.20 L 297.65 302.28 L 298.15 302.37 L 298.65 302.46 L 299.15 302.54 L 299.65 302.63 L 300.15 302.71 L 300.65 302.79 L 301.15 302.87 L 301.65 302.95 L 302.15 303.02 L 302.65 303.10 L 303.15 303.17 L 303.65 303.25 L 304.15 303.32 L 304.65 303.39 L 305.16 303.46 L 305.66 303.53 L 306.16 303.59 L 306.66 303.66 L 307.16 303.72 L 307.66 303.78 L 308.16 303.84 L 308.66 303.90 L 309.16 303.96 L 309.66 304.02 L 310.16 304.08 L 310.66 304.13 L 311.16 304.18 L 311.66 304.24 L 312.16 304.29 L 312.66 304.34 L 313.16 304.38 L 313.66 304.43 L 314.16 304.48 L 314.66 304.52 L 315.17 304.56 L 315.67 304.60 L 316.17 304.65 L 316.67 304.68 L 317.17 304.72 L 317.67 304.76 L 318.17 304.79 L 318.67 304.83 L 319.17 304.86 L 319.67 304.89 L 320.17 304.92 L 320.67 304.95 L 321.17 304.98 L 321.67 305.00 L 322.17 305.03 L 322.67 305.05 L 323.17 305.07 L 323.67 305.09 L 324.17 305.11 L 324.67 305.13 L 325.18 305.14 L 325.68 305.16 L 326.18 305.17 L 326.68 305.19 L 327.18 305.20 L 327.68 305.21 L 328.18 305.22 L 328.68 305.22 L 329.18 305.23 L 329.68 305.24 L 330.18 305.24 L 330.68 305.24 L 331.18 305.24 L 331.68 305.24 L 332.18 305.24 L 332.68 305.24 L 333.18 305.23 L 333.68 305.23 L 334.18 305.22 L 334.68 305.21 L 335.19 305.20 L 335.69 305.19 L 336.19 305.18 L 336.69 305.16 L 337.19 305.15 L 337.69 305.13 L 338.19 305.12 L 338.69 305.10 L 339.19 305.08 L 339.69 305.06 L 340.19 305.03 L 340.69 305.01 L 341.19 304.98 L 341.69 304.96 L 342.19 304.93 L 342.69 304.90 L 343.19 304.87 L 343.69 304.84 L 344.19 304.80 L 344.69 304.77 L 345.20 304.73 L 345.70 304.70 L 346.20 304.66 L 346.70 304.62 L 347.20 304.58 L 347.70 304.53 L 348.20 304.49 L 348.70 304.45 L 349.20 304.40 L 349.70 304.35 L 350.20 304.30 L 350.70 304.25 L 351.20 304.21 L 351.70 304.16 L 352.20 304.11 L 352.70 304.06 L 353.20 304.02 L 353.70 303.97 L 354.20 303.93 L 354.70 303.88 L 355.21 303.84 L 355.71 303.80 L 356.21 303.76 L 356.71 303.72 L 357.21 303.68 L 357.71 303.64 L 358.21 303.60 L 358.71 303.56 L 359.21 303.52 L 359.71 303.49 L 360.21 303.45 L 360.71 303.42 L 361.21 303.38 L 361.71 303.35 L 362.21 303.32 L 362.71 303.28 L 363.21 303.25 L 363.71 303.22 L 364.21 303.19 L 364.71 303.16 L 365.22 303.13 L 365.72 303.11 L 366.22 303.08 L 366.72 303.05 L 367.22 303.03 L 367.72 303.00 L 368.22 302.98 L 368.72 302.95 L 369.22 302.93 L 369.72 302.91 L 370.22 302.89 L 370.72 302.86 L 371.22 302.84 L 371.72 302.82 L 372.22 302.81 L 372.72 302.79 L 373.22 302.77 L 373.72 302.75 L 374.22 302.74 L 374.72 302.72 L 375.23 302.71 L 375.73 302.69 L 376.23 302.68 L 376.73 302.67 L 377.23 302.66 L 377.73 302.65 L 378.23 302.64 L 378.73 302.63 L 379.23 302.62 L 379.73 302.61 L 380.23 302.60 L 380.73 302.59 L 381.23 302.59 L 381.73 302.58 L 382.23 302.58 L 382.73 302.57 L 383.23 302.57 L 383.73 302.57 L 384.23 302.57 L 384.73 302.57 L 385.24 302.57 L 385.74 302.57 L 386.24 302.57 L 386.74 302.57 L 387.24 302.57 L 387.74 302.57 L 388.24 302.58 L 388.74 302.58 L 389.24 302.59 L 389.74 302.59 L 390.24 302.60 L 390.74 302.61 L 391.24 302.62 L 391.74 302.63 L 392.24 302.64 L 392.74 302.65 L 393.24 302.66 L 393.74 302.67 L 394.24 302.68 L 394.74 302.69 L 395.25 302.71 L 395.75 302.72 L 396.25 302.74 L 396.75 302.75 L 397.25 302.77 L 397.75 302.79 L 398.25 302.81 L 398.75 302.82 L 399.25 302.84 L 399.75 302.86 L 400.25 302.89 L 400.75 302.91 L 401.25 302.93 L 401.75 302.95 L 402.25 302.98 L 402.75 303.00 L 403.25 303.03 L 403.75 303.05 L 404.25 303.08 L 404.75 303.11 L 405.26 303.13 L 405.76 303.16 L 406.26 303.19 L 406.76 303.22 L 407.26 303.25 L 407.76 303.28 L 408.26 303.32 L 408.76 303.35 L 409.26 303.38 L 409.76 303.42 L 410.26 303.45 L 410.76 303.49 L 411.26 303.52 L 411.76 303.56 L 412.26 303.60 L 412.76 303.64 L 413.26 303.68 L 413.76 303.72 L 414.26 303.76 L 414.76 303.80 L 415.27 303.84 L 415.77 303.88 L 416.27 303.93 L 416.77 303.97 L 417.27 304.02 L 417.77 304.06 L 418.27 304.11 L 418.77 304.16 L 419.27 304.21 L 419.77 304.25 L 420.27 304.30 L 420.77 304.35 L 421.27 304.40 L 421.77 304.45 L 422.27 304.51 L 422.77 304.56 L 423.27 304.61 L 423.77 304.67 L 424.27 304.72 L 424.77 304.78 L 425.28 304.83 L 425.78 304.89 L 426.28 304.95 L 426.78 305.01 L 427.28 305.07 L 427.78 305.13 L 428.28 305.19 L 428.78 305.25 L 429.28 305.31 L 429.78 305.37 L 430.28 305.44 L 430.78 305.50 L 431.28 305.57 L 431.78 305.63 L 432.28 305.70 L 432.78 305.76 L 433.28 305.83 L 433.78 305.90 L 434.28 305.97 L 434.78 306.04 L 435.29 306.11 L 435.79 306.18 L 436.29 306.25 L 436.79 306.33 L 437.29 306.40 L 437.79 306.47 L 438.29 306.55 L 438.79 306.62 L 439.29 306.70 L 439.79 306.78 L 440.29 306.85 L 440.79 306.93 L 441.29 307.01 L 441.79 307.09 L 442.29 307.17 L 442.79 307.25 L 443.29 307.34 L 443.79 307.42 L 444.29 307.50 L 444.79 307.59 L 445.30 307.67 L 445.80 307.76 L 446.30 307.84 L 446.80 307.93 L 447.30 308.02 L 447.80 308.10 L 448.30 308.19 L 448.80 308.28 L 449.30 308.37 L 449.80 308.46 L 450.30 308.56 L 450.80 308.65 L 451.30 308.73 L 451.80 308.82 L 452.30 308.90 L 452.80 308.98 L 453.30 309.06 L 453.80 309.13 L 454.30 309.20 L 454.80 309.27 L 455.31 309.34 L 455.81 309.40 L 456.31 309.46 L 456.81 309.52 L 457.31 309.57 L 457.81 309.62 L 458.31 309.67 L 458.81 309.72 L 459.31 309.76 L 459.81 309.80 L 460.31 309.84 L 460.81 309.87 L 461.31 309.91 L 461.81 309.93 L 462.31 309.96 L 462.81 309.98 L 463.31 310.01 L 463.81 310.02 L 464.31 310.04 L 464.81 310.05 L 465.32 310.06 L 465.82 310.07 L 466.32 310.07 L 466.82 310.07 L 467.32 310.07 L 467.82 310.07 L 468.32 310.06 L 468.82 310.05 L 469.32 310.04 L 469.82 310.02 L 470.32 310.00 L 470.82 309.98 L 471.32 309.96 L 471.82 309.93 L 472.32 309.90 L 472.82 309.87 L 473.32 309.83 L 473.82 309.79 L 474.32 309.75 L 474.82 309.71 L 475.33 309.66 L 475.83 309.61 L 476.33 309.56 L 476.83 309.51 L 477.33 309.45 L 477.83 309.39 L 478.33 309.33 L 478.83 309.26 L 479.33 309.19 L 479.83 309.12 L 480.33 309.05 L 480.83 308.97 L 481.33 308.89 L 481.83 308.81 L 482.33 308.72 L 482.83 308.63 L 483.33 308.54 L 483.83 308.45 L 484.33 308.35 L 484.83 308.25 L 485.34 308.15 L 485.84 308.04 L 486.34 307.93 L 486.84 307.82 L 487.34 307.71 L 487.84 307.59 L 488.34 307.47 L 488.84 307.35 L 489.34 307.23 L 489.84 307.10 L 490.34 306.97 L 490.84 306.83 L 491.34 306.70 L 491.84 306.56 L 492.34 306.42 L 492.84 306.27 L 493.34 306.13 L 493.84 305.98 L 494.34 305.82 L 494.84 305.67 L 495.35 305.51 L 495.85 305.35 L 496.35 305.18 L 496.85 305.02 L 497.35 304.85 L 497.85 304.68 L 498.35 304.50 L 498.85 304.32 L 499.35 304.14 L 499.85 303.96 L 500.35 303.77 L 500.85 303.58 L 501.35 303.39 L 501.85 303.20 L 502.35 303.00 L 502.85 302.80 L 503.35 302.59 L 503.85 302.39 L 504.35 302.18 L 504.85 301.97 L 505.36 301.75 L 505.86 301.54 L 506.36 301.32 L 506.86 301.09 L 507.36 300.87 L 507.86 300.64 L 508.36 300.41 L 508.86 300.17 L 509.36 299.94 L 509.86 299.70 L 510.36 299.45 L 510.86 299.21 L 511.36 298.96 L 511.86 298.71 L 512.36 298.46 L 512.86 298.20 L 513.36 297.94 L 513.86 297.68 L 514.36 297.41 L 514.86 297.15 L 515.37 296.88 L 515.87 296.60 L 516.37 296.33 L 516.87 296.05 L 517.37 295.77 L 517.87 295.48 L 518.37 295.19 L 518.87 294.90 L 519.37 294.61 L 519.87 294.32 L 520.37 294.02 L 520.87 293.72 L 521.37 293.41 L 521.87 293.11 L 522.37 292.80 L 522.87 292.48 L 523.37 292.17 L 523.87 291.85 L 524.37 291.53 L 524.87 291.21 L 525.38 290.88 L 525.88 290.55 L 526.38 290.22 L 526.88 289.88 L 527.38 289.54 L 527.88 289.20 L 528.38 288.86 L 528.88 288.52 L 529.38 288.17 L 529.88 287.81 L 530.38 287.46 L 530.88 287.10 L 531.38 286.74 L 531.88 286.38 L 532.38 286.01 L 532.88 285.65 L 533.38 285.27 L 533.88 284.90 L 534.38 284.52 L 534.88 284.14 L 535.39 283.76 L 535.89 283.38 L 536.39 282.99 L 536.89 282.60 L 537.39 282.20 L 537.89 281.81 L 538.39 281.41 L 538.89 281.01 L 539.39 280.60 L 539.89 280.19 L 540.39 279.78 L 540.89 279.37 L 541.39 278.95 L 541.89 278.53 L 542.39 278.11 L 542.89 277.69 L 543.39 277.26 L 543.89 276.83 L 544.39 276.40 L 544.89 275.96 L 545.40 275.52 L 545.90 275.08 L 546.40 274.64 L 546.90 274.19 L 547.40 273.74 L 547.90 273.29 L 548.40 272.84 L 548.90 272.38 L 549.40 271.92 L 549.90 271.45 L 550.40 270.99 L 550.90 270.52 L 551.40 270.04 L 551.90 269.57 L 552.40 269.09 L 552.90 268.61 L 553.40 268.13 L 553.90 267.64 L 554.40 267.15 L 554.90 266.66 L 555.41 266.17 L 555.91 265.67 L 556.41 265.17 L 556.91 264.67 L 557.41 264.16 L 557.91 263.65 L 558.41 263.14 L 558.91 262.63 L 559.41 262.11 L 559.91 261.59 L 560.41 261.07 L 560.91 260.54 L 561.41 260.02 L 561.91 259.48 L 562.41 258.95 L 562.91 258.41 L 563.41 257.88 L 563.91 257.33 L 564.41 256.79 L 564.91 256.24 L 565.42 255.69 L 565.92 255.14 L 566.42 254.58 L 566.92 254.02 L 567.42 253.46 L 567.92 252.90 L 568.42 252.33 L 568.92 251.76 L 569.42 251.19 L 569.92 250.61 L 570.42 250.03 L 570.92 249.45 L 571.42 248.87 L 571.92 248.28 L 572.42 247.69 L 572.92 247.10 L 573.42 246.50 L 573.92 245.90 L 574.42 245.30 L 574.92 244.70 L 575.43 244.09 L 575.93 243.48 L 576.43 242.87 L 576.93 242.26 L 577.43 241.64 L 577.93 241.02 L 578.43 240.40 L 578.93 239.77 L 579.43 239.14 L 579.93 238.51 L 580.43 237.87 L 580.93 237.24 L 581.43 236.60 L 581.93 235.95 L 582.43 235.31 L 582.93 234.66 L 583.43 234.01 L 583.93 233.36 L 584.43 232.70 L 584.93 232.04 L 585.44 231.38 L 585.94 230.71 L 586.44 230.04 L 586.94 229.37 L 587.44 228.70 L 587.94 228.02 L 588.44 227.34 L 588.94 226.66 L 589.44 225.98 L 589.94 225.29 L 590.44 224.60 L 590.94 223.90 L 591.44 223.21 L 591.94 222.51 L 592.44 221.81 L 592.94 221.10 L 593.44 220.40 L 593.94 219.69 L 594.44 218.97 L 594.94 218.26 L 595.45 217.54 L 595.95 216.82 L 596.45 216.09 L 596.95 215.37 L 597.45 214.64 L 597.95 213.90 L 598.45 213.17 L 598.95 212.43 L 599.45 211.69 L 599.95 210.95 L 600.45 210.20 L 600.95 209.45 L 601.45 208.70 L 601.95 207.94 L 602.45 207.19 L 602.95 206.43 L 603.45 205.66 L 603.95 204.90 L 604.45 204.13 L 604.95 203.36 L 605.46 202.58 L 605.96 201.80 L 606.46 201.02 L 606.96 200.24 L 607.46 199.46 L 607.96 198.67 L 608.46 197.88 L 608.96 197.08 L 609.46 196.29 L 609.96 195.49 L 610.46 194.68 L 610.96 193.88 L 611.46 193.07 L 611.96 192.26 L 612.46 191.45 L 612.96 190.63 L 613.46 189.81 L 613.96 188.99 L 614.46 188.16 L 614.96 187.34 L 615.47 186.50 L 615.97 185.67 L 616.47 184.84 L 616.97 184.00 L 617.47 183.16 L 617.97 182.31 L 618.47 181.46 L 618.97 180.61 L 619.47 179.76 L 619.97 178.90 L 620.47 178.05 L 620.97 177.19 L 621.47 176.32 L 621.97 175.45 L 622.47 174.58 L 622.97 173.71 L 623.47 172.84 L 623.97 171.96 L 624.47 171.08 L 624.97 170.19 L 625.48 169.31 L 625.98 168.42 L 626.48 167.53 L 626.98 166.63 L 627.48 165.73 L 627.98 164.83 L 628.48 163.93 L 628.98 163.02 L 629.48 162.12 L 629.98 161.20 L 630.48 160.29 L 630.98 159.37 L 631.48 158.45 L 631.98 157.53 L 632.48 156.60 L 632.98 155.67 L 633.48 154.74 L 633.98 153.81 L 634.48 152.87 L 634.98 151.93 L 635.49 150.99 L 635.99 150.05 L 636.49 149.10 L 636.99 148.15 L 637.49 147.19 L 637.99 146.24 L 638.49 145.28 L 638.99 144.31 L 639.49 143.35 L 639.99 142.38 L 640.49 141.41 L 640.99 140.44 L 641.49 139.46 L 641.99 138.48 L 642.49 137.50 L 642.99 136.52 L 643.49 135.53 L 643.99 134.54 L 644.49 133.55 L 645.00 132.55 L 645.50 131.55 L 646.00 130.55 L 646.50 129.55 L 647.00 128.54 L 647.50 127.53 L 648.00 126.52 L 648.50 125.50 L 649.00 124.49 L 649.50 123.47 L 650.00 122.44" /><text  class="poloto_text poloto_legend_text" x="675" y="250" >derivative 2</text><line  class="poloto_line poloto_legend_icon poloto3stroke poloto3legend" stroke="black" x1="680" x2="730" y1="231.25" y2="231.25" /><path  class="poloto_line poloto3stroke" fill="none" stroke="black" d=" M 150.00 400.00 L 150.50 399.74 L 151.00 399.48 L 151.50 399.21 L 152.00 398.95 L 152.50 398.69 L 153.00 398.43 L 153.50 398.16 L 154.00 397.90 L 154.50 397.64 L 155.01 397.38 L 155.51 397.11 L 156.01 396.85 L 156.51 396.59 L 157.01 396.33 L 157.51 396.07 L 158.01 395.80 L 158.51 395.54 L 159.01 395.28 L 159.51 395.02 L 160.01 394.75 L 160.51 394.49 L 161.01 394.23 L 161.51 393.97 L 162.01 393.71 L 162.51 393.44 L 163.01 393.18 L 163.51 392.92 L 164.01 392.66 L 164.51 392.39 L 165.02 392.13 L 165.52 391.87 L 166.02 391.61 L 166.52 391.34 L 167.02 391.08 L 167.52 390.82 L 168.02 390.56 L 168.52 390.30 L 169.02 390.03 L 169.52 389.77 L 170.02 389.51 L 170.52 389.25 L 171.02 388.98 L 171.52 388.72 L 172.02 388.46 L 172.52 388.20 L 173.02 387.94 L 173.52 387.67 L 174.02 387.41 L 174.52 387.15 L 175.03 386.89 L 175.53 386.62 L 176.03 386.36 L 176.53 386.10 L 177.03 385.84 L 177.53 385.57 L 178.03 385.31 L 178.53 385.05 L 179.03 384.79 L 179.53 384.53 L 180.03 384.26 L 180.53 384.00 L 181.03 383.74 L 181.53 383.48 L 182.03 383.21 L 182.53 382.95 L 183.03 382.69 L 183.53 382.43 L 184.03 382.16 L 184.53 381.90 L 185.04 381.64 L 185.54 381.38 L 186.04 381.12 L 186.54 380.85 L 187.04 380.59 L 187.54 380.33 L 188.04 380.07 L 188.54 379.80 L 189.04 379.54 L 189.54 379.28 L 190.04 379.02 L 190.54 378.76 L 191.04 378.49 L 191.54 378.23 L 192.04 377.97 L 192.54 377.71 L 193.04 377.44 L 193.54 377.18 L 194.04 376.92 L 194.54 376.66 L 195.05 376.39 L 195.55 376.13 L 196.05 375.87 L 196.55 375.61 L 197.05 375.35 L 197.55 375.08 L 198.05 374.82 L 198.55 374.56 L 199.05 374.30 L 199.55 374.03 L 200.05 373.77 L 200.55 373.51 L 201.05 373.25 L 201.55 372.99 L 202.05 372.72 L 202.55 372.46 L 203.05 372.20 L 203.55 371.94 L 204.05 371.67 L 204.55 371.41 L 205.06 371.15 L 205.56 370.89 L 206.06 370.62 L 206.56 370.36 L 207.06 370.10 L 207.56 369.84 L 208.06 369.58 L 208.56 369.31 L 209.06 369.05 L 209.56 368.79 L 210.06 368.53 L 210.56 368.26 L 211.06 368.00 L 211.56 367.74 L 212.06 367.48 L 212.56 367.21 L 213.06 366.95 L 213.56 366.69 L 214.06 366.43 L 214.56 366.17 L 215.07 365.90 L 215.57 365.64 L 216.07 365.38 L 216.57 365.12 L 217.07 364.85 L 217.57 364.59 L 218.07 364.33 L 218.57 364.07 L 219.07 363.81 L 219.57 363.54 L 220.07 363.28 L 220.57 363.02 L 221.07 362.76 L 221.57 362.49 L 222.07 362.23 L 222.57 361.97 L 223.07 361.71 L 223.57 361.44 L 224.07 361.18 L 224.57 360.92 L 225.08 360.66 L 225.58 360.40 L 226.08 360.13 L 226.58 359.87 L 227.08 359.61 L 227.58 359.35 L 228.08 359.08 L 228.58 358.82 L 229.08 358.56 L 229.58 358.30 L 230.08 358.04 L 230.58 357.77 L 231.08 357.51 L 231.58 357.25 L 232.08 356.99 L 232.58 356.72 L 233.08 356.46 L 233.58 356.20 L 234.08 355.94 L 234.58 355.67 L 235.09 355.41 L 235.59 355.15 L 236.09 354.89 L 236.59 354.63 L 237.09 354.36 L 237.59 354.10 L 238.09 353.84 L 238.59 353.58 L 239.09 353.31 L 239.59 353.05 L 240.09 352.79 L 240.59 352.53 L 241.09 352.26 L 241.59 352.00 L 242.09 351.74 L 242.59 351.48 L 243.09 351.22 L 243.59 350.95 L 244.09 350.69 L 244.59 350.43 L 245.10 350.17 L 245.60 349.90 L 246.10 349.64 L 246.60 349.38 L 247.10 349.12 L 247.60 348.86 L 248.10 348.59 L 248.60 348.33 L 249.10 348.07 L 249.60 347.81 L 250.10 347.54 L 250.60 347.28 L 251.10 347.02 L 251.60 346.76 L 252.10 346.49 L 252.60 346.23 L 253.10 345.97 L 253.60 345.71 L 254.10 345.45 L 254.60 345.18 L 255.11 344.92 L 255.61 344.66 L 256.11 344.40 L 256.61 344.13 L 257.11 343.87 L 257.61 343.61 L 258.11 343.35 L 258.61 343.08 L 259.11 342.82 L 259.61 342.56 L 260.11 342.30 L 260.61 342.04 L 261.11 341.77 L 261.61 341.51 L 262.11 341.25 L 262.61 340.99 L 263.11 340.72 L 263.61 340.46 L 264.11 340.20 L 264.61 339.94 L 265.12 339.68 L 265.62 339.41 L 266.12 339.15 L 266.62 338.89 L 267.12 338.63 L 267.62 338.36 L 268.12 338.10 L 268.62 337.84 L 269.12 337.58 L 269.62 337.31 L 270.12 337.05 L 270.62 336.79 L 271.12 336.53 L 271.62 336.27 L 272.12 336.00 L 272.62 335.74 L 273.12 335.48 L 273.62 335.22 L 274.12 334.95 L 274.62 334.69 L 275.13 334.43 L 275.63 334.17 L 276.13 333.91 L 276.63 333.64 L 277.13 333.38 L 277.63 333.12 L 278.13 332.86 L 278.63 332.59 L 279.13 332.33 L 279.63 332.07 L 280.13 331.81 L 280.63 331.54 L 281.13 331.28 L 281.63 331.02 L 282.13 330.76 L 282.63 330.50 L 283.13 330.23 L 283.63 329.97 L 284.13 329.71 L 284.63 329.45 L 285.14 329.18 L 285.64 328.92 L 286.14 328.66 L 286.64 328.40 L 287.14 328.13 L 287.64 327.87 L 288.14 327.61 L 288.64 327.35 L 289.14 327.09 L 289.64 326.82 L 290.14 326.56 L 290.64 326.30 L 291.14 326.04 L 291.64 325.77 L 292.14 325.51 L 292.64 325.25 L 293.14 324.99 L 293.64 324.73 L 294.14 324.46 L 294.64 324.20 L 295.15 323.94 L 295.65 323.68 L 296.15 323.41 L 296.65 323.15 L 297.15 322.89 L 297.65 322.63 L 298.15 322.36 L 298.65 322.10 L 299.15 321.84 L 299.65 321.58 L 300.15 321.32 L 300.65 321.05 L 301.15 320.79 L 301.65 320.53 L 302.15 320.27 L 302.65 320.00 L 303.15 319.74 L 303.65 319.48 L 304.15 319.22 L 304.65 318.96 L 305.16 318.69 L 305.66 318.43 L 306.16 318.17 L 306.66 317.91 L 307.16 317.64 L 307.66 317.38 L 308.16 317.12 L 308.66 316.86 L 309.16 316.59 L 309.66 316.33 L 310.16 316.07 L 310.66 315.81 L 311.16 315.55 L 311.66 315.28 L 312.16 315.02 L 312.66 314.76 L 313.16 314.50 L 313.66 314.23 L 314.16 313.97 L 314.66 313.71 L 315.17 313.45 L 315.67 313.18 L 316.17 312.92 L 316.67 312.66 L 317.17 312.40 L 317.67 312.14 L 318.17 311.87 L 318.67 311.61 L 319.17 311.35 L 319.67 311.09 L 320.17 310.82 L 320.67 310.56 L 321.17 310.30 L 321.67 310.04 L 322.17 309.78 L 322.67 309.51 L 323.17 309.25 L 323.67 308.99 L 324.17 308.73 L 324.67 308.46 L 325.18 308.20 L 325.68 307.94 L 326.18 307.68 L 326.68 307.41 L 327.18 307.15 L 327.68 306.89 L 328.18 306.63 L 328.68 306.37 L 329.18 306.10 L 329.68 305.84 L 330.18 305.58 L 330.68 305.32 L 331.18 305.05 L 331.68 304.79 L 332.18 304.53 L 332.68 304.27 L 333.18 304.01 L 333.68 303.74 L 334.18 303.48 L 334.68 303.22 L 335.19 302.96 L 335.69 302.69 L 336.19 302.43 L 336.69 302.17 L 337.19 301.91 L 337.69 301.64 L 338.19 301.38 L 338.69 301.12 L 339.19 300.86 L 339.69 300.60 L 340.19 300.33 L 340.69 300.07 L 341.19 299.81 L 341.69 299.55 L 342.19 299.28 L 342.69 299.02 L 343.19 298.76 L 343.69 298.50 L 344.19 298.23 L 344.69 297.97 L 345.20 297.71 L 345.70 297.45 L 346.20 297.19 L 346.70 296.92 L 347.20 296.66 L 347.70 296.40 L 348.20 296.14 L 348.70 295.87 L 349.20 295.61 L 349.70 295.35 L 350.20 295.09 L 350.70 295.23 L 351.20 295.37 L 351.70 295.51 L 352.20 295.65 L 352.70 295.80 L 353.20 295.94 L 353.70 296.08 L 354.20 296.22 L 354.70 296.36 L 355.21 296.51 L 355.71 296.65 L 356.21 296.79 L 356.71 296.93 L 357.21 297.07 L 357.71 297.21 L 358.21 297.36 L 358.71 297.50 L 359.21 297.64 L 359.71 297.78 L 360.21 297.92 L 360.71 298.06 L 361.21 298.21 L 361.71 298.35 L 362.21 298.49 L 362.71 298.63 L 363.21 298.77 L 363.71 298.92 L 364.21 299.06 L 364.71 299.20 L 365.22 299.34 L 365.72 299.48 L 366.22 299.62 L 366.72 299.77 L 367.22 299.91 L 367.72 300.05 L 368.22 300.19 L 368.72 300.33 L 369.22 300.47 L 369.72 300.62 L 370.22 300.76 L 370.72 300.90 L 371.22 301.04 L 371.72 301.18 L 372.22 301.33 L 372.72 301.47 L 373.22 301.61 L 373.72 301.75 L 374.22 301.89 L 374.72 302.03 L 375.23 302.18 L 375.73 302.32 L 376.23 302.46 L 376.73 302.60 L 377.23 302.74 L 377.73 302.89 L 378.23 303.03 L 378.73 303.17 L 379.23 303.31 L 379.73 303.45 L 380.23 303.59 L 380.73 303.74 L 381.23 303.88 L 381.73 304.02 L 382.23 304.16 L 382.73 304.30 L 383.23 304.44 L 383.73 304.59 L 384.23 304.73 L 384.73 304.87 L 385.24 305.01 L 385.74 305.15 L 386.24 305.30 L 386.74 305.44 L 387.24 305.58 L 387.74 305.72 L 388.24 305.86 L 388.74 306.00 L 389.24 306.15 L 389.74 306.29 L 390.24 306.43 L 390.74 306.57 L 391.24 306.71 L 391.74 306.85 L 392.24 307.00 L 392.74 307.14 L 393.24 307.28 L 393.74 307.42 L 394.24 307.56 L 394.74 307.71 L 395.25 307.85 L 395.75 307.99 L 396.25 308.13 L 396.75 308.27 L 397.25 308.41 L 397.75 308.56 L 398.25 308.70 L 398.75 308.84 L 399.25 308.98 L 399.75 309.12 L 400.25 309.26 L 400.75 309.41 L 401.25 309.55 L 401.75 309.69 L 402.25 309.83 L 402.75 309.97 L 403.25 310.12 L 403.75 310.26 L 404.25 310.40 L 404.75 310.54 L 405.26 310.68 L 405.76 310.82 L 406.26 310.97 L 406.76 311.11 L 407.26 311.25 L 407.76 311.39 L 408.26 311.53 L 408.76 311.68 L 409.26 311.82 L 409.76 311.96 L 410.26 312.10 L 410.76 312.24 L 411.26 312.38 L 411.76 312.53 L 412.26 312.67 L 412.76 312.81 L 413.26 312.95 L 413.76 313.09 L 414.26 313.23 L 414.76 313.38 L 415.27 313.52 L 415.77 313.66 L 416.27 313.80 L 416.77 313.94 L 417.27 314.09 L 417.77 314.23 L 418.27 314.37 L 418.77 314.51 L 419.27 314.65 L 419.77 314.79 L 420.27 314.94 L 420.77 315.08 L 421.27 315.22 L 421.77 315.36 L 422.27 315.50 L 422.77 315.64 L 423.27 315.79 L 423.77 315.93 L 424.27 316.07 L 424.77 316.21 L 425.28 316.35 L 425.78 316.50 L 426.28 316.64 L 426.78 316.78 L 427.28 316.92 L 427.78 317.06 L 428.28 317.20 L 428.78 317.35 L 429.28 317.49 L 429.78 317.63 L 430.28 317.77 L 430.78 317.91 L 431.28 318.05 L 431.78 318.20 L 432.28 318.34 L 432.78 318.48 L 433.28 318.62 L 433.78 318.76 L 434.28 318.91 L 434.78 319.05 L 435.29 319.19 L 435.79 319.33 L 436.29 319.47 L 436.79 319.61 L 437.29 319.76 L 437.79 319.90 L 438.29 320.04 L 438.79 320.18 L 439.29 320.32 L 439.79 320.47 L 440.29 320.61 L 440.79 320.75 L 441.29 320.89 L 441.79 321.03 L 442.29 321.17 L 442.79 321.32 L 443.29 321.46 L 443.79 321.60 L 444.29 321.74 L 444.79 321.88 L 445.30 322.02 L 445.80 322.17 L 446.30 322.31 L 446.80 322.45 L 447.30 322.59 L 447.80 322.73 L 448.30 322.88 L 448.80 323.02 L 449.30 323.16 L 449.80 323.30 L 450.30 323.44 L 450.80 322.88 L 451.30 322.32 L 451.80 321.76 L 452.30 321.20 L 452.80 320.64 L 453.30 320.08 L 453.80 319.52 L 454.30 318.96 L 454.80 318.40 L 455.31 317.84 L 455.81 317.28 L 456.31 316.72 L 456.81 316.16 L 457.31 315.60 L 457.81 315.04 L 458.31 314.48 L 458.81 313.92 L 459.31 313.36 L 459.81 312.80 L 460.31 312.24 L 460.81 311.68 L 461.31 311.12 L 461.81 310.56 L 462.31 310.00 L 462.81 309.44 L 463.31 308.88 L 463.81 308.32 L 464.31 307.76 L 464.81 307.20 L 465.32 306.64 L 465.82 306.08 L 466.32 305.52 L 466.82 304.96 L 467.32 304.40 L 467.82 303.84 L 468.32 303.28 L 468.82 302.72 L 469.32 302.16 L 469.82 301.60 L 470.32 301.04 L 470.82 300.48 L 471.32 299.92 L 471.82 299.36 L 472.32 298.80 L 472.82 298.24 L 473.32 297.68 L 473.82 297.12 L 474.32 296.56 L 474.82 296.00 L 475.33 295.44 L 475.83 294.88 L 476.33 294.32 L 476.83 293.76 L 477.33 293.20 L 477.83 292.64 L 478.33 292.08 L 478.83 291.52 L 479.33 290.96 L 479.83 290.40 L 480.33 289.84 L 480.83 289.28 L 481.33 288.72 L 481.83 288.16 L 482.33 287.60 L 482.83 287.04 L 483.33 286.48 L 483.83 285.92 L 484.33 285.36 L 484.83 284.80 L 485.34 284.24 L 485.84 283.68 L 486.34 283.12 L 486.84 282.56 L 487.34 282.00 L 487.84 281.44 L 488.34 280.88 L 488.84 280.32 L 489.34 279.76 L 489.84 279.20 L 490.34 278.64 L 490.84 278.08 L 491.34 277.52 L 491.84 276.96 L 492.34 276.40 L 492.84 275.84 L 493.34 275.28 L 493.84 274.72 L 494.34 274.16 L 494.84 273.60 L 495.35 273.04 L 495.85 272.48 L 496.35 271.92 L 496.85 271.36 L 497.35 270.80 L 497.85 270.24 L 498.35 269.68 L 498.85 269.12 L 499.35 268.56 L 499.85 268.00 L 500.35 267.44 L 500.85 266.88 L 501.35 266.32 L 501.85 265.76 L 502.35 265.20 L 502.85 264.64 L 503.35 264.08 L 503.85 263.52 L 504.35 262.96 L 504.85 262.40 L 505.36 261.84 L 505.86 261.28 L 506.36 260.72 L 506.86 260.16 L 507.36 259.60 L 507.86 259.04 L 508.36 258.48 L 508.86 257.92 L 509.36 257.36 L 509.86 256.80 L 510.36 256.24 L 510.86 255.68 L 511.36 255.12 L 511.86 254.56 L 512.36 254.00 L 512.86 253.44 L 513.36 252.88 L 513.86 252.32 L 514.36 251.76 L 514.86 251.20 L 515.37 250.64 L 515.87 250.08 L 516.37 249.52 L 516.87 248.96 L 517.37 248.40 L 517.87 247.84 L 518.37 247.28 L 518.87 246.72 L 519.37 246.16 L 519.87 245.60 L 520.37 245.04 L 520.87 244.48 L 521.37 243.92 L 521.87 243.36 L 522.37 242.80 L 522.87 242.24 L 523.37 241.68 L 523.87 241.12 L 524.37 240.56 L 524.87 240.00 L 525.38 239.44 L 525.88 238.88 L 526.38 238.32 L 526.88 237.76 L 527.38 237.20 L 527.88 236.64 L 528.38 236.08 L 528.88 235.52 L 529.38 234.96 L 529.88 234.40 L 530.38 233.84 L 530.88 233.28 L 531.38 232.72 L 531.88 232.16 L 532.38 231.60 L 532.88 231.04 L 533.38 230.48 L 533.88 229.92 L 534.38 229.36 L 534.88 228.80 L 535.39 228.24 L 535.89 227.68 L 536.39 227.12 L 536.89 226.56 L 537.39 226.00 L 537.89 225.44 L 538.39 224.88 L 538.89 224.32 L 539.39 223.76 L 539.89 223.20 L 540.39 222.64 L 540.89 222.08 L 541.39 221.52 L 541.89 220.96 L 542.39 220.40 L 542.89 219.84 L 543.39 219.28 L 543.89 218.72 L 544.39 218.16 L 544.89 217.60 L 545.40 217.04 L 545.90 216.48 L 546.40 215.92 L 546.90 215.36 L 547.40 214.80 L 547.90 214.24 L 548.40 213.68 L 548.90 213.12 L 549.40 212.56 L 549.90 212.00 L 550.40 211.44 L 550.90 210.88 L 551.40 210.32 L 551.90 209.76 L 552.40 209.20 L 552.90 208.64 L 553.40 208.08 L 553.90 207.52 L 554.40 206.96 L 554.90 206.40 L 555.41 205.84 L 555.91 205.28 L 556.41 204.72 L 556.91 204.16 L 557.41 203.60 L 557.91 203.04 L 558.41 202.48 L 558.91 201.92 L 559.41 201.36 L 559.91 200.80 L 560.41 200.24 L 560.91 199.68 L 561.41 199.12 L 561.91 198.56 L 562.41 198.00 L 562.91 197.44 L 563.41 196.88 L 563.91 196.32 L 564.41 195.76 L 564.91 195.20 L 565.42 194.64 L 565.92 194.08 L 566.42 193.52 L 566.92 192.96 L 567.42 192.40 L 567.92 191.84 L 568.42 191.28 L 568.92 190.72 L 569.42 190.16 L 569.92 189.60 L 570.42 189.04 L 570.92 188.48 L 571.42 187.92 L 571.92 187.36 L 572.42 186.80 L 572.92 186.24 L 573.42 185.68 L 573.92 185.12 L 574.42 184.56 L 574.92 184.00 L 575.43 183.44 L 575.93 182.88 L 576.43 182.32 L 576.93 181.76 L 577.43 181.20 L 577.93 180.64 L 578.43 180.08 L 578.93 179.52 L 579.43 178.96 L 579.93 178.40 L 580.43 177.84 L 580.93 177.28 L 581.43 176.72 L 581.93 176.16 L 582.43 175.60 L 582.93 175.04 L 583.43 174.48 L 583.93 173.92 L 584.43 173.36 L 584.93 172.80 L 585.44 172.24 L 585.94 171.68 L 586.44 171.12 L 586.94 170.56 L 587.44 170.00 L 587.94 169.44 L 588.44 168.88 L 588.94 168.32 L 589.44 167.76 L 589.94 167.20 L 590.44 166.64 L 590.94 166.08 L 591.44 165.52 L 591.94 164.96 L 592.44 164.40 L 592.94 163.84 L 593.44 163.28 L 593.94 162.72 L 594.44 162.16 L 594.94 161.60 L 595.45 161.04 L 595.95 160.48 L 596.45 159.92 L 596.95 159.36 L 597.45 158.80 L 597.95 158.24 L 598.45 157.68 L 598.95 157.12 L 599.45 156.56 L 599.95 156.00 L 600.45 155.44 L 600.95 154.88 L 601.45 154.32 L 601.95 153.76 L 602.45 153.20 L 602.95 152.64 L 603.45 152.08 L 603.95 151.52 L 604.45 150.96 L 604.95 150.40 L 605.46 149.84 L 605.96 149.28 L 606.46 148.72 L 606.96 148.16 L 607.46 147.60 L 607.96 147.04 L 608.46 146.48 L 608.96 145.92 L 609.46 145.36 L 609.96 144.80 L 610.46 144.24 L 610.96 143.68 L 611.46 143.12 L 611.96 142.56 L 612.46 142.00 L 612.96 141.44 L 613.46 140.88 L 613.96 140.32 L 614.46 139.76 L 614.96 139.20 L 615.47 138.64 L 615.97 138.08 L 616.47 137.52 L 616.97 136.96 L 617.47 136.40 L 617.97 135.84 L 618.47 135.28 L 618.97 134.72 L 619.47 134.16 L 619.97 133.60 L 620.47 133.04 L 620.97 132.48 L 621.47 131.92 L 621.97 131.36 L 622.47 130.80 L 622.97 130.24 L 623.47 129.68 L 623.97 129.12 L 624.47 128.56 L 624.97 128.00 L 625.48 127.44 L 625.98 126.88 L 626.48 126.32 L 626.98 125.76 L 627.48 125.20 L 627.98 124.64 L 628.48 124.08 L 628.98 123.52 L 629.48 122.96 L 629.98 122.40 L 630.48 121.84 L 630.98 121.28 L 631.48 120.72 L 631.98 120.16 L 632.48 119.60 L 632.98 119.04 L 633.48 118.48 L 633.98 117.92 L 634.48 117.36 L 634.98 116.80 L 635.49 116.24 L 635.99 115.68 L 636.49 115.12 L 636.99 114.56 L 637.49 114.00 L 637.99 113.44 L 638.49 112.88 L 638.99 112.32 L 639.49 111.76 L 639.99 111.20 L 640.49 110.64 L 640.99 110.08 L 641.49 109.52 L 641.99 108.96 L 642.49 108.40 L 642.99 107.84 L 643.49 107.28 L 643.99 106.72 L 644.49 106.16 L 645.00 105.60 L 645.50 105.04 L 646.00 104.48 L 646.50 103.92 L 647.00 103.36 L 647.50 102.80 L 648.00 102.24 L 648.50 101.68 L 649.00 101.12 L 649.50 100.56 L 650.00 100.00" /><text  class="poloto_text poloto_legend_text" x="675" y="300" >derivative 3</text><line  class="poloto_line poloto_legend_icon poloto4stroke poloto4legend" stroke="black" x1="680" x2="730" y1="281.25" y2="281.25" /><path  class="poloto_line poloto4stroke" fill="none" stroke="black" d=" M 150.00 252.56 L 150.50 252.56 L 151.00 252.56 L 151.50 252.56 L 152.00 252.56 L 152.50 252.56 L 153.00 252.56 L 153.50 252.56 L 154.00 252.56 L 154.50 252.56 L 155.01 252.56 L 155.51 252.56 L 156.01 252.56 L 156.51 252.56 L 157.01 252.56 L 157.51 252.56 L 158.01 252.56 L 158.51 252.56 L 159.01 252.56 L 159.51 252.56 L 160.01 252.56 L 160.51 252.56 L 161.01 252.56 L 161.51 252.56 L 162.01 252.56 L 162.51 252.56 L 163.01 252.56 L 163.51 252.56 L 164.01 252.56 L 164.51 252.56 L 165.02 252.56 L 165.52 252.56 L 166.02 252.56 L 166.52 252.56 L 167.02 252.56 L 167.52 252.56 L 168.02 252.56 L 168.52 252.56 L 169.02 252.56 L 169.52 252.56 L 170.02 252.56 L 170.52 252.56 L 171.02 252.56 L 171.52 252.56 L 172.02 252.56 L 172.52 252.56 L 173.02 252.56 L 173.52 252.56 L 174.02 252.56 L 174.52 252.56 L 175.03 252.56 L 175.53 252.56 L 176.03 252.56 L 176.53 252.56 L 177.03 252.56 L 177.53 252.56 L 178.03 252.56 L 178.53 252.56 L 179.03 252.56 L 179.53 252.56 L 180.03 252.56 L 180.53 252.56 L 181.03 252.56 L 181.53 252.56 L 182.03 252.56 L 182.53 252.56 L 183.03 252.56 L 183.53 252.56 L 184.03 252.56 L 184.53 252.56 L 185.04 252.56 L 185.54 252.56 L 186.04 252.56 L 186.54 252.56 L 187.04 252.56 L 187.54 252.56 L 188.04 252.56 L 188.54 252.56 L 189.04 252.56 L 189.54 252.56 L 190.04 252.56 L 190.54 252.56 L 191.04 252.56 L 191.54 252.56 L 192.04 252.56 L 192.54 252.56 L 193.04 252.56 L 193.54 252.56 L 194.04 252.56 L 194.54 252.56 L 195.05 252.56 L 195.55 252.56 L 196.05 252.56 L 196.55 252.56 L 197.05 252.56 L 197.55 252.56 L 198.05 252.56 L 198.55 252.56 L 199.05 252.56 L 199.55 252.56 L 200.05 252.56 L 200.55 252.56 L 201.05 252.56 L 201.55 252.56 L 202.05 252.56 L 202.55 252.56 L 203.05 252.56 L 203.55 252.56 L 204.05 252.56 L 204.55 252.56 L 205.06 252.56 L 205.56 252.56 L 206.06 252.56 L 206.56 252.56 L 207.06 252.56 L 207.56 252.56 L 208.06 252.56 L 208.56 252.56 L 209.06 252.56 L 209.56 252.56 L 210.06 252.56 L 210.56 252.56 L 211.06 252.56 L 211.56 252.56 L 212.06 252.56 L 212.56 252.56 L 213.06 252.56 L 213.56 252.56 L 214.06 252.56 L 214.56 252.56 L 215.07 252.56 L 215.57 252.56 L 216.07 252.56 L 216.57 252.56 L 217.07 252.56 L 217.57 252.56 L 218.07 252.56 L 218.57 252.56 L 219.07 252.56 L 219.57 252.56 L 220.07 252.56 L 220.57 252.56 L 221.07 252.56 L 221.57 252.56 L 222.07 252.56 L 222.57 252.56 L 223.07 252.56 L 223.57 252.56 L 224.07 252.56 L 224.57 252.56 L 225.08 252.56 L 225.58 252.56 L 226.08 252.56 L 226.58 252.56 L 227.08 252.56 L 227.58 252.56 L 228.08 252.56 L 228.58 252.56 L 229.08 252.56 L 229.58 252.56 L 230.08 252.56 L 230.58 252.56 L 231.08 252.56 L 231.58 252.56 L 232.08 252.56 L 232.58 252.56 L 233.08 252.56 L 233.58 252.56 L 234.08 252.56 L 234.58 252.56 L 235.09 252.56 L 235.59 252.56 L 236.09 252.56 L 236.59 252.56 L 237.09 252.56 L 237.59 252.56 L 238.09 252.56 L 238.59 252.56 L 239.09 252.56 L 239.59 252.56 L 240.09 252.56 L 240.59 252.56 L 241.09 252.56 L 241.59 252.56 L 242.09 252.56 L 242.59 252.56 L 243.09 252.56 L 243.59 252.56 L 244.09 252.56 L 244.59 252.56 L 245.10 252.56 L 245.60 252.56 L 246.10 252.56 L 246.60 252.56 L 247.10 252.56 L 247.60 252.56 L 248.10 252.56 L 248.60 252.56 L 249.10 252.56 L 249.60 252.56 L 250.10 252.56 L 250.60 252.56 L 251.10 252.56 L 251.60 252.56 L 252.10 252.56 L 252.60 252.56 L 253.10 252.56 L 253.60 252.56 L 254.10 252.56 L 254.60 252.56 L 255.11 252.56 L 255.61 252.56 L 256.11 252.56 L 256.61 252.56 L 257.11 252.56 L 257.61 252.56 L 258.11 252.56 L 258.61 252.56 L 259.11 252.56 L 259.61 252.56 L 260.11 252.56 L 260.61 252.56 L 261.11 252.56 L 261.61 252.56 L 262.11 252.56 L 262.61 252.56 L 263.11 252.56 L 263.61 252.56 L 264.11 252.56 L 264.61 252.56 L 265.12 252.56 L 265.62 252.56 L 266.12 252.56 L 266.62 252.56 L 267.12 252.56 L 267.62 252.56 L 268.12 252.56 L 268.62 252.56 L 269.12 252.56 L 269.62 252.56 L 270.12 252.56 L 270.62 252.56 L 271.12 252.56 L 271.62 252.56 L 272.12 252.56 L 272.62 252.56 L 273.12 252.56 L 273.62 252.56 L 274.12 252.56 L 274.62 252.56 L 275.13 252.56 L 275.63 252.56 L 276.13 252.56 L 276.63 252.56 L 277.13 252.56 L 277.63 252.56 L 278.13 252.56 L 278.63 252.56 L 279.13 252.56 L 279.63 252.56 L 280.13 252.56 L 280.63 252.56 L 281.13 252.56 L 281.63 252.56 L 282.13 252.56 L 282.63 252.56 L 283.13 252.56 L 283.63 252.56 L 284.13 252.56 L 284.63 252.56 L 285.14 252.56 L 285.64 252.56 L 286.14 252.56 L 286.64 252.56 L 287.14 252.56 L 287.64 252.56 L 288.14 252.56 L 288.64 252.56 L 289.14 252.56 L 289.64 252.56 L 290.14 252.56 L 290.64 252.56 L 291.14 252.56 L 291.64 252.56 L 292.14 252.56 L 292.64 252.56 L 293.14 252.56 L 293.64 252.56 L 294.14 252.56 L 294.64 252.56 L 295.15 252.56 L 295.65 252.56 L 296.15 252.56 L 296.65 252.56 L 297.15 252.56 L 297.65 252.56 L 298.15 252.56 L 298.65 252.56 L 299.15 252.56 L 299.65 252.56 L 300.15 252.56 L 300.65 252.56 L 301.15 252.56 L 301.65 252.56 L 302.15 252.56 L 302.65 252.56 L 303.15 252.56 L 303.65 252.56 L 304.15 252.56 L 304.65 252.56 L 305.16 252.56 L 305.66 252.56 L 306.16 252.56 L 306.66 252.56 L 307.16 252.56 L 307.66 252.56 L 308.16 252.56 L 308.66 252.56 L 309.16 252.56 L 309.66 252.56 L 310.16 252.56 L 310.66 252.56 L 311.16 252.56 L 311.66 252.56 L 312.16 252.56 L 312.66 252.56 L 313.16 252.56 L 313.66 252.56 L 314.16 252.56 L 314.66 252.56 L 315.17 252.56 L 315.67 252.56 L 316.17 252.56 L 316.67 252.56 L 317.17 252.56 L 317.67 252.56 L 318.17 252.56 L 318.67 252.56 L 319.17 252.56 L 319.67 252.56 L 320.17 252.56 L 320.67 252.56 L 321.17 252.56 L 321.67 252.56 L 322.17 252.56 L 322.67 252.56 L 323.17 252.56 L 323.67 252.56 L 324.17 252.56 L 324.67 252.56 L 325.18 252.56 L 325.68 252.56 L 326.18 252.56 L 326.68 252.56 L 327.18 252.56 L 327.68 252.56 L 328.18 252.56 L 328.68 252.56 L 329.18 252.56 L 329.68 252.56 L 330.18 252.56 L 330.68 252.56 L 331.18 252.56 L 331.68 252.56 L 332.18 252.56 L 332.68 252.56 L 333.18 252.56 L 333.68 252.56 L 334.18 252.56 L 334.68 252.56 L 335.19 252.56 L 335.69 252.56 L 336.19 252.56 L 336.69 252.56 L 337.19 252.56 L 337.69 252.56 L 338.19 252.56 L 338.69 252.56 L 339.19 252.56 L 339.69 252.56 L 340.19 252.56 L 340.69 252.56 L 341.19 252.56 L 341.69 252.56 L 342.19 252.56 L 342.69 252.56 L 343.19 252.56 L 343.69 252.56 L 344.19 252.56 L 344.69 252.56 L 345.20 252.56 L 345.70 252.56 L 346.20 252.56 L 346.70 252.56 L 347.20 252.56 L 347.70 252.56 L 348.20 252.56 L 348.70 252.56 L 349.20 252.56 L 349.70 252.56 L 350.20 252.56 L 350.70 333.37 L 351.20 333.37 L 351.70 333.37 L 352.20 333.37 L 352.70 333.37 L 353.20 333.37 L 353.70 333.37 L 354.20 333.37 L 354.70 333.37 L 355.21 333.37 L 355.71 333.37 L 356.21 333.37 L 356.71 333.37 L 357.21 333.37 L 357.71 333.37 L 358.21 333.37 L 358.71 333.37 L 359.21 333.37 L 359.71 333.37 L 360.21 333.37 L 360.71 333.37 L 361.21 333.37 L 361.71 333.37 L 362.21 333.37 L 362.71 333.37 L 363.21 333.37 L 363.71 333.37 L 364.21 333.37 L 364.71 333.37 L 365.22 333.37 L 365.72 333.37 L 366.22 333.37 L 366.72 333.37 L 367.22 333.37 L 367.72 333.37 L 368.22 333.37 L 368.72 333.37 L 369.22 333.37 L 369.72 333.37 L 370.22 333.37 L 370.72 333.37 L 371.22 333.37 L 371.72 333.37 L 372.22 333.37 L 372.72 333.37 L 373.22 333.37 L 373.72 333.37 L 374.22 333.37 L 374.72 333.37 L 375.23 333.37 L 375.73 333.37 L 376.23 333.37 L 376.73 333.37 L 377.23 333.37 L 377.73 333.37 L 378.23 333.37 L 378.73 333.37 L 379.23 333.37 L 379.73 333.37 L 380.23 333.37 L 380.73 333.37 L 381.23 333.37 L 381.73 333.37 L 382.23 333.37 L 382.73 333.37 L 383.23 333.37 L 383.73 333.37 L 384.23 333.37 L 384.73 333.37 L 385.24 333.37 L 385.74 333.37 L 386.24 333.37 L 386.74 333.37 L 387.24 333.37 L 387.74 333.37 L 388.24 333.37 L 388.74 333.37 L 389.24 333.37 L 389.74 333.37 L 390.24 333.37 L 390.74 333.37 L 391.24 333.37 L 391.74 333.37 L 392.24 333.37 L 392.74 333.37 L 393.24 333.37 L 393.74 333.37 L 394.24 333.37 L 394.74 333.37 L 395.25 333.37 L 395.75 333.37 L 396.25 333.37 L 396.75 333.37 L 397.25 333.37 L 397.75 333.37 L 398.25 333.37 L 398.75 333.37 L 399.25 333.37 L 399.75 333.37 L 400.25 333.37 L 400.75 333.37 L 401.25 333.37 L 401.75 333.37 L 402.25 333.37 L 402.75 333.37 L 403.25 333.37 L 403.75 333.37 L 404.25 333.37 L 404.75 333.37 L 405.26 333.37 L 405.76 333.37 L 406.26 333.37 L 406.76 333.37 L 407.26 333.37 L 407.76 333.37 L 408.26 333.37 L 408.76 333.37 L 409.26 333.37 L 409.76 333.37 L 410.26 333.37 L 410.76 333.37 L 411.26 333.37 L 411.76 333.37 L 412.26 333.37 L 412.76 333.37 L 413.26 333.37 L 413.76 333.37 L 414.26 333.37 L 414.76 333.37 L 415.27 333.37 L 415.77 333.37 L 416.27 333.37 L 416.77 333.37 L 417.27 333.37 L 417.77 333.37 L 418.27 333.37 L 418.77 333.37 L 419.27 333.37 L 419.77 333.37 L 420.27 333.37 L 420.77 333.37 L 421.27 333.37 L 421.77 333.37 L 422.27 333.37 L 422.77 333.37 L 423.27 333.37 L 423.77 333.37 L 424.27 333.37 L 424.77 333.37 L 425.28 333.37 L 425.78 333.37 L 426.28 333.37 L 426.78 333.37 L 427.28 333.37 L 427.78 333.37 L 428.28 333.37 L 428.78 333.37 L 429.28 333.37 L 429.78 333.37 L 430.28 333.37 L 430.78 333.37 L 431.28 333.37 L 431.78 333.37 L 432.28 333.37 L 432.78 333.37 L 433.28 333.37 L 433.78 333.37 L 434.28 333.37 L 434.78 333.37 L 435.29 333.37 L 435.79 333.37 L 436.29 333.37 L 436.79 333.37 L 437.29 333.37 L 437.79 333.37 L 438.29 333.37 L 438.79 333.37 L 439.29 333.37 L 439.79 333.37 L 440.29 333.37 L 440.79 333.37 L 441.29 333.37 L 441.79 333.37 L 442.29 333.37 L 442.79 333.37 L 443.29 333.37 L 443.79 333.37 L 444.29 333.37 L 444.79 333.37 L 445.30 333.37 L 445.80 333.37 L 446.30 333.37 L 446.80 333.37 L 447.30 333.37 L 447.80 333.37 L 448.30 333.37 L 448.80 333.37 L 449.30 333.37 L 449.80 333.37 L 450.30 333.37 L 450.80 193.01 L 451.30 193.01 L 451.80 193.01 L 452.30 193.01 L 452.80 193.01 L 453.30 193.01 L 453.80 193.01 L 454.30 193.01 L 454.80 193.01 L 455.31 193.01 L 455.81 193.01 L 456.31 193.01 L 456.81 193.01 L 457.31 193.01 L 457.81 193.01 L 458.31 193.01 L 458.81 193.01 L 459.31 193.01 L 459.81 193.01 L 460.31 193.01 L 460.81 193.01 L 461.31 193.01 L 461.81 193.01 L 462.31 193.01 L 462.81 193.01 L 463.31 193.01 L 463.81 193.01 L 464.31 193.01 L 464.81 193.01 L 465.32 193.01 L 465.82 193.01 L 466.32 193.01 L 466.82 193.01 L 467.32 193.01 L 467.82 193.01 L 468.32 193.01 L 468.82 193.01 L 469.32 193.01 L 469.82 193.01 L 470.32 193.01 L 470.82 193.01 L 471.32 193.01 L 471.82 193.01 L 472.32 193.01 L 472.82 193.01 L 473.32 193.01 L 473.82 193.01 L 474.32 193.01 L 474.82 193.01 L 475.33 193.01 L 475.83 193.01 L 476.33 193.01 L 476.83 193.01 L 477.33 193.01 L 477.83 193.01 L 478.33 193.01 L 478.83 193.01 L 479.33 193.01 L 479.83 193.01 L 480.33 193.01 L 480.83 193.01 L 481.33 193.01 L 481.83 193.01 L 482.33 193.01 L 482.83 193.01 L 483.33 193.01 L 483.83 193.01 L 484.33 193.01 L 484.83 193.01 L 485.34 193.01 L 485.84 193.01 L 486.34 193.01 L 486.84 193.01 L 487.34 193.01 L 487.84 193.01 L 488.34 193.01 L 488.84 193.01 L 489.34 193.01 L 489.84 193.01 L 490.34 193.01 L 490.84 193.01 L 491.34 193.01 L 491.84 193.01 L 492.34 193.01 L 492.84 193.01 L 493.34 193.01 L 493.84 193.01 L 494.34 193.01 L 494.84 193.01 L 495.35 193.01 L 495.85 193.01 L 496.35 193.01 L 496.85 193.01 L 497.35 193.01 L 497.85 193.01 L 498.35 193.01 L 498.85 193.01 L 499.35 193.01 L 499.85 193.01 L 500.35 193.01 L 500.85 193.01 L 501.35 193.01 L 501.85 193.01 L 502.35 193.01 L 502.85 193.01 L 503.35 193.01 L 503.85 193.01 L 504.35 193.01 L 504.85 193.01 L 505.36 193.01 L 505.86 193.01 L 506.36 193.01 L 506.86 193.01 L 507.36 193.01 L 507.86 193.01 L 508.36 193.01 L 508.86 193.01 L 509.36 193.01 L 509.86 193.01 L 510.36 193.01 L 510.86 193.01 L 511.36 193.01 L 511.86 193.01 L 512.36 193.01 L 512.86 193.01 L 513.36 193.01 L 513.86 193.01 L 514.36 193.01 L 514.86 193.01 L 515.37 193.01 L 515.87 193.01 L 516.37 193.01 L 516.87 193.01 L 517.37 193.01 L 517.87 193.01 L 518.37 193.01 L 518.87 193.01 L 519.37 193.01 L 519.87 193.01 L 520.37 193.01 L 520.87 193.01 L 521.37 193.01 L 521.87 193.01 L 522.37 193.01 L 522.87 193.01 L 523.37 193.01 L 523.87 193.01 L 524.37 193.01 L 524.87 193.01 L 525.38 193.01 L 525.88 193.01 L 526.38 193.01 L 526.88 193.01 L 527.38 193.01 L 527.88 193.01 L 528.38 193.01 L 528.88 193.01 L 529.38 193.01 L 529.88 193.01 L 530.38 193.01 L 530.88 193.01 L 531.38 193.01 L 531.88 193.01 L 532.38 193.01 L 532.88 193.01 L 533.38 193.01 L 533.88 193.01 L 534.38 193.01 L 534.88 193.01 L 535.39 193.01 L 535.89 193.01 L 536.39 193.01 L 536.89 193.01 L 537.39 193.01 L 537.89 193.01 L 538.39 193.01 L 538.89 193.01 L 539.39 193.01 L 539.89 193.01 L 540.39 193.01 L 540.89 193.01 L 541.39 193.01 L 541.89 193.01 L 542.39 193.01 L 542.89 193.01 L 543.39 193.01 L 543.89 193.01 L 544.39 193.01 L 544.89 193.01 L 545.40 193.01 L 545.90 193.01 L 546.40 193.01 L 546.90 193.01 L 547.40 193.01 L 547.90 193.01 L 548.40 193.01 L 548.90 193.01 L 549.40 193.01 L 549.90 193.01 L 550.40 193.01 L 550.90 193.01 L 551.40 193.01 L 551.90 193.01 L 552.40 193.01 L 552.90 193.01 L 553.40 193.01 L 553.90 193.01 L 554.40 193.01 L 554.90 193.01 L 555.41 193.01 L 555.91 193.01 L 556.41 193.01 L 556.91 193.01 L 557.41 193.01 L 557.91 193.01 L 558.41 193.01 L 558.91 193.01 L 559.41 193.01 L 559.91 193.01 L 560.41 193.01 L 560.91 193.01 L 561.41 193.01 L 561.91 193.01 L 562.41 193.01 L 562.91 193.01 L 563.41 193.01 L 563.91 193.01 L 564.41 193.01 L 564.91 193.01 L 565.42 193.01 L 565.92 193.01 L 566.42 193.01 L 566.92 193.01 L 567.42 193.01 L 567.92 193.01 L 568.42 193.01 L 568.92 193.01 L 569.42 193.01 L 569.92 193.01 L 570.42 193.01 L 570.92 193.01 L 571.42 193.01 L 571.92 193.01 L 572.42 193.01 L 572.92 193.01 L 573.42 193.01 L 573.92 193.01 L 574.42 193.01 L 574.92 193.01 L 575.43 193.01 L 575.93 193.01 L 576.43 193.01 L 576.93 193.01 L 577.43 193.01 L 577.93 193.01 L 578.43 193.01 L 578.93 193.01 L 579.43 193.01 L 579.93 193.01 L 580.43 193.01 L 580.93 193.01 L 581.43 193.01 L 581.93 193.01 L 582.43 193.01 L 582.93 193.01 L 583.43 193.01 L 583.93 193.01 L 584.43 193.01 L 584.93 193.01 L 585.44 193.01 L 585.94 193.01 L 586.44 193.01 L 586.94 193.01 L 587.44 193.01 L 587.94 193.01 L 588.44 193.01 L 588.94 193.01 L 589.44 193.01 L 589.94 193.01 L 590.44 193.01 L 590.94 193.01 L 591.44 193.01 L 591.94 193.01 L 592.44 193.01 L 592.94 193.01 L 593.44 193.01 L 593.94 193.01 L 594.44 193.01 L 594.94 193.01 L 595.45 193.01 L 595.95 193.01 L 596.45 193.01 L 596.95 193.01 L 597.45 193.01 L 597.95 193.01 L 598.45 193.01 L 598.95 193.01 L 599.45 193.01 L 599.95 193.01 L 600.45 193.01 L 600.95 193.01 L 601.45 193.01 L 601.95 193.01 L 602.45 193.01 L 602.95 193.01 L 603.45 193.01 L 603.95 193.01 L 604.45 193.01 L 604.95 193.01 L 605.46 193.01 L 605.96 193.01 L 606.46 193.01 L 606.96 193.01 L 607.46 193.01 L 607.96 193.01 L 608.46 193.01 L 608.96 193.01 L 609.46 193.01 L 609.96 193.01 L 610.46 193.01 L 610.96 193.01 L 611.46 193.01 L 611.96 193.01 L 612.46 193.01 L 612.96 193.01 L 613.46 193.01 L 613.96 193.01 L 614.46 193.01 L 614.96 193.01 L 615.47 193.01 L 615.97 193.01 L 616.47 193.01 L 616.97 193.01 L 617.47 193.01 L 617.97 193.01 L 618.47 193.01 L 618.97 193.01 L 619.47 193.01 L 619.97 193.01 L 620.47 193.01 L 620.97 193.01 L 621.47 193.01 L 621.97 193.01 L 622.47 193.01 L 622.97 193.01 L 623.47 193.01 L 623.97 193.01 L 624.47 193.01 L 624.97 193.01 L 625.48 193.01 L 625.98 193.01 L 626.48 193.01 L 626.98 193.01 L 627.48 193.01 L 627.98 193.01 L 628.48 193.01 L 628.98 193.01 L 629.48 193.01 L 629.98 193.01 L 630.48 193.01 L 630.98 193.01 L 631.48 193.01 L 631.98 193.01 L 632.48 193.01 L 632.98 193.01 L 633.48 193.01 L 633.98 193.01 L 634.48 193.01 L 634.98 193.01 L 635.49 193.01 L 635.99 193.01 L 636.49 193.01 L 636.99 193.01 L 637.49 193.01 L 637.99 193.01 L 638.49 193.01 L 638.99 193.01 L 639.49 193.01 L 639.99 193.01 L 640.49 193.01 L 640.99 193.01 L 641.49 193.01 L 641.99 193.01 L 642.49 193.01 L 642.99 193.01 L 643.49 193.01 L 643.99 193.01 L 644.49 193.01 L 645.00 193.01 L 645.50 193.01 L 646.00 193.01 L 646.50 193.01 L 647.00 193.01 L 647.50 193.01 L 648.00 193.01 L 648.50 193.01 L 649.00 193.01 L 649.50 193.01 L 650.00 193.01" /><text  class="poloto_text poloto_legend_text" x="675" y="350" >derivative 4</text><line  class="poloto_line poloto_legend_icon poloto5stroke poloto5legend" stroke="black" x1="680" x2="730" y1="331.25" y2="331.25" /><path  class="poloto_line poloto5stroke" fill="none" stroke="black" d=" M 150.00 305.01 L 150.50 305.01 L 151.00 305.01 L 151.50 305.01 L 152.00 305.01 L 152.50 305.01 L 153.00 305.01 L 153.50 305.01 L 154.00 305.01 L 154.50 305.01 L 155.01 305.01 L 155.51 305.01 L 156.01 305.01 L 156.51 305.01 L 157.01 305.01 L 157.51 305.01 L 158.01 305.01 L 158.51 305.01 L 159.01 305.01 L 159.51 305.01 L 160.01 305.01 L 160.51 305.01 L 161.01 305.01 L 161.51 305.01 L 162.01 305.01 L 162.51 305.01 L 163.01 305.01 L 163.51 305.01 L 164.01 305.01 L 164.51 305.01 L 165.02 305.01 L 165.52 305.01 L 166.02 305.01 L 166.52 305.01 L 167.02 305.01 L 167.52 305.01 L 168.02 305.01 L 168.52 305.01 L 169.02 305.01 L 169.52 305.01 L 170.02 305.01 L 170.52 305.01 L 171.02 305.01 L 171.52 305.01 L 172.02 305.01 L 172.52 305.01 L 173.02 305.01 L 173.52 305.01 L 174.02 305.01 L 174.52 305.01 L 175.03 305.01 L 175.53 305.01 L 176.03 305.01 L 176.53 305.01 L 177.03 305.01 L 177.53 305.01 L 178.03 305.01 L 178.53 305.01 L 179.03 305.01 L 179.53 305.01 L 180.03 305.01 L 180.53 305.01 L 181.03 305.01 L 181.53 305.01 L 182.03 305.01 L 182.53 305.01 L 183.03 305.01 L 183.53 305.01 L 184.03 305.01 L 184.53 305.01 L 185.04 305.01 L 185.54 305.01 L 186.04 305.01 L 186.54 305.01 L 187.04 305.01 L 187.54 305.01 L 188.04 305.01 L 188.54 305.01 L 189.04 305.01 L 189.54 305.01 L 190.04 305.01 L 190.54 305.01 L 191.04 305.01 L 191.54 305.01 L 192.04 305.01 L 192.54 305.01 L 193.04 305.01 L 193.54 305.01 L 194.04 305.01 L 194.54 305.01 L 195.05 305.01 L 195.55 305.01 L 196.05 305.01 L 196.55 305.01 L 197.05 305.01 L 197.55 305.01 L 198.05 305.01 L 198.55 305.01 L 199.05 305.01 L 199.55 305.01 L 200.05 305.01 L 200.55 305.01 L 201.05 305.01 L 201.55 305.01 L 202.05 305.01 L 202.55 305.01 L 203.05 305.01 L 203.55 305.01 L 204.05 305.01 L 204.55 305.01 L 205.06 305.01 L 205.56 305.01 L 206.06 305.01 L 206.56 305.01 L 207.06 305.01 L 207.56 305.01 L 208.06 305.01 L 208.56 305.01 L 209.06 305.01 L 209.56 305.01 L 210.06 305.01 L 210.56 305.01 L 211.06 305.01 L 211.56 305.01 L 212.06 305.01 L 212.56 305.01 L 213.06 305.01 L 213.56 305.01 L 214.06 305.01 L 214.56 305.01 L 215.07 305.01 L 215.57 305.01 L 216.07 305.01 L 216.57 305.01 L 217.07 305.01 L 217.57 305.01 L 218.07 305.01 L 218.57 305.01 L 219.07 305.01 L 219.57 305.01 L 220.07 305.01 L 220.57 305.01 L 221.07 305.01 L 221.57 305.01 L 222.07 305.01 L 222.57 305.01 L 223.07 305.01 L 223.57 305.01 L 224.07 305.01 L 224.57 305.01 L 225.08 305.01 L 225.58 305.01 L 226.08 305.01 L 226.58 305.01 L 227.08 305.01 L 227.58 305.01 L 228.08 305.01 L 228.58 305.01 L 229.08 305.01 L 229.58 305.01 L 230.08 305.01 L 230.58 305.01 L 231.08 305.01 L 231.58 305.01 L 232.08 305.01 L 232.58 305.01 L 233.08 305.01 L 233.58 305.01 L 234.08 305.01 L 234.58 305.01 L 235.09 305.01 L 235.59 305.01 L 236.09 305.01 L 236.59 305.01 L 237.09 305.01 L 237.59 305.01 L 238.09 305.01 L 238.59 305.01 L 239.09 305.01 L 239.59 305.01 L 240.09 305.01 L 240.59 305.01 L 241.09 305.01 L 241.59 305.01 L 242.09 305.01 L 242.59 305.01 L 243.09 305.01 L 243.59 305.01 L 244.09 305.01 L 244.59 305.01 L 245.10 305.01 L 245.60 305.01 L 246.10 305.01 L 246.60 305.01 L 247.10 305.01 L 247.60 305.01 L 248.10 305.01 L 248.60 305.01 L 249.10 305.01 L 249.60 305.01 L 250.10 305.01 L 250.60 305.01 L 251.10 305.01 L 251.60 305.01 L 252.10 305.01 L 252.60 305.01 L 253.10 305.01 L 253.60 305.01 L 254.10 305.01 L 254.60 305.01 L 255.11 305.01 L 255.61 305.01 L 256.11 305.01 L 256.61 305.01 L 257.11 305.01 L 257.61 305.01 L 258.11 305.01 L 258.61 305.01 L 259.11 305.01 L 259.61 305.01 L 260.11 305.01 L 260.61 305.01 L 261.11 305.01 L 261.61 305.01 L 262.11 305.01 L 262.61 305.01 L 263.11 305.01 L 263.61 305.01 L 264.11 305.01 L 264.61 305.01 L 265.12 305.01 L 265.62 305.01 L 266.12 305.01 L 266.62 305.01 L 267.12 305.01 L 267.62 305.01 L 268.12 305.01 L 268.62 305.01 L 269.12 305.01 L 269.62 305.01 L 270.12 305.01 L 270.62 305.01 L 271.12 305.01 L 271.62 305.01 L 272.12 305.01 L 272.62 305.01 L 273.12 305.01 L 273.62 305.01 L 274.12 305.01 L 274.62 305.01 L 275.13 305.01 L 275.63 305.01 L 276.13 305.01 L 276.63 305.01 L 277.13 305.01 L 277.63 305.01 L 278.13 305.01 L 278.63 305.01 L 279.13 305.01 L 279.63 305.01 L 280.13 305.01 L 280.63 305.01 L 281.13 305.01 L 281.63 305.01 L 282.13 305.01 L 282.63 305.01 L 283.13 305.01 L 283.63 305.01 L 284.13 305.01 L 284.63 305.01 L 285.14 305.01 L 285.64 305.01 L 286.14 305.01 L 286.64 305.01 L 287.14 305.01 L 287.64 305.01 L 288.14 305.01 L 288.64 305.01 L 289.14 305.01 L 289.64 305.01 L 290.14 305.01 L 290.64 305.01 L 291.14 305.01 L 291.64 305.01 L 292.14 305.01 L 292.64 305.01 L 293.14 305.01 L 293.64 305.01 L 294.14 305.01 L 294.64 305.01 L 295.15 305.01 L 295.65 305.01 L 296.15 305.01 L 296.65 305.01 L 297.15 305.01 L 297.65 305.01 L 298.15 305.01 L 298.65 305.01 L 299.15 305.01 L 299.65 305.01 L 300.15 305.01 L 300.65 305.01 L 301.15 305.01 L 301.65 305.01 L 302.15 305.01 L 302.65 305.01 L 303.15 305.01 L 303.65 305.01 L 304.15 305.01 L 304.65 305.01 L 305.16 305.01 L 305.66 305.01 L 306.16 305.01 L 306.66 305.01 L 307.16 305.01 L 307.66 305.01 L 308.16 305.01 L 308.66 305.01 L 309.16 305.01 L 309.66 305.01 L 310.16 305.01 L 310.66 305.01 L 311.16 305.01 L 311.66 305.01 L 312.16 305.01 L 312.66 305.01 L 313.16 305.01 L 313.66 305.01 L 314.16 305.01 L 314.66 305.01 L 315.17 305.01 L 315.67 305.01 L 316.17 305.01 L 316.67 305.01 L 317.17 305.01 L 317.67 305.01 L 318.17 305.01 L 318.67 305.01 L 319.17 305.01 L 319.67 305.01 L 320.17 305.01 L 320.67 305.01 L 321.17 305.01 L 321.67 305.01 L 322.17 305.01 L 322.67 305.01 L 323.17 305.01 L 323.67 305.01 L 324.17 305.01 L 324.67 305.01 L 325.18 305.01 L 325.68 305.01 L 326.18 305.01 L 326.68 305.01 L 327.18 305.01 L 327.68 305.01 L 328.18 305.01 L 328.68 305.01 L 329.18 305.01 L 329.68 305.01 L 330.18 305.01 L 330.68 305.01 L 331.18 305.01 L 331.68 305.01 L 332.18 305.01 L 332.68 305.01 L 333.18 305.01 L 333.68 305.01 L 334.18 305.01 L 334.68 305.01 L 335.19 305.01 L 335.69 305.01 L 336.19 305.01 L 336.69 305.01 L 337.19 305.01 L 337.69 305.01 L 338.19 305.01 L 338.69 305.01 L 339.19 305.01 L 339.69 305.01 L 340.19 305.01 L 340.69 305.01 L 341.19 305.01 L 341.69 305.01 L 342.19 305.01 L 342.69 305.01 L 343.19 305.01 L 343.69 305.01 L 344.19 305.01 L 344.69 305.01 L 345.20 305.01 L 345.70 305.01 L 346.20 305.01 L 346.70 305.01 L 347.20 305.01 L 347.70 305.01 L 348.20 305.01 L 348.70 305.01 L 349.20 305.01 L 349.70 305.01 L 350.20 305.01 L 350.70 305.01 L 351.20 305.01 L 351.70 305.01 L 352.20 305.01 L 352.70 305.01 L 353.20 305.01 L 353.70 305.01 L 354.20 305.01 L 354.70 305.01 L 355.21 305.01 L 355.71 305.01 L 356.21 305.01 L 356.71 305.01 L 357.21 305.01 L 357.71 305.01 L 358.21 305.01 L 358.71 305.01 L 359.21 305.01 L 359.71 305.01 L 360.21 305.01 L 360.71 305.01 L 361.21 305.01 L 361.71 305.01 L 362.21 305.01 L 362.71 305.01 L 363.21 305.01 L 363.71 305.01 L 364.21 305.01 L 364.71 305.01 L 365.22 305.01 L 365.72 305.01 L 366.22 305.01 L 366.72 305.01 L 367.22 305.01 L 367.72 305.01 L 368.22 305.01 L 368.72 305.01 L 369.22 305.01 L 369.72 305.01 L 370.22 305.01 L 370.72 305.01 L 371.22 305.01 L 371.72 305.01 L 372.22 305.01 L 372.72 305.01 L 373.22 305.01 L 373.72 305.01 L 374.22 305.01 L 374.72 305.01 L 375.23 305.01 L 375.73 305.01 L 376.23 305.01 L 376.73 305.01 L 377.23 305.01 L 377.73 305.01 L 378.23 305.01 L 378.73 305.01 L 379.23 305.01 L 379.73 305.01 L 380.23 305.01 L 380.73 305.01 L 381.23 305.01 L 381.73 305.01 L 382.23 305.01 L 382.73 305.01 L 383.23 305.01 L 383.73 305.01 L 384.23 305.01 L 384.73 305.01 L 385.24 305.01 L 385.74 305.01 L 386.24 305.01 L 386.74 305.01 L 387.24 305.01 L 387.74 305.01 L 388.24 305.01 L 388.74 305.01 L 389.24 305.01 L 389.74 305.01 L 390.24 305.01 L 390.74 305.01 L 391.24 305.01 L 391.74 305.01 L 392.24 305.01 L 392.74 305.01 L 393.24 305.01 L 393.74 305.01 L 394.24 305.01 L 394.74 305.01 L 395.25 305.01 L 395.75 305.01 L 396.25 305.01 L 396.75 305.01 L 397.25 305.01 L 397.75 305.01 L 398.25 305.01 L 398.75 305.01 L 399.25 305.01 L 399.75 305.01 L 400.25 305.01 L 400.75 305.01 L 401.25 305.01 L 401.75 305.01 L 402.25 305.01 L 402.75 305.01 L 403.25 305.01 L 403.75 305.01 L 404.25 305.01 L 404.75 305.01 L 405.26 305.01 L 405.76 305.01 L 406.26 305.01 L 406.76 305.01 L 407.26 305.01 L 407.76 305.01 L 408.26 305.01 L 408.76 305.01 L 409.26 305.01 L 409.76 305.01 L 410.26 305.01 L 410.76 305.01 L 411.26 305.01 L 411.76 305.01 L 412.26 305.01 L 412.76 305.01 L 413.26 305.01 L 413.76 305.01 L 414.26 305.01 L 414.76 305.01 L 415.27 305.01 L 415.77 305.01 L 416.27 305.01 L 416.77 305.01 L 417.27 305.01 L 417.77 305.01 L 418.27 305.01 L 418.77 305.01 L 419.27 305.01 L 419.77 305.01 L 420.27 305.01 L 420.77 305.01 L 421.27 305.01 L 421.77 305.01 L 422.27 305.01 L 422.77 305.01 L 423.27 305.01 L 423.77 305.01 L 424.27 305.01 L 424.77 305.01 L 425.28 305.01 L 425.78 305.01 L 426.28 305.01 L 426.78 305.01 L 427.28 305.01 L 427.78 305.01 L 428.28 305.01 L 428.78 305.01 L 429.28 305.01 L 429.78 305.01 L 430.28 305.01 L 430.78 305.01 L 431.28 305.01 L 431.78 305.01 L 432.28 305.01 L 432.78 305.01 L 433.28 305.01 L 433.78 305.01 L 434.28 305.01 L 434.78 305.01 L 435.29 305.01 L 435.79 305.01 L 436.29 305.01 L 436.79 305.01 L 437.29 305.01 L 437.79 305.01 L 438.29 305.01 L 438.79 305.01 L 439.29 305.01 L 439.79 305.01 L 440.29 305.01 L 440.79 305.01 L 441.29 305.01 L 441.79 305.01 L 442.29 305.01 L 442.79 305.01 L 443.29 305.01 L 443.79 305.01 L 444.29 305.01 L 444.79 305.01 L 445.30 305.01 L 445.80 305.01 L 446.30 305.01 L 446.80 305.01 L 447.30 305.01 L 447.80 305.01 L 448.30 305.01 L 448.80 305.01 L 449.30 305.01 L 449.80 305.01 L 450.30 305.01 L 450.80 305.01 L 451.30 305.01 L 451.80 305.01 L 452.30 305.01 L 452.80 305.01 L 453.30 305.01 L 453.80 305.01 L 454.30 305.01 L 454.80 305.01 L 455.31 305.01 L 455.81 305.01 L 456.31 305.01 L 456.81 305.01 L 457.31 305.01 L 457.81 305.01 L 458.31 305.01 L 458.81 305.01 L 459.31 305.01 L 459.81 305.01 L 460.31 305.01 L 460.81 305.01 L 461.31 305.01 L 461.81 305.01 L 462.31 305.01 L 462.81 305.01 L 463.31 305.01 L 463.81 305.01 L 464.31 305.01 L 464.81 305.01 L 465.32 305.01 L 465.82 305.01 L 466.32 305.01 L 466.82 305.01 L 467.32 305.01 L 467.82 305.01 L 468.32 305.01 L 468.82 305.01 L 469.32 305.01 L 469.82 305.01 L 470.32 305.01 L 470.82 305.01 L 471.32 305.01 L 471.82 305.01 L 472.32 305.01 L 472.82 305.01 L 473.32 305.01 L 473.82 305.01 L 474.32 305.01 L 474.82 305.01 L 475.33 305.01 L 475.83 305.01 L 476.33 305.01 L 476.83 305.01 L 477.33 305.01 L 477.83 305.01 L 478.33 305.01 L 478.83 305.01 L 479.33 305.01 L 479.83 305.01 L 480.33 305.01 L 480.83 305.01 L 481.33 305.01 L 481.83 305.01 L 482.33 305.01 L 482.83 305.01 L 483.33 305.01 L 483.83 305.01 L 484.33 305.01 L 484.83 305.01 L 485.34 305.01 L 485.84 305.01 L 486.34 305.01 L 486.84 305.01 L 487.34 305.01 L 487.84 305.01 L 488.34 305.01 L 488.84 305.01 L 489.34 305.01 L 489.84 305.01 L 490.34 305.01 L 490.84 305.01 L 491.34 305.01 L 491.84 305.01 L 492.34 305.01 L 492.84 305.01 L 493.34 305.01 L 493.84 305.01 L 494.34 305.01 L 494.84 305.01 L 495.35 305.01 L 495.85 305.01 L 496.35 305.01 L 496.85 305.01 L 497.35 305.01 L 497.85 305.01 L 498.35 305.01 L 498.85 305.01 L 499.35 305.01 L 499.85 305.01 L 500.35 305.01 L 500.85 305.01 L 501.35 305.01 L 501.85 305.01 L 502.35 305.01 L 502.85 305.01 L 503.35 305.01 L 503.85 305.01 L 504.35 305.01 L 504.85 305.01 L 505.36 305.01 L 505.86 305.01 L 506.36 305.01 L 506.86 305.01 L 507.36 305.01 L 507.86 305.01 L 508.36 305.01 L 508.86 305.01 L 509.36 305.01 L 509.86 305.01 L 510.36 305.01 L 510.86 305.01 L 511.36 305.01 L 511.86 305.01 L 512.36 305.01 L 512.86 305.01 L 513.36 305.01 L 513.86 305.01 L 514.36 305.01 L 514.86 305.01 L 515.37 305.01 L 515.87 305.01 L 516.37 305.01 L 516.87 305.01 L 517.37 305.01 L 517.87 305.01 L 518.37 305.01 L 518.87 305.01 L 519.37 305.01 L 519.87 305.01 L 520.37 305.01 L 520.87 305.01 L 521.37 305.01 L 521.87 305.01 L 522.37 305.01 L 522.87 305.01 L 523.37 305.01 L 523.87 305.01 L 524.37 305.01 L 524.87 305.01 L 525.38 305.01 L 525.88 305.01 L 526.38 305.01 L 526.88 305.01 L 527.38 305.01 L 527.88 305.01 L 528.38 305.01 L 528.88 305.01 L 529.38 305.01 L 529.88 305.01 L 530.38 305.01 L 530.88 305.01 L 531.38 305.01 L 531.88 305.01 L 532.38 305.01 L 532.88 305.01 L 533.38 305.01 L 533.88 305.01 L 534.38 305.01 L 534.88 305.01 L 535.39 305.01 L 535.89 305.01 L 536.39 305.01 L 536.89 305.01 L 537.39 305.01 L 537.89 305.01 L 538.39 305.01 L 538.89 305.01 L 539.39 305.01 L 539.89 305.01 L 540.39 305.01 L 540.89 305.01 L 541.39 305.01 L 541.89 305.01 L 542.39 305.01 L 542.89 305.01 L 543.39 305.01 L 543.89 305.01 L 544.39 305.01 L 544.89 305.01 L 545.40 305.01 L 545.90 305.01 L 546.40 305.01 L 546.90 305.01 L 547.40 305.01 L 547.90 305.01 L 548.40 305.01 L 548.90 305.01 L 549.40 305.01 L 549.90 305.01 L 550.40 305.01 L 550.90 305.01 L 551.40 305.01 L 551.90 305.01 L 552.40 305.01 L 552.90 305.01 L 553.40 305.01 L 553.90 305.01 L 554.40 305.01 L 554.90 305.01 L 555.41 305.01 L 555.91 305.01 L 556.41 305.01 L 556.91 305.01 L 557.41 305.01 L 557.91 305.01 L 558.41 305.01 L 558.91 305.01 L 559.41 305.01 L 559.91 305.01 L 560.41 305.01 L 560.91 305.01 L 561.41 305.01 L 561.91 305.01 L 562.41 305.01 L 562.91 305.01 L 563.41 305.01 L 563.91 305.01 L 564.41 305.01 L 564.91 305.01 L 565.42 305.01 L 565.92 305.01 L 566.42 305.01 L 566.92 305.01 L 567.42 305.01 L 567.92 305.01 L 568.42 305.01 L 568.92 305.01 L 569.42 305.01 L 569.92 305.01 L 570.42 305.01 L 570.92 305.01 L 571.42 305.01 L 571.92 305.01 L 572.42 305.01 L 572.92 305.01 L 573.42 305.01 L 573.92 305.01 L 574.42 305.01 L 574.92 305.01 L 575.43 305.01 L 575.93 305.01 L 576.43 305.01 L 576.93 305.01 L 577.43 305.01 L 577.93 305.01 L 578.43 305.01 L 578.93 305.01 L 579.43 305.01 L 579.93 305.01 L 580.43 305.01 L 580.93 305.01 L 581.43 305.01 L 581.93 305.01 L 582.43 305.01 L 582.93 305.01 L 583.43 305.01 L 583.93 305.01 L 584.43 305.01 L 584.93 305.01 L 585.44 305.01 L 585.94 305.01 L 586.44 305.01 L 586.94 305.01 L 587.44 305.01 L 587.94 305.01 L 588.44 305.01 L 588.94 305.01 L 589.44 305.01 L 589.94 305.01 L 590.44 305.01 L 590.94 305.01 L 591.44 305.01 L 591.94 305.01 L 592.44 305.01 L 592.94 305.01 L 593.44 305.01 L 593.94 305.01 L 594.44 305.01 L 594.94 305.01 L 595.45 305.01 L 595.95 305.01 L 596.45 305.01 L 596.95 305.01 L 597.45 305.01 L 597.95 305.01 L 598.45 305.01 L 598.95 305.01 L 599.45 305.01 L 599.95 305.01 L 600.45 305.01 L 600.95 305.01 L 601.45 305.01 L 601.95 305.01 L 602.45 305.01 L 602.95 305.01 L 603.45 305.01 L 603.95 305.01 L 604.45 305.01 L 604.95 305.01 L 605.46 305.01 L 605.96 305.01 L 606.46 305.01 L 606.96 305.01 L 607.46 305.01 L 607.96 305.01 L 608.46 305.01 L 608.96 305.01 L 609.46 305.01 L 609.96 305.01 L 610.46 305.01 L 610.96 305.01 L 611.46 305.01 L 611.96 305.01 L 612.46 305.01 L 612.96 305.01 L 613.46 305.01 L 613.96 305.01 L 614.46 305.01 L 614.96 305.01 L 615.47 305.01 L 615.97 305.01 L 616.47 305.01 L 616.97 305.01 L 617.47 305.01 L 617.97 305.01 L 618.47 305.01 L 618.97 305.01 L 619.47 305.01 L 619.97 305.01 L 620.47 305.01 L 620.97 305.01 L 621.47 305.01 L 621.97 305.01 L 622.47 305.01 L 622.97 305.01 L 623.47 305.01 L 623.97 305.01 L 624.47 305.01 L 624.97 305.01 L 625.48 305.01 L 625.98 305.01 L 626.48 305.01 L 626.98 305.01 L 627.48 305.01 L 627.98 305.01 L 628.48 305.01 L 628.98 305.01 L 629.48 305.01 L 629.98 305.01 L 630.48 305.01 L 630.98 305.01 L 631.48 305.01 L 631.98 305.01 L 632.48 305.01 L 632.98 305.01 L 633.48 305.01 L 633.98 305.01 L 634.48 305.01 L 634.98 305.01 L 635.49 305.01 L 635.99 305.01 L 636.49 305.01 L 636.99 305.01 L 637.49 305.01 L 637.99 305.01 L 638.49 305.01 L 638.99 305.01 L 639.49 305.01 L 639.99 305.01 L 640.49 305.01 L 640.99 305.01 L 641.49 305.01 L 641.99 305.01 L 642.49 305.01 L 642.99 305.01 L 643.49 305.01 L 643.99 305.01 L 644.49 305.01 L 645.00 305.01 L 645.50 305.01 L 646.00 305.01 L 646.50 305.01 L 647.00 305.01 L 647.50 305.01 L 648.00 305.01 L 648.50 305.01 L 649.00 305.01 L 649.50 305.01 L 650.00 305.01" /><text  class="poloto_labels poloto_text poloto_title" x="400" y="37.5" >bspline example 3 a</text><text  class="poloto_labels poloto_text poloto_xname" x="400" y="481.25" >x</text><text  class="poloto_labels poloto_text poloto_yname" transform="rotate(-90,37.5,250)" x="37.5" y="250" >y</text><text  class="poloto_tick_labels poloto_text" dominant-baseline="middle" text-anchor="start" x="150" y="70" ></text><line  class="poloto_axis_lines" stroke="black" x1="150" x2="144" y1="361.7211305803503" y2="361.7211305803503" /><text  class="poloto_tick_labels poloto_text" dominant-baseline="middle" text-anchor="end" x="135" y="361.7211305803503" >-20</text><line  class="poloto_axis_lines" stroke="black" x1="150" x2="144" y1="305.0116944030915" y2="305.0116944030915" /><text  class="poloto_tick_labels poloto_text" dominant-baseline="middle" text-anchor="end" x="135" y="305.0116944030915" >0</text><line  class="poloto_axis_lines" stroke="black" x1="150" x2="144" y1="248.3022582258327" y2="248.3022582258327" /><text  class="poloto_tick_labels poloto_text" dominant-baseline="middle" text-anchor="end" x="135" y="248.3022582258327" >20</text><line  class="poloto_axis_lines" stroke="black" x1="150" x2="144" y1="191.59282204857385" y2="191.59282204857385" /><text  class="poloto_tick_labels poloto_text" dominant-baseline="middle" text-anchor="end" x="135" y="191.59282204857385" >40</text><line  class="poloto_axis_lines" stroke="black" x1="150" x2="144" y1="134.88338587131506" y2="134.88338587131506" /><text  class="poloto_tick_labels poloto_text" dominant-baseline="middle" text-anchor="end" x="135" y="134.88338587131506" >60</text><text  class="poloto_tick_labels poloto_text" dominant-baseline="middle" text-anchor="start" x="440.00000000000006" y="70" ></text><line  class="poloto_axis_lines" stroke="black" x1="150" x2="150" y1="400" y2="405" /><text  class="poloto_tick_labels poloto_text" dominant-baseline="start" text-anchor="middle" x="150" y="430" >0.0</text><line  class="poloto_axis_lines" stroke="black" x1="200.0500511967515" x2="200.0500511967515" y1="400" y2="405" /><text  class="poloto_tick_labels poloto_text" dominant-baseline="start" text-anchor="middle" x="200.0500511967515" y="430" >0.5</text><line  class="poloto_axis_lines" stroke="black" x1="250.10010239350302" x2="250.10010239350302" y1="400" y2="405" /><text  class="poloto_tick_labels poloto_text" dominant-baseline="start" text-anchor="middle" x="250.10010239350302" y="430" >1.0</text><line  class="poloto_axis_lines" stroke="black" x1="300.15015359025455" x2="300.15015359025455" y1="400" y2="405" /><text  class="poloto_tick_labels poloto_text" dominant-baseline="start" text-anchor="middle" x="300.15015359025455" y="430" >1.5</text><line  class="poloto_axis_lines" stroke="black" x1="350.20020478700604" x2="350.20020478700604" y1="400" y2="405" /><text  class="poloto_tick_labels poloto_text" dominant-baseline="start" text-anchor="middle" x="350.20020478700604" y="430" >2.0</text><line  class="poloto_axis_lines" stroke="black" x1="400.25025598375754" x2="400.25025598375754" y1="400" y2="405" /><text  class="poloto_tick_labels poloto_text" dominant-baseline="start" text-anchor="middle" x="400.25025598375754" y="430" >2.5</text><line  class="poloto_axis_lines" stroke="black" x1="450.3003071805091" x2="450.3003071805091" y1="400" y2="405" /><text  class="poloto_tick_labels poloto_text" dominant-baseline="start" text-anchor="middle" x="450.3003071805091" y="430" >3.0</text><line  class="poloto_axis_lines" stroke="black" x1="500.3503583772606" x2="500.3503583772606" y1="400" y2="405" /><text  class="poloto_tick_labels poloto_text" dominant-baseline="start" text-anchor="middle" x="500.3503583772606" y="430" >3.5</text><line  class="poloto_axis_lines" stroke="black" x1="550.4004095740121" x2="550.4004095740121" y1="400" y2="405" /><text  class="poloto_tick_labels poloto_text" dominant-baseline="start" text-anchor="middle" x="550.4004095740121" y="430" >4.0</text><line  class="poloto_axis_lines" stroke="black" x1="600.4504607707636" x2="600.4504607707636" y1="400" y2="405" /><text  class="poloto_tick_labels poloto_text" dominant-baseline="start" text-anchor="middle" x="600.4504607707636" y="430" >4.5</text><path  stroke="black" fill="none" class="poloto_axis_lines" style="stroke-dasharray:5.005005119675151;stroke-dashoffset:-0;" d=" M 150 400 L 650 400" /><path  stroke="black" fill="none" class="poloto_axis_lines" style="stroke-dasharray:7.088679522157352;stroke-dashoffset:-38.2788694196497;" d=" M 150 400 L 150 100" /></svg>