<svg class="poloto" width="800" height="500" viewBox="0 0 800 500" xmlns="http://www.w3.org/2000/svg"><style>.poloto{stroke-linecap:round;stroke-linejoin:round;font-family:Roboto,sans-serif;font-size:16px;}.poloto_background{fill:AliceBlue;}.poloto_scatter{stroke-width:7}.poloto_tick_line{stroke:gray;stroke-width:0.5}.poloto_line{stroke-width:2}.poloto_text{fill: black;}.poloto_axis_lines{stroke: black;stroke-width:3;fill:none;stroke-dasharray:none}.poloto_title{font-size:24px;dominant-baseline:start;text-anchor:middle;}.poloto_xname{font-size:24px;dominant-baseline:start;text-anchor:middle;}.poloto_yname{font-size:24px;dominant-baseline:start;text-anchor:middle;}.poloto_legend_text{font-size:20px;dominant-baseline:middle;text-anchor:start;}.poloto0stroke{stroke:blue;}.poloto1stroke{stroke:red;}.poloto2stroke{stroke:green;}.poloto3stroke{stroke:gold;}.poloto4stroke{stroke:aqua;}.poloto5stroke{stroke:lime;}.poloto6stroke{stroke:orange;}.poloto7stroke{stroke:chocolate;}.poloto0fill{fill:blue;}.poloto1fill{fill:red;}.poloto2fill{fill:green;}.poloto3fill{fill:gold;}.poloto4fill{fill:aqua;}.poloto5fill{fill:lime;}.poloto6fill{fill:orange;}.poloto7fill{fill:chocolate;}</style><circle  r="1e5" class="poloto_background" /><text  class="poloto_text poloto_legend_text" x="675" y="100" >knot</text><line  class="poloto_scatter poloto_legend_icon poloto0stroke poloto0legend" stroke="black" x1="685" x2="685" y1="81.25" y2="81.25" /><path  class="poloto_scatter poloto0stroke" d=" M 166.68 316.71 h 0 M 183.37 316.71 h 0 M 216.73 316.71 h 0 M 250.10 316.71 h 0 M 300.15 316.71 h 0 M 316.83 316.71 h 0 M 366.88 316.71 h 0 M 400.25 316.71 h 0 M 433.62 316.71 h 0 M 466.98 316.71 h 0 M 567.08 316.71 h 0 M 583.77 316.71 h 0 M 617.13 316.71 h 0 M 633.82 316.71 h 0" /><text  class="poloto_text poloto_legend_text" x="675" y="150" >f&apos; constraint</text><line  class="poloto_scatter poloto_legend_icon poloto1stroke poloto1legend" stroke="black" x1="685" x2="685" y1="131.25" y2="131.25" /><path  class="poloto_scatter poloto1stroke" d=" M 166.68 336.20 h 0 M 633.82 355.69 h 0" /><text  class="poloto_text poloto_legend_text" x="675" y="200" >f constraint</text><line  class="poloto_scatter poloto_legend_icon poloto2stroke poloto2legend" stroke="black" x1="685" x2="685" y1="181.25" y2="181.25" /><path  class="poloto_scatter poloto2stroke" d=" M 166.68 301.12 h 0 M 183.37 332.31 h 0 M 200.05 277.74 h 0 M 266.78 258.25 h 0 M 300.15 340.10 h 0 M 333.52 297.23 h 0 M 383.57 355.69 h 0 M 416.93 297.23 h 0 M 433.62 305.02 h 0 M 517.03 277.74 h 0 M 533.72 316.71 h 0 M 567.08 363.49 h 0 M 617.13 242.66 h 0 M 633.82 281.63 h 0" /><text  class="poloto_text poloto_legend_text" x="675" y="250" >f&apos;</text><line  class="poloto_line poloto_legend_icon poloto3stroke poloto3legend" stroke="black" x1="680" x2="730" y1="231.25" y2="231.25" /><path  class="poloto_line poloto3stroke" fill="none" stroke="black" d=" M 150.00 100.00 L 150.50 110.80 L 151.00 121.37 L 151.50 131.72 L 152.00 141.83 L 152.50 151.71 L 153.00 161.36 L 153.50 170.79 L 154.00 179.98 L 154.50 188.94 L 155.01 197.68 L 155.51 206.18 L 156.01 214.45 L 156.51 222.50 L 157.01 230.31 L 157.51 237.89 L 158.01 245.25 L 158.51 252.37 L 159.01 259.27 L 159.51 265.93 L 160.01 272.37 L 160.51 278.57 L 161.01 284.55 L 161.51 290.29 L 162.01 295.81 L 162.51 301.09 L 163.01 306.15 L 163.51 310.98 L 164.01 315.57 L 164.51 319.94 L 165.02 324.07 L 165.52 327.98 L 166.02 331.66 L 166.52 335.11 L 167.02 338.32 L 167.52 341.31 L 168.02 344.07 L 168.52 346.59 L 169.02 348.89 L 169.52 350.96 L 170.02 352.80 L 170.52 354.41 L 171.02 355.78 L 171.52 356.93 L 172.02 357.85 L 172.52 358.54 L 173.02 359.00 L 173.52 359.23 L 174.02 359.23 L 174.52 359.00 L 175.03 358.54 L 175.53 357.85 L 176.03 356.93 L 176.53 355.78 L 177.03 354.40 L 177.53 352.79 L 178.03 350.95 L 178.53 348.88 L 179.03 346.58 L 179.53 344.05 L 180.03 341.29 L 180.53 338.30 L 181.03 335.08 L 181.53 331.64 L 182.03 327.96 L 182.53 324.05 L 183.03 319.91 L 183.53 315.56 L 184.03 311.24 L 184.53 307.02 L 185.04 302.90 L 185.54 298.87 L 186.04 294.95 L 186.54 291.13 L 187.04 287.41 L 187.54 283.79 L 188.04 280.27 L 188.54 276.85 L 189.04 273.53 L 189.54 270.31 L 190.04 267.18 L 190.54 264.16 L 191.04 261.24 L 191.54 258.43 L 192.04 255.71 L 192.54 253.09 L 193.04 250.57 L 193.54 248.15 L 194.04 245.83 L 194.54 243.61 L 195.05 241.49 L 195.55 239.47 L 196.05 237.56 L 196.55 235.74 L 197.05 234.02 L 197.55 232.40 L 198.05 230.89 L 198.55 229.47 L 199.05 228.15 L 199.55 226.93 L 200.05 225.82 L 200.55 224.80 L 201.05 223.89 L 201.55 223.07 L 202.05 222.35 L 202.55 221.74 L 203.05 221.22 L 203.55 220.81 L 204.05 220.49 L 204.55 220.28 L 205.06 220.16 L 205.56 220.15 L 206.06 220.23 L 206.56 220.42 L 207.06 220.70 L 207.56 221.09 L 208.06 221.58 L 208.56 222.16 L 209.06 222.85 L 209.56 223.64 L 210.06 224.52 L 210.56 225.51 L 211.06 226.60 L 211.56 227.79 L 212.06 229.07 L 212.56 230.46 L 213.06 231.95 L 213.56 233.54 L 214.06 235.23 L 214.56 237.02 L 215.07 238.91 L 215.57 240.89 L 216.07 242.98 L 216.57 245.17 L 217.07 247.44 L 217.57 249.70 L 218.07 251.95 L 218.57 254.19 L 219.07 256.42 L 219.57 258.64 L 220.07 260.86 L 220.57 263.06 L 221.07 265.25 L 221.57 267.43 L 222.07 269.60 L 222.57 271.76 L 223.07 273.91 L 223.57 276.05 L 224.07 278.18 L 224.57 280.30 L 225.08 282.41 L 225.58 284.51 L 226.08 286.60 L 226.58 288.68 L 227.08 290.75 L 227.58 292.81 L 228.08 294.86 L 228.58 296.91 L 229.08 298.94 L 229.58 300.96 L 230.08 302.97 L 230.58 304.97 L 231.08 306.96 L 231.58 308.94 L 232.08 310.90 L 232.58 312.86 L 233.08 314.81 L 233.58 316.75 L 234.08 318.68 L 234.58 320.60 L 235.09 322.51 L 235.59 324.41 L 236.09 326.30 L 236.59 328.18 L 237.09 330.05 L 237.59 331.91 L 238.09 333.76 L 238.59 335.60 L 239.09 337.43 L 239.59 339.25 L 240.09 341.06 L 240.59 342.85 L 241.09 344.64 L 241.59 346.42 L 242.09 348.19 L 242.59 349.95 L 243.09 351.70 L 243.59 353.44 L 244.09 355.17 L 244.59 356.88 L 245.10 358.59 L 245.60 360.29 L 246.10 361.98 L 246.60 363.66 L 247.10 365.33 L 247.60 366.99 L 248.10 368.63 L 248.60 370.27 L 249.10 371.90 L 249.60 373.52 L 250.10 375.13 L 250.60 376.70 L 251.10 378.23 L 251.60 379.70 L 252.10 381.12 L 252.60 382.50 L 253.10 383.81 L 253.60 385.08 L 254.10 386.30 L 254.60 387.46 L 255.11 388.57 L 255.61 389.63 L 256.11 390.64 L 256.61 391.60 L 257.11 392.51 L 257.61 393.36 L 258.11 394.16 L 258.61 394.91 L 259.11 395.61 L 259.61 396.26 L 260.11 396.86 L 260.61 397.40 L 261.11 397.89 L 261.61 398.33 L 262.11 398.72 L 262.61 399.06 L 263.11 399.35 L 263.61 399.58 L 264.11 399.76 L 264.61 399.89 L 265.12 399.97 L 265.62 400.00 L 266.12 399.98 L 266.62 399.90 L 267.12 399.77 L 267.62 399.59 L 268.12 399.36 L 268.62 399.08 L 269.12 398.75 L 269.62 398.36 L 270.12 397.92 L 270.62 397.43 L 271.12 396.89 L 271.62 396.30 L 272.12 395.66 L 272.62 394.96 L 273.12 394.21 L 273.62 393.42 L 274.12 392.57 L 274.62 391.66 L 275.13 390.71 L 275.63 389.70 L 276.13 388.65 L 276.63 387.54 L 277.13 386.38 L 277.63 385.17 L 278.13 383.90 L 278.63 382.59 L 279.13 381.22 L 279.63 379.80 L 280.13 378.33 L 280.63 376.81 L 281.13 375.23 L 281.63 373.61 L 282.13 371.93 L 282.63 370.20 L 283.13 368.42 L 283.63 366.59 L 284.13 364.71 L 284.63 362.77 L 285.14 360.78 L 285.64 358.75 L 286.14 356.66 L 286.64 354.51 L 287.14 352.32 L 287.64 350.07 L 288.14 347.78 L 288.64 345.43 L 289.14 343.03 L 289.64 340.58 L 290.14 338.07 L 290.64 335.52 L 291.14 332.91 L 291.64 330.25 L 292.14 327.54 L 292.64 324.78 L 293.14 321.97 L 293.64 319.10 L 294.14 316.19 L 294.64 313.22 L 295.15 310.20 L 295.65 307.13 L 296.15 304.00 L 296.65 300.83 L 297.15 297.60 L 297.65 294.32 L 298.15 290.99 L 298.65 287.61 L 299.15 284.18 L 299.65 280.69 L 300.15 277.16 L 300.65 273.70 L 301.15 270.47 L 301.65 267.46 L 302.15 264.67 L 302.65 262.11 L 303.15 259.76 L 303.65 257.64 L 304.15 255.73 L 304.65 254.05 L 305.16 252.59 L 305.66 251.35 L 306.16 250.33 L 306.66 249.53 L 307.16 248.95 L 307.66 248.60 L 308.16 248.46 L 308.66 248.55 L 309.16 248.86 L 309.66 249.39 L 310.16 250.14 L 310.66 251.11 L 311.16 252.30 L 311.66 253.72 L 312.16 255.35 L 312.66 257.21 L 313.16 259.28 L 313.66 261.58 L 314.16 264.10 L 314.66 266.84 L 315.17 269.80 L 315.67 272.99 L 316.17 276.39 L 316.67 280.02 L 317.17 283.80 L 317.67 287.53 L 318.17 291.19 L 318.67 294.77 L 319.17 298.29 L 319.67 301.74 L 320.17 305.12 L 320.67 308.43 L 321.17 311.66 L 321.67 314.83 L 322.17 317.93 L 322.67 320.96 L 323.17 323.92 L 323.67 326.81 L 324.17 329.63 L 324.67 332.38 L 325.18 335.05 L 325.68 337.66 L 326.18 340.20 L 326.68 342.67 L 327.18 345.07 L 327.68 347.40 L 328.18 349.66 L 328.68 351.85 L 329.18 353.97 L 329.68 356.02 L 330.18 358.00 L 330.68 359.91 L 331.18 361.75 L 331.68 363.51 L 332.18 365.21 L 332.68 366.84 L 333.18 368.40 L 333.68 369.89 L 334.18 371.31 L 334.68 372.66 L 335.19 373.94 L 335.69 375.15 L 336.19 376.29 L 336.69 377.36 L 337.19 378.36 L 337.69 379.29 L 338.19 380.15 L 338.69 380.95 L 339.19 381.67 L 339.69 382.32 L 340.19 382.90 L 340.69 383.41 L 341.19 383.85 L 341.69 384.22 L 342.19 384.52 L 342.69 384.75 L 343.19 384.91 L 343.69 385.00 L 344.19 385.02 L 344.69 384.97 L 345.20 384.86 L 345.70 384.67 L 346.20 384.41 L 346.70 384.08 L 347.20 383.68 L 347.70 383.21 L 348.20 382.67 L 348.70 382.06 L 349.20 381.39 L 349.70 380.64 L 350.20 379.82 L 350.70 378.93 L 351.20 377.97 L 351.70 376.94 L 352.20 375.85 L 352.70 374.68 L 353.20 373.44 L 353.70 372.13 L 354.20 370.75 L 354.70 369.31 L 355.21 367.79 L 355.71 366.20 L 356.21 364.54 L 356.71 362.82 L 357.21 361.02 L 357.71 359.15 L 358.21 357.21 L 358.71 355.21 L 359.21 353.13 L 359.71 350.98 L 360.21 348.76 L 360.71 346.48 L 361.21 344.12 L 361.71 341.69 L 362.21 339.20 L 362.71 336.63 L 363.21 333.99 L 363.71 331.29 L 364.21 328.51 L 364.71 325.66 L 365.22 322.75 L 365.72 319.76 L 366.22 316.70 L 366.72 313.58 L 367.22 310.41 L 367.72 307.33 L 368.22 304.32 L 368.72 301.40 L 369.22 298.56 L 369.72 295.81 L 370.22 293.14 L 370.72 290.55 L 371.22 288.05 L 371.72 285.63 L 372.22 283.29 L 372.72 281.04 L 373.22 278.87 L 373.72 276.78 L 374.22 274.77 L 374.72 272.85 L 375.23 271.02 L 375.73 269.26 L 376.23 267.59 L 376.73 266.01 L 377.23 264.50 L 377.73 263.08 L 378.23 261.74 L 378.73 260.49 L 379.23 259.32 L 379.73 258.23 L 380.23 257.23 L 380.73 256.31 L 381.23 255.47 L 381.73 254.72 L 382.23 254.05 L 382.73 253.46 L 383.23 252.96 L 383.73 252.54 L 384.23 252.20 L 384.73 251.95 L 385.24 251.78 L 385.74 251.69 L 386.24 251.69 L 386.74 251.77 L 387.24 251.93 L 387.74 252.18 L 388.24 252.51 L 388.74 252.92 L 389.24 253.42 L 389.74 254.00 L 390.24 254.67 L 390.74 255.41 L 391.24 256.24 L 391.74 257.16 L 392.24 258.15 L 392.74 259.23 L 393.24 260.40 L 393.74 261.65 L 394.24 262.98 L 394.74 264.39 L 395.25 265.89 L 395.75 267.47 L 396.25 269.13 L 396.75 270.88 L 397.25 272.71 L 397.75 274.62 L 398.25 276.62 L 398.75 278.70 L 399.25 280.87 L 399.75 283.11 L 400.25 285.45 L 400.75 287.79 L 401.25 290.07 L 401.75 292.29 L 402.25 294.45 L 402.75 296.54 L 403.25 298.58 L 403.75 300.55 L 404.25 302.46 L 404.75 304.31 L 405.26 306.10 L 405.76 307.83 L 406.26 309.50 L 406.76 311.10 L 407.26 312.65 L 407.76 314.13 L 408.26 315.55 L 408.76 316.91 L 409.26 318.21 L 409.76 319.45 L 410.26 320.62 L 410.76 321.74 L 411.26 322.79 L 411.76 323.78 L 412.26 324.71 L 412.76 325.58 L 413.26 326.39 L 413.76 327.13 L 414.26 327.82 L 414.76 328.44 L 415.27 329.00 L 415.77 329.50 L 416.27 329.94 L 416.77 330.32 L 417.27 330.64 L 417.77 330.89 L 418.27 331.09 L 418.77 331.22 L 419.27 331.29 L 419.77 331.30 L 420.27 331.25 L 420.77 331.13 L 421.27 330.96 L 421.77 330.72 L 422.27 330.42 L 422.77 330.07 L 423.27 329.65 L 423.77 329.16 L 424.27 328.62 L 424.77 328.02 L 425.28 327.35 L 425.78 326.62 L 426.28 325.84 L 426.78 324.99 L 427.28 324.07 L 427.78 323.10 L 428.28 322.07 L 428.78 320.97 L 429.28 319.82 L 429.78 318.60 L 430.28 317.32 L 430.78 315.98 L 431.28 314.58 L 431.78 313.11 L 432.28 311.59 L 432.78 310.00 L 433.28 308.35 L 433.78 306.65 L 434.28 304.97 L 434.78 303.33 L 435.29 301.73 L 435.79 300.18 L 436.29 298.67 L 436.79 297.20 L 437.29 295.78 L 437.79 294.40 L 438.29 293.06 L 438.79 291.77 L 439.29 290.52 L 439.79 289.32 L 440.29 288.16 L 440.79 287.04 L 441.29 285.96 L 441.79 284.93 L 442.29 283.94 L 442.79 283.00 L 443.29 282.09 L 443.79 281.24 L 444.29 280.42 L 444.79 279.65 L 445.30 278.92 L 445.80 278.24 L 446.30 277.60 L 446.80 277.00 L 447.30 276.45 L 447.80 275.93 L 448.30 275.47 L 448.80 275.04 L 449.30 274.66 L 449.80 274.33 L 450.30 274.03 L 450.80 273.78 L 451.30 273.58 L 451.80 273.41 L 452.30 273.29 L 452.80 273.22 L 453.30 273.18 L 453.80 273.19 L 454.30 273.25 L 454.80 273.34 L 455.31 273.49 L 455.81 273.67 L 456.31 273.90 L 456.81 274.17 L 457.31 274.48 L 457.81 274.84 L 458.31 275.24 L 458.81 275.69 L 459.31 276.17 L 459.81 276.71 L 460.31 277.28 L 460.81 277.90 L 461.31 278.56 L 461.81 279.27 L 462.31 280.01 L 462.81 280.81 L 463.31 281.64 L 463.81 282.52 L 464.31 283.44 L 464.81 284.41 L 465.32 285.42 L 465.82 286.47 L 466.32 287.57 L 466.82 288.71 L 467.32 289.88 L 467.82 291.04 L 468.32 292.19 L 468.82 293.34 L 469.32 294.47 L 469.82 295.59 L 470.32 296.70 L 470.82 297.81 L 471.32 298.90 L 471.82 299.98 L 472.32 301.05 L 472.82 302.11 L 473.32 303.16 L 473.82 304.20 L 474.32 305.23 L 474.82 306.25 L 475.33 307.26 L 475.83 308.26 L 476.33 309.25 L 476.83 310.22 L 477.33 311.19 L 477.83 312.15 L 478.33 313.10 L 478.83 314.03 L 479.33 314.96 L 479.83 315.88 L 480.33 316.78 L 480.83 317.68 L 481.33 318.56 L 481.83 319.44 L 482.33 320.30 L 482.83 321.16 L 483.33 322.00 L 483.83 322.84 L 484.33 323.66 L 484.83 324.48 L 485.34 325.28 L 485.84 326.07 L 486.34 326.85 L 486.84 327.63 L 487.34 328.39 L 487.84 329.14 L 488.34 329.88 L 488.84 330.61 L 489.34 331.33 L 489.84 332.04 L 490.34 332.74 L 490.84 333.43 L 491.34 334.11 L 491.84 334.78 L 492.34 335.44 L 492.84 336.09 L 493.34 336.73 L 493.84 337.36 L 494.34 337.97 L 494.84 338.58 L 495.35 339.18 L 495.85 339.77 L 496.35 340.34 L 496.85 340.91 L 497.35 341.47 L 497.85 342.01 L 498.35 342.55 L 498.85 343.07 L 499.35 343.59 L 499.85 344.09 L 500.35 344.59 L 500.85 345.07 L 501.35 345.54 L 501.85 346.01 L 502.35 346.46 L 502.85 346.90 L 503.35 347.33 L 503.85 347.76 L 504.35 348.17 L 504.85 348.57 L 505.36 348.96 L 505.86 349.34 L 506.36 349.71 L 506.86 350.07 L 507.36 350.42 L 507.86 350.76 L 508.36 351.09 L 508.86 351.41 L 509.36 351.72 L 509.86 352.02 L 510.36 352.31 L 510.86 352.59 L 511.36 352.85 L 511.86 353.11 L 512.36 353.36 L 512.86 353.60 L 513.36 353.82 L 513.86 354.04 L 514.36 354.24 L 514.86 354.44 L 515.37 354.62 L 515.87 354.80 L 516.37 354.96 L 516.87 355.12 L 517.37 355.26 L 517.87 355.40 L 518.37 355.52 L 518.87 355.63 L 519.37 355.74 L 519.87 355.83 L 520.37 355.91 L 520.87 355.98 L 521.37 356.05 L 521.87 356.10 L 522.37 356.14 L 522.87 356.17 L 523.37 356.19 L 523.87 356.20 L 524.37 356.20 L 524.87 356.19 L 525.38 356.17 L 525.88 356.14 L 526.38 356.10 L 526.88 356.04 L 527.38 355.98 L 527.88 355.91 L 528.38 355.83 L 528.88 355.74 L 529.38 355.63 L 529.88 355.52 L 530.38 355.40 L 530.88 355.26 L 531.38 355.12 L 531.88 354.96 L 532.38 354.80 L 532.88 354.62 L 533.38 354.44 L 533.88 354.24 L 534.38 354.04 L 534.88 353.82 L 535.39 353.59 L 535.89 353.36 L 536.39 353.11 L 536.89 352.85 L 537.39 352.58 L 537.89 352.31 L 538.39 352.02 L 538.89 351.72 L 539.39 351.41 L 539.89 351.09 L 540.39 350.76 L 540.89 350.42 L 541.39 350.07 L 541.89 349.71 L 542.39 349.34 L 542.89 348.96 L 543.39 348.57 L 543.89 348.17 L 544.39 347.75 L 544.89 347.33 L 545.40 346.90 L 545.90 346.46 L 546.40 346.00 L 546.90 345.54 L 547.40 345.07 L 547.90 344.58 L 548.40 344.09 L 548.90 343.58 L 549.40 343.07 L 549.90 342.54 L 550.40 342.01 L 550.90 341.46 L 551.40 340.91 L 551.90 340.34 L 552.40 339.76 L 552.90 339.18 L 553.40 338.58 L 553.90 337.97 L 554.40 337.35 L 554.90 336.72 L 555.41 336.09 L 555.91 335.44 L 556.41 334.78 L 556.91 334.11 L 557.41 333.43 L 557.91 332.74 L 558.41 332.04 L 558.91 331.33 L 559.41 330.61 L 559.91 329.88 L 560.41 329.14 L 560.91 328.38 L 561.41 327.62 L 561.91 326.85 L 562.41 326.07 L 562.91 325.27 L 563.41 324.47 L 563.91 323.66 L 564.41 322.83 L 564.91 322.00 L 565.42 321.15 L 565.92 320.30 L 566.42 319.43 L 566.92 318.56 L 567.42 317.67 L 567.92 316.74 L 568.42 315.79 L 568.92 314.80 L 569.42 313.77 L 569.92 312.71 L 570.42 311.62 L 570.92 310.49 L 571.42 309.33 L 571.92 308.14 L 572.42 306.91 L 572.92 305.65 L 573.42 304.35 L 573.92 303.02 L 574.42 301.66 L 574.92 300.26 L 575.43 298.83 L 575.93 297.37 L 576.43 295.87 L 576.93 294.34 L 577.43 292.77 L 577.93 291.17 L 578.43 289.54 L 578.93 287.87 L 579.43 286.17 L 579.93 284.43 L 580.43 282.66 L 580.93 280.86 L 581.43 279.02 L 581.93 277.15 L 582.43 275.24 L 582.93 273.31 L 583.43 271.33 L 583.93 269.33 L 584.43 267.39 L 584.93 265.54 L 585.44 263.77 L 585.94 262.08 L 586.44 260.48 L 586.94 258.96 L 587.44 257.53 L 587.94 256.19 L 588.44 254.93 L 588.94 253.76 L 589.44 252.67 L 589.94 251.66 L 590.44 250.74 L 590.94 249.91 L 591.44 249.16 L 591.94 248.50 L 592.44 247.92 L 592.94 247.43 L 593.44 247.02 L 593.94 246.70 L 594.44 246.46 L 594.94 246.31 L 595.45 246.24 L 595.95 246.26 L 596.45 246.36 L 596.95 246.55 L 597.45 246.82 L 597.95 247.18 L 598.45 247.62 L 598.95 248.15 L 599.45 248.77 L 599.95 249.47 L 600.45 250.25 L 600.95 251.12 L 601.45 252.07 L 601.95 253.11 L 602.45 254.24 L 602.95 255.45 L 603.45 256.75 L 603.95 258.13 L 604.45 259.59 L 604.95 261.14 L 605.46 262.78 L 605.96 264.50 L 606.46 266.31 L 606.96 268.20 L 607.46 270.18 L 607.96 272.24 L 608.46 274.39 L 608.96 276.62 L 609.46 278.94 L 609.96 281.34 L 610.46 283.83 L 610.96 286.40 L 611.46 289.06 L 611.96 291.80 L 612.46 294.63 L 612.96 297.54 L 613.46 300.54 L 613.96 303.63 L 614.46 306.80 L 614.96 310.05 L 615.47 313.39 L 615.97 316.82 L 616.47 320.33 L 616.97 323.92 L 617.47 327.55 L 617.97 331.02 L 618.47 334.33 L 618.97 337.47 L 619.47 340.45 L 619.97 343.27 L 620.47 345.92 L 620.97 348.40 L 621.47 350.72 L 621.97 352.87 L 622.47 354.86 L 622.97 356.68 L 623.47 358.34 L 623.97 359.84 L 624.47 361.17 L 624.97 362.33 L 625.48 363.33 L 625.98 364.16 L 626.48 364.83 L 626.98 365.34 L 627.48 365.68 L 627.98 365.85 L 628.48 365.86 L 628.98 365.70 L 629.48 365.38 L 629.98 364.90 L 630.48 364.25 L 630.98 363.43 L 631.48 362.45 L 631.98 361.30 L 632.48 359.99 L 632.98 358.52 L 633.48 356.88 L 633.98 355.07 L 634.48 353.10 L 634.98 350.97 L 635.49 348.66 L 635.99 346.20 L 636.49 343.57 L 636.99 340.77 L 637.49 337.81 L 637.99 334.69 L 638.49 331.40 L 638.99 327.94 L 639.49 324.32 L 639.99 320.54 L 640.49 316.59 L 640.99 312.47 L 641.49 308.19 L 641.99 303.74 L 642.49 299.13 L 642.99 294.36 L 643.49 289.42 L 643.99 284.31 L 644.49 279.04 L 644.99 273.61 L 645.50 268.01 L 646.00 262.24 L 646.50 256.31 L 647.00 250.22 L 647.50 243.96 L 648.00 237.53 L 648.50 230.94 L 649.00 224.19 L 649.50 217.27 L 650.00 210.18" /><text  class="poloto_text poloto_legend_text" x="675" y="300" >f</text><line  class="poloto_line poloto_legend_icon poloto4stroke poloto4legend" stroke="black" x1="680" x2="730" y1="281.25" y2="281.25" /><path  class="poloto_line poloto4stroke" fill="none" stroke="black" d=" M 150.00 378.45 L 150.50 372.12 L 151.00 366.10 L 151.50 360.39 L 152.00 355.00 L 152.50 349.90 L 153.00 345.09 L 153.50 340.57 L 154.00 336.33 L 154.50 332.37 L 155.01 328.67 L 155.51 325.22 L 156.01 322.03 L 156.51 319.09 L 157.01 316.38 L 157.51 313.90 L 158.01 311.64 L 158.51 309.61 L 159.01 307.78 L 159.51 306.16 L 160.01 304.73 L 160.51 303.50 L 161.01 302.44 L 161.51 301.56 L 162.01 300.85 L 162.51 300.31 L 163.01 299.91 L 163.51 299.67 L 164.01 299.57 L 164.51 299.60 L 165.02 299.76 L 165.52 300.04 L 166.02 300.43 L 166.52 300.93 L 167.02 301.53 L 167.52 302.23 L 168.02 303.01 L 168.52 303.87 L 169.02 304.80 L 169.52 305.80 L 170.02 306.85 L 170.52 307.96 L 171.02 309.11 L 171.52 310.30 L 172.02 311.52 L 172.52 312.77 L 173.02 314.03 L 173.52 315.30 L 174.02 316.58 L 174.52 317.85 L 175.03 319.11 L 175.53 320.36 L 176.03 321.58 L 176.53 322.77 L 177.03 323.92 L 177.53 325.03 L 178.03 326.08 L 178.53 327.08 L 179.03 328.01 L 179.53 328.87 L 180.03 329.65 L 180.53 330.34 L 181.03 330.94 L 181.53 331.44 L 182.03 331.83 L 182.53 332.11 L 183.03 332.27 L 183.53 332.30 L 184.03 332.20 L 184.53 331.97 L 185.04 331.62 L 185.54 331.15 L 186.04 330.55 L 186.54 329.84 L 187.04 329.02 L 187.54 328.08 L 188.04 327.04 L 188.54 325.90 L 189.04 324.65 L 189.54 323.31 L 190.04 321.87 L 190.54 320.34 L 191.04 318.72 L 191.54 317.01 L 192.04 315.22 L 192.54 313.35 L 193.04 311.40 L 193.54 309.38 L 194.04 307.29 L 194.54 305.13 L 195.05 302.90 L 195.55 300.62 L 196.05 298.27 L 196.55 295.87 L 197.05 293.41 L 197.55 290.91 L 198.05 288.36 L 198.55 285.76 L 199.05 283.12 L 199.55 280.45 L 200.05 277.74 L 200.55 274.99 L 201.05 272.22 L 201.55 269.43 L 202.05 266.61 L 202.55 263.76 L 203.05 260.91 L 203.55 258.04 L 204.05 255.15 L 204.55 252.26 L 205.06 249.37 L 205.56 246.47 L 206.06 243.58 L 206.56 240.68 L 207.06 237.80 L 207.56 234.92 L 208.06 232.06 L 208.56 229.22 L 209.06 226.39 L 209.56 223.59 L 210.06 220.81 L 210.56 218.06 L 211.06 215.34 L 211.56 212.65 L 212.06 210.00 L 212.56 207.39 L 213.06 204.83 L 213.56 202.31 L 214.06 199.84 L 214.56 197.42 L 215.07 195.06 L 215.57 192.75 L 216.07 190.51 L 216.57 188.33 L 217.07 186.22 L 217.57 184.17 L 218.07 182.20 L 218.57 180.29 L 219.07 178.44 L 219.57 176.67 L 220.07 174.96 L 220.57 173.32 L 221.07 171.74 L 221.57 170.23 L 222.07 168.78 L 222.57 167.40 L 223.07 166.09 L 223.57 164.83 L 224.07 163.65 L 224.57 162.52 L 225.08 161.46 L 225.58 160.46 L 226.08 159.53 L 226.58 158.66 L 227.08 157.85 L 227.58 157.10 L 228.08 156.41 L 228.58 155.79 L 229.08 155.22 L 229.58 154.72 L 230.08 154.28 L 230.58 153.90 L 231.08 153.57 L 231.58 153.31 L 232.08 153.11 L 232.58 152.96 L 233.08 152.88 L 233.58 152.85 L 234.08 152.88 L 234.58 152.97 L 235.09 153.11 L 235.59 153.31 L 236.09 153.57 L 236.59 153.89 L 237.09 154.26 L 237.59 154.69 L 238.09 155.17 L 238.59 155.71 L 239.09 156.31 L 239.59 156.95 L 240.09 157.66 L 240.59 158.42 L 241.09 159.23 L 241.59 160.09 L 242.09 161.01 L 242.59 161.98 L 243.09 163.00 L 243.59 164.08 L 244.09 165.21 L 244.59 166.39 L 245.10 167.62 L 245.60 168.90 L 246.10 170.23 L 246.60 171.61 L 247.10 173.05 L 247.60 174.53 L 248.10 176.06 L 248.60 177.65 L 249.10 179.28 L 249.60 180.96 L 250.10 182.68 L 250.60 184.46 L 251.10 186.28 L 251.60 188.15 L 252.10 190.06 L 252.60 192.02 L 253.10 194.01 L 253.60 196.04 L 254.10 198.11 L 254.60 200.22 L 255.11 202.35 L 255.61 204.53 L 256.11 206.73 L 256.61 208.96 L 257.11 211.22 L 257.61 213.51 L 258.11 215.82 L 258.61 218.15 L 259.11 220.51 L 259.61 222.89 L 260.11 225.28 L 260.61 227.70 L 261.11 230.12 L 261.61 232.57 L 262.11 235.02 L 262.61 237.49 L 263.11 239.96 L 263.61 242.44 L 264.11 244.93 L 264.61 247.43 L 265.12 249.92 L 265.62 252.42 L 266.12 254.92 L 266.62 257.42 L 267.12 259.91 L 267.62 262.40 L 268.12 264.88 L 268.62 267.36 L 269.12 269.82 L 269.62 272.28 L 270.12 274.72 L 270.62 277.15 L 271.12 279.56 L 271.62 281.96 L 272.12 284.34 L 272.62 286.70 L 273.12 289.03 L 273.62 291.35 L 274.12 293.64 L 274.62 295.90 L 275.13 298.13 L 275.63 300.34 L 276.13 302.51 L 276.63 304.65 L 277.13 306.76 L 277.63 308.83 L 278.13 310.87 L 278.63 312.86 L 279.13 314.82 L 279.63 316.73 L 280.13 318.60 L 280.63 320.43 L 281.13 322.21 L 281.63 323.94 L 282.13 325.62 L 282.63 327.25 L 283.13 328.83 L 283.63 330.35 L 284.13 331.82 L 284.63 333.23 L 285.14 334.58 L 285.64 335.88 L 286.14 337.11 L 286.64 338.27 L 287.14 339.37 L 287.64 340.41 L 288.14 341.37 L 288.64 342.27 L 289.14 343.10 L 289.64 343.85 L 290.14 344.53 L 290.64 345.13 L 291.14 345.66 L 291.64 346.10 L 292.14 346.47 L 292.64 346.75 L 293.14 346.95 L 293.64 347.07 L 294.14 347.09 L 294.64 347.03 L 295.15 346.88 L 295.65 346.64 L 296.15 346.31 L 296.65 345.88 L 297.15 345.35 L 297.65 344.73 L 298.15 344.01 L 298.65 343.19 L 299.15 342.26 L 299.65 341.23 L 300.15 340.10 L 300.65 338.86 L 301.15 337.52 L 301.65 336.09 L 302.15 334.57 L 302.65 332.97 L 303.15 331.30 L 303.65 329.55 L 304.15 327.75 L 304.65 325.90 L 305.16 324.00 L 305.66 322.05 L 306.16 320.08 L 306.66 318.07 L 307.16 316.05 L 307.66 314.01 L 308.16 311.96 L 308.66 309.92 L 309.16 307.87 L 309.66 305.85 L 310.16 303.84 L 310.66 301.85 L 311.16 299.90 L 311.66 297.99 L 312.16 296.13 L 312.66 294.31 L 313.16 292.56 L 313.66 290.87 L 314.16 289.25 L 314.66 287.71 L 315.17 286.26 L 315.67 284.90 L 316.17 283.64 L 316.67 282.48 L 317.17 281.44 L 317.67 280.51 L 318.17 279.69 L 318.67 278.98 L 319.17 278.37 L 319.67 277.87 L 320.17 277.47 L 320.67 277.17 L 321.17 276.97 L 321.67 276.87 L 322.17 276.86 L 322.67 276.94 L 323.17 277.11 L 323.67 277.37 L 324.17 277.72 L 324.67 278.15 L 325.18 278.66 L 325.68 279.25 L 326.18 279.91 L 326.68 280.66 L 327.18 281.47 L 327.68 282.36 L 328.18 283.31 L 328.68 284.33 L 329.18 285.42 L 329.68 286.57 L 330.18 287.78 L 330.68 289.04 L 331.18 290.37 L 331.68 291.74 L 332.18 293.17 L 332.68 294.65 L 333.18 296.18 L 333.68 297.75 L 334.18 299.37 L 334.68 301.03 L 335.19 302.73 L 335.69 304.46 L 336.19 306.23 L 336.69 308.04 L 337.19 309.87 L 337.69 311.74 L 338.19 313.63 L 338.69 315.54 L 339.19 317.48 L 339.69 319.44 L 340.19 321.41 L 340.69 323.41 L 341.19 325.42 L 341.69 327.44 L 342.19 329.47 L 342.69 331.50 L 343.19 333.55 L 343.69 335.59 L 344.19 337.64 L 344.69 339.69 L 345.20 341.74 L 345.70 343.78 L 346.20 345.81 L 346.70 347.84 L 347.20 349.86 L 347.70 351.86 L 348.20 353.84 L 348.70 355.81 L 349.20 357.76 L 349.70 359.69 L 350.20 361.60 L 350.70 363.48 L 351.20 365.33 L 351.70 367.15 L 352.20 368.95 L 352.70 370.70 L 353.20 372.42 L 353.70 374.10 L 354.20 375.75 L 354.70 377.35 L 355.21 378.90 L 355.71 380.41 L 356.21 381.87 L 356.71 383.28 L 357.21 384.64 L 357.71 385.94 L 358.21 387.18 L 358.71 388.37 L 359.21 389.49 L 359.71 390.55 L 360.21 391.55 L 360.71 392.47 L 361.21 393.33 L 361.71 394.12 L 362.21 394.83 L 362.71 395.46 L 363.21 396.02 L 363.71 396.50 L 364.21 396.90 L 364.71 397.21 L 365.22 397.43 L 365.72 397.57 L 366.22 397.61 L 366.72 397.57 L 367.22 397.43 L 367.72 397.19 L 368.22 396.86 L 368.72 396.45 L 369.22 395.94 L 369.72 395.36 L 370.22 394.69 L 370.72 393.95 L 371.22 393.12 L 371.72 392.23 L 372.22 391.26 L 372.72 390.22 L 373.22 389.12 L 373.72 387.95 L 374.22 386.72 L 374.72 385.44 L 375.23 384.09 L 375.73 382.69 L 376.23 381.25 L 376.73 379.75 L 377.23 378.20 L 377.73 376.62 L 378.23 374.99 L 378.73 373.32 L 379.23 371.61 L 379.73 369.88 L 380.23 368.11 L 380.73 366.31 L 381.23 364.48 L 381.73 362.63 L 382.23 360.76 L 382.73 358.88 L 383.23 356.97 L 383.73 355.05 L 384.23 353.12 L 384.73 351.18 L 385.24 349.24 L 385.74 347.29 L 386.24 345.33 L 386.74 343.39 L 387.24 341.44 L 387.74 339.50 L 388.24 337.57 L 388.74 335.65 L 389.24 333.74 L 389.74 331.85 L 390.24 329.98 L 390.74 328.13 L 391.24 326.30 L 391.74 324.50 L 392.24 322.73 L 392.74 320.99 L 393.24 319.28 L 393.74 317.61 L 394.24 315.98 L 394.74 314.39 L 395.25 312.84 L 395.75 311.34 L 396.25 309.89 L 396.75 308.48 L 397.25 307.14 L 397.75 305.85 L 398.25 304.61 L 398.75 303.44 L 399.25 302.33 L 399.75 301.29 L 400.25 300.32 L 400.75 299.41 L 401.25 298.58 L 401.75 297.82 L 402.25 297.11 L 402.75 296.48 L 403.25 295.90 L 403.75 295.39 L 404.25 294.93 L 404.75 294.53 L 405.26 294.19 L 405.76 293.90 L 406.26 293.66 L 406.76 293.46 L 407.26 293.32 L 407.76 293.22 L 408.26 293.16 L 408.76 293.15 L 409.26 293.17 L 409.76 293.24 L 410.26 293.34 L 410.76 293.47 L 411.26 293.64 L 411.76 293.83 L 412.26 294.06 L 412.76 294.31 L 413.26 294.59 L 413.76 294.89 L 414.26 295.22 L 414.76 295.56 L 415.27 295.92 L 415.77 296.30 L 416.27 296.69 L 416.77 297.09 L 417.27 297.50 L 417.77 297.92 L 418.27 298.35 L 418.77 298.79 L 419.27 299.22 L 419.77 299.66 L 420.27 300.10 L 420.77 300.53 L 421.27 300.96 L 421.77 301.38 L 422.27 301.80 L 422.77 302.21 L 423.27 302.60 L 423.77 302.98 L 424.27 303.35 L 424.77 303.70 L 425.28 304.02 L 425.78 304.33 L 426.28 304.62 L 426.78 304.88 L 427.28 305.11 L 427.78 305.32 L 428.28 305.50 L 428.78 305.64 L 429.28 305.75 L 429.78 305.83 L 430.28 305.86 L 430.78 305.86 L 431.28 305.82 L 431.78 305.73 L 432.28 305.60 L 432.78 305.43 L 433.28 305.20 L 433.78 304.92 L 434.28 304.60 L 434.78 304.22 L 435.29 303.79 L 435.79 303.32 L 436.29 302.80 L 436.79 302.24 L 437.29 301.63 L 437.79 300.98 L 438.29 300.29 L 438.79 299.56 L 439.29 298.80 L 439.79 297.99 L 440.29 297.15 L 440.79 296.28 L 441.29 295.37 L 441.79 294.43 L 442.29 293.47 L 442.79 292.47 L 443.29 291.44 L 443.79 290.39 L 444.29 289.32 L 444.79 288.21 L 445.30 287.09 L 445.80 285.95 L 446.30 284.78 L 446.80 283.60 L 447.30 282.40 L 447.80 281.19 L 448.30 279.96 L 448.80 278.71 L 449.30 277.46 L 449.80 276.19 L 450.30 274.91 L 450.80 273.63 L 451.30 272.34 L 451.80 271.04 L 452.30 269.74 L 452.80 268.44 L 453.30 267.13 L 453.80 265.82 L 454.30 264.52 L 454.80 263.22 L 455.31 261.92 L 455.81 260.62 L 456.31 259.34 L 456.81 258.05 L 457.31 256.78 L 457.81 255.52 L 458.31 254.27 L 458.81 253.03 L 459.31 251.81 L 459.81 250.60 L 460.31 249.41 L 460.81 248.24 L 461.31 247.08 L 461.81 245.95 L 462.31 244.83 L 462.81 243.74 L 463.31 242.68 L 463.81 241.64 L 464.31 240.63 L 464.81 239.65 L 465.32 238.69 L 465.82 237.77 L 466.32 236.88 L 466.82 236.02 L 467.32 235.20 L 467.82 234.41 L 468.32 233.66 L 468.82 232.94 L 469.32 232.25 L 469.82 231.60 L 470.32 230.99 L 470.82 230.40 L 471.32 229.85 L 471.82 229.33 L 472.32 228.85 L 472.82 228.39 L 473.32 227.97 L 473.82 227.58 L 474.32 227.22 L 474.82 226.89 L 475.33 226.59 L 475.83 226.32 L 476.33 226.08 L 476.83 225.87 L 477.33 225.69 L 477.83 225.54 L 478.33 225.42 L 478.83 225.33 L 479.33 225.26 L 479.83 225.22 L 480.33 225.21 L 480.83 225.22 L 481.33 225.27 L 481.83 225.34 L 482.33 225.43 L 482.83 225.55 L 483.33 225.70 L 483.83 225.87 L 484.33 226.06 L 484.83 226.29 L 485.34 226.53 L 485.84 226.80 L 486.34 227.09 L 486.84 227.41 L 487.34 227.75 L 487.84 228.11 L 488.34 228.49 L 488.84 228.90 L 489.34 229.33 L 489.84 229.77 L 490.34 230.24 L 490.84 230.74 L 491.34 231.25 L 491.84 231.78 L 492.34 232.33 L 492.84 232.90 L 493.34 233.49 L 493.84 234.10 L 494.34 234.73 L 494.84 235.38 L 495.35 236.04 L 495.85 236.73 L 496.35 237.43 L 496.85 238.15 L 497.35 238.88 L 497.85 239.63 L 498.35 240.40 L 498.85 241.18 L 499.35 241.98 L 499.85 242.79 L 500.35 243.62 L 500.85 244.46 L 501.35 245.32 L 501.85 246.19 L 502.35 247.08 L 502.85 247.98 L 503.35 248.89 L 503.85 249.82 L 504.35 250.75 L 504.85 251.70 L 505.36 252.66 L 505.86 253.64 L 506.36 254.62 L 506.86 255.62 L 507.36 256.62 L 507.86 257.64 L 508.36 258.67 L 508.86 259.70 L 509.36 260.75 L 509.86 261.80 L 510.36 262.87 L 510.86 263.94 L 511.36 265.02 L 511.86 266.11 L 512.36 267.20 L 512.86 268.31 L 513.36 269.41 L 513.86 270.53 L 514.36 271.65 L 514.86 272.78 L 515.37 273.92 L 515.87 275.06 L 516.37 276.20 L 516.87 277.35 L 517.37 278.51 L 517.87 279.67 L 518.37 280.83 L 518.87 281.99 L 519.37 283.16 L 519.87 284.33 L 520.37 285.51 L 520.87 286.69 L 521.37 287.87 L 521.87 289.05 L 522.37 290.23 L 522.87 291.41 L 523.37 292.60 L 523.87 293.78 L 524.37 294.96 L 524.87 296.15 L 525.38 297.33 L 525.88 298.52 L 526.38 299.70 L 526.88 300.88 L 527.38 302.06 L 527.88 303.23 L 528.38 304.41 L 528.88 305.58 L 529.38 306.75 L 529.88 307.92 L 530.38 309.08 L 530.88 310.24 L 531.38 311.39 L 531.88 312.54 L 532.38 313.69 L 532.88 314.83 L 533.38 315.96 L 533.88 317.09 L 534.38 318.21 L 534.88 319.33 L 535.39 320.44 L 535.89 321.54 L 536.39 322.64 L 536.89 323.73 L 537.39 324.81 L 537.89 325.88 L 538.39 326.94 L 538.89 328.00 L 539.39 329.04 L 539.89 330.08 L 540.39 331.10 L 540.89 332.12 L 541.39 333.13 L 541.89 334.12 L 542.39 335.11 L 542.89 336.08 L 543.39 337.04 L 543.89 337.99 L 544.39 338.93 L 544.89 339.85 L 545.40 340.76 L 545.90 341.66 L 546.40 342.55 L 546.90 343.42 L 547.40 344.28 L 547.90 345.12 L 548.40 345.95 L 548.90 346.76 L 549.40 347.56 L 549.90 348.34 L 550.40 349.11 L 550.90 349.86 L 551.40 350.60 L 551.90 351.31 L 552.40 352.01 L 552.90 352.70 L 553.40 353.36 L 553.90 354.01 L 554.40 354.64 L 554.90 355.25 L 555.41 355.84 L 555.91 356.41 L 556.41 356.96 L 556.91 357.49 L 557.41 358.00 L 557.91 358.50 L 558.41 358.97 L 558.91 359.41 L 559.41 359.84 L 559.91 360.25 L 560.41 360.63 L 560.91 360.99 L 561.41 361.33 L 561.91 361.65 L 562.41 361.94 L 562.91 362.21 L 563.41 362.45 L 563.91 362.67 L 564.41 362.87 L 564.91 363.04 L 565.42 363.19 L 565.92 363.31 L 566.42 363.40 L 566.92 363.47 L 567.42 363.51 L 567.92 363.53 L 568.42 363.51 L 568.92 363.47 L 569.42 363.40 L 569.92 363.29 L 570.42 363.16 L 570.92 362.99 L 571.42 362.78 L 571.92 362.55 L 572.42 362.27 L 572.92 361.96 L 573.42 361.61 L 573.92 361.21 L 574.42 360.78 L 574.92 360.31 L 575.43 359.80 L 575.93 359.24 L 576.43 358.64 L 576.93 357.99 L 577.43 357.29 L 577.93 356.55 L 578.43 355.76 L 578.93 354.92 L 579.43 354.03 L 579.93 353.09 L 580.43 352.09 L 580.93 351.04 L 581.43 349.94 L 581.93 348.78 L 582.43 347.56 L 582.93 346.29 L 583.43 344.96 L 583.93 343.57 L 584.43 342.12 L 584.93 340.61 L 585.44 339.05 L 585.94 337.43 L 586.44 335.77 L 586.94 334.06 L 587.44 332.31 L 587.94 330.51 L 588.44 328.68 L 588.94 326.80 L 589.44 324.90 L 589.94 322.96 L 590.44 321.00 L 590.94 319.01 L 591.44 316.99 L 591.94 314.95 L 592.44 312.90 L 592.94 310.83 L 593.44 308.74 L 593.94 306.64 L 594.44 304.54 L 594.94 302.43 L 595.45 300.32 L 595.95 298.20 L 596.45 296.09 L 596.95 293.98 L 597.45 291.88 L 597.95 289.79 L 598.45 287.71 L 598.95 285.64 L 599.45 283.60 L 599.95 281.57 L 600.45 279.56 L 600.95 277.58 L 601.45 275.63 L 601.95 273.70 L 602.45 271.81 L 602.95 269.96 L 603.45 268.14 L 603.95 266.36 L 604.45 264.62 L 604.95 262.93 L 605.46 261.29 L 605.96 259.70 L 606.46 258.16 L 606.96 256.67 L 607.46 255.25 L 607.96 253.88 L 608.46 252.58 L 608.96 251.34 L 609.46 250.18 L 609.96 249.08 L 610.46 248.05 L 610.96 247.11 L 611.46 246.24 L 611.96 245.45 L 612.46 244.74 L 612.96 244.12 L 613.46 243.59 L 613.96 243.15 L 614.46 242.81 L 614.96 242.56 L 615.47 242.41 L 615.97 242.36 L 616.47 242.42 L 616.97 242.58 L 617.47 242.85 L 617.97 243.23 L 618.47 243.71 L 618.97 244.28 L 619.47 244.95 L 619.97 245.71 L 620.47 246.54 L 620.97 247.46 L 621.47 248.44 L 621.97 249.49 L 622.47 250.61 L 622.97 251.78 L 623.47 253.01 L 623.97 254.28 L 624.47 255.59 L 624.97 256.94 L 625.48 258.33 L 625.98 259.74 L 626.48 261.17 L 626.98 262.62 L 627.48 264.09 L 627.98 265.56 L 628.48 267.03 L 628.98 268.51 L 629.48 269.97 L 629.98 271.43 L 630.48 272.86 L 630.98 274.28 L 631.48 275.66 L 631.98 277.02 L 632.48 278.34 L 632.98 279.61 L 633.48 280.84 L 633.98 282.02 L 634.48 283.14 L 634.98 284.20 L 635.49 285.20 L 635.99 286.12 L 636.49 286.96 L 636.99 287.73 L 637.49 288.41 L 637.99 288.99 L 638.49 289.48 L 638.99 289.87 L 639.49 290.15 L 639.99 290.33 L 640.49 290.38 L 640.99 290.32 L 641.49 290.13 L 641.99 289.80 L 642.49 289.35 L 642.99 288.75 L 643.49 288.00 L 643.99 287.11 L 644.49 286.06 L 644.99 284.85 L 645.50 283.47 L 646.00 281.92 L 646.50 280.20 L 647.00 278.30 L 647.50 276.21 L 648.00 273.93 L 648.50 271.45 L 649.00 268.78 L 649.50 265.90 L 650.00 262.81" /><text  class="poloto_labels poloto_text poloto_title" x="400" y="37.5" >curve fitting</text><text  class="poloto_labels poloto_text poloto_xname" x="400" y="481.25" >x</text><text  class="poloto_labels poloto_text poloto_yname" transform="rotate(-90,37.5,250)" x="37.5" y="250" >y</text><text  class="poloto_tick_labels poloto_text" dominant-baseline="middle" text-anchor="start" x="150" y="70" ></text><line  class="poloto_axis_lines" stroke="black" x1="150" x2="144" y1="394.6694550583329" y2="394.6694550583329" /><text  class="poloto_tick_labels poloto_text" dominant-baseline="middle" text-anchor="end" x="135" y="394.6694550583329" >-20</text><line  class="poloto_axis_lines" stroke="black" x1="150" x2="144" y1="316.7143065849775" y2="316.7143065849775" /><text  class="poloto_tick_labels poloto_text" dominant-baseline="middle" text-anchor="end" x="135" y="316.7143065849775" >0</text><line  class="poloto_axis_lines" stroke="black" x1="150" x2="144" y1="238.75915811162213" y2="238.75915811162213" /><text  class="poloto_tick_labels poloto_text" dominant-baseline="middle" text-anchor="end" x="135" y="238.75915811162213" >20</text><line  class="poloto_axis_lines" stroke="black" x1="150" x2="144" y1="160.80400963826668" y2="160.80400963826668" /><text  class="poloto_tick_labels poloto_text" dominant-baseline="middle" text-anchor="end" x="135" y="160.80400963826668" >40</text><text  class="poloto_tick_labels poloto_text" dominant-baseline="middle" text-anchor="start" x="440.00000000000006" y="70" ></text><line  class="poloto_axis_lines" stroke="black" x1="150" x2="150" y1="400" y2="405" /><text  class="poloto_tick_labels poloto_text" dominant-baseline="start" text-anchor="middle" x="150" y="430" >0</text><line  class="poloto_axis_lines" stroke="black" x1="233.41675008341676" x2="233.41675008341676" y1="400" y2="405" /><text  class="poloto_tick_labels poloto_text" dominant-baseline="start" text-anchor="middle" x="233.41675008341676" y="430" >5</text><line  class="poloto_axis_lines" stroke="black" x1="316.8335001668335" x2="316.8335001668335" y1="400" y2="405" /><text  class="poloto_tick_labels poloto_text" dominant-baseline="start" text-anchor="middle" x="316.8335001668335" y="430" >10</text><line  class="poloto_axis_lines" stroke="black" x1="400.25025025025025" x2="400.25025025025025" y1="400" y2="405" /><text  class="poloto_tick_labels poloto_text" dominant-baseline="start" text-anchor="middle" x="400.25025025025025" y="430" >15</text><line  class="poloto_axis_lines" stroke="black" x1="483.66700033366703" x2="483.66700033366703" y1="400" y2="405" /><text  class="poloto_tick_labels poloto_text" dominant-baseline="start" text-anchor="middle" x="483.66700033366703" y="430" >20</text><line  class="poloto_axis_lines" stroke="black" x1="567.0837504170838" x2="567.0837504170838" y1="400" y2="405" /><text  class="poloto_tick_labels poloto_text" dominant-baseline="start" text-anchor="middle" x="567.0837504170838" y="430" >25</text><path  stroke="black" fill="none" class="poloto_axis_lines" style="stroke-dasharray:8.341675008341676;stroke-dashoffset:-0;" d=" M 150 400 L 650 400" /><path  stroke="black" fill="none" class="poloto_axis_lines" style="stroke-dasharray:9.744393559169426;stroke-dashoffset:-5.330544941667085;" d=" M 150 400 L 150 100" /></svg>